/* XPM */
static char *d699bd1f7e3948c4ac3aacd6041a9929uGpIrd8sDVL9ufuZ[] = {
/* columns rows colors chars-per-pixel */
"60 60 248 2 ",
"   c #060001",
".  c #1A0000",
"X  c #250101",
"o  c #350F0A",
"O  c #470403",
"+  c #570503",
"@  c #471608",
"#  c #591903",
"$  c #591E13",
"%  c #690703",
"&  c #671804",
"*  c #70140F",
"=  c #5A240D",
"-  c #672608",
";  c #762A06",
":  c #672C15",
">  c #752A18",
",  c #703315",
"<  c #793418",
"1  c #780B2D",
"2  c #7A3B23",
"3  c #75303B",
"4  c #7D4427",
"5  c #764838",
"6  c #393D7C",
"7  c #71394B",
"8  c #632C5A",
"9  c #4E396C",
"0  c #3F5078",
"q  c #784455",
"w  c #514B76",
"e  c #734C69",
"r  c #71646E",
"t  c #890E10",
"y  c #961916",
"u  c #942E0F",
"i  c #853605",
"p  c #9C3803",
"a  c #9B281B",
"s  c #873A18",
"d  c #833B1E",
"f  c #A73206",
"g  c #A22A1C",
"h  c #A5331E",
"j  c #AA3819",
"k  c #871331",
"l  c #833B21",
"z  c #8A3E23",
"x  c #983725",
"c  c #8C3334",
"v  c #A63924",
"b  c #AC3B23",
"n  c #93410E",
"m  c #964119",
"M  c #A74505",
"N  c #A74618",
"B  c #A54C1C",
"V  c #AB4A1D",
"C  c #B04E15",
"Z  c #B6451C",
"A  c #B16C0F",
"S  c #8C4225",
"D  c #8C4329",
"F  c #894429",
"G  c #944424",
"H  c #9B4625",
"J  c #934629",
"K  c #984929",
"L  c #9D4B2A",
"P  c #9C522B",
"I  c #894B37",
"U  c #9A4B34",
"Y  c #8C5039",
"T  c #995437",
"R  c #A84427",
"E  c #A44B23",
"W  c #AB4D24",
"Q  c #AB442B",
"!  c #A44D2B",
"~  c #AA4D2B",
"^  c #B14425",
"/  c #B54926",
"(  c #B54B2A",
")  c #B94D2A",
"_  c #A5512D",
"`  c #A95629",
"'  c #AC532C",
"]  c #B2542D",
"[  c #BC522C",
"{  c #B4582A",
"}  c #A74C33",
"|  c #B64D32",
" . c #A45332",
".. c #AD5431",
"X. c #A65837",
"o. c #AE5933",
"O. c #A55A3C",
"+. c #AB5A3A",
"@. c #B25532",
"#. c #B25A34",
"$. c #B45D3A",
"%. c #B95D38",
"&. c #A96926",
"*. c #B9682B",
"=. c #BA762C",
"-. c #A9643A",
";. c #BA6633",
":. c #B5613D",
">. c #B9613D",
",. c #CC6E0E",
"<. c #D66B0B",
"1. c #C35928",
"2. c #C15731",
"3. c #C96427",
"4. c #CF702B",
"5. c #DA7629",
"6. c #E37926",
"7. c #853446",
"8. c #895546",
"9. c #965B45",
"0. c #8E4C52",
"q. c #A85B42",
"w. c #AA5D53",
"e. c #9A614C",
"r. c #84615E",
"t. c #976858",
"y. c #AB6342",
"u. c #A96748",
"i. c #B56443",
"p. c #B96543",
"a. c #B36847",
"s. c #BA6945",
"d. c #B36A4C",
"f. c #BB6B4A",
"g. c #AF7E47",
"h. c #B8734A",
"j. c #A66B55",
"k. c #B96E53",
"l. c #A4725A",
"z. c #AC735C",
"x. c #BC7254",
"c. c #B77759",
"v. c #BB7559",
"b. c #BE7A5C",
"n. c #815D73",
"m. c #8A6B67",
"M. c #A97765",
"N. c #B77B66",
"B. c #A77F70",
"V. c #C17243",
"C. c #C17657",
"Z. c #C27B5D",
"A. c #C37E63",
"S. c #78837F",
"D. c #B8842E",
"F. c #CA9111",
"G. c #E2B01B",
"H. c #CA9533",
"J. c #EA8729",
"K. c #F18C27",
"L. c #EB942F",
"P. c #F5992E",
"I. c #F29A31",
"U. c #D8AB31",
"Y. c #F8A434",
"T. c #F5AA31",
"R. c #FAAB37",
"E. c #FAAD39",
"W. c #BB8B41",
"Q. c #A99C57",
"!. c #BB846B",
"~. c #B08772",
"^. c #B98674",
"/. c #BD8974",
"(. c #C98E51",
"). c #DAB447",
"_. c #D6AD54",
"`. c #E0BE47",
"'. c #C58265",
"]. c #C6856A",
"[. c #C9896B",
"{. c #CF956C",
"}. c #C38A75",
"|. c #CA8D73",
" X c #C38C78",
".X c #CC9379",
"XX c #CC937C",
"oX c #D49979",
"OX c #D9AD74",
"+X c #E1B176",
"@X c #E6C847",
"#X c #E3C957",
"$X c #EFD956",
"%X c #F3E25D",
"&X c #DEC567",
"*X c #E8D073",
"=X c #F6E86E",
"-X c #0C4B8D",
";X c #025399",
":X c #2B4B88",
">X c #335391",
",X c #3E608A",
"<X c #025AA6",
"1X c #1459A1",
"2X c #3A5CA1",
"3X c #0369B7",
"4X c #0E68B2",
"5X c #2F6EB0",
"6X c #574C85",
"7X c #4D5185",
"8X c #5A6996",
"9X c #047AC5",
"0X c #1979C4",
"qX c #8C7184",
"wX c #3C81BD",
"eX c #558EB4",
"rX c #0D8AD1",
"tX c #298DCD",
"yX c #099BE4",
"uX c #279BE3",
"iX c #12A9EE",
"pX c #25A5E3",
"aX c #4F9DCB",
"sX c #8E8E9B",
"dX c #BD9384",
"fX c #9DAABA",
"gX c #CC9883",
"hX c #D19780",
"jX c #D19A84",
"kX c #D29E89",
"lX c #D4A38C",
"zX c #C7A791",
"xX c #D6A795",
"cX c #E5AB88",
"vX c #EDB692",
"bX c #EAB594",
"nX c #DBB4A4",
"mX c #E2BFA3",
"MX c #E7D48E",
"NX c #F5C29D",
"BX c #F8ED8F",
"VX c #FCCBA5",
"CX c #F2D2AC",
"ZX c #F5E8A3",
"AX c #FAF3B1",
"SX c #FCF6B7",
"DX c #AFB8C2",
"FX c #FFFFC0",
/* pixels */
"nX.XZ.x.x.x.s.i.s.x.A.'.N.x.x.Z.b.x.N.'.Z.Z.b.x.Z.].v.+. XXX'.A.x.f.f.+.#.:.:.Z.|.XX[.Z.A. X'.C.].|.b.p.x.A.i.N [.lXb.kX",
"kXf.' ' ' _ ~ ' ' ~ ~ ( ` #.$.s.$.$.' ( ~ ' ' ~ ' ] L d O.f.#.] ' L K ! ~ ' ' ' #.#.#.@.@.' @.@.' ' ~ ! ! ' R H c.b.N !.",
"gXi.@.' ~ ! ~ ..@.@.] ] @.$.s.f.s.i.#.#.@.#.@.| @.@.! z q.x.$.~ _ L E ! ' ' _ ' #.>.#.#.@.@.@.@.@.' ! ! ' ' L G +.:.N /.",
"gXd.#.] ' ~ ~ ' ] ' ..] #.>.d.s.:.:.$.$.@.@.@.@.] @._ G k.C.$. .L ! ~ ' ' ` ` ' #.#.#.#.@.#.@.@..._ ! ~ ' ..! d E -.B /.",
"lXZ.%.W ' ~ ~ _ _ ` ` ] #.s.s.;.#.o.$.$.#.#.@.] ( @.! s y.f.o.~ E ! _ ` ' ' ~ ' #.%.%.#.#.#.@.@.! ! ! ' ' ] ~ G O.s.B /.",
"lXA.$.' ' ' ' ` ` ~ ~ ' $.>.:.#.#.#.o.o.b Q @.@.' @.L s O.s.o. .! ! ' ' ' ' ' @.#.>.%.@.o.#...' ~ ~ ~ ' ] ] ! S X.s.E /.",
"jXV.$.( ` _ ' ~ ~ ' ' ' #.$.#.#.#.#.o.o.(.H...@.] ] L l q.f...! ! ' ] ` ' ' ] @.#.q.%.@.] @..._ E ! W ` ' @.! d G i.E /.",
"hXf.$.] ` ' ` ' ' ' ' ] #.:.>.#.o.{ ] 4.=X@Xb #.] ] ! l X.i.~ ! ' ' ' ] ] @.@.] @.$.#.@.@.] ! L ! ~ ] ] ] ' L d  .s.W /.",
"gXf.$.| @.` ' ' ' ] W ] :.>.:.] ( *.} ).AX#XE o.] ] ! S O.C.f.#.{ ] ` ' ] ' ' ' ' ' @.@.@._ K K H ' ] ] ] ] E H f.C.E !.",
"gXC.$.@.] ' ` ' ' ` ] #.:.s.;.#.( _.H.=XSX#XB ` { ]  .L {.vXvXcXoX2.' ` ` W ` ' ~ W ' _ L K G H _ ] ' ' ] ] K d X.a.E /.",
"kXZ.>.#.#.#.#.#.o.#.] #.:.;.4.] =.%X$X=X=X@XP 4.3.$.M '.VXVXvXVXCXvX>.' #.' ] ' ~ ~ ! ! J J ! ' @.#.@.' ..#.L z +.f.V /.",
" Xa.+.!  . .U P P ! ! ' _ (.).*.#X%XBX*X*X).&.).=.U qXzXvXVXoXoXVXVXbX:.m ~ L L K L H H H K H ! L ! L ! ! _ G < q.u.p ~.",
"w.t - # + # # + + % i s ; #X).).=XBXSX+XAX(.D.$XA 8XpXaXzXvXoXs.bXvXCXxXr ; ; ; ; : : < < < ; % % & & ; ; ; # O % & + m.",
"zX!.e.Y 8.e.9.e.j.z.j.j.O.%X#X$X=XFXMXMXZXA *X%XM.aXaXyX5X{.x.X.W.{.cXfXpXeXr.l.9.< < I Y T u.t.t.j.j.z.j.9.9.t.z.t.8.dX",
"mXlX'.'.|..X.X.XjXkXhXXXC.%X#X@X=XAXD.MX&XMXZX#X-.Q.S.9X3Xm.h.d.d.u.r 3XpXyXfXxXN.p u.].'.].|.|.XXXXhXoX|.].|.gXjXXX].xX",
"xXd.i.d.x.c.x.x.v.k.Z._.=.#X#XF.=XZXW.#XZXAX%XF.=.G.t.;X<Xw u.c.d.e.:X3X3XeXNXVXoXS u.].b.b.x.p.d.k.k.k.f.x.x.x.k.k.i.gX",
"[.V ~ W W V V V W W N _.MX).$XF.*XZXA #XBX%X@XA =.H.C 0.-Xw M B / ' T w -XdXvX+XvXoXx.C.:.] W B m N N E W W W V V B p !.",
".X%.@.] #.#.@.@.@.#.} *.CXBXG.U.U.`.A U.@X@XF.&.&.&.U / x c h ~ @.@.o.{ P '.!.-.[.vXoXC.:.] ' ] ] ' ~ ~ ' ..' ..@.#.V /.",
"hX:.#.#.$.#.@.@.@.@.o.R D.=X@XU._.ZXOXU.H.A &.` &.&.` [ 2.j v x } @.| #.` X.-.P -.oX[.>.#.] ] ] ] ' ' ~ ' ..@.@...@.B /.",
"XX>.#.$.>.#.#...@.@.@.` T U.#XAX).ZXCX&X&XA &.&.&.&.] [ ( ^ j g v ....@.' ` L P h.y.m >.` / ] ] ] ' ~ ' ' ..@.@.@.' M /.",
"oX>.:.i.>.#.#...} @.@.@.L A AXZXD.OXMX{.*X&.&.F.&.x ) [ ( / 2.b y ! #.@.....! H P s X.p.] ] @.@.] ~ ~ ' ' ] @.@.' ` N /.",
"jXs.s.s.$...! ! ~ ' @.#.p /.AXD.j.W.OXQ._.P T &.&.P x ) ( h ) ) y 7  .' ......@.! K O.s...] @.@.@.' ~ ~ ~ ] ' ' ` ..N /.",
"kXf.s.>.#.' L ! _ ' ..$.K l._.=.[.Q.zX{.g.P y.h.O.z.6Xj 2.b b 1.7.-X0 q.[ } ..#.' S L +.~ @.] ] @.' ~ ~ ! ~ ` ' ` #.C /.",
"kXx.s.#.' _ ! ' ' @.p.f.-.4 -.&.oXbXbXcXv.-.u.h.h.'.1X7.1.b b M 8 <X1X4.J.5.3.@.K , S o.! ~ ] ] ] ' ~ W ! ~ ' ' ' o.N ^.",
"kXV.:.o.' ! ~ ] @.:.f.s.t.rXsX,.a.Z.cX{.P a.h.-.-.z.1X9 u b j c :X<Xr.<.R.R.P.5.J , L $.~ ~ ` ] ] ' ' ~ ] @.#.' ` ' m ^.",
"kXs.-. .' ! ..#.#.i.f.y.tXiXtX(.,.K x.~ +.h.-.>.T ,X3X1X3 h x :X<X-X| J.R.R.R.P.] <  .$.~ ~ ' ' ] ' ..o.$.$.$...' ` N /.",
"B.2 2 5 2 d S F F T l !.DXyXyXr <./ ^ [ / U r.n.2X3X4X3X7 f 7X<X,X;.P.R.R.R.R.P.3.$ G ' G G m S z z d 2 S K S F S G ; ~.",
"0.X o o @ $ = # - $   !.NXsX<X;Xe / ( [ [ ^ 7 6 ;X:X;X6Xh e <X-XV.R.E.R.R.R.Y.K.1.> O.+.G s s > < < > * > s , @ = = O m.",
"dX~.~.M.M.z.u.u.i.q.].cXvX+XoX8X0 3 y g Q / Z g % * 1 y 7.-X6 ` Y.R.R.R.E.P.J.4.^ z.|.A.x.v.N.!.'.N.N.N. X[.i.s e.z.T /.",
"nXlXkX|.[.A.C.N.C.[.VXVXvXNXcX(.Y 9.$.} Q } } q.q.z.c...k 8 &.P.E.R.R.R.R.J.2.( b C.A.C.f.f.Z.|.|.'.A.]. X].s.' [.jX'.xX",
"kXx.+... .L } R V.xXbX+XNXcXh.G H _ } ' ....| i.p.p.O.z j C Y.E.R.R.R.R.Y.J.3.b ~ >.( ~ ! ! ' +...o...o...' L G y.f.~ /.",
"gXs...E L K E } sXsXlXoXoX[. .H ! ! ~ ' ( ~ $.p.p.2.! a g J.E.R.R.R.R.Y.P.3.b v ~ ..! ! ! H ~ ' ..] @.] ' _ J z _ o.N /.",
"XX$. .L L L M qXsXC.{.g.P  .H ` ~ ] @.] ' @.p.s.$.#._ t 3.R.R.R.E.R.I.5./ g a R ! L K K H ! ~ ..@.@.@.@. .L G l  .p.B /.",
"}.@.! L R  .M qXoX` -.-.b.d.#.` ` ] @.@.#.#.i.$.$.#.K Z Y.E.R.R.T.K.5.) ^ b v ~ ~ ! ! ! ~ ~ o.$.$.| @.~ L ! ! J X.p.B /.",
".Xi...! ~ ~ R q.y.a.h.-.a.[.[.;.~ @.#.#.#.;.$.$.@.#.Q J.E.R.R.R.K.6.6.1.) g ~ ~ ~ ~ ' ] ....#.i.$.@.@.! ! _ ~ H y.s.B ^.",
"kXk. .E ! Q ~ N I r.3 3 H ` i...#.$.$.#.#.#.$.#.@. .#.Y.R.R.R.R.K.3.h t t t v ( ~ ~ ` ] @.@.@.#.#.....! L ' _ G X.s.V /.",
"XXi...R ! ~ ~ ~ } I U ..o.#.' #.>.s.$.$.#.$.$.@.@.~ { I.T.Y.P.P.5.b y a h 1.5.J.3.Q ..@.@.] ] @.#.....} ~ #...! :.s.V /.",
"gXs...W ~ ~ ~ ~ W ' ..#.#.#.#.#.$.:.#.#.$.:.$.@.@._ W 6.K.K.K.K.6.^ g b h 3.K.P.{ t R #.@.] ] @.@.@.@.#.#.%.#.~ y.s.V /.",
"gXf...! ~ ~ ' ~ ~ ..$.$.%.@.o.{ #.#.#.#.$.#.#.@.' ! L 3.5.6.6.4.1.b b b y b 3.K.I.) g } #.@.] ' @.#.$.%.i.p.+.d K $.W /.",
" Xd.#.' } ( ~ ' #.$.s.>.$.#.] ] #.#.:.$.%.#.#.#.#._ ` J.1.h ) ) [ ) h ) h j 2.6.5./ y v @.@.@.#.p.f.f.s.%.%.$.G O.h.W }.",
" Xy. .L ! E ! ' +.q.X... .! !  . .+.X. . .} ! ' ! K H L.I.b Q [ ) / h [ ( b ) 2.) / a b v ` { -.h.s.q.o.#.$.X.J u.f.H ^.",
"j.; - - , < < < < ; ; : : : $ # # # O @ o @ - s : # + 4.E.6.y g v ) / [ 2.b b b / / k q.t q I n n i # - s S 2 = ; < & m.",
"dXe.8.Y I Y Y Y I 8.9.Y I , 4 8.Y 5 q 5 5 5 9.9.Y Y 8.[ J.K.3.j ^ [ ) [ 2.h b b ^ f 9 <X6 6 0 ,Xr w 5X7XI J l 4 9.9.F ~.",
"CXxXXXXX|.|. X].'.XX.X].N. .c.gX|.|.{. X}.|.gX|.[.[.gX[.| Z 1.) b y y g ) ^ b h Z y >X4X3X5X8XiXtX0XiX0X0.C.a.b. X|.A.kX",
"nXN.Z.Z.'.].].b.Z.'.C.x.d.s u.A.C.A.A.v.v.v.x.C.k.k.Z.Z.w.g y ^ 1.b a v ) ^ Q f 7.>X4X4X3X,XaXiXwX2XuX9Xn.s.f.f.x.C.s.gX",
"gX~ V W $.p.s.p.%.#.o.o.K , 9.Z.#.%.@.E B W #.$.@.] ' W ' ! v h h h g b h y y 1 8 >X5X3X4X0 tXyX5X7XtX9X9 N #.#.] ' M /.",
"jX$.@.i.f.f.s.+.....#.#._ s u.A.p.i.i.#.$.i.f.f.$.@.@.@...' ' @.} Q v h g / ( 7 9 :X6 >X,X,X4XuX5X>X0X9X6X^ #.o.#.#.W }.",
"kXp.p.p.s.$...' ' ' @.#.U < U p.$.#.#...$.p.p.p.@.@.@.@.....@.#.#.@.#.b g h ^ v a 7 w 9 w 4X0XtX5X>X0X3X6XV #.#.#.$.~ }.",
"kXf.p.p.#.~ ' _ ..@.@.#.L : s ' ' _ ! ! ' #.#.#.@.@.@.| ..@.@.@.@.@.@.@.~ Q b } ! z d.m.:X>X4X9X8X9 3X3X6XV @.@.#.$.W }.",
"kXs.i.#.......' ] @.| #.U : J i._ ! ! ! ' ..#.#.@.@.@.@.....@.@.@.@.@.@.@.@.@.#.` H v.x.e 6 5X9X6Xf e 3X6Xj #.| #.| V }.",
"jXi.@.@.] @...] ] @.@.@.U < u.b.$.' ~ ' @.#.#.@.@.@...' ! ~ } @.@.#.#.#.@...| #._ z  .>.0.6 >X3X0./ W 9 6XN #.@.@.@.R /.",
"jX%.@.@.@.@.] @.@.@.@.$.P < y.Z.$.@.@.] ] #.#.@.@.@...' ! ! ~ @.#.%.%.#.@.| @.#.P S  .>.U w :X:Xx %.@.U 8 ! #.| @.@.V }.",
"jX:.@.#.] ] @.@.@.] @.$.L : K %.] ` @.' ' ~ @.@.@.| ! ! L ! ! ~ #.$.:.#.@.@.@.@. .G y.f...0.9 7 ~ @.@.@.E ..@.@.@.@.V }.",
"kX%.@.' ' ' ' ] ' ` ' $.U : U f.o.~ ' ! ! ! ~ ~ ..' L L ! ~ ~ ~ ' ' o.....@.....! l _ s.$.' ! ~ #.| @.#.' ( @...@.#.V }.",
"kXp.#.#...@.] ] @.@.%.>._ s j.Z.@.~ ! _ ' _ ..! ! ! ! ~ ] ] @.@.] ' ' _ ! ' ' #.U < U f.$.%.$.#.#.@.#.| #.$.@.#.$.:./  X",
"/.U D K L K S S F F D I 2 = U q.G d z S z F F z l l l z z J J J J J l 2 2 l G J 2 : J q.K D F F 2 l J z z J L L J L s B.",
"e.o O & ; ; @ .   . X X X X % % % & & % O X O % + O o o + % & + % * % O O + % & O + i u & o X .   X % % + * s : @ # X r ",
"dXM.z.z.j.z.u.t.M.M.M.B.M.M.N.gXN.N.N.l.l.l.M.M.j.j.w.z 9.N.M.M.N.z.j.j.l.N.M.j.j.z.}.[.N.j.M.B.B.~.dXB.M.!.d.; 4 t.9.^.",
"nXlX|.|.[.A.'..XjXgXXXoX|.[.XXgX].'.'.'.[..XXXXX[.A.k.C A..X'.].[.'.A.].}.|.[.'.'.|.|..X[.[.|.XXhXhXjX|.A.].y.i j.XX[.lX",
"jXv.p.i.i.i.i.a.d.d.d.a.:.-.$.$.+.+.o.o.q.a.a.i.i.i.! i u.C.$.$.:.-.+.:.:.$.+.:.i.p.$.%.:.p.p.i.i.q.q.O.T L 2 $ O.A.p.XX"
};
