/* XPM */
static char *_f42e81157a0423ed2b46c6e4d35cb4bta1b6HjDyWPHZtOk[] = {
/* columns rows colors chars-per-pixel */
"60 60 254 2 ",
"   c #0F0504",
".  c #270606",
"X  c #350B08",
"o  c #470805",
"O  c #580A07",
"+  c #481904",
"@  c #571805",
"#  c #6A1709",
"$  c #6E140E",
"%  c #582409",
"&  c #5D2814",
"*  c #542A18",
"=  c #682607",
"-  c #762A03",
";  c #682B14",
":  c #752914",
">  c #68311B",
",  c #793417",
"<  c #74331B",
"1  c #573425",
"2  c #6B3625",
"3  c #733823",
"4  c #733B25",
"5  c #7B3B23",
"6  c #793F30",
"7  c #5C4138",
"8  c #75432E",
"9  c #7B4335",
"0  c #654C43",
"q  c #84330C",
"w  c #8C2F10",
"e  c #873817",
"r  c #843B1E",
"t  c #AA3000",
"y  c #853624",
"u  c #833D23",
"i  c #8A3E23",
"p  c #DB1017",
"a  c #E80F19",
"s  c #CD2E17",
"d  c #E4301C",
"f  c #E63629",
"g  c #99421C",
"h  c #AB4406",
"j  c #AA471A",
"k  c #8C4225",
"l  c #89462B",
"z  c #924425",
"x  c #9A4726",
"c  c #934628",
"v  c #944A2C",
"b  c #9C4B2B",
"n  c #9C502D",
"m  c #894935",
"M  c #984E31",
"N  c #8C5338",
"B  c #9D5233",
"V  c #98563C",
"C  c #A34621",
"Z  c #A44B25",
"A  c #AB4D25",
"S  c #A44D2A",
"D  c #AA4D2A",
"F  c #B04E2D",
"G  c #A5512C",
"H  c #AB5228",
"J  c #AB532C",
"K  c #B15125",
"L  c #B1542D",
"P  c #A35433",
"I  c #AD5532",
"U  c #AE5934",
"Y  c #A65839",
"T  c #A45A3B",
"R  c #AC5C3A",
"E  c #B25532",
"W  c #B25A34",
"Q  c #B45D3A",
"!  c #BA5E3A",
"~  c #A56A2F",
"^  c #BD772F",
"/  c #BA6A31",
"(  c #B5613D",
")  c #B9633E",
"_  c #B87D36",
"`  c #DF4C1C",
"'  c #D85324",
"]  c #EB5A24",
"[  c #D67126",
"{  c #EA6926",
"}  c #EA7729",
"|  c #F27528",
" . c #F57631",
".. c #8C584A",
"X. c #985A45",
"o. c #A95E43",
"O. c #9A644A",
"+. c #9C6652",
"@. c #A96547",
"#. c #B46443",
"$. c #B96542",
"%. c #B66847",
"&. c #BA6946",
"*. c #B46A4C",
"=. c #BB6C4C",
"-. c #BB714E",
";. c #A76C56",
":. c #AA7258",
">. c #AD725B",
",. c #BB7254",
"<. c #B8775A",
"1. c #AB7965",
"2. c #B37A64",
"3. c #BA7D66",
"4. c #C06F45",
"5. c #C17557",
"6. c #C27B5D",
"7. c #F47650",
"8. c #C37E62",
"9. c #C37D6F",
"0. c #BA8938",
"q. c #F5A814",
"w. c #D09635",
"e. c #EF8B2D",
"r. c #F68529",
"t. c #E69A27",
"y. c #F79D29",
"u. c #FC9D2B",
"i. c #FB9C33",
"p. c #D9A82A",
"a. c #D3A634",
"s. c #E8A62A",
"d. c #EDAC2A",
"f. c #F8A826",
"g. c #F3A42A",
"h. c #FCA42B",
"j. c #F4AB2A",
"k. c #FCAC2C",
"l. c #EBB22B",
"z. c #ECBB2B",
"x. c #F8B227",
"c. c #F5B22B",
"v. c #FBB42C",
"b. c #F4BB2C",
"n. c #FCBB2D",
"m. c #EAA737",
"M. c #FBA332",
"N. c #FCAC31",
"B. c #F6A938",
"V. c #E7B436",
"C. c #FCB334",
"Z. c #FDBB33",
"A. c #F5B43C",
"S. c #F8B738",
"D. c #E9C32D",
"F. c #F4C22D",
"G. c #FCC42E",
"H. c #F9CB2F",
"J. c #EDC236",
"K. c #F9C234",
"L. c #BD9447",
"P. c #BB8858",
"I. c #BEA55B",
"U. c #BE8763",
"Y. c #BD836B",
"T. c #B0896D",
"R. c #BC8875",
"E. c #CC914E",
"W. c #DF9745",
"Q. c #C88757",
"!. c #D79A57",
"~. c #E59C48",
"^. c #E9975C",
"/. c #D9A745",
"(. c #D2AA55",
"). c #EAA847",
"_. c #F6A944",
"`. c #E8B448",
"'. c #F9B948",
"]. c #E7A756",
"[. c #F6A953",
"{. c #EDB758",
"}. c #FABC56",
"|. c #C58265",
" X c #C78668",
".X c #C6856B",
"XX c #C8856A",
"oX c #CA896E",
"OX c #CB9A69",
"+X c #C48A73",
"@X c #C58C77",
"#X c #CA8D73",
"$X c #C99478",
"%X c #CD947C",
"&X c #D2967D",
"*X c #E09E73",
"=X c #DAA568",
"-X c #D1AF73",
";X c #E2AD68",
":X c #EEB26C",
">X c #F7BC66",
",X c #EFC94E",
"<X c #FAC648",
"1X c #FBC858",
"2X c #F9D25A",
"3X c #EDC56A",
"4X c #F8C467",
"5X c #FECA64",
"6X c #FDCC6A",
"7X c #F8D569",
"8X c #FBCA77",
"9X c #EDD176",
"0X c #F7D776",
"qX c #FBD373",
"wX c #FCD27B",
"eX c #FEE374",
"rX c #B7948C",
"tX c #BAAC8E",
"yX c #BCA6A1",
"uX c #CA8D81",
"iX c #CA9984",
"pX c #D19A84",
"aX c #C9A88C",
"sX c #D7A78A",
"dX c #CAB888",
"fX c #D4AB98",
"gX c #E7B78F",
"hX c #D2B0AB",
"jX c #D8B8AB",
"kX c #D0C499",
"lX c #EACD8B",
"zX c #F9C887",
"xX c #FAD689",
"cX c #FACA96",
"vX c #F9D999",
"bX c #F2E492",
"nX c #F9E39A",
"mX c #D5C9A6",
"MX c #D7CFB8",
"NX c #FADBA5",
"BX c #E3C9BB",
"VX c #F3D4B2",
"CX c #FBE8AB",
"ZX c #FBE5B6",
"AX c #DCD1CD",
"SX c #EAD5CB",
"DX c #E5DACA",
"FX c #FBE6C9",
"GX c #F7EEC9",
"HX c #ECE4D7",
"JX c #FBE8D7",
"KX c #D9D9E2",
"LX c #F1EAEB",
"PX c #FAF7EA",
/* pixels */
",.J W R I J I U I W W W Q #.%.$.( U U W W U W I Q Q c M ,.=.Q Q P G P G J J L U ( &.( ( Q Q Q Q U Q U P I W U w @. X<.G ",
"( H J S Z S L E L J D E Q #.=.&.( U E D L L F I J I k i %.%.I D Z b b H J H G J W W W W E L I E I I S S S D L g B &.( x ",
"$.L J D S J J E E E E W ( =.&.$.#.Q Q W E E E L E I x B 8.,.D P b S G J J G J J W Q W W E W W E I I S S J J E z k G L G ",
",.K J H D J J H H J E W $.%.( W W Q Q W E E L L L I i B ,.%.D P Z G H J J G J L W / W W E W E I D S S S H L J x c R ( G ",
"5.K J J D H J G H G J Q $.) W W W W W E E E L L L L i i #.$.F S Z G J J J H J I W Q ! W W W E F D S S H J L E b v #.$.G ",
"=.J U J J J H H H H I W ( / W W W W E L E E L L L L i v %.$.S S G G H J J J L L E #.! E E W E P S Z J J J L J x r U ( n ",
"&.L L J J J J G J H L W ( ( W E W W L L E E L L L L i l $.Q S S G J L L L E E E W Q W E E E J S S S A L L J I k , U $.S ",
"=.L L J G J J J J J L Q ) ! E E E W W W E E L L L E k l *.Q D L L J J J L L J I E E E E E J S c b S L L L L L z b ,.=.S ",
"=.L E L H J J J J L W ( ) ) W E E E E W W E L L L E x B ,.%.J L J J H J J J H J H H J J S b c z Z J I J K L L k b %.%.S ",
"5.L / E E E J J L L W ( ) W W L E E E E E E L L L E c z $.%.E W W J J J J H J I D D D b x c x S H L L J L L J k k R ( G ",
"5.E W Q I U U U U J W ( ( ( Q Q Q ! W ! Q E W L E U i r #.%.Q Q R G S J I E I D G G G S x b S I I E U I E E U k M %.) G ",
"i < , : < < ; : q e g i 3 4 3 < : : e k k z x x T @.O.;.U.U.>.P.Q.U.>.l e - - q e 5 y r u u e : $ : : q e r < @ ; u e ; ",
"N < > 2 2 2 2 9 m m m 5 % + % ; 2 6 9 8 3 l m @.(././.].].].).m.).).].!.OX+...m 5 = = , , r l l m 9 9 m m l < 2 6 6 4 4 ",
"$X*.2.3.R..X+XiXiX@X+X,.w V >.1.3.+X|.,.<.2.P.-X3X0X7X6X2X1X'.B.v.f.j.A.{.;X&XfXY.w V :.:.<.Y.+X@X%X$X@X$X<.3.+XiXuXR.Y.",
"|.<.8.XX.XXXoX#X@XoX#X,.w :.%XoX X X8.|.U.(.lXZXJXJXZXnXxXqX8X>Xk.k.k.h.g.B.).:X;XB @..X|..XXX8.8..X.XoX.X8.|..X+X.X.X8.",
"J I W U U I I I E E W b ; T Q.%.( ) 5./.{.nXGXJXJXHXHXZXvXlX9X>Xj.N.N.h.h.h.f.s.`.L.@.<.=.#.W H S G G I I U U U J J G S ",
"E K A L K F A F J D J z ; o.8.$.) !.!.V.bXGXFXGXCXnXCXvXcX6X<XK.C.j.N.h.h.h.k.v.x.a.Q.Q.$.L K K A A C Z G K D A A H G j ",
"Q L W W W E E E E I I l : @.8.4.Q.].[.gXCXCXCXCXvXbX0X7X1X<X'.S.z.c.j.N.k.k.k.k.v.B.~.OX5.F L L L E J J J J I I E L W J ",
"Q E Q Q Q W E E E E I x r o.6.E.).).=XgXZXCXbXbXbXxX7X2X<X<X'._.v.v.v.k.k.k.k.c.d.v.B.~.!.4.F F L J H H J J E E E J H G ",
"! Q ) ! W W I E E E E S i @.!.).q.{.lX:XvXCXCXvXwX5X1X<XK.'.C.C.C.v.v.v.v.k.N.V.l.x.v.f.B.!.) I L J D J J L E E E J H G ",
"$.%.) ( W J S G J E E S k R E.a.4XxXnX0X2X6XqX6X4X1X'.S.Z.n.n.b.z.b.v.v.b.S.'.<XK.A.N.M.B.!.[ P E L D H J J L E J J J G ",
"=.$.) E G b b S J L E M , Y (.3XCXZXbXeX,XS.C.S.S.'.S.v.v.n.n.F.D.b.N.C.J.<X2X2X1X1X'._._.).Q.E L L D D S S L J L J J G ",
",.) W W S S G J I Q $.Y < R ;XNXZXZXxXwX'.j.C.v.b.D.D.z.n.n.n.b.Z.h.| [.5X7X7X5X5X5X}.[.M.).E.( F L J D S S H L L L L G ",
"=.W W J S S L J Q %.=.Y c E.zXZXNXvXcXwX'.k.v.j.p.V.D.F.n.n.v.v.M.| f 7.^.3X7X5X6X6X1X<X'.i.).Q.W L D D H G J L G H J n ",
"&.W W J S L E Q #.=.4.Y ~ m.zXVXbX0XxX1XC.h.h.r.' } e.c.n.n.Z.k.{ d a d ^.8XqX7X6X7X2X<XS.N.A.=XQ.Q L L L W Q E J H J b ",
"T J b b S P Y W #.o.T v ~ g.8XNX9X7X6XJ.c.h.| d d p ' N.n.F.n.v.u.` a f ^.zX0X7X6X7X2X2X'.k.C.].sX@.S G T Y W P G S G b ",
"+ + % @ = > ; : 2 > 1 X ~ j.'.0X9X,XS.z.c.k.r.d p a  .N.G.F.n.K.C.{  . .].9X0X7X8X6X6X5X'.v.f.[.gXy - # # - , < > , , & ",
"0 7 7 9 9 4 3 5 ; * 1 7 _ M.C.'.,XJ.v.c.n.Z.h.{ ] ]  .n.H.F.G.F.D.f.B.'.1X7X7X0XwXwX8X6X}.C.k.).sXX.m ....@.V , & < 8 > ",
"iXiX@X.X6.,.<.,.*.*.3.@X^.h.k.l.V.c.k.C.n.c.j.g.k.Z.j.H.G.G.G.F.D.H.F.K.<X2X0XqXqXqX8X8X}.A.k._.gX#X|.oX#X&X XH T Y.oX<.",
"iX8.8.<.%.=.,.=.=.,.3.9.!.f.k.B.z.k.N.k.v.n.n.F.F.F.G.n.n.G.G.F.J.G.H.G.K.,X6XqXqX7X5X4X}.A.f._.gX<.,.,.5.5.=.A @.#XoX,.",
"$.j C x x C Z Z A C C U w.h.M.M.n.k.M.C.k.k.n.n.F.z.Z.k.C.n.F.J.Z.n.n.n.K.1X5XqX7X7X2X1X}.A.x._.*Xt J D A H Z k z U E Z ",
"$.b S x b S D D D D D #.e.h.h.j.c.v.k.C.v.v.G.b.F.H.G.n.n.G.F.G.v.v.C.S.Z.K.<X<X7XqX6X}.B.u.f.).jX+Xj Q I G b k k U ( G ",
"U b b Z S D D D D D D I [ y.h.g.k.c.v.v.v.v.v.n.v.v.v.n.n.n.G.G.n.Z.B.[ i.N.C.K.1X1X}.C.h.h.f./.JXhXt $.D C b i c Q Q S ",
"U b S S D D D D D D I F E.m.y.h.f.j.j.v.v.v.v.C.M.[ B.k.v.n.G.F.c.t.{ s ` { u.C.b.S.k.h.u.u.s.;XLXhXt #.D x F i M #.#.S ",
"#.S S D D D D D D D E .X*X~.y.y.u.f.j.v.k.v.h.r.{ s ' [ f.n.n.D.l.e.d p p ] M.v.c.c.k.h.y.h.t.=XLXhXt Y b S F S B #.$.S ",
"%.C D D D D D D D D ,.fXVX;Xm.h.y.h.g.d.v.k.h.| s s s | k.n.Z.J.D.g.{ d d  .N.x.d.j.j.g.s.m.~.cXJX+Xh I b D R x x ( ) S ",
"#.Z D D D D D D Z #.aXBXGXgX~.f.u.h.g.g.x.k.h.r.' s s r.k.v.n.b.z.N.|  .e.r.j.d.d.B.'.m.s.s.;XJXSXt Q E J I Q J U &.) S ",
"#.Z D D D D D J A %.sXDXPXVX!.g.h.f.g.s.f.k.h.y.} { r.r.k.v.j.b.n.v.h.M.k.k.l.l.`.>X4X'.s.a.cXSX%Xj E E W Q Q J G @.) G ",
"%.D D D D D S J H =.sXMXPXJX9Xt.f.y.g.g.g.j.f.f.y.f.k.h.h.k.v.j.k.k.j.c.c.l.l.`.9XcX8X'.s.;XSXpXK Q Q ! $.$.$.v r B Q J ",
"$.D L D F F E Q $.#.|.hXHXPXZX/.s.j.t.g.g.s.d.l.l.d.k.k.x.f.j.x.k.j.d.d.j.d.l.3XNXNXxXB.m.vXJX9.&.=.=.&.! ) ( G B =.&.J ",
"V g b x x b S P T M T R.hXHXGXNXw.m.m.g.g.s.s.l.l.l.d.c.c.j.d.j.f.B.V.A.A.'.`.wXnXxX3Xq.>XGXJXpX( @.T B S U U c l o.o.i ",
"= @ = ; - : , ; # # 5 rXyXyXAXJXlXm.m.y.g.g.d.d.d.d.j.j.j.j.d.j.B.'.}.4X8XxXzX4X4X{./.;XCXPXLXhX@.q ; + = r 5 & # - - ; ",
":.O.O.O.O.O.V X.+.:.R.AXAXhXKXLXJXzXt.y.g.f.g.g.g.i.h.h.j.d.c.`.,X1X9XxXNXZXvX}.t.s.:XZXPXPXLXSXaXN N O.O.V v c X.+.;.N ",
"sX%X&X%X%X$X.XoX&XsXhXBXhXjXAXKXSXzX].s.g.s.s.y.i.i.u.h.g.d.A.}.8X8XxXbXZXZXlX`.m.V.lXDXKXKXLXLXBXfXoX&X%X.X5.4..X$X%X8.",
",.*.,.6.|.6.,.6.,.&.<.Y.1.jXmXkXkX-X-XI./.a.m.g.y.u.u.u.y.i._.>XcXcXvXvXxX9X;X(.I.I.-XdXmXMXDXDXSXSX#X=.,.=.( %.&.=.%.#.",
"A j F Q &.$.$.W W W W B l rXmXkXkXtXI.0.0.0.w.t.s.g.y.f.g.d.j._.:X3X4X{.(.a.a.L.I.I.+.$XmXMXMXDXHXSX9.t J K W L L K K Z ",
"Q Q =.=.%.Q U J U W W P 8 @.sXaXR.dX%.Q %.=.w.0.w.t.t.p.s.p.s.p.p.a.p.a.a.0.L.I.-XtXtXmXMXMXDXHXHXjX%.E W E W ( W W W I ",
"$.$.$.#.U I J J J E W G , c $.$.R =.U U ( #.( W L / / ^ ^ ^ ^ _ 0._ _ 0.0.L.L.-XtXtXMXDXHXHXHXDXjX8.j U E E L W W W ( P ",
"=.$.Q I J J G I F E E M ; e J S S j S G L Q W E E E F I F E E F b J E W E W W Q I b hXMXBXBXfX8.4.F E E E E E E E W W F ",
"$.W E I I I J L E E W M > v %.I S S D J J W W E E E E I I E E E W J E L E E F E H g #.|.6.! K L F E E W Q E E E E E E I ",
"#.F E L L E W L E E W b , o.3.( J J D E W W W E E E I J S F F E L W W W E E E Q M i b Q E F E W W E E E E E E F E E E D ",
"Q E E E E L E E E E Q B e T <.) I E L L W W E E E F I S S b D R W ( ( W E E E E P k P $.Q E E E W E E E E ! E E E E E I ",
"Q E E L L L E L L W Q M ; z #.E J J J D J E E E E D S b S S S H W ( ( Q E E E E I z T 4.Q F E E E D E E E E E E E E E D ",
"Q L J J J L J J D E Q M = M =.W J J S S S S D D D S b S S D D D J J L J E I J I B y b &.Q E E F E E E E E E E E D E E F ",
") W I E W L E E U ! $.S , @.8.E A S L J J J I S S S S L E E W E L J J n S J J E M < v =.$.! ! Q ! E W E E ! E W Q W Q U ",
"l k x x z i 5 l u l l 3 & m o.i r i r u 8 u u y r 5 u i i i z i z z y < 4 u k c 5 ; i T v i l l 5 3 i i i i c b v l c i ",
"o @ = - = o       . . . . $ $ $ $ # # O X . O O o o X o O $ # O $ $ O o o O $ = O O q w # o .       O $ O $ y < * + o X ",
"1.:.>.:.;.@.:.1.1.1.1.1.1.R.@X3.2.>.>.:.:.1.2.>.;.;.V M >.2.1.1.2.>.;.:.>.T.>.;.;.>.+X+X3.>.1.T.1.T.rXrX2.3.3.v - N ;.X.",
"pXoXoXoX8.XX$XpXpXpXpX#XoX%XpX.X|.|.|..X$X$X%X+XXX8.U U #X#X8.oX.X8.8.XX+X+XoX|.8.oX#X#XoXXXoX&X&XpXuX&X9.|.<.k k 3.&X8.",
",.#.#.$.#.#.*.*.@.*.*.Q Q R U W Y W ( R #.#.#.#.Q E i M ,.=.W Q R Q Q #.Q Q Q ( #.$.$.! #.! #.#.#.#.T Y P M v > 3 *.6.$."
};
