/* XPM */
static char *result[] = {
/* columns rows colors chars-per-pixel */
"60 60 256 2 ",
"   c black",
".  c #00061A",
"X  c #141414",
"o  c #2E0801",
"O  c #2E2B1D",
"+  c #0C1026",
"@  c #031A24",
"#  c #172832",
"$  c #2A2D2D",
"%  c #560F0B",
"&  c #4B1806",
"*  c #6A0F0E",
"=  c #48240C",
"-  c #58250B",
";  c #56340F",
":  c #4A2616",
">  c #592915",
",  c #6B2709",
"<  c #722E0A",
"1  c #672B17",
"2  c #68361C",
"3  c #78391A",
"4  c #4C1527",
"5  c #7A1B36",
"6  c #593526",
"7  c #4F3431",
"8  c #693A28",
"9  c #753B25",
"0  c #713133",
"q  c #6B440F",
"w  c #794517",
"e  c #64521D",
"r  c #594430",
"t  c #6A482E",
"y  c #7B4327",
"u  c #794437",
"i  c #0C2F50",
"p  c #2A3A4E",
"a  c #364C54",
"s  c #304966",
"d  c #4D5659",
"f  c #73574D",
"g  c #5B6154",
"h  c #475864",
"j  c #535E63",
"k  c #7B4E6E",
"l  c #5A6669",
"z  c #586C6F",
"x  c #636B6C",
"c  c #726F6B",
"v  c #666E71",
"b  c #6A7475",
"n  c #737B7B",
"m  c #893D00",
"M  c #8A390D",
"N  c #9A202E",
"B  c #8B2E36",
"V  c #86393C",
"C  c #9B4802",
"Z  c #8E4F17",
"A  c #894718",
"S  c #94481D",
"D  c #A5510E",
"F  c #A06A0F",
"G  c #874628",
"H  c #8B4B2C",
"J  c #974C24",
"K  c #944D2C",
"L  c #9B4E2B",
"P  c #875825",
"I  c #975129",
"U  c #9C522E",
"Y  c #894A36",
"T  c #944E33",
"R  c #89553A",
"E  c #955333",
"W  c #9C5433",
"Q  c #995738",
"!  c #9D5B3A",
"~  c #A24F26",
"^  c #A6572B",
"/  c #A2532D",
"(  c #A45633",
")  c #A85736",
"_  c #A55934",
"`  c #A95A36",
"'  c #A05738",
"]  c #A45B3A",
"[  c #A95D3A",
"{  c #9A6622",
"}  c #AE692E",
"|  c #A7613B",
" . c #AB613D",
".. c #883444",
"X. c #97394A",
"o. c #983E50",
"O. c #A63C4D",
"+. c #8A4747",
"@. c #845444",
"#. c #985B44",
"$. c #9B4556",
"%. c #905157",
"&. c #A35E42",
"*. c #A74657",
"=. c #B54B5A",
"-. c #A25D56",
";. c #986348",
":. c #8B6752",
">. c #9B6956",
",. c #A46243",
"<. c #AC6443",
"1. c #A96848",
"2. c #AD6B4B",
"3. c #B06644",
"4. c #B16945",
"5. c #B26C4B",
"6. c #B2704D",
"7. c #AB6C52",
"8. c #B26F51",
"9. c #A87259",
"0. c #B37253",
"q. c #B3755A",
"w. c #B97759",
"e. c #B5795C",
"r. c #B97B5D",
"t. c #8F4F63",
"y. c #A85569",
"u. c #B95364",
"i. c #B0576E",
"p. c #916E68",
"a. c #AA7A66",
"s. c #B47E64",
"d. c #BB7F61",
"f. c #B26973",
"g. c #C05B6D",
"h. c #C56579",
"j. c #79807D",
"k. c #B88A00",
"l. c #A48759",
"z. c #94876E",
"x. c #BC8265",
"c. c #B4836C",
"v. c #B9856B",
"b. c #BC856B",
"n. c #B28773",
"m. c #B78975",
"M. c #BC8B73",
"N. c #C1886C",
"B. c #C38D74",
"V. c #C3897D",
"C. c #D48878",
"Z. c #C3927A",
"A. c #C9967C",
"S. c #CFAA60",
"D. c #767E80",
"F. c #73748C",
"G. c #5E73A0",
"H. c #92718B",
"J. c #9B7798",
"K. c #CB7488",
"L. c #778185",
"P. c #7B8283",
"I. c #6A829E",
"U. c #6F8EB3",
"Y. c #75A4A2",
"T. c #3898D9",
"R. c #559BCF",
"E. c #699BCA",
"W. c #6C9ED1",
"Q. c #4EA6DF",
"!. c #59A5DB",
"~. c #68A0CF",
"^. c #64A4D5",
"/. c #56ABE9",
"(. c #53B4E9",
"). c #48ADF5",
"_. c #4BB6F7",
"`. c #44B3FD",
"'. c #4BB4FB",
"]. c #54BAF9",
"[. c #6DACE4",
"{. c #54CAF5",
"}. c #55C3FA",
"|. c #58C4FA",
" X c #5CCCFA",
".X c #5ED1F9",
"XX c #54DDFC",
"oX c #61CCF8",
"OX c #64D7F9",
"+X c #66DCFA",
"@X c #5DE6FC",
"#X c #5BE9FC",
"$X c #57F1FD",
"%X c #71E0ED",
"&X c #65E3FB",
"*X c #67E7FB",
"=X c #6CEBFB",
"-X c #69FAFD",
";X c #73FDFD",
":X c #78FAFC",
">X c #83878B",
",X c #868E92",
"<X c #8D9295",
"1X c #94979A",
"2X c #B39792",
"3X c #ABA296",
"4X c #999DA2",
"5X c #8D8CBA",
"6X c #B696A5",
"7X c #96A5A8",
"8X c #A3A6AA",
"9X c #AAADB2",
"0X c #B1AEB1",
"qX c #B5B6BB",
"wX c #C69A85",
"eX c #CD8890",
"rX c #D98499",
"tX c #E59D9A",
"yX c #CEA38E",
"uX c #D994A9",
"iX c #E792AA",
"pX c #E79CB4",
"aX c #D5ABB5",
"sX c #E6A6BC",
"dX c #F4A6BF",
"fX c #C3C3A8",
"gX c #8698C7",
"hX c #B8BAC1",
"jX c #84B0E2",
"kX c #D2ACCC",
"lX c #F3ACC4",
"zX c #F2B5CF",
"xX c #BEC1C4",
"cX c #84C0EC",
"vX c #87FBFB",
"bX c #92F9FA",
"nX c #9BF9F9",
"mX c #AAF8F8",
"MX c #B8F6F6",
"NX c #C4C4CB",
"BX c #C8C9CD",
"VX c #CBCBD3",
"CX c #D4CDD2",
"ZX c #D7D7DA",
"AX c #F2CCDE",
"SX c #DCDDE2",
"DX c #DEE5EE",
"FX c #C8F4F4",
"GX c #D9F1F2",
"HX c #E5E6E9",
"JX c #EEEFEF",
"KX c #F1EEEE",
"LX c #EBEEF1",
"PX c #E5F0F0",
"IX c #F4F4F6",
"UX c #FEFEFE",
/* pixels */
"B.q.<.6.2.<.[ <.<.8.9.9.8.5.0.q.2.2.q.0.5.8.8.2.8.q.,.R s.B.w.8.7.1.;.! ] [ | 2.x.b.x.6.6.r.e.0.0.e.q.<.,.5.7.J ,.A.m.2.",
"0.( U / I L ( / / / U Q ] ) | <.[ ` ~ / / / / / / / H 8 &. .D C C C C C D / ^ W / ^ ^ _ ` / / ( ( / J K U / / S ! r.1.J ",
"2.| _ ( U U ( _ ` ` ` ` ~ q.m.d.8.[ 2.) ` [ ) ) ) [ T m >.1Xp.,XF.H.U.p.p.#.! D ` 1.<. .` ` ` ` _ ( W W / ( _ H G ] | W ",
"e. .^ ( / / ( _ _ _ ^ [ wXsXlXlXuX2Xf.Q [ ) ) ) ` ] S p.W.).].'._.].'.)./.!.^.U.U.,X .D ` ` ` _ _ ( W L / ( ) H G ] | U ",
"N.3.^ _ / / ( W ) C 7.sXzXpXK.H.f.y.% % L ) ) ^ D ;.I.Q.'.]. X XOXOX|.|.}.'.'.`._.E.U.a.| 1.,.] ] ( W U ( ` ` K H 1.2.W ",
"d.<./ _ / W _ _ S #.kXlXpXzX*.  0 ..yXCX2X~ ) 7.>XU._..X+X:X=X-X-X$X-X=X;X*X].OX|.)._.U.@.p.;.C C C S ^ _ ` ) K H  .<.U ",
"8. ._ ( ^ W ( I -.aXuXK.rXzXzXsXkXH.6XCXuXf.#.E._._.*X=X;X-XnXbXnXFXvXMXvX-X-X#X*XoX{.(.U.U.I.U.F.p.:.| D D ~ A < { | I ",
"0. ._ _ { _ ^ J rXpXX.rXpXrXiXlXlXpXuXrXuXJ.G.].].=X=X-XvXFXmXFXFXKXGXMXFXmX-XmX:X-X:X*X}.}.`.`.)./.(.^.E.E.~.E.R.^.^.^.",
"w.3.( ) / ( J q.iXu.K.iXsXuXK.h.K.K.K.K.B G.).}.:X:X-XvXFXPXPXJXIXJXKXJXKXPXFXGXFX-X;X:X=X&X&X}.].'.'.`.`.`.`.`.`.`.`.`.",
"r.3.` ` _ ^ W eXK.X.y.K.uXrXrXi.u.O.X.N H./._.*X;XvXvXPXKXJXKXJXJXJXKXKXKXKXKXLXKXFXnXnX$X=XOX X{.|..X.X.X.X.XXX X.X.X X",
"N.4.`  .&.` *.K.u.5 ....  4 K...X.O.o.=.5X`.+X;X:XmXGXKXJXJXJXJXJXJXJXJXJXJXJXJXKXJXGXMXnXvX$XXX@X&X+X+X+X+X+X&X+X.X+X+X",
",.E K K E G +.h.$.5 ....7 0 o.X.o.O.u.H.^.'.&X:XFXGXKXKXJXJXJXJXJXJXJXJXKXJXJXJXJXKXKXJXJXPXMXvX:X-XXXXXXXXXXXXXXXXXXXXX",
"3 , & & - = X.o.> , 0 O.X...X.=.u.O.$.J./. X=X-XMXJXJXJXJXJXJXJXJXJXJXJXJXJXJXJXJXJXJXJXKXKXKXPXPXFXmXmXMXmXmXMXmXmXMXmX",
"n.>.R ;.#.f X.f a.a.>.+.O.=.u.=.u.=.t.W.`.+X;XmXFXKXJXJXJXKXKXJXJXKXJXJXJXJXJXJXKXJXJXJXJXJXJXKXKXKXKXKXKXKXKXKXKXKXKXKX",
"yXb.x.B.m.X...n.yXwXA.a.V o.O.f.K.iXkXjX_.=X;XMXKXJXKXKXJXJXJXJXJXJXIXJXJXJXKXJXJXKXJXKXJXJXJXJXJXJXJXJXJXJXJXJXJXJXJXJX",
"0.<.2.0.1.....7.q.8.w.q.y t.iXzXzXzXkX[.|.*XvXFXPXKXJXJXJXJXJXJXJXKXKXJXJXJXJXJXJXJXJXJXJXJXKXJXJXJXJXJXKXJXJXJXJXJXJXJX",
"_ ^ ^ ^ S ....J ~ / ^ J +.pXAXlXpXiXJ.Q.|.*XvXFXLXKXJXJXJXJXJXJXKXJXJXKXJXJXJXJXJXJXIXKXJXJXKXJXJXJXJXJXJXJXJXJXJXJXJXJX",
"4.` ( [ _ ..B Q [ _ ] J h.pXK.*...N J.[.].*X:XFXLXKXJXJXJXJXJXJXJXJXJXJXJXJXJXJXJXJXJXKXJXJXJXJXJXJXJXJXJXJXJXJXJXJXJXJX",
"5.` ` | | Y ..0 ) ) ` K i.K.o.B ..K.pXjX).=X-XmXPXKXKXJXJXJXJXJXKXJXJXKXKXJXJXJXJXJXJXJXJXJXLXJXJXJXJXJXKXKXKXKXKXKXJXJX",
"5.`  .<. ._ V ..T ` [ / f.zXlXg.O.K.K.G./. X:XvXMXKXJXJXJXKXKXIXJXJXJXJXJXJXJXJXJXJXJXJXJXJXKXJXKXPXLXLXLXLXLXJXLXJXJXHX",
"5. .4.3. .` Y ..Y _ / f.sXlXlXi.=.u.y.F.!.].*X:XFXLXJXKXJXJXJXJXJXJXJXJXJXJXJXJXJXJXJXKXKXKXPXFXMXnXvXbXbXbXbXbXbXbXbXbX",
"6.5.4.<._ W K G ..V ! rXAXlXrX%.O.u.i.t.W.'.&X:XmXFXJXKXJXJXJXJXJXKXKXJXKXJXJXJXJXIXJXGXFXFX:X-X-X-X@X@X&X#X#X#X#X#X&X#X",
"w.5.3. .( T L U +.* f.sXlXdXK.H ..O.u.O.G.'.oX=X-XvXMXKXJXJXJXJXJXJXJXJXJXJXJXJXKXPXMXmX-X-X.X X XOX&X+X&X+X+X&X+X+X+X&X",
"r.5. .` W L ( ) ( -.pXzXdXrXf.] T 0 o.u.t./.'.OX:XvX-XMXLXPXKXKXKXJXJXKXJXKXJXPXPXmXvXvX-X&X&X{.|.].'._.'.'.'.'.'.'.'.'.",
"w. .` ( W U ( ` Q N.S.tXtX-.<.3.` Q 0 =.t.R./.).&X;X=X-XMXPXFXGXHXLXJXGXJXGXbXFXnX-X;X*X.X+X+X'.'.`.'./.!./.!.!.!.!.!./.",
"w. .) ' W _ [ ` t g g f f 2 5.5. .4.Y *.o.k W.'.]. X=X-X;XnXnXmXmXPXMXMXmX:X-X:X-X=X=XOX_.)./.(.^.U.U.>X9.>.>.9.>.;.;.;.",
"R y y 9 G H T t @ i s s O > E W E E > 4 7 4 F.^./.[.+X%X;X-XvXvXvXbX;XbX:X-X&X+XOX'.`.(.F.c p.f R m m m A G H A A G S w ",
"o   o o & - - o @ a a a # & < , , - # p   .   p U.Y.[.{.(.%XXX&X@X#X&XXX&X X'.].].).(.U.Y f < , , 3 1 4 * 9 M > : - > = ",
"a.z.a.9.9.>.R O O p i a i :.wXm.a.9.c b c v l l # Y.Y.R.(.!.(.(.Q.XX`.`.`.`.).)._.gX6XK.w.q.9.c.c.s.9.a.n.m.d.E y ;.>.! ",
"yXyXZ.A.x.r.7.X @ a l.1Xz.l.wXwXN.9.j.7X8X9XhXZXqXz.z.S.fX^.cXcXT.I.E.U.gX5XJ.J.H.p.f.K.r.0.x.B.Z.B.N.N.Z.Z.b.` 1.wXA.x.",
"b.7.&.&.! ] Q . e S.tXuX2X2Xa.! I #.8XVXBXhXSXVXPXxX:.l.k.xXZXHXCXR V V *.=.=.=.X.9 #.+.W W _ <.,.<. .]  .| | K E q.0.| ",
"q.] S J H L H O F C.AXlXiXiXuXf.E >.BXJXUXJXPXIXDXZXZXZX,XfXJXZXUXZX! B 9 *.=.....i.-.Z K K K / / ( ( ( ( U K G G ( _ I ",
"8.] L T T T ) V 5 h.pXK.$.V +.t.t.f ZXUXUXUXIXHXUXIXKXJX8X8XIXJXUXUXZX2.J V B A +.t.Y K K K L _ [ ) [ ) _ W E G G [ <.W ",
"[ W K W L L / L V u.*.y.T ^ ^ W S :.HXUXUXUXUXIXIXUXJXSX9X1XZXUXUXUXUX6Xm +.f.L 0 Y J E U U ' [ &.` ) ) W L L H H &. .U ",
"2.W K L / / ) T 3 y.-.t.,.` _ | C aXUXUXUXUXUXUXUXUXUXLXqX<XNXIXUXUXUXJX7.9 p.K u U ( ( _ _ _ &.<.` ) _ W K ( L E 2.1.U ",
"q.' L ( L / / L 0 =.f.p.#.^ ] D a.HXUXUXUXUXUXUXIXJXUXJX9X4XBXSXUXUXUXUXaXM H U U W ( ( ) ) ` [ <.) _ W K W _ K K 1.4.U ",
"0.' L / / U / ~ +.o.5 %.&.` &.` aXUXUXUXUXUXUXUXIXHXUXZX4X8XNXZXKXUXUXUXHX9.~ ( / W ( _ ) ` ( ` [ ] _ ( U ( | U I 2.<.W ",
"8._ L / / U L ( U 8 5 t.>.] ` 1.SXUXUXUXUXUXUXUXUXSXhXhXF.D.,XZXIXUXUXIXIX2XC _ ( _ ] ] ` ) ^ ` [ ` ` ` _ [  ._ ] 6.4./ ",
"0.] L ( / / T L _ E T @.T  .^ 1.ZXUXUXUXUXUXUXUXIXCX9X8Xl l 9XHXUXIXVXHXJX1XI _ ] <.4.| ` ` ` ( _ [ `  . .<.<.W G !  .W ",
"0.[ / ( / / ( ) ` 3.4. .] @.R g hXIXUXUXUXUXUXUXHXBX8Xv h v 4XqXqX1X9XJXqXL.1.^ 4.w.w.<.` ` ` `  .<.4.4.3.3.<.Q G ;. .( ",
"q.] ( _ / ( _ ] 1.3.1.@.g j a z P.BXJXUXUXUXUXHXNX8Xv d l l v l d b VXxXn 9Xn.^ 0.w.5. .| [ [  .2.6.5.4.<. .<.W E q.6.W ",
"G 3 2 3 y 9 G G y 3 r v 4XL.j b n P.hXLXUXUXLXqXP.l l l l v l x b P.1Xj.P.xX3Xm ! ! E y 9 J I E Q E G 8 w K Y y 8 H G 2 ",
"G 8 6 2 2 3 9 2 8 u v 8XNX8X<XP.n n P.hXSXCXqXL.a j j.z x z v j.P.n n x 4XhX<XH G 2 & & 8 G K K G w - ; 8 9 3 1 1 y 8 2 ",
"2Xn.a.c.c.c.q.9.s.z.,XNXhX8XNX<Xn D.n >X4X<Xb c :.x j.b x v l l z b L.4XZXhX3XM.7.G 9 9.c.v.s.s.7.9.9.c.n.9.,.] 9.c.c.9.",
"yXB.B.B.Z.Z.b.b.B.z.,XNX9X8XVX4Xn n n n n b x s.N.:.b L.n l b n v b 9XJXHXz.m.B.q.K ;.wXA.B.M.x.d.h.N.Z.B.N.w.6.x.N.N.w.",
"<._ ` 4.0.q.0.5.5.p.D.hXqX9XVXhXP.n P.n n g | 4.` | f z j.n l x b P.4XNX8Xf ,.1.! M ;.x.2. . .|  . .}  .[  . .| | ` ] _ ",
" ./ ^ <.4.4.<.[ ^ >.b 4X9X4XNXNX9Xn v x a f 4.<.` ^ ^ f l n n v l l j j f I / | _ 9 E 6. .^ ^ ` ( ) / / ^ / ` ` _ _ ^ U ",
"8.<.4.0.4. .] ( ( ` :.D.8XD.hXVXVX9Xn b h f 8.3.` `  .Q @ d j j d d d f ] [  . .] 3 E 6.4.|  . .[ ` [ [ ` ` `  .| |  ._ ",
"0.4.4.<.] ( ( W ^ ` 2 $ <XL.<X0XxX0XP.b z f }  .) ` ` 8 + . + + . : ( ] ) ) ` ` ( 3 #.w.3._ ` ` ` ) ) ) ` ` ` _ ` ` | _ ",
"q.4.<.` ( W W _ ` E X . a z l b ,Xn j z x E | | ) ) ) y e r O @ O G ` ` ) ) ) ` ( J 7.N.3.( ) ) ` ) ] ` ` ` ) ) ` ` ` _ ",
"8.[ ` _ _ _ ^ ^ ` 8 . # . . $ p j l j f Q ` | ` _ ` _ 2 w { P P P ] | ` ` ) ) ` _ G ] 0.<.) ) ` ` ` _ [ | ` ) ) ) ) ) W ",
"5.` ` ` ` ` ` | I 7 @ O # $ . 7 R Q E ^ ` [ [ ` ` ` _ H ; 3 Z { { P | [ ` ) ) [ ! y G | [ ) ) ` [ ` ` ) ` [ ` ) ) ) ) ( ",
"5.` ) ` ^ ` ` H q e . + O @ O #.` ` ` ( _ ` ` ` ) ) ( ( P ; ; Z } { !  .] ) ) ` ] G Q 6.[ ) ` ` ` ) ) ` ` ` ` ` ) ) ) ( ",
"5.) _ _ ` / ` y ; P r @ + . u <.^ ( / U I ( ( _ _ ( K K T E w ; { } P | ` ] _ ] ( G Q 6.<._ _ ) ) ) ) ) _ _ _ ) _ _ ) ( ",
"5.[ ( _ ( _ ` w - q { r + 6 7.4./ / U U U U W ( W W L U ( ( ` H q q q E ( ( _ ) W 9 G 4.3.[ [ ` [ ` [ ) ` [ ` ` ` [ ` ( ",
"6.] _ _ _ _ W ; w w ; e 6 Y a.1.L E E W W W W E K K T U ( _ Q | Q H E H H E W ( Q 8 G 7.<.) ] W Q W Q ) ' ' ] ] ] ] ] W ",
"8 2 2 9 3 2 = ; w w w ; o > 9 3 , < < 1 1 ; 1 1 > : > 1 1 1 1 1 3 3 , > : - 1 3 1 & 1 K 9 > > = : : - , , , 3 G 8 3 8 > ",
"8 8 9 y y 8 6 = w w < ; r t #.Y u u u 8 6 7 8 8 0 8 6 : 8 u Y 0 u u 0 8 8 u 0 y 8 8 T #.Y 8 7 f 7 r f @.0 f Q 9 & = 8 : ",
"wXM.M.v.x.e.n.a.P F ; z.M.M.yXwXb.M.v.v.m.M.M.M.b.s.7.K s.Z.b.M.M.b.s.c.M.M.M.c.s.M.wXwXZ.b.M.wXwXwXwXwXM.B.Z.Q < 9.M.q.",
"wXB.b.N.x.x.b.M.t q ;.x.x.x.M.b.e.e.e.r.b.B.Z.M.d.r.&.J s.B.w.d.x.e.r.d.x.x.x.d.d.d.b.b.N.d.d.N.M.M.V.N.s.0.7.y y b.wXd."
};
