/* XPM */
static char *result[] = {
/* columns rows colors chars-per-pixel */
"60 60 246 2 ",
"   c #381106",
".  c #4B1107",
"X  c #491906",
"o  c #571906",
"O  c #680604",
"+  c #681904",
"@  c #721C0A",
"#  c #5B2309",
"$  c #4F2010",
"%  c #592613",
"&  c #68270C",
"*  c #78290B",
"=  c #7E300F",
"-  c #6C2C13",
";  c #652918",
":  c #762A15",
">  c #6A3118",
",  c #7A3517",
"<  c #74341B",
"1  c #7C351B",
"2  c #761334",
"3  c #5F2F20",
"4  c #6A3726",
"5  c #6D362E",
"6  c #773A24",
"7  c #7A402B",
"8  c #6A473B",
"9  c #7C4435",
"0  c #774538",
"q  c #532F58",
"w  c #6C324F",
"e  c #433A60",
"r  c #354874",
"t  c #744E50",
"y  c #574C71",
"u  c #70516E",
"i  c #776C77",
"p  c #971A00",
"a  c #961112",
"s  c #912E0C",
"d  c #88340B",
"f  c #833A1D",
"g  c #893B19",
"h  c #933B17",
"j  c #AB3708",
"k  c #A22B1B",
"l  c #A5321D",
"z  c #A9381B",
"x  c #843D22",
"c  c #893C22",
"v  c #973529",
"b  c #903434",
"n  c #A53723",
"m  c #AC3B23",
"M  c #B13F23",
"N  c #88401F",
"B  c #99431A",
"V  c #A94801",
"C  c #B1550C",
"Z  c #AA4B1C",
"A  c #B6461D",
"S  c #B5581A",
"D  c #B3691C",
"F  c #B8751E",
"G  c #BE7A1C",
"H  c #854227",
"J  c #8D4224",
"K  c #8B452B",
"L  c #934324",
"P  c #9B4825",
"I  c #954629",
"U  c #94492B",
"Y  c #9C4B2B",
"T  c #9B552A",
"R  c #864937",
"E  c #964C35",
"W  c #9B4E31",
"Q  c #9C5538",
"!  c #A44B25",
"~  c #AC4D23",
"^  c #A84428",
"/  c #A44D2A",
"(  c #AB4E2B",
")  c #B24325",
"_  c #B44827",
"`  c #BA4C25",
"'  c #B54B2A",
"]  c #B94D2B",
"[  c #A5512C",
"{  c #AC532C",
"}  c #A75929",
"|  c #B65A27",
" . c #B1542D",
".. c #BC522C",
"X. c #A44D34",
"o. c #A45332",
"O. c #AD5432",
"+. c #AD5934",
"@. c #A45A39",
"#. c #AB5C3B",
"$. c #B25532",
"%. c #B35A34",
"&. c #B45D3A",
"*. c #B95E39",
"=. c #9C642F",
"-. c #AC6C24",
";. c #A76629",
":. c #B76728",
">. c #B37121",
",. c #B77929",
"<. c #AB643B",
"1. c #B96634",
"2. c #B4613D",
"3. c #B9623D",
"4. c #B67633",
"5. c #C1501D",
"6. c #D16E14",
"7. c #C17D1C",
"8. c #C45827",
"9. c #CA662A",
"0. c #D36928",
"q. c #DB742A",
"w. c #D9772A",
"e. c #C86D33",
"r. c #DC7F31",
"t. c #E27C28",
"y. c #873C47",
"u. c #874E41",
"i. c #8A5348",
"p. c #975946",
"a. c #8B5152",
"s. c #A55A44",
"d. c #A85D4D",
"f. c #976352",
"g. c #AB6547",
"h. c #B56442",
"j. c #B96643",
"k. c #B56A47",
"l. c #BA6945",
"z. c #BB6C4B",
"x. c #AF754E",
"c. c #B8734B",
"v. c #AC6D53",
"b. c #B76E52",
"n. c #AD745A",
"m. c #B37155",
"M. c #BD7354",
"N. c #B9775B",
"B. c #855A6C",
"V. c #896970",
"C. c #AB6F63",
"Z. c #AB7865",
"A. c #B47C65",
"S. c #BA7D65",
"D. c #C06E4E",
"F. c #C1724C",
"G. c #C37756",
"H. c #C37C5D",
"J. c #C47E62",
"K. c #BB8531",
"L. c #D2882F",
"P. c #E4832B",
"I. c #E88729",
"U. c #EC8C2B",
"Y. c #F08D28",
"T. c #EC922C",
"R. c #F2942D",
"E. c #F2982C",
"W. c #E58A31",
"Q. c #EC9533",
"!. c #F39C32",
"~. c #D0A030",
"^. c #F6A234",
"/. c #F9A534",
"(. c #FAAA36",
"). c #FBAD38",
"_. c #BA845C",
"`. c #BA8167",
"'. c #BC826C",
"]. c #BC8771",
"[. c #CF9945",
"{. c #C8825A",
"}. c #D3A54B",
"|. c #E0B854",
" X c #C58264",
".X c #C98867",
"XX c #C5856C",
"oX c #C9866A",
"OX c #CA8A6D",
"+X c #D1936D",
"@X c #C58B73",
"#X c #CA8C73",
"$X c #C58D78",
"%X c #C5927B",
"&X c #CB927B",
"*X c #D49876",
"=X c #D7A17A",
"-X c #E0A47F",
";X c #073E82",
":X c #115394",
">X c #2B568D",
",X c #33578C",
"<X c #36678E",
"1X c #0B5BA6",
"2X c #0965AD",
"3X c #156CB6",
"4X c #226DAC",
"5X c #4E5987",
"6X c #54658F",
"7X c #5D6997",
"8X c #716C8B",
"9X c #6778A3",
"0X c #1479C4",
"qX c #227FC8",
"wX c #807D9E",
"eX c #1E80BC",
"rX c #378ABC",
"tX c #4C88B4",
"yX c #6082A4",
"uX c #168CD1",
"iX c #3390CA",
"pX c #2699DB",
"aX c #0E9CE6",
"sX c #269DE2",
"dX c #14A7EA",
"fX c #24A8EA",
"gX c #4897CE",
"hX c #5FADD8",
"jX c #A79B9C",
"kX c #C99682",
"lX c #CD9A85",
"zX c #D29D88",
"xX c #DAA585",
"cX c #D6AB99",
"vX c #E7AE89",
"bX c #EEB993",
"nX c #F1BC98",
"mX c #D9B4A5",
"MX c #FAC69F",
"NX c #DCCBB4",
"BX c #F9CAA5",
"VX c #FFD3AC",
"CX c #EAE1DF",
"ZX c #E6E1E0",
"AX c #ECE2E0",
"SX c #F0E5E3",
/* pixels */
"zXN.2.+.2.#.O.+.%.&.&.*.h.&.2.z.j.h.h.&.*.&.h.&.&.h.h.K s.J.z.h.h.+.o.o.{ O.{ %.k.c.z.l.h.j.k.h.h.j.h.o.+.&.&.B g.@XN.+.",
"@Xj.{ ( [ ! !  . . .{ ( { #.h.z.k.*.O.(  . .(  .( ( [ f U z.*.( [ P P / ( { { !  .%.%. . .{ ' O.O.( / / / ( ( B @.l.2.B ",
"XXj.%. .{ / { $.%. . .$.$.h.z.z.j.h.&.&.$.$.$.$.$.$.O.L @.J.h.o./ / / ( { { } { %.*.*.%.$.$.$.$.$.O./ / { { { I J { %.[ ",
"&XH.%.{ { ^ { { { { {  .%.j.l.2.%.%.&.&.%.$.$. . .$.X.h s.N.2.{ / ! / { [ { { { $.&.%.%.%.%.%.$.O./ / ( (  . .I K +.2.[ ",
"zXJ.%.{ { ( { [ } ( { { %.j.3.%.%.%.%.%.+. .$. . . ./ g Y z.&.[ / / { } { { ( { $.&.3.%.%.%.%.O.( / ! { {  . .! Y g.j.Y ",
"&XD.%. .{ { { { { { ! { %.3.3.%.%.%.%.$. .$.$.$. . .X.f o.z.&./ / / { { { { O. .$.&.3.%.$.$.$.{ / / ( ( {  . .U g #.2.[ ",
"oXl.%.$.{ { } ( ( { {  .%.2.2.%. . .%.%.$.$.$. . . .o.x E l.$./ ( [ {  . . .$.$.$.&.&.$.$.$.{ X.Y / (  . .{ { L d @.2.[ ",
"#Xz.%.{ { } { { { { {  .&.2.*.%.%.%.%. .%.$.$. . . .{ c E j.+.(  . .} {  . . .{ { %.$.$.$. .[ P P / {  . . .$.L U z.l.[ ",
"#XM.&.$. .{ { { { {  . .*.j.*.$.$.$.$. .%.%.$. .]  .O.L #.G.#.{ $.' { { { { { { { ( { { o.Y I L P {  .{ { %. .L Y z.h.Y ",
"&XG.*.$.%.$.$. .}  . . .2.3.&.%.$.$.$.$. .$.$.$. . .O.c W z.*.%.&.$.{ { { { { { { ( ( / / I I / {  .%.{ {  .{ J c &.2.[ ",
"$XG.&.$.&.O.+.%.O.$.+.%.&.2.1.2.&.&.$.&.%.%.%.$. .%.o.x v j.h.&.h.X./ { { O.{ o./ ( ( ! P I P { O.( O.O.O.O.O.L U h.2./ ",
"s.h 1 < : : < - @ * d B H < 4 < < : : g L c L P P L f + : c : ; : & + @ @ d d = d , 6 x c f g * @ * * = d g , o + f f & ",
"C.p.6 ; 4 5 4 4 0 R R U 6 % X # % 4 6 R 7 6 H K U U H 6 9 9 5 4 0 0 5 R u.R 6 R R > # - , , H R R 0 0 R R H < 5 t x 5 5 ",
"mXkXn.m.A.].`.'.].kX$XXXm.g E n.C.S.].S.m.m.m.m.m.m.b.N.@XkX].].%X].`.&X&X`.'.$X@XW B v.v.m.`.XX@X$X@X@X@XS.S.'.kXkX'.S.",
"cXoXM.J.XXXXoXOX$X$XOX#XN.d v.&XOXXXoXH.M.H.H.G.F.F.c.H. X@XkX$X&XOX XoXoXH.XX&XXXP E `.XX.XXX XJ.XXXXOXoX X XoXXXXXJ.J.",
"H. .{ O.+.O.%.O.O.$.%.%.Y - Q  Xz.2.&.$.9.L.W.T.W.U.T.L.w.e.e.1.%.O.$. . .%.%.+.+.f E N.M.2.2.{ / ^ / { O.O.+.+.[ [ X./ ",
" X%. .{  . .( ' { ' ( { I - @.J.j.&.%.e.E./.).)././.).).(.^.!.T.r.w.e.:.%. .{ S { x @.{.c.$.' ~ { ~ ! ! { { ~ (  .( ~ ! ",
"OX3.$.$.%.%.%.%.%.%.O.+.I & s.H.e.8.9.U.).).)./.!.!.!.!.(.).).).).Q.Q.W.r.9.+.B.i.K e.!.W.&.g.<.{ $.{ { { { O.O.$.%.{ { ",
"#X3. .%.&.%. .$.$.$.$.{ %.} 1.e.t.W.w.T.!.!.E.Y.I.P.t.q.r.W.T.W.r.q.t.t.P.W.e.>X4Xi 6.(.L.t tXtXV.} { ( { { O.$.$.{ } [ ",
"OX3.&.3.3.*.%.O.O.$.$. .P.!.U.I.I.Q.Q.T.Y.Y.t.t.t.q.t.P.r.W.W.W.r.t.W.Q.!.!.1.2XuXy 9.!.!.g.8XrXiXV.~ ( {  .$.$.$.{ { ! ",
"#Xj.j.j.*.%.{ / / o.$...r.!.)./.R.I.0.8.0.t.q.W.!.!./.).).).).).).(.!.).).!.e.:X0Xy S I.!.R.6.x.tXtXQ ^ { { O.$.{ { { [ ",
"#Xz.l.j.*.o.Y Y / { ( ' 0.I.R.!.!.t.m k ` P./.).(././.).^.^.(.^.!.(.(.!.!.r.m :X3Xq A P.!./.^.R._.tXV.Z / { { { { { { [ ",
"&XM.l.%.%./ / [ ] 8.a.y.5.t.Y.q.0.q.5.5.T.).)./.!.R.R.R.Y.Y.U.P.r.t.t.q.0.9.v :X1Xq s 0.R././.).E.i V.Z Y / { { } {  .! ",
"&XD.2.%.{ X./ ' ) B.gX4Xp 0.q.0.m k 5.t./././.R.t.t.I.t.0.9.9.8.8.8.8.8.] 8.v ;X1Xw k _ 0.W.!./.E.a.8Xh.) ( {  .{ { { Y ",
"&XF.%.$.+.X.( s.8XpXfXiXa ..' l l a 8.t.I.Y.t.q.0.8.e.9.8.' ] ] ..$.] ] ] ) b :X:Xy.M _ ' ) 0.I.I.b 8X].{.k.k.2.{ { { Y ",
"XX@.X.m B ! W 8XdXfXfXpXy j ) k 5.8.` 5.8.8.8.] ] ] ' 8.] m M ] ........] ) b ;X;Xb 5.' M z ` 0.0.U r C.+X{.+XOX+.! [ U ",
"t O 8Xa.a.yXgX9XiXuX3XuX5Xp ' t.!.!.Q.P.0.9.9.8.m m ' ' ] ' m m M m m M ' ` y.r r y._ l v b R  .0.( e a.c.c.{.-Xx.* - % ",
"f.u.wXqXfXdXdXiX<X4X2X:Xa.A 8.0.t.P.U.I.0.8...] ' M n l k m m l a 2 2 v ^ s.z.g.f.v Z b 6XuXeX6X#.A w t c.<.k..Xc.K.=.6 ",
"cXcXkXwXpXpXpXuX4X>X6XB.~ 0.q.t.0.0.0.) m _ ] m ) ) z ^ v n X.X.u.t a.s.<.<.<.2.H..XH.@XmXhXdXuXu A k T -.;.g.4.[.|.|.S.",
"zX#XJ.d.a.5X4X2X3X,Xp.@.k A 8.0.8...] ] ' ) M k n v o.Q s.#.#.#.@.Y h.z..X_.x.*XMXBXbXbXVXjXaXpXy s k D ,.=.@.K.[.}.[.k.",
"XXl.( Z B h 5 y r q ! v b 0.8.5.A m ' ' n n m l [ Y / B o.s.p.8XyXjX*XbXBXBXBXBXBXMXBXnXvXjX3XuX>Xs S -.;.K.-.;.K.-.;.P ",
"OXz.o./ Y Y ! Z h ! h 7X9XA 0.t.q.8.] m n m ) [ l.l.G..XxXxXkXiXaXhXNXVXBXBXbXxXvX*X+X*X+Xf.2X1Xt C F -.-.~.K.;.-.;.+.[ ",
"S.%./ Y / ^ / X.( E u sXsXw a 8.8.' ) l n l ^ j.+XvXnXMXVXVXBXyXuXpXjX-X+X.XM.k.c.x.<.<.<.t r t B >.>.-.K.~.>.>.-.L.,.T ",
"S.&.[ ! / ( ( ( p.u iXfXsX6Xp ' ) m ) l l X.3..X+XxXvXnXBXBXbXjX2X>Xa.<.o.[ } [ Z P [ [ } Q =.G D >.>.>.-.-.>.>.=.K.7.Y ",
"$Xz.o.! ( ( $.b a.gXfXpX0X3Xy z l ' ) k ^ %.j..X+X=X-XvXxX*Xg.t >Xt Y ! ! ! ! ( / ( {  .O.} F 7.G F >.F -.>.F -.;.4.4.X.",
"@Xz.o.^ ^ ^ p.i tXiXuX0X3X3X:X2 k m n l $.&.&.F.{..X_.c.@./ Y W b / { { ( { ( ^ ( { [ { o.-.G 7.G -.F G F F -.-.T ;.1./ ",
"OXh.X.^ i.B.wXgXfXrX<X4X2X,Xu E ^ X.^ $.&.j.&.$.2.<.T - N 2.$.{ { { { { ! { { } { { O.$.O.>.G G >.>.K.G F ;.T { o.g.3./ ",
"@Xz.X.B.8XyXgXdXpXuX>Xr u Q  .%.&.&.%.%.&.*.&.%. .{ L % K 2.+.[ } ! { { } { [ { { &.j.<.;.G 7.G -.>.F -.;.=.h.o.U +.&./ ",
"XXk.{ V.iXaXaXsXuX3X2Xy +... .{ $.%.%.&.$.$.$.$. .{ U * Q M.#.( { { [ } { { [ { &.z.M.#.>.7.F -.T Q @.T } <.j.Y J @.*./ ",
"].M.%.X.B.8X5X,X,X,X>Xt %.%. .%.&.*.h.*.*.*.&.&.%.{ E h b.XX*.{ $.%. .%. .$. .&.z.H.b.+.;.;.} +.h.k.@.<.&.*.3.[ Q M.F.( ",
"v.U 1 g s d * = < : * = x x 6 f x 6 6 6 5 < x L c 6 ; # K +.P J B J K J B J L P @.#.Q K H J / [ o.o.R 7 B T W H 6 E U x ",
"f.1 > ; > 6 1 1 < < 6 6 > % % ; ; $ . $   $ 3 x 6 > ; 3 K [ J 6 < > # # > > < J L 1 + o & H U P B f & X > H 1 - - , < % ",
"mX%X'.A.N.A.A.v.v.S.'.Z.v.U p.].S.Z.A.Z.Z.Z.].S.m.N.`.].lX&XN.m.n.n.v.Z.Z.n.S.'.m.I 1 p.S.'.S.N.m.v.g.Z.`.v.@.@.n.'.S.v.",
"mXlXOX#X#X%X#X XoX#XXX XN.Y g.kXoXoX#X@X@XJ.@XXXJ.J.OX&X*XOXG.D..XXXOX&X&XOX&X#XH.! s.@X*X#XoX XH.J.oX#X&XH.D.z.H..XoXH.",
"#X2.O.&.k.b.M.z.z.l.2.&.o.< E M.h.*.h.O.+.O.$.h.*.$.&.&.%.%.o.o.+.&.2.2.2.2.+.2.h.g Q N.M.1.&.&.&.*.h.*.#.*.&.&.*.%.%.o.",
"XX .Z  .*.k.3.&.O.$.{ O.Y < p.H.h.%.&.( ( ( &.j.$.$.' ( ( / { ( ( ~ Z Z A ~ ~  .+.x U j.&.(  .{ { ' ~ ~ ~ ~  .%. .{  .( ",
"&Xj.&.l.z.h.&.O.{ O.$.%.o.1 @.M.j.j.*.&.*.j.z.j.h.$.$.$.$.O.O.$.%.$.$.$.%.%.%.*.#.c U b.l.%.1.+.&.$.$.$.&.%.%.%.%.<.%.{ ",
"&Xz.j.j.2.O.{ { { { $.%.o.> g { O.O.o.[ O.&.&.&.$.$.$.$.O.$.$.$.$.$.$.$.$.$.$.$.O.g Q N.l. .$. .$.$.$.$.$.$.$.$. .%.%.O.",
"&Xz.h.%.$.o.{ {  .$. .$.X.; f O.[ / / / [ { %.%.$.$.$.$.O.$.$.$.$.$.$.$.$.$.$.$.O.Z d. Xl. .$.$.$.$.$.%.%.$.$.$.$.$.$.( ",
"$Xj.%.$.$.{ $. . .$.$.$.W < E M.&./ / ( { $.%.%.$.$.$. .( X.O.$.$.$.%.$.$.$.$.$.O.P W z.j.$.$.$.$.$.$.$.%.%.$.$.$.$.$.( ",
"#Xj.$.$.$.$. .$.$.$.$.%.o.1 @. Xj.$. . . .%.%.$. .$.$.O./ ^ ( O.%.&.%.%.$.$.$.$.+.H J +.%.$.$.$.$.$.$.$.$.$.$.$.$.$.$.[ ",
"#X3.$.$. .$. .$.$. .$.&.W < W c.%.{ $. .{ O.%.$.$.$.O./ / / / ( %.*.*.*.$.$.$.$.+.P W l.*. .$.$.$.$.$.$.$.$.$.$.$.$.$.( ",
"#X*. .$. . .{  .{ {  .&.W & c h.{ { { ( / / { O.$.O./ P / / ( / ( $.%.%.O.$.$.O.O.I U l.h.O.$. .$.$.$. .$.$.$. .$.$.$.( ",
"&Xh.$.$.$. . . .$.{ %.3.o.: p.G.%.( / / ( / { ( ( X./ / ( { { {  .{ O.{ [ O.{ $.O.x f 2.j...%.%...$.$.$.$.$.%.$.$.$.$.O.",
"@X#.o.[ { o./ / Q X.o.o.U < p.b.o.Y P Y Y Y Y Y I I I ! / X.W o.o./ / P c P Y o.X.6 x g.h.o.O.o.W W [ X.o.[ O.+.[ +.+.X.",
"p.# % * = : # X X X X .     + f + + * + o X X + + o . $ # + @ + + @ + o . . + & & . O s d o X       . O + O * 1 4 ; ; X ",
"f.8 0 R K R 7 8 8 8 8 t t 8 u.d.p.R u.R 0 8 0 R 0 0 0 % 4 R u.R u.E R 0 0 u.u.R 6 9 p.g.p.R 8 t t t t f.R i.p.N # % 7 3 ",
"cXlX%X%X#XXX'.%X%XlX%XlX$X#X*XzX#XOX#X#X@X%X%X&X%XOXJ.@.m.&X#X@X&X#XXX].@X&X&X@X'.@XkXzX&XOX#XlX&XlXzXxX$X$X&XQ H A.&X`.",
"&X{.1.1.1.| | l.G.c.c.c.:.| 1.1.S V C C | 3.l.l.1.` V a V F.S C | C C | | %.:.| S *.*.| 1.| | e.l.k.k.:.Z V j O O l.H.| ",
"SXSXAXAXAXAXSXAXAXAXAXAXAXCXCXAXAXAXAXAXAXAXAXAXCXCXCXCXAXSXSXCXAXAXAXAXAXAXAXAXAXAXAXSXAXAXAXAXAXAXZXZXZXZXZXZXZXAXSXAX"
};
