/* XPM */
static char *result[] = {
/* columns rows colors chars-per-pixel */
"60 60 247 2 ",
"   c #0A0605",
".  c #260808",
"X  c #380504",
"o  c #2F170F",
"O  c #2C221D",
"+  c #490504",
"@  c #560904",
"#  c #471909",
"$  c #591902",
"%  c #4F1514",
"&  c #650403",
"*  c #6F170B",
"=  c #69190C",
"-  c #5A230A",
";  c #4A2616",
":  c #5A2716",
">  c #68270B",
",  c #772906",
"<  c #76320D",
"1  c #662915",
"2  c #782A16",
"3  c #77351A",
"4  c #7B361C",
"5  c #5B2F37",
"6  c #773926",
"7  c #7C3C22",
"8  c #71302D",
"9  c #7D432A",
"0  c #2C396E",
"q  c #572857",
"w  c #543254",
"e  c #6F384D",
"r  c #33547A",
"t  c #734A4E",
"y  c #754558",
"u  c #4C4C75",
"i  c #6C526B",
"p  c #766C77",
"a  c #901513",
"s  c #8E2F08",
"d  c #9C271A",
"f  c #85381B",
"g  c #97351B",
"h  c #AB320C",
"j  c #A32D1C",
"k  c #A5331E",
"l  c #AB3B1A",
"z  c #821E2F",
"x  c #843D23",
"c  c #893E23",
"v  c #873528",
"b  c #9A3921",
"n  c #8D2F35",
"m  c #A93621",
"M  c #A93524",
"N  c #A63923",
"B  c #AC3B23",
"V  c #924614",
"C  c #984519",
"Z  c #A64618",
"A  c #A44C1D",
"S  c #AB4A1D",
"D  c #B14B14",
"F  c #A76016",
"G  c #8D4224",
"H  c #86452A",
"J  c #8B462B",
"K  c #934425",
"L  c #974627",
"P  c #9B4B25",
"I  c #944A2B",
"U  c #9D4B2A",
"Y  c #9A5429",
"T  c #8B4B32",
"R  c #974B33",
"E  c #8C543C",
"W  c #985539",
"Q  c #A74327",
"!  c #A44B24",
"~  c #AB4D24",
"^  c #A44D2A",
"/  c #AA4D2A",
"(  c #B24425",
")  c #B94C24",
"_  c #B44629",
"`  c #B64A2A",
"'  c #BA4E2B",
"]  c #AC5226",
"[  c #A55826",
"{  c #A5512C",
"}  c #AC532C",
"|  c #B65629",
" . c #B1542D",
".. c #BD512C",
"X. c #A74C32",
"o. c #A45433",
"O. c #AD5431",
"+. c #A65A35",
"@. c #AD5935",
"#. c #A45C3B",
"$. c #AC5C3A",
"%. c #B25532",
"&. c #B25A34",
"*. c #B35D3A",
"=. c #B95D38",
"-. c #AB692C",
";. c #B76E2D",
":. c #A86239",
">. c #AB633C",
",. c #B46536",
"<. c #B5613D",
"1. c #B9623D",
"2. c #C35F15",
"3. c #D06C16",
"4. c #C45829",
"5. c #CD6529",
"6. c #D56B27",
"7. c #C9762F",
"8. c #D9752B",
"9. c #C66A34",
"0. c #E47A25",
"q. c #823B46",
"w. c #8A5643",
"e. c #985B45",
"r. c #884F53",
"t. c #A85C42",
"y. c #9A624B",
"u. c #996755",
"i. c #AA6647",
"p. c #B46343",
"a. c #B96443",
"s. c #B56947",
"d. c #BA6946",
"f. c #B56B4C",
"g. c #BB6C4C",
"h. c #AB734C",
"j. c #B6734B",
"k. c #A86C54",
"l. c #A46E5B",
"z. c #B86E51",
"x. c #AC745D",
"c. c #BC7353",
"v. c #BC7A53",
"b. c #B3755A",
"n. c #BD765A",
"m. c #BD795B",
"M. c #92706A",
"N. c #AA7866",
"B. c #B57B65",
"V. c #A47E70",
"C. c #C27549",
"Z. c #C27555",
"A. c #C17759",
"S. c #C17A5C",
"D. c #C37E61",
"F. c #BB872B",
"G. c #E58810",
"H. c #CB8C36",
"J. c #D98634",
"K. c #E9872A",
"L. c #F18C27",
"P. c #EA942A",
"I. c #F3952C",
"U. c #F49B2C",
"Y. c #E38930",
"T. c #E99633",
"R. c #F29632",
"E. c #F49C32",
"W. c #D6A934",
"Q. c #F8A32B",
"!. c #F5A233",
"~. c #F9A635",
"^. c #FAAB36",
"/. c #F5A539",
"(. c #FBAC39",
"). c #E1BA3A",
"_. c #BB8759",
"`. c #B8836B",
"'. c #A48778",
"]. c #B88674",
"[. c #BD8975",
"{. c #CE8F4E",
"}. c #C38559",
"|. c #D7AF4D",
" X c #C58164",
".X c #C5846A",
"XX c #C88869",
"oX c #C9896D",
"OX c #D1936C",
"+X c #C38B75",
"@X c #CB8C72",
"#X c #C58E79",
"$X c #C69277",
"%X c #CC9175",
"&X c #CD937B",
"*X c #D39877",
"=X c #DDA27E",
"-X c #E6A160",
";X c #F0D755",
":X c #EAD26C",
">X c #10528E",
",X c #04549A",
"<X c #2E548F",
"1X c #316296",
"2X c #0C5BA5",
"3X c #2C5EA3",
"4X c #0062AC",
"5X c #0369B6",
"6X c #126DB1",
"7X c #2368A9",
"8X c #326FAB",
"9X c #484F86",
"0X c #4F709B",
"qX c #6F758E",
"wX c #0978C2",
"eX c #857188",
"rX c #1781BE",
"tX c #2684BE",
"yX c #738294",
"uX c #518BAB",
"iX c #698CAE",
"pX c #0087CA",
"aX c #0F8ED2",
"sX c #0199D9",
"dX c #2F91D1",
"fX c #079BE2",
"gX c #2A9BE1",
"hX c #00A7E5",
"jX c #2AA8EB",
"kX c #5099CA",
"lX c #8C948F",
"zX c #A29792",
"xX c #B8A29C",
"cX c #CA9784",
"vX c #D19B84",
"bX c #D29A84",
"nX c #D6A28A",
"mX c #CAAA98",
"MX c #D7AA96",
"NX c #DAB79D",
"BX c #E5AB86",
"VX c #EDB692",
"CX c #BBC0BE",
"ZX c #F6CE9E",
"AX c #F5E690",
"SX c #FCCCA6",
"DX c #F3CBAB",
/* pixels */
"cXD.g.c.c.g.*.p.f.A. XB.Z.g.n.m.c.n.B.S.Z.m.c.c.D.D.p.k.&XoXD.A.g.f.p.@.&.*.p.D.%X$XD.A.D.oXD.A..X.Xc.p.c.S.$.Q @XvXn.vX",
"n.*.] } ^ ! /  .} ` ~ ]  .*.<.a.=.} ] ] } / / /  .] G x p.a.O.X.{ P P ^ / } ] } &.| | %. . .} O.} / ! ^ / } C P m.n.V .X",
"f.*. .} ^ / } %.%. . .%.*.p.f.g.a.*.&.%.%.&.%.%.%.O.I G z.g.%./ ^ U ! { } } } O.&.=.*.&.%.%.%.%.O.o.^ ^ } } Q K @.<.Z [.",
"n.1.] } / } } } } O. .%.=.s.g.1.*.*.*.=.%.%.%. .%.O.P o.S.c.o.^ P ^ } } } [ } } *.<.&. .%.%.%.%.} { / / } %.U x P *.A [.",
"XXd.] } / / } { } ] } &.a.d.,.&.&.=.*.&.O.%. . . .O.c L f.p.O.^ ^ ^ } } [ } } O.&.=.=.&.&.%.%.} { Q { }  .| { K #.d.A [.",
" Xd.`  .} } } ] ^ } } O.=.1.,.&.&.&.&.%. .%. . . .O.K c p.a.o.{ ^ } } } o.} }  .*.a.=.&.&.&.O.{ { ^ } ]  . .^ G +.d.! [.",
"Z.=.%.} [ } } ^ } } } O.=.<.&.&.&.&.%.%.%.%.%. . .%.K R g.a.} ^ ^ ] [ ] D D |  .*.<.@.X._ ] { U ^ / ]  .} %.U 4 P <.! [.",
"z.a.} } } ] } } } } ] %.=.1.*. .} &. . .%.&.%.' ' ] c f $.@.A ! [ ] ] -.eXyX#.' @.H.H.F.-X_.Y -.[ {  . . .%.U f o.d.! +X",
"A.a. .%.} } } } ] }  .*.<.1.&.<.v.A.C.<.@.] ] -.#.u.W h.OXBX=XXX=X=XOXuXhXuXh.F.|.).:XZXAXAX|.F.|.;.} |  . .! I f.Z.! ].",
"A.a. .&. .} } } ] } | *.a.<.$.v.}.j.XXBXnXOX_.uXkXaXmXZXZXSXVXZXSXSXmXwXiX|././.;X;X).AXAX:X;X|.:X_.^ [  . .L f $.p.Z [.",
" Xf.| =.&.&.&.&.&.%. .<.a.1.>.Y :.Y :.*XVXZXNXdXjXsXmX=X=X*X}.VXSXSXxX,Xi.L.(.U.T.W.W.F.;X;XW.F.W.W.;.%.%.&.U x #.d.S [.",
"z.$.U o.o.R Y U U ^ / o.o.+.o.#.j.I Y A s.VXNX7XpX5Xx._._.XXj.}.nXBX'.M.T.~.P.v.1.2.-.-._.|.{.>.F.|.{.b } { f f t.$.V ].",
"s , $ @ $ $ @ + & , f f > # # 3 < & > 4 < XX+X0 u u 9 G Y >.I Y >.C.T.!.^.OXqXpXmX{.;.;.+.j.BX@XV Y V * < < # + & * + M.",
"].k.E e.u.y.y.l.N.x.l.t.9 > 9 E w.u.u.i.e.h.:.w.W #.e.u.l.u.y.u.:.Y.^.Q._.5XfXsXNXBXOXOX}.XXBXVX_.E l.N.k.W y.l.N.k.w.cX",
"MXoXD.@X&X&X%XbXbXbXbX@X+.U .X#X@X&X%X X XD.n.S.A.A.D.@XvXnXvX*XT.!.U.{.6XrXjXfXlXBXVXSXVXBXnXDX`.-.$X*X%XoX%XbXcX&X@XMX",
"z.p.p.f.z.c.g.c.c.z.Z.z.G T .X.Xc.c.d.a.s.f.a.a.1.<.p.f.j.m.b.J.L.R.G.lXsXtXgXjXsXxXVXBX*X X}.h.F -.h.j.g.f.c.c.s.f.p.cX",
"%.] ~ ~ ~ S S ~ ~ ~ ] ! 3 9 c.c.&.|  .} / ` /  . ./ / ` ~ S Z 3.8.~.G.0XhXsXsXsXpXuX$XOXc.Y +.Y Y P Z ! ~ ~ ~ S S S V `.",
"d.&. .%.&.&.%.%.%.O.O.{ 3 J S.A.*.*.&.%.' %.&.%.%.O.%.%.%.| y.p 4.~.E.N.yXzXzXzX'._.'.OXOXt.[ -.} } / } } O.O.O.%.| D [.",
"g.&.%.*.=.&.%.%.%.%.%.{ 3 T A.g. .&.&.&.%.%.%.%.O.%.%.%.O.e.0XpXi G.(.E.G.K.P.Q.Q.Q.P.7.9.%.P  . .} } } } o.O.%.%.O.Z [.",
"g.&.&.1.<.&.&.%.%.%.%.X.K Y c.a./ %.&.&.%.%.%.%.%.%.%.=.2.qXwXgXaXr.3.0.E.E.!.U.K.8.7.| k k d  .] } / } | %.%.%.%.} Z [.",
"g.*.a.a.<. .} { O.%.%.O.c U c.a.%.=.*.%.%.%.%.%.O.} &.T.L.b.tXaXgXaXe h 4.5.6.6.5.4.B ' ..` l '  ./ / } }  .%.%.} } A [.",
"C.a.a.1.&.{ U ^ ^ } %.O.G c <.1.&.<.=.&.%.%.%.%.%.9.T.~.(.P.u.dXfXgX7Xn l B ' 4...l l l N q.e / &./ / } / } } } } } Z [.",
"n.g.a.=.o.Q ^ ^ } O.&.$.x f O.*.} *.&.&.%.%.%.&.9.T.~.^.R.8.3._.0XaXwX<Xe _ ` ' l n e i 8X6X>XE | } / Q ^ / ] } [  .D [.",
"A.g.=.%.{ ^ } } O.=.g.p.H 4 <.*.^ } } }  .O.&.8.!.^.R.R.8.Y.I.I.9.qX3X2X,Xe s j s 0 2X5XaXaX5X9X] } } ^ ^ } &.} ] @.A ].",
"A.1.&.O.^ }  .%.&.s.g.<.G x f.a.} @.} } ! ,.Y.E.(.!.L.6.0.E.^.E.R.3.$.0 u W B Q f 8 i qXlXlXyXi } }  ./  .%.&.O.[ } C ].",
"c.<.O.} ^ } &.%.<.d.d.<.7 7 s.g.<.<.&.{ } J.(.~.(.!.6.4.K.~.(.^.R.K.5.a K ,.&.&.H V V >.j.;.-.A &.O.@.O.&.*.&.@.@.} Z [.",
"H 3 1 8 4 x x H K T 9 8 ; % L I G L C Y J.~.(.^.!.L.l 2.K.R.~.~.L.0.4.B g H x G 3 1 C +.n.v.:.I f G 4 3 f G G H G G , N.",
"; O O ; : : - > - # . o o ; v v 2 x Y Y.^.(.(.E.K.5.j ) 8.R.~.~.R.0.4._ 2 1 > 4 4 6 #.:.v.v.v.:.4 4 2 8 v G 3 # - > + p ",
"].].`.B.B.k.i.f.t.W i.N.N.].vX$X`.Z.T.^.(.~.I.0.5.4.j B K.~.(.(.I.6.' Q o.#.i.z.z.B.%Xi.j.}.j.[ m.B.n.+X#XoXi.C k.x.i.cX",
"nXvX+X@XD.z.n.A.Z.c.B.@X@X$X&X@XB.{.!.(.~.I.0.4.M B a l I.^.^.(.L.6.' N p.a.z.c.z.A.Z.i.Y j.j.! b.D.m..XoX X<.{ oXbXn.nX",
"m.i.! } U U X./ /  .o.o.O.o.P P [ T.(.!.L.0.4.l 4.j a l R.^.^.~.K.4.( Q O.O.}  .1.=.} A j.*X=X%X{ } O.} } } P G $.a.A [.",
"n.$.! U U ^ Q Q / / ! Q ! Q P P 7.~.^.I.0.6.4.4.B j f S E.(.^.!.0...N b %./ }  .} o.U U BXSXSXVX+.} %.%.o.^ K x Y <.Z [.",
"g.+.U U U ^ / / / / / / / } ^ { 6.R.R.R.8.5.4.M j N x S ~.(.(.E.8.( m k { / } / ^ U P Y MXCXDX*X! @.%. .{ ^ K c o.1.A [.",
"*.} U Q Q / / / / / } } &.%.} &.5.8.5.4..._ B m N X.b | ~.^.(.U.8.( ( b ^ ^ ! / ^ Q j._.iXhXkXp } %.%.o.U ^ U L $.p.Z ].",
"f.$.! ^ / / / / Q / } %.&. . .7.5.4.' _ B B B j Q +.} 8.(.^.(.I.4.4.4.g ^ / / / / } i.}.zXsXaXu O.%.O.^ U { } P p.f.A [.",
"A.>.Q / / Q / / / / } } } [ 9.8.Y.` B B B m j d } { | Y.^.(.^.L.0.K.l b / / Q / / } [ >.-Xp ,Xi  .%.o.^ ^ O.^ K +.d.S [.",
"f.$.Q / / / / / } } } O.@.O.J.8.8.5.B B k k j b  .U -.P.^.^.~.L.R.6.a Q } / } / } } o.[ =X`.5 #.%.%.%.} } *.O.^ p.d.S [.",
"c.*.~ / / / / / ^ } @.&.&.^ 5.5.` 4.B j B m m N { U g R.(.^.^.U.0.B d b } } } } } &.<.C *XOXV +.%.%.%.%.%.*.&.} >.d.S [.",
"c.*./ / / / / / } *.<.<.=.^ ( ( M B N B m j N N } U 2 J.^.^.~.0._ B j Q } } } ] p.g.s.,.v.s.[ O.&.*.*.=.p.a.+.f I <.S [.",
"z.*.} } / / } %.=.a.a.=.%.} N d j B ' ' ( ( ( N } ^ c 8.~.I.L.6.` ( j b ^ } } <.Z.A.1.h.v.+.o.=.a.g.d.a.1.1.@.K t.g.~ +X",
"i.+.Q Q U ^ ^ } #.$.o.^ ^ U I 8 z a l ......B L P K 4 4.L.K.0.5...B j j b X.o.t.g.a.:._.OX:.[ p.s.p.#.{ } *.o.G i.s.C [.",
"s > $ > < < 2 3 > = > > 1 : @ q <X9Xy N Q g < < > @ X s 0.8.4...` B k B g < f K K G 3 y.:.I C K K 4 ; > f G 3 : , 2 $ M.",
"u.y.w.w.E E E T E e.e.E 6 6 E w 2X6X4X<Xw t y.e.E w.e.e._ ' ' ..( ) l N N v N e.J = 1 T e.t.t.#.Y T 9 w.E I x H e.e.T '.",
"MXcX&X&X$X$X.X X%X*X+X.Xs.o.+XM.,X7X7X1X>XM.%XoX XoXbXbXt.l ....) 6.l B B l _ z.s.C l.&XcX#XoX XB. XoXbXoXz.d.m.@X#XD.vX",
"oXm.A.D..X.XD.A.D.Z.z.z.R K b.p <Xr r 1X4Xy z.Z.g.c.m.A.X.j ' ( ) 5.d B Q j ( t.@.I `.@XD.n.c.c.c.A.S.D.Z.g.d.c.c.n.p.cX",
"<.A S &.a.d.a.<.*.&.&.} 4 H N.qX7X7X6X2Xu ^ =.*. ./ / / ^ N m M ' ' k ` B M _ N I f p.d.] |  . . . .] S ~  .&. .] ' Z [.",
"g.%.=.g.f.d.*.O.O.%.*.O.x E eXiXwXwX3Xy %.C.g.a.%.%.%.&.O.^ d j _ 4.B ' m _ ` Q U x i.g.&.,.&.&.&.%.%.%.%.&.&.&.&.*.S +X",
"c.a.p.d.<.O.} } } O.%.O.x v M.dX7X9Xr.` p.a.a.=.%.%.&.%.%.X.j m ( ' m ( d _ g ^ U 7 s.g.&.&.&. .%.%.%.%.%.&.%.&.&.&.] +X",
"n.d.a.*.O.} } }  .%.%.O.6 , r.9Xq.Q ! } o.&.=.%.%.%.%.%.%.%.B N B B B _ h d q r.A U n.c.%.%.%.%.%.' %.%.&.%.%.%.=.=.Q +X",
"c.<.%.%.} o.} } %. .%.O.7 4 +.} Q ^ ^ ^  .%.&.&.%.%. .O.O.O./ Q N j j j e u 4X9X9 R n.c.%.%.%.&.%.@.&.%.%.%.%.%.%.%.S +X",
"g.=. .%. .%. .%.%.%.%.O.x J m.g.O.} / %.%.&.&.%.%.%.O.{ Q X.%.&.O./ n q <X5XwX3Xr <XT =.%. .%.%.%.%.%.&.&.%.' %.%.%.S +X",
"g.&.%.%.%.%. .%.%.%.&.O.x J n.g.%.&. . .O.&.%.%.%.%.} { ^ ^ / O.*.=.e.w 9X5X5Xu 1X5Xe =.@.%.%.%.%.%.%.%.%.@.%.%.%.%.S +X",
"g.%.%.%. . . .%. .} &.#.7 2 @.=.} } } } } O.%.%.%.O.Q ^ ^ Q / o.@.=.=.e.e 9X<Xu 8X5Xy =.%.%.%.%.%.%.%.&.%.%.%.%.%.%.Q +X",
"g.&.} } }  . .} } } *.*.4 6 p.a.~ } ^ ^ ^ ^ / } / ^ U U { / / / }  .O.O.Q 8 5 3X6X4Xe a.%. .%. .%.' %.%.%.%.%. .%.%.S +X",
"Z.*.O.%.%.%. .%.%.&.1.@.f R D.d.~ ^ { } } o.} ^ ^ ^ / } } &.%.%.%.} ^ ^ / w.w <X6X4Xy a.p.=.a.=.%.%.=.%.%.=.&.=.*.=.] +X",
"W J K U L G x x H H J H : 6 e.R f c c c x x x x 7 7 x c c G K J L c x 3 6 x w u 7X5Xe ^ R v v 6 6 6 c c v c I I K I f '.",
"$ X = , , > X     . . . . % a * * 2 = @ + . @ @ @ + o % & * = @ * * @ + % & w 0 9X4X8 s * X .     . = & % a 4 : # $ X i ",
"B.`.x.x.b.k.k.N.N.B.V.`.N.`.#X[.B.B.B.x.N.N.B.B.x.k.e.I B.B.N.B.B.B.x.N.B.`.N.i <Xu B.+XB.B.V.cX].cXcX].B.+Xh., H x.y.[.",
"nX&XoXoX XD.oX&XbXcXbX&X.X@XcX@X X XD. X+X@X&X#XD.D.&.O.+X@XD.oX.XD.D.XXoX@XoXb.r.l.@X@XD.D.@X&X&XbXcX+XD.D.i., k.bXXXMX",
"B.f.>.s.p.a.p.g.p.f.s.=.*.*.*.@.+.O.@.*.p.p.s.p.p.@.C I c.g.=.*.*.*.*.*.*.$.<.<.=.a.p.p.a.a.a.p.p.t.#.o.U I 7 : #.S.a.$X"
};
