/* XPM */
static char *result[] = {
/* columns rows colors chars-per-pixel */
"60 60 253 2 ",
"   c #050100",
".  c #1A0000",
"X  c #290100",
"o  c #370301",
"O  c #39140C",
"+  c #470300",
"@  c #550701",
"#  c #5D0200",
"$  c #4B1707",
"%  c #591801",
"&  c #640600",
"*  c #661501",
"=  c #721405",
"-  c #592712",
";  c #662607",
":  c #732601",
">  c #682C15",
",  c #792B12",
"<  c #6C351A",
"1  c #79351A",
"2  c #791229",
"3  c #6B3724",
"4  c #763922",
"5  c #7B3C24",
"6  c #743939",
"7  c #77422A",
"8  c #794635",
"9  c #0B3D7E",
"0  c #353A74",
"q  c #542A55",
"w  c #5F2B59",
"e  c #683351",
"r  c #16417A",
"t  c #394F79",
"y  c #704C54",
"u  c #4D5472",
"i  c #71546B",
"p  c #786876",
"a  c #91130E",
"s  c #961A15",
"d  c #8E2F09",
"f  c #9B2618",
"g  c #9C251A",
"h  c #83391B",
"j  c #893A19",
"k  c #9C341C",
"l  c #A52C01",
"z  c #A22B13",
"x  c #A32D1C",
"c  c #A5321E",
"v  c #A73A1B",
"b  c #85152E",
"n  c #8C2D2F",
"m  c #873C24",
"M  c #9C3A23",
"N  c #A43421",
"B  c #A93621",
"V  c #AA3724",
"C  c #A53B24",
"Z  c #AC3B23",
"A  c #914D10",
"S  c #99441A",
"D  c #A4471A",
"F  c #AF5119",
"G  c #9D6A13",
"H  c #AF6D0D",
"J  c #BB771D",
"K  c #8C4225",
"L  c #89452A",
"P  c #934425",
"I  c #994525",
"U  c #9C4A26",
"Y  c #934629",
"T  c #964828",
"R  c #954A2C",
"E  c #9C4B2B",
"W  c #9C5C2A",
"Q  c #854B37",
"!  c #984E33",
"~  c #8B5638",
"^  c #9D5234",
"/  c #97563A",
"(  c #AA4624",
")  c #A34B25",
"_  c #A44D2B",
"`  c #AA4D2B",
"'  c #B24325",
"]  c #B84D25",
"[  c #B44628",
"{  c #B64A29",
"}  c #B94D2B",
"|  c #AC5224",
" . c #A4512D",
".. c #AA5528",
"X. c #AC532C",
"o. c #B6572B",
"O. c #B1542D",
"+. c #BC512C",
"@. c #A74C33",
"#. c #B1413C",
"$. c #A45332",
"%. c #AD5431",
"&. c #AD5934",
"*. c #A45938",
"=. c #AC5B3B",
"-. c #B25432",
";. c #B35A34",
":. c #B45D3A",
">. c #B85D39",
",. c #966631",
"<. c #A56525",
"1. c #AC6B25",
"2. c #B76729",
"3. c #B77625",
"4. c #A9643B",
"5. c #B5623D",
"6. c #B9623E",
"7. c #B4683A",
"8. c #AF7733",
"9. c #C47A15",
"0. c #C55A26",
"q. c #C35A32",
"w. c #CC6628",
"e. c #D36927",
"r. c #DB7427",
"t. c #CE7B33",
"y. c #E67D26",
"u. c #8B4B4A",
"i. c #8B5645",
"p. c #975846",
"a. c #955D4B",
"s. c #A65B42",
"d. c #AF524C",
"f. c #B55B47",
"g. c #9A624A",
"h. c #8B6354",
"j. c #966556",
"k. c #9F705C",
"l. c #AB6545",
"z. c #B56443",
"x. c #B96543",
"c. c #B46B45",
"v. c #BA6946",
"b. c #B66649",
"n. c #B56B4B",
"m. c #BB6B4B",
"M. c #B7734B",
"N. c #A46957",
"B. c #B86E52",
"V. c #AB7552",
"C. c #BB7254",
"Z. c #B87855",
"A. c #BC755A",
"S. c #BD795C",
"D. c #A35B64",
"F. c #947470",
"G. c #9B7675",
"H. c #AB7367",
"J. c #B47A64",
"K. c #BD7C63",
"L. c #CE794B",
"P. c #C17657",
"I. c #C27B5D",
"U. c #C27D61",
"Y. c #BC8A36",
"T. c #D48C0F",
"R. c #CF8A2A",
"E. c #C59A38",
"W. c #EB8D2C",
"Q. c #ED912E",
"!. c #F29D31",
"~. c #D3AB38",
"^. c #F8A534",
"/. c #FAAA36",
"(. c #E1B93A",
"). c #B8865A",
"_. c #AE8060",
"`. c #BD8369",
"'. c #A99063",
"]. c #BC8874",
"[. c #C5855C",
"{. c #D58C51",
"}. c #E49A4C",
"|. c #D8B954",
" X c #C48265",
".X c #C98967",
"XX c #C4856B",
"oX c #C6896E",
"OX c #D09567",
"+X c #D5976D",
"@X c #C28772",
"#X c #C58B73",
"$X c #CA8D73",
"%X c #CD9176",
"&X c #CC937B",
"*X c #D59875",
"=X c #D5B16E",
"-X c #DCA27B",
";X c #E7C94D",
":X c #ECDA6E",
">X c #F5E473",
",X c #054D93",
"<X c #2F538A",
"1X c #0D5CA6",
"2X c #1766AC",
"3X c #0668B5",
"4X c #086CB0",
"5X c #176CB7",
"6X c #2971AC",
"7X c #505C86",
"8X c #556189",
"9X c #7A6E83",
"0X c #646AA2",
"qX c #1B7AC3",
"wX c #2579C2",
"eX c #917288",
"rX c #348CBC",
"tX c #4F8DB8",
"yX c #7089AC",
"uX c #1B87CD",
"iX c #0F8DD3",
"pX c #1C9FDB",
"aX c #3096CF",
"sX c #269BDB",
"dX c #03A6E9",
"fX c #01ADF1",
"gX c #25A6E9",
"hX c #2CA9E8",
"jX c #4B9BD0",
"kX c #55A2CB",
"lX c #A8A29E",
"zX c #CE9883",
"xX c #D29B84",
"cX c #D29F8A",
"vX c #D6A38A",
"bX c #D4AA97",
"nX c #E4AA86",
"mX c #E9B38D",
"MX c #F0B989",
"NX c #ECB895",
"BX c #F2BD99",
"VX c #D9BAAA",
"CX c #F5C29C",
"ZX c #EFDD90",
"AX c #F7EC91",
"SX c #DFC8B1",
"DX c #E4C4A6",
"FX c #FACAA5",
"GX c #FFD2AC",
"HX c #FDF7B0",
"JX c #9AB3C4",
"KX c #FFFFCE",
"LX c #FFFFE1",
/* pixels */
"bXxX XC. X[.B.b.B.I..XoXXXI.I.U. XK.XX@XXXXX XU.U.$XXXb.`.vX$X.X XP.C.n.f.7.v.A.%XcX&X.X X%X%X.XU.&X#XA.C. XXXO.l.vXcXU.",
"zXC.&.X.%.X.` X.%.X.-.O.%.&.:.x.z.;.&.-.X.-.O.X.%.-.%.m / B.z.-.&. ._ _ ` ` X.X.;.7.>.>.>.;.&.=.&.;.%.@._ %.X.k f.XXB.U ",
"@X5.%.X._ ) ` O.-.-.O.O.-.:.b.M.m.z.;.-.-.-.O.-.-.-. .h ! B.f.X. .E U _ X. .X.X.-.;.;.-.-.-.O.-.-.-._ )  .X...S ^ 7.;.U ",
"oXm.;.O.X.` X.%.O.%.O.-.-.z.v.v.6.z.:.;.;.-.-.-.O.-.&.P l.U.z.X._ _ _  .X...X.X.-.:.:.2.-.;.-.-.-.%.@._ X.O.%.Y m $.2. .",
"zXI.;.| ` ` ` X. .X.X.X.;.x.b.5.-.;.5.5.&.O.-.O.O.O.` m *.C.f. ._ ) _ ..X.X.X.X.&.:.>.-.-.;.;.-.X._ ) ` X.o.O.I Y 5.5._ ",
"zXI.>.X.X.X.X.X.X.X.| X.;.x.6.2.2.;.;.;.-.O.-.O.O.o.$.h E x.:.X._ _ X.X.X. .X.X.-.f.z.;.;.;.-.X.` _ _ X.| O.O.E T l.z.E ",
"$XP.;.-.X.X... .` | X.%.;.:.>.-.&.;.-.-.O.-.-.-.O.O.@.j @.P.;. ._ _ ..X.X.X.O.O.-.:.6.>.;.-.-.$._ _ ` X.X.O.%.P j &.5. .",
".Xx.;.X...X.X.X. .X.X.O.-.z.6.;.-.-.;.-.-.-.-.O.{ o.$.1 R z.&.) X.| O.O.O.;.-.O.-.-.;.-.O.-.X. .E _ | O.O.O.@.P h &.6. .",
"$XP.-.{ X.X.X.X.X.X...o.>.5.>.;.-.-.-.-.;.;.O.O.X.O.@.m *.m.&.` O.X.X.X.| O.X.%.O.X.-.-.%.%._ I I _ X.O.O.O.O.P ^ B.v.) ",
"$XB.;.-.O.O.X.X...X.O.-.5.6.:.;.-.-.-.-.;.-.O.O.O.O.%.I =.C.:.O.-.X.X.X.X.X.X.X.X.` ` X. .E Y I _ X.O.X.O.O.X.S Y b.z._ ",
"zXI.6.;.>.-.;.-.O.;.O.;.6.x.6.5.;.>.;.;.;.;.-.;.o.-.-.K E b.z.>.>.-.X.X.X.X.O.X.` ` ` _ T Y R _ X.-.-.O.X.-.%.P K 5.5. .",
"@Xn.&.X.$.$.$._  . . .X.&.*.&.*.%.%.$.&.-.%.W U ` @.M , m f.=.$.=.$.I E _ _ _ _ E _ E E I I I ) _ @._  ._ X. .m L l.=.I ",
"@.d > ; * * ; % # = d j 1 > - - - % = 3 1 A T.E.E.~.E.Y.K d - @ @ & @ & = : : : : > < 1 1 1 , : & * * : d , ; + # = * % ",
"].j.Q 5 y i.8 i.a.a.g.p.Q - ; < 7 Q ~ <.).:XZXHXHXHX:X~.E.8.L y i.a.i.N.N.a.~ a.g.5 ; 5 L L / p.a.a.a.a.g.~ Q i.j.a.i.i.",
"VXzXK.K.XX@XoX$XzXzX&X&XI.j p.`.K.).=XZXHXKXLXKXHXAX;X(.;X;XE.c.].`.XX%XOX{.}.=X}.r.2.Z.Z.J.oX$X$X&X&X&X%X X X#XzX&X#X`.",
"cXU.b.C.[.`.I.S.K.K.U.U.B.d n.OX|.>XAXHXZX:X>XAXHXAX>X;XE.(.(.Y.4.l.P.t.!.!.Q.)._.t.Q.}.{.[. XC.B.A.U.S.I.A.S.U.K.S.S.B.",
"P...M.P.+XnX-X.XM.| F D A ; ,.).|.|.;X(.T.Y.|.ZXAXAX:X;XE.Y.R.T.1...9.W.W.M.H.G.N.w.!.^.Q.W.w.F D D D ) ` ` | | | D D S ",
".X;.c.V.Z. X*XmXNXnX.X).'.rXjXsXlX`.<.3.R.3.3.Y.|.AX:X~.3.G J 1.1.1.2.r.L.$X+XL.r.W.^.^./.^.!.R.2...` ` X.X.O.$.O.O.;. .",
"$X>.S A  .U A S +XGXFXFXVXgXfXdXJXCX_.<.1.J J H G R.;X(.Y.W 1.1.1.J 7.t.+X{.L.W.^./././././.^.!.W.&. .X.X.X.%.%.-.-.X. .",
"oX5.X.W *.W ,.,.,.nXFXNXzXqXqXqXyXmXnX).<.3.J R.1.1.T.Y.R.3.<.1.J J 1.M.t.9.y.^.^.!./././././.!.r.w.( ` O.X.-.-.-.O.X._ ",
"$X6.>.5.&.U $.).=XmX*X[.k.<XqX3X8X7..X+XM.<.1.J J 1.J J T.Y.H J 9.4.9XyXtXyXZ.W.Q.W.r.W.W.W.Q.W.W.0.g ) X.X.O.-.-.X.X._ ",
"$Xx.v.v.>. .U *.N.).C.c.~ t <X<Xy | 4./ W L ^ 3.3...1.J <.J T.J H F.jXdXdXpXiXF.F 0.0.0.} q.r.y.e.} x M X.X.O.O.X.X..._ ",
"$XM.v.6.>. .U S S S  .X.^ 3 K *./ &.&.L W G W <.G A H H H 8.8.1.).NXSXJXhXaXuX8Xl Z q.q.Z Z q.w.e.+.c f _ ` X.X.X.X... .",
"&XC.v.>.-.$.7.v.6.7.5.c.*.; j 7.%.&.g.8.8.Y.9.8..X*X-X+X=XmXNXmXmXGXGXDXkXiXwX2XC { B ' } Z Z q.0.} B g M ) X.O...X.O. .",
"&XP.5.%.X.&.[.OX-XmX-XOX.XV._..X4.p aXkXtXbXMXCXCXCXFXFXGXGXGXGXFXGXGXNXyXqX6X1Xe ' Z ' q.Z c q.' N B Z B ` -.-.X. .X.T ",
"$Xx.>.-. .) 4..X-X-XCXCXFXFXFXFXmXzXkXfXdXJXGXGXGXFXBXBXCXFXNXnXBXFXnX+X9XqX6X,Xw v Z Z Z B [ } Z g B ] B ` :.;.O.` X.) ",
"J.~ L L K / ).).)..XnXCXFXGXGXFXFXvXkXiXpXJXCXFXCXCXFXNXnXCXmX.X-XnX.X7.y 2X4X9 2 s s s s [ q.[ B z Z v n L ! R L E T K ",
"6 X   X + 7 W ~ V. X).-XnXnXmX-XOXV.7X3X4Xp  XOX-XnXnXnX.X*X-X+X[.).c.*.y 9 t q z D Z B Z v [ } a n e u r 3 d > - ; ; $ ",
"H.H.G.N.N.N./ l.4./ V.{.4.W c.7.*.U i u u u. .=.c.c.c.4._ 4.c.c.l.$.S ) ! u.v B B g x Z x a x n q <X,X1X,XF.S.Y 5 g.g./ ",
"VXbXvX%X.XI.L.c.M.Z.Z.y i p p p i b F w.v Z { ` D k k ( g c ( ( ` { +.+.} +.+.+.Z z Z B s x Z n w 0 9 ,X,XG. X;.n.xXxX[.",
"&XI.l.u.9XeXD.P.@./ u t p g.g.g.p w c q.Z z v N g g [ +.[ Z +.+.+.+.+.+.+.+.+.} { } } Z B [ { 0.z g 6 q t i.-.T *.C.m.=.",
"oXm._ M i rXaXsXiXuX4Xt i ! D D R e s x c 0.r.+.Z N c B ' { +.+.+.} +.} +.+.+.+.} +.} } q.} } q.Z Z C M s k _ K P X.&.U ",
"oXv. ._ k i uXgXgXgXpX6Xu y <.$.u.y 2 z c q.y.r.e.0.0.Z B { 0.+.+.} } } } } } +.+.+.+.} +.+.+.} { } } } B M T K P &.5. .",
"K.-. .E _ S y 6XuXgXgXuX<Xu 8Xu u u 6 q.0.x B 0.e.e.0.] { } Z ' } q.} B N N x [ +.+.+.+.+.+.+.+.+.+.+.} B I _ Y Y :.5.E ",
"U.z. .) _ ` v 5 t 2XuX5X2Xt u y u./ g [ e.e.0.Z x s s z Z q.[ c B [ } } [ x z c ' } } +.} +.+.} +.+.+.{ M I ` ( ^ b.5.E ",
"&XB.$.) ` ` ` ` d y 1X3X1Xy F -.>.+.n s ' 0.0.0.0.[ Z x c [ } } Z B B ' { } +.} Z N ' { +.+.+.+.+.+.+.[ k E -.E I x.7. .",
"@Xb. .` ` ` ` ` @.U 6 t t 8 2.O.@.u.w b c V x Z V Z } [ } [ Z { q.' Z Z c Z ' } } [ B B [ { +.+.+.+.+.Z M %.;._  .c.6...",
"#Xx.X.( ` ` ` ` ` `  .I A D d.9X0X5X<X2 g Z 0.Z V V [ } q.} Z g f g f B Z z s f Z [ } { B N B ' [ } [ C ` ;.:.%.&.m.6.) ",
"oXm.X.` ` ` ` ` ` &.:.>.f.eX6XsXqXqX2Xe l V q.} q.q.} q.} [ x s a f M M C ( k s s g C Z Z B s a a g C -.5.6.5._ K $.;. .",
"`.n.&.X.` ` D ..X.0.>.F.F.jXfXsXwX2X2Xw z V Z q.0.Z } [ Z } Z B _ X... .X. ._ ` :.B.f.@.C N M k N @.f.x.z.>.6.^ Y f.v. .",
"].n.%.$.#.#.d.f.f.eXyXaXaXtXaXqX5X5X1X7Xa Z [ [ B Z } Z ' { C _ &.-.-.X.%.-.%.;.m.P.m.5.&.;.;.-.x.m.m.z.>.>.5._ ^ C.v._ ",
"*.d > , 1 y 0XjXjXpXdXgXgXjXu 2X4X5X5X<Xb Z q.V B [ z s k z j h h 1 1 1 h 1 j j E ! R 1 1 K U U W R 5 > , Y Y 1 > j h > ",
"H.i.8 7 8 m 8XiXdXgXgXgXaXuXt <X3X1X,X,Xe l x Z } C m 6 / l./ L L 7 3 3 7 4 Q / R 4 @ * 5 ~ ^ *.R L < 3 8 L K < 7 ~ Q 7 ",
"VXcX#X@X@X].H.h.7X5XqXuXuXuX4X<X7X9XG.G.D.d.s V B d.@X&XcXxXU.A.`.K.K.].].`.#X$XK.) L H.&X#XXXU.S.S.Z.XX#XS.4.l.S.$XXXA.",
"bX#X X XoX$XoXC.l.y u 1X4X5X1Xp Z.K.XXU.K.A.f.f.f.m.U.XXoXU.v.m.A.U. XoX.XXXXX XC.) s.#X%X XU.I.A.I.I.XXXXI.m.M.C.I.I.m.",
".X-.D O.:.v.m.m.m.=.K 6 t r t k.6.-.;. .) X.&.>.;.O.X.X.` X._ ` | X.| | | X.| ;.&.h ! C.z.X.O.O.-.-.o.O.X.-.o.-.-.O.X._ ",
"$X;.O.>.x.v.7.:.-.-.;.%.K ; / K.v.6.>.&.X.>.x.x.>.-.-.{ %.X.X.@.-.} O.| o.{ X.;.:.m R n.6...;.;.%.O.-.{ { X.;.;.%.;.O.X.",
"%Xx.5.m.v.f.&.%.X.X.-.;. .4 ! m.f.:.:.&.:.x.b.x.&.-.&.-.-.%.-.-.-.;.-.-.&.;.;.>.;.h R M.c.;.;.;.;.;.-.;.-.;.;.-.;.;.>.$.",
"&Xm.x.x.;.X. .X.X.-.-.-.^ > h ` X.X._ _ X.;.>.>.-.-.-.-.-.-.-.-.-.-.-.-.-.-.-.-.%.S p.I.m.X.-.-.-.-.-.-.-.-.-.-.-.-.;.$.",
"&Xn.5.>.%.%.X.X.X.-.-.-.$.> m :.$.E _ _  .X.-.&.-.-.-.-.%.@.-.-.-.-.-.-.-.-.-.-.%.D f.S.x.-.-.-.-.-.-.;.;.-.-.-.-.-.-.%.",
"%Xb.-.-.-.-.%.X.O.-.-.-.$.1 / S.:.` ` ` O.&.;.-.-.-.-.%.` ` %.-.-.-.;.%.-.-.-.-.&.Y R z.:.-.-.-.-.-.-.-.;.;.-.-.-.-.-.%.",
"$X:.-.-.-.-.O.-.-.-.-.;.^ 1 =.U.x.O.-.O.O.;.;.;.-.-.-.%._ ) _ -.;.>.>.:.-.-.-.-.&.K K :.>.-.-.-.-.-.-.-.-.-.-.-.-.-.-.` ",
"%X6.-.-.O.O.O.-.O.O.-.>.^ > Y x.;.X.-.O.X.X.-.-.-.-.%._ _ ) _ ` -.;.5.5.-.-.-.-.-.T ^ m.f.O.-.-.-.-.-.-.-.-.-.-.-.-.-.` ",
"$X5.O.X.O.X.X.O.X.X.X.5.^ > K z.&...X._ _ _ ` $.%.` ) E E ` _  .` X.;.&.%.-.%.%.X.L Y 7.6.-.@.-.-.-.-.-.-.-.-.-.-.@.-.` ",
"%Xv.-.;.-.X.;.O.%.-.;.6.@., s.K.>.` `  . .X.X.` ` _ _ _ ` O.X.-.O.X.X.%._  .X.-.-.m 1 z.L.{ >.;.-.-.-.-.-.-.-.;.-.>.;.X.",
"`.^ ! E  .E I T R R ! ! K > ! f.! j Y P P L Y Y K L m P I E E R E E P K 5 K R E R 3 5 =.=.R ! R Y L R R R E _  ._ ^ ^ Y ",
"Q + + ; : ; $ X . X X X .   & = & & * & + o o @ + + + O $ # & @ # * & + o + & * $ + * d : @ o . .   o & @ # = < - $ $ O ",
"H.j.a.g.l.p.~ i.h.h.h.j.j.a.H.H.N.N.N.a.h.i.j.g.a.p.i.5 Q N.N.g.N.N.p.p.a.j.N.p.p.p.N.A.N.p.h.j.F.h.H.H.N.N.A.P ; 7 i.Q ",
"VXcX%X$XoX.X X$XcXxXxXxX%X$X&XcX%XXX.X XoX&X&XzX$XXXU.` m.&XoXXX$X.XXXXX$X$X$XoXU.oX&X*XoX X$XxXxXzXcXxX$XXXXXR m `.&XU.",
"zX Xn.M.B.m.m.B.A.A.A.C.c.c.n.b.5.f.:.z.c.B.Z.B.n.x.=.k s.U.v.7.c.z.z.b.m.x.b.c.m.b.P.b.L.f.P.m.B.B.B.l.s.*.^ < 5 A.U.m."
};
