/* XPM */
static char *result[] = {
/* columns rows colors chars-per-pixel */
"60 60 252 2 ",
"   c #000100",
".  c #1A0301",
"X  c #2B0300",
"o  c #360401",
"O  c #3E1C0A",
"+  c #470400",
"@  c #570401",
"#  c #491E0D",
"$  c #581603",
"%  c #650501",
"&  c #720900",
"*  c #661602",
"=  c #761902",
"-  c #5C230A",
";  c #572816",
":  c #662608",
">  c #722403",
",  c #782905",
"<  c #76300F",
"1  c #632A13",
"2  c #6C2D15",
"3  c #6C331B",
"4  c #74341B",
"5  c #793518",
"6  c #7C361B",
"7  c #4E2A3E",
"8  c #6E372B",
"9  c #7A3B22",
"0  c #78412B",
"q  c #784B37",
"w  c #153976",
"e  c #6A3647",
"r  c #553E65",
"t  c #00437C",
"y  c #5F4957",
"u  c #774F50",
"i  c #4F4A74",
"p  c #7F566E",
"a  c #726D77",
"s  c #961F16",
"d  c #842900",
"f  c #873509",
"g  c #9B291B",
"h  c #843A1C",
"j  c #883A19",
"k  c #943113",
"l  c #A52E18",
"z  c #A6331F",
"x  c #8A1B23",
"c  c #892A2F",
"v  c #823C22",
"b  c #8C3E22",
"n  c #993923",
"m  c #A63922",
"M  c #AC3B22",
"N  c #B23B21",
"B  c #96471C",
"V  c #904D1D",
"C  c #B34E09",
"Z  c #A64B1C",
"A  c #B56207",
"S  c #BC781C",
"D  c #8C4224",
"F  c #85452A",
"G  c #8C452B",
"H  c #934424",
"J  c #9A4625",
"K  c #974827",
"L  c #9C4925",
"P  c #94462A",
"I  c #954B2C",
"U  c #9C4C2B",
"Y  c #9B552B",
"T  c #864B37",
"R  c #944E33",
"E  c #9B4F31",
"W  c #885135",
"Q  c #9C5235",
"!  c #9A5639",
"~  c #A54624",
"^  c #A44A25",
"/  c #AB4D23",
"(  c #A44D2B",
")  c #AA4D2A",
"_  c #B54727",
"`  c #BA4E2B",
"'  c #AD5025",
"]  c #A4512C",
"[  c #AC532C",
"{  c #A65C28",
"}  c #B1542D",
"|  c #B95429",
" . c #A34D34",
".. c #A45333",
"X. c #AD5431",
"o. c #AD5934",
"O. c #A4593A",
"+. c #AC5B3B",
"@. c #B25532",
"#. c #B25A34",
"$. c #B95B37",
"%. c #B35D3A",
"&. c #9A6137",
"*. c #A76627",
"=. c #AB6A25",
"-. c #B36B27",
";. c #AE762B",
":. c #B37122",
">. c #B97C2A",
",. c #A86539",
"<. c #B46935",
"1. c #B5613D",
"2. c #B9623E",
"3. c #B77539",
"4. c #D66F16",
"5. c #E47F16",
"6. c #C75A27",
"7. c #C05630",
"8. c #CC6426",
"9. c #D56C27",
"0. c #CD752D",
"q. c #DA742A",
"w. c #DE7B29",
"e. c #E37F2A",
"r. c #8D3849",
"t. c #895745",
"y. c #965A44",
"u. c #955D4A",
"i. c #8E5350",
"p. c #A85E42",
"a. c #B25A46",
"s. c #9B614B",
"d. c #8B6356",
"f. c #926252",
"g. c #986858",
"h. c #AB6347",
"j. c #B56443",
"k. c #B96542",
"l. c #B66846",
"z. c #BA6946",
"x. c #B76649",
"c. c #B66B4C",
"v. c #BB6B4B",
"b. c #A7754E",
"n. c #B47349",
"m. c #BB724D",
"M. c #A66A57",
"N. c #B46E55",
"B. c #BA6E50",
"V. c #AC7257",
"C. c #B67657",
"Z. c #BC7354",
"A. c #BC755A",
"S. c #BC795D",
"D. c #936D72",
"F. c #AD6F6C",
"G. c #A97667",
"H. c #B37967",
"J. c #BD7C63",
"K. c #C9754E",
"L. c #C07354",
"P. c #C3785A",
"I. c #C27A5D",
"U. c #C27D61",
"Y. c #CD7769",
"T. c #C07D6D",
"R. c #B78A31",
"E. c #EC8C10",
"W. c #C38B37",
"Q. c #D48D32",
"!. c #E7862B",
"~. c #EB8C2C",
"^. c #EE942D",
"/. c #F2952D",
"(. c #F59D2B",
"). c #E58932",
"_. c #EC9833",
"`. c #F49D32",
"'. c #D1A338",
"]. c #F9AA29",
"[. c #F6A234",
"{. c #F9A434",
"}. c #FBAA36",
"|. c #F7A53A",
" X c #FCAD38",
".X c #BA8355",
"XX c #998271",
"oX c #BB8368",
"OX c #B28C6F",
"+X c #C58657",
"@X c #CD9451",
"#X c #D2A845",
"$X c #F2A654",
"%X c #C48265",
"&X c #C88265",
"*X c #C4856B",
"=X c #C6896D",
"-X c #C9886A",
";X c #C9946B",
":X c #C28672",
">X c #C58A72",
",X c #CA8D73",
"<X c #D18970",
"1X c #C79677",
"2X c #CD9176",
"3X c #CD937B",
"4X c #D49977",
"5X c #D1A370",
"6X c #E8AB70",
"7X c #E4C247",
"8X c #09599B",
"9X c #2F5A97",
"0X c #036BB1",
"qX c #2D73B4",
"wX c #4A528A",
"eX c #6A5C85",
"rX c #566E9A",
"tX c #6E798E",
"yX c #4D6FA1",
"uX c #097DC6",
"iX c #357FC1",
"pX c #887786",
"aX c #3886B9",
"sX c #758896",
"dX c #538DB4",
"fX c #6093AC",
"gX c #0A8ECE",
"hX c #0098D7",
"jX c #2996D5",
"kX c #05A9EC",
"lX c #1AA3E3",
"zX c #23A7E9",
"xX c #5297C7",
"cX c #46A4C3",
"vX c #958887",
"bX c #9CA09D",
"nX c #97A7AB",
"mX c #CA9883",
"MX c #CE9983",
"NX c #D19B84",
"BX c #D29F8A",
"VX c #D5A28B",
"CX c #D0AF8F",
"ZX c #D7AD9B",
"AX c #E3AA88",
"SX c #E8B28C",
"DX c #E7B593",
"FX c #F5BC93",
"GX c #DDB5A5",
"HX c #EEBFA0",
"JX c #F6C49B",
"KX c #FACAA5",
/* pixels */
"ZXMX%XA.I.%Xv.v.B.U.-X=X*XI.P.%X%XS.*X>X%X*X%XU.U.>X*Xh.:XVX,X&X%XP.Z.l.j.j.k.P.2XMX3X=X&X2X3XY.%X3X2XL.A.%X*X[ x.BXMXI.",
"MXZ.o.[ o.[ ) [ [ @.} [ X.#.1.k.j.#.o.X.@.@.@.[ } #.X.b ! B.j.#.o.] U ( ) ) [ [ #.1.1.$.#.#.#.+.#.#...( ) X.} k h.*XN.( ",
"*X1.[ [ ) ( ) [ @.@.} } @.#.x.c.v.j.#.@.@.@.} @.@.@.] h E Z.j.) ..U U / [ [ ] [ @.$.#.#.X.@.@.} X.X.( ( ] [ [ L Y 1.} U ",
">Xv.#.} [ ) [ X.[ } @.} #.j.v.z.2.j.%.#.@.@.@.@.} @.X.H p.U.x.) ( ( ~ ) [ [ { [ @.#.#.<.#.@.@.@.@.X.( ( [ } [ P D X.#.] ",
"MXP.#.' ] ) ) [ [ { [ [ #.z.z.<.#.#.<.#.#.X.@.} } } ) j O.Z.j.] ] ^ ] { [ [ [ [ @.%.#.#.#.#.#.@.[ ] ( ) [ } } L P j.1.( ",
"MXU.#.} [ [ [ [ [ ) ) [ #.2.2.#.#.#.#.#.@.@.@.} } @. .h U k.%.] ( ( [ ] [ ] [ [ #.%.k.$.#.#.@.X.( ( ~ [ ' } @.L K h.1.Y ",
",XL.#.@.[ [ [ ] ) [ [ X.#.$.#.#.#.#.} } @.@.@.@.} | ( b ..L.#.( ^ [ [ [ [ [ [ @.@.%.k.@.} @.@.X.( ( [ [ [ } [ P j X.1.Y ",
"U.K.#.{ [ [ [ ' ] [ [ } #.1.2.#.} #.#.#.@.@.@.} } }  .h R k...) ] [ } } } } #.} @.@.#.#.@.@.[ ( U ( ) | ' [ X.P h o.1.] ",
">Xv.#.@.[ [ [ [ [ [ [ } 1.2.2.#.@.@.@.#.#.#.@.} } } X.b Q v.o.) } [ [ ' [ } [ X.} X.@.@.@.[ ( K K ( [ } } } } B  .B.z.^ ",
">XL.#.@.} [ [ [ [ { } } 1.2.$.o.X.@.@.@.} #.@.} ' } [ H O.P.%.[ @.[ [ [ [ [ [ [ [ ) ) ) ( U P K ( [ } [ } } [ b P x.j.( ",
"MXI.$.$.$.#.#.#.} } } #.2.2.2.$.@.$.@.$.#.$.@.@.} #.X.b U k.k.#.%.#.) [ [ [ [ [ ) ) ( ( U G K ( [ $.@.} [ #.X.D D 1.1.] ",
">Xc...X.X.] ..] ..] [ [ o.O.o.+.o...X.X.X.@.o.@.} X. .h P a.+.O.o. .U ( ] ) ( ) L ( ( U J K L ) ( (  .( ( [ ..b G h.o.K ",
" .d 2 : * * : @ @ & d j h 1 ; ; - * % < h 5 j b b b 5 $ * , % @ @ % @ % & , > > , 3 3 5 5 < f * % * * > , f : + @ = * * ",
"OXM.T 0 q u q t.u.g.s.y.T 1 - 3 8 T t.u.T T W R Q ! R T i.g.t.q t.u.t.g.M.u.W y.s.6 : 6 F F ! u.u.u.u.u.u.! T t.f.u.t.t.",
"GXNXU.A.=X>X,X,XmXMX3X2XA.j p.oXoX*X3X*XI.S.U.A.A.P.Z.U.,XMXmX3XmX3X*X3XMX*X>XmX3X] U C.J.oX=X,X,X3X3X3X3X*X%X,XMX3X:X*X",
"VXT.x.A.P.U.U.U.U.J.U.U.N.f h.3X%XU.I.c.v.Z.Z.v.v.z.l.B.A.oX:XoX*XU.Z.P.P.L.J.*XJ.H R oX%XI.I.Z.B.A.J.P.A.A.A.U.U.J.A.N.",
"P.' ' ) ' / / / Z / ' } K 2 ! A.x.#.#.[ } ) } } } _ @.) ) / Z _ / / } } ' } ' ' / j R A.m.$.} / ^ Z Z Z ) [ ) ) Z / Z B ",
"%X%.} } @.#.} } @.@.[ [ K 2 ! %Xv.#.$.} @.@.@.@.@.X.X.@.@.@.} } } @.@.#.#.@.@.} [ b ! P.c.} } [ [ [ ^ ) [ [ } [ @.[ } ) ",
",X2.} #.#.%.#.@.$.@.X.o.K 2 h.I.k.@.#.#.@.@.@.@.X.X.X.@.@.@.@.@.@.@.@.@.#.#.@.$.+.h I v.2.[ ` } } } [ ) ' [ X.o.@.@.[ ] ",
",X1.@.%.1.$.#.@.@.@.X.[ U D p.L.#.[ #.#.@.@.@.@.@.@.@.@.@.@.@.@.@.@.@.@.} @.@.@.@.h I j.#.} } } } } [ [ [ [ @.@.@.} ' Y ",
"-X2.%.2.2.$.o.[ ) @.@.@.( b ,.L.#.#.#.%.#.@.@.@.@.@.@.} @.@.@.@.@.@.@.@.X.X.X.@.X.b R j.#.} } } } } ) ) [ [ @.@.@.[ [ ] ",
",Xz.z.z.%.X.) U ( [ @.@. .v  .z.#.#.2.#.@.@.@.@.@.@.@.} [ } @.@.@.@.@.@.X.[ X.@.@.J E k.#.} @.@.@.} ) ) [ ] } [ [ [ { ( ",
",Xm.z.2.#.X.U ( ] [ X.#...6 n $.o.#.$.#.@.@.@.@.@.@.@.@.@.#.#.@.@.@.@.@.X.X.@.@.X.L P +.o.) @.@.@.@.[ ) ) ) [ [ [ [ } ) ",
"3XZ.z.#.@.( ( [ [ @.%.v.O.2 P k...[ X.@.} X.@.@.@.@.@.#.#.j.#.@.@.@.@.@.@.@.[ @.[ 9 5 ] o.) ) } } } ) / ~ ) ) } { [ [ ] ",
"3XL.1.X.[ ) ) [ [ %.v.L.o.2 Q B.o.[ X.[ ] ( [ @.@.@.X.@.#.#.@.@.@.@.@.} @.@.@.} ) 4 h +.X.^ [ } } [ [ ' [ X.@.@.[ [ [ L ",
",Xz.$.X.] ] X.#.#.k.v.k...4 P L.k.1.$.#.[ X.[ [ @.@.$.$.@.#.#.@.#.#.#.#.@.@.@.#.X.9 D %.#.) [ @.} } X.#.#.#.%.#.X.[ [ U ",
"H.R T F v D I I R O.! R 0 ; 9 O.! Q U U K P P K P R R E U E E E ] ] ( K U U I U I 3 v [ ( H U K K I P G G I I I P K K D ",
"8 X   o + $ 1 $ : - O .     % d * > j 6 2 - : 1 $ $ @ - 1 3 4 4 6 v 9 2 < 2 - 2 4 * h o.U j f , > , > % % , f 1 - - : # ",
"H.G.XXg.M.M.y.! p.R F t.f.g.H.>XH.N.c.O.Q ! h.s.! g.g.b E ! Q E  . .B R O.Q R p.h.M.J.=XZ.B.V.V.C.H.V.V.H.*XU.K F y.s.! ",
"ZXZXVX3X3X%XI.%XU.A.U.,XNXBXVXVX4X-XZ.j.v.A.%X%X>XNX,Xj.B.A.L.B.B.x.j.v.Z.v.B.I.A.I.&XY.P.Z.I.,XMX2X&X-X3X3X&X#.c.BX4X%X",
"MXJ.j.a.a...o.%.#.%.+.a.j.h.+.+.O... .X.#.#.#.k.c.v.j.I p.x.#.X.#.#.%.#.o.X.#.#.%.2.1.[ X.] X.%.j.#.%.+.+.#.o.J Q Z.v.o.",
"=Xv.] Z L J U ~ ~ / ) ~ ~ ~ B J L ^ [ [ [ ' o.k.k.#.) D  .#.[ ) [ } @.X.} } ) [ @.o.[ ^ ^ K ( ) X.X.@.@.[ [ ( b H X.o.U ",
"=Xk.] U J U ) ) ) ) ) ) ) ) )  .] [ } } } @.1.z.k.#.o.D U #.X.} } [ [ [ ) ) ) ) ) ( K P L L ( [ @.@.@.$.X.( U b D +.1.( ",
"U.#.( U ( ) ) ) ) ) ) ) X.} @.[ [ } @.} } #.2.j.#.#.] D K %.@.[ [ [ ] [ ( ^ ( ) ) ( ( ( ( ) ) #.%.@.@.@.( ( ( P P %.<.] ",
"%Xj.] ^ ) ) ) ) ) ) ) X.#.#.} [ [ } #.#.#.#.%.%.@.#.[ D E k.[ ) [ ( ( ( ( ( ) ) ) ) ) [ [ X.X.a.a.#.@.X.( ( ) ~ E j.%.U ",
",XB...^ ) ) ) ) ) ) ) ) X.[ [ } @.%.%.#.#.<.1.#.@.@.E 6 K 1.@.[ [ ) ~ ^ ) / ) ) ) ) [ X.@.@.@.#.#.@.}  .U ( o.U K j.k.] ",
":Xl.( ) ) ) ) ) ) ) [ [ [ X.#.#.%.k.1.+.#.1.#.#.@.[ P 2 D #.X.[ [ ) ] ) ) [ ] ) ) [ [ X.@.} } @.#.#.X.X.) X.#.( ..l.1.] ",
">Xl.[ ) ) ) ) ) ) ] [ #.#.%.%.#.1.1.$.#.#.2.%.@.@.X.H 1 F 1.X.] [ [ { [ ' [ [ ' [ [ o.o.@.} } } @.#.} @.[ #.1.[ #.z.1.) ",
">Xv.X.^ ) ) ) ) [ X.#.1.1.#.@.} #.#.o.#.%.%.#.#.} [ H 1 G x.o.) [ [ [ [ [ [ [ { @.1.z.1.@.} } } @.#.#.$.1.k.1.] D O.#.( ",
"*Xl.X.[ ) ) ) [ @.#.k.2.#.#.} } #.#.#.%.%.#.#.X.@.[ U < p.I.%.X.X.{ [ X.[ ] [ X.k.Z.Z.k.$.#.@.@.%.k.z.k.2.%.2.E G j.2.[ ",
"oXx.X.X.) ( X.) %.x.j.o.X.[ ..X...,.3.3.<.3.<.o.[ Y K k h.S.A C X.[ [ X.X.[ [ ] v.A.n.<.<.#.#.%.l.v.v.1.%.$.1.] Q Z.z.] ",
"p.f 2 < 6 6 h h h 5 B L 6 F { { -.Q.`.`.`.`._.Q.>.V 3 8 W b.a a W F F F 5 4 V A A C V 0 < j L U Y K 9 3 5 H I 4 2 j h 2 ",
"F.u.q 8 9 T G T 8 Y Q.!.0.9.!.!./.{. X}.}.}.}.}. X[.Q.#X6XvXhXcXCXCXDXSX+X-..XsXsXsXq : 0 W O.Q I G 3 8 q F h 3 0 W T 8 ",
"GX<XT.:X>XoXY.L.C.m.^.{.{.{.(.(.(.(.{.{.{.`././.`.[. X X}.@X.X1X6XFXDXZXK.e.XXsXdXgXaXXX>X1X%XI.S..X.X@X;XC.1.j.J.=X:XC.",
"VXY.pXF.Y.Y.N.pXD.#.!.{.{.[.[./.~.~./.~.!.e.9.q.q.q.).).w.q.5.~.].E.D.0Xi.q.!.(.]..XnXbX;X+X+XW.+X;X#X#X'.+Xv.v.P.P.P.B.",
"Y.F.gXxXpXxXxXzXjXx !.(.!.~.~.e.9.6.8.9.!.~._._._._._._.[._.~.[.{.E.vXhXtX!.`.|.}.].].5X4X;X3.@XSXFX@X+XW.:.3.W.<.' } ( ",
"Y.a.xXkXxXjXkXzXjXc 9.e.6.M 6.6.z z 8.`.{.}. X}.}. X X X X X}.{.(.E.vXgXsXE.|.}.}.[.{.(.$XJX2X4XHXDX@X'.'.=.R.7X'.-.} [ ",
"MXM.xXkXdXiXgXgXiXc ` ` 6.w.4.| w.~.~.[.}.}.}.[./.[.`.`././././.!.4.pXgXyXA `.^.q.0.q.E.E.$X+X%XZX6X@Xl.R.R.*.R.R.;.<.X.",
"MXa.wX8Xi i wXwXi x m _ ). X`.[. X{.~.~.(./.e./.~.!.q.9.9.6.6.6.6.C p gXqXd e.8._ 8.w.OXbX@XW.U S.+X#X#XY *.S ;.#XR.-.{ ",
",Xa.r.r.i.L ^ B I t.c M w./.[.{.[././.e.4.q.8.6.e.q.6.` 7.` @.` 7.C p 0X9Xx 6.7._ 8.vXdXcXcXG.{ ,.O.=.>.=.*.=.*.-.;.o...",
">Xk.~ a.D.h.,.g.D.tXrXr.9.^.~.^.~.9.q.!.7.M _ ` ` 6.6._ _ ` ` ` 7.N i.8Xw x 7._ 6.i.tXmXCXnXtXV =.:.*.*.:.:.*.*.Y ..@.X.",
",Xa.X.b eXyXpXtXtXD.dXeX4.`.!.6.8.6._ _ _ _ N N M g m M N N ` _ N N R u i.g _ _ l M.ZXFXDX5Xp *.S S S :.:.:.:.=.Q X.@.) ",
",X2.o.d r 0XiXrXrXiXuXyX6.q.8.` M N M g z l l z g g g n m g g g n X.1.<.*.{ Z 2.I.AXKXHX;Xb.u S S :.=.*.*.*.*...X.@.@.) ",
"2X1.X.B e 9XuX9X8X0X8Xi 6.7._ N m s g g n n n ~ ( ) ..U n L [ z.<.[ X.g.tXsX1XAXSXSXFX6Xm.R Q =.:.*.*.&.Q ..} @.@.@.@.) ",
"3Xk.@.( h 9X8Xy y u T c _ _ z n g z m U ( [ X. .] ( ( ] 1.+X5XAXVX5XoXfXlXhXnXFXAX4X;Xm.,.@.$.#.{ ! o.{ X.@.@.@.#.#.#.X.",
"oX! E U j r e j b H R b n m m Q I b D H P D P P b F b U .X1XVXJXKXKXKXbXgX0XtXn.m.,.Y Q O.E R R G G G I I I .... .E E G ",
"T + + : > * $ X . X X X o X % = % % * @ + o o @ @ + o # 0 OX1X;X4X4X-Xd.t t 7 < < $ = k , + X . .   o % @ @ = 4 ; # $ X ",
"G.f.f.y.h.s.W t.d.d.d.g.f.f.M.H.M.M.M.u.f.t.f.g.u.y.y.8 G oXoXb.;Xn.! i.i.g.g.y.W u.V.S.N.u.f.g.g.d.G.H.M.M.N.P : 0 t.T ",
"GXVX2X<X,X-X%X3XNXNXBXBX2X=XMXBX,X*X&X&X=X2XNX3X2X*XU.) c.2X%X,X1X*XoX*X,X2X2X-X%X>X3X3X2X-X>XNXNXMXVXBX=X=X%XU b oX4X%X",
"mX%Xm.c.c.x.x.B.A.C.C.Z.l.x.x.l.j.+.j.k.l.N.Z.N.c.l.+.k h.U.z.1.l.j.x.l.l.j.x.l.z.v.x.v.z.z.v.v.B.N.N.h.h.Q Q 3 9 A.U.v."
};
