/* XPM */
static char *bd27fc51a5df4253c88d61bc35e79134zOShG3T6NzmmS8td[] = {
/* columns rows colors chars-per-pixel */
"60 60 246 2 ",
"   c #160D09",
".  c #2A0605",
"X  c #360A02",
"o  c #30150E",
"O  c #480806",
"+  c #500E0A",
"@  c #4A1804",
"#  c #571706",
"$  c #591614",
"%  c #661504",
"&  c #6F140A",
"*  c #691B14",
"=  c #5C240C",
"-  c #5B2815",
";  c #542A18",
":  c #672709",
">  c #752706",
",  c #7D330A",
"<  c #692A15",
"1  c #742914",
"2  c #6A321C",
"3  c #773519",
"4  c #7C351B",
"5  c #6D3824",
"6  c #743B27",
"7  c #7C3C24",
"8  c #76213F",
"9  c #7C422A",
"0  c #79483A",
"q  c #2F3A6A",
"w  c #532F4E",
"e  c #70324F",
"r  c #4B3971",
"t  c #234F7B",
"y  c #43465E",
"u  c #754D43",
"i  c #6F4953",
"p  c #4C4E70",
"a  c #744F6C",
"s  c #6B5376",
"d  c #776B76",
"f  c #941217",
"g  c #852B08",
"h  c #9A2809",
"j  c #853302",
"k  c #882C17",
"l  c #9A291C",
"z  c #883717",
"x  c #833B1D",
"c  c #973A1A",
"v  c #A43304",
"b  c #A32A19",
"n  c #A8371E",
"m  c #853D23",
"M  c #8B3E23",
"N  c #843729",
"B  c #9B3624",
"V  c #8F3538",
"C  c #A73622",
"Z  c #AD3624",
"A  c #A43B24",
"S  c #AC3C24",
"D  c #95480F",
"F  c #98441B",
"G  c #B0520B",
"H  c #A8471C",
"J  c #B7491D",
"K  c #B3531D",
"L  c #AF6907",
"P  c #854126",
"I  c #8C4225",
"U  c #8D452A",
"Y  c #8D482C",
"T  c #944425",
"R  c #9A4523",
"E  c #9B4827",
"W  c #944628",
"Q  c #954A2B",
"!  c #9C4B2B",
"~  c #864937",
"^  c #954D33",
"/  c #9B4E32",
"(  c #965233",
")  c #9C5336",
"_  c #94533B",
"`  c #A64427",
"'  c #A44C25",
"]  c #AA4C25",
"[  c #A44D2A",
"{  c #AA4D2A",
"}  c #B44425",
"|  c #B34927",
" . c #BC4D24",
".. c #BA4D2A",
"X. c #AD5125",
"o. c #A4512C",
"O. c #AC532C",
"+. c #A9592B",
"@. c #B7572A",
"#. c #B1542D",
"$. c #BC512B",
"%. c #A84C33",
"&. c #A45333",
"*. c #AD5532",
"=. c #AE5934",
"-. c #A55A39",
";. c #AC5C3B",
":. c #B25532",
">. c #B35A34",
",. c #B45D3A",
"<. c #B95C38",
"1. c #9F6136",
"2. c #B46E26",
"3. c #AB623B",
"4. c #B5613D",
"5. c #B9623E",
"6. c #B66F38",
"7. c #B97638",
"8. c #C95A1D",
"9. c #CF6B10",
"0. c #C65A24",
"q. c #C1562B",
"w. c #C55A2A",
"e. c #CC6324",
"r. c #CC682A",
"t. c #D46A26",
"y. c #DA7729",
"u. c #CD7334",
"i. c #E47D28",
"p. c #8F3E45",
"a. c #8B4A49",
"s. c #8E554B",
"d. c #995A45",
"f. c #A75C41",
"g. c #B35D46",
"h. c #99624C",
"j. c #9A6653",
"k. c #AD6244",
"l. c #AA6648",
"z. c #B46442",
"x. c #B96543",
"c. c #B46847",
"v. c #BA6945",
"b. c #B66B4C",
"n. c #BB6C4B",
"m. c #A8764C",
"M. c #B6724C",
"N. c #A86B55",
"B. c #BA6E51",
"V. c #AC725B",
"C. c #BC7354",
"Z. c #B67558",
"A. c #BB765A",
"S. c #BD795C",
"D. c #8B5666",
"F. c #967477",
"G. c #AD796A",
"H. c #B47B64",
"J. c #BC7D63",
"K. c #B77E69",
"L. c #C7744E",
"P. c #C27556",
"I. c #C17659",
"U. c #C27A5C",
"Y. c #C37D62",
"T. c #BB8530",
"R. c #CE8A0B",
"E. c #EC930E",
"W. c #D9B01D",
"Q. c #D68932",
"!. c #E68628",
"~. c #E89626",
"^. c #F4992E",
"/. c #E68C32",
"(. c #EC9634",
"). c #F39933",
"_. c #F6A235",
"`. c #F9A634",
"'. c #FAAA36",
"]. c #FEAE36",
"[. c #FBAD38",
"{. c #BB8257",
"}. c #B8826B",
"|. c #AC8F70",
" X c #B88673",
".X c #A49D79",
"XX c #CC8E54",
"oX c #E39A4E",
"OX c #DDB748",
"+X c #D6AE54",
"@X c #C58264",
"#X c #C78768",
"$X c #C5856B",
"%X c #C9866A",
"&X c #CA8A6D",
"*X c #CE9669",
"=X c #C48B73",
"-X c #C58B75",
";X c #CB8D73",
":X c #CB9277",
">X c #CC937B",
",X c #D29779",
"<X c #D5AF6E",
"1X c #E5AA7F",
"2X c #DEC351",
"3X c #EBD258",
"4X c #DEC17C",
"5X c #E7D06F",
"6X c #F4E576",
"7X c #02519C",
"8X c #2F528F",
"9X c #306695",
"0X c #0B57A6",
"qX c #0668B0",
"wX c #3373B1",
"eX c #535187",
"rX c #597C95",
"tX c #6B668A",
"yX c #5A71A5",
"uX c #6172A8",
"iX c #927185",
"pX c #3388B6",
"aX c #75809D",
"sX c #6E89A4",
"dX c #0989CD",
"fX c #0094DC",
"gX c #2C92D2",
"hX c #009DE1",
"jX c #5CAAD9",
"kX c #A7A29C",
"lX c #9697A2",
"zX c #CB9883",
"xX c #D39A83",
"cX c #D6A387",
"vX c #D5AC8E",
"bX c #EAB88E",
"nX c #C4BFBA",
"mX c #DBC084",
"MX c #ECD394",
"NX c #F5E892",
"BX c #FAC8A3",
"VX c #EDD9A8",
"CX c #F6E9A5",
"ZX c #96B7C7",
"AX c #B9C5CA",
"SX c #F9F2CD",
/* pixels */
"Y.z.O.=.&.O.O.*.:.:.*.*.=.,.z.v.4.>.=.*.*.*.:.O.:.>.o.P k.B.,.,.) 1.o.o.o.X.O.*.,.5.4.<.>.,.;.*.=.,.*.%.&.O.*.c ;.$XZ.' ",
"b.=.X.O.[ [ { :.#.+.| #.>.4.v.v.c.>.*.:.:.:.:.:.:.:.! x -.C.>.%.7.Q.! o.O.O.X.X.:.<.>.#.:.#.#.:.O.*.[ [ [ O.O.F / c.<.! ",
"C.x.#.*.{ { O.#.#.=.:.:.,.c.n.v.z.,.,.,.:.:.:.#.:.:.[ T C.U.;.v 3X+Xb O.+.O.+.+.=.>.4.>.:.:.:.:.:.*.[ [ X.O.#.T x O.>.o.",
"@Xv.K { { o.O.O.O.O.O.:.,.v.x.<.>.>.,.,.:.:.:.#.O.#.E R c.XX2.<XNX{.n =.o.O.o.O.:.4.>.>.>.>.>.:.O.[ [ { O.#.*.E T 3.4.o.",
"Y.n.X.#.X.X.o.O.X.o.X.:.5.5.4.4.>.>.>.>.#.:.:.#.O.[ T.T.7.2X2XNXMXL [ #.O.O.O.*.>.,.5.>.:.>.:.O.[ [ { X.O.#.#.E Q z.z.o.",
"U.x.#.*.O.+.o.O.{ o.O.*.4.4.@.#.>.>.:.#.:.:.:.:.O.+.3X2X2X3X6X6X5XL 2.2.X.O.#.#.:.4.5.:.#.:.*.*.[ [ { X.+.#.:.W x &.4.o.",
"L.,.#.O.+.+.O.{ X.O.+.#.>.4.>.>.#.>.>.:.:.#.:.#.X.7.6X3X3XMXMXCX<XL OX@.#.:.:.:.:.,.,.:.:.:.*.o.! [ O.#.#.O.*.T x *.z.&.",
"A.x.#.O.o.O.O.O.#.O.#.>.4.5.<.>.#.>.#.>.>.>.:.K +XXX2X[.6XCX<XMX+XNX2XH #.#.O.O.O.:.:.:.:.#.[ W E [ { #.#.#.*.R Q M.n.[ ",
"I.x.#.:.#.O.O.O.+.#.#.>.5.5.>.#.:.:.:.:.>.<.:.H +XNXOXOX5X4X<XCXCX6XT.2.2.+.+.O.O.{ O.*.o.! W T [ O.O.#.#.#.#.M ! n.c.[ ",
"Y.n.#.>.#.:.O.#.+.#.#.>.5.5.>.>.:.>.:.>.#.:.:.#.H 4X2XR.2X4X4XVX2XR.T.T.+.+.O.O.{ [ [ [ Q W E [ X.:.:.O.O.+.O.M x ,.,.o.",
"Y.c.#.<.;.;.;.*.>.>.:.,.5.4.4.4.<.,.<.<.<.<.>.*.&.L +XMXOXMXMXW.T.2.T.1.O.*.O.o.X.o.{ ' E ! [ *.*.*.*.*.*.:.=.T ^ b.x.o.",
"B m 3 1 1 1 < < 1 g z M 9 2 2 2 2 1 1 x I x I W D {.SX5X2.4X5X{.XXL 2.o.x x , k , 3 7 x x x z > * 1 1 , z x 3 # $ k x : ",
"d.~ 2 5 6 6 5 0 ~ ~ _ Y 5 @ = : 2 6 ~ ~ 9 7 Y ^ j 5XVXL  XmX+X*X{.L ( 1.d.~ P ~ ~ 2 : 1 3 P Y ~ ~ ~ ~ ~ _ P 6 6 0 ~ 9 6 ",
"vX=XA.K.-X X=X>XzXzX:X$X;.z N.K.K.-X-XJ.A.S.S.Z.C.+XT.) <X.X|.Q.1.3.}.zXzX X-XzX-XH ( V.Z.S. X;X;XzX>X>X>X$X@X-XzXzX-X$X",
":XS.A.@X$X$X%X&X:X&X%X$X-.I $X:X$X%XY.P.I.U.I.C.L.7.3.) Z.m.{.3.-.1.b.%XY.I.$X>XJ.D ) $X@X$X%XY.Y.$X$X$X$XJ.@X$X;X$X$XJ.",
">.X.O.:.:.O.O.#.*.:.:.=.m 3 Z.A.,.,.:.*.=.*.:.:.*.*.=.+.3.M.3.c.k.k.u.@.:.>.:.=.{ z _ S.B.,.>.X.` ' ' O.*.*.*.O.#.{ ' ' ",
",.#.X.O.{ #.#.{ | O.{ [ 3 7 Z.I.,.>.>.#.:...#.:.:.w.J J o.k.v.@X#XoX!.y./.9.G J [ x -.I.v.:.#.X.X.] ` ' o.X.O.{ O.{ X.' ",
"n.<.:.>.<.>.:.:.>.:.*.&.4 m A.U.,.>.<.:.:.:.:.:./.(.kX>XXX*XbX>XoX(.(.'.oX|.s f.*.x ) C.z.#.#.#.#.=.O.O.O.O.*.*.:.>.#.o.",
"v.>.>.,.,.>.>.:.:.*.:.*.I Y C.n.*.:.>.>.:.:.:.<.E.oXjXAXkXZXZX<X'._.].~.rXfXqXi { x ) z.:.X.#.#.#.+.O.{ O.#.:.:.:.O.O.o.",
"L.,.4.5.5.#.*.*.:.:.:.*.R Q C.v.*.:.>.>.:.:.:.s.L.U.hXhXhXhXkXE.)./.W.F.dXlXd U *.x / z.<.X.#.#.#.#.{ X.O.#.:.:.:.O.O.o.",
"n.z.x.5.>.*.{ [ O.*.:.*.T T c.x.:.>.5.>.#.:.$.a.a.Q.gXgXdX.XW./.'.e.u.9XkX1XM.=.*.I ) z.>.#.:.:.:.#.` O.{ X.:.:.O.O.O.o.",
"C.v.x.5.*.! ! [ { o.:.:.U x O.,.*.<.,.>.:.:.:.W 5.!.uXfXsXE.i.^.`.i.a.e 1XBX,X-.O.E Q z.>.O.:.#.:.#.{ { { [ O.O.O.O.O.+.",
"U.n.5.>.*.[ [ X.*.>.z.z.U 3 *.,.O.:.>.*.:.:.:.B t.!.U.rXoX^.Q.r.y.i.b k XXBXcXH &.I x =.*.{ { #.#.#.O.{ [ [ O.O.+.O.#.o.",
"U.v.>.*.o.[ O.O.*.4.n.v.U 4 f.g.X.&.O.O.{ &.O.' l e.E.E.E.9.v G 0.} } { o.@X@X3.! 2 x O.*.[ O.#.#.#.{ { { { O.#.O.X.O.! ",
"P.5.>.O.o.O.:.>.,.v.L.x.U 4 b.L.,.,.>.+.O.{ x.:Xz.V a D.D.eXeXs 8 B :.>.>.v.>XbXc.> Q ,.:.{ O.@.#.#.O.@.>.>.,.>.+.O.O.[ ",
"c.&.) Q Q o.&.*.;.;.;.) 7 2 &.g.;.=.=.3.E / cXBXMXD.7XqXfXfXqX7Xq { =.&.{ *XVXbXm.1 Q ;.&.! o.o.&.{ ! o.&.-.&.&.+.O.{ Q ",
"= o X @ # : < : 2 2 ; o   . & g % ) Z.M.0 pXZXMX,Xs.tXtXaXtXtXs e M 7 3 > V.nXZXd + g [ T j j > > > > % % > j 2 2 : 1 = ",
"u u 0 0 ~ ~ 6 9 6 2 5 5 5 u N.N.s.@X*XM._ gXdXd K y.~.9.E.E.R.t.J k 4 N T u sXlXs e V.A.l.;.f._ d.d._ a.a.N.f.7 - 9 9 6 ",
"zXxX>X-X$XA.Z.A.C.b.Z. X=X>XvXxX&X@X*X$X6.tX8XD./.[.Q.y.]._._.(.r.l :.c.b.-.c.7.c.N.&X&XI.S.Y.;X>X;X@X&X>XxX%X:.-. X-XA.",
"zX=XA.A.Z.g.b.n.x.n.Z.A.J.S.J.Z.b.3.-.M.-.d.f.L.).[.Q.w.].[.'.[.i.f g.5.4.3.*X#XC.4.n.z.4.,.b.C.S.C.b.b.L.B.c.' -.&X#Xb.",
"C.>.H F R R ` ' ` ` ` H ` F F F F E ' { X.X.;.r._.'.y.S _.[.'.[.(.} ` O.O.3.3.' X.,.+.' ' E ' { { X.O.{ { { ' M T *.#.R ",
"C.z.' ! E ' { { { { { { { { ! [ X.O.#.#.O.*.g.u.^.'.t.f (.[.'.[.^.q.B >.*.X.{ { *.o.[ R E E [ *.*.:.>.:.O.%.' U I =.4.&.",
"z.*.R ! ' [ { { { { { O.*.*.{ X.#.#.:.#.#.>.k.y.[.[.(.f 0.'.'.'.`.r.l ` o.{ { { ' ! ! Q ' ` { =.>.:.:.:.%.[ ! U T ,.,.o.",
"z.*.E [ { ` { { { ` { *.:.>.*.O.+.:.:.:.>.,.z.y.[.'.^.n f /.[.'.`.r.f B [ ' { { [ { { X.O.O.*.f.g.=.:.:.[ [ { R ! k.4.[ ",
"C.f.` [ { { { { { { O.*.>.O.O.O.#.>.>.>.>.>.,.y.`.[.i.Z b r.'.'.'.t.Z A { { { { { { O.+.*.:.:.,.,.:.:.&.! [ O.' ! c.z.o.",
"I.,.' { { { { { { { O.O.O.O.:.>.,.z.4.=.>.4.,.t.`.`.w.C Z $.(.[.'.y.} C { { { { { { o.:.:.:.:.:.>.:.*.{ [ o.=.! E 4.5.o.",
"b.,.] { { { { { { X.O.O.>.=.,.,.z.5.,.,.<.4.:.0.^.(. .} C } i.`.[.!.} C ` O.{ { { O.O.*.:.#.#.#.:.:.:.*.O.:.>.O.=.v.5.X.",
"C.,.{ { { { { { o.=.>.4.,.,.>.>.,.>.>.>.,.,.`  .^.!.e.Z Z S i.).[.y.S  .| [ +.O.O.,.4.,.:.#.#.#.:.*.:.,.>.,.z.o.! 3.4.o.",
"C.,.' { { { { { *.,.5.4.,.:.O.#.>.>.>.>.,.>.C } i.i.q.Z X.x 0.(.'.t.} t.K ' +.O.,.B.B.4.:.:.:.O.:.,.,.x.x.5.v.! x &.,.O.",
"B.z.O.O.{ O.O.:.,.x.x.,.:.@.#.#.,.4.<.,.<.>.S w.q.q...q.n k b w.!.r.q.t.n A { >.v.I.L.x.>.>.>.>.z.L.v.x.5.<.5.o./ b.n.O.",
"-.Q M R T E R ! ) / ^ W W I M T W Q U M M W l J S w.r.} f h } S w...t.t.b ` B *.z.z.3./ E o.+.o.-.3.-.^ ! o.&.T Y ) &.T ",
"g : # : : 1 1 < : : : < < ; @ # + X X . . X * 8.q.e.q.C b l  .q.}  .i.e.S  .k x T N 1 # : z F T F z = @ : P P - = > > - ",
" XN.j.j.j.m.l.d.l.V.N.d._ 7 d.V.h.h.j.s.s.j.d.} t.q.S S S B %.q.e.8.i.0.$. .V Z.f.4 < ~ j.V.N.b.k.d._ d.j.l.Q W d.N.N.d.",
"vXzX,X,X>X:X&X@X;X>X$X&Xb.o.-XzX;X,X>X;X>X>Xg.b q...S ..S S g.S e.!.i.$. .0.b J.U.H d.>XxX,X;X$X@X%X%X>X,X@XB.B.@X>X;XY.",
"}.n.n.C.U.Y.S.C.I.B.x.c.^ x b.S.b.C.n.c.b.:.n S ....} ..Z n %.B b t.t.w.8.e.| S 3.c l.$XI.b.n.v.b.n.L.C.C.n.x.z.v.v.n.f.",
"z.H H >.x.v.5.4.>.:.>.O.m 7 B.Z.#.<.*.] H S q.S S S 0.} S l ' A S S q.t.8.t...S &.x ^ n.<.X.@.#.O...] H H { #.>.O.X.X.X.",
"B.,.x.n.b.x.,.*.O.=.>.;.W P Z.U.g.n.x.,.>...t.n  .t.w.} | C { Z Z b r.y.0.y.} C *.x ^ B.6.>.4.>.>.>.>.>.>.>.>.>.>.>.<.*.",
"B.x.x.x.;.*.O.O.O.:.:.=.U 3 *.,.:.:.*.*.,.O.q.} q.q.S q...S %.`  .q.q.8.t.w...S [ x ) C.x.>.=.#.:.:.:.:.:.:.>.:.>.>.3.O.",
"I.x.<.,.*.o.O.O.*.:.:.*.m < E :.[ o.[ { o.>.{ A h b S S Z { :.{ Z w.0. .e.} } { O.F l.Y.x.:.:.:.:.:.:.:.:.:.:.:.:.<.:.*.",
"C.z.>.:.*.*.O.O.:.:.:.*.I 2 -.v.[ [ ' O.O.>.g.w e p.e p.{ :.:.:.C b S ..C h B *.*.E c.I.x.:.:.:.:.:.:.>.>.:.:.:.:.:.:.{ ",
"n.:.:.:.#.:.:.#.:.:.:.*.I P Z.C.O.O.{ #.#.>.g.r 9X0X7Xs.X.%.O.:.:.A B l 8 r a | &.m T ,.:.:.:.:.:.:.:.:.:.>.:.:.:.:.>.{ ",
"n.<.:.:.:.:.:.:.:.:.:.,.I x b.C.>.:.:.#.#.>.o.r 0XqXp E { [ [ *.>.=.eX0Xr qXs K >.I ( 5.<.:.:.:.>.:.:.:.:.:.:.:.:.:.:.{ ",
"n.>.:.:.#.#.#.:.O.O.,.;.m < *.g.#.O.*.O.O.+.a.w t t e ' ! ' [ [ *.@.a qXr 0Xs X.*.W -.n.,.#.:.:.:.#.:.:.:.:.:.:.:.:.:.%.",
"L.:.O.O.O.+.#.#.*.X.>.,.m 3 g.g.X.o.[ { ' a.eX9XwX8Xi F [ { O.{ O.#._ t r q u O.{ m I x.x.:.:.:.:.:.:.:.:.:.:.:.:.:.:.{ ",
"B.<.*.:.*.*.#.:.:.,.<.,.M U I.P.{ { { o.` D.uXuXs ^ [ O.#.:.*.>.:.*.[ y p y p O.*.6 M b.x.<.z.,.:.:.:.:.>.:.>.:.>.,.,.*.",
"_ P U R T M m 7 m 9 P 9 - 2 / d.x m m x N N N h j 3 3 x N M M N I U j 8XwXuXqXj N - 7 &.! N N 6 6 5 N M N M T W Y U U m ",
"# O # , > = X     . o o o + * & * 1 * % @ o @ $ $ + + o # * * * * * & w yXyX9X& $ + k b 1 + o o     $ 1 * * k 3 ; @ @ X ",
"}.}.V.H.Z.Z.V.G.}.G. X XH. XzXzXJ.J.H.G.V.G.G.K.V.V.N.Q N.}.J.H. XJ.V.n.G.iXiXS.N.G.-X>X$XH.K. X X XzXzXK. X=X) > _ V.f.",
"vX>X&X-XY.Y.$XzXxXzXzX:X$X%X:X:X@XY.Y.Y.$X:X>X-X$XY.b.H Y.:XY.@X&X@XY.Y.@XY.%X@X@X%X;X-X;X@X&X>X>XzXzXzX@XY.S.U m K.xXY.",
"A.b.,.c.z.z.z.b.c.c.z.k.,.;.,.=.;.*.=.,.z.z.c.z.,.,.' z l.I.,.,.;.,.,.,.4.;.4.3.,.,.x.,.5.,.x.z.g.g.f.&.) ^ T 2 5 b.U.g."
};
