/* XPM */
static char *_347b75b139e4323a99b3a4f33d0aa98bD18s0D4lcHU8i8A[] = {
/* columns rows colors chars-per-pixel */
"60 60 252 2 ",
"   c #060000",
".  c #300401",
"X  c #4C0F06",
"o  c #580101",
"O  c #5A1B06",
"+  c #650000",
"@  c #6B1901",
"#  c #761603",
"$  c #75101A",
"%  c #5A230A",
"&  c #582716",
"*  c #562E11",
"=  c #642406",
"-  c #762804",
";  c #793008",
":  c #672B16",
">  c #762B15",
",  c #6A321A",
"<  c #79351A",
"1  c #59162E",
"2  c #57352B",
"3  c #58312A",
"4  c #693527",
"5  c #763A26",
"6  c #712636",
"7  c #7B3D32",
"8  c #7F4228",
"9  c #7F4C34",
"0  c #372F59",
"q  c #0A3D7B",
"w  c #353771",
"e  c #631B42",
"r  c #543550",
"t  c #6F3750",
"y  c #503865",
"u  c #364975",
"i  c #594456",
"p  c #744C51",
"a  c #494675",
"s  c #545070",
"d  c #684568",
"f  c #735667",
"g  c #796B73",
"h  c #8C0B0C",
"j  c #961C16",
"k  c #8E260A",
"l  c #863305",
"z  c #9D291A",
"x  c #86391B",
"c  c #97371B",
"v  c #A42906",
"b  c #AA380C",
"n  c #A12C1B",
"m  c #A5321E",
"M  c #A9391B",
"N  c #843D21",
"B  c #8B3E23",
"V  c #853B2E",
"C  c #91302A",
"Z  c #AA3623",
"A  c #A63823",
"S  c #AC3B23",
"D  c #984817",
"F  c #AC4C0D",
"G  c #A6471B",
"H  c #B6461B",
"J  c #AE6A13",
"K  c #8C4224",
"L  c #884428",
"P  c #934425",
"I  c #9B4523",
"U  c #9D4A26",
"Y  c #974629",
"T  c #944A2B",
"R  c #9C4B2A",
"E  c #9B522A",
"W  c #894834",
"Q  c #964C35",
"!  c #8D5337",
"~  c #9A5438",
"^  c #A74426",
"/  c #A44A25",
"(  c #AB4D25",
")  c #A44D2A",
"_  c #AB4E2A",
"`  c #B34424",
"'  c #B84D24",
"]  c #B44629",
"[  c #B54A2A",
"{  c #B94D2A",
"}  c #A4512C",
"|  c #AC532C",
" . c #A75828",
".. c #B65326",
"X. c #B1542D",
"o. c #BD532C",
"O. c #B3592E",
"+. c #A74D31",
"@. c #A45433",
"#. c #AD5432",
"$. c #A45C35",
"%. c #AE5935",
"&. c #A4553A",
"*. c #A55B3A",
"=. c #AD5C3B",
"-. c #B25532",
";. c #B25A34",
":. c #B95B37",
">. c #B35D3A",
",. c #9A653A",
"<. c #AA6826",
"1. c #B6682B",
"2. c #B4792A",
"3. c #A9633B",
"4. c #B5613D",
"5. c #B9623E",
"6. c #B76838",
"7. c #AB7131",
"8. c #B97735",
"9. c #C7571F",
"0. c #D76E19",
"q. c #C45A27",
"w. c #C96629",
"e. c #D56B27",
"r. c #CA732F",
"t. c #DA782B",
"y. c #E27C29",
"u. c #833543",
"i. c #894A4D",
"p. c #8A5746",
"a. c #985A45",
"s. c #AB5C43",
"d. c #B25C44",
"f. c #8C614D",
"g. c #98634B",
"h. c #986554",
"j. c #AC6343",
"k. c #A7674A",
"l. c #B56443",
"z. c #B96542",
"x. c #B76946",
"c. c #B46B4B",
"v. c #BB6C4B",
"b. c #B6734B",
"n. c #A86A53",
"m. c #B76E51",
"M. c #AA725A",
"N. c #B67254",
"B. c #BC7354",
"V. c #BD7659",
"C. c #B77859",
"Z. c #BE795C",
"A. c #92716C",
"S. c #A87863",
"D. c #B47B66",
"F. c #BC7C63",
"G. c #C1714C",
"H. c #C17654",
"J. c #C17659",
"K. c #C27A5D",
"L. c #C37E62",
"P. c #D27960",
"I. c #BD861A",
"U. c #BC8C34",
"Y. c #C28938",
"T. c #D09232",
"R. c #E78A2F",
"E. c #E9892B",
"W. c #EB932D",
"Q. c #F4992F",
"!. c #EC9432",
"~. c #F09731",
"^. c #F49D31",
"/. c #D3AC34",
"(. c #FBA22C",
"). c #F5A234",
"_. c #F9A634",
"`. c #FAAB37",
"'. c #FBAD38",
"]. c #869B51",
"[. c #BA8955",
"{. c #BD846A",
"}. c #AF8974",
"|. c #C89A44",
" X c #C78C55",
".X c #D2A84B",
"XX c #D8B95C",
"oX c #E1BD44",
"OX c #C48265",
"+X c #C3856B",
"@X c #C88768",
"#X c #C9856A",
"$X c #CA8B6D",
"%X c #D29068",
"&X c #C48B74",
"*X c #CA8D73",
"=X c #C48D78",
"-X c #CC9175",
";X c #C4947D",
":X c #CD937B",
">X c #D2967A",
",X c #E0856A",
"<X c #D5B16F",
"1X c #DCC155",
"2X c #E6CA53",
"3X c #D7C16F",
"4X c #E8CF6C",
"5X c #E9D476",
"6X c #F6E870",
"7X c #054E94",
"8X c #324E8C",
"9X c #365689",
"0X c #2F6792",
"qX c #045CA1",
"wX c #255CA2",
"eX c #0368B4",
"rX c #0C6AB3",
"tX c #2A6BAC",
"yX c #525A83",
"uX c #4F668D",
"iX c #71788B",
"pX c #4979A9",
"aX c #1179C3",
"sX c #2684BC",
"dX c #4A86B2",
"fX c #7D8BBB",
"gX c #0D8BCE",
"hX c #3398CD",
"jX c #04A1DF",
"kX c #00A7E9",
"lX c #4C93C6",
"zX c #6997C7",
"xX c #4DA4D3",
"cX c #8D9096",
"vX c #AD9B97",
"bX c #CC9983",
"nX c #D19B84",
"mX c #D7A489",
"MX c #D2AA8F",
"NX c #E5A883",
"BX c #EDB790",
"VX c #D2B6A3",
"CX c #EDD788",
"ZX c #EDD393",
"AX c #F7EA90",
"SX c #DBC7B3",
"DX c #EFCAAA",
"FX c #FBCBA5",
"GX c #F7EDAC",
"HX c #97B7C9",
"JX c #F9F2CF",
"KX c #FEFBC9",
/* pixels */
"bXOXc.B.V.c.4.l.c.J.L.L.V.v.B.Z.B.B.L.Z.J.K.V.B.Z.OXN.=.&X:XL.K.V.x.x.>.%.>.4.B.$X:X$XK.K.+X#XK.K.$XOXc.x.J.V.( =.bXbXB.",
"V.=.( #.( ) | | | [ ( ( | >.l.l.>.;.| _ _ _ _ _ ( X.U < &.v.-.#.| U Y ) _ _ ( | | O.O.-.-.| | | | | / ) _ ) | c *.OXc.G ",
"v.;.| | ) _ | -.-.X.X.X.;.l.v.v.x.4.;.-.-.;.-.-.-.;.R K j.B.>.| } R / | | |  .| ;.:.>.;.-.-.-.-.-.#._ ) | | | P T 4.O.} ",
"B.z...| _ _ | | | #.-.-.>.x.v.5.>.>.:.>.-.-.-.X.X.-.) I N.K.*._ ) R ) | } | | | #.4.;.O.-.-.-.-.-.#.) ) | | | P x } ;.} ",
"#Xv...| _ ) |  .|  .| ;.4.x.z.1.;.;.>.;.;.-.-.X.O.;.R x j.v.%.+.) ) _ } | } | | ;.>.:.;.;.;.;.-.| ) ) ( ( X.X.I T j.5.} ",
"OXv.( | _ | | | } ( | | 4.z.:.;.;.;.;.-.X.X.;.[ 8.Y./ x =.x.%.+.) ) | |  .| | -.-.4.z.;.;.;.#._ ) ) ) | | O.X.R P 3.l.} ",
"H.:.X.|  .| | ( | | | #.>.:.;.O.;.;.#.X.-.-.-._ |..X) N d.v.#.) / } | X.X.| | X.-.>.4.-.X.-.-.#.) ) | | | X.#.Y x @.4.} ",
"B.z.X.| } | | } | | | #.:.5.>.;.;.O.;.;.-.-.-.O.oX2X<.< &.5.| ) | | X.X.X.X.;.#.-.>.;.-.-.-.| R U ) _ X.X.X.#.K x %.x.} ",
"J.z.X.-.| | } | | ..| ;.5.5.>.X.-.-.-.;.;.;.[ |.AX6XJ K j.v.| | X.| |  .X.X.| | | | X.-.-.| R P R ) | X.O.X.X.I @.m.v.) ",
"J.z.X.-.X.| | | | | O.;.5.5.>.X.X.;.;.;.1.-.Y.6XGX4X<.Y c.B.#.X.-.| | } | ( | | | ^ | | ) T Y Y / | -.| | X.| x P l.l.) ",
"L.v.O.:.;.;.;.-.X.X.X.;.5.5.;.;.:.8.1.6.Y.8.4X6X5X/.2.D @.v.:.4.:.#.| #.O.| | | | _ ) ) Y T R _ | -.-.X.| #.-.B K =.5.} ",
"V.j._ %.#.@.@.@.@.@.#.%.=.*.%.%.#.Y.8.|.2X/.6XCX4XXXY.2.%.l.*.*.*.} Y +.+.} } ) R ) ) R I Y R _ } +._ @.#.+._ B W c.3.U ",
"k - % O @ O O o + # l x : & * & 8 .XU.1XoX5XGX4XGXCXI.|.E - O o o o o + # - - - ; , , < < < ; @ + @ @ # ; l = X o # @ @ ",
"S.g.9 W p.p.p.p.h.n.k.a.L % , 8 [.6XoX6X4XJXGXXXZXXXU.<X,.g.,.p.h.a.p.M.n.a.p.h.a.< - 8 L T a.g.g.h.g.g.h.a.! p.h.g.p.i.",
"MX*XK.#X=X-X:XnXmXnXbX*Xs.c {. X1X2X2X6XAXJXCX3XZX/.AX5XU.|.%XbXmXbX*XnXbX$X:XmX-XG ~ F.{.OX-X-X-XnXnXnX>X#X*X:XnXbXbX*X",
"#Xv.v.J.J.F.J.J.F.Z.L.K.~ x {.XX1XoXoX6XGXJX3X|.2XGXKXXXI.T.[.F.L.J.H.J.B.B.F.OXN.x ~ {.OXK.J.v.m.m.V.V.J.B.B.F.L.V.B.m.",
"O._ ( | ( ( ( ( ( ( .. .< 5 c.|.5X3X/.1X4XAX.XI.CXKXAX|.U.I.U G F J  .X.| ..( .. .x ~ V.v.;.X.( U G G ( | _ | ( ( ( G D ",
"x.-...-.O.X.X.-.-.#.#.} < 8 N.b.1XAX3XI.U./.[.[.<X3X/.<.I.! +.1.h.g h.3.6.6.| ( D x s.J.x.;.X.| | | ( / | | | #.| X.X._ ",
"v.;.X.;.>.;.-.-.-.-.#.} 8 L Z.N.<./.1XZX<X|.CXCX|.U.7.<.<.<.3.T.cXjXlX<XBXmX%X%X@XT T v.4.| X.X.O.X.| | _ | | #.-.-.X.} ",
"v.;.;.4.4.;.;.#.-.-.#.| K P c.l.<.,.SXKXZXU.<XGX3X1XU.<.<.<.r.(.<XhXxXVXFXNXNXFXFX>Xk.4.#...X.[ O.| | | | | #.-.-.#. .} ",
"v.>.>.z.:.#.#.#.-.-.-.#.Y T b.v.E XXKXZX2.k.b.<X.XU.<.<. ...E.(..XdXdX;X>X{.MXSXDXZXB.3.;.X.X.-...X.^ | | | X.-.-.| | } ",
"G.z.z.z.;.#.} ) _ #.-.#.P K l.z. .5XAXU.3.$X[.U.b.3.<.,.g Y.).(.!.iXpX}. X}.hXkXHX{.R x.;.X.-.-.-.| _ _ | _ X.-.| |  .( ",
"J.v.z.:.#.) R R _ | -.-.L x | >. .XX4X<.b.[.].}.C.b.~ 3.g A.).~.0.f cX%XmXFXVXxXrXf.E 3.;._ -.-.-.X._ _ ) ) | O.| | | | ",
"J.v.:.;.| ) ) | #.>.z.x.L > %.4.R U.T.9 {.>X[.&X$X3.3.6.A.uXT.W.I 6 h.H.@X@XNXvX9X8 < | #.) X.X.X.-._ _ ) / | | | | X.} ",
"J.x.;.#.} ) | X.;.l.v.x.Y < c.x.9.T.Y.r.] K.>X<X[.b.l.G.vXhXS.0.S 5 ! I E 3.B.S.i., N %.#.) | ..X.X.| ( _ _ -.-.|  .| Y ",
"H.5.-.#.} | ;.;.:.v.v.5.K 5 x.b.g A.R.'.W.7.k.J F  .2.vXzXeXp 1.S A $.} E E }  .( < Y 4.-._ | O.O.X.O.O.:.>.>.:.%.| | ) ",
"*.Q L B K U R Q ~ $.~ Q 4 & Q g gXeXg T.(. XdXfX}.}.dXlXaXqXp ' S n R R U U U Q L , K #.R I Y Y Y Y Y T T E Q R T U U L ",
".   . . o O O O % * .     . @ 9XsXjXgXiXr.W.}.gXxXhXjXaXrXwXu.S [ S x : > : * - > o x | P l l - # - @ o + # l & % = % O ",
"h.A.h.h.g.a.! ~ Q L 8 p.f.h.{.M.f.iXlXeXt 9.0.a.w qXeXtXaX8Xk A [ ^ c Q ~ T T a.j.k.D.+Xm.c.n.n.M.M.n.n.S.D.N.Y < p.a.W ",
"mXMX;X&X+XK.V.F.V.B.F.&X;XbXnXmX<X%Xb.f y C ' 9.b t uXpXqXy A S { A #.c.v.x.m.V.B.K.OX#XJ.m.K.*X:X*XL.OX-X:XOX;.j.-X-XZ.",
"+XF.l.l.s.*.=.l.>.d.s.c.m.n.j.-XmX X3.E V j m q.] n h h t S v v V t >.:.%.>.:.>.l.z.5.;.%.#.%.x.c.l.4.l.l.l.>.Y &.Z.J.3.",
"v.=.G / I I / ^ ^ | =.I M F [.#Xb.b.3.E | A n S M n n M F ^ 6 y 8Xr c #.| | _ ( ;.%._ / ^ R ) _ _ _ | | | ( / K K | X./ ",
"B.>.) R Y ) ( / ( c. XE ~ }.ZXDXmX%X3.( | | +.z j 6 e e y q 7X7Xy ] m ^ | | | _ _ ) Y R R I ) #.-.-.-.;.#._ R K K =.>.} ",
">.#.R R ) ^ x.B.I E 3.f.dXxXHXDXFX>X3.X.#.:.x.;.V 0 q 7X7Xw d u.b S [ ] / ^ _ _ ) ) ) R ) ) _ ;.>.-.-.-.+.R R P Y =.4.} ",
"x.%.U _ _ ( *.b.3.3.b.3.uXjXrX}. X=.| #.4.4.;.;.q.S C u.+.h M q.Z ] e.w.H A ^ _ _ _ | | | | #.d.d.;.-.#._ R } / R j.4.} ",
"V.=.^ ) _ ^ / x.OX$.3.$.i qX7Xf  .#.6.r.w.r.R.t.y.e.v Z H n S { S q.e.t.e.] _ _ ) ^ | | -.-.-.>.>.-.#._ R ) #./ R l.4.} ",
"B.=.) _ _ ^ ( %.j.3.E E p u p &.5.R.R.W.Q._.`.`.`.~.q.Z ] Z Z S S q.y._.^.E.t.w.X.| | #.-.X.-.-.;.-.#.| ) | #.) ) l.5.} ",
"v.=.^ _ _ _ _ ^ 3.b.3.E @.$.;.r.!._.).`.'.`.`.`.'.'.R.Z Z Z Z ] m w.Q._.`.`.^.E.t.1.$.#.-.X.X.X.;.;.-.-.| -.>.#.#.c.z.) ",
"B.>.( _ _ | ^ _ / @.l.4.>.4.r.^.`.`.`._.)._.`._.^.^.R.9.z m Z n M e.Q._.'.`.'.^.Q.y.[ >.-.-.X.| -.-.-.;.:.l.4.} P *.>.| ",
"m.>.) _ _ _ | | ;.%.>.5.;.o.W.'.`.`.`.`.^.).^.E.t.q.q.{ z j n j S e.Q.`.`.`.`.`.'.Q.e.o.r.-.-.X.;.d.l.5.z.5.z.E K $.5.) ",
"B.4.| -._ X.| -.4.x.d.;.-.q.!.'.`.`.`.`.Q.Q.Q.!.y.q.` S ] z j z S { t.~.^.`.`.`.'.'.Q.y.R.1.%.;.x.v.x.z.:.:.4.} ~ B.v.} ",
"T B < x B B B P L B N N P ] t.).`.'.`.^.E.e.q.q...q.q.] z z k k n ] e.E.Q.`.`.`.`.'.`.Q.e.| ) +.} ~ T 8 K R R 8 < Q T < ",
"B , & : , < < , , , < : c m { w.y.^.^.y.q.{ { S j h h < Q E L 5 > v { w.!.`.`.`.`.`.`.W.q.q.) T P x % % , K < : : < > , ",
"bX}.D.D.M.C.N.k.C.{.D.n.] ` o.] Z q.E.~.R.q.M S +.d.D.{.bX=XN.N.n.s.A S e.R.).`.`.'.(.E.' q.o.c.b.n.k.M.D.n.$.&.n.F.D.n.",
"MX:X:X:X:X:X$X#X-X-X#XL.o.9.] [ S n Z q.r.w.] d.J.L.>XnXnX#XH.J.+X+Xd.o.q.w.!.`._.Q.E.e.{ e.q.d.K.#X#X:X:X#XG.B.OX$X$XK.",
"v.=.;.z.B.B.B.v.v.l.:.*.c 9.S { { Z n h $ h &.v.>.;.>.>.>.#.#.#.>.d.%.' t.!.).!.t.e.e.q.{ e.9.n -.d.z.4.>.l.:.4.>.>.>.#.",
"z.( ] :.x.z.4.>.-.-.;.A m 9.S ] q.] Z m m m >.z.-.[ [ | | } #.[ [ ( ( ..[ [ ' Z Z S { q.] e.q.q.H ^ X.( ( [ O.#.O.X.X.) ",
"B.>.z.m.v.l.;.#.#.#.=.A S q.] Z ] S j ] ] m d.z.=.-.>.-.#.#.#.-.;.;.;.;.-.^ j j n Z { { H q.q.q.` | ;.-.>.;.;.;.;.;.4.| ",
"B.z.x.z.;.| | | #.| -.^ C n Z ] Z A Z { n +.>.:.-.-.-.-.#.-.-.-.-.-.-.-.;.-.n Z A z S ] o.q.Z Z A d.-.-.-.;.-.-.-.;.>.#.",
"V.z.:.-.#.} } | -.-.-.#.K 1 h b M v k A _ -.>.-.-.-.-.#.-.-.-.-.-.-.-.-.-.-.A m [ o.` ` q.] Z C y i.-.-.-.-.-.-.-.-.;.| ",
"B.>.-.-.#.#.#.O.-.-.-.-.L 2 y y d d y p | -.;.-.-.-.-.| +.| -.-.-.-.-.-.-.-.^ z z A [ o.M z v t qXf [ -.;.;.-.-.-.-.-.| ",
"v.;.-.-.X.-.X.X.-.-.-.#.K r 8XrXeXeXqXp O.;.;.-.-.-.-.| ^ ) +.;.-.>.;.;.-.-.#.#.+.x 6 u.V e r a eX9X+.-.-.-.-.-.-.-.-.[ ",
"v.;.-.-.-.X.-.-.O.-.;.>.< r a wXrXrX8XQ X.;.;.-.-.-.#.) ) ) ) | %.:.4.4.-.-.-.-.%.P ! s qXrXeX8X8X9XD -.-.-.-.-.-.-.-.+.",
"v.-.-.#.X.X.X.-.| | ;.*.i u i s 9Xu p ) ) _ #.-.-.+.) R R ^ _ ) #.;.;.;.-.-.-.#.| P @.k.yXeXeXtXt s s a.O.-.-.-.-.-.-.+.",
"B.;.X.O.| X.| -.| X.4.p u 8XtXwX0Xu 9 ) ) } _ _ _ _ R ) _ _ #.| | X.| #.| | #.-._ 5 B z.=.d 9Xs s uXhXpX} -.-.-.-.-.-.| ",
"b.;.#.#.#.| | #.#.>.&.d wXrXqXwXa p Y } @.} ) +.R R ) ) #.%.#.#.#.| @.R Y ) @.#.@.5 K c.x.O.! u gXxXdXlXiX#.>.-.;.-.>.| ",
"L , < x x < : & & , & 1 0 0 r : @ - > > : : : > : : : : > > > > > < > : & = > > > O - I V > 3 q aXkXgXlXpX4 k K 5 < 5 : ",
"4 4 4 N 5 5 & 2 2 2 2 2 , 4 W Q V V 7 5 4 3 4 5 4 4 3 & 4 7 7 5 V V 4 4 4 7 7 5 4 6 W s.W 4 3 2 s pXzXcXA.u.a.5 % % : & ",
"bX=X+X+XL.Z.D.=XbX}.vX:X+X=XnXnX+X+X{.{.{.}.=X&X{.F.n.^ C.=X+X+X=XL.F.F.&X=X=XF.F.&XbXbX-X+X&XbXD.V.,XP.P.&X&X+.l n.}.N.",
"bX-XOX+XL.K.L.=X:X-X-X$XK.OX&XOXZ.V.V.J.OX$X&X$XL.Z.j.b Z.*XJ.K.L.J.J.L.L.L.L.L.J.L.L.L.L.L.L.#XbXbXbXbXF.N.c.V 5 F.nXL."
};
