/* XPM */
static char *_312ee6590eb4a1dfe4b79dac8a4e8bbWTT0UlKb1cpVyi1A[] = {
/* columns rows colors chars-per-pixel */
"60 60 252 2 ",
"   c #060000",
".  c #2E0401",
"X  c #580001",
"o  c #481003",
"O  c #591A04",
"+  c #640200",
"@  c #70070D",
"#  c #691902",
"$  c #781701",
"%  c #4D240B",
"&  c #592208",
"*  c #572616",
"=  c #662608",
"-  c #762706",
";  c #793008",
":  c #662A16",
">  c #762B16",
",  c #6A3119",
"<  c #74341B",
"1  c #7A3619",
"2  c #7B351A",
"3  c #552B2B",
"4  c #56342B",
"5  c #583C33",
"6  c #683529",
"7  c #783825",
"8  c #713031",
"9  c #7A3D33",
"0  c #574039",
"q  c #7E4229",
"w  c #68413D",
"e  c #7C4737",
"r  c #6E374C",
"t  c #593D6E",
"y  c #324D78",
"u  c #714753",
"i  c #59456B",
"p  c #4E4775",
"a  c #664F6F",
"s  c #7A6873",
"d  c #8E020A",
"f  c #981917",
"g  c #8C2A0D",
"h  c #863407",
"j  c #9A2519",
"k  c #853514",
"l  c #843A1C",
"z  c #8A3D1D",
"x  c #993619",
"c  c #A83509",
"v  c #A2291B",
"b  c #A5331B",
"n  c #833E22",
"m  c #8A3E22",
"M  c #863B29",
"N  c #9A3426",
"B  c #8E3432",
"V  c #AC3C23",
"C  c #A93925",
"Z  c #B03E22",
"A  c #97430E",
"S  c #99451A",
"D  c #B34706",
"F  c #B55507",
"G  c #A7491B",
"H  c #B7491B",
"J  c #A55210",
"K  c #B6541C",
"L  c #B06F12",
"P  c #844125",
"I  c #8C4224",
"U  c #8C452A",
"Y  c #8B492A",
"T  c #944425",
"R  c #9A4624",
"E  c #954B24",
"W  c #9D4A26",
"Q  c #924629",
"!  c #9B4729",
"~  c #95492B",
"^  c #9C4B2A",
"/  c #9C542B",
"(  c #8A4936",
")  c #974B35",
"_  c #8D543B",
"`  c #9C5233",
"'  c #98553B",
"]  c #AD4123",
"[  c #A34A25",
"{  c #AB4D24",
"}  c #A54528",
"|  c #A34D2A",
" . c #AA4D2A",
".. c #B24325",
"X. c #B44825",
"o. c #B64A2A",
"O. c #BA4D2B",
"+. c #A5512C",
"@. c #AC532C",
"#. c #A85828",
"$. c #B95323",
"%. c #B1542D",
"&. c #BC522C",
"*. c #B3592E",
"=. c #A84F33",
"-. c #A35433",
";. c #AD5432",
":. c #AD5934",
">. c #A45639",
",. c #A55A3B",
"<. c #AD5C3B",
"1. c #B25532",
"2. c #B35A34",
"3. c #B45D3A",
"4. c #B95C38",
"5. c #956A3C",
"6. c #AA6728",
"7. c #B76E2A",
"8. c #AA643B",
"9. c #B76736",
"0. c #B5613D",
"q. c #B9623E",
"w. c #C45515",
"e. c #D47112",
"r. c #E27E04",
"t. c #C14F24",
"y. c #C45827",
"u. c #CC652A",
"i. c #D46E2B",
"p. c #D6772C",
"a. c #C97533",
"s. c #E07B29",
"d. c #893B43",
"f. c #8C4F4F",
"g. c #8B5845",
"h. c #975C45",
"j. c #A25E47",
"k. c #AC5C42",
"l. c #B45F41",
"z. c #9A614C",
"x. c #8C695F",
"c. c #986554",
"v. c #AD6243",
"b. c #AA674A",
"n. c #B56443",
"m. c #B96442",
"M. c #B36847",
"N. c #BA6945",
"B. c #B46A4C",
"V. c #BB6C4B",
"C. c #B7754A",
"Z. c #BA724E",
"A. c #A76A54",
"S. c #B46D52",
"D. c #BC6F51",
"F. c #AB7259",
"G. c #BC7354",
"H. c #B57558",
"J. c #BC765A",
"K. c #BE795C",
"L. c #814F63",
"P. c #99736B",
"I. c #A56763",
"U. c #AC7565",
"Y. c #B37B64",
"T. c #BC7C63",
"R. c #B87E6B",
"E. c #C16F4E",
"W. c #C17454",
"Q. c #C17659",
"!. c #C27B5D",
"~. c #C37E62",
"^. c #B78834",
"/. c #C78F1A",
"(. c #F7991A",
"). c #D7A613",
"_. c #FBA513",
"`. c #CD8D33",
"'. c #E4862B",
"]. c #EA902F",
"[. c #ED9634",
"{. c #F19630",
"}. c #F39C32",
"|. c #D6AD31",
" X c #FAA32B",
".X c #EDA23C",
"XX c #F9A835",
"oX c #FAAB37",
"OX c #BA8948",
"+X c #BC8468",
"@X c #BD836C",
"#X c #B88974",
"$X c #CC994E",
"%X c #C8865A",
"&X c #D2AE4A",
"*X c #DDB754",
"=X c #E3AE50",
"-X c #E1AD5C",
";X c #C58264",
":X c #C3856B",
">X c #C88769",
",X c #C9856A",
"<X c #CB8B6C",
"1X c #CF906B",
"2X c #C58C74",
"3X c #CA8D73",
"4X c #C58D78",
"5X c #C99179",
"6X c #CD937B",
"7X c #D29578",
"8X c #D7A776",
"9X c #D3B171",
"0X c #E8CE55",
"qX c #DBC961",
"wX c #EBD374",
"eX c #0D5294",
"rX c #315A8F",
"tX c #355797",
"yX c #005CA5",
"uX c #285DA0",
"iX c #016AB5",
"pX c #0F6CB2",
"aX c #3272AC",
"sX c #4E5786",
"dX c #4B6594",
"fX c #766F86",
"gX c #2179C4",
"hX c #8C7790",
"jX c #2F8BA9",
"kX c #558BB4",
"lX c #7188A9",
"zX c #098ECE",
"xX c #2BA1DC",
"cX c #009CE7",
"vX c #08A3EA",
"bX c #4E98CA",
"nX c #A39586",
"mX c #979CA3",
"MX c #CB9883",
"NX c #D19A82",
"BX c #D29E89",
"VX c #D7A489",
"CX c #D2AB8C",
"ZX c #E3A982",
"AX c #EBB792",
"SX c #CDBAA9",
"DX c #EAD38E",
"FX c #F5C39C",
"GX c #F8EB91",
"HX c #FAC9A2",
"JX c #F9D6A8",
"KX c #F9EFA7",
/* pixels */
"MX;XV.G.G.V.0.0.V.J.~.~.J.V.G.K.G.G.T.~.J.K.G.G.K.;XG.,.2X6X~.!.G.B.M.3.:.3.0.G.:X6X<X!.!.:X>XQ.!.<X;XV.M.Q.J.{ <.MXMXG.",
"J.3.{ @.+.| @.@.%. .{ { @.3.q.m.0.1.@. .o. .@. .@.%.W 2 ,.V.2. .@.W W +. . .#. .%.*.*.1.1.@.@.@.@.@.| | |  .#.x >.;XB.G ",
"B.2.@.@.| | @.1.1.%.%.1.2.l.B.V.N.3.2.1.1.1.1.1.1.1.^ I v.G.3.=.| ^ [ | @.+.@.@.1.3.4.2.1.1.1.1.1.;.| | @.@. .R ~ 3.9.W ",
"G.m.%.@. . .@.%.@.;.1.1.3.N.V.q.0.3.3.3.2.1.1.%.%.;.| R H.!.<. .| | +.@.#.@.@.@.2.9.2.2.2.1.1.1.1.@.|  . .@.@.Q z +.:.+.",
">XV.{ @. . .@.#.@.@.#.%.0.N.q.2.2.2.3.2.2.1.1.%.%.1.R I k.E.;.=.| | +.@.@.@.@.@.2.3.4.3.2.2.1.;.@.| [  .@.%.%.W ~ v.q.+.",
";XN.%.@.@.@.@. . .#. .1.0.m.9.2.*.2.2.1.%.%.1.%.%.%.~ P ^.V.2.| [ | @.@.#.+.@.1.;.3.4.2.1.2.1.;.+.| | @.@.%.%.W T v.m.+.",
"W.q.o.;.#.@.@.| @.+.@.@.3.3.9.%.2.:.1.1.1.1.1.%.%.%.^ / 0XC.;.| | @.@.%.@.%.%.%.2.l.4.1.1.1.1.;.| | @.@.%.%.;.Q k -.0.+.",
"E.q.@.@.@.@.#.@.@.@.%.%.3.q.2.2.2.*.2.%.1.1.1.%.%.*.m ^.GX`.} | @.@.@.%.%.%.;.1.1.:.3.1.1.%.@.^ ^ } { %.%.%.=.Q l <.m.+.",
"J.N.o.;.@.@.@.@.#.@.%.*.q.q.2.1.1.1.1.2.2.2.%.*.%.`.6.qXKX^.W $.;.@.@.@.@.%.@.@.@.@.%.1.;.;.^ T W +.@.*.%.%.%.R +.D.V.| ",
"Q.N.%.2.@.@.@.@.@.@.%.2.q.q.3.1.1.1.1.1.*.1.9.#.9.*X|.KXKX/.6.*.2.o.@.+.#.@.@.@.@. . .@.| ^ T ! [ @.1.@.@.%.@.z Q n.m.^ ",
";XV.*.4.2.2.2.1.%.%.%.4.q.0.9.*.2.4.2.2.2.2.`.7.0X0XwXDX*XL ^.9.:.1.@.@.%.;.@.@. . .| | ^ Q !  .@.2.1.%.@.1.1.m I <.q.+.",
"G.n.+.;.;.-.-.-.+.-.;.:.<.,.:.:.<.=.;.3.3.7.&XqX0XGXDXwX$XL &X8.>.+.^ ` |  .| +.^ | | ^ T ! | | =.| =.| =. .=.m ( B.0.E ",
"g - & O # & O X + $ k k > * * * O + # 2 @ ^.*X0XDXJX9XDX/.wX|.O = X X + $ - = - ; : , < 2 2 ; # + # # # h ; = o X $ # # ",
"F.z.e ( g.g.g.g.c.A.j.h.q & , q e g.z.g.5.&X).*XGXqXCXKXKXwXL ^.z.h.h.A.c.h.' c.z.2 ; P Y Y h.z.h.c.c.z.b.h._ g.c.c.g.g.",
"CX3X~.>X3X5X3XNXCXBXNX3Xv.z K.2X:X5X7X~.%XwX*X*XwX|.9XKXwX/.^.`.5XNX3XBXNX3X5XVX5XG ' T.+X;X3X7X6XNXNXNX6X>X,X6XBXMX6X3X",
">XV.B.Q.J.~.Q.~.T.J.~.Q.` m :X3XT.~.G.V.m.9X9X).|.`.|.|.).6.6.8.Y.!.W.W.W.G.K.>XG.k ' ~.;X!.Q.D.D.H.G.Q.Q.G.T.K.J.J.J.S.",
"1.{ @. .{ { { { {  .o.#.2 7 S.W.2.2.1.%.1.K |.*X*XDX&X^.6.6.L / G @.%.@.%.%.{ $.[ 2 ' Q.V.2.%.G W G G { @. . .{ G { G S ",
"m.1.%.%.1.%.%.1.%.#.;.+.2 2 J.!.4.3.2.1.1.G 9XDX$XJX9X1X6.6.6.:.1.%.*.2.2.2.1.1.+.z ,.!.V.%.%.@.@. .{ | @.@.@.@.1.%.%.+.",
"V.2.%.3.3.2.1.2.2.1.;.+.P P K.Q.1.2.2.2.3.G DXOX8.9X9X9X-.6./ :.;.:.7.K J 8.;.2.;.2 ` V.3.@.&.%.%.%.@.@. .@.;.;.2.1.@.+.",
"V.2.2.0.4.2.2.1.1.1.1.;.T Y V.V.@.1.2.2.1.:.OXY 1X8XCXOXS <XZXp.p.].U.bXbXs $.3.;.l ^ n.2.@.%.%.%.%.@.@.@.@.1.1.1.@.@.+.",
"V.3.0.q.3.2.;.@.;.2.1.=.T ^ B.V.1.2.2.2.%.;.9.u.%X8X8XC./ 8XHX[.}.(.kXvXbXx.%.1.-.m ` n.2.o.%.%.%.%.{  .@.%.%.1.1.@.@.+.",
"E.m.N.q.2.@.| |  .@.1.1.T I n.m.1.3.q.*.v.fX=X X'.8.F.C.C.VXBX}. Xi.aXbXMX6.:.*.@.T ` n.2.@.1.1.2.%. . .#.@.%.1.@.@.#. .",
"G.V.m.4.;.| ^ | | @.1.2.U 2 @.3.@.4.3.K c.jX-X X.Xx.J 6.+XmX#X_.].H eXhXZX7X7X%.;.E ^ 8.:.-.1.%.1.%. . .| | #.*.@.@.@.@.",
"Q.V.q.2.@.| | @.;.3.N.n.U < ;.0.@.;.;.%.b.aXI.r._.lXkXkXbXzX1X_.u.C 7 A.AXHXFX!.} 7 l @.;.| %.%.%.%. . .| }  .@.@.@.%.+.",
"Q.N.2.%.+.|  .%.2.0.Z.N.Q 2 M.N.@.@.@.@.J s eXN (.#XcXxXcXmXe.p.y.C v 0.AXHXAX<Xx 7 m <.@.| @.@.%.@.@. . . .2.1.@.+.@.W ",
"W.q.2.;.@.@.1.3.9.N.V.q.U 2 n.E.0.0.4.*.@.C.x.f.u.^.aXgXiXhXw.i.1...C | %X7X%X>XE 2 ~ 0.1. .@.%.*.%.*.*.2.3.3.4.*.@.@.| ",
",.~ Y M U ^ ^ ^ -.,.' ) 6 * ) <.` -./ E 8.7X%XM.] t.) uXtXg X.$...o.N / E C.AXAX8.: I :.| T R ^ ^ ^ ~ ~ ~ / ^ ~ ~ ^ W I ",
".   . . X O O O & * .     . @ $ + - k 2 +X>XM.8.k C H B d.w.t.c G N > : Y CXJXZXE X k @.T h h - # $ # + + $ ; : O & = % ",
"x.P.c.c.c.h._ _ ) q e g.g.c.R.R.F.A.8.j.FXFX1X/ ( N b F F ] B 8 t u k ~ C.FXJX>X` A.Y.>XS.B.S.A.F.F.b.A.U.T.H.U < h.h.( ",
"BXCX6X3X>XK.K.Q.G.D.!.2XMXMXBXNX3X;Xn.%XJXFX<Xb.>XnXrXdXrXy yXeXeXa 2.V.F.mXSXC.B.K.>X;XW.G.!.3X5X3X:X:X5X6X>X%.v.5X5XK.",
":XJ.v.M.8.>.<.0.3.n.k.M.S.B.b.v.<.<.J nXSX+X<.M.Q.I.sXsXp i t t L.N ;.7.s vXxXa 3.V.4.1.<.=.:.M.B.l.3.n.n.q.3.R -.J.Q.8.",
"G.<.G } R R } { } { } [ ] S S R R G h.zXzXa :.l.=.c D c c c c b c v f F lXxXpXi #.2.@.[ [ [ |  . . .@.@.@.| [ I Q @.%.W ",
"V.3.^ | [ |  . . . . . . . .| +.@.F P.kXiXp n.V.4.f ..&.C C O.O.y...J.7XSXCXfXu X.+.^ ! ! R | ;.1.1.1.1.;.=.^ m Q <.3.+.",
"n.@.^ ^ | }  .}  . . .@.;.1.@.;.G 1XCXM.a c.4.`.XX'...V v j Z p.{.'.%X1XFX8X,.W  .| W W | |  .3.3.1.1.1.| | ^ Q Q <.0.| ",
"n.:.W |  . . . . . . .;.2.2.;.@.8.8XK.C.6.<.a..XoXXXi.j j d u.oXoXXX9.8.%XC.|  . . .@.@.@. .;.3.l.2.1.;.| | +.[ ^ v.0.+.",
"J.<.}  . . . . .}  .@.1.;.@.@.G <X%X-.8.:.9.}.oXXX=X].Z j v }.oXoXXXa.-.8.M.}  . . .@.@.1.1.;.3.3.1.1.| ^ | ;.[ ^ n.q.+.",
"G.<.}  . . . .}  .@.@.@.@.;.:.2.Z.v.8.-.9.[.oXoXoXoX].O.j b }.XXXXoX}.K T +. .{  .@.@.@.1.1.1.1.2.1.;.@.| @.;.| | n.q.+.",
"B.<.{  . . . . . .@.;.:.4.2.2.3.:.Z.C./ `.oXoXoXoX{.y.Z v f p.XXoXoXoXp.G | @. .@.@.;.:.1.1.%.%.2.1.1.1.@.2.3.@.:.B.m. .",
"W.3.{  . . . .| @.@.3.3.3.2.*.2.2.0.n.a.XXXXoXoX}.u...V C f X.}.oXoXoX]...%.#.#.@.3.n.0.1.1.%.%.1.2.2.3.3.0.m.+.E :.3.+.",
"G.3.|  . . . .@.;.3.q.0.2.%.%.@.2.2.9.}.XXXXoXoX{.i.y.Z k.k.w.}.oXoXoXXXt.$.} %.m.G.G.0.2.1.1.%.2.l.l.m.4.m.n.W n >.0.@.",
"G.0.@.@.@.%.@.1.0.N.4.3.1.%.%.2.3.k.p.oXoXoXoX{.i.o.V N J.S.X.{.oXoXoXXXK $.C l.V.W.V.n.2.2.2.3.M.C.N.n.4.4.0.+.` G.V.@.",
") z 2 z z m m I U m n n n n 2 2 M > p.oXoXoX'.t.f j f # ` ^ H }.oXoXoX}.H y.x ^ >.<.=.U m R | | :.-.U P I ^ / q 7 ~ ~ 2 ",
"P , * , < > 2 < , , 7 , * * * : * : o.i..X}.'.i.X.v g 6 ~ / j '.oXXXXX'.y.t.g U m 2 O O : n T ^ I k = % , z 2 : : 2 < : ",
"MX+XY.U.Y.H.H.b.H.@XU.S.h.Y U.R.U.' V O.u.i.y...v N Y.#XMX3XM.O.s.p.i.y.y...C k.B.I 7 h.+X@XJ.H.B.A.b.F.@XA.,.>.A.K.Y.A.",
"CX6X3X7X6X6X<X>X3X7X:X>XB.+.:X6X<Xt.Z y.O.o.] V Z M.6X6XNX:XW.>.v ..O.O.O.j $.&.G.[ b.6X6X6X<X;X;X;X<X6X6X;XE.W.;X<X<X!.",
"S.<.3.m.D.W.G.B.V.m.3.0.Q 2 b.G.9.H C ..y.&.V C j 3.l.3.3.:.;. .j Z &.t.O.v y.X.} S h.K.Z.0.m.3.3.0.m.q.n.0.3.3.0.2.3.:.",
"m.{ X.3.N.N.q.3.;.;.1.@.I 7 J.G.$.Z y.y.y...X.C f o.%. .@.@.=.] C ..O.&.&.C y.X.N l ) N.9.#.%.%.@.%.o.X... .*.:.1.@.#. .",
"D.3.n.D.B.n.;.@.@.1.2.3.T n G.G.$.b u.y.C o.O.o.C 1.2.2.;.;.1.1.} o.Z O.&.v w.&.j n ) D.m.:.9.2.2.:.3.2.2.2.2.2.2.:.9.;.",
"G.m.N.n.2.;.@.@.@.@.1.2.m > | 2.C b v C C C O.t.C  .2.1.;.1.1.1.C C ......X.y...x 2 ' J.m.1.1.1.1.1.1.1.1.1.1.1.1.4.2.;.",
"J.N.4.2.@.+.#.@.1.1.1.:.n : W 1.! x v c c w.D b C 1.1.;.1.1.1.1.} C ..V C &.X.b B S M.;XM.o.1.1.1.1.1.1.1.1.1.1.1.1.1.%.",
"D.l.1.1.@.;.;.@.1.1.1.;.P < v.B.| | 8 sXsXa t B 1.1.1.;.| =.1.2.1.] C j H b d t sXA ,.G.l.1.1.1.1.1.1.2.1.2.1.1.1.1.1.=.",
"V.2.1.1.1.1.%.1.1.1.1.:.U I J.K.1.2.d.yXpXiXeX>.1.1.1.@.|  . .2.3.2.;.! r t y uXuX7 E 9.2.1.1.1.1.1.1.1.1.2.2.O.1.1.1. .",
"V.2.1.1.1.%.1.1.%.%.3.<.I 2 M.V.:.:.P uXgXuXi %.1.1.=.| | |  .@.3.3.q.*.a iXtXuXiXu ` N.2.1.1.1.1.1.1.2.1.1.1.1.1.1.1.=.",
"V.1.%.1.%.%.o.1.%.@.2.3.7 : ;.4.F c.fXdXsXtXi { 1.;.| [ W | | | @.;.9.2.` uXuXtXeX9 / M.4.1.1.1.1.1.1.1.1.1.1.1.1.1.1. .",
"G.2.@.%.@.%.@.1.%.@.4.3.I 2 B.V.g.lXbXxXpXyXa J @.| ^ |  . .@.@.@. .@.*.%.u y 3 p y M m.m.1.4.1.1.1.2.1.1.1.1.1.1.1.2.o.",
"G.2.:.;.:.@.@.;.;.;.3.<.m U H.B.x.bXzXaXi 9 ^ | ^ ^ |  .;.;.;.;.;.;.+.^ W N rXtXuXyXB V.n.1.2.2.;.=.=.;.2.;.:.2.;.<.3.=.",
"q , 2 z l 2 : * * : , * o % m M d.u r X # : , > : = : : > > > , > > > : * O rXgXaXiX8 G m : : * * % = > > - k m 7 7 2 , ",
"6 6 6 l q 7 * 4 5 4 5 0 0 6 ( f.B k 7 9 6 4 6 8 6 6 3 * , 9 B 9 ( M 8 6 8 7 p iXaXpXf.>.( 8 5 5 5 5 w d.9 e ( M & % : * ",
"5X2X:X:XT.K.Y.4X5X4X2X5X#X3XBXVX:X>X@X+X@X#X4X2XR.~.S.[ H.4X:X:X2X>XT.T.:X4XU.fXhXhX:XNX6X:X,XMXMXMXVXBX2X2X2X-.; A.#XS.",
"BX3X;X:X;X!.;X4X5X5X2X3XK.;X:X@XK.K.Q.Q.;X:X3X2X~.!.n.A T.3XQ.!.!.J.Q.~.~.:X,XV.E.~.,X~.~.~.~.>X:X2X2X:XJ.G.S.n n T.NX~."
};
