/* XPM */
static char *result[] = {
/* columns rows colors chars-per-pixel */
"60 60 253 2 ",
"   c #0A0A0C",
".  c #00021A",
"X  c #360303",
"o  c #2D100B",
"O  c #15321C",
"+  c #332418",
"@  c #000425",
"#  c #031725",
"$  c #171C26",
"%  c #0B2933",
"&  c #342A2C",
"*  c #4A0503",
"=  c #560904",
"-  c #491807",
";  c #591904",
":  c #4D1D17",
">  c #6A0A08",
",  c #671606",
"<  c #592408",
"1  c #48291B",
"2  c #592816",
"3  c #672707",
"4  c #762C04",
"5  c #783A09",
"6  c #662B16",
"7  c #703113",
"8  c #773419",
"9  c #77152F",
"0  c #552E28",
"q  c #6F322C",
"w  c #7B3922",
"e  c #2A4128",
"r  c #5D4927",
"t  c #7B4529",
"y  c #794936",
"u  c #665331",
"i  c #07324B",
"p  c #2C3B47",
"a  c #5D3A4D",
"s  c #344852",
"d  c #204962",
"f  c #4E4A4D",
"g  c #49575D",
"h  c #6E5051",
"j  c #75655B",
"k  c #485C61",
"l  c #565F62",
"z  c #576467",
"x  c #53696E",
"c  c #5D6A6C",
"v  c #636B6C",
"b  c #7D706E",
"n  c #626D70",
"m  c #6A7575",
"M  c #697476",
"N  c #6E7979",
"B  c #737D7D",
"V  c #862803",
"C  c #8E310B",
"Z  c #863A1A",
"A  c #843A1D",
"S  c #A53A00",
"D  c #9D1627",
"F  c #8B1733",
"G  c #91282A",
"H  c #843D22",
"J  c #8B3E22",
"K  c #883528",
"L  c #953B2B",
"P  c #8A2639",
"I  c #972638",
"U  c #8C3337",
"Y  c #963738",
"T  c #93460E",
"R  c #A84904",
"E  c #A54A17",
"W  c #AB4C1D",
"Q  c #AB5315",
"!  c #B15018",
"~  c #97671D",
"^  c #B2720B",
"/  c #854024",
"(  c #8C4224",
")  c #8C442B",
"_  c #89462C",
"`  c #934425",
"'  c #9C4A26",
"]  c #974728",
"[  c #9B452A",
"{  c #9C4B2A",
"}  c #97542A",
"|  c #894B37",
" . c #984E33",
".. c #8B5136",
"X. c #8D543D",
"o. c #9A5439",
"O. c #A24725",
"+. c #A44B25",
"@. c #AB4D25",
"#. c #A34D2B",
"$. c #AA4D2A",
"%. c #B14F24",
"&. c #AD5226",
"*. c #A5512C",
"=. c #AC532C",
"-. c #B35729",
";. c #B1542D",
":. c #AD4E34",
">. c #A45333",
",. c #AC5431",
"<. c #AE5934",
"1. c #A6583A",
"2. c #AC5C3C",
"3. c #B25532",
"4. c #B35A34",
"5. c #B65A38",
"6. c #B35D3A",
"7. c #926D33",
"8. c #A96931",
"9. c #B86035",
"0. c #B5613D",
"q. c #B9623E",
"w. c #C27134",
"e. c #960841",
"r. c #992B45",
"t. c #8F344C",
"y. c #9B364B",
"u. c #A22A46",
"i. c #A7344D",
"p. c #B4324C",
"a. c #A63850",
"s. c #AB3B53",
"d. c #B23D55",
"f. c #B83B53",
"g. c #934A47",
"h. c #885445",
"j. c #965B48",
"k. c #AA5D43",
"l. c #AC504D",
"z. c #AA445B",
"x. c #BA435C",
"c. c #876E49",
"v. c #9C644C",
"b. c #9C6755",
"n. c #AC6144",
"m. c #AA664B",
"M. c #B46342",
"N. c #B96442",
"B. c #BA6945",
"V. c #B56749",
"C. c #B56A4C",
"Z. c #BB6B4B",
"A. c #A76D57",
"S. c #B76D52",
"D. c #A6705C",
"F. c #AC725D",
"G. c #BC7253",
"H. c #B9755A",
"J. c #BE795C",
"K. c #915467",
"L. c #B25169",
"P. c #8D716E",
"I. c #AA7766",
"U. c #B77C65",
"Y. c #B96978",
"T. c #C24C5B",
"R. c #C17557",
"E. c #C27A5C",
"W. c #C64C63",
"Q. c #CA576C",
"!. c #C85B76",
"~. c #CE6F6D",
"^. c #C37E61",
"/. c #C57668",
"(. c #CC667B",
"). c #D6647B",
"_. c #CF871A",
"`. c #A3866A",
"'. c #B5816D",
"]. c #BC826C",
"[. c #B7916D",
"{. c #B48675",
"}. c #C58165",
"|. c #C5856B",
" X c #C8886C",
".X c #C48973",
"XX c #CB8D73",
"oX c #D6807B",
"OX c #CE9076",
"+X c #CD937B",
"@X c #D1947B",
"#X c #D2B175",
"$X c #757D81",
"%X c #B7738C",
"&X c #D86A84",
"*X c #CF728B",
"=X c #D7758C",
"-X c #E0738D",
";X c #E87C97",
":X c #798384",
">X c #758690",
",X c #858B8D",
"<X c #878C92",
"1X c #8D9397",
"2X c #94999C",
"3X c #B38D87",
"4X c #A4A09B",
"5X c #999DA4",
"6X c #9DA3A9",
"7X c #A3A8AA",
"8X c #A4A9B2",
"9X c #A9ADB3",
"0X c #AFB3B1",
"qX c #B4B7BD",
"wX c #CA9682",
"eX c #D29A84",
"rX c #D5899A",
"tX c #E19684",
"yX c #E7869C",
"uX c #D6A992",
"iX c #DB8BA2",
"pX c #EA88A4",
"aX c #F58CA8",
"sX c #E894A6",
"dX c #F791AE",
"fX c #EC9BB5",
"gX c #FA98B6",
"hX c #CFB4AE",
"jX c #F0A5B6",
"kX c #E0D095",
"lX c #BABCC4",
"zX c #EBA9C5",
"xX c #FAAAC7",
"cX c #F8B2CE",
"vX c #FDB5D3",
"bX c #FEBCDA",
"nX c #BFC1C5",
"mX c #C5C5CC",
"MX c #D2CDCF",
"NX c #CACBD2",
"BX c #D6D6DB",
"VX c #FEC1DF",
"CX c #E5DDDD",
"ZX c #DCDDE2",
"AX c #FEC4E2",
"SX c #FFC8E7",
"DX c #DFE0E2",
"FX c #E7E6E9",
"GX c #EEEEF1",
"HX c #F0F1F3",
"JX c #F2F2F4",
"KX c #F6F7F9",
"LX c #FEFEFE",
/* pixels */
"wX}.C.G.G.Z.0.0.Z.R.^.^.H.Z.G.J.G.G.J.}.R.E.H.S.R.}.S.2..X+XE.J.H.Z.V.6.<.6.0.G.|.+X XE.R. X}.R.^. X|.V.V.H.E.+.2.eX+XG.",
"H.6.&.,.*.+.=.=.=.@.@.@.;.6.q.M.0.<.=.@.$.$.$.;.&.;.' A 1.Z.<.,.*.#.' #.$.$.&.*.=.4.4.-.3.=.=.,.,.$.+.#.#.&.;.C 1.}.C.' ",
"Z.4.;.=.#.$.=.3.3.3.;.3.6.M.Z.Z.B.0.<.3.3.3.3.3.3.3.*.H n.R.6.$.#. .$.=.,.*.,.=.4.5.9.4.3.3.3.3.3.,.$.#.=.=.;.` { 2.9.+.",
"H.N.%.=.$.$.=.=.=.,.;.3.6.B.Z.q.6.6.6.6.3.3.3.;.;.,.#.] S.E.2.*.#.{ E E R R Q E 3.6.9.<.4.3.3.3.3.=.{ $.=.=.3.` A >.4.*.",
" XZ.%.=.$.@.=.*.=.*.=.3.0.B.q.9.4.4.6.4.4.3.3.;.;.3.[ Z n.Z.<.*.R } G.U.sXiXJ./.4.-.5.4.4.-.3.3.=.#.#.$.=.;.;.' ` n.q.} ",
"}.Z.%.=.=.=.&.&.=.*.&.<.0.q.9.4.4.4.3.3.;.3.3.;.;.3.{ Z 2.Z.<.:.iXjXbXxX*XY.z.*XsXoX-.5.4.4.3.,.#.#.$.=.&.;.=.{ ` 0.B.*.",
"R.5.=.<.=.&.*.=.&.&.=.,.4.0.4.4.4.<.-.;.3.3.3.;.;.;.{ H n.Z.;.sXAXSXcX!.V E ;.C K.fX~.@.3.3.3.*.#.+.=.=.&.;.,.` Z *.0.*.",
"R.q.=.,.=.*.=.=.=.=.=.;.6.q.4.4.4.<.4.4.3.3.3.;.;.;.[ H >.B.sXAXVXxXQ.C ;.;.3.5.R g.(.R.;.3.=.{ { #.$.;.;.;.,.` / 2.q.*.",
"G.N.;.3.=.&.=.=.=.=.-.4.q.q.4.3.3.3.3.3.4.4.;.;.;.-.{ ( S.jXAXAXAX&XG =.;.&.&.=.<.W Y W.*.=.{ ] ] *.;.;.-.-.=.` #.S.Z.+.",
"R.B.;.4.;.=.&.=.=.=.;.4.N.q.6.4.:.3.3.3.<.3.;.;.;.3.*.S rXAXVXVX;Xp.G [ =.=.*.=.&.$.Y u.J { ` ] +.=.3.&.=.;.,.( ( M.M.*.",
"}.Z.-.5.5.4.4.4.4.3.4.9.q.q.4.5.5.5.5.5.4.4.6.;.3.5.#. .jXAXVXdX;X%X&X&XL #.=.=.$.=.#.L ] ] { =.3.4.3.3.=.;.<.( ( 0.q.*.",
"S.2.#.>. .#. .{ { { E 1.1.o.l. .>.>.*.,.,.,.,.*.=.<.4 =XAXVXbXxXcXbXzX;Xx.L #.{ ' ] [ ] [ ] ' +.[ [ { { #.*.{ Z _ n.1.] ",
"V 4 ; = ; ; ; * > > j.g.z.q Y.q * = , 7 8 8 Z H J H , iXSXxXcXbXxXSXxX&Xs.r., 4 4 6 2 7 8 8 4 , > , , 3 4 V 3 * = > , ; ",
"{.A...j.v.v.v.b.I.A.L.U.j.*X=XI...b.A.n.o.j.k.k.k.k./.xXVXzXbXcXxXbXzX!.s.u.| I.A.A 8 ..X.o.m.A.A.D.D.F.F.m.j.v.I.A.b.v.",
"uXXXE.XX+X+X@XeXwX3XI.z.P u.=XuX|.+XXX}.^.}.^.E.J.R.sXxXcXVXfX*X&X;Xh   t.F D.uX.XE 1.}./.|.+XXX+XeXeX@X+XXXXX+XeXeX+XXX",
"G.M.V.Z.S.S.Z.G.S.l.rXK.u.r.!.&XG.G.Z.M.V.V.Z.N.N.Q *XgXgX*X* P.gXW.y 0 r.I V.J.V.Z o.U.E.R.G.N.n.V.Z.C.S.C.Z.G.Z.C.C.m.",
";.&.@.@.@.W W @.@.;.:.[ r.T.&X(.-.4.;.=.:.;.%.:.;.;.T.l.a.V a zXxXe.d.s.P L %.! @.A o.R.V.3.! M.Q.&XY E $.@.@.@.@.W E E ",
"Z.4.;.3.4.4.3.3.3.3.3.' P f.;XrX:.q.5.4.:.3.3.3.;.@.! G F t.*XvXgXD a.r.U 4.:.5.,.A 1.E.V.<.l.I (.&Xd.L =.=.,.,.,.,.,.*.",
"Z.4.3.6.4.4.3.3.3.3.,.#.P ).aXsX^ g.,.;.3.3.5.;.W ~.sXL.rXzXK.;XpXf.x.x.Y @.3.5.,.Z  .Z.6.E z.z.Y.fX&XU =.=.,.3.3.;.,.*.",
"Z.4.5.N.9.4.3.3.3.:.,.' z.Q.g._.h.d f a $.%.R R.gXvXSXzXN 2XO zX!.u.r.x.I U #.3.>.8  .M.<.&.| t.t.;X&Xs.J ;.3.3.3.,.&.*.",
"Z.0.q.q.4.4.=.*.3.3.3.:. .t w.u i s d d D.).*XvXSXbXfXsX%XX %XyXi.r.i.W.d.W.y.[ ,.J  .N.5.{ u g.e.L.*X9 ) -.3.3.;.*.<.*.",
"R.q.B.q.6.*.#.#.$.=.,.,.t r e # $ $ & % }.gXgXcXpX&Xd.d.xX%Xz.a.s.d.s.s.i.W.W.d.K `  .V.>.& i c.w.f.p.g.{ &.3.=.=.&.&.*.",
"R.Z.N.5.,.#.#.#.=.=.6.6.w X . # # # # . ..yX=Xp.p.I 9 u.iXzX*X!.r.f.a.F r.T.s.r.I U J 6./ i p % ~ 8.q q #.#.=.=.=.,.;.=.",
"E.Z.4.4.*.#.#.=.<.6.B.M.) 8  .t + : 1 + 6 G G L [ [ i.f.r.dXxX=X=X&Xi.&XW.f.9 s.W.x.r.` 0 i p $ @ O 1 H #.*.&.,.&.&.=.+.",
"R.B.<.,.*.#.;.3.4.B.Z.B.( 8 Z.Z.*.,.&.*.#.*.=.3.5.:.r.W.I p.).;XaXgXaXdXaXQ.F r.s.W.W.i.1 % $ $ # @ J ;.;.=.3.3.&.&.*.' ",
"G.9.<.>.#.=.3.6.0.B.Z.0._ 8 k.Z.q.6.6.;.=.,.,.;.3.6.Y d.&XrXpX=X).-X;XdXaXx.9 Y 9 a.W.T.k.O # $ 2 ) 4.,.6.6.2.6.<.-.=.*.",
"_ 0 8 8 8 H / / ( _ t q 1 - J  .( ` ` ( H H / / H J 8 i.pXdX;X*X).f.I z.s.P H J K F I r.T.| o 3 / L A A w Z ( H / ( ( w ",
": + + : : 6 2 3 3 - o o o 1 K K q 8 ( 8 2 6 7 2 ; 2 * d.L.f.Q.pX-XW.-XW.s.9 < w w 6  .j.U U ( Z 8 w 8 6 q J ` 6 - < 3 - ",
"{.3X'.U.U.C.m.m.n.o.m.I.I.{.wX+X].J.C.2.2.m.F.m.A.U.j.u.f.;XgXgX;X&X;X;XI 1.k.m.S.H..XXXJ.H.J.].].|.U.U.|.+X^.>.] D.F.m.",
"eXeX.X X^.R.G.J.G.G.U. XXXXX+XXX}.G.M.0.Z.R.R.^..X+XA.r.).dXgXdX-XgX).Q.U M.Z.G.S.R.R.R.Z.B.H. X.X}.E.^.}. XE.&.n.+X@XJ.",
"E.M.#.:.#.{ *.:.$.:.:.*.>.#.#.' ' ' +.*.=.=.,.6.N.5.` i.;XgXgX-XaXgX).u.] ;.:.;.4.0.3.@.+.#.$.,.,.;.=.,.=.=.$.( ] V.0.$.",
"G.0.E #.] [ #.@.$.@.#.@.+.#.' ' #.=.=.;.=.;.6.Z.N.3.Y f.;XdXgX;XdXgXpXi.[ ;.=.;.=.,.$.{ { ' #.=.,.3.3.3.,.$.#.) ( <.<.{ ",
"C.<.' { L $.$.$.$.$.@.$.:.$.#.#.=.3.;.;.=.4.N.B.0.,.U W.).aXgXyXaXaX;XT.U O.=.@.#.#.' ] [ [ #.;.3.3.3.3.:.#.{ ( ( 2.6.*.",
"0.*.' #.$.O.$.$.$.$.$.,.3.6.;.=.&.3.3.3.4.6.0.6.4.,.# q y.yXdX-XgX;X!.h # A $.#.@.#.*.*.=.@.,.6.M.3.3.3.$.{ #.] ] 6.0.*.",
"S.2.O.#.$.$.$.$.$.$.$.3.3.<.=.;.&.3.<.4.4.0.0.6.3.<.& . s P.jXjXtXK.k i f X.$.,.@.$.=.=.=.,.,.6.6.3.3.,.{ #.=.#.*.n.q.*.",
"H.6.+.$.$.$.$.$.$.$.$.$.=.=.=.4.6.0.0.4.4.4.0.6.;.b.z g r #X0X#Xu 7.h x >XP.S $.:.:.*.=.3.3.3.6.6.3.,.$.{ *.,.{ ] M.0.*.",
"Z.2.#.$.$.$.$.$.$.=.=.<.<.4.4.6.N.N.6.6.6.0.! ! V.P.c 8X4X#X4Xx c.^ b 0X7X2X3Xn.S W ,.,.3.;.;.3.6.;.,.,.=.=.<.$.>.C.q.=.",
"G.6.@.$.$.$.$.$.$.=.<.4.4.4.4.4.4.0.4.6.4.4.wXhXMX<X9X8XFXkXkXkX^ m.MXqXmX5XBXCXhXF.Q <.3.;.;.-.4.3.3.4.,.6.0.=.*.q.M.=.",
"G.6.+.$.$.$.$.$.=.6.0.0.6.6.<.;.4.4.4.%.U.FXLXLXLXmXFXFXZXLXkX_.[.FXLXDXGXBXLXLXLXKXhXQ 3.3.3.;.3.6.6.5.q.N.M.*./ *.<.*.",
"G.0.&.=.$.$.%.3.6.0.q.6.3.-.-.;.6.9.-.|.FXLXLXLXLXLXJXLXGXGXKX>XqXLXKXLXFXKXLXLXLXLXKXhX;.5.3.3.5.Z.B.N.N.5.q.{ ] C.B.=.",
"V.>.[ #.#.@.#.=.2.1.>.*.#.*.{  .o.*.I.FXLXLXLXLXLXLXBXJXLXFXBX6X5XJXFXLXKXLXLXLXLXLXLXKX3XS 2.<.M.M.k.2.1.4.6.}  .m.n.] ",
"V 3 ; 3 7 7 7 8 7 , 3 3 6 2 ; ; = 0 qXLXLXLXLXLXLXLXHXFXLXGXqX5X6XFXJXGXJXLXLXLXLXLXLXLXMXo.O.' ] J 7 - 3 / / 6 3 4 4 3 ",
"D.v.h.X.X.X.X...X.v.j.X.t q h.j.X.P.DXLXLXLXLXLXLXLXLXJXJXLXNX5X6X8XMXBXLXLXLXLXLXLXLXKXMX,Xh.n. .X.t | X.o.( / | j.j.| ",
"uXwX+X+X+XXX|.^.XX@X|.|.C.1.].wXP.1XKXLXFXNXFXKXKXLXLXLXnXNXnX2X5X$X2X6XBXNXFXLXLXLXLXBX2Xm g N `.^.}.XX@X}.Z.C.}.XXXX^.",
".XJ.J.^.}.|.^.J.}.R.Z.G.1.C [.4Xk 2XLXKXMXN 2X9XlXZXFXKXBX:X5X$X<XN <XN n :X8X6XZXLXBX2XB m $X6XlX1XR.^.E.G.Z.B.G.G.G.B.",
"0.E W 3.M.B.B.0.4.6.;.,.4 P.BXZX8X<XFXlXN B N c m N 2X8X9Xn k z x k B B $Xc k M DXGX5Xm B m v 8X9XqXj.! @.;.;.<.=.&.&.+.",
"Z.3.5.Z.Z.B.6.,.,.<.6.=.b.FXKXJXLXqX,XN B B B B N v k s s l f h f h g s g n $X0XqX:XB B B m 1XNX5XlXP.W 5.3.4.4.4.<.4.,.",
"G.N.B.B.0.<.=.=.=.,.3.6._ FXBXGXLX0Xc B :XB B B B n v h | :.;.3.3.3. .X.j M m m N B B B B M 6XNX9X6X3X! 6.3.;.4.4.4.0.,.",
"H.B.q.6.,.=.&.*.,.:.3.<.8 nX0XKXLXDX:X:Xz z z z k s | ;.3.3.3.3.3.3.3.3.;.h.k c z z v B :X5XmXNXnXc I.@.3.3.3.3.3.3.4.,.",
"G.0.3.3.=.,.=.<.3.3.3.3.X.m B qXJXBXqX7XB N m z n h 3.3.,.3.3.3.3.3.3.3.3.,.f l v N c <XlXmXmXNX8Xf ,.4.;.3.3.3.:.3.3.=.",
"G.5.3.3.;.3.=.;.3.3.3.<.( h c N <X<X,Xc c n c N x o.3.=.#.$.:.3.3.3.4.3.3.3.h.x M c n n ,X1X1X>Xj >.3.3.4.4.3.3.3.3.3.=.",
"Z.3.3.3.3.3.3.3.3.3.3.<.( A v.v N N B m M m B M h.;.,.$.#.#.@.,.5.5.5.6.3.3.:.l m N M m B m v % / 3.3.3.3.3.3.3.3.3.3.:.",
"Z.4.3.3.;.-.3.3.=.;.3.2./ 8 } 0 & s z N N M l h ;.3.#.#.#.#.#.$.3.6.q.4.3.3.3.;.h v v v g s i # 1 5.3.3.3.3.3.:.3.3.3.$.",
"Z.3.=.=.&.=.;.,.=.=.5.6.H w o.@ @ $ # p f X.] @.,.$.{ { #.$.$.$.&.=.<.,.:.3.,.3.*.8 J  .o . 0 ~ 2 [ 3.3.3.3.3.;.3.3.3.$.",
"R.4.3.3.3.3.;.3.3.6.5.M.A _ 8.7.f # # o ' =.=.#.#.#.$.$.=.3.3.4.3.=.>.*.#.*.=.3.>.t ` B.X.8.^ 6 5 3 { 5.3.3.3.4.4.5.5.<.",
"o._ ` ] ] ) H H H _ _ / 6 6 Q _.^ 5 & + / H H J H w w H J ( ) | ) ` H w 8 w J ` _ 6 8 o.w 3 5 5 T T 7 J ) ( ] {  .) ) / ",
"; * ; 4 4 3 X     X o   X 9._.T 3 T 7 1 * o * = = = - o = , , = > , , = * = , , ; = V C 8 * - < 5 5 < , , > 8 8 2 - = X ",
"'.U.I.F.S.A.A.I.I.'.U.U.h.X.v.h y y t y D.I.'.I.F.F.m.` m.].U.U.].U.F.I.I.].U.I.A.U..XwX].H.U.{.`.{.wX3XU.]..Xo.4 ..D.v.",
"uX+X XXX}.^.|.+XeX+XwX+X X X+X+X}.}.].}..XOX+XOX X}.S.E U.OX}.|.|.}./.}. X.X X}.^..XXX+XXX}. X@X+X@XeX+X}.}.J.} / U.@X}.",
"J.C.0.B.M.M.M.C.C.C.V.0.6.6.2.<.<.<.<.8.0.M.M.M.2.2.#.C C.R.4.6.2.<.6.0.8.6.0.0.5.M.M.5.N.5.N.M.V.n.2.1.o. ._ 6 8 C.E.M."
};
