/* XPM */
static char *result[] = {
/* columns rows colors chars-per-pixel */
"60 60 245 2 ",
"   c #070403",
".  c #0E1318",
"X  c #280807",
"o  c #32100C",
"O  c #31211B",
"+  c #031827",
"@  c #09142A",
"#  c #04282E",
"$  c #1C232B",
"%  c #31312C",
"&  c #470705",
"*  c #580704",
"=  c #491A09",
"-  c #581804",
";  c #491D18",
":  c #6D0A07",
">  c #6A1608",
",  c #741A0A",
"<  c #592406",
"1  c #4C2817",
"2  c #5B2815",
"3  c #692607",
"4  c #772C06",
"5  c #6A3507",
"6  c #773508",
"7  c #642B14",
"8  c #692D16",
"9  c #742F17",
"0  c #68341A",
"q  c #74341B",
"w  c #783418",
"e  c #7C3A1C",
"r  c #73192B",
"t  c #762825",
"y  c #783924",
"u  c #6E2D32",
"i  c #734614",
"p  c #564730",
"a  c #754630",
"s  c #736A3B",
"d  c #01364D",
"f  c #2C3B49",
"g  c #354957",
"h  c #254A68",
"j  c #594C48",
"k  c #48595C",
"l  c #72564A",
"z  c #746558",
"x  c #4B5B64",
"c  c #555F62",
"v  c #6C5268",
"b  c #576468",
"n  c #516C6C",
"m  c #5C696C",
"M  c #626B6B",
"N  c #636E71",
"B  c #657173",
"V  c #6A7475",
"C  c #6A7679",
"Z  c #6D797A",
"A  c #747270",
"S  c #737D7D",
"D  c #86100F",
"F  c #853A03",
"G  c #92360C",
"H  c #873B1A",
"J  c #833B1D",
"K  c #8C1535",
"L  c #843E23",
"P  c #8A3E23",
"I  c #893A28",
"U  c #933234",
"Y  c #983B34",
"T  c #88401F",
"R  c #95431C",
"E  c #A94E0D",
"W  c #A94A1C",
"Q  c #8C4324",
"!  c #864529",
"~  c #8D4529",
"^  c #934425",
"/  c #9A4624",
"(  c #974B26",
")  c #9C4A26",
"_  c #944529",
"`  c #9B4629",
"'  c #954B2C",
"]  c #9C4B2A",
"[  c #9C502D",
"{  c #8A4B35",
"}  c #9A4D31",
"|  c #8A5439",
" . c #9D5233",
".. c #96563A",
"X. c #A44B25",
"o. c #AB4D24",
"O. c #A14729",
"+. c #A34D2B",
"@. c #AA4D2A",
"#. c #AE5525",
"$. c #A4512C",
"%. c #AC532C",
"&. c #B1552A",
"*. c #B1542D",
"=. c #A34D33",
"-. c #A34A36",
";. c #A45333",
":. c #AD5431",
">. c #AD5A35",
",. c #A75738",
"<. c #A45A3C",
"1. c #AC5C3B",
"2. c #B25532",
"3. c #B25A34",
"4. c #B75B38",
"5. c #B45D3A",
"6. c #916630",
"7. c #AD613C",
"8. c #B76436",
"9. c #B5613D",
"0. c #B9623D",
"q. c #B67838",
"w. c #992B45",
"e. c #993247",
"r. c #AA2C48",
"t. c #A3344C",
"y. c #A8374B",
"u. c #AC3852",
"i. c #B33B54",
"p. c #964948",
"a. c #885647",
"s. c #975A45",
"d. c #A75D43",
"f. c #A9445A",
"g. c #BB435B",
"h. c #B84459",
"j. c #AF5650",
"k. c #9A614B",
"l. c #9B6653",
"z. c #8E7353",
"x. c #AC6244",
"c. c #A6654A",
"v. c #AB6549",
"b. c #B46442",
"n. c #B96543",
"m. c #BA6945",
"M. c #B66748",
"N. c #B56A4B",
"B. c #BB6C4B",
"V. c #BA714D",
"C. c #A76C55",
"Z. c #B46C55",
"A. c #BB6E51",
"S. c #AB725C",
"D. c #BC7253",
"F. c #B47558",
"G. c #BE7659",
"H. c #BE795B",
"J. c #B35065",
"K. c #8E776B",
"L. c #AB7864",
"P. c #B57B66",
"I. c #BF6571",
"U. c #C1475E",
"Y. c #C06D4E",
"T. c #C27657",
"R. c #C27A5D",
"E. c #C54B62",
"W. c #C7536B",
"Q. c #CB5972",
"!. c #D25C74",
"~. c #C37E62",
"^. c #C86377",
"/. c #D2637D",
"(. c #CE7774",
"). c #3A8D5A",
"_. c #77807F",
"`. c #B2873C",
"'. c #D0B336",
"]. c #B38C4D",
"[. c #93847C",
"{. c #BA826B",
"}. c #B18E6F",
"|. c #B78776",
" X c #AEA46B",
".X c #CB8256",
"XX c #C58265",
"oX c #C6866A",
"OX c #C8876B",
"+X c #CA896D",
"@X c #D9856F",
"#X c #C68B75",
"$X c #CA8D73",
"%X c #CA9279",
"&X c #CC937B",
"*X c #D0937A",
"=X c #D1957C",
"-X c #DAA176",
";X c #757E82",
":X c #AA738B",
">X c #CB7687",
",X c #D4728A",
"<X c #DB758D",
"1X c #E3748F",
"2X c #E57A94",
"3X c #7B8488",
"4X c #868A8B",
"5X c #8F9496",
"6X c #B59682",
"7X c #989EA3",
"8X c #9EA3A7",
"9X c #AAACAF",
"0X c #B4B7BC",
"qX c #D98B8D",
"wX c #CB9782",
"eX c #D29A82",
"rX c #D59A88",
"tX c #D78297",
"yX c #E6849D",
"uX c #D4A38F",
"iX c #E8AA91",
"pX c #D98EA9",
"aX c #E98AA5",
"sX c #F38BA8",
"dX c #E597A9",
"fX c #F794A5",
"gX c #EB9AB5",
"hX c #F798B5",
"jX c #CEB5A8",
"kX c #D3BAB0",
"lX c #F6A6B7",
"zX c #CEC0B5",
"xX c #F7A9C5",
"cX c #F6AEC8",
"vX c #FDB9D6",
"bX c #C5C8CA",
"nX c #CCCBCD",
"mX c #D6D7DA",
"MX c #F9C6D2",
"NX c #FFC4E2",
"BX c #E2E0E0",
"VX c #E8E7E9",
"CX c #EFEFF1",
"ZX c #F4F4F5",
"AX c #FEFEFE",
/* pixels */
"#XB.D.T.V.b.5.M.D.R.~.H.A.B.G.G.A.H.XXH.G.H.D.D.~.~.d.Z.&X+XR.R.V.N.n.>.>.4.9.R.$X&XoXT.R.+XOXT.~.oXXXN.N.H.G.W 7.eX=XG.",
"b.o.%.$.X.@.%.%.&.o.o.%.2.9.b.b.3.%.o.@.*.@.@.@.*.%.H F 7.9.W %.$.] ] @.@.%.$.%.&.3.&.*.*.%.%.%.%.%.X.+.+.o.@.G <.XXN.R ",
"9.%.%.@.+.@.2.2.2.2.2.2.5.N.V.m.b.5.3.2.2.2.2.2.2.%.} P.qXqX(.7.$.] $.$.%.%.#.#.3.9.8.3.2.2.2.2.2.:.+.O.%.%.:.^ ' 1.3.+.",
"B.#.%.%.@.%.*.%.%.:.2.2.n.B.m.0.5.5.5.3.2.2.2.2.#.wXgXdXtX>XqX^.-.) %.#.$.%.$.:.3.4.3.3.2.2.2.2.2.%.+.@.%.%.:.^ Q %.3.$.",
"T.#.%.%.@.%.$.%.$.#.:.5.m.m.8.3.3.5.8.>.:.2.#.N.dXcXaXy.d.d.-.i.y.X.%.:.%.%.@.%.3.5.4.3.2.3.2.:.$.+.@.@.%.*.*./ ' b.9.[ ",
"Y.&.%.$.%.%.%.%.%.$.%.4.9.8.3.3.3.2.3.*.2.2.&.rXNXhXU H M.n.%.U t.Y #.$.$.%.*.%.2.n.n.2.2.2.:.:.+.+.@.%.%.*.2.) ^ 1.n.$.",
"m.2.:.#.%.%.o.@.%.%.%.3.8.9.3.3.3.*.2.2.3.W oXvXvX,X,  .M.b.%.^ w.` &.*.%.2.*.2.3.b.4.2.2.2.>.%.+.@.@.&.%.*.%.~ H ;.8.$.",
"m.2.:.#.$.%.$.%.%.#.*.3.9.4.3.2.3.3.3.2.2.3.dXNXcXh.t ~ b.5.@.@.O.#.%.&.*.2.2.2.2.3.2.2.2.2.$.) ] O.@.*.&.*.2.P P 7.b.$.",
"B.*.2.%.%.%.%.#.%.%.2.0.0.0.2.2.2.2.2.3.#.(.vXNXxXr.r Y Z.7.%.*.*.%.%.#.%.#.%.%.%.%.*.:.*.$.( _ ) %.%.*.*.*.*./ } D.N.o.",
"Y.2.2.2.*.%.#.$.%.*.*.9.0.9.2.*.2.2.2.3.#.tXNXNXhXr.f.dXtX,.:.2.*.%.$.%.%.%.%.%.@.@.%.%.] ' ` ) $.%.*.%.#.*.%.P ^ b.n.] ",
"T.*.4.4.3.3.3.*.3.2.3.0.0.8.4.8.4.4.4.2.m.lXNXNXaXJ.gXvXhXi.-.0.3.2.%.:.%.:.%.%.@.%.@.] ` _ O.%.2.3.2.*.:.2.%.P ~ b.9.$.",
"x.+.;.$. . .] ] +.+.$.,.<. .;. .;.=.;.:.$.dXNXvXhXxXcXvX<Xw.U <. ._ _ _ +.+.] ) ) ) ) ) _ _ ) O.] ] ] ] +.+.] J ! x.,.( ",
"4 3 - * - - & * : F H 9 < ; = - * * 9 6 p.gXNXvXvXcXvXhX<Xf.r & * * * : , 3 3 4 4 8 8 q 9 w 6 > : * > 3 4 6 3 & * : > - ",
"L.| a.k.l.k.l.L.L.S.C...8 q { | s.l.C...<XvXNXvXvXaXaX2XgXa.r K.S.C.C.P.F.k.C.L.k.4 y { ....c.C.S.L.S.S.F.c.s.l.S.S.C.s.",
"=X~.OX&X*X*X&XrXrXeX=XR.G N.%X#X$X&XOX{.,XxXgXxXxXf.,X,X:Xo l rXrX&X*XeX*X+X=XuX~.E v.oXXXOX&X$X*XeX&X=X*X+X$X&XrXeX&X$X",
"b.b.B.A.B.D.V.D.A.A.D.x.6 v.#XG.D.V.n.8.J.2X>X,XJ.  pX1XK r { T.Z.N.m.m.m.m.F.V.$.4 k.XXR.T.V.b.b.b.N.Z.B.N.A.A.N.Z.N.v.",
"%.o.o.#.o.W W o.o.o.#.^ 7 ..R.0.3.3.#.%.-.f.w.K u :XaXQ.t.t.t.U ,XyXqXY.Y.Y.n.A.tXqXZ.H.n.*.o.o.X.W W X.o.@.o.o.W W W R ",
"4.*.2.2.3.3.3.2.2.:.%.~ 9 7.OXm.4.3.3.3.4.9 K u.^.aX!.i.t.g.y.r.gXxXhXxXgXxXhXfXMXlXR.H.b.2.*.*.%.%.X.%.%.%.%.:.3.3.*.$.",
"4.*.3.4.3.2.2.2.2.:.:.^ 9 c.R.0.3.3.2.! | ].J.u.g.E.h.u.U.U.u.W.hXaXfXcXhXsX1X(. X[.6...>.&.*.*.*.*.%.@.%.%.:.2.2.2.#.$.",
"4.3.0.4.4.3.2.2.2.2.2.+.T x.T.9.=.{ u f d z T.r.e.u.e.i.i.y.U.yX2Xg.!./.W.y.U I f h d 1 @.*.*.*.&.%.@.%.#.:.2.2.2.:.%.$.",
"9.9.n.4.3.:.%.;.2.2.2.+.H b.V.8.q.s d g f + a -.w.e.w.t.t.r.Q.vX>XK K U Y '  .u h x g @ I *.*.2.*.@.@.@.%.%.2.2.2.$.#.$.",
"B.m.m.3.$.+.] @.%.:.2.] J +.V.qXlXiX].d $ . y t.g.i.E.g.g.i.2XxXJ.u.u.O.:.>.>.0 g h g # 2 2.2.2.2.*.@.@.$.@.*.%.%.%.%.@.",
"V.m.4.2.+.] @.$.:.2.5. .y F qXhX<X2X@Xp @ y 2.Y u.g.E.E.g.g.aX,Xr.g.e.%.2.#.j.OXwX4Xx # O $.*.*.2.*.%.@.+.@.#.%.%.%.*.$.",
"V.9.3.%.+.+.%.%.5.n.B.<.w I h.,X/.J.U.0 O @.2.2.Y w.i.E.i.t.<X!.g.i.Y *.*.^.aXvXlXeX].# ; @.%.&.*.*.@.@.O.@.:.:.#.%.#.+.",
"B.3.:.%.@.%.*.2.9.B.Y.,.w { K w.t.u r I ' %.2.3.-.i.1X!.W.W.W.E.g.i.} 2.4.<XpXgXhXE..X6.y %.%.*.&.%.&.%.*.:.3.2.#.%.$.] ",
"9.2.:.+.$.>.3.5.m.N.0.[ 8 } p.w.w.r I =.%.:.%.%.,.1XhX1XsXsX!.r.h.e.=.3.%.^.2XaX/.U.U.1.$.@.%.2.2.:.%.>.2.5.1.5.>.*.%.+.",
"y 0 y q J L L ~ ' ! y 0 = 8 I U K r ^ Q L P T Q H (.hX1XsXhXsXJ.u.U ~ ~ Q w f./.U.E.t.Y ) H R H H H P w J Q Q L Q Q Q e ",
"O O ; ; 2 2 2 3 < o . o O t Y q t I J 8 2 7 8 2 & I.sX2XsXhX2X/.u.U 7 9 q 7 t r.U.y.} d.' / T w t J q t t I P 7 = < 3 = ",
"|.|.P.P.Z.v.N.c.d.s.C.L.L.%XwX#X{.V.x.<.c.Z.C.C.C.J.sXfXsXhX1X^.w.u y x.x.<.d.s.-.j.{.$XG.G.H.{.oXXXP.P.|.$XXX+.} S.S.c.",
"uX$X+XoXG.D.G.G.A.T.oX$X%X%X%XOXR.N.5.m.V.G.T.OXL.U -XlX(.<X:Xv $ # j B.N.n.Y.A.B.T.T.T.B.m.H.OX#XXXR.XXoXOXR.#.b.&X&XH.",
"N.$.=.+.) =.@.%.@.:.=.:.=.+.) ) ] ] $.%.%.:.7.b.l s  X-X].6.k x S b k a W 2.:.*.4.5.#.@.@.O.@.:.:.%.%.%.:.#.@.Q ' b.9.+.",
"m.X.X.) ] X.X.@.@.X.X.@.X.) ) O.@.#.*.&.#.*.m.N.S ]. XB s E 5X9X7X4XS [.L.E %.2.:.%.+.] ] ] +.%.:.:.2.2.:.$.X.I Q >.3.$.",
"5.] ] ] O.@.@.@.@.@.@.@.:.@.+.@.%.2.*.*.2.9.8.}.0X9X X'.`.}.BXbX9XmXmXVXBXjX7.W @.( ( ` ) O.+.3.2.2.2.2.=.+.] Q ^ 4.9.$.",
":.] +.@.@.@.@.@.@.@.:.2.2.2.:.%.*.2.2.&.5.4.D.9XCXCXkX`.6XCXCXmXBXZXAXAXAXAXjX3.@.+.+.$.@.@.=.b.5.2.2.2.+.O.O./ ' d.8.+.",
"b.O.@.@.@.@.@.@.@.@.@.2.2.:.#.%.*.3.2.3.9.E jXZXZXAXVX4XnXZXVXCXCXAXAXAXAXAXZXjXE $.%.#.*.:.2.5.b.2.2.:.+.+.%.X.} M.b.+.",
"M.) @.@.@.@.@.@.@.@.*.@.%.%.2.3.4.9.7.3.:.V.VXAXAXAXCX5XbXnXmXnXZXAXAXAXAXAXAXzXW @.%.%.2.2.2.4.3.2.:.+.] %.,.) ) 9.9.$.",
"9.O.@.@.@.@.@.@.%.%.%.%.>.3.5.9.n.9.5.5.&.jXAXAXAXVXVX9X8X9X0XbXAXVXCXAXVXmXmX7X| %.:.:.2.*.*.2.3.2.:.:.%.:.5.@.:.M.0.$.",
"b.o.@.@.@.@.@.@.%.>.3.5.3.3.2.5.8.3.>.3.D.VXAXAXAXCX0X7X3X3X3XnXBX7XBXCX7X3X4XC l 7.>.5.2.*.*.*.2.2.2.3.:.4.5.%.;.b.9.%.",
"b.o.@.@.@.@.@.@.:.5.0.9.3.3.*.2.3.3.8.#.{.AXAXAXAXAX0Xm c b V 7X4X5XbX8XZ S ;XB N [.N.5.2.2.*.%.2.3.4.0.9.m.9.' T [ 5.$.",
"N.%.%.@.@.*.%.3.9.m.0.3.2.&.&.3.4.4.0.E jXAXAXAXAXZX0XV g N _.C b 3X3Xn Z ;XS V _.7XF.4.3.3.3.3.n.N.n.n.0.4.0.+.' M.m.%.",
"7.) O.] ] o.$.>.1.,.;.+.$.] ] $.;. .,.F mXAXAXAXAXVXnXS k n M k k x m ;X;X;XC ;X8X4XC.+.;.>.*.>.9.M.1.<.,.3.>.' } N.d.) ",
"3 - 3 9 9 9 w 9 > 3 3 7 2 2 * - * & ;   0XCXCXZXZXVXbXn k k ).M b m N V V C C 7X8XM a 3 3 H R / / H 7 < 4 T ! 7 3 4 4 2 ",
"l.| | | | ..{ { s.s.| { q a a.a.{ l l a K.7X5X8XnXnXV m c n ).n B B B C ;X3X8X0XS j - a ..k.x.d. .| a | a.| ^ L { s.s.{ ",
"rX%X*X%X%X$XXXOX=X%X#XR.$.F.eX*X+X*X$X$X|.M S S 3X5XM m M V c g N N m Z 7X9X0X5Xa.( c.#XeX&X+XoXR.XXXX$X&X~.m.B.XX%X$X~.",
"P.T.R.~.oXXXH.~.R.D.D.v.T 7.XXG.H.~.A.F.F.z C S 3XC N n B V b b z z x b m B A K.<.R Z.*XXXT.T.D.A.T.T.~.~.Y.m.N.V.A.D.M.",
"o.E *.n.m.m.9.4.4.*.*.) 8 ..G.9.3.3.@.W o.;.z C 3XC B b S M V B { e p j p 0 ( 5.$.J ..B.>.#.&.&.*.*.o.o.o.&.2.2.%.*.#.o.",
"4.3.n.A.B.9.>.:.>.2.5.} e v.XXm.n.n.3.5.n.Y.z.n _._.N B _.V V M  .] 5 F 6 i 2.b.;.J <.A.8.8.3.3.3.3.2.2.2.2.2.8.7.2.3.:.",
"n.n.M.b.>.:.%.%.%.2.3.[ w ' n.5.2.5.:.5.0.0.a.x S N N S V Z B l :.3.~ 6 5 _ 4.3.+.e ..D.5.3.3.2.2.2.3.2.3.2.3.3.&.3.1.:.",
"N.0.4.:.:.%.$.%.2.2.2.] 8 J %.$.$.+.+.$.:.4.a.n M m ;XS c k g J 4.2.2.Q J %.2.2.$.R Z.R.0.2.2.2.2.2.3.2.2.3.2.2.2.2.4.:.",
"n.3.2.:.;.:.%.*.2.2.2.} 8 _ b.>.O.+.@.%.%.3. .c n B N x f $ + 2 :.2.2.2.%.2.2.2.%.O.N.R.4.*.2.2.2.2.2.2.3.2.2.2.2.2.2.@.",
"n.2.2.*.2.2.*.2.2.2.>.[ e d.H.9.%.%.%.2.3.3.2.a.z z j $ $ $ + % ' 3.3.2.2.2.2.4. .J [ 0.3.2.2.2.2.2.2.2.3.3.2.2.2.2.2.@.",
"4.2.2.2.*.*.2.2.2.2.3.} w <.H.9.2.2.*.*.>.3.:.:.;.+.a . + $ + 0 i ' 0.3.2.2.2.3.;.P ;.0.3.2.2.2.2.2.2.2.2.2.2.2.2.2.2.:.",
"4.2.2.*.*.2.2.2.*.2.4. .7 ^ b.2.#.*.%.%.%.2.2.2.2.@.+.0 O + $ i 5 ! 0.3.2.2.2.2.:.^ <.V.3.2.2.2.2.2.2.3.2.2.2.2.2.2.2.@.",
"5.%.*.%.%.&.%.%.%.2.4.} 7 } B.:.@.$.$.O.X.+.=.:.%.+.] +.7 % i i 5 / >.>.:.:.@.:.+.L ] m.5.2.2.2.2.2.2.2.2.2.2.2.2.2.2.=.",
"9.2.:.2.2.%.2.2.4.5.5.+.H c.~.5.@.+.$.%.%.%.%.@.O.+.+.2.[ i i 6 e $.%.+.+.@.:.3.} q ' B.n.2.4.3.2.2.3.2.2.2.2.2.5.3.4.:.",
"{ ~ ` ( ^ Q I L ! ! ! y 2 ! d.I L P P Q y L L L L y L I ~ i 6 5 e Q y q y L Q ^ L 2 I 1.} I L ! y y Q I ~ I _ ] ' ~ ' L ",
"& - 3 6 3 &     X X X X o > D , , , > * o o * * * & o ; * - < < > , * & & * , - * - G G , & o .   . * : > : J y 1 & - X ",
"{.S.F.F.Z.C.L.{.L.L.|.{.L.#XwXP.P.P.L.L.L.L.P.F.S.S...` L.l.a {.{.F.S.L.P.{.P.S.S.P.|.wXP.P.P.|.|.|.6XwXP.|.P.} 4 ..S.d.",
"eX+X$XOX~.~.%XeXeXwXwXOXOX$X&XOXXXXXXXXX$X&X&X#X~.~.2.>.$XoXG.$XOX~.oXOXOX$XOXXXXX(.$X$X+XXX$X=X=XeXrX&X~.~.H.Q ~ P.eX~.",
"F.7.b.b.b.b.M.N.M.N.b.1.7.1.5.,.;.>.3.7.x.b.M.9.4.2.P } G.B.3.5.1.>.5.5.5.1.7.8.5.b.4.n.0.n.5.b.b.d.1.,. .} ~ 0 y N.T.b."
};
