/* XPM */
static char *result[] = {
/* columns rows colors chars-per-pixel */
"60 60 255 2 ",
"   c #020501",
".  c #100F02",
"X  c #290706",
"o  c #321204",
"O  c #002006",
"+  c #002D00",
"@  c #013400",
"#  c #003C00",
"$  c #073A0A",
"%  c #163A09",
"&  c #053D14",
"*  c #313205",
"=  c #243D15",
"-  c #383C14",
";  c #02392A",
":  c #10362A",
">  c #313B2D",
",  c #480806",
"<  c #580805",
"1  c #491805",
"2  c #551605",
"3  c #6E150A",
"4  c #671808",
"5  c #572307",
"6  c #562D11",
"7  c #672709",
"8  c #752B04",
"9  c #692B14",
"0  c #762816",
"q  c #703211",
"w  c #793517",
"e  c #73331B",
"r  c #443C36",
"t  c #6C3825",
"y  c #6D392D",
"u  c #753822",
"i  c #7C3B23",
"p  c #054409",
"a  c #17420A",
"s  c #0F570E",
"d  c #054614",
"f  c #174615",
"g  c #24420B",
"h  c #244414",
"j  c #284817",
"k  c #38461B",
"l  c #295519",
"z  c #36551C",
"x  c #0C6C0D",
"c  c #36671C",
"v  c #2D701A",
"b  c #1A4828",
"n  c #175328",
"m  c #0C4A31",
"M  c #334F27",
"N  c #275826",
"B  c #286A29",
"V  c #346827",
"C  c #2A7228",
"Z  c #397825",
"A  c #387633",
"S  c #47471A",
"D  c #564918",
"F  c #704D1E",
"G  c #4A6E12",
"H  c #484A26",
"J  c #594B25",
"K  c #495727",
"L  c #575528",
"P  c #4D4B33",
"I  c #575834",
"U  c #66492A",
"Y  c #784728",
"T  c #6D582D",
"R  c #664735",
"E  c #7B4635",
"W  c #785739",
"Q  c #476826",
"!  c #586927",
"~  c #467A25",
"^  c #4A6A39",
"/  c #696339",
"(  c #78653B",
")  c #6D7332",
"_  c #025245",
"`  c #1B614C",
"'  c #6D5647",
"]  c #7A6A46",
"[  c #74774B",
"{  c #6D6764",
"}  c #8A1707",
"|  c #8E2F07",
" . c #89350A",
".. c #863918",
"X. c #953B17",
"o. c #A33E1A",
"O. c #843C22",
"+. c #893E24",
"@. c #843F28",
"#. c #913F20",
"$. c #8F491B",
"%. c #97491B",
"&. c #A3470D",
"*. c #A6491A",
"=. c #8D4224",
"-. c #88472A",
";. c #944424",
":. c #9A4625",
">. c #934529",
",. c #984929",
"<. c #9D4B2B",
"1. c #8A5529",
"2. c #97552B",
"3. c #884A34",
"4. c #984E33",
"5. c #8B5738",
"6. c #995537",
"7. c #A84624",
"8. c #A54C24",
"9. c #AC4D24",
"0. c #A44D2A",
"q. c #AA4D2A",
"w. c #B14E29",
"e. c #AC5125",
"r. c #A4512D",
"t. c #AC532C",
"y. c #A75C2D",
"u. c #B1542D",
"i. c #B1582F",
"p. c #A44F35",
"a. c #A45432",
"s. c #AD5532",
"d. c #AD5934",
"f. c #A55938",
"g. c #AC5C3A",
"h. c #B25532",
"j. c #B35A34",
"k. c #B45D3A",
"l. c #B95C39",
"z. c #896635",
"x. c #926D38",
"c. c #AA613A",
"v. c #B46034",
"b. c #B5613D",
"n. c #BA623D",
"m. c #8B5B4A",
"M. c #985B47",
"N. c #AA5D41",
"B. c #886847",
"V. c #98644A",
"C. c #87764A",
"Z. c #9B6855",
"A. c #8E7551",
"S. c #997954",
"D. c #A86548",
"F. c #B56443",
"G. c #B96543",
"H. c #B56845",
"J. c #BA6945",
"K. c #B46A4C",
"L. c #BB6C4B",
"P. c #A9724B",
"I. c #B1784C",
"U. c #A76B55",
"Y. c #B76E54",
"T. c #A8755A",
"R. c #BB7253",
"E. c #B87758",
"W. c #957267",
"Q. c #AB7966",
"!. c #B57A64",
"~. c #A87E72",
"^. c #C06E4C",
"/. c #C17455",
"(. c #C2775A",
"). c #C37B5D",
"_. c #C27E63",
"`. c #399707",
"'. c #3A8527",
"]. c #4D9219",
"[. c #458929",
"{. c #56862A",
"}. c #4A922A",
"|. c #48972C",
" X c #498937",
".X c #578735",
"XX c #698939",
"oX c #3B9245",
"OX c #679951",
"+X c #6EA353",
"@X c #8F8F5A",
"#X c #99855B",
"$X c #A3855B",
"%X c #BB865C",
"&X c #958A69",
"*X c #9C9867",
"=X c #AA8C64",
"-X c #B88667",
";X c #A89969",
":X c #B69568",
">X c #BB8672",
",X c #BD8974",
"<X c #B58979",
"1X c #AF9573",
"2X c #B99B71",
"3X c #9FA166",
"4X c #ABA773",
"5X c #B8A675",
"6X c #C4855D",
"7X c #C58265",
"8X c #C5856B",
"9X c #C9866A",
"0X c #C98A6B",
"qX c #D18E6C",
"wX c #C8966A",
"eX c #C28B75",
"rX c #CB8C73",
"tX c #C88E79",
"yX c #CA9777",
"uX c #CC937B",
"iX c #D1957D",
"pX c #C9A777",
"aX c #D5A87A",
"sX c #CFB17D",
"dX c #AFA38D",
"fX c #B9A284",
"gX c #CB9884",
"hX c #D19A83",
"jX c #D19C87",
"kX c #C6A989",
"lX c #D2A985",
"zX c #CBB383",
"xX c #D5B787",
"cX c #DBBC8C",
"vX c #D4A695",
"bX c #E3BD8B",
"nX c #E1BD90",
"mX c #DEB8A7",
"MX c #BDCBBB",
"NX c #DEC08F",
"BX c #DDC292",
"VX c #E6C38E",
"CX c #E4C493",
"ZX c #EACA97",
"AX c #ECCA96",
"SX c #F2CD95",
"DX c #F2CE9A",
"FX c #F5D19D",
"GX c #F9D39F",
"HX c #D2C4AA",
"JX c #FAD5A0",
"KX c #FBD7A2",
"LX c #E9D2BD",
"PX c #D1CEC7",
"IX c #E8E1D7",
/* pixels */
"vXR.k.d.d.s.t.s.d.s.h.h.d.k.b.H.G.k.k.d.h.d.h.s.h.k.a.=.D.^.F.k.d.r.<.r.q.t.i.d.b.J.n.k.k.l.k.k.k.g.a.t.s.j.8.:.-X7X0.eX",
"gXF.t.t.r.0.q.t.u.u.u.u.t.k.F.L.H.l.h.s.u.h.s.h.h.h.<...f.R.g.q.r.<.0.r.r.t.t.t.j.j.i.u.h.t.s.s.s.q.0.0.r.t.8.;.b.H.&.,X",
"uXH.j.u.t.q.q.t.t.i.h.u.j.F.L.J.H.k.k.k.h.h.h.u.h.h.r.;.Y.(.g.q.0.<.0.t.t.y.t.t.j.l.j.j.h.h.h.h.h.r.0.0.t.h.0.O.0.v.*.,X",
"jX).l.e.q.q.t.t.t.t.t.u.k.F.H.n.j.j.k.k.j.h.h.u.t.u.0.+.F.R.g.q.0.8.r.t.e.t.0.t.j.b.v.i.j.j.h.h.t.0.0.q.u.u.0.+.6.b.*.,X",
"vX_.l.w.t.r.r.t.t.r.e.u.j.J.n.j.j.j.j.j.i.h.h.u.u.h.<...f.G.s.p.0.q.r.t.t.r.t.h.j.F.l.j.j.j.h.t.0.0.q.r.u.u.r.%.g.L.8.,X",
"hX^.k.u.t.t.t.t.r.e.r.t.j.n.v.i.i.j.h.h.u.h.h.u.u.h.<...N.^.s.0.8.r.t.u.t.t.u.u.k.l.l.h.h.h.s.r.0.9.t.e.u.u.q.O.<.F.8.,X",
"uXG.k.u.y.e.e.t.t.t.t.t.j.l.v.k.j.j.i.u.h.h.u.u.u.u.<.i f.F.t.0.r.t.u.u.u.u.h.h.h.k.j.h.h.s.t.<.0.0.u.u.t.h.<.w :.n.8.>X",
"hXL.k.t.t.y.t.t.u.t.t.u.k.G.l.u.i.j.h.j.j.h.h.u.i.<.y r R ' R Y -.2.t.u.u.u.t.t.t.h.h.h.h.t.<.>.8.r.u.u.u.t.q.>.D.E.*.>X",
"hXR.k.h.u.t.t.t.t.t.i.i.b.n.k.j.h.h.s.j.j.j.a.-.U M n N B B B B N P U 3.r.t.t.t.r.q.t.t.q.<.>.:.0.u.u.u.u.u.8.=.F.L.8.>X",
"jX(.l.i.j.h.u.u.t.t.u.i.b.n.k.j.h.h.h.f.z.E U n n z v c N c c V Z c C V L 4.t.t.q.q.q.8.>.>.:.q.t.u.t.t.t.h.<.w p.F.*.,X",
"jXR.b.j.k.h.g.k.g.g.h.j.b.b.n.v.k.k.x.! m ; n c l l h = % d # @ % l z Z B I 4.t.r.r.0.0.>.<.p.s.u.u.s.s.s.s.p.+.F.J.*.,X",
"U.X.O.w e 0 e 9 0 }  .$.+.u Y e e 0 L m = l z l l c c l K I / / K k @ f z C V e ..w i +.+... .0 0 0 0 ..X...9 2 e O.8 W.",
"~.6.i t t t e t y 3.3.3.@.5 1 J J Q n : h j f p Z }.j J Z.Z.T.T.T.#X] H p j B Q Y 7 7 w w =.Y Y E 3.3.3.-.u t y @.E 9 ~.",
"LXjX!.Y.!.>X>XeXgXgXtX8XY...m.) Q V b h h f z ( XX'.z S.,XfX,X<XgXiXaXsXz.% = V B.X.6.T.Y.!.8XeXeXtXtXtX9X!.-XtXgXgX!.vX",
"mXrXR._._.8X9X9XtXtX9XrXR.X.V. XV : g j f K P.R.P.T S ) #XuXyXyXrX9X6XiXxXA.% f ! $.Y.8X7X8X9X)._.8X8X9X7X_.9XrX_.9X_.vX",
"_.w.s.s.g.h.g.s.s.s.h.k.4.q B..Xn = h f D a.j.d.v.x.Q C ] h.d.d.u.l.j.w.aXxX( p l U N.).J.b.j.r.q.0.t.f.h.g.s.j.p.p.*.>X",
"0Xu.u.9.u.e.9.t.w.q.q.w.X.0 )  X: h f S p.w.u.w.a.] N l ! F %.e.w.w.u.e.n.xX=XS f D K.).l.t.9.e.9.8.*.9.9.u.q.9.9.e.&.,X",
"gXn.j.h.j.j.j.h.j.h.s.s.-.Y .XB = g d 1.h.h.h.h.h.x.~ ! T T 6.h.g.h.j.j.i.aXVXB.p z m.P.f.t.h.u.h.s.q.t.t.a.s.h.h.h.*.eX",
"hXl.h.k.l.j.j.d.h.h.h.u.#.T |.b h p K i.h.h.h.h.w.z./ q.h.k.d.h.h.h.g.5.9 &XCX=X@ j : > R -.t.u.u.r.r.t.t.s.h.h.h.s.&.,X",
"iXn.k.n.n.k.d.d.h.h.h.h.q.) '.= = d F v.h.h.h.h.h.s.N.j.h.h.h.h.h.y.R > O ;XnX$X% j = f ; ; P 4.u.t.q.t.u.u.h.h.t.i.&.eX",
"gXn.H.n.l.j.2.2.q.s.s.h.0.! A b = h 1.l.h.h.h.h.h.h.h.q.q.h.h.h.a.P ; = # 2XDX:X+ j % g g j & > 4.t.9.r.r.u.h.t.t.t.*.,X",
"hXL.L.J.k.t.1.<.0.t.h.h.0.~ '.j & F 0.j.h.h.h.h.h.h.h.h.s.j.j.a.P ; k # I xXsXS.# M P H a a j f ; -.9.q.9.r.u.t.t.i.*.,X",
"lXR.J.v.j.q.1.2.t.y.r.b.D.~ Z j $ Y 2.D.k.j.u.u.h.h.j.j.j.k.l.z.m j a # 4XDX:XJ f J -.P.S.( % a h > <.9.0.q.t.t.u.i.*.,X",
"jXL.G.j.a.8.1.y.u.j.2.,.yX.XC f - 1.$.:XVXaX6XJ.l.w.9.9.j.j.1.M & @ M 5XnXxX$X# S e ;.j.f.E.=XH % d i q.0.t.u.t.e.t.%.>X",
"jX^.l.h.s.q.y.2.j.n.I.2.%X}.Z n D $.z.VXKXAXZXAXbXwX6XwXI.x.@X[ ^ 2XzXDXVXA.k k -.w a.b.q.9.wX:Xk d J t.h.j.l.u.t.s.%.,X",
"gXg.p.p.,.<.a.z.a.c.2.%.2..XC b h Y 5.4XsX2XcXKXnXCXGXNX;XCXZXxXcXKXxXpX$Xk k 2.>.e 4.k.q.:.y.bX#X+ J 2.f.f.f.r.q.t.X.>X",
"Z.1 o 1 1 4 e 5 A.zX=X:X2.T |.N % T e 1 * H ] ;X=XpXxX@XxXSXZXkXpXwX$XL # = 9 ..9 < X.0... .} 2X5X* k 4 3 | w 9 e w 2 W.",
"W.y ' R E E Y 7 C.FXKXDXwXG Z B V }.T 1.@.Y E 6 * k K I ] C.C./ L = + S Y i u -.4.6.T.Y.f.f.4.2X2Xh k E M.D.3.5 t Y 7 W.",
"vXgXhXeX>X7XR._.@X5XZX4X4X'.[.V A }.~ [ y m.U.Q.!.<X( Y J j + s p k f.H.J.N.K.E.Y._.rX9X).6X-XbX2X+ / eXiXyXL.*.!.eXE.kX",
"vXgX8X_.E.Y.F.qXNX4X3X|.+XXX|.|.}.}. X XC B m r W.A.XXx.K.) n ~ l L b.H.F.G.L.J.L.R.L.G.n.v.6XcX] @ W (.(.R.g.r.7XrXL.jX",
"gXK.t.*.:.:.X.6XFX3X4X+X+XOX[.[.}.[.V Z ~ [.~ v d & B Z ! K b [.l Y h.t.q.u.w.t.j.j.q.7.t.| wXcXH f 2.q.e.8.:.=.r.k.&.>X",
"gXL.a.0.<.<.*.E.KX3XBX+XoX'.].-.! z k = d j l c c V b b n l B [.s Y h.u.h.q.t.q.s.q.<.4.} 0XxX] # U h.s.t.r.>.+.r.b.*.,X",
"uXk.r.<.0.0.7.d.xX5X4X5XsX3X[.[.}.}.N k D % @ % f c Z N : N ~ [.d Y e.9.0.0.q.0.7.<.:.%.%XlX=X@ H t.h.s.0.<.>.+.s.G.*.,X",
"eXh.0.<.0.q.q.o.2XCX*XFXKXAX[ ^ |.A XX&X2X1X[ x z = l Z V b [.[.f F 0.0.0.7.q.q.p.7.i.wXcXC.@ K f.h.h.s.0.0.0.,.f.F.*.,X",
"gXL.a.8.q.q.q.o.E.FX*XNXJXSX;XV ~ `.`.C.PXIXdXx A % h k Z V A  Xl Y q.0.q.q.q.q.7.g.aX5X! p J c.k.h.s.0.<.t.q.:.g.L.*.,X",
"hXL.a.9.q.q.q.q.$.pXCX*XDXcX@X5XdX+X&XPXPXMX+X'.s S @ + + s & x p  .7.7.7.q.h.*.F.bX@Xc p F h.l.s.s.s.q.0.t.a.;.g.L.*.,X",
"uXF.s.7.q.q.q.q.y.z.zX5X@XOXpXGXZXfXBXLXIXIXHXXX{ 5X2X*X@X1X1X*X5XpX6XH.b.e.o.v.wX;Xv l 1.u.u.j.h.h.h.t.t.j.s.0.F.L.*.,X",
"gXK.s.9.q.q.q.q.9.2.Q 5XZXBXDXDXGXsXDXFXVXAXFXSXZXCXFXDXCXZXJXZXSXKXAXVXGXsXP.aXzX~ z 6.j.t.u.u.h.h.h.j.k.b.j.<.f.H.9.,X",
"uXH.s.q.q.q.q.q.q.x.'.G =XnXKXFXNXNXFXSXFXSXFXFXJXzXDXJXZXnXKXAXcXAXVXsXFXGXVXDX4X# 6.G.h.h.u.u.k.k.k.l.l.H.d.=.,.b.*.,X",
"gXH.k.q.q.s.q.s.l.) .XsX@XK #XyX5XVXGXFXAXNXGXFXDXcXAXSXxXpXnXsX:XpXsX5XsXVXzXFXNX#XL.b.j.j.h.k.H.^.G.^.l.n.g.<.D.^.e.eX",
",Xd.,.;.:.:.<.<.s.! XXZXZXyX/ - J ] $XyX&X=XaXpX2X@X=XA.W I U k - k H I S.:X$XVXCXcX).:.r.r.d.d.F.N.6.4.t.d.4.=.g.D.X.<X",
"U.3 5 7 7 q q e 3 G =XKXGXDX-X< 6 o O     O . o o o O ; C v l % a f = % # $ ( :X:XsX$X< q X.%.;.X.w 2 5 w =.e 5 7 8 < W.",
"vXQ.Z.M.V.M.D.6.M.) =XDXFXcXS.Z.M.m.V.m.m.V.Z.U.B.V.m.` |.}.Z l k $ a j j j p - =XaXS.5.Z.K.D.D.N.5.5.V.V.4.;.6.D.Z.6.<X",
"LXvXhXiXiXhXyX9XqXS.A.xXBXbXpXjXiXuXuXtXyXrXgXuX9X-X` A }.[.'./ Q.] M d a j k # C.2X-XiXjXuXrX9X_.9XrXhXrX/.L.).rXiX_.vX",
"jXR.Y.R.(._._.E.(.A.=XJXFXFXwX!.L.(.R.K.K.K.L.L.J.' _ |.[.}.c M.K.R.x.1.D l l p C.C.B.0X(.^.L.L.^.^././.R.H.G.J.L.L.k.tX",
"tXu.*.9.k.G.G.b.v.f.$XCXFXcXpXwXh.u.h.9.*.e.j.l.6.n  X|.}.Z z.g.*.e.e.e.e.:.;.6.2X] S L.u.e.u.u.u.u.9.*.9.t.j.d.e.u.&.,X",
"hXG.j.G.L.L.F.j.i.q.P.xXxXAXZXpXH.^.F.k.b.J./.D.^ '.}.|.}.) D.h.h.j.h.h.g.h.k.l.E.:XH 5.n.v.j.j.h.h.h.j.h.h.j.j.j.k.e.eX",
"jXG.G.G.F.k.t.t.t.e.b.AXGXFXFXsX:X2.a.g.k.g.5.M '.}.'.{.C.E.u.h.h.h.h.h.h.h.h.h.:.P.A.j 2.j.j.i.h.h.h.h.h.j.h.u.j.b.e.eX",
"jXL.H.F.j.t.t.r.t.h.w.qXSXCXCXCXZX#X* 6 S z x V v ].) :XE.v.h.h.h.h.h.h.h.h.h.h.r.X.E.T.U F 3.R W a.d.s.h.h.h.h.h.l.9.eX",
"jXJ.l.h.s.s.a.t.t.h.h.h.-XxXCXFXGXxX$X[ k G XXXX*X;XlXwXd.t.s.h.h.h.h.h.h.h.h.h.r.<.Y.(.g.5.> ; ; _ W s.h.h.h.h.h.h.*.eX",
"jXG.j.h.h.u.h.u.h.h.h.h.2.wXDXGXFXNXCXDX2XpXxXpXAXpX%Xd.8.q.s.s.h.j.j.j.h.h.h.j.r.+.r.b.j.h.4.3.y 3.p.h.h.h.h.h.h.h.7.eX",
"gXl.h.h.h.h.u.h.h.h.h.k.4. .-X2XcXDXGXZXBXFXxXpXwXb.q.q.0.0.q.s.k.l.l.g.h.h.h.j.4.=.a.n.j.h.h.l.l.l.h.h.h.h.h.h.h.l.*.eX",
"jXb.h.h.u.u.u.h.h.u.h.l.4.9 #.G.6XaXaX=XpXwXI.H.h.h.q.0.0.8.0.q.h.k.n.k.h.h.h.h.q.>.N.^.h.s.h.h.h.h.h.h.h.h.h.h.h.h.7.eX",
"jXb.h.t.u.u.t.u.t.t.u.k.4.0 6.L.e.*.8.r.0.7.0.t.a.q.0.:.0.q.q.q.t.u.t.a.q.h.s.s.p.O.<.J.l.w.h.h.h.h.h.h.h.h.h.s.h.h.7.eX",
"jXJ.j.i.h.h.u.u.h.h.l.G.q.w U._.d.q.0.r.t.r.r.q.q.<.q.q.u.h.j.j.u.t.t.0.0.t.t.h.4.e 4.L.k.l.k.j.h.h.l.h.h.l.h.h.k.k.9.>X",
",X>.-.,.:.>.=.O.@.@.@.-.u 6 @.M.+...+.+.+.-.O.O...i i O.+.+.+.+.>.;.O.u e O.+.>.i 9 +.N.>.+.3.i u u +.+.+.#.,.4.>.>...~.",
"V., , 4 8 q 1 .   X X X X X 3 } 3 3 3 4 , X , < < , , o , 3 4 < 3 3 < , , < 3 4 < <  .| 3 o X X   X 3 3 < } i 9 1 2 X { ",
"fXQ.Q.T.Y.U.D.U.Q.Q.Q.Q.Q.Q.>XtX!.!.T.Q.U.Q.Q.Q.U.U.U.>.D.!.Q.!.!.Q.U.U.Q.Q.Q.U.P.Q.eXeX!.T.~.~.~.<XgX~.Q.eXU.8 Y U.N.<X",
"mXjXrXrX9X_.7XrXhXgXgXhXrX9XuXuX8X_.7X7X8XtXuXuX9X_.Y.&.!.iX_.9X0X7X_.9X0XrX0X7X8X9XtXrX9X9XrXiXhXgXgXrX_._.N.8 D.hX_.vX",
"hXE.H.F.F.F.G.K.K.K.K.F.g.k.k.g.s.g.d.k.k.K.H.H.F.g.0.X.K.(.j.g.g.k.k.G.k.g.b.b.F.G.l.G.l.G.F.F.F.N.N.p.4.<.@.6 N._.G.gX"
};
