/* XPM */
static char *_f1e20add8d44d7edd8b8f59cbb10c11H2WKTfgoxNeNbynu[] = {
/* columns rows colors chars-per-pixel */
"60 60 230 2 ",
"   c #010000",
".  c #0E0000",
"X  c #180502",
"o  c #2C0100",
"O  c #280600",
"+  c #340000",
"@  c #3C0100",
"#  c #350B00",
"$  c #3B1607",
"%  c #430000",
"&  c #4B0000",
"*  c #460B00",
"=  c #4C0C00",
"-  c #540200",
";  c #5D0200",
":  c #5C0B00",
">  c #4C1602",
",  c #4C1A03",
"<  c #471A08",
"1  c #531B01",
"2  c #541806",
"3  c #5B1C00",
"4  c #471D11",
"5  c #650100",
"6  c #6F0600",
"7  c #630D00",
"8  c #750000",
"9  c #611A00",
"0  c #681800",
"q  c #781A00",
"w  c #4F250F",
"e  c #56230B",
"r  c #5C240F",
"t  c #472516",
"y  c #5A2513",
"u  c #592917",
"i  c #6B2400",
"p  c #63230D",
"a  c #692709",
"s  c #712200",
"d  c #792A00",
"f  c #782802",
"g  c #732C0D",
"h  c #7C2F0B",
"j  c #652B16",
"k  c #6C2B13",
"l  c #732D13",
"z  c #742E16",
"x  c #6C3115",
"c  c #69321B",
"v  c #753113",
"b  c #773318",
"n  c #7C351B",
"m  c #7E391D",
"M  c #6C3B27",
"N  c #763C24",
"B  c #7C3B23",
"V  c #753E2A",
"C  c #7C432A",
"Z  c #6E4233",
"A  c #784937",
"S  c #831500",
"D  c #862700",
"F  c #822C01",
"G  c #982800",
"H  c #8D3706",
"J  c #963603",
"K  c #833514",
"L  c #8B3914",
"P  c #853719",
"I  c #813A1D",
"U  c #8B3B1B",
"Y  c #933B15",
"T  c #953F1C",
"R  c #A43903",
"E  c #833D23",
"W  c #893C22",
"Q  c #8D451C",
"!  c #9A421C",
"~  c #A7450B",
"^  c #A44416",
"/  c #AA4613",
"(  c #AC4A16",
")  c #AC471B",
"_  c #A2491D",
"`  c #AC4A1D",
"'  c #B3501C",
"]  c #864025",
"[  c #8C4425",
"{  c #83442B",
"}  c #8D452A",
"|  c #8E492D",
" . c #934323",
".. c #9C4625",
"X. c #9B4A26",
"o. c #93462A",
"O. c #9A4728",
"+. c #944A2C",
"@. c #9C4C2A",
"#. c #9D512F",
"$. c #874B34",
"%. c #8C4C32",
"&. c #844D3B",
"*. c #944F33",
"=. c #9C4F32",
"-. c #875039",
";. c #8E533E",
":. c #965135",
">. c #9C5233",
",. c #94543A",
"<. c #9F593B",
"1. c #A34624",
"2. c #A34A24",
"3. c #AB4B24",
"4. c #A34C2A",
"5. c #AA4D2A",
"6. c #B04E27",
"7. c #AC5125",
"8. c #A5512C",
"9. c #AB532C",
"0. c #AF582E",
"q. c #B35326",
"w. c #B2542D",
"e. c #B3592F",
"r. c #A44F31",
"t. c #A45333",
"y. c #AC5432",
"u. c #A85836",
"i. c #AD5934",
"p. c #A2563B",
"a. c #A45A3C",
"s. c #AC5B3B",
"d. c #B25432",
"f. c #B85733",
"g. c #B35B34",
"h. c #B95B34",
"j. c #B45738",
"k. c #B45D3A",
"l. c #BA5E3A",
"z. c #B76036",
"x. c #B6613D",
"c. c #B9623D",
"v. c #8B5643",
"b. c #885745",
"n. c #915643",
"m. c #955A43",
"M. c #9B5B44",
"N. c #A55C41",
"B. c #AC5D42",
"V. c #B55F41",
"C. c #95614F",
"Z. c #9B624D",
"A. c #966453",
"S. c #9D6451",
"D. c #9C6958",
"F. c #A36044",
"G. c #AC6344",
"H. c #A3644C",
"J. c #AC654A",
"K. c #AD694C",
"L. c #B56442",
"P. c #BA6542",
"I. c #BB6945",
"U. c #B3664A",
"Y. c #BB6649",
"T. c #B56C4C",
"R. c #BB6C4B",
"E. c #B6704E",
"W. c #BC714D",
"Q. c #AA6C56",
"!. c #B46E54",
"~. c #BC6E51",
"^. c #AE715A",
"/. c #B57256",
"(. c #BC7354",
"). c #B4745B",
"_. c #BB755A",
"`. c #BB7858",
"'. c #BB795D",
"]. c #AD7663",
"[. c #B37A63",
"{. c #B67964",
"}. c #BB7C63",
"|. c #BA7E69",
" X c #C16947",
".X c #C1724E",
"XX c #C36E51",
"oX c #C17555",
"OX c #C57A57",
"+X c #C27759",
"@X c #C37A5D",
"#X c #C47D61",
"$X c #C87E63",
"%X c #B78168",
"&X c #BB836C",
"*X c #BB8976",
"=X c #BE8974",
"-X c #C7805F",
";X c #C48164",
":X c #C98265",
">X c #C4846B",
",X c #CA856A",
"<X c #C58A6F",
"1X c #CC8A6D",
"2X c #C48B74",
"3X c #C38C77",
"4X c #CC8D73",
"5X c #CE9276",
"6X c #C6917C",
"7X c #CD937A",
"8X c #D19276",
"9X c #D2957C",
"0X c #D4997E",
"qX c #C69582",
"wX c #CD9A84",
"eX c #CC9E8A",
"rX c #D59B84",
"tX c #D49C84",
"yX c #D99D84",
"uX c #D49E88",
"iX c #D6A087",
"pX c #D5A18C",
"aX c #DAA28B",
"sX c #D2A591",
"dX c #DAA690",
"fX c #DCAB96",
"gX c #DDAF9A",
"hX c #DDB29E",
"jX c #DDB4A3",
"kX c #E5C2B0",
/* pixels */
"uXwX(.+X@X#XP.P.R.#X1X1X>X_.(.;X}.`.<X4X#X,X&X+X;X4X;Xu.wXsX$X1X#X.XR.x.i.L.c.-XwXpX5X;X;XwX4X$X,XrX1XP.'.,X#XR }.hX6X(.",
"#X(._ 9.8.2.5.8.9.3.3.1.3.d.k.k.k.0.3.3.5.3.3.3.5.7.2.z t. X9.r.5.X.@.@.5.5.8.3.9.e.w.w.w.5.8.9.8.5.1.@.4.3.1.H `.4X8.! ",
"/.L.9.w.4.4.5.d.d.d.e.d.g.k.R.(.R.x.i.d.d.g.d.d.d.g.8.b a.@Xj.d.8.@.@.3.9.9.8.9.f.c.k.g.d.d.d.d.d.d.8.4.9.9.y.W u.L.9.#.",
"~.~.6.0.5.5.9.0.9.0.w.d.i.P.~.P.l.L.k.j.d.d.d.w.y.d.t.T !.,Xu.4.X.@.9.9.9.9.9.9.i.g.z.e.d.d.d.d.d.8.4.5.8.9.y.W T g.0.@.",
",X;X' 0.5.5.9.8.8.9.9.q.k.I.I.z.i.g.k.x.g.d.d.w.6.d.=.P U.(.y.y.4.4.5.9.8.9.5.9.d.x.k.g.g.g.g.d.9.4.4.5.w.w.d.Q >.R.g.X.",
">X:X5.w.9.9.9.9.9.5.8.9.k.I.c.e.z.g.i.g.w.w.d.w.w.d.@.h y.I.y.8.@.5.9.8.9.9.5.d.d.L.c.d.w.g.d.9.2.4.5.9.w.w.d. .@.(.s.X.",
"oXXX9.d.9.9.9.3.5.9.9.0.i.c.g.g.i.g.d.d.d.d.d.d.w.w.=.K U.oX9.4.4.5.9.w.9.0.w.w.d.L.x.d.d.g.d.8.@.5.9.9.9.w.d.E L L.g.X.",
"(.I.w.0.8.9.8.9.9.8.9.w.g.x.k.g.d.e.g.0.d.d.d.w.w.f.>.z t.P.4.5.9.9.9.e.q.d.j.9.d.k.g.d.d.d.9.@.4.4.q.w.w.5.y.B L I.k.X.",
"_.oXw.d.0.9.9.9.q.9.9.e.x.P.l.g.d.d.d.g.w.g.d.w.q.w.y.n N..X4.q.d.9.9.7.q.w.9.0.w.9.d.d.d.9.@.o...5.9.w.w.w.9.T G.:Xk. .",
"`.oX9.g.w.9.8.9.9.9.q.d.L.P.k.w.d.d.y.d.g.d.d.w.w.w.y.T !.@X9.d.w.9.9.9.9.9.9.9.5.3.9.8.4.+.o...8.0.w.9.w.e.5.n r.~.g...",
":X@Xw.h.f.d.d.w.0.d.0.w.x.c.z.g.d.g.d.f.g.d.d.d.w.d.r.n 4.Y.f.z.k.g.5.9.9.5.0.9.5.5.4.4.o.[ ..8.w.d.d.9.9.d.y.n  .I.i.X.",
"_.'.0.j.i.s.s.s.i.i.y.i.x.s.z.s.k.l.j.k.k.h.g.i.d.g.r.n p.(.s.G.s.8.8.t.u.y.y.4.4.8.4.4...4.5.9.y.y.y.y.y.y.y.L F.+Xi.X.",
"S f e > & 2 1 % & 5 f K k 4 t 4 < % - a b k K U W P p @ 6 0 @ @ - & @ ; 7 i 9 0 i u j z v v s : - : 2 0 f g > o - 6 > = ",
"].].C C b.v.-.b.A.Q.S.M.%.e i N C ;.Z.C.$.$.;.:.>.a.*.n.A.D.b.b.A.Z.m.].Q.m.n.S.Z.g a C C | Z.Z.C.D.Z.S.H.%.;.b.D.C.v.;.",
"kXfX$X4X9XrX9XyXfXfXyXpX$XD }.0X2X0X0X1X:X1X1X#X@X:X@X8XuXhXaXaXgXyX8XgXpX7XuXfXrXJ K.7X;X5X0X0XrXaXaXaXyX1X9XaXgXyXyX4X",
">XY.U.(._.'.}.oX[.).+X#XG.q %X7X'.'.(.I.T.(.R.T.Y.c.L.T.T.}.&X}.|._.R.~.Y.R.|.#X!.f M.1X'.;X+XT.U.!.`._.!._.'._._.!.(.K.",
"e.7.3.` 3.) ` ` / 3.3.' Q y G.(.q.f.w.9.3.3.3.6.6.w.5.3.3.( / ` / 6.q.7.q.9.) ( 3.z a.$Xl.w.3._ _ ! ^ 3.3.3.` ` ) _ ~ ! ",
"(.x.w.d.g.g.g.d.j.d.i.g.} p E.1XP.x.z.g.d.d.j.j.d.y.d.d.j.d.f.f.d.d.g.g.z.f.d.h.t.n U.,XL.y.w.w.q.9.5.y.9.y.i.i.f.i.y.8.",
"(.c.w.d.s.g.w.d.d.d.y.y.[ k (.#Xd.d.g.i.d.d.d.d.y.y.d.d.d.d.d.d.d.d.d.d.i.d.y.g.y.l p.I.i.q.w.w.w.0.9.5.8.9.y.w.d.0.9.@.",
"oXx.d.x.c.g.g.d.d.d.d.d.@.n !..X8.d.d.g.d.d.d.d.d.d.d.d.d.d.d.d.d.d.d.d.d.d.d.h.u.l a.I.9.q.w.w.w.0.5.8.q.d.d.d.d.8.9.@.",
"oXx.x.I.x.k.w.y.y.d.d.d.r.U T.oXw.d.k.g.d.d.d.d.d.d.d.w.d.d.d.d.d.d.d.y.t.y.y.d.y.n p.I.w.q.w.d.w.5.3.9.9.w.d.d.w.9.9.X.",
"+XI.I.I.z.y.4.O.4.9.d.d.@.b u.I.w.x.c.g.d.d.d.d.d.d.d.4.9.w.d.d.d.d.d.d.y.9.y.d.d.Q t.R.y.d.d.d.d.9.5.9.5.9.d.8.9.9.9.#.",
"@X(.I.k.d.4.O.4.4.9.9.l.@.x 1.l.8.g.k.g.d.d.d.d.d.d.d.w.d.k.j.d.d.d.d.d.d.d.w.d.d.[ +.L.8.5.d.w.d.y.5.5.@.5.7.9.9.9.w.2.",
";XoXc.g.i.5.4.0.e.j.P..Xp.p t.P.5.9.y.d.0.y.d.d.d.d.d.g.k.L.g.d.d.d.d.d.d.w.0.y.5.c K i.y.5.w.w.w.d.3.5.4.5.0.0.9.g.q.O.",
";XR.g.y.8.4.5.d.w.z.T..Xt.p J.(.9.d.8.9.8.4.9.y.d.d.w.d.d.g.d.y.y.d.d.d.d.d.w.q.X.j O.P.4.5.9.q.w.9.7.5.5.d.d.0.5.8.4.o.",
"@X Xg.g.9.5.k.f.l.I.XX Xt.r y.OXc.c.l.g.y.w.d.e.g.f.l.j.g.j.f.f.f.g.f.k.g.g.h.l.u.z >.I.8.7.0.h.d.w.e.h.l.c.x.k.e.w.7.4.",
"F.%.{ E B [ +.+.+.p.:.%.N t E B.*.=.X.O.o.} o. .o.+.+.@.+.>.#.+.8.8.@.+.O.+.o.+.{ u W f.o. .+.o.o.o.{ { { *.o.} o.X.+.E ",
"&     o @ = 1 * 3 < X       8 q - s K v w > 1 w $ - @ w r j j j n E u p a y > a h ;  .k.U H F 0 0 f 0 - 5 F F $ , e , O ",
"].qX3X&X&X}.J.E.T.p.=.).[.|.sXsX6X>X`.G.a.!.).!.H.&X^.Y a.s.N.u.u.r._ B.T.t.B./.).;XeXwX+X>X&X=X6X2X|.6XeXuX>XY ,.[.K.a.",
"pXjXtXwX7X;X@X>X+X#X>X7XuXtXpXtX4X;XU.l.W.@X#X,X7XsX4Xg.;XOXR.oX~.R.P.~.W.I.+X@X!.OX+X@XW.R.;X5X7X1X$X,X8X1XOX( >XhX7X;X",
"`.`...9.@.O.@.5.5.5.5.4.r.4.@.X.O.O.@.9.0.5.5.x.k.f.=.m s.f.5.8.9.w.d.0.9.5.5.8.k.P.w.3.9.2.5.y.y.9.8.9.8.9.9.W t.I.y.@.",
"(.(.3.5.X.@.4.3.5.5.5.5.5.4.X.X.4.8.q.w.w.7.x.T.L.g.y.U B.k.9.9.w.d.d.g.d.y.w.w.d.d.5...X.o.5.d.y.d.d.d.d.9.@.E X.k.g.X.",
"(.I.O.@.o.1.5.5.5.5.5.5.3.5.5.4.5.w.d.q.w.d.P.R.x.z.8.m 4.j.w.w.w.9.9.q.5.5.9.5.4.@.o.o.....4.i.d.d.d.d.4.4.+.E O.R.i.X.",
"k.d.X.4.5.5.5.5.5.5.5.9.d.g.d.y.9.g.d.w.g.g.c.x.y.g.8.m t.l.9.9.9.8.5.4.@.4.3.4.5.2.5.5.9.3.y.l.j.d.d.y.4.@.4. .@.L.g.X.",
"T.T.X.5.5.5.5.5.5.5.5.y.d.0.y.q.8.d.i.g.i.g.L.s.d.d.t.n u.P.3.9.5.4.@.5.4.5.5.3.3.5.8.9.i.y.i.V.P.d.f.r.@.5.9.1.a.(.i.X.",
"#X(...5.5.5.5.5.5.5.5.8.0.9.0.y.d.l.L.g.g.g.c.g.d.g.X.x 8.P.9.9.5.4.4.5.5.5.5.8.5.5.e.d.d.d.d.d.j.w.y.4.@.9.d. .4.W.g.X.",
"T.I.1.5.5.5.5.5.5.5.8.y.0.i.j.k.L.I.L.j.g.k.d.d.d.d.] y @.k.5.9.9.5.9.8.7.8.9.3.5.9.9.y.d.w.w.d.g.u.y.9.8.d.j.2.s.W.g.X.",
"(.T.3.5.5.5.5.5.5.8.0.g.j.k.z.i.k.k.f.i.k.P.k.d.d.9.E 2 =.I.5.9.9.9.7.9.9.9.9.8.9.d.i.i.d.w.w.w.g.d.d.g.w.k.x.5.x.W.f.@.",
"`.XX3.8.5.5.5.5.9.d.k.P.x.d.0.q.i.g.w.g.k.k.g.g.9.9.W e t.R.5.9.9.9.9.9.9.8.9.9.g.R.W.z.d.d.9.9.d.j.g.c.L.P.L.Q I i.g.@.",
"T.T.3.8.3.5.5.9.i.l.P.L.g.w.w.w.g.x.z.k.k.g.d.f.d.9.+.F [.#X5.9.9.9.9.9.9.7.9.i.R.@X(.x.f.d.d.d.L.R.P.P.l.c.x.X.:.oXd.X.",
").(.5.d.9.8.i.f.L.U.V.i.y.g.y.i.k.L.V.j.j.l.k.i.y.O.| Y }.@X9.y.y.9.d.y.d.d.y.L.(.oXI.k.i.s.g.x.W.W.P.L.h.l.L...J.;Xs.X.",
"D i > i k l k v k 0 9 p r u , - = * o # O O 3 h r , % + F J l g g x j j g k h L  . .I y i L ..Q X.P w < g [ B e 3 f i y ",
"Q.A.A A C $.$.{ C b.n.$.A c Z b.A A A A Z A b.m.%.-.v.v.[.(.,.%.&.N M V A N ,.m.*.k & k -.,.p.p.o.{ c A &.[ n b ;.n.-.C ",
"kXgX9XrX9XwX7X:X1XaX9X4X:X! >XdX8X7XrX9X7X9XaX9X,X4XtXaXhXuX:X,X7X1X4XrXrX5XpXtX@XT N.wXaXrX4X1X;X1X1XyXtX@XI.oX5X9X9X(.",
"6X}.}.#X>X<X;X'.#X#XR._.U.h K.>X(.#X'.).}./.!.+XoXR.'.}.+XR.u.L._.}.;X3X>X;X&X+XI.H ^.pX;X@X'.(.(.+X$X&X#XoXR.T.(.(.(.B.",
"L.5.R ) d.c.I.P.f.g.e.q. .r a.`.3.g.5.^ ~ ^ w.j.6.5.3.3.3.4.4.5.) ) ~ ~ ~ ( / w.t.l p.W.9.` 3.q.6.7.` / ) 3.w.0.6.3.3.1.",
"@Xk.j.Y.(.W.P.i.y.i.f.k.>.v `.1XP.R.P.s.L.I.~.R.l.d.d.d.i.y.0.d.g.d.d.d.g.d.k.L.j.n a.+Xx.z.z.g.g.j.d.j.j.y.g.z.s.g.g.8.",
"@XP.P.R.L.y.y.9.8.9.d.g.#.k t.x.d.d.g.i.l.L.P.l.d.d.d.d.y.d.9.d.d.d.d.d.d.d.y.h.y.x >.`.g.w.g.g.d.d.d.d.d.g.g.w.g.z.g.4.",
";XT.c.c.i.9.9.9.y.d.d.d.@.y U 9.4.y.4.4.9.d.j.g.d.d.d.d.d.d.d.d.d.d.d.d.d.d.d.d.w.L !.,Xf.d.d.d.d.d.w.d.d.d.d.d.d.d.k.4.",
"#XR.k.d.y.9.y.8.w.d.w.j.=.y X.I.4.4.@.8.9.w.g.g.d.d.d.y.r.d.d.d.d.d.d.d.d.d.d.d.d.T (.>Xd.y.d.d.d.d.g.g.g.d.d.d.d.d.d.5.",
"+XV.d.d.w.d.d.w.d.d.w.g.@.l K.;Xw.y.3.5.d.g.g.y.d.d.d.e.4.5.y.d.g.g.g.g.d.d.d.d.u.B X.c.d.d.d.d.d.g.d.d.w.g.d.d.d.d.d.4.",
"oXx.d.d.d.d.w.d.d.d.d.l.*.l T.;Xd.g.d.w.w.g.k.d.d.d.y.9.4.4.5.d.g.l.k.g.d.d.d.d.i.n @.P.d.d.d.k.w.d.d.d.d.d.d.d.d.d.d.4.",
"@Xc.d.d.q.w.d.d.d.9.d.P.:.e 2.c.q.w.d.9.9.9.d.d.d.d.5.@.@.4.@.5.g.l.c.z.d.d.d.d.g. .G.OXd.d.d.d.d.d.d.d.d.d.d.d.d.d.d.4.",
"+Xl.9.y.w.9.9.9.y.7.9.x.+.2 p.I.8.8.8.4.@.4.t.5.y.5.O.@.2.5.9.3.4.5.0.g.y.g.y.8.r.B T .Xj.w.y.d.y.d.d.d.d.y.d.w.d.d.w.4.",
"#XI.d.w.d.d.e.e.d.g.h. X4.g [.:X3.9.5.9.9.8.9.5.5.4.4.9.w.d.d.g.d.w.8.8.4.8.d.e.y.c T +Xl.h.l.g.f.d.d.f.f.f.g.f.j.l.j.8.",
"U.,.+.>.4.+. .o.o.o.:.:.B u M.N.W [ [ [ [ [ o.} { E W  .o.+.+.+.*.+.[ B N { o.X.$.u } T.:.o.| | { { } | | | #.#.+.>.>.W ",
"3 o @ 3 i e @       X . X . 6 8 ; 7 7 - @ . o & % + o X % - : % ; 7 - @ + % ; 1 % % q G : + .       & 5 % 5 f u $ $ %   ",
").*X[.[.).).K.[.&X*X|.3X&X%XqXeX&X&X&X{.[.[.%X&X).).]. .K.3X|.%X3X}.).].|.=X&X^.Q.%X6XrX=X}.&XqX*X*XeXwX|.qX2XH g H.^.>.",
"jXhX4XrX8X1X1XpXfXfXpXdX4X5XiXeX1X1X2X,X5XuXaXpX5X4X#XR >XyX$X4X7X,X1X4X5X9X7X1X4X7X7X0X5X1X9XyXyXsXsXyX,X,X#Xf H.fXaX:X",
"T.W.y.s.s.j.j.s.B.s.s.s.0.i.8.9.4.4.8.e.i.s.i.s.u.y.4.F J.OX5.y.0.9.y.i.i.8.i.i.i.j.g.d.k.j.f.u.s.u.=.4.+.[  .t W oXY.t."
};
