/* XPM */
static char *result[] = {
/* columns rows colors chars-per-pixel */
"60 60 254 2 ",
"   c #2F160F",
".  c #29181F",
"X  c #520B03",
"o  c #491809",
"O  c #541808",
"+  c #4B1912",
"@  c #551914",
"#  c #671807",
"$  c #73110A",
"%  c #641C15",
"&  c #572711",
"*  c #5D2A15",
"=  c #682609",
"-  c #772A07",
";  c #692915",
":  c #782B14",
">  c #68331E",
",  c #74331C",
"<  c #783418",
"1  c #53262B",
"2  c #6B3726",
"3  c #753A26",
"4  c #7C3B23",
"5  c #702F38",
"6  c #73422E",
"7  c #794636",
"8  c #242E6E",
"9  c #4A2C57",
"0  c #562C58",
"q  c #6E314B",
"w  c #4F3A6B",
"e  c #374A79",
"r  c #5A4E51",
"t  c #74474D",
"y  c #434476",
"u  c #4F4D70",
"i  c #6E556D",
"p  c #8D190B",
"a  c #951A14",
"s  c #87340A",
"d  c #8C2D15",
"f  c #9C241A",
"g  c #982819",
"h  c #843A1D",
"j  c #883919",
"k  c #9B361A",
"l  c #A32C1C",
"z  c #A5321E",
"x  c #AA361C",
"c  c #B33D18",
"v  c #833B22",
"b  c #8B3E22",
"n  c #87302A",
"m  c #993824",
"M  c #892C30",
"N  c #A23321",
"B  c #A93722",
"V  c #A63924",
"C  c #AD3C24",
"Z  c #8B401B",
"A  c #9A4618",
"S  c #AC4705",
"D  c #A8471A",
"F  c #B3461D",
"G  c #A76115",
"H  c #B8761A",
"J  c #8C4124",
"K  c #86452A",
"L  c #934425",
"P  c #9B4523",
"I  c #9D4926",
"U  c #974728",
"Y  c #944A2B",
"T  c #9D4B2A",
"R  c #9B542A",
"E  c #864C3A",
"W  c #974D34",
"Q  c #8D553A",
"!  c #9D5233",
"~  c #99553A",
"^  c #A84227",
"/  c #A44C26",
"(  c #AB4B25",
")  c #A44D2B",
"_  c #AA4D2A",
"`  c #B24326",
"'  c #B44827",
"]  c #BB4C24",
"[  c #B54B2A",
"{  c #BA4D2B",
"}  c #A4512C",
"|  c #AA5428",
" . c #AC532C",
".. c #B1542D",
"X. c #BC522B",
"o. c #B85728",
"O. c #A44E31",
"+. c #A64938",
"@. c #B34F32",
"#. c #A35333",
"$. c #AD5431",
"%. c #AE5934",
"&. c #A55939",
"*. c #AC5C3B",
"=. c #B25532",
"-. c #B35A34",
";. c #BA5D37",
":. c #B45D3A",
">. c #9E6230",
",. c #A96727",
"<. c #B36928",
"1. c #B57727",
"2. c #A96438",
"3. c #AB633D",
"4. c #B96A37",
"5. c #B6613D",
"6. c #B9623D",
"7. c #B67732",
"8. c #C6581A",
"9. c #C15424",
"0. c #C55B27",
"q. c #CC6329",
"w. c #D46927",
"e. c #D46B29",
"r. c #DA752A",
"t. c #C77133",
"y. c #E27825",
"u. c #884B45",
"i. c #8B574B",
"p. c #985845",
"a. c #A54F40",
"s. c #A75F45",
"d. c #9D664E",
"f. c #9C6959",
"g. c #AB6142",
"h. c #AE6A44",
"j. c #A6664B",
"k. c #B56443",
"l. c #B96543",
"z. c #B16C44",
"x. c #BA6A46",
"c. c #B66649",
"v. c #B56B4A",
"b. c #BB6C4B",
"n. c #AF7544",
"m. c #B9754B",
"M. c #A76B55",
"N. c #B76B52",
"B. c #A87158",
"V. c #AC725C",
"C. c #B47657",
"Z. c #BC7254",
"A. c #BC755A",
"S. c #BD7A5C",
"D. c #865A6E",
"F. c #92686C",
"G. c #AB7966",
"H. c #B87B65",
"J. c #C5734A",
"K. c #C17658",
"L. c #C27B5D",
"P. c #C27E63",
"I. c #C87E60",
"U. c #BD811F",
"Y. c #BC8733",
"T. c #C48628",
"R. c #CB8D35",
"E. c #E8862A",
"W. c #ED8F2D",
"Q. c #F2972E",
"!. c #ED9733",
"~. c #F29B32",
"^. c #D7AA32",
"/. c #F8A635",
"(. c #FAAB37",
"). c #E4C139",
"_. c #BC826A",
"`. c #B28B70",
"'. c #BD8A77",
"]. c #C89844",
"[. c #C89456",
"{. c #DDB647",
"}. c #D7AC52",
"|. c #E1BD53",
" X c #C58265",
".X c #CA8465",
"XX c #C5856B",
"oX c #C9856A",
"OX c #C78A6C",
"+X c #CA896E",
"@X c #CC9266",
"#X c #C58A73",
"$X c #C58A75",
"%X c #CA8D73",
"&X c #C99279",
"*X c #CC937B",
"=X c #D49679",
"-X c #D3AE6C",
";X c #D8A67C",
":X c #DEC25B",
">X c #E6C857",
",X c #EBD052",
"<X c #ECD558",
"1X c #EEDA66",
"2X c #E7CC73",
"3X c #F5E772",
"4X c #064B92",
"5X c #04579C",
"6X c #3A4C89",
"7X c #2A518A",
"8X c #275A9A",
"9X c #2F6395",
"0X c #0E5BA5",
"qX c #275EA3",
"wX c #1563AA",
"eX c #0A6CB6",
"rX c #3071AD",
"tX c #414B88",
"yX c #6C5983",
"uX c #55698D",
"iX c #60739C",
"pX c #117AC6",
"aX c #207DC7",
"sX c #447BC2",
"dX c #897890",
"fX c #3087B8",
"gX c #5286AF",
"hX c #6E85AB",
"jX c #0A93D5",
"kX c #2695D6",
"lX c #1EA5E7",
"zX c #5A8DC3",
"xX c #979096",
"cX c #CD9782",
"vX c #D29B84",
"bX c #D09E88",
"nX c #C69E91",
"mX c #D4A28B",
"MX c #D6A896",
"NX c #D1AF99",
"BX c #E4AC88",
"VX c #EFB893",
"CX c #EBBA96",
"ZX c #D2B8A8",
"AX c #E1BEAE",
"SX c #ECD689",
"DX c #F5C29C",
"FX c #EAD390",
"GX c #F9EE93",
"HX c #E6C0A0",
"JX c #FACAA5",
"KX c #EDDCA4",
"LX c #FED1AC",
"PX c #9CB3C1",
/* pixels */
"NXvXP.K.P.P.b.x.Z.L.oX+XXXP.K. X_.S.XX%X XXX XP.P.+XXXc._.bX%XoXoXK.Z.v.k.k.v.K.*XbX*XoXI.*X&XoXoX*X&XK.Z.oXP...c.bXbXH.",
"cXZ.%. .%. ._ $.$. .=. .$.-.5.k.k.:.$.$.$.=.$.$.$.=.$.J ~ K.k.-.$.} T ) _ _  . .-.6.5.;.-.:.:.$.%.-.$.) O.$. .k 3.XXC./ ",
"#Xk. . .) / _  ...=.....$.:.k.b.x.k.-.=.@.....=.=.=.} h Y Z.:. .} T / }  .| | | ..-.-.-.=... .=.@.$.) / } |  .P ! k.-.I ",
"#Xx.=... ._  .$...$.=.=.-.5.b.x.l.:.:.:.-.=.-.=...=.$.L s.P.k.$.} T ) | |  . . .-.-.5.-.-.=.-.=.$.$.O.) |  . .L J  .-.} ",
"*XL.-.|  ._  . .|  . . .=.x.l.4.=.-.5.-.-. .=.......$.j &.A.:.O.} } |  .| }  . .=.:.:.-.-.-.=.=. ._ ) /  .....I L g.5./ ",
"vXL.;... ._  .|  ._ |  .-.l.6.-.5.-.-.5.=...-.......O.h T x.:. .} | R.7.|  . . .=.:.l.-.-...=.$.} ) _  .....$.I U g.l.R ",
"%XJ.-... . . ._ _  . . .-.5.-.-.....-.....=.=.=.....} h #.b.:.} ^ 7.1X].^  ...=.=.:.6.-...-.=.$.) )  . . ... .Y h %.5./ ",
"#Xx.:. . .| | }  .| |  .-.5.5.5.-.-.-. .=.=.=.......O.J ! l.%./ <.>X3XR._ ..=.=.=.:.-.=.=.=. .) T / ( .. . .@.L j %.5./ ",
"$XN.:.@. . .|  . . . .o.;.5.6.=.=.=.-.=.=.-.=...o.[ t.U.! m.R.T.:XGX3XU.| |  .=...$.=.=.=. .) U U )  ....... .P T N.x.) ",
"$XJ.:....... .|  . . .-.5.l.:.=.=.=.@.=.-.=.=...( 4.:XR.].:X>X<XGXGX:XH | | | |  ._ _ $._ T Y U / } =....... .L U v.x./ ",
"*XK.;.=.-.=.=..... ...-.5.6.5...-.=.-.=.-.-.=.=.[ }.<X{.<X<X1X3X3X2XT.,.,.}  . ._ _ ) ) T L U )  ...=. . . ...J h *.5.) ",
"&XZ.:.$.$.&.%.%.%. .%. .%.5.%.2.-.:.=.-.-.=.2.%.<.<X>X1X3XKXKXFXFX{.U.Y.>.}  .} ) _ ) ) U U / ) $.$.$. .$. .$.J Y c.3.I ",
"a.s < : # ; ; % # $ s j h > > > ; ; # : J < >.}.].<X{.,XGXKX-XFXSXH Y.].R s - - - , 3 < v h s - $ # = - s s < X # : : = ",
"H.p.6 2 3 7 3 6 7 Q ~ Q v & O ; > 3 E E K 3 R FX2X^.^.,XGX}.@XSX^.|.1XY.W Q 7 Q Q , = < , v E E E E E u.p.K 6 6 u.u.7 7 ",
"ZXcXH.C.H.$X_.$XcXcX&X$XA.j ~ C.C._.#X_.C.A.Z.-XSX^.^.>XSXY.-XKXGXGX|.,.2.n.H.*X#X} L M.C.C.XXOX#X&X$X&X#XP.H.XX&X&X'.H.",
"MXoXZ.K. XXX XoX#X#X X+XA.d j.*XOX X XK.Z.L.A.].}.^.^.{.{.U.2XGX3X>X1.Y.Y.7._.#XXXU ! _. X X XL.S.P.XX X XP. XXXOXP.P.H.",
"L.|  . ... . . . .| ..-.R ; ~ L.x.:.:.=.$.$.$.<.].|.}.Y.H T.).).^.U.1.T.U.D.i p._ j Y S.Z.5.-.| / ( (  . .$.=. ...( ) / ",
" X-... ...........[  . .U ; ~ L.x.:.=...=.=.' [.KXSXKX[.,.Y.T.U.H <.1.H R fXjX`.5.W s.A.b.....| | ( / /  . . . . .| | / ",
"+X6.=.=.-.-.-.=.-.=.%.%.Y ; s. Xl.-.-.-.=.@.{ 2X2X-XFX].2X[.G 1.,.,.,.,.A iXlXPXBXBXBXvX.Xo....... . .}  . .$.$.=.=.=.} ",
"+X6.=.:.:.;.-.=.=.=.=. .I h *.K.:.$.=.-.=.@.;.}.t.m.[.3.ZX[.U ,.H 1.,.| S t 9XNXJXLXJXDXVX=X6....... ._  . . .=.=...| T ",
"+X6.:.6.6.;.$.$.$.=.=.=.O.b s.K.:.=.-.-.=.=.@.-.=.J.`.`.[.7.d.,.H ,.,. .9.u.r vXJXDXFXJXLXVXb.[ .. ._  . . ...=.=. . .} ",
"%Xl.l.l.6.$.} ) )  .=.=.) h #.b.:.=.6.:.=...g.p.2.[.-XCX-Xh.3.3.n.4.>.) { +.t H.=XxXhXPXZXBX3. .;. ._ _ |  .=.$. .| | } ",
"&Xb.x.l.-.$.) T )  .@.$.O.4 P :.=.-.:.-.=.s.iXzXsXd.m.=X Xz.n.h. Xz.+.@.' B k / G.gXjXjXhXC.}  .=..._ _ _ _ .. .| |  .} ",
"&XZ.x.;.-.) ) } | $.:.l.%., L :.$. .=.-.o.D.sXhXhXi D %.I 3.m.3.g.g.+.` 9.C f l.@Xf.kXkX6XE | ..=... ._ ) _  . . .....} ",
"*XJ.5.%. .) / ....-.x.J.*., W c.%.} $. ...i dXMXHX@X^ [ ^ &.z.3.z.n.t %..Xb.g b.C.v.F.7Xw Y  . ..... .( _ _ =. .|  . .T ",
"*Xb.5... .}  .=.-.6.b.b.%.; W J.6.-.:. .$.t C.VXJXDXA.[ =.h.m.C.B.i e *X.X=.^ _ #.Y._.F.u.| .. ... . ...=.-.:.;. .| | T ",
"XX&.! R Y T #.#.#.3.g.s.Y & 6 l.g.%.$.) O.5 _.JXJXDX@X0.^ q uXi 9X5XhXHX=Xc ` } 2.2.z.S.*.U } } } O.#.! ! #.#.#.} | ) I ",
"u.o   O O = ; ; > > * +     X s : : j h 3 @ C.DXLXCXBXBX=X`.rXjXjXeXxXLXDX@Xv.C.j.Y 2.v.&.s s : - - - # # - s > ; ; < * ",
"i.7 t 7 7 E K 3 K , * 2 6 5 p.N.p.~ ~ Y K 6 #.;XJXJXLXLXLXJXZXlXlXjXPXDXDX;X Xn.h.v.n.3.R &.g.~ p.p.~ u.p.j.s.v ; 6 K 2 ",
"NXNXmX*X&X XS.P.S.Z.N.XXcXcXbXMXcX%XS.k.k.A.C.L.BXDXJXJXJXDXZXkXlXjXxX=X@Xm.#.&.v.m.C.&.k.A. X#X=X*XoX%XcXvX+X..g.&X#XS.",
"NX&X_.S.S.v.c.N.b.b.A.C.G._.H.H.Z.v.*.-.5.x.x.v.z.L.@X=X;X@Xf.5XeXeXi %.3.3.2.R U &.3.#.*.:.5.Z.S.Z.b.b.Z.Z.b./ g.%X+XZ.",
"#Xv.( D P P I ^ / ^ ^ D / D A A A P )  . .|  .5.3.x k D D D d 0 w 9 5 u.5 D ) ) } %. .) ) / / |  . ... . .| / J U  . .A ",
"OXv.$./ U U _ _ _ _ _ _ _ ) / ) _  . ..... .:.b.x.$.m q u q M M q 0 e 4X0 |  . ._  .T U U U /  .@.=.=.=.=.) T J L %.:.} ",
" X:.T T ) ) _ _ ( _ _ _ $.@.$.}  .$.=... .;.6.l.t.q.W 8 4X5X8X7X4X4X4X4X0 m  ._ ) / T T ) ^ ) $.:.=.=.@.$.) T L L *.5.} ",
"H.:.) T O.^ _ ( _ _ _ _ $.-.-. ._  .@.t.t.r.r.r.r.E.e.M 0 7X5X5X7Xw 0 q V V m _ _ ) _  . . .$.g.k.=.=.$.) T ) U T g.3.) ",
"#Xb.#.) _ _ _ _ _ _ _ @.-... . .@.t.t.!.~.~././.{./.!.X.g M M M n k x ] { C l z ^ _  . ...@.=.:.:.-.=.$.T ) $./ O.z.5.} ",
"%Xx.#./ _ _ _ _ _ _ |  . . .$._ @.W./.(././.~.{.(.(.~.r.` ' l x ] X.` C 9.r.t.X.C ^ _ ..=.=.=.-.;.$.$.} )  .$.) T k.5.} ",
"OXk._ _ _ _ ( _ _  .}  .-.%.%.{ E.(.(.(.(./.{./.(.~.Q.y.{ { l B { { ` ;.!.(./.~.E.0.[ o.......[ =.=.$.=. .$.:._ %.x.5.) ",
"$Xx.@./ _ _ _ _ _  . .5.-.5.O.0.~.(.(.(././.~.W.E.y.w.0.` B l N X.' X.!.(.(.(.(.(.!.r.r.o.[  ...=.=.=.-.-.:.5.$.T k.5._ ",
"XXv.$.) _ _ _ _  .$.5.5.5.=.^ ] E.!.!.E.r.r.e.r.q.9.C C B l a l [ { q.E.~.(.(.(.(.(./.Q.E.q.C _ :.:.:.k.:.l.l.R v #.:.} ",
"#Xb.%. .$. . ...:.l.l.6.;.=.` ] 0.0.0.0.{ 9.9.{ ' V N f l f a f B C ] w.Q.(.(.(.(.(.(././.~.w.z g.J.b.l.l.0.6.} ! Z.J. .",
"C.~ Y A U U T T #.! W T T b F 0.C 9.9.;.C l f f N N g p m m g a f B ` 0.r.E.Q./.(.(.(.(.(.(.W.F V %.a.W ! &.&.J K s.#.Z ",
"p.- O = = - - < ; = = = ; % 8.r.w.w.w.9.C N l a $ - # X < D j : p p a l ] w.E.Q././././.(.(.Q.r.9.D : o = Z 4 ; = - = * ",
"nXH.f.M.f.d.M.p.p.B.B.j.p.d 8.E.y.0.x B C 9.V M.j.j.f.G.'.$XB.j.d.p.W +.C 8.w.y.E.W.E.Q.Q.Q.W.y.e.r. .s.M.p.Y W d.M.B.p.",
"AXmX*X*X*X&X%X XoX*X%X+XC.g 9.e.0.B f { [ C +.P.I.I.*XcXvXcXL.K.XXXXOX#XH.c.+.{ 9.0.q.q.w.y.y.0.0.y.e.J.+X Xb.b.P.%X+XK.",
"cXN.c.b.A.L.L.A.K.Z.l.x.$.a [ 0.w.0.9.9.[ l N c.N.l.c.c.b.l.-.%.k.v.b.C.A.b.c.+.a a B ' X.9.9.X.9.e.r.q.9.l.l.l.l.l.l.3.",
".X( D F -.l.l.5.-.=.=._ F c [ r.y.r.w.9.{ C a =.-.[ [ / / _ ) _ ( F D S S F D =.$.g a l z C [ [ C 0.q.q.9.c ( =...( ( / ",
"&Xk.-.l.b.x.5.%. .$.-.$.] F C 9.' 9.w.q.C { V k.;.=.=.-.$.$.$.=.-.-.=.-.=.-.-.:.:.v m f z C B B C 9.9.9.0.c ( -.-.%.;.$.",
"&Xx.l.x.k.%.$. . . .$.=.T d a f C 9.y.y.` l B @.=.=.=.=.@.$.=.=.=.=.=.=.=.=.-.-.$.h Y V B 9.0.0.9.@.9.C 9.l C -.=.-.-.$.",
"*Xb.l.:.%. .}  . .=.@.-.W ; p a C C { 0.` f N @.-.@.=.=.=.$.=.=.=.@.=.=.=.=.@.=.$.A j.N.z { q.9.{ { 9.C l l C =.=.=.-. .",
"*Xx.-.-.$.$.$. ...=.@.-.) 5 9 0 q M M M V C a.0.=.=.=.$.$.@.$.-.=.=.=.=.=.=.=.=.$.P *.A.V N C C B B C C a q u.@.=.=.-.} ",
"%Xl.=.=.....=...=.=.@.-.) 5 e qXqXqX4Xq @.;.;.a.=.=.=.$.) ) _ $.-.=.;.=.=.=.@.-.%.J L *.@.V C N B z a a p tX6XW =.=.=.@.",
"%X6.=.=.=.=...=.=.=.=.:.O.2 yXaXwXeX8X~ =.$.-.=.=.=.=._ / ) _  .=.5.5.-.=.=.=.=.%.L Y l.-.V ` C B m n 0 0 w 0Xi  .=.=._ ",
"&X5.=.=.......=... ...:.W q yXaXeXeXu | $._ @.=.=.=._ ) U ) ) )  .=.5.;.-.$.=.=.-.U ! v.l.^ N V N M 6XwXwXtX8Xw T =.=.) ",
"%X6. ..... ....... ...;.p.i F.uX9X7Xt } ) ) ) $.$.) ) T ) _ _  . . ...%. .$. .$.$.b j k.:.=.=.=.=.+.u qXeXqXw w u...:.=.",
"*Xl.=.%.$.=. . . ...;.s.iXiXdXrX9X6X7 _ O.} } ) ) ) T _ _ =.$.$.$. .#.} T )  .$.$.4 v x.l.-.;.:.-.$.>.r e e y y tXa.-.@.",
"V.6 J J P J h 3 3 , 3 uXhXhXkXjXeX7X2 < v 3 < n < , , h v n h b b b v , > , 4 b v * : #.W v v 4 2 > < r 8XqXwX6X7Xu K 4 ",
"E X + = - ; o       + uXiXjXpX0Xe 1 ; % O     % O + +   + % ; @ % ; % @ + @ % % O @ : m : @   . . . o 9 5XeXeXqXtXqX1   ",
"'._.G.V.C.B.M.B.G.G.G.H.F.D.D.D.M.C.H.V.V.G.G.G.G.M.M.m ~ H.H.V.H.H.N.M.V.H.H.V.M.V._.$XXXV.G.G.`.G.'.G.i e 8X0XqX8Xi g.",
"ZXmX%X+X+X.X.X&XmXvXcXcX.XL..X*X#XP.P.I.oX%XcXcX%X XP.( N.=XoXI.$XXXI.P.oX%X%XoXI.+X&X&X%XoX%X=XcXcXbX*XS.M.i.q u D.$X+X"
};
