/* XPM */
static char *result[] = {
/* columns rows colors chars-per-pixel */
"60 60 254 2 ",
"   c #020002",
".  c #1E0B00",
"X  c #260301",
"o  c #3C0100",
"O  c #370902",
"+  c #3A1411",
"@  c #4A0101",
"#  c #550500",
"$  c #4C1804",
"%  c #5A1600",
"&  c #780E03",
"*  c #641700",
"=  c #592409",
"-  c #522914",
";  c #692908",
":  c #73310A",
">  c #693218",
",  c #77391A",
"<  c #783C25",
"1  c #71342A",
"2  c #74461A",
"3  c #52453B",
"4  c #6F4B2E",
"5  c #7A4529",
"6  c #794C35",
"7  c #7F6938",
"8  c #3C3464",
"9  c #533555",
"0  c #722F4A",
"q  c #563B6A",
"w  c #234D77",
"e  c #544856",
"r  c #744D4F",
"t  c #4F5170",
"y  c #685067",
"u  c #56607F",
"i  c #706C74",
"p  c #841708",
"a  c #912B05",
"s  c #8A2818",
"d  c #962D18",
"f  c #86371B",
"g  c #98351C",
"h  c #A13D0D",
"j  c #893721",
"k  c #973726",
"l  c #9B3B24",
"z  c #8B3534",
"x  c #A13B26",
"c  c #954A0E",
"v  c #A94E15",
"b  c #A56705",
"n  c #A7691C",
"m  c #AE7310",
"M  c #B57519",
"N  c #844325",
"B  c #84452A",
"V  c #8B4529",
"C  c #884928",
"Z  c #8C4B2C",
"A  c #9A4825",
"S  c #944D2C",
"D  c #9B4D2C",
"F  c #8B552C",
"G  c #95512E",
"H  c #9C512E",
"J  c #975829",
"K  c #854A37",
"L  c #8C4C31",
"P  c #944B34",
"I  c #895535",
"U  c #945332",
"Y  c #9D5432",
"T  c #965A37",
"R  c #9C5B34",
"E  c #9C5B3B",
"W  c #A34225",
"Q  c #A74A23",
"!  c #A3442A",
"~  c #A34C2B",
"^  c #AA4D2D",
"/  c #A1532E",
"(  c #A85429",
")  c #A3582F",
"_  c #B6592A",
"`  c #A64B33",
"'  c #A35632",
"]  c #AA5533",
"[  c #A55934",
"{  c #A85A36",
"}  c #A45D3B",
"|  c #AA5D39",
" . c #B15632",
".. c #B35932",
"X. c #B95E31",
"o. c #8C652D",
"O. c #9B6429",
"+. c #8A6737",
"@. c #966735",
"#. c #9C633A",
"$. c #9A7335",
"%. c #A56728",
"&. c #A46D2B",
"*. c #BA642B",
"=. c #A6712C",
"-. c #AB742B",
";. c #AD7729",
":. c #B47925",
">. c #B57D2A",
",. c #B87F2A",
"<. c #A46439",
"1. c #AC613D",
"2. c #BA6535",
"3. c #A87734",
"4. c #B77636",
"5. c #C4660E",
"6. c #C5672C",
"7. c #CD772B",
"8. c #C36A32",
"9. c #CB7735",
"0. c #D27933",
"q. c #895A45",
"w. c #925B43",
"e. c #945B55",
"r. c #A55C44",
"t. c #996648",
"y. c #926C4E",
"u. c #976956",
"i. c #9C745B",
"p. c #A46242",
"a. c #AC6543",
"s. c #AC6945",
"d. c #A66848",
"f. c #AD6B4C",
"g. c #B16643",
"h. c #B16946",
"j. c #B26C4B",
"k. c #AA7448",
"l. c #B47C45",
"z. c #B3704E",
"x. c #A46C53",
"c. c #AB6E53",
"v. c #A76E59",
"b. c #B16D51",
"n. c #AD7254",
"m. c #A77559",
"M. c #B47353",
"N. c #B57955",
"B. c #B4765A",
"V. c #B57A5C",
"C. c #B97B5D",
"Z. c #9A7565",
"A. c #8B7472",
"S. c #A77965",
"D. c #B67E64",
"F. c #BA7D62",
"G. c #B98409",
"H. c #B9812B",
"J. c #B88429",
"K. c #AB8738",
"L. c #B78735",
"P. c #BC9439",
"I. c #DE9F26",
"U. c #DB8837",
"Y. c #C69837",
"T. c #CF9238",
"R. c #E18D37",
"E. c #E5973C",
"W. c #D0A938",
"Q. c #D3A93A",
"!. c #B48844",
"~. c #BA9848",
"^. c #AD8F51",
"/. c #B8825A",
"(. c #BAAA56",
"). c #AB816B",
"_. c #B68566",
"`. c #BB8265",
"'. c #BC856B",
"]. c #BE8A6D",
"[. c #BD8B73",
"{. c #A29772",
"}. c #B49173",
"|. c #C9944D",
" X c #E99E40",
".X c #C9A545",
"XX c #D5AB43",
"oX c #D8B448",
"OX c #C6AF57",
"+X c #D7BA57",
"@X c #EDA542",
"#X c #EEAB45",
"$X c #F1AD46",
"%X c #F3B047",
"&X c #F5B348",
"*X c #C1886A",
"=X c #C28D73",
"-X c #C38F79",
";X c #C49175",
":X c #CD9874",
">X c #C4937B",
",X c #C8987A",
"<X c #D0B272",
"1X c #E0A878",
"2X c #DCC357",
"3X c #E3C958",
"4X c #EAD153",
"5X c #D9C866",
"6X c #DAC973",
"7X c #E5D26D",
"8X c #E9D868",
"9X c #F4E66C",
"0X c #EEE375",
"qX c #F4EA74",
"wX c #FCF57B",
"eX c #0A4E91",
"rX c #34568E",
"tX c #356195",
"yX c #085BA6",
"uX c #2F5DA4",
"iX c #0A67B4",
"pX c #296AB2",
"aX c #445785",
"sX c #576C8D",
"dX c #63799D",
"fX c #64859E",
"gX c #6C84A5",
"hX c #2B93D5",
"jX c #34AAEF",
"kX c #4A9AD0",
"lX c #6895C7",
"zX c #AC9287",
"xX c #ABA6A7",
"cX c #C79984",
"vX c #CA9B84",
"bX c #CDA28A",
"nX c #D7A986",
"mX c #D2AE95",
"MX c #E1B28F",
"NX c #E7BB97",
"BX c #DCBDA5",
"VX c #DECF85",
"CX c #EBC897",
"ZX c #F1E98F",
"AX c #FBF883",
"SX c #FDF99A",
"DX c #F4CCA7",
"FX c #F2CCA8",
"GX c #FAD1AC",
"HX c #FCF4A4",
"JX c #FFFEB6",
"KX c #91ABCB",
"LX c #EDDDD5",
"PX c #FFFFC8",
/* pixels */
"cX'.z.N.B.M.1.a.b.C.F.F.B.M.B.C.B.B._.F.B.C.B.M.F.`.f.p.-X-XF.F.N.f.s.} } 1.s.C.>X>X`.C.D.=XF.C.F.=XB.h.b.F.c.A ].bX_.].",
"F.a.H [ / H ' [ ' ) / ) { | a.a.a.{ ' / ' ' ' ' ' { S < p.b.[ [ ' S S Y / ' Y { | 1.| { { { } { ' ] Y Y Y ' A A N.'.H t.",
"f.1.) ' D H ' [ ] [ ' { | a.M.z.h.| | [ { { { { { | Z 5 f.M.{ [ D S H H ' H ) ' ] 2.| <.[ { ] [ { ' U D ) [ H C ' 1.A x.",
"B.s.) ' ' / ' ' [ [ [ { 1.j.f.s.a.a.a.| { { { [ { [ S S B.C.P k @.$.H ' ' <.A 3.!.{ 1.{ [ | ] { [ U D ' ) [ H < S 1.J m.",
"'.M.( ) H / ' R Y ) ) { a.z.1.1.{ 1.1.1.{ { ] ) ' { Z C c.r.<.+XOX+.[ ) H k $.0X(.` 1.| | { { [ Y D D ) ) [ ' V E j./ x.",
"*Xj.( [ ' H ) / ' / ) { 1.h.1.<.{ <.{ { [ { { ' [ [ B j r.<XAXqXK.G H A 3.OXZXqX1.r.g.| { <.{ Y H H ' ) ) ../ C T f.Y x.",
"M.g.[ [ ) ) / / ' H [ { 1.1.1.{ { | { ] ] [ { { ^ l.+.< 7XwX8XL.N A !.OX0XAXwX.XE h.a.| | | [ Y H H ) ) ) ] Y < V a.H x.",
"M.g.[ ) Y ) R ' ) ) ) { 1.g.| { { <.| { { { { ] ' OX+.(.9XW.G.Y.5X5X+X4X9X8XXXo.P ! x ! ^ { R S D H )  .) [ / < G j.H d.",
"V.h.[ ] [ ) ) ) [ ) ) | g.g.| { { { { | { | { A !.8X$.W.3X7XZXSXAX7XP.oXXXJ.O.~.+X6X5X(.k.j f Z G ' ' ]  .[ / V d.C.[ d.",
"C.j.' | ] [ / ) ) ) ] 1.a.a.| { ] { ] { { { ' =.ZX5XJ 7XSXJXZXSX2Xc ;.J.G.J.P.W.oX3X0XqXwX5X!.A D ' ' ) ) [ S N U j.Y x.",
"*Xz.{ 1.| | { { { { [ 1.h.g.1.<.| | | | 1.1.v VXHX&.L.8X6X7X9X4XO.P.7XZXHXHXAX0X5XXXJ.Y..X2X2XOX!.[ { [ [ { H < T j./ n.",
"c.p.Y Y U U U U G H Y ' E E T T E Y Y Y k.^.K.JXVXb 4.M W.4XoX;.3.oX7XHXPXPXJXSXwXqX+XJ.;.M J.Y..X~.@.D D Y Z < T a.V y.",
"a ; $ $ % = $ @ # ; f , > $ - $ $ @ > # (.P.2XwX;.b L.XXoXL.M &.H.oX4X4X8X5XOX|.;.3.L.3.;.;.$.5 , 2 - : : > $ o * * @ r ",
").u.6 q.q.q.q.y.i.v.u.t.5 - < 6 K u.q.<XZXn OXW..X6XqX3XL.:.=.,.Q.2XoX4.;.n b %.-.;.%.&.%.%.$.^.^.i.y.y.u.w.q.u.Z.u.q.Z.",
"mX=XF.].>X>X>XcXvXvXcX-XE C _.[.[.[.}.SXVXc .XCXJXZXXX3.>.J.H.Q.P.J V F J -.>.H.H.=.&.>.Y.+X8XwXAXAX0XVX,XS.=XcXvXcX=XcX",
"D.f.f.B.V.V.B.V.D.B.C.B.L B [.].D.B.^.8XY.3.AXJX7XG.A b b %.K.4.%.=.L.L.P.P.!.3.n H.Y.Q.4X3X3X3X5X9XwXAXwX6Xc.V.F.c.f.D.",
"[ ( / ( / Q D ~ Q ~ ( H , < c.M.' ] #.OXY.2XwX2Xb O.P.6XVXqX8X+XL.K.L.XX+X8X0X0X5X.XoXXXT.,.:.:.M J.Y.XX3XqXOXd ( D c t.",
"z.| ' { <.{ { ] [ [ [ E 1 < F.B.!.5X.XK.J.+X2Xn n 5XJXJXHX8XY.3.=.:.b m M J.P.oX8X0X~.O.&.&.=.>.H.:.;.;.%.W.2Xs./ { Q k.",
"z.{ ] 1.<.| { } | { [ Y , 6 V.b.(.OXI _.CX1Xk.4.8XSXHX3XI.M A.nXMXNXnX*X4.>.:.M M XX+X3.-.;.-.=.&.&.=.O.o.F P.!./ | ( x.",
"z.1.1.1.1.{ [ { { { { [ N F N.s.3.$.<.CXGX,XN.+X8XoXm m o.dXhXBXDXNXGXGXnXk.O.=.&.%.=.L.-.,.>.>.>.;..X0X7X~.F 3.[ [ A x.",
"z.a.a.g.1.{ [ ' ' [ { } V L M.h.<.$./.nXzX^./.^.J O.=.&.$.i.y.7 `.CXCXNXFXnXO.:.;.;.=.%.O.;.,.>.>.>.L.3XwXAX(.P { [ A m.",
"N.h.j.g.| Y H G Y ' ` } B N 1.a.{ <.}.nX<X;XN.<.#.O.-.>.:.m 6 9 ;XMXnXDXGXnX%.>.L.,.,.,.;.>.>.>.J.>.>.M Y.3XqX~.A [ A x.",
"C.z.h.1.[ H G H Y ' | } B < ' 1.<.c ,XLXmX*Xs.@.p.k.H ) H ^ w.r k.E nXFXMX`.n >.>.>.>.>.>.>.;.&.=.>.>.,.>.M XX2X<.' ( x.",
"C.z.1.{ R G H ' { 1.j.j.5 , } 1.A O.{.CX_.#.s.N.k.z.S ^ 9._ d v O.f.zXfXA.<.:.,.,.,.,.,.>.=.>.>.=.&.&.&.&.=.;.Y.L.( J x.",
"C.h.| [ Y H ' { | a.M.h.B < x.1.i.kXhXA.H.{ p././.N.`.Y 5.|.b.g O.k.:XnXZ./.L.>.,.>.,.>.,.;.&.H.,.,.>.>.;.=.+.3.K.' A u.",
"C.s.[ ' Y [ | | a.j.z.g.5 1 d.x.kXlXxXdX9.9.Z d./.'.|.Z.e.1XN.s O.<.N.:X1X].n H.>.,.>.,.,.,.&.>.,.>.,.,.,.,.$.+.$.{ A x.",
"I 4 5 < < B C B I I K 5 - - c {.fXmXGXCXa._ ] D.nX1XzXdXBX1Xa f o.n T /.;X_.b H.>.,.,.>.,.,.=.=.,.,.,.>.:.J.3.I B F f w.",
"@   X O $ - = = = $ .     + p t u <XFXGXnX_ v A.mXKXhXkXNXnXQ P 6 o.&.O.@.<.=.J.,.>.>.,.>.,.,.=.&.=.>.:.>.J.J.4 $ ; $ 3 ",
"Z.}.).S.S.x.t.d.t.U w.Z.Z.).,XzX{.CXGXFXnXnXnXNXNXKXjXhX}.NX/.].y.+.$.=.O.>.;.=.>.H.,.,.,.>.,.>.:.&.+.K.;.,.>.F q.S.w.S.",
"mXbX>X>X*XC.F.F.C.B.`.-X>XcXvX,X).MXGXFXFXGXGXGXNXzXhXhXe.].d.k.k.@.$.y.$.-.>.:.O.;.,.>.>.,.>.,.J.J.3.).^.;.:.+.].vX*X=X",
"D.c.' } Y P Y } { [ E } r.} R Y J y.MXNXCXNXMX:Xl.e.yXeX< D F U F I #.| } @.@.$.O.K $.>.,.>.>.>.>.H.Y.$.#.$.=.I p.N.[ v.",
"B.p.A D S S D D D ~ D D D A S S H J y.p.<.N.k.Y 9 eXeX9 k ^ ^ A C [ [ ' ] } ' #.@.+.+.$.>.>.,.>.>.XXoX@.' @.7 5 G <.A x.",
"b.} S Y S H P / / / ~ Y ' ' Y Y ' { R C A g ^ _ z 0 1 x h h v / R ) ) [ Y / / ~ D Y S I $.,.,.>.>.oXW.@.Y U 7 < Y h./ v.",
"a.' S S H ~ ' / D / Y ' [ | { ' ' [ ] <.A 1 1 z z z k P y q 0 R ) / / H Y D H / H H H H o.>.,.>.H.Q.K.T Y U D V U h.H x.",
"c.} S Y / / ' / ` ` ' [ } { / H O.<.<.R F 0 t 8 q eXeXeXyXyXt n ' D D H D H Y ~ D H ' [ @.;.,.>.J.Y.@.U D Y ' D } j.) x.",
"C.a.D / D ' D / D / Y R [ 3.4.T.9.2.4.{ g Q W Q g z 0 y t eXy J / Y D H Y ~ / / ' ' ' ' @.:.,.,.>.$.E H S [ Y Z E k.) x.",
"M.} D / / / H H R <.Y.T. X#X#X@XE.E.R. X9.` .. .l g Q v v ~ D G ' ' ' / / / / H / H [ <.$.,.>.3.$.E { ' ' [ [ D <.z.( x.",
"M.} D / / / H T T.#X$X%X$X%X$X#X$X%X$X#X$X9.] ^ k W ....! x W j F ' ) ) Y ' ) / [ { t.+.=.$.@.@.} ] [ | [ a.| ' a.z.( x.",
"B.a.D H D ' U 4.@X#X$X$X%X@X@X#X&X%X&X@X@XR. .x g ^ ..! A 6.8...H F F [ <.) ) ) 1.j.k.#.#.E ' ] | } | g.a.h.<.B Z p./ x.",
"M.a./ ' ` ' G 9.&X#X%X$X$X$XE.U.U.R.R.U.0.8.X.! g ] ..^ 6.8.U.#XE.U./ , C F [ 1.M.C.M.1.| ] | [ h.j.h.g.g.g.1.Z T M.] x.",
"n.<.H Y Y Y V 8. X XR.U.0.U.U.0.6...x ^ ..^ ! x k ^ !  .] 9.%X%X%X%X XU.( A U p.b.M.d.E } } } a.z.f.a.<.[ a.} Z d.M.Y i.",
"f ; = > > , , W X.8.0.7.6.8. ...2.8. .W !  .^ s s l `  .]  X&X$X$X#X$X&X$XR.4.F U S < > : V S Z Z N > - , Z 5 - > , ; r ",
"y.q.6 6 K 6 : _  ...X._ l j l s a x ! ^ ! l d & s ^ .. .^ 0.#X#X$X$X#X$X%X%X@X2.4 > # 2 I w.E T K 5 > 6 K B < 5 K I 5 q.",
"mX[.[.[.;Xi.h 0. .! Q l k g d w.t.w.V V j L x.t.j f p k A ..8.E.#X%X%X$X%X%X%X0.j 5 t.[.cX=X'.`.D._._.-X[.M.s.n.].>X_.'.",
"cX`.`.'.].d.v 0.U.9._ g ^ W L _.`.`.m.m.x.m.D.C.n.d.w.T D ^ *.8.U.E.E.#X@X@XR.X.( *.m.,X].F.F.B.B.F.*X].*XM.j.M.V.F.M.D.",
"a.H Q | t.*._ _ 8...x ^ ] W ' t.{ | { / / ' | a.| | } <.T U V s l ! X.8.2.6.X.] *.0.*.U R ) { ] [ { ^ ) ( [ | { ' ) Q v.",
"j.| [ j.t.Q ^ x 6.8.7.X.^ A d U s.g.1.{ 1.s.j.a.] [ [ [ [ ' E U j s l ~ ` ]  .] _ 0.7.v J <.<.{ | [ ] [ ] { { <.{ <.D c.",
"B.a.h.M.<.S k X.0.0.X.9._  .~ T a.1.} | a.h.h.a.| } ] { [ [ [ } <.C s s d l l x  .8.( 6.*.R 1.{ | [ ] ] | { | { <.1.) n.",
"C.j.g.a.{ T C g g k ` U.7.d S R ' H H H [ 1.1.{ } ] ] ' ] ] [ ] { } S g ^ _ X. ... .k X. .Y { { ] { | ] [ } ] ] [ r.) c.",
"V.a.a.[ Y [ R 1 p h v 6.X.f I <.H G H H ' { <.{ ] { } } Y [ ] { [ { T f ^ 8.8.^ ^  . .x D ' { | { ] [ | | ] ] } ] | ( c.",
"M.| | ] [ | ( y uXt 0 r 5 5 B.n.' ' H ' { { | { { ] { ' P ' { { { | } G l ~ ^ ~ x k x s 5 { { [ { { { ] | | { { { ] ~ c.",
"M.| { ] { v &.y iXpXiXtX2 B B.M.{ { ] [ { } | { { { ' Y Y D ' { | 1.1.#.~ ^ g x x s p p rXt.( | } ] ] } [ } ] { [ | / c.",
"M.| | ( } ).fXdXaXtXtXt 2 > } a.) [ ' ' ) { { [ { ] H G H D D ' 1.1.1.1.U ~ ^ j 3 q rXaXrXi ( { } [ { { ] { { ] { { ~ c.",
"M.{ ' <.gXgXlXkXuXtXtXu 2 > p.a./ ' H Y H H Y ' ' Y S S D Y D ' / [ 1.{ [ F G J y yXpXuX9 w t.) ] ] ] { { { ] } ] | ~ v.",
"M.1.{ u.dXkXhXhXpXpXyXsXc 6 F.z./ H Y Y ' Y Y Y D H D ' ' { | [ [ [ Y U Y [ #.{ J t rXt e uXsX%.} { ] | | | { } | | ) c.",
"t.T U T r u y 9 e e e 4 > 1 t.w.N C B Z C C B V B 5 B V L L L L S Z B 5 < B Z S N 3 tXpXuXrXyXr j 6 L L L S U P G U V u.",
"% o $ ; : % @ . X X O X   o & & * * % # o X o # @ o O + # * % # * * # o o # % = @ $ rXiXpXaXpXw     # # @ * : > - - O 3 ",
"i.i.u.x.u.t.q.Z.Z.u.Z.Z.u.Z.).).v.m.i.u.u.u.i.u.u.u.I 5 t.S.u.v.S.u.u.u.u.S.v.e.t.Z.i.t eXrXw i Z.Z.zXD.S.).c.: > q.r e.",
"mXvX=X;X=X*X=XvXbXvXbXcX=X;XbXcX].].*X*X>XcXvX,X=X*Xf.' =X>X*X-X-X*X*X*X-X,X=X].].>X,X}.m.m.).,XbXvXbXvX].=Xm.a t.cX;X=X",
"`.B.s.M.f.j.b.n.B.n.m.f.s.s.d.a.} r.a.a.s.n.n.c.a.a.S B B.B.| p.a.p.s.h.s.a.s.s.s.j.s.k.z.z.M.b.c.c.a.r.T T B - w.`.M.F."
};
