/* XPM */
static char *result[] = {
/* columns rows colors chars-per-pixel */
"60 60 250 2 ",
"   c #380401",
".  c #310D07",
"X  c #2A1916",
"o  c #38241C",
"O  c #470301",
"+  c #550501",
"@  c #4B1608",
"#  c #561802",
"$  c #620901",
"%  c #721408",
"&  c #572306",
"*  c #572618",
"=  c #5F311A",
"-  c #6B2706",
";  c #752C03",
":  c #672C16",
">  c #7A2B17",
",  c #6E3319",
"<  c #753318",
"1  c #7C341C",
"2  c #7C3A1E",
"3  c #6C1B38",
"4  c #552C25",
"5  c #6C3125",
"6  c #7D3C23",
"7  c #773828",
"8  c #6D3236",
"9  c #7D4C35",
"0  c #79493B",
"q  c #233759",
"w  c #58284F",
"e  c #6E324E",
"r  c #36517D",
"t  c #534455",
"y  c #714A51",
"u  c #58466B",
"i  c #4E4F72",
"p  c #484679",
"a  c #6B4E6A",
"s  c #6A597A",
"d  c #6F6471",
"f  c #93180E",
"g  c #913208",
"h  c #8A2818",
"j  c #982719",
"k  c #9E2B1B",
"l  c #873818",
"z  c #843A1D",
"x  c #953619",
"c  c #A42F16",
"v  c #A22B1B",
"b  c #AC3712",
"n  c #A4321E",
"m  c #A8391B",
"M  c #902D2A",
"N  c #833E22",
"B  c #8A3E22",
"V  c #893B29",
"C  c #9A3523",
"Z  c #853734",
"A  c #A53523",
"S  c #A53426",
"D  c #A73924",
"F  c #AC3C23",
"G  c #B03E24",
"H  c #944110",
"J  c #99451C",
"K  c #A94604",
"L  c #A94A1B",
"P  c #B9491B",
"I  c #B17015",
"U  c #864126",
"Y  c #8C4225",
"T  c #8C452A",
"R  c #934324",
"E  c #9A4626",
"W  c #9C4A25",
"Q  c #95462A",
"!  c #964A2B",
"~  c #9D4B2A",
"^  c #88552F",
"/  c #99522C",
"(  c #864835",
")  c #974B34",
"_  c #8A533D",
"`  c #9A5437",
"'  c #A84327",
"]  c #A44A25",
"[  c #AC4D24",
"{  c #A44D2A",
"}  c #AA4D2B",
"|  c #B24324",
" . c #B64A26",
".. c #BA4E2A",
"X. c #AB5224",
"o. c #A5512C",
"O. c #AC532C",
"+. c #B1542D",
"@. c #B95729",
"#. c #BC512C",
"$. c #A74C32",
"%. c #B54F30",
"&. c #A55432",
"*. c #AD5431",
"=. c #AD5934",
"-. c #A55A39",
";. c #AD5B3A",
":. c #B25532",
">. c #B35A34",
",. c #BB5936",
"<. c #B35D3B",
"1. c #B36D2D",
"2. c #B47A2C",
"3. c #AC653B",
"4. c #B86434",
"5. c #B5613D",
"6. c #B9613D",
"7. c #C5561D",
"8. c #C45927",
"9. c #CA6528",
"0. c #D46B27",
"q. c #D9752A",
"w. c #DB7B2C",
"e. c #CF7A30",
"r. c #E57C25",
"t. c #E37D28",
"y. c #A63B4C",
"u. c #8A4F4D",
"i. c #8A5644",
"p. c #985A47",
"a. c #A65C43",
"s. c #AE5D48",
"d. c #98614B",
"f. c #8D6C58",
"g. c #976554",
"h. c #A96545",
"j. c #B46443",
"k. c #B96543",
"l. c #B56A46",
"z. c #BA6946",
"x. c #B66648",
"c. c #B56B4B",
"v. c #BA6B4A",
"b. c #BA734B",
"n. c #A66856",
"m. c #B46C52",
"M. c #BB6E51",
"N. c #AC7152",
"B. c #BD7253",
"V. c #BA7659",
"C. c #93546A",
"Z. c #8E7376",
"A. c #B67A63",
"S. c #C37956",
"D. c #C27A5C",
"F. c #C37D62",
"G. c #BB832D",
"H. c #CD8D2F",
"J. c #EC8325",
"K. c #E4832C",
"L. c #E9882A",
"P. c #EF8F2B",
"I. c #EB8B2C",
"U. c #F69525",
"Y. c #F3942C",
"T. c #F59A2E",
"R. c #E48631",
"E. c #EB9332",
"W. c #F49D31",
"Q. c #F89F31",
"!. c #D4A737",
"~. c #D8AD38",
"^. c #F6A334",
"/. c #F9A634",
"(. c #FAAB37",
"). c #FAAC38",
"_. c #BB8455",
"`. c #B88269",
"'. c #BB826B",
"]. c #BC8874",
"[. c #C98E4A",
"{. c #C59543",
"}. c #E1914B",
"|. c #D6B04D",
" X c #E1BE4A",
".X c #C58265",
"XX c #C5856A",
"oX c #C8886A",
"OX c #CA8A6D",
"+X c #CF956B",
"@X c #D3946C",
"#X c #C38B73",
"$X c #C58A76",
"%X c #CA8D74",
"&X c #CA9379",
"*X c #CD937C",
"=X c #D59B77",
"-X c #D8B171",
";X c #EDAF7D",
":X c #E7C957",
">X c #EBD157",
",X c #E8D162",
"<X c #EAD06B",
"1X c #EBD376",
"2X c #00579B",
"3X c #105494",
"4X c #294B8B",
"5X c #365289",
"6X c #2A5693",
"7X c #30689F",
"8X c #0058A3",
"9X c #185BA4",
"0X c #0863AA",
"qX c #0169B6",
"wX c #106AB1",
"eX c #176CB9",
"rX c #2367A9",
"tX c #3273A5",
"yX c #49558D",
"uX c #576A93",
"iX c #716D89",
"pX c #4777A7",
"aX c #5377A6",
"sX c #6B7CAB",
"dX c #0B79C4",
"fX c #867494",
"gX c #0882BE",
"hX c #3784B5",
"jX c #5888B3",
"kX c #0F8DD1",
"lX c #3190CA",
"zX c #0A9CE3",
"xX c #1FABEE",
"cX c #538CC5",
"vX c #6C95C0",
"bX c #B7A095",
"nX c #CB9883",
"mX c #D19A83",
"MX c #D29B84",
"NX c #D7A78C",
"BX c #E3AB86",
"VX c #E8B28E",
"CX c #ECB894",
"ZX c #F3BE99",
"AX c #F5C49D",
"SX c #EAD195",
"DX c #F8EC8D",
"FX c #FAC9A5",
"GX c #F3CCAB",
"HX c #FAF1B0",
/* pixels */
"XXc.=.<.5.=.*.;.>.<.j.<.5.5.z.z.j.j.j.<.<.<.<.<.<.j.&.! m.D.j.j.;.=.&.o.*.*.=.3.z.B.z.k.j.z.x.j.j.j.j.&.=.<.;.x h.%XV.&.",
"v.*.X.O.] ] } +.+.} } +.*.<.x.c.j.>.*.} %.+.+.} O.:.E 2 a.v.:.*.o.W ~ } O.o.O.X.+.>.:.+.+.+.} :.%.O.{ ~ } o.X.J -.c.5.] ",
"c.<.+.O.} } *.:.+.:.:.>.<.z.v.z.k.j.<.>.:.>.:.+.>.:.~ R m.D.*.*.o.~ o.o.O.O.O.+.:.<.,.4.:.:.:.:.*.*.o.] O.+.*.R R O.+.} ",
"D.k.X.O.} } O.O.O.O.+.O.5.z.z.4.:.<.<.>.:.:.:.+.+.:.~ R m.V.=.{ ~ ] O.O.o.X.o.O.>.4.>.=.:.>.>.:.*.} { } O.+.:.R Y 3.5./ ",
"oXz.X.*.o.O.o.O.O.o.O.>.5.z.4.>.>.>.>.>.*.:.:.+.+.:.~ l ;.z.*.O.{ } o.O.O.O.O.O.:.j.6.>.>.>.:.*.o.{ ] O.O.+.O.W ! j.j.o.",
"D.6.O.+.X.O.o.O.o.O.O.+.<.6.>.>.>.>.:.:.:.:.+.+.+.} E l j.z.=.{ { o.X.O.O.O.O.+.:.<.6.:.:.:.:.O.{ { } O.O.@.O.Q Y ;.5.o.",
"S.>.+.O.X.O.X.O.O.X.O.*.<.6.,.>.+.+.>.+.:.%.:.+.9.{.-X|.|.2.O.{ X.O.O.+.O.>.=.+.:.<.<.:.:.:.O.o.~ } } +.O.+.*.Y l o.j.{ ",
"B.,.O.*.O.o.O.O.O.O.+.+.6.6.>.:.>.>.>.4.>.H.!.|.<XHXDX>X!.3.o.O.O.O.O.+.+.+.+.+.:.*.>.:.:.+.o.! ! { O.@.+.+.O.E ! c.l.] ",
"B.k.+.:.O.O.O.O.O.X.+.4.5.k.>.>.*.1.!.!.~.,X1X>X1XDX|.G.3.3.&.+.:.O.O.O.O.O.O.O.O.O.O.O.O.~ ! R ] O.O.+.+.@.O.R ) M.j.{ ",
"F.k.+.>.:.*.O.O.+.+.O.<.6.6.>.:.%.H.:X>XDXHXDX>X<X~.G.1.1.d.>.>.>.+.} O.O.X.O.O.} } } o.~ Q E { O.O.:.O.O.+.O.U J ;.5.o.",
"F.k.+.<.>.>.>.*.>.:.:.<.5.6.1.3.4.:X X>XDXSX_.~.H.G.|.2.-.k.5.5.<.&.} *.=.+.O.O.} o.} { ! Q o.O.=.O.*.:.O.*.+.B ! j.5.o.",
"{ Y z z 1 ` a.6 h l J R U 7 ^ _.H. X:X,X1XG.I H.|.,X|.T z R 7 2 h > : > h l l l l z N Y B B l h > h 1 l x R z : > T z < ",
") 7 & 5 d._._.( 5 U T N : . # -X1X!.~.~.!.2.|.1X1X:X1.6 6 7 * * 5 5 5 9 ( 7 < 7 9 = & - < < 2 7 7 7 7 7 T 2 : 4 8 7 5 * ",
"nXA.h.A.*X=X+XV.].].A.A.) z / -X1X!.H._.2.G.:X,X XG.2.b.].].].A.].`.A.$X].A.A.#XV.g T n.h.N.A.A.`.].'.].'.N.N.A.].'.A.A.",
"nXF.D.oXoX_.=Xc.#X*X%XoX&.! XX+X~.>X X-X,XG.G.G.I G.G.b.oXnXnXnX*X%XoX%XoXF.%XnX.XH a.XXXXXXOXoXXX%X%X%X%X.XoX%X&X#X%X.X",
"<.&.;.B.+X=X=X_.&.j.k.<.6 6 A.D.!.1X1X_.-X{.d.Z.iX_.` =.>.5.s.a.5.<.<.<.<.,.5.j.-.l ` A.B.z.6.=.*.&.&.<.<.s.<.5.<.=.=.-.",
"<.+.[ k.BXVX_.V.K K L X.U p.OX-X1X-XSX=X=X;XVXbXlXlXa b [ X.L P L } +.+.>.O. .[ ] z h.S.z.+.[ X.] L L L ] O.[ X.[ [ L J ",
"z.>.+.:.+X=Xb._.d uX`.*XBXCXZXAXAXAXAXGXFXAXAXbXhXkXpX/ D *.>.>.:.;.,.>.4.+.:.>.o.z a.B.j.+.+.+.:.*.o.} O.O.*.*.:.>.>.o.",
"z.:.>.>.3.l.h.b.vXzXvXGXGXFXFXAXZXFXVXBXAXAX+XV.jXdXtXu.v D :.:.:.%.%.:.>.:.:.,.$.1 ` j.=.X.+.+.+.+.O.O.O.O.O.:.:.+.O.o.",
"z.>.4.6.>./ 3.N.pXkXaX*XBXBXBX-X=XBX=X+X@XoX.Xp.wXwX9X( F S } :.:.:.:.:.O.*.*.>.*.l ` j.>. .+.+.+.O.} O.+.+.:.:.:.O.X.o.",
"S.5.k.6.<.} o.u.3X6Xi / 3.l.l.l.5.b.S.v.3.3.3.d 0X0X5XE F F D :.:.:.:.*.*.O.O.:.O.B -.j.:.:.+.:.>.} } } O.O.:.:.O.O.O.o.",
"v.z.k.6.*.{ J ` i.d uXg.T U &.O..X@XH.d uXs 8 5X0X6Xe  .G G D *.:.%.:.*.*.O.*.:.O.E / j.*.:.:.:.:.+.} } ] o.+.O.O.O.O.o.",
"S.v.6.>.O.] B.BX-XiXlXjXa H 6..XVX;X[.tXdX4X7 u.u.$.......%.D :.:.:.:.:.:.:.=.>.O.Y Y =.*.} O.+.+.:.O.} { { O.O.+.O.+.o.",
"S.z.<.:.O.6.=XFXZXs qXdXs +XCXAXVX[.a.2X0Xu b #.8.8.%...#.| D :.:.:.:.:.:.*.+.+.~ , z *.*.} O.+.+.@.} ] } o.O.+.X.O.O.~ ",
"S.5.>.O.=.5.V.VX=Xa 2X8Xd @XBXCX=X} h 4X2Xe | R.E.0.%.8.G v D <.:.:.:.:.:.:.+.+.{ < ! 5.*.} O.+.+.+.*.+.+.:.<.:.O.o.O.~ ",
"c.=.&./ ~ W o.+X[.y i p g.v.B.V.S.s.k a r M 0.Q.I.0.8.%.G S D %.>.>.*.=.+.=.*.+.) < ! <.o.} o.*.*.O.*.&.&.;.=.=.*.O.o.~ ",
"7 = 5 = , < U l.3.U 7 4 * 7 / -.l./ n C M 8.Y.P.9.8.8.G G G M U R ! U U U z 6 U 6 # l o.R l l z 2 z < > < z N 6 7 z z < ",
"4 o 4 4 5 7 2 3./ & . o X 4 ) ) T R v P 9.L.t.8.G 8.G G %.v > < N z < 1 2 < : 6 T Z a.m.&./ ! Y V T N 7 Z ) ~ : & - , * ",
"nXnX#X].`.V.b.c.h.s.N.'.'.nXNXmX#XV.S ..7.b b c P P b ' C M ;.s.s.=.O.j.c.a.x.B.V.A.%X%XS.V..X#X%X#XF.$X&XnXXXO.` '.`.N.",
"NXmX#X#XD.3.3.l.M.S..X$X$X$X$XOXF.v.{ D 3 w w e e w e p p u.k.z.k.z.k.c.z.k.v.M.v.B.S.S.v.j.B.XXoXF.D.D..XF.S.X.b.*X*XD.",
"m.;.L ] W E ~ } } } } ] } ] J W ] ] o.O.e 3X2X2XqXdX0X9X2Xa } O.O.:.:.>.O.O.} +.<.<.[ [ } ~ } O.*.O.O.O.O.O.] R ! 5.>.] ",
"B.;.] ] ! ~ ] } ] } } } } ~ E ~ ] O.+.} Z y uX7XgXkX2X2X2Xu } O.+.:.O.+.:.O.O.+.O.$.] E ~ E ] *.*.:.:.:.*.O.! Y R =.>./ ",
"k.*.! ] ] ] } } } } { O.4.9.e.H.e.0.,.| 9.L.K.2.N.N.h.-.) Z ' %.*.O.O.O.o.} } } ] ! ~ Q W ] } *.:.:.:.:.O.{ ! Y R <.5.{ ",
"<.&.~ { } } } ' } +.9.R.E.^./.^.(.W.L.q.r.Q./.T.U.T.T.U.r.8.D } O.} } ] ] { } } } } o.o.O.O.*.;.s.:.:.:.{ ~ } E ~ s.4./ ",
"m.;.] { } } } [ 9.E.^.).).).).).(.)./.K.7.E.(.W.W.).).).W.0.| D } { ~ { } ] } } } } o.O.+.*.*.j.j.%.:.*.{ { *.] o.l.5.~ ",
"V.=.] } } } } H.(.).).(.)./.).).(.(.).W.0.I.^.K.I./.^.^./.T.w...[ } } } } } } [ } } O.O.:.:.:.:.>.:.*.{ ~ o.*.~ ! j.5.o.",
"v.&.] %.} } K.^.).).).).(.^.^.^./.(./.Q.K.r.K.8.9.J.Y.(.(.(./.E.L.0.O.O.o.X.o.o.X.O.O.O.:.+.+.:.>.:.:.*.} O.>.} *.v.6.] ",
"B.>.] } } @.W.(./././.Q.W.W.T.P.R.t.t.q.0.G P v P r.P.(.(.(.(.(.(.^.w.+.O.O.O.X.O.>.;.>.:.+.+.+.:.:.:.:.>.<.j.O.&.l.6.{ ",
"M.<.] } ' 9.P.I.P.P.L.t.t.t.w.q.0.7.G m G F v v | 9.r.P./.(.).(.(.(.^.w.0.@.&.O.>.v.v.5.:.:.+.+.:.<.<.j.<.k.j.~ z &.<.} ",
"M.<.O.+.}  .0.q.w.t.R.q.8.8...| G 7.| F n v j j A  .0.r.J.Q.(.(.(.(.(.^.P.K.@.=.v.S.S.5.<.:.>.:.j.v.z.v.8.6.6.o.` x.z.O.",
"c.&.] { { x #.t.w.8.0.9.P F m A k h h j f h j C j ' ..8.q.J.Y.Q./.).(././.Y.0.%.x.M.5.=.&.=.=.;.z.j.j.-.*.>.>.! ` c.j.E ",
"g - # - < > j P P G P G v v f % - + O @ . + - l : % j v  .8.r.J.P.Y.Q./.(./.R.8.9.] 2 : ; l W J E z : & ; Y z : - ; ; = ",
"g.i.i.i._ _ M F | | F n G G j ( i.0 y 0 y u.d.p._ _ u.a.$.S ..0.r.J.U.P.T.Q.I.0.q.4.- 7 i.d.-.h.` ^ 9 _ i._ Y 9 _ p.p.( ",
"NXnX%X%X&XoXS F | 8.F F ..%.S S x.OX%X$XOX%X&XOX.XOX*XMXmXM.$.| 8.q.r.r.J.P.r.r.w.L.8.S.=X*XoX.XD..XV.%X&XF.k.z..X#X%XB.",
"#XV.D.F.XXF.A A G 8.8.8.8...G v v M.F.V.V.V.V.S.S.M.V.D.V.B.<.$.v n 8.0.t.r.r.9.t.Y.t.R.}.S.B.B.v.S.S.F.D.B.z.v.v.S.B.x.",
"5.L L :.k.k.A k 7.8.8.t.8.G G ..A } } L L [ :.,. .[ [ } [ } o.O.m k v A ..8.8...q.T.W.T.T.q.8.@.+.+.} L [ +.+.+.+.[ [ ] ",
"z.*.<.k.z.j.S v 8.....t.0.| F D S s.<.;.>.j.v.k.>.:.>.:.*.*.*.:.:.} A n D | ....e.W.T.W.E.I.E.q.#.>.:.:.:.:.=.>.>.>.>.O.",
"M.k.z.z.j.*.D S | S G 8.%.%.G v ' >.>.>.<.k.k.<.:.:.:.:.*.O.:.:.:.:.%.F D F | 8.R.R.K.I.w.I.K.9.} :.:.:.:.:.>.:.>.>.<.&.",
"B.k.k.<.O.o.O.} C k A c f f M e C } { { *.>.<.>.:.:.:.:.*.:.:.:.:.%.:.:.' k G 9.9.#.9.I.I.t...v S 8.:.:.:.:.:.%.:.>.>.*.",
"B.j.>.*.*.O.O.O.%.' f u p u 6Xp x { ~ O.O.*.>.+.%.:.:.*.*.%.:.:.:.:.:.:.:.' v n F F ..K.T.q.S v j $.:.<.:.:.:.:.:.:.:.O.",
"v.,.:.:.+.:.O.+.:.>.x p qXwXqX5XY O.} O.:.>.<.+.:.:.:.O.{ { *.:.:.>.>.:.:.:.' A P  .0.L.R.8.f e yXiXp.,.>.>.:.:.:.:.:.$.",
"v.>.%.:.:.:.:.:.+.>.X.e 9XeXeX8X( +.:.+.+.>.>.:.:.:.*.o.] { $.:.>.<.<.>.:.:.:.' | 8.0.8.| v % yXzXzXuX$.:.>.:.:.:.:.:.} ",
"v.:.:.+.+.+.:.:.%.*.<.) r wXrXr 9 O.+.O.O.O.:.:.:.+.} } ~ ] } O.>.<.6.>.:.:.:.:.C k A A f e p yXcXxXkXd *.%.%.*.%.:.:.} ",
"v.:.+.O.O.O.O.+.} }  .J t r i r t J o.{ { } &.*.*.{ ~ ! { { } } } O.=.>.:.:.O.*.] x A D f u 8X7XpXcXxXhXd p.*.:.:.:.:.{ ",
"B.>.*.=.+.O.+.:.%.a.C.i rXwXrXqXu g $.o.o.O.} } o.{ { } O.:.+.+.+.+.O.o.{ O.O.>.&.7 C s.k.u.yXqXrXyXuXaXlXtXf.*.>.<.<.$.",
"3.! ~ o.~ Q Q R n.sXlXzXkXwXeXqXu g Q R Y T T Y V U B R Q Q ! ! ~ Q T 6 6 Y Q ! T : V s.$.E 8 r eX6X8 a lXzXtXi.{ ) ) Q ",
"@   # ; - #   . 4 s uX7X6X4X4X4X4 $ $ +       + O O   . + + $ + $ $ + O   O $ # + O % g % O   . q q r 5XiXaXxXyX& @ @ . ",
"g.g.d.a.a.p.i.f.d p.d.p.u.p.n.n.n.n.g.d.p.g.g.g.p.p.i.6 p.n.n.g.n.n.p.p.g.n.n.p.p.d.V.D.n.p.g.f.f.u.s 0XaXfXcXpX- U p.( ",
"NXnX%X%XXXXX$XmXMXmXMX=X%X&XmXnXXXXXXXXX#X*XnX*X%XXXM.L XX*X.X%X%XXXXXOX%X&X%XoXF.%X*X*X%XoX%XMXMXMX$XiXkXjXC.C.) A.nXF.",
"XXB.z.M.z.z.M.V.V.V.V.v.j.x.x.x.s.<.j.k.c.B.B.v.j.j.$.H m.D.6.j.j.j.j.x.l.j.z.l.x.v.v.z.k.k.S.M.M.m.m.a.a s y.f 6 V.F.c."
};
