/* XPM */
static char *result[] = {
/* columns rows colors chars-per-pixel */
"60 60 256 2 ",
"   c #37120B",
".  c #3B2E29",
"X  c #4D0E05",
"o  c #580300",
"O  c #581C05",
"+  c #700B04",
"@  c #691B04",
"#  c #4D240D",
"$  c #592617",
"%  c #6A2607",
"&  c #772803",
"*  c #7A3508",
"=  c #672A15",
"-  c #732D16",
";  c #6C331D",
":  c #773215",
">  c #7C361C",
",  c #5F0336",
"<  c #6B392B",
"1  c #7A3925",
"2  c #732E33",
"3  c #773D34",
"4  c #7A412C",
"5  c #69453A",
"6  c #794536",
"7  c #141A5E",
"8  c #353C68",
"9  c #741D45",
"0  c #533159",
"q  c #6C324D",
"w  c #593767",
"e  c #4F3972",
"r  c #663865",
"t  c #364E74",
"y  c #4A4B56",
"u  c #744A45",
"i  c #5A4A68",
"p  c #515072",
"a  c #6D576F",
"s  c #7B6872",
"d  c #8B0200",
"f  c #960501",
"g  c #910E0B",
"h  c #941A14",
"j  c #A11B00",
"k  c #9A2504",
"l  c #8A340B",
"z  c #9C251A",
"x  c #9A291A",
"c  c #853B1E",
"v  c #8A391B",
"b  c #99381C",
"n  c #A93409",
"m  c #A22C1C",
"M  c #A7361D",
"N  c #861D26",
"B  c #863B25",
"V  c #953127",
"C  c #A53421",
"Z  c #A43823",
"A  c #AC3C23",
"S  c #A1362B",
"D  c #984418",
"F  c #B0540E",
"G  c #A64718",
"H  c #AC4B1C",
"J  c #B9471B",
"K  c #B65519",
"L  c #B26F17",
"P  c #874427",
"I  c #8C4124",
"U  c #934424",
"Y  c #9C4A25",
"T  c #984728",
"R  c #954B2B",
"E  c #9C4B2B",
"W  c #9B542A",
"Q  c #894B39",
"!  c #994D32",
"~  c #89513C",
"^  c #995538",
"/  c #A54A24",
"(  c #AC4C23",
")  c #A64328",
"_  c #A44D2A",
"`  c #AA4D2A",
"'  c #B14325",
"]  c #B54B25",
"[  c #B64827",
"{  c #B6492A",
"}  c #BA4D2B",
"|  c #A95426",
" . c #A5512D",
".. c #AC532C",
"X. c #B1542D",
"o. c #BC512C",
"O. c #B75A28",
"+. c #A24933",
"@. c #B04E35",
"#. c #A45433",
"$. c #AC5431",
"%. c #AD5A34",
"&. c #A75B3A",
"*. c #B25532",
"=. c #B35A34",
"-. c #B45D3B",
";. c #B85C38",
":. c #9B6932",
">. c #A66627",
",. c #BA632C",
"<. c #B47726",
"1. c #AA623B",
"2. c #B86334",
"3. c #B5613D",
"4. c #BA623C",
"5. c #B17C37",
"6. c #CB4000",
"7. c #C5571D",
"8. c #C9721B",
"9. c #C55A28",
"0. c #C65B2B",
"q. c #C05331",
"w. c #CD6329",
"e. c #C8672B",
"r. c #D36928",
"t. c #D46B29",
"y. c #DA752A",
"u. c #CE7234",
"i. c #E37B27",
"p. c #813641",
"a. c #8E5047",
"s. c #985A45",
"d. c #A85B44",
"f. c #B75F41",
"g. c #9C664C",
"h. c #9B6755",
"j. c #A96646",
"k. c #B56443",
"l. c #B96543",
"z. c #BA6B45",
"x. c #B36748",
"c. c #B56A4B",
"v. c #BB6C4B",
"b. c #B77449",
"n. c #BC734D",
"m. c #A56B57",
"M. c #B36D51",
"N. c #BB6E51",
"B. c #A9735D",
"V. c #BD7354",
"C. c #B97656",
"Z. c #BD795C",
"A. c #8A6171",
"S. c #A8776B",
"D. c #BC7C64",
"F. c #C16F48",
"G. c #C2734C",
"H. c #C27556",
"J. c #C17C55",
"K. c #C27B5C",
"L. c #C37E61",
"P. c #BA890B",
"I. c #BD872B",
"U. c #BD8B38",
"Y. c #C88D10",
"T. c #CC9428",
"R. c #D18C31",
"E. c #E9872A",
"W. c #F2962D",
"Q. c #EA8E30",
"!. c #EC9432",
"~. c #F29A31",
"^. c #D6A62B",
"/. c #D6A93A",
"(. c #DCB33B",
"). c #F6A334",
"_. c #F9A534",
"`. c #F1AF34",
"'. c #FAAB37",
"]. c #FBAD38",
"[. c #BA864D",
"{. c #958567",
"}. c #BA836C",
"|. c #B88775",
" X c #B18C71",
".X c #C99645",
"XX c #CB8E53",
"oX c #D0AD4F",
"OX c #DDB844",
"+X c #E1BD52",
"@X c #C48265",
"#X c #C4856B",
"$X c #C7876A",
"%X c #D2946E",
"&X c #C58B73",
"*X c #C78C76",
"=X c #CB8D74",
"-X c #C79078",
";X c #CC937B",
":X c #D79B75",
">X c #E29C78",
",X c #DBB66C",
"<X c #E6CB51",
"1X c #EBD75B",
"2X c #DFC27D",
"3X c #EAD365",
"4X c #ECD570",
"5X c #F7EA6F",
"6X c #003F87",
"7X c #075394",
"8X c #31568F",
"9X c #3E6390",
"0X c #045AA5",
"qX c #2C5EA5",
"wX c #1968AC",
"eX c #0368B4",
"rX c #196AB6",
"tX c #0470B3",
"yX c #2167AA",
"uX c #3070B1",
"iX c #46528C",
"pX c #59608D",
"aX c #6C6D8A",
"sX c #4D6DA6",
"dX c #007CC3",
"fX c #9E758F",
"gX c #658AB6",
"hX c #0E91D0",
"jX c #2E99DB",
"kX c #0DA3E8",
"lX c #4793CC",
"zX c #A2868A",
"xX c #8281A9",
"cX c #CC9A85",
"vX c #D19C85",
"bX c #D19E89",
"nX c #D6A588",
"mX c #D2B191",
"MX c #EAB38F",
"NX c #D1B7A8",
"BX c #F0C892",
"VX c #FDF88B",
"CX c #FBCAA4",
"ZX c #FED3AE",
"AX c #F8EDAB",
"SX c #FEFCAA",
"DX c #DED8D6",
"FX c #E3DBDA",
"GX c #FFFDC6",
"HX c #E6E0DF",
"JX c #EBE1DF",
"KX c #EDE4E2",
"LX c #F0E4E1",
"PX c #F3EAE7",
"IX c #F5ECE9",
"UX c #F9F4F1",
/* pixels */
"UXbX;XZ.K.L.K.v.c.V.L.$X#X@XK.K.@XD.Z.#X#X@X@XL.L.@X&XL.x.-XbX#X#XL.V.V.x.3.k.c.L.;XbX;X$X$X;X=X@X$X;X&XN.Z.@XL.G Z.mX;X",
"IXK.N...%... .` ....*.X.*.$.=.3.k.k.=.*.*.X.*.$.$.$.=. .B d.N.=.%.$. .E _ ` ....X.;.2.;.=.=.=.$.=.=.$.$._ ..*._ b M.@Xk.",
"IXz.k....._ _ ` *.*.X.X.*.*.-.c.v.z.3.%.@.X.X.*.*.@.*.W > d.H.=.$._ Y / _ ..| | ..*.-.=.%.X.X.X.@.*.$._ _  ...` T #.2.%.",
"PXn.v.X... .` ..X.X.$.*.*.=.k.v.z.l.-.-.-.=.=.*.*.X.*._ U M.K.-. ._ _ _ ..| ....*.=.-.=.=.*.=.*.*.*. ._ _ ..*. .B U %.%.",
"IX@XH.} ....` ...... .| *.-.c.z.;.%.%.3.=.=.*.*.X.X.X.+.v j.N.=.| W oX5._ ........=.-.3.=.=.=.=....._ _ ` ..O.` U W k.%.",
"IX@XK.X.X...` ..| .... ...;.l.;.=.=.2.%.%.X.X.*.X.X.X.E v #.z.%.Y [.5XoX/ | ....*.*.;.f.=.*.*.*..._ _ ` ..X.X.$.U E c.-.",
"IXH.v.*.$.| | ..` ` ` ..$.=.3.2.=.=.=.X.X.*.*.*.X.X.X.E c d.F.@.<.4XSXoX/ X.*...@.=.-.-.*.*.*.*.$.E ` ` ....X.` I v -.1.",
"IXz.v.=... .| ......| ..X.-.3.;.=.X.=.X.*.*.*.*.X.X.X.E 1 #..X5.1XSXGXT._ X.*.*.X.*.=.=.*.*.*...E E _ | o.X.*. .B I k.3.",
"IXG.n.*.*...| ..| ......*.4.l.;.*.*.*.*.X.=.*.*.] X.X. .B .X<X3XVXGXSXP.+.X.X.| X.......*.*...E T Y ` *.X.X.X...b &.V.k.",
"IXH.V.*.*.............X.=.;.4.=.*.*.*.@.*.=.*.*.X.X.*...<.1X5XVXSXSX3XI._ | ..| ....` ` ..W U T Y _ ..X...X.O._ B W x.%.",
"IX@XH.=.;.;.=.=.=.X.O.%.=.l.l.4.;.;.-.=.;.=.=.*.X.*.=..X<X1X5XVX5X4X<X<.#.| %.....` ` ..E T U E ` *.*.*.$...X.#.B R l.;.",
"PXk.x._  ._ ! ! E E _ _  .&.#.^ #._  ._ #.$.$. ..._ U.1X<X1X5X5X5X5X<X<.W | | T E Y T E T U T Y E T _ E _ _ _ E c ! j.! ",
"KXd B O O o O O o o + l l ; # # # O o @ : : : v B x +X1X(.OX5XSX2X<X^.L W I.* @ & % = = : : : & + o @ @ % & * O X o + @ ",
"IX}.B.~ a.s.s.s.h.h.B.m.j.Q % ; 6 ~ s.h.g.~ ^ s.s.:.1X<X^.OXAXAX^.(.P.L OX(.s.g.m.j.: > P Q ^ g.m.m.m.h.m.m.s.s.h.h.m.s.",
"UXmXcXL.}.&X=X=X;XcXcX;X=XN.l M.&X#X&X&X@XK.K.D..X.X<X+X/.1XAX,XY.T.P.BX5X[.C.-XbX#XD &.}.L.@X&X&X&X;X;X:X=X#X#X-XcX;X*X",
"IXL.c.f.n.N.C.V.V.C.V.H.V.^ : Z.&XZ.Z.v.l.x.V.k..X,XOX(.(.5XAXL I.T.4XVX1X<.T.C.Z.x.l s.@XK.K.V.z.x.N.N.V.v.M.V.V.V.c.M.",
"PXF ....( | H H ( H ( ( H I = j.H.=.*.X.....] ` ,.4X2X^.^.<X2XL <.OX5X1XT.T.T.( ( / > d.K.l.X.( H / G G / ( ( ( H H H G ",
"PXz.-.*.X.*.=.*.*.*.*.$.%.I ; M.@Xl.;.;.*.*.X.=.X..X+X^.I.oXOXT.T.^.(.T.>.I.<.$.=.#.c j.J.k.*.X...X...` ......$.$.X.%.$.",
"PXF.-.*.=.-.=.*.*.*.*.$. .I 1 c.K.=.*.*.*.*.*.O.2.8.T.+XI.BX4XY.2XU.L <.>.>.!  .=. .* #.z.%.X.X.X.X...| ` ....$.*.*.$...",
"PXF.f.=.f.2.;.*.*.*.*.X.%.T I x.G.$.*.%.;.X.=.R.!.h.mX+X<.3X.X&.2X.X>.>.>.>.B.C.z.x.^ j.3.%.] X.X.X...` ....X.*.*.*...| ",
"IXF.4.4.l.;.=.$.` $.$.*.*.E B k.v.*.=.-.=.2.E.'..Xp %XU.5.I.j.b.I.I.>.>.>.[.BXnX>X%X}.XX[.=.{ *.*.X...` ....X.X.*...| ..",
"IXG.n.z.l.=.$.E E _ ..*.$.R c $.l.*.;.;.*.R.W.'.Q.h.>.:.{.b.[. Xh.F >.:.>.j.nX%XC.! P :.c.=.*.*.*.*...` ` _ ........| ..",
"IXJ.V.z.2.=._ _ _  ...=.3.! : _ 2.$.*.=.;.!._.].W.t.o.C.mXmX,XmXB.D S R 1.W b.C.1.U U W #.$.` X.X.X.X.` ` _ ` ......$.X.",
"IXK.V.4.*.$._ _ ..$.=.z.v.! - #.k. ...$.e.).`._.~.!.i.u.>XMXMXnX .] ' _  .&.#. .W W R W %.$._ ..X.X.X.` ` _ _ X...| ....",
"IXK.v.=.%..._ ..*.=.k.v.F.! ; d.n.*.%.$.u._.`.'.).R.U.1.,.nXnXb.2 S A *.*.Y j.b.W W P W l.$.( ..X.o...X.X.X.=.=.%...|  .",
"IXG.k.#...E ..%.$.-.l.k.f.R = #.N.k.-.$.t.W._.). XgXhXlXA.D 1.W 8Xq M =.$.1.XXJ.b.U > j.%X$._ ....$.#.$...%.%.&.X.....| ",
"LXl 4 ; ; < > B 1 I P 4 < . # > T B U ] 8.y.E.B.hXkXjXkXtX0 P i 0X2 G 4 Q b.H.C.[.x.n.:X$XU v I B c c > ; 1 B B > P I > ",
"KXo . . $ $ = = = - O       # 3 S 1 B b M q.F uXkXjXhXsXzXs 8 tX8X+ 5 7X9Xs C.[.[.n.j.K.1.W E U B B P > 2 B R U = # % = ",
"IX|.cX-X}.D.D.M.M.M.j.j.S.D.|.bXbX&X@Xd.M q.n qXjXtXa nXCXnXaXeXq B t tXeX0Xs n.V.b.Y j.L.L.Z.D.&X=X&XD.#X;X;XL.Y j.}.Z.",
"UXnXbX=X=X#XV.V.K.H.V.L.&X;X-X;X-X}.Z.&.7.0.G i tX8X}.BXCXCXNXS.g a.S.A.pX7Xi $.1.&.1.x.G.c.l.H.#X$XL.K.K.$XL.F.H Z.vX&X",
"PXV.c.( / Y T _ ` ( ` ` ( ` / D Y Y Y / H } ' a.7Xp b.%XMXZXCXCX@X$XCXMXh.8 s.( ..*.;.%./ / / ` ............` _ I W 2.%.",
"PXn.c._ _ E E _ ` ) ` ` ` ` _ _ Y _ ` X.) C A k 2 q 1.@XMXCXCXCXBXMXZXCXC.U *.X.......E E E T _ $.$.*.*.*.*._ E B E %.%.",
"LX4.3.W E E _ ` ` ` ` ` ` $... . ...O.=.X.B q r r 0 i j.XX:XMXCXBXMXCXMX%. ._ ` ` / _ T E Y )  .$.=.@.*.*.` _ E P R -.=.",
"PX*.&._ _ _ ` ` ` ` ` ` ..$.=.,.e.=.r.w.r.+.e 7X7X7X7Xt u k.$X:X%Xx.$Xc.b _ _ | ` ` _  ._ ......f.f.*.*.$._ _ _ T  .k.%.",
"PXv.c._ ) ` ` ` ` ` ` ] ,.u.Q.!.E.E.W.Q.~.Q.@.N p.r 0 0 q D $.b.XXj.W G x ) Y Z ` ` ....X...$.*.f.-.*.*._ E _ ..Y #.c.3.",
"PXH.c._ ` ` ` ` ` ) ] R.)._.].'._.].].'.~.].E.m ' 6.n j ' [ ] M ) &.` { 9.9.] X.o.x x / X.*.*.*.=.=.$.$.#._ ..$.T  .k.-.",
"PXz.k._ ` ` ` ` ` Z O.).].]._.].].].].]._._.!.0.} } C C } } [ C ' } o.o.w.y.~.).~.y.J m ) ..X.X.*.=.*.$.$...=.=.` 3.v.;.",
"IXV.x.` ` ` ` ` ) C E.'.`.].].]._.~.~.~.W.Q.i.0.o.' m C o.' A } o.o.o.} u.'.].].].].).!.9.) X.X.X.*.*.*.=.=.-.3._ #.k.;.",
"PXv.x...` ` ` ` ) ' E.'._.).~.!.!.W.E.t.w.0.0.} } ' m M q.[ } o.o.} o.o.y.).].].].].].].~.M Z ..@.=.-.=.-.;.4.3.U B %.=.",
"PXn.v...*.X.` ..( 9.r.E.E.i.y.e.0.w.w.9.[ A A S A m z C A } o.} o.o.} o.t.Q._._.].].'.]._.7.J *.f.l.v.F.F.l.4.3.W d.V.l.",
"PX$.^ I T E E ! M w.9.9.y.y.r.7.A C C m h m C m A C z C A { } A A } q.q.r.i.W._.].`.'.].~.9.y.w.#.1.-.^ !  . .#.I ! j.! ",
"LXd ; O @ % - + K y.[ 9.9.w.0.A A h f f + + + d d d d f j j f C [ } 0.w.r.t.E.E.~._._._.Q.0.w.y.Z U > O # % P > $ % & & ",
"IXcX Xm.m.m.M.N 9.i.r.r.w.0.A m A z +.h.s.h.h.B.m.d.d.d.m.m.M.@.A A m A ' ' [ 0.t.y.y.y.9.[ 0.E.9.O.1.s.g.B.d.E W m.B.m.",
"UXmXbX=X=X;XL.g 9.i.E.i.r.} m ' S S L.=X*X*X*X=X=XL.L.=XvXvX=Xc.x.M.d.d.S z m A } [ } } q.q.9.i.0.0.2.Z.;X%XZ.v.V.@X=X$X",
"IXH.c.k.z.N.d.n q.r.9.q.} A } } A +.N.l.f.1.-.k.f.f.f.k.k.k.-.%.f.z.c.z.k.Z h h m m M A A M 9.r.[ J 7.m k.x.k.f.4.4.4.k.",
"PX4.$.G X.$.] 7.M } 9.9.0.0.[ A A E =.*./ / ..=.f.*.{ ` ( ` _ ` ) ( ' H H K / b m M m M M [ } } } A J J k ] ` ..%...( | ",
"IXH.f.-.z.f.w.0.m 0.i.i.i.r.0.M h f.l.f.-.2.v.v.l.=.=.*.*.*.$.$.*.*.*.=.=.@.=.) h ' [ 9.t.0.q.} q.A A A Z -.=.=.%.2.=.=.",
"IXH.v.l.z.` 7.w.m 9.9.J 9.r.} [ m ) *. .$.%.;.f.-.*.*.$.*.$.*.*.*.*.*.*.*.*.*.$.z m } 9.r.9.' } } 9.M z $.=.*.=.*.*.=.=.",
"IXK.v.k.-.$.) M h h C A t.E.9.A ' b  ._ _  ...;.*.*.*.*.@.*.=.*.*.*.*.*.*.*.*.*.) m A { } { A M m A z V &.*.*.@.*.*.*.*.",
"IXH.l.=.*.*...q , g j n 6.y.w.m x Z _ E ....%.*.=.*.*.*.$.` ` *.*.*.*.=.*.*.*.*.*.b } C z A ' A m f 9 w #.=.=.*.*.*.*.*.",
"IXG.;.*.*.=.| a q e e r r 2 x +.x.=.*.{ X.X.=.=.*.*.*.$..._ _ ..=.=.=.;.=.*.@.*.=.S [ } A A C z d r w e a.X.=.*.*.*.*.*.",
"IXG.k.*.*.=.K sXpXrXeXtX0Xu : &.V.=.*.*.X.%.*.*.*.*.*.` _ _ _ _ $.*.-.;.=.*.*.*.=._ Z } [ A V 9 p eXqXe p $.*.*.*.*.*.@.",
"IXG.3...*.X.F s sXuXrXtXiXP =  .4........._ ` ..@.$.$._ E E _ _ ` ` %.;.=.=.*.$.*...v x +.#.i 0XeXrXeXe e a.O.$.@.X.*.*.",
"IXH.4.$.*.G aXA.sXtXyX0XA.Y - d.H...` _ _ _ _  .$.` ` _ _ ` { $...X...$.......$.*._ 1 U v.q.^ iXeXrXrXyXw 5 &.*.=.=.*.*.",
"IXn.1.#.| s jXfXs 9Xt y Q B : j.M._ _ E E E  .E ! E T T _ _ @.#.#.$. .+.R T E  . .! 1 U v.d...~ 8XwXwXwXp 0 i ^ $.$.&.d.",
"KX& < % i hXxXgXjXrXwX8 # X   - l @ @ % @ % # O @ O O O $ = % @ % % % @ O X O @ - O X & b : $ O # t 8Xp wX8X0 w 1 < = $ ",
"KX& 6 u dXgXlXkXhXtX0X8 5 5 5 a.s.a.Q Q 6 5 < 5 6 3 3 < $ < ~ Q Q a.Q 3 6 6 6 Q 4 < Q s.d.Q 6 5 y 7XqXrXrXeXiXe 8 # - 2 ",
"UXcXcX XfXxXlXsXqXa a  XcX=X-XnXbX*X*XL.#X&X-XcX;X&XL.D.#.D.;X&X&X*X#XL.}.&XcX&X#X}.=XcXvX;X#X;XS.iXuXyXwXwXrXuXqXpX}.&X",
"IX$XD.O.6.j f f k =.z.G.z.O.,.2.4.F F H F ,.z.z.z.,.X.n d O.F.F K O.F K O.,.=.,.K O.;.;.,.,.O.,.F.k d o ,   7 6X7 , G.H.",
"UXJXJXHXJXLXLXPXJXJXJXJXJXHXJXJXJXJXJXJXJXJXJXJXHXJXJXJXJXJXLXJXKXJXJXKXJXJXHXKXJXJXJXJXJXLXLXLXJXKXKXKXFXDXDXDXDXFXLXLX"
};
