/* XPM */
static char *result[] = {
/* columns rows colors chars-per-pixel */
"60 60 243 2 ",
"   c #010000",
".  c #0A0000",
"X  c #000318",
"o  c #03121D",
"O  c #2F120D",
"+  c #36251D",
"@  c #000225",
"#  c #05142A",
"$  c #1B1E26",
"%  c #062428",
"&  c #19222B",
"*  c #032331",
"=  c #2B2A2C",
"-  c #383C3B",
";  c #480100",
":  c #5A0802",
">  c #481804",
",  c #581C01",
"<  c #691606",
"1  c #4E240F",
"2  c #58260A",
"3  c #4A2717",
"4  c #592A18",
"5  c #55351C",
"6  c #672806",
"7  c #703206",
"8  c #662C15",
"9  c #69341A",
"0  c #753518",
"q  c #7A3B1D",
"w  c #521525",
"e  c #70162C",
"r  c #583323",
"t  c #4D3230",
"y  c #693827",
"u  c #743A25",
"i  c #7D3E23",
"p  c #752737",
"a  c #793737",
"s  c #784F1C",
"d  c #4F4734",
"f  c #6E4A2D",
"g  c #784328",
"h  c #7D432B",
"j  c #784635",
"k  c #7A513B",
"l  c #736A34",
"z  c #1A354A",
"x  c #2E3A4B",
"c  c #463D4B",
"v  c #743748",
"b  c #134C5C",
"n  c #31464E",
"m  c #3B4954",
"M  c #375167",
"N  c #474B50",
"B  c #465557",
"V  c #555A58",
"C  c #6B5648",
"Z  c #755947",
"A  c #754F54",
"S  c #5C695F",
"D  c #7A675A",
"F  c #434F63",
"G  c #495764",
"H  c #535E63",
"J  c #556265",
"K  c #576568",
"L  c #5B656A",
"P  c #586A6C",
"I  c #5D6A6C",
"U  c #636B6B",
"Y  c #696C6E",
"T  c #697577",
"R  c #6C7475",
"E  c #747C7C",
"W  c #797E7B",
"Q  c #860700",
"!  c #8B3A0A",
"~  c #A03F00",
"^  c #8C0F31",
"/  c #853139",
"(  c #92470C",
")  c #984A1D",
"_  c #A45017",
"`  c #9A6900",
"'  c #834225",
"]  c #874729",
"[  c #8D4B2C",
"{  c #9C4C22",
"}  c #944D2D",
"|  c #9B4E2C",
" . c #815A25",
".. c #9B5125",
"X. c #96502E",
"o. c #9C512E",
"O. c #884C34",
"+. c #944E30",
"@. c #89543A",
"#. c #945232",
"$. c #9C5432",
"%. c #9E5834",
"&. c #96583A",
"*. c #9C5A3A",
"=. c #A24F27",
"-. c #A35225",
";. c #A1532E",
":. c #A5592E",
">. c #AA582A",
",. c #A35632",
"<. c #A85735",
"1. c #A55934",
"2. c #A95A36",
"3. c #A45C3A",
"4. c #A95D3A",
"5. c #95682B",
"6. c #A96C2B",
"7. c #A96239",
"8. c #AB613C",
"9. c #B2673B",
"0. c #893545",
"q. c #913449",
"w. c #943749",
"e. c #9A3C4D",
"r. c #A13A4D",
"t. c #874C4E",
"y. c #885A47",
"u. c #965B44",
"i. c #894455",
"p. c #994859",
"a. c #A55C43",
"s. c #A64557",
"d. c #AD495A",
"f. c #B44B5D",
"g. c #A85853",
"h. c #8C614A",
"j. c #95634B",
"k. c #9B6348",
"l. c #986A56",
"z. c #936B58",
"x. c #A56342",
"c. c #AD6542",
"v. c #AE6945",
"b. c #A6684A",
"n. c #AD6B4A",
"m. c #B16643",
"M. c #B16B45",
"N. c #B26C4B",
"B. c #B4714D",
"V. c #A86D53",
"C. c #B36F52",
"Z. c #AE7254",
"A. c #A9745D",
"S. c #B37354",
"D. c #B97755",
"F. c #B4765A",
"G. c #B57A5C",
"H. c #B97B5C",
"J. c #9A5165",
"K. c #B64D62",
"L. c #AB586D",
"P. c #B95364",
"I. c #90716D",
"U. c #A67966",
"Y. c #B57B66",
"T. c #BA7E61",
"R. c #B66774",
"E. c #C15C6E",
"W. c #C5677B",
"Q. c #78807F",
"!. c #B58E31",
"~. c #D2A827",
"^. c #B69045",
"/. c #928B7B",
"(. c #BB8165",
"). c #B5826A",
"_. c #BC856A",
"`. c #BE896E",
"'. c #B28A76",
"]. c #B68974",
"[. c #BD8C74",
"{. c #C1886D",
"}. c #C28D73",
"|. c #C69379",
" X c #C4937B",
".X c #C8AD7D",
"XX c #777F82",
"oX c #B87488",
"OX c #CE768B",
"+X c #7A8183",
"@X c #838889",
"#X c #8A9194",
"$X c #94989A",
"%X c #B7908C",
"&X c #BC9899",
"*X c #979CA2",
"=X c #9DA1A5",
"-X c #A5A6AA",
";X c #B8AAA6",
":X c #A8ACB2",
">X c #ACB0B3",
",X c #B3B6BC",
"<X c #C79983",
"1X c #CC8D94",
"2X c #CCA18D",
"3X c #CBA695",
"4X c #CFAC91",
"5X c #DD8DA3",
"6X c #D191A7",
"7X c #E892AA",
"8X c #E896AD",
"9X c #E79CB4",
"0X c #C5AAA5",
"qX c #CBAEA6",
"wX c #CBB0A7",
"eX c #C7B0AA",
"rX c #CDB1A9",
"tX c #D5B1B1",
"yX c #E8A6BA",
"uX c #F3A4BD",
"iX c #E1CBAA",
"pX c #BCBCC4",
"aX c #E9AAC3",
"sX c #F3ACC6",
"dX c #EBB5CB",
"fX c #F3B4CC",
"gX c #EFBAD2",
"hX c #F4BDD7",
"jX c #BEC0C8",
"kX c #C3C3CC",
"lX c #C8C9CC",
"zX c #D4CFCC",
"xX c #CACBD2",
"cX c #D9D7DA",
"vX c #F5C2DD",
"bX c #E3D4D6",
"nX c #DDDDE0",
"mX c #F7C6E2",
"MX c #E8DFE0",
"NX c #E8E7E9",
"BX c #F1F0F0",
"VX c #F4F4F6",
"CX c #FEFEFE",
/* pixels */
"2X[.H.(._.H.S.S.T.`.}.[.(.T.(.].(.).}.[.`.`.(.T.[.|.Y.V.<X2X{.[._.H.S.n.b.N.B.(. X2X<X{.{. X X`.{. X XT.F._.}.n.x.<X4X`.",
"G.1.;.1.o.;.;.;.;.:.;.:.,.4.c.c.7.1.,.:.,.,.,.,.:.2.} q a.B.4.1.,.X.X.X...;.o.:.7.8.7.4.<.4.1.4.1.3.$.| o.o.<.! #._.T.o.",
"n.4.:.$.| o.,.1.<.<.<.1.4.c.N.B.N.4.1.<.<.1.<.<.,.2.X.q x.S.4.,.$.X.o.o.,.%.:.:.2.8.7.7.1.<.<.<.<.,.$.$.o.$.4.} [ v.8.o.",
"S.8.:.,.,.;.1.1.1.1.2.4.c.N.C.v.c.c.c.4.1.4.<.<.<.2.#.[ Z.T.3.$.X.o.o.;.,.,.$.1.2.4.9.2.4.4.1.4.4.,.$.| ,.,.<.} ' $.7.$.",
"(.m.:.,.| ;.,.$.$.:.,.1.c.N.9.7.4.7.7.7.4.2.<.,.>.1.{ ' b.S.4.$.o.o.$.%.%.:.;.:.2.8.8.4.4.4.4.1.,.$.| o.;.:.2.| ] x.c.%.",
"(.c.-.1.;.,.$.:.,.:.:.1.c.M.8.7.7.4.4.2.<.2.4.<.2.4.[ q *.N.4.$.o.o.,.;.$.;.,.,.2.c.m.4.2.4.1.<.$.| $.o.:.1.2.} ] a.n.%.",
"D.c.1.,.$.:.:.o.,.o.,.1.8.8.7.4.4.2.2.1.<.<.<.-._ -.[ / b.N.,.X.o.$.:.1.:.1.1.<.4.c.8.2.2.2.2.%.| | ;.,.:.1.2.} q $.c.%.",
"B.4.,.:.:.$.,.:.o.:.1.4.8.m.4.4.1.7.4.2.2.:.4.n.S.F.u.6 ,.n.%.o.o.,.:.2.>.2.2.1.<.4.4.4.2.1.,.o.} o.,.>.:.1.<.[ q *.M.*.",
"H.4.<.1.:.$.$.:.:.:.,.4.c.m.4.2.<.4.4.4.:.v.1X9XaXyXaX&XA.7.;.<.,.;.,.:.1.:.1.1.,.,.<.<.<.,.| [ } X.,.1.2.:.2.} } V.S.$.",
"H.c.<.4.1.,.:.:.:.,.1.7.c.c.4.4.<.<.<.>.8.5XOXJ.J.p.oXfXdX3Xn.-.<.,.o.,.$.:.o.:.;.;.o.,.o.} [ [ o.,.2.,.:.:.:.[ ' c.M.%.",
"{.m.2.9.4.4.2.2.1.2.2.8.M.9.9.7.4.4.4.2.Y.W.i ) { { q p.9XvXdX1X:.4.,.,.1.,.3.,.,.;.| $.[ [ } | 2.2.2.1.1.1.2.[ h 3.M.,.",
"V.*.$.$.$.#.$.$.o.o.$.3.*.*.%.#.*.*.$.3.OX0.[ 3.3.3.O.2 w.8XvXvX1X( O.+.o.o.} X.} } } } [ [ } } | +.} o.o.o.o.h h k.x.} ",
"! 6 2 > , 2 > ; : 7 0 q 8 3 3 1 > : , j R.p g ] ' q 8 w ; R.sXvXhX%X; < 6 6 6 7 7 9 r 9 9 0 7 6 : , , 6 7 0 8 ; ; < 6 , ",
"U.y.j y.y.y.y.z.l.V.l.k.g 2 g j @.y.j.j.R.j @.&.*.k.@.u.z.0.OXgXvXvX&Xl.U.j.y.l.j.i 9 h O.@.j.l.l.l.l.l.V.u.y.y.z.l.j.y.",
"3X{.T.}.|. X|.<X3X<X X}.$.[ ).[.`.|. XT.i.0.A.T.H.H.H.{.<Xy.K.8XhXmXgX2X<X}.|.<X|.o.$.Y._._.}.|.|.<X<X<X X}.{. X2X<X|.}.",
"F.n.C.S.F.F.F.F.Y.F.H.F.] O.`.`.F.H.S.b.j p u.N.n.v.c.b.V.i.s.OXfXvXmX9Xm.C.F.Y.Z.' @.).(.T.H.n.n.V.C.F.F.S.S.F.H.Z.Z.V.",
":.;.;.-.-...=.=.-.-.-.o.9 g S.S.4.4.1.1.$.] ;.<.<.,./ V.5Xp.r.OXuXhXmXdXC.-.<.=.=.0 #.(.N.4.:.-...) ) ..o...;.=.-.-...) ",
"M.2.<.2.4.4.<.4.4.3.3.$.9 h T.H.8.8.7.2.<.4.<.<.<.j w.5XhX6X^ OXsXvXmXhX6X:.<.4.<./ #.(.C.1.,.2.2.2.,.;.,.3.,.,.3.4.1.:.",
"N.2.2.8.7.4.4.<.<.<.1.$.q O.H.S.<.4.2.2.<.<.<.4.$.a f.7XaXsX6XOXuXhXmXmXsXF.;.4.,.q [ B.c.,.<.1.2.2.,.$.,.,.,.4.,.,.1.$.",
"M.4.8.c.8.4.1.<.<.4.1.,.] @.S.v.,.2.4.7.4.<.<.<.O.0.K.7XsXhXmX9X5XsXvXmXsXR.;.4.*.s O.v.4.:.>.>.>.:.;.;.;.,.2.1.<.1.1.o.",
"N.8.M.m.7.1.,.%.,.<.4.,.] #.S.n.,.4.8.4.2.2.4.<./ s.f.OX9XmXdXaXhXsXhXmX9XP.a.2.,.' O.n.8.>.<.2.2.,.;.;.,.:.1.<.1.,.:.o.",
"B.n.N.c.4.$.} o.$.,.<.*.' ' 8.c.2.9.8.4.1.<.<.<.u d.f.e.P.aXvXdXmXmXsXhXgX5Xg.,.<.[ #.b.8.,.<.2.<.,.;.,.;.o.,.2.1.;.:.$.",
"D.N.c.4.,.X.o.o.,.1.4.a.g q 3.3.3.4.4.4.2.2.<.<.[ 0.q.0.J.OXhXmXsXsX9XgXmX9Xg.,.<.] ] 7.4.,.<.,.<.<.;.;.o.| ,.:.1.:.1.:.",
"H.N.8.1.$.| $.1.1.c.B.n.h 0 x.8.o.,.,.,.,.<.<.4.,.y v e 6XsX5XaXW.5XmXgXhX8Xg.1.$.u 0 %.%.| ,.,.:.<.,.| o.o.$.,.:.,.1.o.",
"H.8.4.<.$.,.<.<.3.n.S.c.h g n.n.1.4.3.,.X.$.#.] a u O   c aX8XR.oXoXsXhX9XOXg.4.$.9 ' 4.4.o.,.>.>.,.,.,.<.2.4.4.:.o.$.X.",
"S.7.<.$.+.1.4.4.c.n.N.8.u u x.^.^.l.y.j a / a e.r.s.0.. . L.s.oX5XO i.OXOXL.Y.7.*.u O.c.3.o.,.:.1.<.1.1.2.3.8.3.7.:.:.o.",
"g y 9 9 0 h h g ] O.f f 3 5 l d d m x # p p.f.P.P.d.f.q.p / q.W.8XoX  Q ^ 6X%X7 h 2 q ,.[ ! ' ' / i q 0 u i ] g g g ' g ",
"+ + + 3 r 8 2 4 6 O O O O 5 5 @ @ * * t p.w.s.d.e.v f.P.q.e.P.K.J.oX6XI.e yXoX< ] u @.V.&.O.[ g s i i y y ] } 9 1 2 6 1 ",
"[.%X].].Y.A.V.Z.b.u.V.U.).).- o = $ e.s.p.s./ q.w w s.s.q.q.w.f.e S jX&XOXaX1Xb.A.Y.[. XT.G.)._.[.[.).). X<X}.x.[ A.).V.",
"4X X[.{.T.S.F.H.S.F.T.}.'.}.h.o $ p i.L.s.d.f./ e a r.f.d.0.0.q.0.j I.J.9X8X}.S.C.F.D.S.B.v.S._.}._.T.T.Y.{.T.4.3. X X(.",
"G.7.| o.} } o.;.,.;.$.o.o.X.%.f w q.p.d.s.s.0.f + 0./ s.s.p.q.^ e 0.^ w.OX7Xg.o.4.c.<.;.o.o.o.,.3.;.,.,.,.:.;.[ [ x.c.$.",
"S.3.| } } | o.| | ;.;.;.o.X.X.X.y w e.K.0.e @.u.+ p s.w.w.K.K.K.s.e.q.OX9X5Xg.<.4.<.+.+.} } | ,.<.1.<.4.1.$.o.] ' ,.7.$.",
"v.%.} X.+.| <.<.| | ;.;.$.<.$.$.u s.p.a a O.v.f X 3 e.K.v c p.s.d.e.OXsXvX9XY.( =.$.#.} } } | 1.4.<.<.<.,.#.} ] ] 3.c.$.",
"8.$.} o.| ,.| | | <.;.,.<.4.<.,.y i.O.,.3.m.7.N % p.K.K.A b M c w L.9XhXvXvX0XU.A.~ ) 3.3.;.,.4.c.4.<.<.$.X.o.| [ a.c.$.",
"C.*.} ;.;.| ;.;.| <.;.<.4.1.,.<.y f 7.7.4.7.C M t.d.P.P.J.M G M F Y I.tXfXfXBXBXNXtXU.( _ <.1.a.c.4.1.<.#.X.,.o.X.b.B.$.",
"F.,.| ;.;.| ;.;.<.| ;.<.1.,.,.<.3.c.c.8.:.I.:XXXr.E.s.E.oXb F G G M b iXyX9XCXCXCXCXBXtXY.>.4.4.3.4.<.$.o.o.4.#.[ 8.M.%.",
"n.3.;.;.;.;.| ;.;.$.3.1.4.7.4.8.v.v.c.:.I.>X-XL.e s.v e A * = x m x '.iXuXuXVXCXCXCXVXCXBX%X( 4.4.4.2.<.,.1.3.,.$.M.M.,.",
"C.4.| | ;.| ;.;.;.,.4.4.7.4.3.7.8.8.:.b.cXpX: e A v q.D X @ % o z @ ^.|.P.bXCXVXcX,X$X-XVXNX>.>.2.2.2.2.4.4.c.4.$.x.v.%.",
"V.3.-.,.| ;.| ,.1.8.c.c.4.2.>.1.3.4.b.zXCXCX-X: r.oXbXcX@X7 + % X   0 ^ '.BXNX=XE T E Y -XBX3X( a.4.4.8.c.c.M.%.g #.7.,.",
"S.8.,.<.,.,.<.<.c.N.M.9.2.2.2.4.v.>.3XCXCXCXCXMXbXNXVXVXbX%X` !.~.2XMXbXcXlX@XR T Q.Q.Q.R xXbXn.m.C.B.N.m.m.m.*.X.b.D.1.",
"k.[ ] +.[ +.X.#.&.#.#.[ } [ [ O./ %.MXCXCXCXCXCXCXCXCXVXnXnX$X'..XVXVXcX$XR R I U E E Q.R $XxXU.:.x.*.&.X.%.*.#.] x.x.[ ",
"7 2 , 6 8 7 9 8 6 6 8 2 4 3 , 4 O $XCXCXCXCXCXCXCXCXCXCXNX>X:X*X*XjX-XW R H H I U J T XXE +X=XU.! ' 4 > 2 s i 9 2 6 6 4 ",
").z.z.j.j.l.j.u.z.A.l.j.] f D D /.cXCXCXCXCXCXCXCXCXCXCXBX*X#X+XT T E U H H B B P E E W E T $X'.7.j.u.y.j.u.#.] y.l.l.j.",
"4X X|.|.|.|.{.(.}.|.`.Y.I.#X,X#X*XVXCXCXCXCXCXCXCXCXCXCXNX$X+XK B G U Y m Y E I K U T E *X:X#X'.H._._.}.<X{.S.C.(.}.}.(.",
"F.n.C.F.H.(.G.F.G.M.I.$X,XkX,X@X+XBXCXCXCXCXCXCXCXCXCXNX-XQ.J m V y.l.U I T +XXXT I J Y +X:XcXcXY.M.S.S.S.C.N.c.M.n.n.c.",
"4.{ =.4.v.M.v.7.2.z.>XkXlX,X*XXXJ lXCXCXCXCXCXCXCXCXNX-XP J Z k $.-...B J L T W +XQ.T R E E pXBX>Xo.:.=.=.-.,.1.:.>.:...",
"N.4.m.S.n.c.7.%.o.Q.pXxXpX*X,XI T @XxXCXCXCXCXBXxX>X@XI Z &.1.2.2.2.%.V T Y J K R Q.Q.Q.E I U $X$Xh.2.3.4.<.4.7.7.7.7.4.",
"S.M.N.v.7.:.o.:.k R pXkX*XpXpXI E Q.+X,XnXCXCXcX$XP J D <.1.<.<.2.4.,.V E Q.Q.Y K L R E Q.T K T I y.2.<.<.2.2.2.1.4.3.3.",
"S.v.c.3.,.$.:.1.k T kX-X+XlXpX+XE W E T +X>XxX>XU C u.<.<.<.<.<.2.2.<.y.V I T H m n N N V W E J J @.2.2.2.2.<.<.<.4.4.,.",
"S.8.1.<.1.3.3.>.k P :X=X+XkXkX+XE W E +XE R W P k <.<.3.%.,.<.4.2.2.1.2.,.@.C + X & o o   N K B y.7.1.4.7.4.2.<.<.4.<.,.",
"N.4.<.<.2.<.,.2.k H Q.Q.@XkXjX#XE E W E +X+XE K @.4.<.,.o.$.,.1.4.4.7.4.1.<.1.r # $ & z z = O.&.1.4.1.<.2.4.2.<.<.<.<.,.",
"N.4.<.<.<.2.2.,.3 n Q.J +XjXlX>XT E E E I I H C 1.<.,.$.} | | <.4.8.m.8.4.<.3.5 o & & x z f 2.4.4.1.2.2.2.4.1.<.<.<.<.,.",
"M.2.1.1.>.:.<.#.d % S H XXjXkXjX*XQ.L L I U T C <.<.| } } | | | <.4.4.7.4.2.<.5 o $ & x - #.1.<.<.<.<.<.1.2.<.<.<.<.<.,.",
"N.4.1.1.,.2.%.9 6.s % n XXpXxXxX,X*XR J I T I Z ;.| | +.,.:.,.:.,.,.1.<.$.,.$.5 o = = z * $.4.2.<.4.<.<.2.2.2.4.2.2.4.<.",
"N.3.4.,.,.:.$.1 5 6.5.d B E *X*XQ.J H H Y Y Z X.+.+.+.| ,.,.,.3.3.$.;.+.O.#.$.5 o & @ D ^.O.4.3.*.*.,.<.<.<.3.4.3.3.3.,.",
"g 9 0 q q 9 5 5 7 7 s  .s = t - - - - m N - 8 8 4 8 4 9 9 8 9 9 0 0 8 4 1 2 8 O X $ l ~.~.g 5 5 3 1 4 6 8 6 0 h g y u 5 ",
"y f y g g y 5 O 7 7 6 2 O f u.y.j O.j y r r f y y y r 3 y j g a j ] y y y j j f s 6.!.!.6.6. .5 t d f A j j y.' 2 > 8 4 ",
"%X[.[.[.`.(.).D k C C l C [.4X<X}.[.[.[.[.[.%X X[.].A.*.(.|.].[. X].Y.].[. X%Xh.s  .f r f 9.!.7.k '.3X2X X[. XV.g l.'.).",
"}.D.B.B.9.9.B.F.Z.Z.Z.x.2.M.^.9.>.>.6.7.M.D.G.D.9.4.~ Q 9.(.>.9.9.2.9.m.9.M.9.2   ; ; ; ; ; ; ; . k H.N.7.-._ < : 8.{.B.",
"rXrXrXrXrXrXrXrXrXrXrXrXqXqXeXwXrXqXqXqXwXwXwXrXrXqX0X;XrXtXqXqXrXqXrXrXrXqXqXwXrXrXrXrXrXrXrXrXrXeXqX0X0X0X;X;X;XrXtXrX"
};
