/* XPM */
static char *result[] = {
/* columns rows colors chars-per-pixel */
"60 60 255 2 ",
"   c #1B0102",
".  c #380301",
"X  c #300C07",
"o  c #2E2224",
"O  c #470301",
"+  c #590501",
"@  c #481501",
"#  c #531200",
"$  c #6D0F06",
"%  c #661500",
"&  c #572207",
"*  c #572915",
"=  c #5A2719",
"-  c #682808",
";  c #762903",
":  c #682B17",
">  c #782D16",
",  c #6B321A",
"<  c #783519",
"1  c #7B341B",
"2  c #7B1537",
"3  c #472D25",
"4  c #6B3325",
"5  c #7B3A23",
"6  c #793728",
"7  c #6A2F30",
"8  c #7A4531",
"9  c #3C3B66",
"0  c #562A45",
"q  c #762947",
"w  c #72374D",
"e  c #483867",
"r  c #533B6B",
"t  c #355073",
"y  c #734A55",
"u  c #46457C",
"i  c #504570",
"p  c #6E5277",
"a  c #6B656D",
"s  c #92120E",
"d  c #96190A",
"f  c #962C08",
"g  c #882717",
"h  c #9B2617",
"j  c #87391A",
"k  c #843B1D",
"l  c #963617",
"z  c #A43002",
"x  c #A22C16",
"c  c #A22D1D",
"v  c #A4321F",
"b  c #AA3919",
"n  c #891524",
"m  c #833E24",
"M  c #883C25",
"N  c #983924",
"B  c #8B2D30",
"V  c #A43321",
"C  c #A73A24",
"Z  c #AC3922",
"A  c #AC3B22",
"S  c #8A411E",
"D  c #9A4419",
"F  c #A7481C",
"G  c #B14D1A",
"H  c #B36F18",
"J  c #844127",
"K  c #8C4225",
"L  c #8C452B",
"P  c #944424",
"I  c #9B4527",
"U  c #9D4926",
"Y  c #934529",
"T  c #94492C",
"R  c #9C4B2A",
"E  c #894836",
"W  c #984A33",
"Q  c #925433",
"!  c #995337",
"~  c #A34B26",
"^  c #AC4D24",
"/  c #A94429",
"(  c #A44D2A",
")  c #AA4D2A",
"_  c #B24325",
"`  c #B64826",
"'  c #B54A2A",
"]  c #B94D2A",
"[  c #A05721",
"{  c #AD5225",
"}  c #A4512C",
"|  c #AC532C",
" . c #B6572B",
".. c #B1542D",
"X. c #BC512B",
"o. c #A74A33",
"O. c #B34E31",
"+. c #A45533",
"@. c #AD5532",
"#. c #AD5935",
"$. c #A55939",
"%. c #AC5C3B",
"&. c #B25532",
"*. c #B25A34",
"=. c #BA5936",
"-. c #B35D3A",
";. c #996B24",
":. c #AB6926",
">. c #BB652A",
",. c #B37325",
"<. c #AD643E",
"1. c #B5613D",
"2. c #BB6738",
"3. c #B9613D",
"4. c #B37833",
"5. c #C4601A",
"6. c #C55A27",
"7. c #C1562A",
"8. c #C55A2B",
"9. c #C9652A",
"0. c #CD642A",
"q. c #D46A28",
"w. c #DA742A",
"e. c #D8772A",
"r. c #C86A33",
"t. c #C47B39",
"y. c #D37A32",
"u. c #E27C28",
"i. c #803740",
"p. c #8A5647",
"a. c #8D524C",
"s. c #965A47",
"d. c #A55B44",
"f. c #AC5A49",
"g. c #9B624B",
"h. c #8D6453",
"j. c #9A6654",
"k. c #A96547",
"l. c #B56443",
"z. c #B96543",
"x. c #B46A46",
"c. c #BA6946",
"v. c #B36549",
"b. c #B56A4A",
"n. c #BA6B4B",
"m. c #B7734A",
"M. c #A66655",
"N. c #B66D51",
"B. c #AD7258",
"V. c #BD7253",
"C. c #B87659",
"Z. c #BC765A",
"A. c #8F5261",
"S. c #906E6A",
"D. c #AC7566",
"F. c #B47B64",
"G. c #B97C66",
"H. c #C36C47",
"J. c #C5734B",
"K. c #C17555",
"L. c #C17A5C",
"P. c #C37E62",
"I. c #C97D62",
"U. c #BC8635",
"Y. c #D08B2E",
"T. c #E5842C",
"R. c #EB8929",
"E. c #EF912C",
"W. c #F3962D",
"Q. c #E48A31",
"!. c #EC9632",
"~. c #F19833",
"^. c #F49C32",
"/. c #D4A736",
"(. c #FAA528",
"). c #F5A234",
"_. c #FAA936",
"`. c #FAAB37",
"'. c #B98A52",
"]. c #B88068",
"[. c #BC846D",
"{. c #B28E6F",
"}. c #BB8672",
"|. c #BD8B78",
" X c #B6A36E",
".X c #CC8D51",
"XX c #E89A52",
"oX c #D4AA4B",
"OX c #DEB54B",
"+X c #E1BC4A",
"@X c #C58365",
"#X c #C5856B",
"$X c #C7886A",
"%X c #CA8B6D",
"&X c #D18D68",
"*X c #CB9468",
"=X c #D5946C",
"-X c #C68B73",
";X c #CA8D73",
":X c #C78F79",
">X c #CB9278",
",X c #CC927B",
"<X c #D59876",
"1X c #D6B06E",
"2X c #E2BB6D",
"3X c #E5C856",
"4X c #E5CF5D",
"5X c #E9D054",
"6X c #EDD556",
"7X c #EED867",
"8X c #E4C877",
"9X c #F5E56D",
"0X c #0C5290",
"qX c #304F8A",
"wX c #365B87",
"eX c #265595",
"rX c #2F6398",
"tX c #005AA7",
"yX c #155DA3",
"uX c #265FA5",
"iX c #0469B4",
"pX c #0968B0",
"aX c #176AB6",
"sX c #4C5589",
"dX c #56719A",
"fX c #2480B6",
"gX c #5A87B9",
"hX c #128BCF",
"jX c #3595CF",
"kX c #169EE4",
"lX c #00A5EB",
"zX c #68A4CC",
"xX c #B4958D",
"cX c #9CA4B1",
"vX c #CB9883",
"bX c #D19B84",
"nX c #D19B85",
"mX c #D3A28D",
"MX c #D5AB95",
"NX c #DEBA9D",
"BX c #E5AA85",
"VX c #E8B28D",
"CX c #EBB794",
"ZX c #F0BC97",
"AX c #D9B1A1",
"SX c #E0BFAB",
"DX c #E9D18D",
"FX c #F4C29D",
"GX c #F7E98B",
"HX c #D6C0A1",
"JX c #E6C6AA",
"KX c #FACAA5",
"LX c #FED1AB",
"PX c #FBF5AF",
"IX c #A2BBC8",
/* pixels */
"nXG.1.#.1.%.@.*.*.-.-.-.1.-.z.c.v.l.1.l.-.l.-.-.%.l.l.T k.L.n.l.1.%.+.+.) @.#.*.x.V.n.3.z.z.v.l.l.z.l.+.#.-.-.D k.;XZ.+.",
"-X3.| | } ~ ( | | ..) ..| *.l.n.c.-.&.) ' ..) O.) ..} 1 T b.-.) } R U ( ) | | [ | *.*. ...| ..| &.) ( ( ( ) ) D $.m.-.U ",
"#Xz.*.| ) ( | ..&.*...&.-.1.n.m.c.1.-.-.*.*.*.&.*.*.@.P $.P.z.@.} R ( { | { | | *.-.-.*.&.&.&.&.&.@.} ( | | @.P K | *.} ",
",XL.*.{ | ) | | | | | ..&.z.c.1.*.*.-.-.*...&.......o.l d.Z.l.} ( ~ } } } | | | &.1.*.*.*.*.*.&.@.( ( ) | ....Y K #.1.U ",
"nXP.*.{ | ) | } | } { | *.z.3.*.*.*.*.*.*...&.....&.o.k R n.-.+.} ~ | | | | | | &.-.3.=.*.*.&.@.| ( ( ) | ....U R l.l.} ",
",XV.=...| | | | | } } | *.3.3.*.*.*.*.&.&...&.&.....} k +.n.=.( ~ } | | | | | | *.-.3.*...*.&.@.( ( ) | |  ...Y S %.l.} ",
"$Xc.*.| { | { } { | | ..*.-.2.*.*.*.@...&...&.&.....#.,.$.z.#.( } | | ..|  .&.&.&.*.-.&.&.&.| ( R ( )  .| ..| Y < | 1.+.",
";Xn.1.@.| } | | | | | ..*.l.-.*. .*.*.*.*.&.&.....' 4.3X4.l.#.) | | | | .... .| ..&.*.&.&.&.} R U ( ) ......| P T b.z.( ",
";XV.=.@.&.| | | | | .. .-.z.-.*.&.&.&.@.*.*.*.{ ....5X9XU.m.<.| O.| | | | | } | | | | | | } T Y R ) | .... .| D W n.x.( ",
",XK.*.*.&.&.| | | | |  .1.2.=.*.&.*.O.9.Y...) Y.9.OXGX6X,.x.1. .*.O.) | | | | { ) ) ) } R P Y ( } ....| | ..| K M -.1.( ",
",XL.1.*.=.*.*.#.>.#.#.*.1.3.2.2.=.-.4.OXY.m.3X5X6XPXPX+XH %.l.-.l.&.| @.#.| ..| ) | | ~ R Y ( } @.*.&.#.| *.#.Y T b.1.} ",
"f.U M k 1 k 5 1 > g l P P 5 8 J M $ '.9X/.7X6X9X9X7X7XY.:.U m 6 k > : > g j j j j k J K j M S g > g > j j N k - : M S > ",
"M.L , & = : : = 4 6 M J 5 * X & + 5 4X6X7X9XDXPX8XDXoXH :.Q , * 7 4 = 6 E 6 < 5 8 : & - > < < 6 6 6 4 5 J m : = 7 6 4 : ",
"AX:XB.M.D.F.F.F.|.|.#XG.v.< J m.1X'.7XOX6X9XPXVXDX8XH oXU.k.D.{.}.}.G.-X:XF.F.}.].U k k.k.M.'.G.].}.}.[.[.C.B.F.}.}.F.B.",
"AX:XL.P.#X-X;X;X:X,X;X,XZ.l k.*XGX8X/./.5X9XOX XDXoX2X4X4.F.:X:XvX:XP.#X-X@X;X,X>X~ ! #X$X@X;X$X#X;X;X;X;X#X#X-X,X;X#X@X",
"#X#.#.-.l.-.l.-.d.1.-.z.$.: g.@X2XGX3X/.5X5XU.1X8XDX9XoX[ h.dXgXmXVX<X&XH.*.@.l.%.j E Z.Z.c.z.#.+.@.#.-.%.-.-.l.1.%.%.+.",
"L...| ^ { ^ ^ ^ ^ ^ ) { D : ! L.4.oXoX/./.U.,.+X9X7X/.:.[ a kXlXIXLXKXKXFXVX=X1.{ j ! L.n...{ ^ { F F F { ) ^ ^ ^ ^ G D ",
"%X3.&.&.=.*.*.&.*.&.&.@.T : k.@Xt.1XDXDX8X8XU.Y./.U.:.H H '.gXlXzXNXVXZXFXKXKX=X+.M ! V.c.&.......@.| | | | @.#.@.*.#.} ",
";X1.&.*.-.-. .@.&.&.&.@.T < k.n.1XPX2XVX'.8X'.[ ;.:.:.:.Y.(.{.fXrXj.<XVXVXKXKX.XU k T z.*.........| | ~ | | | &.&...| ( ",
"$X3.=.3.3.*.*.@.&.&.&.*.( j k.J.1XoX,..XU.'.m.<.H H :.:.Y.).(.g.0Xh.@X*XFXLXCX@X+.k T l.*.{ ........) | | | &.&.&.| | ( ",
";X3.z.z.1.*.| @.) @.&.&.( M $.n.U.:.$.;. X<X*Xx.:.:.:.X.T.).~.e.w B.m.C.NXFX=Xx.| P W l.*.| ..&.*.| ) ) | | ..&.| | | } ",
";Xn.c.z.=.@.R R ( } @.&.+.1 I 3.+.+.*.{.HXAX[.x.Z.,XBX1XXX_.Q.q.G <.=XmX[.*Xk.} | U R l.-.&.&...&...) ) ( | ..| | | | } ",
">XV.n.2.*.| ( } } @.&.z.$.1 N -.@.G M.{.mXMXk.m.L.*XVXZXBX!.R.9.^ +.m.*X@Xm.+.{ &.K S +.@.) ....&...| ) ~ ( | | | | ..} ",
",XV.1.*.| ( ( | | *.z.n.%., T z.$.dXjXhXS..X>.( $.x.m.=XmX=X=Xr.X.+.<.x.m.x.+.| } 5 < | +.) | ......) ) ) } | @.{ | | U ",
",XH.2.@.| } | &.*.1.n.n.#., ! K.S.hXzXcXS.Q.E.0.V.=X2XZXZXBX&Xr.] / <.C.x.<.} @.| 1 K 1.*.( | ........' &.&.=.#.| | | R ",
"-Xl.$.} R ( @.#.#.1.z.l.! : Y N.S.xXHXFX=Xr.u.6.@XFXHXMXZXBX5.6.] c C $.;.+.} | +.1 K *.+.( } | | | @.#.+.%.#.#.+.| | U ",
"g., : : : > 1 5 J J 8 4 = X - Y j @XFXKXCXV.6.6.H.cXjXzXJXBX&Xr._ x g k k J 1 M 8 & > ) I j S j 1 k 1 , , k k 5 5 k k < ",
"y 3 3 3 = 4 , : , - @ X o 3 m W m $XKXKXCXBXBXVXCXcXlXjXxX<XP.=.H.O.g < 5 < , 1 L M s.b.$.} T K M L m 6 B W R , & - , * ",
"xXvXvX-X}.G.V.B.N.k.k.F.}.}.vXmX:X>XFXKXFXLXLXLXKXcXhXjXa k.<.b.&Xz.v $.b.<.f.N.N.Z.-X,XL.Z.@X-X-X-X[.#X,XvX$X| ! ].].B.",
"MXmX,X$X$XL.V.L.K.K.P.#X;X>X>X>XP.L.<XZXLXKXZXVX<Xh.0XpXqX8 } ! $.~ v -.c.z.n.K.n.V.K.H.n.l.n.@X$X@XL.L.@X@XZ.{ b.vX<XZ.",
";Xn.| ~ ~ I ( ) ) ) ) ( ~ ~ U D D ~ 1.@X*X%X@XV.+.h q r q b ` G f x V ) @.| ) ..*.-.&.( ( ~ ( | @.| | | | { } P T *.*.U ",
";Xm.+.~ R I ~ ) / ) ) ) ) ) ( R ( } { D D [ ~ ^ / C l d h i.N w e q v | *...| ..| @.( I R I ( | &.&.&.&.@.} } K P #.*.} ",
"#X-.( ( I ( ) / ) ) ) ) | ..| ) | | @.| @.*.-.C w r i t qXiXiXtXtX0 ~ | } ( ) ) ) ( R I R U ( @.&.O.&.&.@.( R K P %.-.( ",
"G.&.( R ( ( ) ) ) ) | } +.&.@.....2.9.r.../ o.C B q i.w p u sXsXeXr U | ( ( ( ) ) ~ ~ } | ) ) -.l.*.&.&.( R ( I R l.1.} ",
"#Xc.+.~ ) ) ) ) ) ) ) |  .r.y.Q.~.^.).).Q.X.b A x b ` z s z z b I B N ( ) ) ~ ) ) ) | | ..| @.-.l.&.&.@.( ( @.~ R x.1.} ",
":Xn.( ) ) ) ) ) ) ) ) q.!.)._.`.`.`.`.`._.e.X.] V _ X.v V X.=.X.] _ v V C ( ) ) ) ) | | &.&.&.-.*.&.@.( R ( #.R R <.1.( ",
"-Xl.| ) ) ( ) ) ) ^ y.).`.`.`.`.`.`.`.`.`.!.8.7.` ] _ c Z ' X.] 8.e.T.e.y.r.| ) ) | | @.&.....&.*.#.@.O.| @.*.) #.x.3.} ",
"-Xb.) ) ) ) ) ) / >.!.`.`.`.`.`.`.`.`.`.`.E.q.0.7.A Z h c A ] 8.Q.`._.`.).).!.e. .@.-.*.&.......&.&.&.*.&.-.1.&.#.x.1.} ",
"#Xn.+.) ) ) ) ) ( 9.^.`.).~.).)._.^.^.^.W.R.0.7.7.b V h Z ] ] 0.~.`.`.`.`.`.`.).e.0.J.l.*.&.....&.*.-.=.1.3.l.R k +.*.) ",
"#Xb.*.| ) ) ..&.#.' T.T.e.9.0.w.u.u.u.u.0.` ` ` A v x c A ' X.8.u.^._.`.`.`.`.`.^.E.y.-.*.*.&.&.l.c.c.H.3.3.z.} W b.c.| ",
"].l.} R } } | +.%.) ` 7.0.7.c Z _ 7.8.6.6.A A V c s h s V ] X.7.u.W._._.`.`.`.`.`._.W.7.' | @.#.l.c.l.$.#.*.%.R ! m.<.Y ",
"$.; & - - > > 1 < h _ 0.6.A A x c C A h d h h s d s s s d A ] O.7.w.E.^.`.`.`.`._._._.w.6.9.{ U P S , & - S K , - ; ; : ",
"|.j.p.E Q p.Q E M 8.q.q.A A Z c c s B E E B p.! W N E a.f.C h c b 6.u.R.W.W.^.)._.`.(.u.w.u.Q.t.} Q E 8 p.Q K 5 E s.s.E ",
"SXmX>X>X:X:X-X@X&.q.w.] A Z _ A Z V N.-X#X:X>X;X#X#X-XbXnX:Xv.o.C ' 6.6.w.u.u.R.R.R.R.u.q.R.W.~..XV.@X;X>X@Xz.c.@X>X-XZ.",
"mXP.Z.P.P.#XP.Z.f.Z ] 7.6.A ] 7._ A C v.Z.C.Z.K.V.n.Z.G.Z.K.z.l.v.f.O.V A ' 7.q.q.q.q.8.9.~.W.^.Q.y.J.L.P.K.c.c.m.K.V.v.",
"#X) F ^ -.z.c.z.O.v Z 0.0.7.7.7.] _ V h F F | -.*.' ) ^ ^ ) ( ( ' | ^ f d h c A ] ] _ ] T.).!.Q.E.R.q._ ^ ) &. ...^ ^ ~ ",
";X-...-.n.c.-.-.' Z 7.0.7.u.u.] A ] _ N | 1.v.c.=.&.&.&.&.@.| &.&.&.&...' C h v A A _ e.W.W.!.Q.T.q.' C &.@.*.*.*.*.*.| ",
",Xz.z.c.c.-.@.+./ Z ] 7.8.q.7.] ' A c C &.z.c.z.=.&.&.&.@.@.@.&.=.&.&.&.*.&.o.V c _ 8.e.q.u.W.R.u.7.V / *.&.*.*.*.*.*.+.",
",Xn.z.3.*.| | | | / V V A b V A A V l / ( #.*.*.&.&.&.&.@.&.&.&.O.&.&.&.&.&.&.' V c C A _ q.E.W.u.Z V C f.=.O.&.&.&.*.@.",
",Xn.-.*.@.+.@.| ..O.) C 2 2 B B q q R ) | @.*.*.&.O.&.&.@.O.&.&.&.&.&.&.&.&.&.&.@.l _ 7.6.u.R.Q.0.c B C &.O.&.&.&.&.*.) ",
":Xz.&.&.&...#...&.&.&.) w eXeXeXtXy ) ) ..*.*.&.&.&.&.@.( ( @.&.&.*.#.*.&.&.&.&.#.N _ 8.q.6.] _ Z n e y @.*.&.&.&.&.&.o.",
";X3.&.&.&.&.....&.&.&.&.6 eXaXaXpXy | &...*.-.&.&.&.@.@.( ( ( @.*.=.-.*.&.&.&.*.&.L l ' A V Z z n w u qXa.&.*.O.&.&.&.| ",
";X3.&.&.......&.&.&.&.-.M qXaXaXyXy | &.| ) &.&.&.&.| ( ( ( ~ ( #.=.2.1.&.&.&.&.@.R N A A C N q sXyXsXwXu [  .&.&.O.&.| ",
";X1.&.| | | | ..@.@.@.d.7 t wXwXt 8 | ( ( ( ( @.@.| ( I U ( ) | ) ) | *.@.&.@.@.@.L K o.o.C B u tXaXuXu i y R &.&.&.@.) ",
",Xz.*.*.@.....*.O.o.M.p dXfXuXuXyXy ~ } } | | ( ( ( ( | | ..@.@.@.| | +.( | | &.O.m j l.c.=.*.a.sXpXaXwX0 qXsXs.*.=.*.| ",
"].! T R ( R Y L C D.dXjXkXkXaXiX0Xy K P P K L L K M M M P T T T R T P m 5 J P T Y 4 1 d.$.W T T w t wXt u r uXwXE W W L ",
"E O O & ; - @   X 0 dXrXqXt 9 e 3 + $ + O . . + O O O X @ + $ + + % + O . O + % # O % f ; O .     o 0XiXpXqXsXsX9 @ @ X ",
"D.j.j.g.s.k.! p.h.h.f.s.s.s.j.M.j.M.M.j.s.h.h.j.s.s.s.8 E M.M.g.M.M.d.s.j.M.M.s.s.g.B.G.D.s.h.j.j.S.y qXyXiXuXp 0 6 a.a.",
"AXmX>X*X;X@X@X>XnXnXbXnX,X%X,XmX;X$X#X#X#X,XvXbX;X#XP.^ n.,X#X$X>X#X#X#X;X;X;X$XP.;X,X,X,X$X;XbXnXvX:XD.A.p sXr B G.vXI.",
"vX@Xn.n.N.c.n.N.Z.C.V.V.x.x.b.v.l.d.-.1.b.b.V.n.b.z.%.l d.P.c.l.z.l.l.c.b.v.z.x.c.n.n.z.c.c.c.n.N.N.N.v.d.! W 4 6 N.I.c."
};
