/* XPM */
static char *result[] = {
/* columns rows colors chars-per-pixel */
"60 60 246 2 ",
"   c black",
".  c #00000E",
"X  c #000216",
"o  c #00141B",
"O  c #161112",
"+  c #300D0A",
"@  c #352517",
"#  c #31201A",
"$  c #000226",
"%  c #071624",
"&  c #171C25",
"*  c #122931",
"=  c #242428",
"-  c #2F3334",
";  c #481803",
":  c #52150B",
">  c #6B0A0F",
",  c #572309",
"<  c #482717",
"1  c #4C2B12",
"2  c #572816",
"3  c #67290C",
"4  c #76330D",
"5  c #662A16",
"6  c #693418",
"7  c #6C341A",
"8  c #773819",
"9  c #74391D",
"0  c #531629",
"q  c #681427",
"w  c #493626",
"e  c #583627",
"r  c #563B32",
"t  c #6A3827",
"y  c #6C3B24",
"u  c #733D23",
"i  c #7B3E22",
"p  c #753729",
"a  c #7A2839",
"s  c #683132",
"d  c #783739",
"f  c #575600",
"g  c #754911",
"h  c #534C2B",
"j  c #5A4339",
"k  c #7C4125",
"l  c #77432A",
"z  c #6D4D34",
"x  c #794637",
"c  c #022E50",
"v  c #2A3844",
"b  c #333B45",
"n  c #313F53",
"m  c #5A324C",
"M  c #723845",
"N  c #35454A",
"B  c #354353",
"V  c #495254",
"C  c #555A57",
"Z  c #6A524A",
"A  c #765849",
"S  c #54614E",
"D  c #706951",
"F  c #505D62",
"G  c #52676B",
"H  c #596668",
"J  c #626C6D",
"K  c #726F6B",
"L  c #636E71",
"P  c #6B7475",
"I  c #687476",
"U  c #747C7D",
"Y  c #787E7D",
"T  c #893D00",
"R  c #9A3A00",
"E  c #96201F",
"W  c #823A19",
"Q  c #86372C",
"!  c #83343C",
"~  c #944D11",
"^  c #A3530E",
"/  c #92670F",
"(  c #A3690E",
")  c #844325",
"_  c #83452A",
"`  c #894728",
"'  c #8C4B2C",
"]  c #964A23",
"[  c #944D2C",
"{  c #9B4E2B",
"}  c #865F27",
"|  c #9C5223",
" . c #97512E",
".. c #9C522E",
"X. c #844C32",
"o. c #894A36",
"O. c #944D33",
"+. c #895436",
"@. c #935233",
"#. c #9D5432",
"$. c #985739",
"%. c #9B5B3B",
"&. c #A24E27",
"*. c #A35226",
"=. c #A75A27",
"-. c #A2532E",
";. c #A3592E",
":. c #A35632",
">. c #A65737",
",. c #A55934",
"<. c #A95A35",
"1. c #A45C3A",
"2. c #AA5D3A",
"3. c #8B6C2B",
"4. c #A8632E",
"5. c #AE762F",
"6. c #A9643A",
"7. c #AB613C",
"8. c #B2653B",
"9. c #893845",
"0. c #95394A",
"q. c #94394D",
"w. c #A43A4D",
"e. c #A93B60",
"r. c #884647",
"t. c #934A4E",
"y. c #875743",
"u. c #975C44",
"i. c #974754",
"p. c #A6574E",
"a. c #A84557",
"s. c #B44B5C",
"d. c #9A6349",
"f. c #8C764A",
"g. c #9A6B56",
"h. c #9C715B",
"j. c #A46243",
"k. c #AC6543",
"l. c #AE6946",
"z. c #A8664A",
"x. c #AD6A4A",
"c. c #B16542",
"v. c #B16A45",
"b. c #B16C4B",
"n. c #B47548",
"m. c #B3714E",
"M. c #A86D55",
"N. c #B36E52",
"B. c #B56958",
"V. c #A8735A",
"C. c #B37354",
"Z. c #B97654",
"A. c #B4765A",
"S. c #B6795B",
"D. c #B97B5D",
"F. c #995B69",
"G. c #A95769",
"H. c #B65064",
"J. c #B85567",
"K. c #95756C",
"L. c #A97B66",
"P. c #B57B62",
"I. c #BA7E61",
"U. c #B16A72",
"Y. c #C15670",
"T. c #C5667A",
"R. c #C6747B",
"E. c #79807F",
"W. c #978232",
"Q. c #B18F36",
"!. c #C49137",
"~. c #9D8B59",
"^. c #AC8E42",
"/. c #BB8165",
"(. c #BC856B",
"). c #B9856C",
"_. c #B58C76",
"`. c #B98976",
"'. c #BC8B74",
"]. c #CC8852",
"[. c #C1876A",
"{. c #DE9F6E",
"}. c #C28D74",
"|. c #C18F79",
" X c #C79177",
".X c #C5937B",
"XX c #C9947B",
"oX c #DAAC76",
"OX c #787E81",
"+X c #BB798E",
"@X c #CA6E82",
"#X c #CA7485",
"$X c #D3778B",
"%X c #CE7D92",
"&X c #D97C94",
"*X c #7A8183",
"=X c #83898D",
"-X c #8A8C8E",
";X c #8C9296",
":X c #93999B",
">X c #B2928C",
",X c #989CA2",
"<X c #9EA1A6",
"1X c #A5A8AB",
"2X c #BCABA7",
"3X c #ADAEB1",
"4X c #B5B6B9",
"5X c #C69B86",
"6X c #CC8B90",
"7X c #C78798",
"8X c #D98599",
"9X c #E1879E",
"0X c #CDA38F",
"qX c #F3AC98",
"wX c #D691A7",
"eX c #E58CA4",
"rX c #E793A7",
"tX c #EC95AD",
"yX c #EB9AB2",
"uX c #F29CB5",
"iX c #C8ADA6",
"pX c #C1B0A4",
"aX c #CBB0A7",
"sX c #CDB1A9",
"dX c #D2B3AA",
"fX c #D5A1BA",
"gX c #E7A5BC",
"hX c #F5A2BA",
"jX c #D2CAA5",
"kX c #BABDC3",
"lX c #E9ABC3",
"zX c #EFB2CA",
"xX c #F6BBD5",
"cX c #C6C8C9",
"vX c #CDCED4",
"bX c #D6D7DA",
"nX c #F5C2DD",
"mX c #E8DDD1",
"MX c #DDDEE1",
"NX c #F8C6E2",
"BX c #DFE1E4",
"VX c #E6E7E9",
"CX c #ECEDF0",
"ZX c #F3F3F4",
"AX c #F7F8F9",
"SX c #FEFEFE",
/* pixels */
".XA.l.C.C.k.7.j.x.A.A.A.C.b.C.A.C.C.S.A.Z.C.C.N.A.D.z.u.'.}.Z.A.x.l.k.X.l +.6.C.).|.I.C.A.I.I.C.S./.A.k.l.A.C.] M.5X|.x.",
"C.:.;...{ { -.,.:.&.&.-.<.2.l.l.7.,.-.-.-.-.-.-.-.;.` 9 1.v.>.:...[  .o.s x l  .;.g ] <.:.-.:.:.:.-.{ [ ....-.W j.P.7.] ",
"x.2.,.:.#...,.<.<.<.>.2.2.x.C.m.v.7.2.2.<.<.<.>.<.<.[ _ M.A.<.#... ...@.q.q.x  .z.F.@.6.<.2.2.<.>.<.#.....;.>.] O.6.4. .",
"S.7.;.:.-.-.:.;.;.,.,.<.k.x.b.7.7.j.7.2.>.<.<.>.>.>.[ ' A.A.:.#.[  .:...o.q.9.4 M.$X1.6.<.2.<.<.>... ...;.>.>.) _ 1.6. .",
"(.c.;.;.-.-.:.#...;.:.2.l.m.8.7.7.j.8.7.2.2.<.>.,.>.' _ k.b.1.#...@.;.;.x w.9._ %X$X>.2.2.2.,.<.#...{ -.,.=.<.[ @.x.k. .",
"I.7.;.,.-.#.:.;.:.-.,.<.6.7.<.;.^ ^ ^ ^ ^ :.<.-.<.>.` W k.b.#...{ #.>.-. .9.w.T.uX8Xc.2.<.2.<.#...{ :.;.;.>.<.` ' l.k. .",
"N.7.,.,.;.;.;...:...| 2.N.N.b.A.6XwX6X6X6Xk.>.<.^ >.o._ z.v.:.....-.;.<.<.' 0.Y.eXtXB.*.<.<.:.#.[ ..-.<.*.>.>._ 8 ,.k. .",
"C.8.;.,.#.#.:.:.=.;.B.R.#X#X@X%XhXzXnXnXnXzXlXgX6Xk.T 8 j.k...#.:.;.,.;.,.:.@.!.oXqXB.-.2.>.#.[ { ..;.<.;.>.:.) ' x.k. .",
"Z.k.:.>.-.;.:.=.M.R.G.r.d ! ! ! q.i.U.8XlXxXNXNXxXlX7Xu.z.m.#.,.>.-.;...<.` w D D ^.!.4.>.@.[ ' [ ..<.,.;.<.,.` #.A.l.{ ",
"I.k.<.<.>.>.:.#.G.r.) 1.6.6.:.#...[ p W q.@XyXzXnXNXNXzX`.x.2.,.<.;.-.;.,.1 $ c c c f.3.[ ' ' [ #.<.<.;.:.<.-.k ' k.j. .",
"[.c.<.8.2.2.#.d X.;.4.7.v.v.8.8.c.8.2.k.o.> w.$XgXxXnXNXlXM.4.k.k.<.-.2.X.o = N N B c l [ ' ..:.<.<.<.,.,.,.1.Q O.b.8.#.",
"u.O.` ' ' ' l e i [ [ @.' +.' +.' _ [ ) i.$XH.! T.uXxXnXNXlXd._ _ k i ) < o & n N B b l Q ` ) ) Q ) ) ` ] ' _ 7 l $.@.9 ",
"W 5 ; ; , , : 2 5 7 9 9 2 + + ; ; : 5 s T.hXlX+X%XyXlXxXNXNXwX: 2 : 0 p @ % & - B v - 3 6 8 4 5 5 5 5 7 9 7 , ; 2 3 , : ",
"_.M.d.g.L.g.V.L._.U.P.M._ 9 +.d.d.L.h.a $XuXNXNXlXxXNXlXlXnXlXU.L.L.L.h.& = & * n * l d.d.d.V.L.L.L.L.P.L.M.g.L.L.L.L.M.",
"0X(./.}.|..XXX5X5X5XXX}...$.'.}.'..X).! J.$XeXlXzXNXNXzXzXxXgX@XP..XXX~.  $ % = * 1 d.'.'.[. X}.}.XXXXXXXX'.[.XX0XXX X(.",
"l.1.k.l.z.l.z.l.l.x.b.z.k X.)./.x.C.1.9.H.e.i.$XwXzXlX+XfXlXrXJ.t.c.k.$.^.3.* $ @ 6 u./.C.C.b.2.j.j.j.z.k.l.x.l.z.p.j.j.",
"2.-.*.-.-.&.*.&.*.{ *.{ 7 l C.C.<.6.;.d H.a.0.eXzXwX%X+X+ 0 w.q ~ p.p.J.rXoX5.} X.i d.D.c.,.-.*.| | ] { ....-.| *.*.| ] ",
"v.<.<.2.2.2.2.2.2.2.2.$.7 o./.S.7.7.2.[ i.0.#   >XyXe.lX7XM F.G.U.eXrX8X9XY.p.$.#.i j.D.c.<.<.;.<.,.;.:.:.,.<.<.2.2.,.#.",
"b.<.2.7.7.2.<.>.<.>.<.@.8 +.D.b.>.<.2.<.O.a +   + H.E @X%XG.+Xi.$X@X@XJ.s.a.d #.:.9 %.v.<.:.<.=.>.>.#.-.-.:.:.>.:.:.:. .",
"v.2.7.c.6.<.<.<.<.>.2.:.) %.C.l.>.2.2.2.2.! q + M q.e.H.w.t A M s.s.w.9.0.Q O.2.@.9 u.l.>.=.<.:.<.*.-.-.;.<.>.<.<.:.:. .",
"b.k.l.v.7.:.#.#.:.>.<.:.) @.C.k.;.7.7.7.-.r.T.H.a.s.q.a.s.0.s q.! q d O.' #.<.<.:.W %.l.1.>.>.<.<.-.&.:.:.>.>.<.:.;.:...",
"C.b.v.7.,.#. . ...>.>.:.) ) 2.7.<.7.7.7.Q G.tX&Xs.J.a.a a q.a e M s ' 2.<.>.:.<.>.' %.k.,.>.<.>.<.>.-...{ :.<.;.:.#.;.#.",
"S.m.c.2.#.....#.:.<.k.j.l 9 2.1.:.2.2.,.p H.tXeX0.s.H.q.q.m x 6.s.t.-.2.<.<.,.,.#.k ) 1.:.;.<.<.<.>.:.{ ....;.;.;.,.,...",
"A.l.2.<.....:.,.,.k.C.k.i l k.j...:.:.,.i T.uXrXq.a.i.m B c W.].J.B.j.@.>.:.>.>.[ t ) <.#...-.:.*.>.-.-.....,.,.#.;.#. .",
"Z.8.2.:.#.-.<.<.7.b.C.k.i l N.v.2.2.<.#.q T.eXT.2 = * c V c ~.].e.T.F.y <.<.2.<.@.7 @.k.,...,.;.<.<.>.,.<.2.2.2.,.;...[ ",
"x.1.#.@.@.>.1.1.j.l.k.1.u p z.N.j.2.2.o.q J.&X{.f $ n B B c 3.].w.0.! s ' ,.#.2.O.7 @.7.#...:.<.,.:.>.#.1.1.6.,.:.:.;. .",
"e 1 , 2 5 7 7 9 l l t < + ; 8 W 8 W W p > @XuXqX^.$ - - v % h 3.! 9.9.d l i u i 7 : 8 -.) W 8 8 8 8 7 3 3 8 9 y l 9 9 5 ",
"j j r t t y t y 6 ; < w w z u.r.x +.' s a G.9X9XD.+     . + 0 e k 8 a M O @ 7 _ X.X.M.A.%.%.$.X.X.+.X.x r.u.$.6 1 7 7 e ",
"0X5X'.'.'.S.A.S.N.z.L.`.'.5X0X5X|./.b.u.t.q.9.9.t.y.F.G.F.#XT.u.j.2.%.d.y.+.M.A.A./. X}.D./.).'..X|.).}.5X5X(.=.d.'.).V.",
"5X|.).I.C.b.C.C.C.B.P.).).).).P.A.z.7.7.r.s.w.@X9X$XrX&X@XtX@Xu.v.k.v.v.v.c.b.b.b.C.C.b.k.k.m././.D.C.A.D.D.C.| x..X[.C.",
"C.:.] { ] [ [ ..&.{ { { ..] ] ] ] { #.;.i a.J.Y.T.$XuXtXT.lX7X4 2.>.<.:.:.:.-.-.7.7.;.{ { [ { :...;.#.:.-.-.[ ) ' 7.,.[ ",
"C.1.[ O.[ { #.-.{ -.-.-.....@.{ ..;.<.<.| ! J.s.Y.tXuXtX9XhX7X4 2.,.:.<.<.:.>.;.>.#.[ [ [ [ ..>.<.<.<.<.<.#.[ _ ` 6.7...",
"l.#.[  .O.{ -.-.{ { -.#.>.>.-.-.>.<.:.;.:.! s.s.T.yXuXuXrXtX&Xp { >.-.-.-.{ :.{ O.{ [ [ { { #.<.2.<.>.>.:.[ [ _ ' j.7...",
"j.#.[ ..-.-.-.-.{ >.-.-.>.2.>.>.;.>.<.<.7.X.a.s.J.uXuXuX8X9X9X! O.:.@.{ @.#.:.>.>.#...;.-.:.>.j.j.2.<.>...{ #.] @.k.7. .",
"C.%.{ -.-.O.-.-.>.>.-.>.<.:.:.;.<.2.2.6.6.@.t.H.Y.eXyXuX8X$X6X{.Q.O.-.{ ~ R R R R :.1.>.>.<.>.j.7.<.<.#.[ ..>.[ $.x.k. .",
"A.:.{ -.-.#.-.-.-.{ >.>.:.:.>.2.k.k.7.2.6.1.d q.J.$XtXhXrX6X].^.^.u | %.>X3X2X2XL.#.~ &.>.<.<.<.2.>.>.#.@.>.<.[  .l.k...",
"x.:.{ -.-.{ ..{ :.#.<.<.6.7.2.k.k.k.7.1.v.x . X r i.K.+X+Xf.W.S oX1XcXMXAXSXSXSXZXbXpXx.*.<.>.<.<.<.<.>.:.<.2.;.6.m.k...",
"C.2.{ :.-.-.-...:.,.6.7.1.2.6.1.7.7.6.2.8.X.* V v G I c   ( z h jXZXCXSXSXSXSXSXSXSXSXcXz.<.<.;.2.>.2.2.2.k.k.@.@.j.7...",
"N.1...-.{ -.&.:.>.7.c.k.2.<.:.;.2.2.6.7.7.+.I 1X*X3XCXcX3X_./ Q.jXBXVXSXSXSXSXSXSXSXCX1XE.%.<.:.2.8.j.c.c.c.k. .) %.7...",
"A.1.;.<.>.>.>.2.k.l.8.8.<.<.<.2.7.c.7.k.8.y.G ,X,X1XcXvXVXVXmX2X,XkXCXAXSXSXSXSXSXCX:XP I A <.7.b.N.b.c.c.c.k...%.A.b...",
"%.) ) ' ` ` [ @.@.O.' ' ' ) ) _ ` _ Q i W Z I ,XcXVXAXVXBXVXCXkX:X,XbXSXSXSXAXSXAX3XP E.E.H  .,.6.d.@.@. .#.$._ ' d.$.k ",
"4 , , 3 3 6 6 3 , 3 5 , 2 < ; : ; + + + + ; K vXAXAXSXSXSXCXMX4X;X<X3XAXSXVXZXSX4XP P E.Y F k ] ) 8 , + 3 g u 2 , 3 3 2 ",
"_.h.h.g.M.h.g.d.h.L.M.g.+.x V.L.g.g.h.g.g.g.K.MXSXSXSXSXSXSXZXkX,X-X,XAXbXkXVX4XP J U Y U H g.C.j.d.d.g.L.d.@.@.g.V.M.u.",
"0X5XXXXX.X.X[.(.XXXX).(.6.%.'..X}.|.|.'.`.'.-XMXAXZXSXSXSXSXSXZX,XB ,XvX;X3X,XL H L P E.U G ).[./.(.(.XX.XI.b.C.(. X}.S.",
"N.k.z.N.A.D.S.C.A.l.l.k.l k C.A.l.C.k.j.z.6.K.1XvXZXSXSXSXSXSXSXcXv *X;XU OXV F H J P L U I D k.c.b.b.N.x.v.k.k.k.l.k.1.",
"6.| -.7.v.k.k.7.<.<.<...9 X.A.m.<.7.,.*.| +.B ;XVXSXSXSXSXSXSXSXcXN H *XL H L J P E.U H H H Z =.<.-.*.&.-.;.,.,.;.=.;...",
"N.2.c.C.x.k.1.:.,.1.2.1.) +.A.C.k.k.z.y.D L L ,XZXSXSXSXSXSXSXSXcXV *XG F H U U E.U Y E.L F C 6.2.2.>.2.2.<.2.7.2.6.2.:.",
"C.v.b.k.6.:.:...:.>.2.,.u 9 #.1.<.>.A G 1X1X1X3XVXSXSXSXSXSXSXSXvXB J Z H H C H J P U U E.E.G y.2.>.>.<.<.<.2.<.,.2.7.#.",
"C.v.7.2.:.#.:.:.<.>.<.,.y 6 @.>.....j =XvXBXVXbXbXVXAXSXSXSXSXSXcXh u.#.J U P U L J P J J J F y.<.<.<.<.<.<.>.>.<.<.2.#.",
"C.7.<.>.:.,.:.,.>.>.<.,.u i x.k...:.z =XvXAXSXZX4X-X:X4XvXbXZXCX;X} 2.<.x S H I P I L H N b Z #.<.<.2.,.6.<.<.<.>.>.<.-.",
"b.2.>.<.>.<.<.,.<.>.2.1.i +.D.C...y - =XvXMXCXSXcXU P P *X,X<X;XZ 6.7.2.>.>.;.j * - v - % l <.<.,.2.<.<.<.2.>.<.>.<.<.-.",
"v.2.>.<.<.<.<.<.<.>.7.%.u _ z.z # X N P 4X4XbXSXMXU E.E.U P U C %.7.7.7.>.<.2.k . & % & X u 2.<.2.<.>.<.<.>.<.<.<.>.<.#.",
"l.>.>.:.:.<.<.>.:.:.7.1.g l @ X & & v L 1X;XvXSXVX=XU E.E.E.I A ,.2.6.7.<.,.<.l o = * = o u <.>.<.<.<.>.<.>.>.>.>.<.>.#.",
"b.<.<.<.;.;.=.:.:.,.8.1.y g = % = & % V :XU bXSXSXkXJ E.L H A *.>.,.,.,.;.>.,.#.@ & = % X i 7.<.<.<.>.>.<.<.<.<.<.<.<.:.",
"m.1.2.:.,.#.>.:.#.6.6.%.e g } % % & X V P F bXSXSXBXE.F Z +.:.,.#.#...' '  .:.#.@ X % w h k 6.%.>.$.:.>.>.2.1.,.1.1.,...",
"t 6 9 W 9 7 2 2 2 6 2 1 + 6 5.3.& O + # H H 1XbXBXkXJ N 5 8 7 5 4 8 5 1 : 3 5 k z W.W.Q.!.g 2 1 < ; , 3 5 3 W k u y y 2 ",
"t t z k l l w w r e j j w 3 g ~ g z x l Z F G OXB V j < t x x x x l p s z d x 6 f / 4.( 5./ 1 j j j A o.x x u.9 ; , e ; ",
"5X>X'.'.(./.'.5X5X>X5X5Xf.e ' } h ).'.)._._.~._.K._.M.u.)..X'.|..X`.).'.'.5X'.L.g.Z r j } 4.n.g.>X0X0X5X'..X|.$.x ).'.P.",
"[.Z.n.m.8.8.m./.I.Z.D.n.=.~ | ^ T *.4.8.n.Z.Z.Z.8.8.R E n.Z.4.8.8.4.7.8.8.v.5.8.v.l.4.4.^ ~ =.=.C.S.A.b.;.| ~ > > D.[.6.",
"dXsXsXsXsXsXsXsXaXaXdXdXaXsXaXdXsXaXaXaXaXaXdXaXaXaX2X>XdXdXaXaXaXaXaXaXsXaXsXaXsXsXsXsXdXdXaXdXaXiXiXiX2X0X2X1XpXdXdXsX"
};
