/* XPM */
static char *result[] = {
/* columns rows colors chars-per-pixel */
"60 60 253 2 ",
"   c #390501",
".  c #310A07",
"X  c #3D312B",
"o  c #460200",
"O  c #560300",
"+  c #4A1903",
"@  c #591803",
"#  c #640701",
"$  c #691503",
"%  c #791504",
"&  c #592208",
"*  c #592818",
"=  c #5F311A",
"-  c #6A2706",
";  c #752C01",
":  c #672C17",
">  c #7A2C18",
",  c #6E341A",
"<  c #783519",
"1  c #7B331C",
"2  c #6E183A",
"3  c #532C24",
"4  c #6C2C2B",
"5  c #6C3227",
"6  c #7D3C23",
"7  c #763728",
"8  c #752C3C",
"9  c #7C4A32",
"0  c #072D4D",
"q  c #333671",
"w  c #553557",
"e  c #632956",
"r  c #733650",
"t  c #56396A",
"y  c #5C3F71",
"u  c #633E6E",
"i  c #3C4A76",
"p  c #774A53",
"a  c #4C4876",
"s  c #6A536E",
"d  c #7A6778",
"f  c #8C0C0A",
"g  c #971A05",
"h  c #902F10",
"j  c #982618",
"k  c #9C251A",
"l  c #9C2B1C",
"z  c #863819",
"x  c #843A1D",
"c  c #A32D07",
"v  c #AF390B",
"b  c #A22917",
"n  c #A12B1B",
"m  c #A4321E",
"M  c #A9381B",
"N  c #902A2C",
"B  c #833D22",
"V  c #8A3E22",
"C  c #85392B",
"Z  c #993A27",
"A  c #863A37",
"S  c #A63421",
"D  c #A93521",
"F  c #AA3622",
"G  c #A53D24",
"H  c #AC3C23",
"J  c #A93C2A",
"K  c #954A14",
"L  c #98441B",
"P  c #B5530B",
"I  c #A7491B",
"U  c #B8481E",
"Y  c #B7760D",
"T  c #874427",
"R  c #8C4325",
"E  c #8C4429",
"W  c #934424",
"Q  c #9B4627",
"!  c #9D4925",
"~  c #964629",
"^  c #954B2C",
"/  c #9C4B2A",
"(  c #9C5529",
")  c #894734",
"_  c #984B32",
"`  c #8A513B",
"'  c #9B5436",
"]  c #A94327",
"[  c #A44B25",
"{  c #AC4D24",
"}  c #A44D2A",
"|  c #AA4D2B",
" . c #B24325",
".. c #B64926",
"X. c #B64A2A",
"o. c #BA4D2A",
"O. c #A75729",
"+. c #A4512C",
"@. c #AC532C",
"#. c #B1542D",
"$. c #B85729",
"%. c #BC522C",
"&. c #A84D35",
"*. c #B54E32",
"=. c #A55433",
"-. c #AD5431",
";. c #A45B33",
":. c #AD5934",
">. c #A65A3C",
",. c #AC5B3A",
"<. c #B25532",
"1. c #B35A34",
"2. c #B35D3B",
"3. c #B85F3C",
"4. c #9B603F",
"5. c #AB682B",
"6. c #B86729",
"7. c #A9663C",
"8. c #B86535",
"9. c #B4613D",
"0. c #B9613D",
"q. c #C5591C",
"w. c #CC7516",
"e. c #C55926",
"r. c #C1552B",
"t. c #C45B2B",
"y. c #CC6224",
"u. c #CB632B",
"i. c #C96829",
"p. c #D56A26",
"a. c #D46B29",
"s. c #D8762A",
"d. c #CB7533",
"f. c #E37B26",
"g. c #8A5644",
"h. c #8C504F",
"j. c #985A47",
"k. c #A55C43",
"l. c #B25B45",
"z. c #98624C",
"x. c #996555",
"c. c #A96646",
"v. c #B56443",
"b. c #B96543",
"n. c #B56A45",
"m. c #BA6946",
"M. c #B66649",
"N. c #B56B4B",
"B. c #BA6B4B",
"V. c #B87549",
"C. c #BC734C",
"Z. c #A66A55",
"A. c #B46D52",
"S. c #BB6E51",
"D. c #AD7254",
"F. c #BC7353",
"G. c #BD7A54",
"H. c #B97659",
"J. c #914B69",
"K. c #8D6869",
"L. c #B47A63",
"P. c #BA7A64",
"I. c #B1756D",
"U. c #C17454",
"Y. c #C37A58",
"T. c #C27A5C",
"R. c #C37D62",
"E. c #B78532",
"W. c #D39E1A",
"Q. c #CE8B35",
"!. c #EC8425",
"~. c #E5842D",
"^. c #E68A2D",
"/. c #EB8C2D",
"(. c #F18B25",
"). c #EE922B",
"_. c #F2942C",
"`. c #F69B2E",
"'. c #E38C33",
"]. c #EB9531",
"[. c #F39D32",
"{. c #D4AC3A",
"}. c #F8A534",
"|. c #F8A736",
" X c #FAAB37",
".X c #E6C938",
"XX c #9F9957",
"oX c #B88653",
"OX c #BA8169",
"+X c #BB836C",
"@X c #BE8974",
"#X c #C5845A",
"$X c #CD9552",
"%X c #D8AD50",
"&X c #E0BC51",
"*X c #C58264",
"=X c #C58469",
"-X c #C8866A",
";X c #CB8C6C",
":X c #C99469",
">X c #D39362",
",X c #C78B75",
"<X c #C48C75",
"1X c #CA8C73",
"2X c #CB9278",
"3X c #CC937B",
"4X c #D69978",
"5X c #D6AF6B",
"6X c #E6B37B",
"7X c #E9CF58",
"8X c #E9D271",
"9X c #F9ED70",
"0X c #003F87",
"qX c #00488B",
"wX c #01569A",
"eX c #105090",
"rX c #33538D",
"tX c #0B649F",
"yX c #336495",
"uX c #035CA7",
"iX c #1557A4",
"pX c #0763A9",
"aX c #0169B6",
"sX c #1768B5",
"dX c #0373BE",
"fX c #1A70B6",
"gX c #2C74B1",
"hX c #454988",
"jX c #515585",
"kX c #435996",
"lX c #5F6B99",
"zX c #4D76AB",
"xX c #8B748B",
"cX c #1D86B6",
"vX c #708DB2",
"bX c #0489D3",
"nX c #0F91D7",
"mX c #3194D2",
"MX c #219FE3",
"NX c #07A4E9",
"BX c #4BA2D3",
"VX c #92999B",
"CX c #8A95AC",
"ZX c #CA9985",
"AX c #D19983",
"SX c #D5AD8C",
"DX c #E8B08E",
"FX c #E9B894",
"GX c #EEC695",
"HX c #FAF093",
"JX c #D1D4AA",
"KX c #F6CEA5",
"LX c #F8EFB3",
/* pixels */
"=XN.1.2.,.:.-.:.1.3.2.v.2.9.b.N.v.2.v.l.v.2.2.2.2.b.=.^ A.T.b.v.9.;.=.=.| <.-.2.m.F.m.b.v.m.b.v.v.b.v.=.:.2.,.L c.1XP.-.",
"N.-.O.@.[ } | <.#.| | #.-.2.m.N.b.1.@.@.X.#.| -.*.@.^ x k.B.-.@.} ! / } | @.O.@.#.<.1.#.<.#.| -.-.| } / } | { L ;.B.2.! ",
"B.2.#.@.| | @.<.#.1.<.<.2.m.B.N.b.l.1.1.1.<.<.<.-.<./ W A.Y.2.| } / [ @.@.O.@.@.1.3.3.1.<.<.<.<.<.-.| | @.@.@.~ W @.:.} ",
"R.0.{ @.} @.@.@.@.@.@.#.9.m.m.8.1.2.3.1.<.<.#.#.#.-./ W V.C.>.| } } | O.@.@.O.@.#.2.1.1.1.1.<.<.-.} } } @.#.#.W E ,.9.} ",
"-Xb.{ @.@.| @.O.@.+.@.<.9.b.8.1.1.8.1.1.<.<.<.#.#.#.K h 7X{.| | } } | @.@.@.@.@.1.2.3.1.1.1.<.-.} } } @.@.#.#.! / n.9.( ",
"T.b.#.<.O.@.@.| { @.@.<.3.0.1.2.:.#.<.#.-.*.*.<.#.:.Z E.9X%XG +.} O.@.@.@.@.@.#.<.9.0.1.<.#.-.@.} } @.{ #.#.<.W R ,.9.} ",
"U.1.@.@.O.@.@.{ O.@.@.<.2.0.1.$.1.1.#.&.1.8.<.| 6.@.5.8X9X{.Q | +.O.#.#.#.<.1.-.<.2.2.<.<.<.-.+./ | | #.@.@.@.R z +.9.} ",
"U.3.@.@.@.O.@.@.@.@.@.<.9.0.3.<.1.1.1.6.{.Q.D Q.{.$X9XLX9XY ' | @.@.@.@.#.#.#.#.<.1.#.<.<.#.} / Q } #.#.#.#.<.W ^ N.m./ ",
"U.l.#.#.| @.@.@.@.@.#.1.v.0.1.<.<.<.| $X7XE.7X7X.X9XHXHX&XY 5.&.#.@.@.@.@.@.@.@.@.| -.@.@.} ~ Q / @.@.#.@.#.@.L _ B.n.} ",
"R.b.#.1.#.<.@.#.@.#.#.8.0.3.1.<.<.%.Y.6X$X{.9X7XHX8X7X8XW.5.( -.<.#.| @.@.{ { @.| | } +./ R ~ [ @.#.#.@.@.1.@.R V 2.0.} ",
"R.m.$.3.1.1.2.:.1.<.<.2.0.0.2.1.8.$.>X6X-XoXQ.FXKX6XLX%XY E.5.7.l.-.| &.:.@.-.@.@.| | } ~ ~ } =.@.#.<.-.1.<.-.V ^ n.9.+.",
"/ V x B 1 x 7 1 z z L W B 9 T 1 $X:XQ.&X%X:X#X<X7.LX8XK Q.&X( T z > : z h x x z z x B V V V z z > z 1 z h V x : , Z x < ",
"_ 7 & * * : * = 5 C E B :   + o XXLX{.{.Q.' 7.G.G.5XW.8X9X{.T 9 5 , 5 7 ) 7 , B 9 : & - < < < 6 7 7 7 7 T 6 : = 4 7 5 : ",
"ZXL.Z.D.I.L.L.+X@X,X+XH.' < j.Z.oX8X%X%X$X7.#XG.#XXXJXHX7XK ( 4.I.+XL.<X@XL.L.@XH.h T Z.c.Z.H.OXP.@X+X+X+XH.D.L.@X@XL.L.",
"AXR.T.=X1X1X;X2XZX1X1X-X;.L =X2X#X&XFX;X#XoX#XY.#XK.BXVX5X4X%XoX,X1X-X2X-XR.1XAX#Xh c.+X-X-X;X*X=X,X1X2X-X-X-X1X2X,X-XR.",
"2.=.2.2.2.l.9.2.,.2.b.l.x 9 P.G.5XLX6Xn.8.Y.V.oX4X7.cXNXCXKXGX:XY.2.2.1.1.3.9.n.;.z j.T.F.N.v.:.:.=.:.,.l.,.l.9.,.:.>.>.",
"1.#.{ { { { { { { { { [ < 6 B.U.GXGX5.7.$XoXn.n.D.s fXNXzXDXFXDX*XI $.O.$.1.{ U [ x c.Y.m.#.{ { O.I I [ { O.{ { { I I I ",
"m.1.#.1.1.1.1.<.1.:.:.=.< T G.U.5XE.7.oXXX:X5.;.w wXsXpXd #X4X;X^ | 2.1.1.1.<.3.=.x >.F.b.@.#.#.#.@.@.| @.@.-.-.<.1.:.+.",
"m.<.<.2.2.1.1.<.<.*.-.+.x ) U.B.5.K #X6XSXFX>X7.5.9 i wXD.#XU.n.^ _ <.<.1.<.<.<.=.< ' b.#.@.#.#.#.#.@.| @.@.-.<.1.<.@.+.",
"b.3.2.b.3.$.-.-.<.<.<.-.W ^ B.U.j.` V.2XAXDX;X;.c.8.p qX( 7.' 8.4.8 <.#.@.@.-.1.@.x =.l.1.$.#.#.#.@.| @.@.#.<.<.<.@.@.+.",
"U.0.0.Y.#X2.@.} [ <.<.-.W ^ N.8.lXjXw.6.#X:X7.n.7.C.A eXh.D.4.c.s e I -.-.@.=.1.=.z =.v.<.#.#.<.<.@.| | @.@.#.<.@.@.@.+.",
"B.m.m.n.V.9.L v.T.1.<.-.R z 2.#XVXkXQ./.{ ! c.G.n.T.l a pXlXa rX0Xr l #.-.@.<.<.<.! ' v.:.<.<.<.<.X.| | | | #.@.@.@.@.+.",
"Y.m.U.m.! n.U.-X>X#.1.2.Z _ 4XKXKXzXJ.(.a.| =.;.G.U.c Z a uXpXwXe f n | <.<.<.<.=.V R :.-.| X.#.#.#.@.| } } @.@.@.@.#.+.",
"Y.n.9.7.;.V.4X4X;.K.xX<XDXFXFXKXKXSXa d.~.$.D.G.5.ZXxXg G h.s ) n l k G <.#.#.-.} , z -.=.| @.@.#.#.| | } | @.@.O.@.@.[ ",
"G.3.b.V.( n.V.;XD.cXnXCXGXDXFXKXFX;Xg.h.s.Q.rXxXVXBXbXr f H r... .X.k Z 1.<.<.$./ < ~ 9.-.| @.#.#.@.#.#.o.<.2.<.@.@.@./ ",
"N.:.-.;.;.G.C.7.` gXnXlX4X;XG.*XV.:.[ V e.'.jXaXbXbXaXt c F o.o.%.%.n J 1.-.@.:._ < ^ 2.&.} +.@.-.@.=.-.:.>.,.=.=.@.+.! ",
"7 = * : R 7.V.V.p dXdXkX#X#X( L W W R x h s.#XgXnXcXdXy P %.o.r.o.%.n z R B < B 1 & z +.W z z x x x 1 , , x x 6 6 x x , ",
"3 X 3 3 5 < T E i wXqXw T ^ ' E C E ^ < : m p.k.rXsXuXt c J u.r.J o.j 1 < , , B E C k.A.;.[ ^ T C T B 7 C _ / , & - , * ",
"ZXZX@X+XOXH.D.Z.x.h.Z.I.+X@XZXAX<XP.B.9.c.l.S v 8 t eXr c r.q.c m l Z l.N.,.M.A.H.P.1X1XY.G.=X<X<X1XP.,X2XAXR.@.' OXOXA.",
"SXAX1X,XT.U.Y.Y.U.U.R.,X2X2X3X;X#XA.,.9.B.M.l S c f % g v v r w rXq ,.M.n.m.S.F.S.U.U.B.B.v.S.=X,X*XY.T.R.=XY.@.N.AX3XH.",
"A.,.I [ ! Q [ | | | } [ } [ [ L ! } +.@.@.| | Z e t t u jXyXaXiXiXrXj.$.@.@.| #.1.1.#.[ | [ } -.@.@.@.@.@.@.[ W ~ 8.2.! ",
"F.,.[ } Q } } | | | | | | / ~ ~ [ @.$.#.%.<.3.l.t eXwXwXpXdXfXpXuXwXr { <.-.<.| <.-.} Q Q Q } @.#.<.<.<.<.+./ V W :.2.+.",
"m.=./ / [ } ] | | | | | | <.$.i.s.'.'.'.'.'.d.u.S j A r 8 8 2 8 8 8 N I @.} @.| } [ / ~ / [ } -.<.<.<.<.=.} / R W ,.0.( ",
"2.| / } | | | | | ] @.6.d.].[.|. X X X X X X[.].d.H ..M n D m M H %...l Q } } | | } } O.@.| -.2.3.<.<.<.} } } Q / l.9.} ",
"S.,.[ } | | | | | $.'.[. X X X X X X X X X X X|._.t. .m S X.r.t.o.a.a.b M +.| | ] | @.@.#.#.-.l.l.1.#.&./ } @.[ } n.9.( ",
"F.:.[ | [ | | | $.]. X X X X X X X X X X X X X X[.t.F m F t.y.t.s.'.[.~.%.} | | | | @.@.<.<.<.1.1.<.-.} } +.-./ / v.0.} ",
"N.,.[ | | | | ] s. X X X X X X X}. X X X X X X X~.H D m D ..y.].|. X X X].t.| | @.@.@.@.<.#.#.<.<.<.-.<.@.-.1.| :.N.0.[ ",
"S.:.[ | | | | | ^. X X X}.}.}.[.[.`._.[.}.[._._.s.b n H m U ^.|. X X X X X~.H } @.:.2.:.<.#.#.#.<.#.<.1.<.2.9.-.=.n.0.} ",
"S.2.[ | | @.} @.~._./.!.!.!.~.s.f.'./.f.u.e.e.t.y.X.n n b u.f./.[. X X X X}.y. .| b.B.0.<.<.#.@.<.2.1.<.9.b.9./ x =.2.+.",
"S.3.{ -.| X.@.%.s.a.s.~.~.a.e.t.r.r.u.s.e.q.D D D H n f D r.f./.[. X X X X X/.y.t.U.U.0.2.1.<.1.3.U.b.U.0.3.9.+._ N.m.| ",
"N.=.! | / } | G e.~.^.s.s.i.q.H D ..S k F H n n l l l f j D t.f.[. X X X X X[.(.y.&.b.,.=.@.1.1.v.n.l.;.:.1.,./ ' N.c.Q ",
"; - @ - < < % q.r.e.p.U U U U m j f # % # # % % % $ O # g c n r.f._.}. X X X X|.s.f z : - z ! Q W L : & ; R T : - ; ; : ",
"Z.z.g.g.` ` )  .o.M ..U H k k H m ) p 9 ) g.z.j.g.g.h.x.L.c.Z J t.~._. X X X X X]...j 1 ` z.k.>.' ` 9 9 g.' T B ` j.j.) ",
"SXZX1X2X1X2XP.J  .%.r.o.X.D  .r.G P.<X,X,X,X3X,X*X-X3XAXSX<XF.l.X.a.(._.}. X X X|.t.q.X.R.2X,X=XT.R.R.1X3XH.n.N.*X1X1XH.",
",XH.U.R.=X=XA.n o...y.u. .X.X.D k &.R.H.H.H.S.U.B.F.H.T.T.B.v.v.&.H a.(.(.(.`.`._.f.f.s.X.l.H.S.S.Y.Y.R.R.U.m.N.F.F.F.M.",
"2.I I <.0.m.&.n H H y.e.t.r.o.H n n | I I { <.3.#.| | { { } } | ..j H t.p.f.!.(.!.p.)._.'.q.k | #.| { { { { 1.#.#.{ { [ ",
"N.%.2.b.N.b.| D b ..e.o.f.p.H o.o.H ] 1.1.b.B.b.1.<.<.<.-.-.-.<.<.G b m H r.p.s.y.r._.[._./.M s.a.G <.<.<.@.#.1.1.1.1.@.",
"B.l.m.B.3.:.&.l b e. .o.f.a.H H G m &.,.3.m.b.3.<.<.<.1.-.@.<.<.<.<.J D D D D H n p.}. X'.^.p.i.f.S <.<.<.1.1.1.1.:.2.-.",
"G.m.b.1.-.@.@.] Z n g X.r.r.X.D k Z | } -.1.2.1.<.<.<.<.<.*.<.<.<.<.<.] l m  . .u./.]._.[.~.f.D e.G <.<.<.<.<.<.<.<.1.=.",
"S.v.1.<.-.@.+.@.<.Z 2 k g g k J [ } / | @.-.1.1.*.<.<.-.-.-.<.<.<.<.<.1.J k M H i.t.o.a._.~.a. .M G 1.<.1.<.<.<.<.<.1.| ",
"S.<.<.<.#.-.#.<.*.C wXrXhXrXhXx.<.| | #.<.1.1.#.<.<.<.@.} | -.<.<.<.1.<.<.J H H D M ..a.!.f.r.o.M n ,.<.1.1.<.*.<.<.<.| ",
"B.1.<.<.<.#.<.<.*.V uXfXsXaXkXZ.<.<.<.#.#.1.1.<.<.<.-.+.} } | -.1.3.8.1.<.-.J  .e.p.a.a.p.e.H v N r *.-.<.<.<.<.<.<.<.| ",
"B.1.<.<.#.#.<.<.#.E pXfXfXaXs 0.@.#.-.@.@.-.<.<.<.<.| } / } } @.<.1.2.2.<.<.@.l H %.U H  . .b N rXwX_ $.-.<.<.<.*.<.<.&.",
"B.#.@.-.@.#.#.:.{ A yXyXyXeXp 0.@.@.} } } } | =.=.| Q / } { } | @.#.1.1.@.1.:.] l X. .m n f f e sXaXjX[ <.<.<.<.<.<.<.| ",
"U.1.-.-.#.@.-.| P xXcXyXrXeXs B.{ | } @.@.@.@.| } } } | | <.@.1.<.@.=.+.} +.@.<.J l S S l e rXa t sXtXp @.<.<.<.1.1.1.-.",
">.^ / } / ^ W J.lXmXMXgXfXfXiXh.V R R W E E R R E B V W ~ ~ ^ ^ / ~ W 6 6 T ~ / E : B ,.Q u pXdXhXt yXwXp L / =.+._ _ E ",
"+ o @ - - 4 lXmXNXMXnXdXaXaXq # # $ # O   .   O o o . . O O # O # # O o   o # @ O o % c % o 0 i a w a iXuXt $ , * + + . ",
"x.x.j.c.c.l.I.xXlXkXhXy J.p K.Z.Z.Z.Z.z.z.z.x.x.j.j.g.B j.Z.Z.x.Z.Z.j.j.x.Z.Z.j.g.z.H.OXD.z.x.a wXfXhXrXbXvXZ.E - 9 g.) ",
"SX3X1X1X-XR.R.,XI.I.I.R.R.-XAXAX=X=X=X*X2X3X3X3X-X=XS.I =X3X=X;X1X*X=X,X1X2X1X-X-X1X3X3X1X-X2XI.iXaXaXjXzXCXS.~ E =X3XR.",
"=XF.N.F.M.B.S.H.R.H.T.H.M.S.M.l.l.9.9.v.N.A.G.A.M.v.} L A.T.3.v.n.v.v.n.M.v.m.n.b.N.B.n.N.M.N.M.h.s rXkXJ.J.Z > 7 H.R.B."
};
