/* XPM */
static char *result[] = {
/* columns rows colors chars-per-pixel */
"60 60 244 2 ",
"   c #030101",
".  c #000217",
"X  c #141213",
"o  c #270600",
"O  c #3B0903",
"+  c #2E170B",
"@  c #392613",
"#  c #000425",
"$  c #061A25",
"%  c #141C25",
"&  c #001636",
"*  c #1C2328",
"=  c #0B2A39",
"-  c #2E2E2F",
";  c #460600",
":  c #580A01",
">  c #481A07",
",  c #541904",
"<  c #411F11",
"1  c #651901",
"2  c #611E13",
"3  c #592406",
"4  c #572916",
"5  c #513116",
"6  c #67290A",
"7  c #723206",
"8  c #672B15",
"9  c #792C17",
"0  c #6B3419",
"q  c #763919",
"w  c #5B1E2A",
"e  c #6C1629",
"r  c #523129",
"t  c #71292D",
"y  c #6A3925",
"u  c #773C25",
"i  c #793636",
"p  c #4D4B38",
"a  c #6A4229",
"s  c #79452A",
"d  c #645923",
"f  c #724E30",
"g  c #784936",
"h  c #7B523E",
"j  c #012D49",
"k  c #2D3A48",
"l  c #753745",
"z  c #384A50",
"x  c #4A565A",
"c  c #515452",
"v  c #7C5847",
"b  c #6C5250",
"n  c #5D615C",
"m  c #67635A",
"M  c #4F5C62",
"N  c #7B5761",
"B  c #4D6164",
"V  c #5B6569",
"C  c #5A6668",
"Z  c #5B6E72",
"A  c #636C6D",
"S  c #6E726C",
"D  c #656E71",
"F  c #6A7577",
"G  c #6C7475",
"H  c #777C79",
"J  c #747C7D",
"K  c #993800",
"L  c #823712",
"P  c #8D1D36",
"I  c #803C24",
"U  c #882A3C",
"Y  c #833A3C",
"T  c #97520F",
"R  c #88471C",
"E  c #984A18",
"W  c #A44C0D",
"Q  c #946910",
"!  c #834325",
"~  c #8B4627",
"^  c #84462A",
"/  c #854A2C",
"(  c #8C4B2C",
")  c #964A24",
"_  c #944D2C",
"`  c #9B4E2C",
"'  c #885729",
"]  c #9C5326",
"[  c #96512E",
"{  c #9C522E",
"}  c #844734",
"|  c #8C4D31",
" . c #924E31",
".. c #994F33",
"X. c #87543A",
"o. c #945234",
"O. c #9C5532",
"+. c #975739",
"@. c #9C5A3B",
"#. c #A14F25",
"$. c #A35125",
"%. c #A1532E",
"&. c #A9572C",
"*. c #A3582F",
"=. c #A35632",
"-. c #A95734",
";. c #A55934",
":. c #A95A35",
">. c #A55C3A",
",. c #AA5D39",
"<. c #B05F3B",
"1. c #9A6A30",
"2. c #A86139",
"3. c #AB613D",
"4. c #AF7130",
"5. c #873845",
"6. c #943449",
"7. c #933849",
"8. c #9B3C4E",
"9. c #A93D4E",
"0. c #A63E51",
"q. c #8B4B4F",
"w. c #8A5A48",
"e. c #985C45",
"r. c #9B4454",
"t. c #A44455",
"y. c #AA4759",
"u. c #B24B5D",
"i. c #B4485D",
"p. c #AB5751",
"a. c #97644A",
"s. c #876456",
"d. c #986854",
"f. c #957250",
"g. c #A56343",
"h. c #AC6543",
"j. c #AD6946",
"k. c #A6694B",
"l. c #AD6B4A",
"z. c #B16643",
"x. c #B06946",
"c. c #B26D4B",
"v. c #AF724F",
"b. c #B1704E",
"n. c #A36B57",
"m. c #AC6E51",
"M. c #B26C52",
"N. c #AE7153",
"B. c #A7745A",
"V. c #B37354",
"C. c #B87656",
"Z. c #B4765A",
"A. c #B5795C",
"S. c #B97B5D",
"D. c #945569",
"F. c #B54D60",
"G. c #A95668",
"H. c #B75667",
"J. c #BB5263",
"K. c #8F746E",
"L. c #A67765",
"P. c #B57A64",
"I. c #BA7E62",
"U. c #BB697C",
"Y. c #B37075",
"T. c #C35E72",
"R. c #C7677A",
"E. c #C47479",
"W. c #96833C",
"Q. c #D5AC0C",
"!. c #CAA638",
"~. c #A9954A",
"^. c #91856A",
"/. c #AA816D",
"(. c #BB8165",
"). c #BC856B",
"_. c #BA866C",
"`. c #BA8976",
"'. c #D4A252",
"]. c #C2866A",
"[. c #C18A6E",
"{. c #C28D73",
"}. c #C49178",
"|. c #C5937B",
" X c #6D7D80",
".X c #767E81",
"XX c #B87388",
"oX c #CA7387",
"OX c #D37589",
"+X c #D77D92",
"@X c #7B8284",
"#X c #7F8588",
"$X c #848A8C",
"%X c #8A9193",
"&X c #93989B",
"*X c #B7948E",
"=X c #989CA1",
"-X c #9EA2A7",
";X c #A5A9AB",
":X c #ABADB2",
">X c #AFB1B3",
",X c #B5B8BD",
"<X c #C79983",
"1X c #CA9C85",
"2X c #CB8795",
"3X c #CB8F91",
"4X c #D98297",
"5X c #DD849A",
"6X c #E48B9E",
"7X c #CCA18B",
"8X c #D0A893",
"9X c #D98BA2",
"0X c #D391A8",
"qX c #E48DA5",
"wX c #E995AB",
"eX c #EA9BB3",
"rX c #F19CB4",
"tX c #F29FB8",
"yX c #D2AFB2",
"uX c #EEA6BB",
"iX c #E9A5BC",
"pX c #D0C5B6",
"aX c #E2D4B1",
"sX c #BBBDC2",
"dX c #EEABC4",
"fX c #F3ADC6",
"gX c #EDB4CC",
"hX c #F0B6CE",
"jX c #F5BBD5",
"kX c #BEC1C3",
"lX c #C4C5CA",
"zX c #CACAD2",
"xX c #CFD0D4",
"cX c #D6D7D8",
"vX c #F6C3DD",
"bX c #E3DAD4",
"nX c #DDDEE2",
"mX c #F9C7E3",
"MX c #DEE0E1",
"NX c #E5E6E7",
"BX c #EBECED",
"VX c #EDEDF1",
"CX c #F3F4F6",
"ZX c #FEFEFE",
/* pixels */
"|._.l.V.V.l.3.h.j.V.A.A.V.c.V.V.V.N.A.A.M.c.j.h.j.C.g.+.P.}.A.Z.V.j.g.>.:.2.3.V._.{.(.C.C.I.I.V.A._.A.j.l.V.V.) m.1X`.l.",
"A.3.] =.{ ) =.=.*.%.#.%.-.,.h.j.h.:.$.E M.P.Y.{.Y.`.Y.7 E c.,.=.{ _ _ [ %.{ =.] *.*.:.:.-.%.=.=.=.$.` ` ` ` %.L g.P.h.) ",
"m.3.=.=.{ { =.-.:.:.=.,.>.j.V.V.x.<.M.E.R.U.XXoX2XiXdXyX*XN.%.-.O._ { *.=.*.O.;.,.<.3.2.:.,.-.,.-.>.O.{ { =.:.( [ 2.2.[ ",
"A.c.&.=.%.{ =.=.*.;.=.:.,.l.c.3.2.Y.E.G.Y 9 9 7 I 0.oXwXgXiX`.{ { o.{ =.O.*.*.*.:.3.2.2.:.,.>.;.-.o.` { *.-.-.~ ~ >.2.[ ",
").V.&.*.%.{ =.O.=.O.*.:.z.c.z.,.P.G.Y ~ { ,.:.:.%.! Y y.+XjXvX3XT  .O.O.O.=.*.=.:.3.3.,.,.2.,.-.=.` ` *.*.-.=._ o.l.3.[ ",
").c.&.:.*.=.*.*.{ *.*.;.3.z.:.Z.G.~ =.,.-.-.:.-.&.<.( 5.t.OXjXvX3X) ;.=.*.*.=.=.:.z.z.,.-.,.;.;.{ ` O.*.*.-.=.( ( j.g.[ ",
"C.x.=.=.*.O.*.{ { =.*.-.,.3.=.q.5.O.3.-.-.-.;.-.-.{ q u r.P +XvXvX<XW ,.*.;.=.-.,.h.3.;.-.:.:.O.[ ` *.=.*.*.=.^ q ,.3.[ ",
"C.x.:.*.O.=.*.=.=.*.*.,.3.z.,.g } >.,.,.:.:.:.-.[ Y U.2X9X0XU.uXvXgX2.&.-.:.,.=.:.,.,.-.:.=.O.[ _ O.*.-.&.=.-.~ ! j.j._ ",
"A.c.-.;.*.*.O.*.*.=.=.2.z.h.<.=.O.,.;.,.2.2.;.[ 5.u.OXeXhXjXeXgXjXmX*XW *.*.=.=.-.=.-.-.-.O. .( _ { =.-.*.-.=.~ O.A.j._ ",
"S.c.=.,.-.=.*.*.*.*.&.,.h.z.2.,.-.-.-.:.:.:.;.i y.t.l +XeXvXmXmXdXjXdX{ *.{ *.{ { %.{ O. .( ~ _ { -.:.*.*.-.=.! ~ j.h.{ ",
"_.C.:.<.3.,.,.,.,.,.:.2.x.z.<.<.3.<.,.<.,.<.o.7.t.w o 0XeXdXgXdXdXjX9X$.:.=.;.=.=.%.%..._ ( ` =.=.*.*.:.;.>.;.^ | j.h.[ ",
"k.2._ o. .| _ ( ( _ ` O.+.o.+.o. . ._ O.O.=.s 8.t.o   Y.+X0X+XoXhXfXE.I _ _ ( _ ~ ( ( ( ~ ~ ~ _ ~ p.Y. .) o.( q } g.o.! ",
"L 6 3 > , , > ; : 6 q q 8 < + > 4 2 4 8 0 q 8 r.t.w w t.6.0XdXe 0XgXy.8 6 6 6 6 7 4 8 0 0 q 0 0 > 5.G.5.7 0 3 O : 1 , 3 ",
"`.B.X.w.s.a.d.d.L.L.n.n.X.6 s w.g v d.a.w.e.X.7.8.7.u.t.P 9XmXk D.iXU.n.L.d.d.L.d.u q X.+.X.i r t w r.oXB.a.a.d.L.L.d.d.",
"8X{.I.).|.|.|.<X1X1X<X|.g.~ d.a.l r /.].(.).I.e.l 0.5.6.9.oXfXD.5.U.R.E.|.{.<X1X`.E e.`.L.q.8.6.u.5.r.0X<X).[.|.1X<X}._.",
"A.j.l.V.V.V.V.V.Z.V.Z.Z.| y 5.0.r.a.c.j.M.M.M.e.i J.0.y.F.T.XXD.r.t l q.x.c.V.A.l.q e.].d.6.0.8.H.y.N r.r.N.V.V.B.l.m.k.",
",.=.$.$.$.#.#.#.$.] $.] ~ Y T.J.w.2.>.*.W T ^ i 5.F.y.7.F.J.0.N XXq.@ O.*.*.#.$.` u e.d.1.p.y.9.J.u.y.e l ..%.] $.$.] ) ",
"c.3.;.,.,.,.>.-.,.:.>.s 1.p.t.XXXXq.T *.3X2X0.t.5.F.F.6.r.J.G.g b q.` *.h.,.-.-.O.! h = d C.9.T.H.J.u.t u O.-.=.;.-.*.O.",
"b.3.-.,.3.,.,.,.-.,.s d 1.8.U D.XXs.P.0XmXvX5Xi.0.F.F.F.8.y.J.G.q.2XyXP.W -.>.<.| r - z j ~.'.i.y.r.i o.-.=.>.-.>.-.=.[ ",
"b.,.,.z.3.2.;.;.-.| $ r ( 0.7.6.XXiXvXeXgXmXgXu.i.F.J.F.8.i r.7.u.qXmXhX{.>.-.@.r j z k k p !.4.t / _ =.*.=.-.;.;.=.*.[ ",
"V.3.z.x.3.,.=.=.O.r . - a 7.t.5.D.vXhXOXqXfXtXoXt.6.6.8.6.6.7.G.F.J.qXvXmXyXa.< $ = - = * # - ' | -.%.O.*.-.-.;.=.*.*.[ ",
"C.c.x.z.>.O.[ { O.r . % r t 7.r.XXoXH.u.4XwX6XwX5XR.F.0.0.9.R.+X7.u.H.9XhXmX3X+ % * % % % * $ . a -.` *.{ -.;.-.=.=.*.O.",
"S.b.x.3.;.O.[ O.O.^ + X . r 6.5.r.r.t U T.wXfXfXwXwXrX+X5X+XqX+Xe Y 8.9.R.wXwX1.# * * $ $ X s ! O.-.%.%.{ { *.*.*.;.;.[ ",
"(.b.3.,.=.{ { =.;.3.g.k.y w i } t } _ 5.u.oXrXjXjXeX5X5X6X5XrXU.I -.} Y 8.i.oXM.5 # $ 5 / _ =.:.-.-.%.%.{ { =.=.*.*.;.[ ",
"S.c.2.;.O.{ =.=.:.j.C.c.( q g.c.=.:.,.s 0.i.R.wXeXOXR.OXOX+XOXF.u <.-.=.} 5.Y i s 4 y ,.;.%.*.*.&.-.&.*.-.;.,.;.*.{ O._ ",
"S.3.:.>.{ =.,.,.3.b.c.h.} 0 h.V.h.h.,.( 8.F.oXOXoX9X+XOXwXrX+XH.( ,.,.,.2.O.O.=.o.u o.j.>.{ *.-.;.=.:.:.,.,.h.2.;.*.*.{ ",
"X.s s y u ! / ^ X.| } g r < ^ +.| ( _ ^ i y.OX+XOXrX+X+XfXfX+XF.[ O.( ~ ( ( / ( s 4 I =.( ~ ~ ! ^ ! s s s ~ ~ ^ ' / ~ s ",
";   o O > 4 3 3 3 > o     O 9 9 8 q u q 4 5.0.F.6XtX+X+XtXhX4Xr.s s 0 0 0 8 4 0 u 8 | g._ R R 0 9 q 6 2 8 I I 4 > 3 3 O ",
"/.`./.L.L.n.k.k.g.+.w.n.L./.7X`.P.P.l.@.e.g P OXrXrXwXwXtXfX4Xr.@.O._ e.k.+.e.k.m.P.`.{.A.A.P._._._.P./.`.}.I._ | B.n.a.",
"7X8X<X}.].P.A.P.A.Z.I.}.|.`.7X|.{.P.j.h.M.w.8.+XrXrXrXrXrXrXOXI l.c.j.l.c.c.V.A.Z.C.I.S.C.b.S._.`.[.(.].{.{.I.*.v.7X|.(.",
"(.m.;.>.O.O.O.;.-.>.>.>.g.@.O.O.O.[ O.=.,.^ 9.OXrXrX5X5XtXwXT.l o.2.,.>.;.=.-.;.3.x.,.%.=.{ =.>.2.2.2.>.>.:.=.~ +.b.x.O.",
"V.k.) ` ( _ ` ` #.` ` ` ] [ _ _ { { =.;.{ Y i.R.+XrX5XoXrXqXoXl 3 ,.,.,.>.>.,.>.,.;.{ _ _ _  .=.=.-.=.=.=.{ [ ^ ~ >.:.[ ",
"N.g._ [ ` ..` ` ..%...%.%.-.....*.;.:.=.s l r.+X+X0X9X4XyX'.W.$ - v ] W W K K K ) O.o.( _ _ { ;.-.-.-.,.=.o._ s ( h.3.[ ",
"3.;._ [ %.` %.%.%.%.%...-.,.-.-.=.=.:.-.@   . l b XXd.1.~.W.~.= #X XH *XyXpXpXyXn.K E O.{ %.=.h.g.-.-.-.O. .` (  .h.3.[ ",
"l.g._ { %.%.%...%.` %.-.>.;.-.%.=.;.>.2.r B x V D   1.1.B p pXxX&X:XMXCXZXZXZXZXBXyXB.] >.=.=.h.h.,.-.=.` O.=.` O.v.h.[ ",
"A.h.` %...%.%.%.%.%.-.-.-.*.-.-.:.h.3.2.c &X=X$XsXkX~.Q !.Q.aXBX$XMXCXZXZXZXZXZXZXZXNX/.W g.-.,.g.-.=.O._ O.=._ [ l.3.[ ",
"V.g.` ` %.` %.%.*.O.=.=.=.>.>.,.h.x.h.3.c @X=X;X,XcXbXa.!.Q.aXNXkXCXZXZXZXZXZXCXNXZXZXcXd.$.-.:.,.;.>.-.O.;.2.[ O.v.3.[ ",
"V.h.` =.%.%.` ` { ;.:.2.3.3.2.3.3.3.3.;.K.-XlXNXBXkXnXBXyX^.kXMXMXcXZXZXZXZXCXsXcXxXxXCX;XW ,.-.;.,.:.:.=.,.h.=.>.v.h.{ ",
"N.j.` O.%.%...%.*.;.3.3.2.,.-.:.,.3.$.l.cXCXZXCXVXZXVXVXMX;X;XxXMXxXZXVXZXMX;X%X=X.XD sXcXa.&.-.-.,.,.3.h.z.h.[ ! O.3.O.",
"V.j.$.=.%.%.-.-.,.z.c.3.,.:.:.&.3.2.v.cXZXZXZXZXZXVXCXcXpX:X=XcX,XBXCXNXxX@XD G J J  X$X>Xd.-.g.h.c.x.x.z.z.h.o.| l.j.{ ",
"N.g.` *.O.O.=.;.h.g.2.;.;.O.O.@.] n.cXZXZXZXZXZXZXZXxXlX:XF  X,X;XNXBXlX$XD V F J J J J %XK.T *.l.l.l.h.,.,.3.[ @.V.j._ ",
"L 7 3 8 0 q q u q 8 8 0 0 y 4 : f xXZXZXZXZXZXZXZXZXCXkX:X.XM J $XxXlX@XA x x G .XJ J H A &XpXd.E ~ y 4 q ~ ^ y 8 q q 0 ",
"d.v f g s } s s g h } g y y u v zXZXZXZXZXZXZXZXZXZXZXVX&X@Xx A J &X$XM M V D A C C C F &XNXZXNX^.R a a g ^ s 0 g X.g a ",
"8X<X`.`.`.`._.P._.}.`.P.k.v K.^.MXZXZXZXZXZXZXZXZXZXZXCX;XA x F .XG B D D V D D G G G %X:XzXVXNX$XB.P.`.`.A.g.j.P.`.`.N.",
"<X_.).].{.{.).I.].).A.Z.K.;X-Xx ,XZXZXZXZXZXZXZXZXZXZXZX>XA x G J B m S J H V C A J H G D .X&X&XZ f.].).].S.c.b.S.(.S.V.",
"h.` #.:.j.c.c.j.h.3.*.f.:XlX-XZ @XlXZXZXZXZXZXZXZXZXZXNX:XA C D n h *.h B H @XJ J J V C V C C V C +.:.=.*.:.,.,.=.*.*.{ ",
"b.-.:.j.c.c.h.>.;.:.a.%XzX:X&XF H J lXCXZXZXCXVXxXxXsX%X$XZ x v O.-.&.=.c C D G F F G G G G C c +.;.-.-.-.-.:.2.2.:.-.{ ",
"Z.h.c.b.j.3.;.O.=.=.m &XsX-X,XZ J J #X:XcXCXVXsX.XA V B n b w.-.:.>.:.,.b Z A M C C x z x k p ;.,.;.-.,.:.>.2.>.:.2.3.=.",
"S.c.x.h.;.;.O.O.;.+.B &X;X%XsX@X X.XJ H $X&XlXlX&XB c v +.-.-.>.:.:.-.-.e.m n n n x - = * & @ @.2.:.:.:.:.:.-.-.>.,.,.=.",
"A.j.3.,.;.O.;.=.=.+.B $X$X;XsX@XJ .XJ J G G J J D v +.;.:.;.-.-.-.:.:.:.-.O.O.;./   % % % k = s ,.;.;.,.,.;.-.,.-.>.,.O.",
"V.h.-.-.;.=.;.=.:.:.b F J sXlX$XG J J .XJ J G B b &.:.=.{ =.=.>.,.:.,.:.-.-.-.<.| % % * % - j s ,.:.:.:.,.,.-.-.-.-.-.=.",
"V.,.-.-.,.-.-.,.:.;.+.V V ,XzXsX$XJ J G V C A M +.-.-.O.{ ` =.-.>.3.3.2.>.-.-.,.O.5 $ * % & & s <.:.:.-.;.,.>.-.-.-.-...",
"C.,.-.:.&.-.:.:.=.-.,.m B -XlXzXlX:X@XD V G J A O.-.=...{ ` ` *.,.3.3.3.-.,.-.>.2.! + $ . p W.4.=.-.-.;.:.-.>.-.-.-.>.=.",
"V.,.-.=.=.*.-.-.*.*.2.2.c M $X=X&X&XJ C D F n o.=.=.` _ _ %.{ { =.:.2.>.>.;.=.-.O.! @ - d !.!.Q ' -.>.-.-.-.-.-.-.-.-.O.",
"C.3.:.:.=.*.*.=.=.:.4.' 6 a p p z z M C m b o.{ O.{ { { -.=.=.:.=.=.;.=.{ =.=.;.O.a a Q Q 1.R 4.4.' O.:.,.,.>.,.,.,.,.-.",
"k.+.o.O.O.o.[ o.o.+.g 5 q 0 Q f - f b f / _ | ( / ^ ~ _  .o.o.o.o.[ ( ^ s / o.o.X.r 5 0 5 6 q R 4.4.' |  .o.O.O.o.+.O.| ",
"6 ; , 7 7 3 ; o o o   + + o > > , 1 1 1 ; o ; : ; ; O @ : : , : 1 1 , ; O ; : , , ; 1 L 1 + +   + 5 + : : : 7 q r 4 > + ",
"s.s.w.w.a.w.h v v N s.s.s.s.L.L.d.d.d.w.w.s.s.a.w.w.v q w.d.a.d.d.a.w.w.s.d.d.e.X.e.n.P.n.a.s.s.s.s.K.L.d.d.n.! 3 s w.u ",
"7X7X}.}.[.).[.<X7X7X7X1X{.}.7X7X).{.[.[.`.|.<X<X{.].M.#.I.<X{.{.|.).].[.}.|.|.).).}.<X<X|.[.|.1X1X7X8X7X{.}.).( / `.|.I.",
"{.(.b.A.V.b.V.P.P.P.S.C.l.v.v.v.l.l.j.j.N.Z.A.Z.m.M.=.R N.I.x.l.c.l.c.M.b.m.V.c.b.M.V.b.V.V.V.V.A.Z.V.c.k.@.+.0 s P.].M."
};
