/* XPM */
static char *result[] = {
/* columns rows colors chars-per-pixel */
"60 60 253 2 ",
"   c #120601",
".  c #2B150F",
"X  c #3A160A",
"o  c #4A1709",
"O  c #4C120C",
"+  c #551707",
"@  c #551812",
"#  c #671906",
"$  c #701407",
"%  c #631C15",
"&  c #592710",
"*  c #5D2A15",
"=  c #682709",
"-  c #772A07",
";  c #743308",
":  c #692915",
">  c #782B14",
",  c #6A331C",
"<  c #733115",
"1  c #74331B",
"2  c #7C371B",
"3  c #7A102F",
"4  c #5F2F28",
"5  c #6F302C",
"6  c #753A25",
"7  c #7C3B23",
"8  c #7A4229",
"9  c #664236",
"0  c #794636",
"q  c #373459",
"w  c #5B395B",
"e  c #703551",
"r  c #4F3A73",
"t  c #633F67",
"y  c #184574",
"u  c #364879",
"i  c #4A4449",
"p  c #734B51",
"a  c #4D4C72",
"s  c #715668",
"d  c #756A6F",
"f  c #91160F",
"g  c #87330A",
"h  c #8B2A18",
"j  c #9B2519",
"k  c #833A1D",
"l  c #883A19",
"z  c #973011",
"x  c #A83509",
"c  c #A22C1D",
"v  c #A5311E",
"b  c #AA3618",
"n  c #893626",
"m  c #833B22",
"M  c #8B3E22",
"N  c #8E332C",
"B  c #9C3724",
"V  c #A53521",
"C  c #A93620",
"Z  c #A33C25",
"A  c #AC3B23",
"S  c #B03F23",
"D  c #974814",
"F  c #A8471A",
"G  c #B34A17",
"H  c #AD690F",
"J  c #BA761B",
"K  c #8C4125",
"L  c #87452B",
"P  c #934424",
"I  c #9A4524",
"U  c #9C4A25",
"Y  c #974729",
"T  c #944A2C",
"R  c #9D4B2A",
"E  c #9C542C",
"W  c #884B39",
"Q  c #974D33",
"!  c #8C523B",
"~  c #9D5232",
"^  c #985539",
"/  c #A64427",
"(  c #A44B26",
")  c #AB4C24",
"_  c #A34D2A",
"`  c #AA4D2B",
"'  c #B24324",
"]  c #B64926",
"[  c #B54A2A",
"{  c #B94E2B",
"}  c #A95327",
"|  c #A4512C",
" . c #AC532C",
".. c #B75628",
"X. c #B1542D",
"o. c #BD522C",
"O. c #A54A32",
"+. c #A45332",
"@. c #AD5431",
"#. c #AE5934",
"$. c #A55A39",
"%. c #AB5C3C",
"&. c #B25532",
"*. c #B35A34",
"=. c #B45D3A",
"-. c #B95E3A",
";. c #9B7524",
":. c #AA6925",
">. c #B66729",
",. c #B67524",
"<. c #AB633A",
"1. c #B5623D",
"2. c #B9623E",
"3. c #B66838",
"4. c #AB7631",
"5. c #B77934",
"6. c #C55616",
"7. c #D1690E",
"8. c #C45929",
"9. c #CC622A",
"0. c #CC6729",
"q. c #D46B28",
"w. c #D97429",
"e. c #CD7734",
"r. c #E37A26",
"t. c #833542",
"y. c #8C5147",
"u. c #975945",
"i. c #A54F40",
"p. c #A95D43",
"a. c #9A654F",
"s. c #AC6342",
"d. c #A7664A",
"f. c #B56443",
"g. c #B96543",
"h. c #B46947",
"j. c #BA6A46",
"k. c #B56A4B",
"l. c #BB6C4B",
"z. c #B6744A",
"x. c #A66B56",
"c. c #B86E52",
"v. c #A87359",
"b. c #AD725C",
"n. c #B67757",
"m. c #BC7353",
"M. c #BC755A",
"N. c #BD7A5C",
"B. c #956B6B",
"V. c #AA7865",
"C. c #A8706A",
"Z. c #B87B64",
"A. c #C47547",
"S. c #C27857",
"D. c #C27B5D",
"F. c #C27E63",
"G. c #B98437",
"H. c #DE9F1B",
"J. c #CA942B",
"K. c #CC8D33",
"L. c #E9862A",
"P. c #EB8D2E",
"I. c #F3962D",
"U. c #EB9532",
"Y. c #F49D32",
"T. c #D7AC37",
"R. c #F6A334",
"E. c #F9A936",
"W. c #FAAB37",
"Q. c #E2BF3D",
"!. c #BC8851",
"~. c #B9836C",
"^. c #AB8474",
"/. c #BC8874",
"(. c #B09875",
"). c #CB9156",
"_. c #CAA443",
"`. c #D5AE51",
"'. c #C58265",
"]. c #C4856A",
"[. c #C88769",
"{. c #C9856A",
"}. c #CA8A6D",
"|. c #D1946D",
" X c #C58A73",
".X c #C68C75",
"XX c #CA8D73",
"oX c #CB9075",
"OX c #C6927C",
"+X c #CC937B",
"@X c #D39779",
"#X c #D7AD73",
"$X c #E1BF66",
"%X c #E6C952",
"&X c #ECD559",
"*X c #F3E25B",
"=X c #ECD768",
"-X c #ECD578",
";X c #F3E466",
":X c #06579C",
">X c #125399",
",X c #2F538C",
"<X c #33618C",
"1X c #0559A5",
"2X c #1B5EAB",
"3X c #2E59A0",
"4X c #0063A9",
"5X c #0569B5",
"6X c #1A69B3",
"7X c #2C6DAE",
"8X c #4A5085",
"9X c #58749A",
"0X c #6B708D",
"qX c #4B77AD",
"wX c #926F89",
"eX c #3E8BA3",
"rX c #6187A4",
"tX c #6E92A6",
"yX c #068BCD",
"uX c #29A3D6",
"iX c #5E98C6",
"pX c #4EAED0",
"aX c #27C6DD",
"sX c #32D6F0",
"dX c #46C6D7",
"fX c #4EE7FC",
"gX c #73EDF9",
"hX c #9C9C9D",
"jX c #CD9782",
"kX c #D29B84",
"lX c #C69E91",
"zX c #D7A489",
"xX c #CEB28D",
"cX c #D6A896",
"vX c #EBB48E",
"bX c #ECB995",
"nX c #D7B8A8",
"mX c #E1BEAE",
"MX c #E9D08D",
"NX c #F5C29C",
"BX c #F8ED94",
"VX c #DBC4A2",
"CX c #F9C8A3",
"ZX c #F3CEAE",
"AX c #F4E7AE",
"SX c #89BECD",
"DX c #87DDE8",
"FX c #B0F2F7",
"GX c #DFCDC3",
"HX c #D1F3F2",
"JX c #EEEFEF",
"KX c #F2EEED",
"LX c #E5F2F0",
/* pixels */
"cXkX'.N.D.'.l.l.c.F.{.{.].F.D.'.'.Z.'.XX'.'.].F.F.{.].h.~.kXXX{.].z.m.l.1.h.j.N.oXzX+X[.'.+XoX{.{.+XXXM.m.'.'.X.h.lXkXD.",
"jXM.#. .*.| `  . .&.X.&.@.#.=.f.f.*.@.@.&.&.@.@.@.*.@.K ^ S.f.#.<._.5.U }  . .@.*.2.2.*.*.%.*.*.&.#.@.| +.@.#.z p.].m.( ",
" X1. . ._ ( `  .&.X.X.X.&.=.f.z.l.f.*.&.&.&.X.&.&.&.` k Q m.f./ _.;XK./  . .} } &.*.*.*.&.[ [ &.&.@.O.R | }  .I E g.*.U ",
"].l.*. . .`  .@. .&.&.&.*.2.l.j.f.=.f.*.&.*.&.&.X.@.#.U p.S.f.>.=X;XG.E } }  . .*.-.*.*.#.*.*.*.&.@._ `  .X. .P K  .*.| ",
"@XD.*.}  .`  . .}  .}  .*.h.j.3.*.*.=.=.#.&.&.X.@.J.G.h 5.T._.=XBX=XH | }  . . .@.=.-.*.*.X.*.X. ._ ( _ } X.&.I T p.1.| ",
"kXD.*.X. .` |  .} `  . .*.g.2.*.*.X.*.*.X.&.*.` G.%XG._.&X%X;XBXBXT.J +.}  . . .@.-.f.*.*.*.@.@. ._ _  .X.X.&.U T s.1.| ",
"oXS.*.&. .}  .` _  . . .*.2.*.*.*.3.X.&.&.X.&.[ %X=X%X*X&XBX-X=X%XJ.:.+.|  . .&.&.=.2.*.X.&.&.@.( _  . ...X. .Y k #.1.| ",
"{.g.*.@. .} }  . . . . .#.-.-.*.X.*.*.X.&.3...G.&X%X*X-XAXAXVXMXT.G.G.E  .&.&.&.&.*.=.&.&.&. .| R _ ` X. . .@.K g $.1._ ",
" Xl.&.&. . .}  . .} } *.-.2.-.*.&.&.&.*. .).$X_.&XT.%XBXBX`.VX$XH T.T.E +.X. .@.X. .&.&.&. ._ Y Y _ @.X. .X. .I R c.j.( ",
".XS.*.&.&. . . . . ...*.1.2.=.*.&.&.&.&. .z.MX-XT.T.&XAX_.|.$X`.BX;X4.E E }  .}  .` `  .` R Y Y ( ` X. ...X.@.P T l.g.R ",
"+XD.-.&.*.&.*.X.X. . .X.1.2.-.*.*.*.*.&.&...`.-X`.H.=X-XG.#XAXAX;X`.E 4.4.|  . . .` ` _ R T Y _  .&.&. . . .@.M m 1.1.| ",
".Xm.*.&.#.@.#.| @.#. .#.%.1.#.<.&.&.@.*.*.&.,.J.T.H.T.T.G.&XBX;XT.:.J.J.$.`  .| _ _ _ R Y Y R O.@.` @.@. .@.@.l T s.=.U ",
"i.g > : = > : % # $ g l l 5 , , , : $ > 2 7 E #X$X#XG.H H.Q.T.J.J ,.J.;.- - ; - - 1 2 2 k k ; - $ # # - g l 1 + + h > = ",
"Z.u.0 , 5 6 6 0 W y.! ! L & o = 4 6 W W 0 D #XBX-XAX!.!.G.J J.H :.:.:.E y.y.L W ! 1 = 1 2 m T ! y.! W ! ! L 7 0 p y.L 0 ",
"nXjXZ.n././.]. XOXOXoX Xm.l ^ Z.n.~. X~.n.!.MX`._.xXG.MX!.:.H :.:.:.:.b.oX]. XOX XE P x.b.n.].].].OXOXOXoXZ.F.~.oXoX/.Z.",
"cX{.m.D.'.].'.]. X X[.}.m.g d.+X].'.'.S.b.!._.;.G.!.z.VX!.D :.J ,.+.p.c.M.l.S.}.[.U ~ ~.[.'.[.D.M.F.F.[.'.F.'.[.{.F.F.Z.",
"D.)  . . . .X. . . .X.*.E < ^ N.l.=.-.@.*.s.B.d V.(.xX).4.$.:.:.:.:.B b x e qX0XO.l Q M.m.2.*. .( ( (  . .&.@. . .| } U ",
"'.*.X.X.X.X.X.` [ X.`  .P : ^ '.j.*.*. .-.#XlX0Xb.#XbX}.<.z.k.z.<.| R 8.^ yXpXrXs m ^ M.l.@.} ) } } ) _ `  . .` X.[ } ( ",
"}.1.&.*.*.*.*.*.*.*.@.#.T : d.D.g.*.-.3.@XNXxXv.J.A.|.c.<.h.z.n.l./ S 7.x.rXnXbX^.m Q l.h...X.X...@. .`  . .@.#.&.X. .| ",
"XX2.@.*.-.-.*.&.&.&.*.X.U 2 p.S.*. . .|.CXNXzX).Y.q.F _ z.!.<.n.M.[ 8.7.p.hXbXZXvX^ Y f.*.[ X.X... . . .}  . .&.&. . .( ",
"}.2.*.f.2.*.*.@.@.@.&.&.O.M s.m.=.` S.vXvXbXbX).).S.Z ` <.z.$.h.3.>.r.0.-.zXCXCXNXh.T f.*. .X.X.&.X.` ` } X.&.&.&. . .| ",
"XXg.g.g.1.@. .( ( @.&.&.` m +.l.*.2.#XbX|.'.'.z.*.A.A.#X@X).|.zXOXK.I.6.V |.vXCXNX<.T f.-.X.&.&.&. .` `  .} &.&. .}  .| ",
"XXl.j.f.*.@._ R _ `  .&.| 2 P -.#.j.vXNXbXvXk.n.'.7.~.SXSXSX(.hXtX|.(.C.@XbXCXZXNX].P <.#.` &.&.&.X.` ` ` `  .@.|  . .| ",
"+XS.g.-.*.` R |  .*.=.g.$.< P 1.#._ m.vXZXiXd <.5.).aXfXgXgXdXrX9XuXyXpXVXZXbXvX#Xk.K | #.` X.X.&.X. .` _ _ } X. . ...} ",
"+Xm.1.X. ._ _  . .*.l.A.%.< T l.@. .~ 5.hXyXd z.D.pXDXLXLXLXFXsXrXuXuXyXwX@X[.).<.k k @.@._ | ..X. . .} ` ` @.&.}  . .R ",
"+Xj.1.*. .| X.&.*.g.l.j.$.< ~ m.1.*.%.G s 5Xs 3.b.aXHXKXLXKXLXgXpXeXyX1Xe ' _ +.| 2 K =.*.` } X.X...X.X.X.*.-.*. . .} R ",
"].$.E R T Y +.+.$.%.s.u.L 4 L g.s.$.@.| ! a a E y.dXFXKXJXJXLXHXsXyX8Xe O.C B R ~ 1 K %.+.U | | +.O.R | | $.+.~ | | | T ",
"y.o X o + = : : < , * & X   + f > > g l < ; , , = eXgXHXJXJXJXLXFXtXG { 8.B > 1 2 + - _ Y g g > - - : # # - > < , < < & ",
"a.9 p 0 0 W L 6 L 1 * 4 9 5 u.x.u.u.~ Q L 8 W W K e aXgXFXHXHXLXGXO.C S V h 7 L ^ ^ x.Z.h.$.s.^ u.u.^ y.u.d.s.7 : 8 8 1 ",
"cXcXxX+XoX].D.Z.N.m.m.].jXjXzXcXjX}.M.g.f.M.D.Z.~. Xt.rXdXdXsXDXC.f t.e p p.l.M.m.D.}.}.D.N.'..X@X+X].XXjXkX}.X.s.OXoXN.",
"cXOX].Z.N.h.l.c.l.l.c.N.Z.Z.F.N.m.h.%.#.1.j.j.m.'.'.d.5 a a 7X7Xr y y :X8Xu.g.l.g.l.A.f.1.%.g.M.D.M.l.l.m.m.l.} d.XX[.l.",
"].h.F F I I U / / ) ( / F / D D I U (  . .}  .1.3.X.T y :X1X6X2X1X:X1X:X,XW ` [ &.*.@.Z ( ( ( ) ` } X. .` } ( M P X.X.U ",
"XXl.+.( R U _ ` ` ` ` ` ` ` ( R |  .X. .X.*.3.2.3.0.) e >X>X>X>X>X8Xr s t.V O. . . .R Y Y Y _  .&.&.&.&.&.O.R L P %.-.R ",
"F.=._ R R / ` ` / ` ` ` ` &.@. . . .*.0.w.e.w.e.r.P.U.0.N N N N N z x ] { S V / _ ( R R ( _ ` #.&.&.&.&.O._ ( K P %.1.| ",
"Z.*._ R _ ` ` ` ` ` `  .#.*.&. .*.e.U.Y.Y.Y.R.R.R.R.W.U.{ S c c { { ] S &.9.{ Z ` ` `  . .` ` =.f.&.&.#.` R | U R s.3.U ",
"XXl.+._ ` ` ` ` ` ` ` X.&.X.@.>.U.W.W.W.W.W.W.W.W.E.E.I.9.{ c V { { S 0.U.Y.L.o.[ / |  .&.&.#.=.f.*.&.` R _ @.( O.h.1._ ",
".Xl._ _ ` ` ` / ` `  .@. . .>.U.E.E.E.E.E.E.E.E.W.R.I.L.6.{ c v { S 0.E.W.W.W.P.9.] (  .&.&.&.&.*.&.@.` _ ` #.R R f.2.| ",
"].g.` ` ` ` ` ` ` `  .@.*.@.0.Y.E.E.Y.Y.I.I.Y.Y.L.w.q.8.v C C v [ 8.P.Y.E.W.W.E.P.r...` &.X.X.X.*.@.*.@.@.&.*. .#.j.1._ ",
".Xl.@.` ` ` ` ` `  .@.*.s./ o.q.q.q.w.r.q.8.0.e.0.{ A A C j j c A { 9.P.E.W.W.W.R.I.L.]  .&.X.X.&.&.&.*.*.=.2.| E f.=._ ",
"].h.@.( ` ` ` `  .@.=.g.=.Z [ o.{ [ 8.{ 8.[ A A [ A c c c j f f c S q.Y.W.W.W.W.W.E.W.w.A ` &.X.&.f.=.2.-.f.g.R m +.-.| ",
"/.l.#. .X. .@.&.*.g.g.2.*.] ] o.8.[ S A S ' V j c c B f i.M.*.` V v ' w.I.W.W.W.W.W.W.Y.G Z *.*.1.l.A.l.-.-.g. .~ c.j. .",
"Z.$.P P Y Y Y ( +.~ Q Y P ] 9.8.8.8.8.S v f f j h h 1 - ^ k.| U I h j C w.R.W.W.W.W.E.E.r.S _  .%.1.$.Q R @.$.K T p.$.K ",
"^ - + = = - ; < : = = = > 6.L.r.r.9.' C C f $ > < = + O > D l < < : : g 8.P.Y.Y.E.R.E.E.L.q.0.} P l = + = K 2 * & - - * ",
"lXZ.v.a.x.a.x.u.u.v.b.d.N 6.r.q.] j c S S Z B.b.d.a.v.b. X}.x.d.x.u.y.u.O.8.w.r.I.I.I.L.L.r.r.q.%.a.! u.x.u.E T u.x.x.u.",
"mXzXoX+X+X+XXX'.{.+XXXF.Z S o.o.' c ' { C i..XXX{.{.XX@XkXjXD.S.[.[. X+XXXc.[ 9.r.r.r.r.r.9.9.w.e.S.F.XX@XF.l.l.'.}.}.S.",
"jXc.k.l.m.D.D.M.S.m.l.=.b b 8.w.q.9.8.8.C j %.l.g.f.k.k.k.f.%.*.1.l.z.m.z.j.%.A { 8.8.8.8.{ 8.w.q.q.2.S.c.l.g.g.j.j.g.s.",
"'.} b ) *.g.g.2.*.X.` ' 8.C 9.r.q.q.8.] { c Z -.*.[ ` ) ) ` ` ` ) F F G G F ' Z j A ' [ { 8.] 8.8.q.6.x b ) } *...) ) ( ",
"XXg.*.g.l.h.-.#.@.@.*.&.b C ' S S 8.r.S C S O.l.-.&.&.*.@.@.@.&.*.&.&.X.*.*.*.=.Z f j C C S C 8.8.6.9.' '  .*.*.#.*.-.@.",
"+Xj.g.l.g.#. .|  . .&.&.B h j V [ 9.r.8.c j @.g.&.&.&.&.@.@.&.&.&.&.&.&.&.&.&.*.` j v v ' ' ] o.] ' { S C &.&.&.&.*.*.@.",
"+Xl.g.=.#. . . . .&.&.&.E 3 3 j j v G ' c / *.*.&.&.&.&.&.&.&.&.&.&.&.&.&.&.&.&.@.B Z 8.q.9.8.o.{ ' S C j  .&.&.&.&.*. .",
"oXl.&.*.@. .@. .[ &.&.*.E 4 ,X8Xr e e N `  .&.*.&.&.&.#.O.@.&.&.&.&.&.&.&.&.&.&.@.Y B A 8.] A { o.[ V B p i.&.&.&.&.&. .",
"oXf.&.&.&.&.&. .&.&.&.*.~ e 2X5X2X4Xt / *.&.*.*.&.&.&.@.` _ ` &.&.*.*.*.&.&.&.&.@.K k v v v v v c [ f e ,Xy.{ &.&.&.&.` ",
"XX1.&.&.&.&.X.&.&.&.&.*.i.p 7X6X6X1Xs } &.*.*.&.&.&.&.` _ _ ` ` *.=.-.1.*.&.&.&.#.P T O.A C c j f f 3 r 4Xa +.&.&.&.&.` ",
"XX2.&.&.X.X.X.&.X. .@.-.! s qX6X6X3XQ  ._ `  .&.&.@.` _ R _ _ _  .#.-.*.&.&.&.&.@.Y ~ f.Z V c j e 8X,Xr 3X1Xp &.&.&.&.O.",
"XXg.X.#.X. ... .X. .*.8.s B.9X<Xu u T | _ _ ` @.@.` ( R _ ` `  . .` @.*.@.@.&.@.@.K n s.f.[  .` p 1X5X3Xr ,Xs ( &.&.&.` ",
"oXg.#.X.@.@.X.@.&.*.&.B.0XwXiX6X7X<XW ` ` | | _ _ R R ` ` @.@.#.@. .| _ R _  .X.@.m k f.l.&.-.-.O.s <X<Xa w <Xp *.*.*.X.",
"b.L 7 M P K m 7 6 k p 9XwXiXyX6X4Xu , 7 2 2 7 m 7 2 1 7 m n M M M n M 1 4 1 m n m * 1 O.Q m m 6 , ; i <X<Xa 3X,Xe K L 2 ",
"W o O = ; = o . .   q 0XiXyX5X1Xu : : * @ . X @ O O O X O @ : @ % : % @ O @ % = @ @ > B > @ . . . . q 4X5X2X,X2Xy o O . ",
"jXZ.V.b.b.c.x.x.V.^.~.V.B.s s B.x.Z.Z.b.b.V.V.Z.b.b.x.L i.Z.Z.M.Z.M.x.x.V.Z.Z.b.d.b.~. X].b.V.^.^.^.C.a 1X5X2X3Xa ! b.u.",
"nXzXoXXXXX'.'..XkXkXjXjX[.'.}.+X].'.F.F.{.XXjXjXXXF.F.) c.jXF.F.XX{.F.{.{.XX}.{.{.}.XXoX}.{.}.@X@X+XzX~.y.a 8Xs p ].@X'."
};
