/* XPM */
static char *result[] = {
/* columns rows colors chars-per-pixel */
"60 60 255 2 ",
"   c #060406",
".  c #361108",
"X  c #490A03",
"o  c #530E04",
"O  c #471608",
"+  c #591908",
"@  c #670500",
"#  c #671805",
"$  c #731906",
"%  c #592713",
"&  c #672609",
"*  c #772905",
"=  c #662B15",
"-  c #742F10",
";  c #6B3118",
":  c #783519",
">  c #52252C",
",  c #6A3726",
"<  c #783B26",
"1  c #7F223C",
"2  c #7B4533",
"3  c #373161",
"4  c #6D1F45",
"5  c #533253",
"6  c #72334D",
"7  c #503A6D",
"8  c #224A6A",
"9  c #39597E",
"0  c #795549",
"q  c #6C4C51",
"w  c #784956",
"e  c #4D4970",
"r  c #6D546B",
"t  c #7E7572",
"y  c #8E0F09",
"u  c #931B14",
"i  c #8E310C",
"p  c #9A2719",
"a  c #843B1C",
"s  c #89381B",
"d  c #97361B",
"f  c #AE350A",
"g  c #A22D1D",
"h  c #A5321E",
"j  c #AA381C",
"k  c #851E33",
"l  c #902E2C",
"z  c #843D21",
"x  c #8B3C23",
"c  c #9A3623",
"v  c #A43422",
"b  c #A93521",
"n  c #A73825",
"m  c #A53C24",
"M  c #AC3C23",
"N  c #9D4305",
"B  c #98461A",
"V  c #AB4D0A",
"C  c #A74919",
"Z  c #B5441B",
"A  c #B25011",
"S  c #AF7017",
"D  c #BB781A",
"F  c #8D4224",
"G  c #864429",
"H  c #974727",
"J  c #9A4525",
"K  c #934629",
"L  c #9C4B2B",
"P  c #9C542B",
"I  c #874C39",
"U  c #974D32",
"Y  c #8C523B",
"T  c #9C5132",
"R  c #95553A",
"E  c #A84326",
"W  c #A34B24",
"Q  c #AA4D25",
"!  c #A34D2A",
"~  c #AA4D2B",
"^  c #B24325",
"/  c #B94C24",
"(  c #B34528",
")  c #B54A2A",
"_  c #BA4D2B",
"`  c #A95526",
"'  c #A5512C",
"]  c #AC532C",
"[  c #B85527",
"{  c #B1542D",
"}  c #BC522C",
"|  c #A64F35",
" . c #A35333",
".. c #AD5431",
"X. c #AD5A33",
"o. c #A85A3A",
"O. c #B25532",
"+. c #B25A34",
"@. c #B95A36",
"#. c #B45D3A",
"$. c #9F6331",
"%. c #A96A27",
"&. c #B46727",
"*. c #B6782A",
"=. c #A9653A",
"-. c #B96734",
";. c #B5613D",
":. c #B9623D",
">. c #B17236",
",. c #C3571A",
"<. c #CF6A12",
"1. c #C55A26",
"2. c #CC6328",
"3. c #D46B27",
"4. c #DA7429",
"5. c #C97032",
"6. c #E47A26",
"7. c #E47D27",
"8. c #853D48",
"9. c #864E4F",
"0. c #885444",
"q. c #965947",
"w. c #AE5744",
"e. c #A85E42",
"r. c #916655",
"t. c #986755",
"y. c #AB6447",
"u. c #B56342",
"i. c #B96542",
"p. c #BA6946",
"a. c #B36848",
"s. c #B36A4B",
"d. c #BA6C4A",
"f. c #AC724F",
"g. c #B9754B",
"h. c #A96B55",
"j. c #B86E52",
"k. c #AD725B",
"l. c #BD7253",
"z. c #B3745A",
"x. c #BB765B",
"c. c #BA7859",
"v. c #8C5F6B",
"b. c #8C6F6F",
"n. c #AE7666",
"m. c #B57A65",
"M. c #BC7C62",
"N. c #C27147",
"B. c #C17858",
"V. c #C37D62",
"C. c #BC8834",
"Z. c #CE971A",
"A. c #C68D2E",
"S. c #E88629",
"D. c #EF912C",
"F. c #F2962D",
"G. c #E38A31",
"H. c #F49D32",
"J. c #DBAF36",
"K. c #F6A334",
"L. c #F9A634",
"P. c #FAAB37",
"I. c #FAAC38",
"U. c #E1BE36",
"Y. c #BE9145",
"T. c #96877E",
"R. c #BA816A",
"E. c #BD8871",
"W. c #C98E52",
"Q. c #D5AE4F",
"!. c #E1BB5A",
"~. c #C58165",
"^. c #C4846A",
"/. c #C9896B",
"(. c #D1946D",
"). c #C68B74",
"_. c #CA8D73",
"`. c #CA9378",
"'. c #CC937B",
"]. c #D3977B",
"[. c #D0AB6C",
"{. c #E8CE54",
"}. c #F3E45F",
"|. c #E7CF6C",
" X c #F7E974",
".X c #035497",
"XX c #0C5093",
"oX c #2B518E",
"OX c #355686",
"+X c #2A6290",
"@X c #035DA4",
"#X c #1657A3",
"$X c #235FA6",
"%X c #0463A9",
"&X c #036BB7",
"*X c #1569B6",
"=X c #126EB9",
"-X c #2B6CAA",
";X c #455285",
":X c #576D94",
">X c #76768B",
",X c #0C79C2",
"<X c #8C7786",
"1X c #4F8BB2",
"2X c #6B96B1",
"3X c #69B3AE",
"4X c #098DD5",
"5X c #3192D3",
"6X c #29A5DC",
"7X c #0FADEF",
"8X c #04B5F7",
"9X c #18B3F7",
"0X c #2CABE7",
"qX c #23B6FD",
"wX c #22BCFE",
"eX c #5E95C9",
"rX c #16D2FD",
"tX c #26C0FE",
"yX c #28D2FD",
"uX c #00EDFE",
"iX c #01F9FF",
"pX c #1AF8FE",
"aX c #2BE8FD",
"sX c #38E7FD",
"dX c #2EFDFD",
"fX c #5DCFC9",
"gX c #8C888D",
"hX c #B18E87",
"jX c #A3A3A7",
"kX c #CE9780",
"lX c #CD9983",
"zX c #D29B84",
"xX c #D29E88",
"cX c #D6A38B",
"vX c #D7A996",
"bX c #D7B094",
"nX c #EBB590",
"mX c #CAB3AB",
"MX c #DEC38A",
"NX c #EAD48E",
"BX c #F4C39C",
"VX c #F5E687",
"CX c #F8EC97",
"ZX c #FACAA4",
"AX c #F6D7A7",
"SX c #FAF2AD",
"DX c #9CE9E6",
"FX c #ACF8F7",
"GX c #DBCEC3",
"HX c #DDF0F1",
"JX c #EEEFEF",
"KX c #F3EEEE",
"LX c #F8EDEE",
"PX c #E1F2F1",
"IX c #F3F2F2",
/* pixels */
"vX_._.].`.~.V.).'.zXxXlX`._.'.'.`.lXxXlXlX'.'.'.xXlX^.lXbXxXzX`.{.[.R.~.B.~./.xXbXvXxX].xXvXzXkXxXvX'./.'.xXV.s.cXmXcXvX",
"l.] X.] ] Q ] ] { { ....+.#.u.#.X.X.O.....O.~ O.+.X.s R l.p...C. XQ.i ` Q ` ] +.i.i.+.#.#.#.O.+.#.#.' ! ~ O.C d c.^.` l.",
";.] ] ' ! ~ O.O.{ ] ) O.#.i.d.p.#.O.~ O.O.O.O.O.{ ` G U g.;.>.|. XA.c ] ] ] ] ] +.@.O.O.O.] ) O.~ ! ! ! ] ] L H u.p.B z.",
"s.{ ] ] ~ ~ ] { ..O.O.+.u.d.d.i.u.#.#.+.O.O.O.~ A.W.i =.Q.A.}.SX|.Z.P ` ] ` ] X.#.+.#.+.O.O.X.O.....! ~ ] { L x L #.] z.",
"B.Q { Q ~ ] ` ] ` ] ] #.p.p.+.-.+.#.#.+.O.O.` *.{.C.Y.{.{.}.VXCX!.Z.P P ] ] ] O.+.#.+.+.+.{ O.{ ] ! ~ Q ] { ! F  .p.' z.",
"B.O.O./ | ] ]  .] ] ] #.p.:.+.+.+.+.+.O.O.O.Q Q.}.U.}.{. X X|.|.Z.%.$.P ` ~ ] { #.:.#.O.+.+.O.' ! ! ! ] { { ! B o.d.` z.",
"N.V V V V V V A V C ` +.;.;.+.+.+.O.O.{ +.[ -.|.{.}. XAXSXMXNX[.D C.%.' ] ] { O.#.#.@.O.{ +.] ' W ! ` ] { O.! z L i.' z.",
"gX<X2X>Xb.t b.b.b.b.t.#.:.+.+.O.+.+.+.~ -.[.A.}.J.{.VXSX[.bX|.Z.Q.Q.%.' O.O.O.O.#.#.+.O.O.O.' L ! ~ { { { O.L : H p.` z.",
"8X8X8X8X9X9X9X9X0X0X6Xb.-.:.+.O.+.O.+.{ -.NX|.J.J.!.CX|.Y.MXQ.|. XQ.P $.P X.] { ..O.O.O.O.! H H ! ' { { { { W F u.B.] z.",
"qXqXwXqXwX9X9XwXwXwX8XgX[ #.O.O.O.O.O.+.[ [.VX!.J.!.NXA.E.CXCXCX{.%.%.>.P ` ] ` ~ ~ ..~ ! H H J ! { { { { { H x o.d.' z.",
"aXaXaXaXaXaXaXaXaXsXpX3X[ ;.+.X.+.@.+.@.+.*.Q.Q.Z.J.Q.C.Q. X X{.A.S A.*.' { ] ] ~ ~ ! L K K ! ~ { O.{ ] ' O.L :  .i.` z.",
"yXyXyXyXyXrXyXyXyXyXrX2X[ =.X.%.....] ] ] { A.Q.Q.Q.S Z.J.U.Z.A.%.Z.C.%. .' ' ! ! W ! H H L ~ ~ ] ..' ' ....L z o.i.W z.",
"dXpXiXiXdXdXdXdXiXiXpX3X@ ; & 2 k.^.f.f.g.Y.NXNXAX[.%.C.*.D D %.%.&.` : * * * * - ; < a : a * # # # & i i - + X & s # 0.",
"PXHXHXHXPXPXPXHXPXPXPXjX8 9 t bXZXZXnXnXBXNXVXQ.MXQ.[.MX>.S %.%.%.%.$.q.Y I I 0.< & ; : G G I Y 0.0.I q.Y 2 2 2 I 9.< v.",
"IXIXKXKXKXKXKXKXKXKXKXmX-X0X6XjXZXZXnXnXBX[.Q.=.[.>.lXMXP P S *.%.=.m.'.).R.'.'.=.d f.z.z.~./.)._.'._.'.~.M.^.'.'.).M.lX",
"JXJXJXJXIXJXJXJXJXJXIXGX>X4X,X2X(.(./.(.R.Y.>.$.Y.hX[.C.y.y.S [ Q L w.s.B.V.)./. .x m./.~.^.V.l.V.V.^.V.B.V.^.^.M.M.V.lX",
"JXJXJXJXJXJXJXJXJXJXIXmXq oXOX9.-.=.' o.a.g.f.=.(.nX[.W.o.` %.<.<.,.f u b { { ] s G z.l.#.+.] Q W C Q ' ' O.{ ` Q ` B z.",
"JXJXJXJXJXJXJXJXJXPXIXmX@ t.m.=.X.X.` ' ] ' ] W ' ).cXX.b.2X3XgXW.S.4.1.b v { O.B K l.l.+.{ { ` ] Q W ] ] ] ~ ] { { C z.",
"JXJXJXJXJXJXJXJXJXJXJXmX@ f.R.y.o.=.+.{ { Q ) { ' [ Q Z hX0X8X4X-X5.1._ M c +.+.x x s.p.O.{ { { O.] ] ~ ] ] ..O.O.O.Q z.",
"KXLXLXLXKXKXJXJXLXLXKXmX* y.gX1X1Xz.g.~.B.B.;.=.a.W.W.nXZXjX4X5X,Xv.<.b ) v O.+.F z u.#.` [ { { { ] ] ] ] O.O.O.{ ] W z.",
"FXFXFXFXFXFXFXFXFXFXFXDXN r.5X9X6XbXBXZXZXBXnXnXZXZXZXZXnX`.:X,X&X;X,.M M v ~ O.F F #.#.] { { O.{ ] ~ ] ] { O.O.] X.Q z.",
"iXuXuXuXiXiXiXuXuXuXuXfXV t.5X4X,XnXnXBXZXZXBXZXZXAXZXnX_.-.r @X*Xe Z M ( p E O.H K y.;.{ { O.O.{ ~ ~ ] ] { O.] ] ` Q z.",
"sXsXsXsXsXsXsXsXsXsXaX3X*.h.+X#XOXh.B.B./.(.g.(./.(.].W.W.&.r .X.Xe j n } v c ] ! H o.;.] O.{ O.{ ] Q ! ! ~ ] ] ` { Q z.",
"wXwXtXwXtXwX9XwXtXyX8XgX` K q.R U | W W X.P ' g.o.B P R 0 e 6 7 6 l b ( } } v E K ; L ..~ ~ { { { { ~ ! ! ` { ` X.{ Q z.",
"9X7X8X7X7X9X9X7X8X7X0Xt * R d.{ ] X.] ] ' ' ' #...~ 0.+X&Xe d E ) M ) _ } _ M m < : ' X.W ~ { { { ] ` ~ ~ ..O.] ' ] W k.",
"gXb.<Xb.b.b.b.T.hXT.k.R ; o.l.;.#.+.{ ..] ] { O.+.+.5.<X%X8.j ( } _ _ _ M h E ..x a o.;.~ ] { { { { { X.+.#.+.+.] ` W z.",
"` N i i N C C >.W. .L G % G y.=.o.' ! L L L W L ' ! 2.<.x l M ) ) _ M u u x T L : < '  .L L P L L L K U U U T L ` ' B k.",
"    . X % % % + o >       @ y @ * s : = & & & % + o : [ 2./ m d c 8.6 3 7 % - : # $ W P i i * $ * * @ @ @ i - % % & + 0 ",
"b.t.t.t.q.R R R G G 0.0.r.n.m.n.h.y. .Y R q.R Y q.q.z x l 1 5 3 3 oX.X#XoXq R e.y.k./.x.s.f.h.k.k.h.h.k.R.M.o.: I q.Y t.",
"bXzX'._.~.B.^.B.x.B.).lXkXvXvX].~.l.i.p.c.V.~./.lX).u.s.v..X#X&X*X#X#X.XXX6 w.l.c.~._.V.l.B.).].'./.^.'.]._.d.` ^.zX~.].",
"/.s.a.u.o.o.;.#.#.y.y.s.s.a.u.o.o. .] #.#.#.a.j.B.s.| | r @X%X@X@X.XoXr 6 l g +.i.:.O.+.....u.s.u.u.;.u.u.;.' H j.V.u.M.",
"d.C W J J L E ~ ~ E E E C J B J W ` ] ] Q X.:.-.2.2.3.3.( 6 8.6 8.9.c Q ) Z E m ....! W L W ! ~ ..) ] ] ] W H F ! +.W z.",
"i.! ! L J ~ ~ ~ ~ ~ ~ ~ ~ ! ' ! ..{ { -.5.5.4.G.H.H.H.H.G.f f f j / ^ _ ( } O.M m T H H ! J ' O.O.O.O.O.| L K x  .;.] z.",
"+.L L ! ~ ~ ~ ~ ~ ~ ~ ..O.O.] ` @.5.G.G.H.H.L.L.I.I.I.I.K.4.n g M } ( ^ 4.G.3.) m c ! ! ~ ~ X.#.O.O.O.O.! ! H x o.;.` z.",
"u.! ! ~ ~ ~ E ~ E ~ ' +.+.{ ] [ G.H.I.I.P.P.P.P.I.I.I.K.H.4.b h ) ) ^ D.I.L.H.3.} [ ` ] { | #.u.#.O.O.! L ! ~ W o.s.W z.",
"s.W W ~ ~ ~ ~ ~ ~ ] ] O.X.] -.G.H.I.I.I.P.L.L.L.L.I.I.L.S.1.b g M ^ G.I.I.I.I.H.4.3.m ~ O.O.O.#.O.O...! L ] ' J o.d.` z.",
"u.~ ~ ~ ~ ~ ~ ~ ' ] ] ] { X.3.L.I.I.I.L.H.H.H.F.D.G.S.6.3.M p g g / F.F.K.I.I.I.F.7.[ v O.{ O.+.O.O...! ~ ....W ;.p.` z.",
"a.E ~ ~ ~ ( ~ ~ ] ] +.+.;.X.1.F.L.H.F.F.D.D.7.4.4.3.M b M M g p y M 3.D.P.I.I.I.I.F.S.h { { { O.+.O.O.....#.X.~ p.d.] z.",
"d.Q ~ ~ ~ ~ ~ ] ' +.;.;.#.] h 3.6.6.4.3.2.1.M 1.[ / M ^ / b g y y b 1.D.L.I.I.L.I.L.F./ p ) { { +.+.#.#.#.i.+.K P ;.] z.",
"p.~ ' ~ ~ ~ ] ] #.i.:.#.{ E M { 1.1.1.b b h g g h g p g M M m E c c g 1.S.K.I.I.I.I.L.4.M E ~ +.#.i.i.i.@.i.o.x T p.] z.",
"d.~ { ] ~ ] ..u.i.u.#...O.1.1.} 1.} 1.M n b p u p p i | j.o.Q X.X.] c Z 6.H.P.P.I.I.L.S.2.,.j ;.d.d.i.:.#.:.X.L s.B.' k.",
"s - : a z s x F s : : : H 6.7.4.3.1.M g b b u : ; + o a ' B a s z x : d 1.S.F.L.I.L.L.S.6.6.Z L ' K < : B L G ; a K * r.",
"I , , , : < : ; < 2 < , B 6.S.3.2.1.n b M M l x , < 2 0.e.U 2 < : % = ; p 1.7.F.H.P.H.S.6.6.4.E F ; % , < a ; ; < G ; r.",
"`.m.R.m.R.M.z.z.E.R.m.s.J 3.6.Z M M M 1.M b w.B.M.m.E.lX].M.j.M.z.z.n.R.h.E [ 6.S.F.D.S.2.3.S.1.:.s.z.).M.y.o.y.M.E.z.E.",
")./._._.`./.~./._.~.V.j.E 1./ M 1.1.1.w._ h g j.V.~.)._.~.l.d.B.^.^.).`./.w.v ^ 3.4.4.2.} 1.6.3.2.2.B.V.V.N.p.B.^.~.B.).",
"X.' O.u.d.d.d.i.;.X.#.' 2.6.2.3.3.2.1.M ( M v | O.....O.....! ....+.+.{ +...E g h M _ _ _ 1.4.4.1.2.Z M ~ +.+.+.{ ..~ z.",
"O.Q #.i.p.:.+...{ O.] ' 3.7.6.3.1.1.2.1.M M M E ~ O.) ..~ ' ] O.) ~ C [ ~ ) #.E u h ( _ ( M 1.2.1.1.,.Z ^ ~ +.X.{ ] Q c.",
"i.u.d.d.u.X...] ..O.+.' d / 1.M M 1.4.2.1.M g n O.+.O.X.....O.O.+.+.O.+.O.+.#...u u p b b b 1.1.M M 1.) M ..+.+.#.;...x.",
"p.i.i.X...' ] ' O.O.O.L = p u p M 1.} ^ M h u E O.O.O.O.O.O.O.O.O.O.O.O.O.{ O.O.J d p b } 1.1._ _ b M M p ) @.O.O.#.] x.",
"d.#.+.....' ] { O.O.O.U = s 8.7 4 k k 1 l m ..O.O.O.O.] O.O.O.O.O.O.O.O.O.O.O.O.W  .n n 3.3.1._ } b g u 5 9.O.O.O.+.~ x.",
"u.O.O.O.] O.{ O.O.O.+.T <  .r =X$X$XoX@Xw { +.O.O.O.....! ] O.O.O.+.{ O.O.O.O.O.H K | n m v b j ( ^ u 4 #X;X| O.O.O.) m.",
"@.O.O.O.O.O.{ O.] O.+.L : q.:X,X*X*X*X#X9.#.O.O.O.O.' ! E | ..O.+.#.+.+.O.O.O.+.K a o.E b v u g y y y OX=X@Xw _ O.O.Q z.",
"#.O.O.{ O.{ O.{ { O.#.T : c :X5X=X*X&XOXR O.O.O.+.] ~ ! ! ! ~ ..+.#.;.+.O.O.O.O.! K s.u.v b v p 4 7 e e $X&X;XB @.O.( x.",
"#.] O.] { { O.] ] O.#.U = l <X,X-X$X+Xe ! ~ ....~ ! L J ! ! ~ ~ O.+.+.O.O.......L x ;.i.] E | J ;X&X&X;X7 $X+Xe 9.O.~ x.",
":.{ O...{ { { { { +.i.L : v.<X:X9 9 XX2 ~ ! ~ ~ ~ L ! ~ ~ { ..] ] ] ' ' ' ' ..O.G : o.p.#.@.+.@.w.;X%X&Xe 5 e &XoX..) M.",
"o. .!  .' L L L T | | < r v.eX4X*X=X%Xw B U L K K K H L ! T T | ! L K G K L ! T < : o.u.T | T U K I e OXOXOXOX-X&Xr J n.",
"O % * - & + . . O O . 3 <X<X7X,X*X%X.X> O O + + o O O % # # # # $ # o X o # & # X @ i i # O . .   O @ 3 XX&X*XoX-XoXo q ",
"0.0.R R R 2 0 0 0 0 0 >X2X4X,X%XoXe q 2 2 0.0.0.I I , < q.q.0.q.q.q.0.I 0.q.Y I 0.q.j.h.0.0.0 9.9.r.t.I q OX#X@XOX7 , r.",
"cX_.'././.~.'.xXxXxXcXE.<X<Xv.v.h.z.R.).'.zXzX)./.V.) j.kX_./.'.).^./._.'.'.).~.).'.lXlX_._.zXxXxXcXcX].V.k.0 5 8.m.).kX",
").x.B.B.l.l.V.^.M.V.M.N.5.p.d.a.s.j.d.j.x.M.M.c.l.p.i y.~.N.d.d.d.d.d.j.l.l.d.l.l.B.l.l.l.N.B.B.M.x.x.s.y.e.F & q._.V.)."
};
