/* XPM */
static char *result[] = {
/* columns rows colors chars-per-pixel */
"60 60 253 2 ",
"   c black",
".  c #00061A",
"X  c #011719",
"o  c #360400",
"O  c #2E241B",
"+  c #000426",
"@  c #061723",
"#  c #181E26",
"$  c #1B222B",
"%  c #0B2A36",
"&  c #22262C",
"*  c #292E33",
"=  c #480600",
"-  c #5A0401",
";  c #4C1904",
":  c #571802",
">  c #560016",
",  c #6B1106",
"<  c #582408",
"1  c #492514",
"2  c #542E13",
"3  c #572917",
"4  c #672705",
"5  c #742903",
"6  c #6F3404",
"7  c #662D17",
"8  c #68351B",
"9  c #76381A",
"0  c #711627",
"q  c #4E312E",
"w  c #56382A",
"e  c #553C34",
"r  c #683828",
"t  c #743B25",
"y  c #7C3D21",
"u  c #723033",
"i  c #754613",
"p  c #57473C",
"a  c #794229",
"s  c #77522E",
"d  c #774636",
"f  c #0A354C",
"g  c #2A394C",
"h  c #343B4C",
"j  c #063F64",
"k  c #66394C",
"l  c #364657",
"z  c #374A51",
"x  c #304E66",
"c  c #475459",
"v  c #525155",
"b  c #75594B",
"n  c #6E5452",
"m  c #6B6756",
"M  c #455566",
"N  c #525E63",
"B  c #67556A",
"V  c #566165",
"C  c #596365",
"Z  c #576568",
"A  c #5E686B",
"S  c #626B6E",
"D  c #70726F",
"F  c #656F71",
"G  c #6B6F71",
"H  c #647174",
"J  c #6B7475",
"K  c #6C777A",
"L  c #747C7C",
"P  c #797E7D",
"I  c #823906",
"U  c #943D04",
"Y  c #991E32",
"T  c #8C3630",
"R  c #9B4700",
"E  c #904D16",
"W  c #994918",
"Q  c #8A5419",
"!  c #A34900",
"~  c #A35015",
"^  c #834225",
"/  c #874729",
"(  c #8D4B2C",
")  c #984C24",
"_  c #944D2C",
"`  c #9B4F2D",
"'  c #885A28",
"]  c #985524",
"[  c #95502E",
"{  c #9C512E",
"}  c #874B35",
"|  c #964F31",
" . c #89543A",
".. c #8D553B",
"X. c #945234",
"o. c #9D5532",
"O. c #9D5834",
"+. c #98583B",
"@. c #A35226",
"#. c #A95527",
"$. c #A1532E",
"%. c #A5522C",
"&. c #A4582E",
"*. c #A35632",
"=. c #A85735",
"-. c #A55934",
";. c #A95A36",
":. c #A3553A",
">. c #A55C3A",
",. c #AA5D39",
"<. c #9B702A",
"1. c #A86038",
"2. c #AB613D",
"3. c #B16D35",
"4. c #8C3447",
"5. c #90364C",
"6. c #9B324E",
"7. c #95384A",
"8. c #895A45",
"9. c #955C44",
"0. c #8D4A53",
"q. c #984656",
"w. c #A45A43",
"e. c #A84757",
"r. c #B34C5D",
"t. c #AF5459",
"y. c #89624D",
"u. c #986349",
"i. c #906E57",
"p. c #996B57",
"a. c #A56344",
"s. c #AC6442",
"d. c #AE6946",
"f. c #A7664A",
"g. c #AE6A4A",
"h. c #B06542",
"j. c #B16946",
"k. c #B16D4C",
"l. c #B3714E",
"z. c #A66E54",
"x. c #B26E53",
"c. c #AB7359",
"v. c #B37354",
"b. c #B47659",
"n. c #B87658",
"m. c #B5795C",
"M. c #B97C5D",
"N. c #8A566B",
"B. c #A74D62",
"V. c #AD596C",
"C. c #B75568",
"Z. c #967371",
"A. c #AA7A66",
"S. c #B67B65",
"D. c #BA7E61",
"F. c #AF6D70",
"G. c #BA6775",
"H. c #C4687A",
"J. c #D2787E",
"K. c #79807F",
"L. c #998B39",
"P. c #B48B33",
"I. c #CBA239",
"U. c #9B9362",
"Y. c #BB8265",
"T. c #B7846B",
"R. c #BC846A",
"E. c #AC8678",
"W. c #B68675",
"Q. c #BB8A73",
"!. c #BF927C",
"~. c #CF9756",
"^. c #C1876B",
"/. c #D89965",
"(. c #C28D73",
"). c #C69379",
"_. c #C4937B",
"`. c #506393",
"'. c #777E82",
"]. c #B7798D",
"[. c #8771A6",
"{. c #C87487",
"}. c #CC778C",
"|. c #D5778A",
" X c #C67FA5",
".X c #7A8182",
"XX c #6488B5",
"oX c #5FA9D0",
"OX c #53D8F8",
"+X c #67D3F2",
"@X c #73E5FD",
"#X c #848B8C",
"$X c #8A8D8F",
"%X c #8C9296",
"&X c #94999C",
"*X c #B6858A",
"=X c #BB9585",
"-X c #989CA1",
";X c #8991B4",
":X c #B295A3",
">X c #9EA4AA",
",X c #A6A9AD",
"<X c #B8ABAC",
"1X c #A9ADB1",
"2X c #B5B7BB",
"3X c #C69A85",
"4X c #CA9B83",
"5X c #CD8D91",
"6X c #D88397",
"7X c #E0869C",
"8X c #CDA38E",
"9X c #F7B299",
"0X c #D88CA3",
"qX c #D590A8",
"wX c #E793AA",
"eX c #ED96B1",
"rX c #E79CB5",
"tX c #CDAFAF",
"yX c #D9A5B9",
"uX c #E7A3BB",
"iX c #F3A0B9",
"pX c #ECCB92",
"aX c #D0C4BC",
"sX c #98AFD6",
"dX c #B9BCC2",
"fX c #E9ABC4",
"gX c #F2AEC7",
"hX c #EAB2C9",
"jX c #F3B3CA",
"kX c #F4BBD5",
"lX c #F4BCD7",
"zX c #BFC3C3",
"xX c #8EF0FE",
"cX c #AFF8FE",
"vX c #C6C7C9",
"bX c #D1CDCC",
"nX c #CCCDD2",
"mX c #D6D8DB",
"MX c #F5C2DD",
"NX c #F9C3DE",
"BX c #E2D5D2",
"VX c #DCDDE1",
"CX c #F8C7E2",
"ZX c #D4F2F1",
"AX c #E5E6E8",
"SX c #EBECEE",
"DX c #F3ECED",
"FX c #EEF2ED",
"GX c #EDEFF1",
"HX c #EAF2F2",
"JX c #F3F3F4",
"KX c #F6F7F8",
"LX c #FEFEFE",
/* pixels */
"Q.k.l.v.v.s.s.s.x.b.m.b.v.k.v.b.v.v.S.b.v.v.v.x.n.S.a.u.(.(.b.n.l.f.a.>.>.2.2.v.R.(.Y.n.n.D.T.n.n.Y.D.g.s.v.b.o.O._.3Xc.",
"g.$.$.{ ) ` *.*.$.@.@.$.-.,.d.d.,.*.$.@.$.$.$.$.$.&.^ t ,.d.*.*.{ [ ] _ $.{ *.] &.;.;.;.=.*.$.*.*.$.` _ { { ` W X.M.l.] ",
"d.&.-.$.{ *.-.-.;.-.;.,.s.k.v.l.s.s.>.;.;.,.;.;.;.;.( / z.n.-.*.o.[ { $.$.&.&.-.,.2.1.1.;.,.;.=.=.-.o.` o.-.-._ ( >.1.o.",
"v.-.-.&.$.$.*.*.-.-.-.;.s.k.d.2.2.2.s.,.;.;.;.-.-.-.) X.b.m.O.o.[ { { &.*.o.O.&.,.2.1.1.;.,.;.;.-.*.o.` $.-.=.( ^ O.2.o.",
"D.&.&.*.$.*.o.&.o.&.&.,.j.k.2.1.1.2.2.2.-.;.-.;.;.-./ ^ g.k.*.o.{ { o.o.&.*.&.*.,.2.2.,.;.2.,.-.*.` ` $.*.#.;._ / a.d.O.",
"M.-.-.*.o.$.*.$.*.$.*.,.j.3.2.1.1.>.;.;.=.;.#.! ! =./ ^ s.g.*.o.{ { $.*.O.$.*.-.,.2.h.,.;.;.-.*.{ ` o.$.&.=.-.o./ >.g.O.",
"k.;.-.&.&.O.{ &.$.$.*.;.s.2.1.;.;.;.;.;.;.@.F.0X5Xa.I / g.j.o.{ { *.#.-.&.-.;.-.;.h.2.;.;.;.;.o._ { *.*.&.*.-.( 9 { d.O.",
"l.;.-.&.o.&.o.&.-.&.-.,.h.2.,.;.;.1.1.;.-.x.6X0XuXhX*X6 w.s.{ o.$.-.-.&.=.;.-.-.;.,.,.;.;.;.*.[ _ ` *.#.=.*.-._ a 1.j.*.",
"v.;.=.=.&.O.&.&.-.&.-.2.j.h.;.;.;.;.;.;.2.}.e.5 0.hXCX*Xs.g.O.-.;.&.*.*.&.-.&.*.*.*.*.-.-.*._ ( _ { -.-.&.&.=.) | c.l.O.",
"n.=.;.-.$.&.&.o.&.&.;.2.j.2.1.;.=.=.=.&.S.C.y ,.I ].CXlX5X2.-.-.=.*.$.$.o.&.o.&.$.$.$.*.` / ( _ { -.=.&.&.-.-./ T 1.d.O.",
"D.;.2.2.,.,.1.>.;.-.;.h.h.2.2.2.2.,.,.#.|.C.9 3.&.0.fXCXuXg.2.s.,.;.*.-.-.*.-.*.*.$.{ | _ ( _ $.;.,.;.;.>.-.;.( a 2.j.-.",
"g.[ o.{ X.X.[ [ [ { o.>.+.+.O.+.o.X.o.) F.B.a o.-.I ].CXMX*XE +.X.( / ( _ ` [ _ / _ _ _ / ( ( _ _ _ _ _ ) { { a a u.1./ ",
"5 3 < ; : ; = - , 6 9 9 3 ; 1 ; = : t t r 4.u T / 4 V.jXCXyXo = : = = , 4 4 < 4 6 3 7 8 8 9 6 4 - : : 4 6 9 7 = = , : : ",
"A...d 8.y.y.y.i.Z.z.p.+.8 2 a s 8.y.b } 8.b ..+.a.8.5.fXCXMX*X8.p.p.p.A.A.u.u.c.p.9 8 } } ..u.p.p.p.p.p.z.u.8.8.p.p.p.9.",
"4XY.Y.(.)._._.8X8X_.4X^.) 9.Q.(.R.p.4.q.c.T.D.v.b.8.7.fXCXCXfX3X8X).).4X3XQ._.4X(.W +.T.R.R.).)._.4X4X4X4X(.R._.8X4X_.(.",
"l.g.v.b.n.n.n.m.n.b.D.z.9 u.(.p.<.P./.|.{.z.f.F.t.4.C.fXCXMXkXW.m.n.x.n.k.x.S.S.x.9 9.R.Y.m.n.k.k.x.c.b.v.x.b.m.m.c.c.c.",
"*.$.@.@.@.@.@.@.@.$.&.( <  .s . l l m 5XeXG.q.rX].6.|.lXNXNXMX5X! -.*.&.-.#.@.#.` 9 9.M.k.,.&.@.` ) W ) { $.@.` @.@.] ) ",
"2.-.;.;.;.;.-.=.-.*.>.( 9 p @ l M M f q.7Xe.{.uX].Y |.kXCXNXCXrX#.,.,.2.2.,.=.,.o.y 9.D.k.-.-.-.&.-.*.*.$.*.-.>.*.=.&.&.",
"s.-.,.2.2.;.;.;.;.-.>.[ 2 X * l M l h 7.H.4.|.lXqX4.{.lXCXMXCXrXw.=.:.=.;.;.;.,.-.9 X.k.2.*.;.=.=.;.*.{ $.-.*.;.=.=.-.O.",
"h.;.s.2.2.>.>.-.-.;.O.a . + l M M c d q.r.0 }.NXlXqX].jXCXMXCXuXt.=.=.=.-.-.=.,.:.9 ..j.2.#.#.&.;.&.&.{ &.-.;.=.=.-.&.{ ",
"j.s.d.h.2.>.*.*.-.;.X.X <.L.m x x n 2.} 6.5.{.hXfXhXkXkXMXMXMXrXr.w.:.*.*.*.-.;.o.T +.s.,.*.=.=.;.=.$.$.*.-.-.;.=.*.*.{ ",
"j.j.j.,.*.{ [ { *.*.a <.<.3.P.C z u.2.>.r }.fXqXCXMXlXhXMXMXgX0X{.w.=.=.>.*.-.;.&./ X.g.,.=.;.=.;.#.{ $.{ $.-.;.*.O.*.&.",
"v.k.h.;.o.[ [ { *.O.i f.5X X6XS.8.2.2.2.; Z.hX6XuXeXgXrXMXNXMXjX|.w.;.=.-.-.-.;.*./ ( a.>.*.;.=.;.*.$.$.{ ` *.&.&.-.-.&.",
"v.d.,.;.{ { *.&.2.d.} F.6XH.H.|.F.( -.;.< k yX|.0X].yXrXfXkXgXeX{.w.;.=.;.;.-.-.{ a i O.*.{ &.*.=.=.*.$.{ { *.-.&.*.-.{ ",
"v.2.;.o.o.*.-.=.+.( G.0X'.`.`.XX4.3 -.*.a 5.H.G.uXv N.fXqX|. X{.5Xw.#.=.=.=.-.-._ 8 ^ ,.>.{ &.-.#.-.&.$.$.=.=.;.&.$.$.[ ",
"l.;.;.*.o.-.,.w.i B sX+X@XxX@XxX$X5 +.-.:.T 0 C.rXB   V.yX{.4.0.uXyXs.;.,.,.;.1.o.t ( s.*.$.*.;.-.-.;.-.,.2.2.,.;.*.-.{ ",
" ./ / t /  .X.] n oXxXHXDXGXSXKXBX- 0 d ( y u 6.{.}.N.- 0 q.o :XCXMX*XE X.( ( [ } 3 ^ >.X./ ( ( _ ( ( / / _ X.( ( [ ' / ",
"    o o : : 3 - XXxXJXDXDXDXSXDXZX'., 0.2 ; 6.6.6.7.].*X].6.B.gXCXMX5X: t 7 3 7 9 : ^ w._ I I 6 4 5 4 : - 5 9 7 1 < < < ",
"A.Z.p.p.p.9.u.R XXcXJXFXGXGXGXZXOXXXU 5.} 8.u r.e.> q Z.[.7.eXjXhXfX].) 9.X...u.z.z.W.(.b.c.c.c.A.A.z.A.A.Q.T.+.a 8.u...",
"8X8X3X(.R.M.Y.l.XXxXDXDXDXJXZX@XXX8.B.V.8.z.u 6.7.e.q.0 , C.wXiXiX0Xc.k.v.j.n.M.b.M.Y.^.M.v.Y.(._.).R.^._._.(.2.1._.4XY.",
"T.f.s.a.+.>.2.1.p.+XcXZXHXZX@XXXe.].jXqX*. .q.C.7.6.r.r.r.6.J.7X|.G.;.2.;.;.,.,.s.j.,.-.>.&.-.f.f.2.2.2.a.2.2.) [ b.M.a.",
"k.] ) ) ( ` ) o.! Z.oX+X@XOX;XV.V.5XMXgX/.v 0.r.C.e.4.T 7.|.gXgX}.o.-.-.-.*.*.&.-.,.{ ` _ ) { $.$.-.=.*.-.{ { / ^ { 1.{ ",
"g.{ { _ | ` %.%.| ! ! k B Y 6.{.C.6XiX9XL.x x B 0.B.r.7.V.gXCXfXS.{ -.-.-.$.*.*.` o._ ( _ _ ` *.;.;.;.;.;.X._ / / >.s.O.",
">.[ [ { ` %.` :.` :.-.W 5 u 4.4.e.H.J.~.v x M M x v B.6.|.kXCXqX] >.:.*.o.o.o.` ` ` | | ` $.$.>.w.=.=.=.o.o.{ ( / >.a.o.",
"s.` ) o.%.` ` :.%.$.:.w.=.0.u 5.q.4.;.s + g c x M x 8.t.eXlXkX5XU U U U U ) o.=.%.$.$.*.-.-.=.w.s.,.=.=.| _ o.` [ f.j.O.",
"x.` ` o.:.` %.` $.$.$.:.;.~ ~ W E ^ 8 . & # * l M j !.4XfXkX0XtX<X8X<X<X=X:.W R :.$.*.*.=.;.;.w.s.;.:.o.` o.-.{ _ a.j.O.",
"g.{ ` %.$.$.$.$.{ *.*.~ ! A.F.E.W.E.D c   $ * & j L.pXlXjXkXuXAXLXKXLXLXKXSXbXS.W *.O.*.;.=.=.;.,.;.>.*.o.*.>.o.[ a.d.*.",
"g.` $.` ` ` $.` *.&.@.E.bXSXSXFXSXGXmX1XD     & * I.9XlXuX6X2XGXLXLXLXLXLXLXLXJXtX! -.,.;.=.&.-.,.;.-.;.*.;.2.;.-.k.k.*.",
"k.$.{ $.*.$.$.$.$.a.aXJXLXLXLXLXLXLXLXGXmX2XP   ; ^ G.7X{.V.nXLXLXLXLXLXLXLXLXLXLXaXz.1.;.=.;.-.-.;.;.,.2.s.d.O./ O.2.*.",
"g.*.*.$.%.$.:.*.1.aXLXLXLXLXLXLXLXLXLXLXJXGXAX2XaX$XN.7.4.:XVXLXLXLXLXLXLXLXLXKXLXLXdXp.#.#.#.,.s.s.d.j.h.h.j.O.^ +.j.*.",
"l.$.&.$.*.*.,.@.=XLXLXLXGXJXLXLXLXLXLXLXLXJXSXGXJX2X&XvX2XvXmXLXLXLXLXLXKXSXLXLXLXLXKX1XZ.T.A.R 2.n.k.d.2.2.2.O.X.v.v.O.",
"/ 9 9 a a a / d &XmXSXLX2X&XnXJXLXLXLXLXLXLXGXJXmX&X,XvXvXVXKXLXLXLXLXKXvXnXKXJXLXLXLXmX,X2XvXaXp.R } a a _ X.a r / ( t ",
"a 3 3 r 9 t 9 e S .X#X2X$XA S &XdXmXGXJXLXLXJXmXvX$X2X1XmX1XJXLXLXKXmX&X1XvX1X#X2XKXLXAX-XSXnXVXJX<X8 1 8 a 9 8 7 t r 8 ",
"!.E.T.A.T.c.A.b H K.K K K.K A V c L %X1XmXVXGXvX,X1X,X1X2X&XGXLXAX1X#XL &X#XJ K L 2XJXvXvXLXKXzXAXHXE.z.T.c.u.O.z.T.T.c.",
"3X(.).)._.).^.i.H .XL L K.L K.H c c c C L ,X2X1X#X%X.X%X#X1XmXdX-XJ A J L L L L L L #XnXLXLXLXAX-XnX=X(.).^.v.v.Y.R.^.Y.",
"1.O.w.g.v.v.l.i.Z L L L L L K.S N V L F C J L K L S V C J %X-X.XK G G L L K.K.L K K.vXLXLXAXmXnX;XU.p.s.,.2.2.2.1.>.1.*.",
"-.@.;.h.j.j.,.i.H H L L L L H A H S K..XC z S L K.K Z N L L L F z N H .XL J F A C %X2XzX2X#X.X#X'.y.#.%.$.%.-.;.;.&.&.$.",
"j.s.k.v.j.w.$.i.>X'.L K..XF A L Z J L L A b y.C C Z n v V C C n 8.b b V V V V S L P H H S C C c b ;.=.,.,.,.1.1.2.1.1.>.",
"k.j.g.2.*.O.$.y.1X1X.XA Z Z '.H A '..XH b h.2.>.+.+.*.+.+.| +.*.;.;.=.n z V Z Z J L A V A H c f d =.-.-.=.;.-.;.;.,.2.>.",
"k.s.,.>.O.*.&.y..XzXdX>X%X.X'..X%XK .Xz a 2.2.;.=.;.=.*.=.=.,.=.=.-.;...A K.L L K.K.K.L J c g l f s >.1.;.;.=.=.;.;.;.*.",
"g.;.;.;.-.-.-.#.Z.2XnXvX-XH .XdX%XJ c X w >.1.;.=.;.-.*.*.*.=.;.;.;.>.-...A H H H F H Z z # # g h f s -.1.>.;.;.;.=.=.*.",
"s.=.=.=.=.;.=.,.O.Z.&X#XN K -X%XA c & $ X X.,.-.=.=.-.*.` { *.;.,.2.2.>.-. .c C Z c h @ . # @ $ h h g  .;.,.;.=.=.=.=.:.",
"h.=.=.;.=.;.=.=.-.&.d c z H S c % . @ +   _ ,.-.=.=.*.o.` ` { *.2.2.d.1.;.;.9.m m b } s O @ & X & h f s ;.;.;.;.=.;.=.*.",
"s.*.=.*.#.-.-.=.$.>.d...e p  .X.w s ' ' s ' :.=.*.*._ _ ` { ` { -.;.2.1.;.-.*.*.O.^ o.k.>.1 . & @ + L.I.[ ;.=.=.=.;.=.o.",
"h.-.*.-.-.-.;.-.-.;.h.O.6 ..n.h.i i ] Q i i o.*.o.o.` { *.*.-.-.&.*.*.-.*.*.-.=.o.a ^ g.j.*.w . * L.I.I.' X.;.;.;.;.,.-.",
"f.*.>.;.*.o.o.*.:.,.w.X.t 9.A.9.2 i i i s 8 | _ _ _ _ o.o.*.>.>.o.*.X.[ } _ o.*.X.r / g.g.,.[ s 3.P.] ~ P.<.' >.>.;.,.-.",
"r 8 9 9 8 7 2 2 2 3 3 1 o 7 ^ < < 6 i Q i 1 2 7 3 3 3 7 8 7 9 8 9 8 7 < 1 < 7 9 8 ; 7 _ y 7 3 i Q : < 6 Q 3.<.i r a 8 8 ",
"r r a a a 8 q q e e e p e d 9.d w p p w w w r t r r w 1 u d t u d T u r r d u a r t 8.w.s a q * O p p p q q e e 1 ; w 1 ",
"!.Q.Q.Q.Y.Y.Q.3X3X!.3X!.T.3X8X!.Y.Q.Y.Y.Q.!.!.Q.T.D.w.o.T.(.T.Q.!.R.T.T.Q.!.Q.Y.Y.Q._.3X).R.Q.!.3X=X4X8XQ.W.Q.u.6 p.Q.S.",
"_.^.^.R.M.Y.Q._.(.).(.R.Y.R.T.Y.b.m.l.Y.R.Q.(.Q.D.S.;.` R.^.n.D.Y.m.m.D.Y.Y.Y.M.Y.Y.Y.H.Y.Y.Y.R.(.(.(.^.S.v.c./ 9 S.).Y."
};
