/* XPM */
static char *result[] = {
/* columns rows colors chars-per-pixel */
"60 60 255 2 ",
"   c #040203",
".  c #180706",
"X  c #00041A",
"o  c #01161E",
"O  c #260604",
"+  c #350701",
"@  c #371409",
"#  c #021624",
"$  c #1A1D25",
"%  c #0B2731",
"&  c #242628",
"*  c #2B2D2F",
"=  c #460D07",
"-  c #540D08",
";  c #471404",
":  c #551706",
">  c #641C07",
",  c #6A1C0F",
"<  c #592408",
"1  c #532A0B",
"2  c #462817",
"3  c #592A16",
"4  c #5B351B",
"5  c #672709",
"6  c #772C05",
"7  c #6C360D",
"8  c #793604",
"9  c #662815",
"0  c #642C14",
"q  c #772714",
"w  c #693419",
"e  c #77381A",
"r  c #531B26",
"t  c #543523",
"y  c #683926",
"u  c #6C3A24",
"i  c #743C23",
"p  c #7B3D22",
"a  c #763C29",
"s  c #6F2D39",
"d  c #7A323B",
"f  c #764113",
"g  c #524733",
"h  c #7C4225",
"j  c #71472C",
"k  c #7B432A",
"l  c #78442A",
"z  c #6B493A",
"x  c #794B36",
"c  c #0D334C",
"v  c #723645",
"b  c #364A57",
"n  c #324D6A",
"m  c #54514F",
"M  c #48555A",
"N  c #6B564D",
"B  c #776F58",
"V  c #455666",
"C  c #4F5A62",
"Z  c #6F566C",
"A  c #596567",
"S  c #5E6E70",
"D  c #666466",
"F  c #616B6D",
"G  c #656E71",
"H  c #6B7474",
"J  c #6A7679",
"K  c #747C7D",
"L  c #930D11",
"P  c #8B3C11",
"I  c #84392A",
"U  c #8A2A3C",
"Y  c #9A4B03",
"T  c #884219",
"R  c #994B1B",
"E  c #88561C",
"W  c #965414",
"Q  c #A35115",
"!  c #844323",
"~  c #8B4625",
"^  c #844429",
"/  c #87492A",
"(  c #8C4B2C",
")  c #944B24",
"_  c #934D2C",
"`  c #9A4F2D",
"'  c #885E22",
"]  c #96512D",
"[  c #9C522E",
"{  c #985929",
"}  c #844C32",
"|  c #8B4E33",
" . c #854738",
".. c #934F31",
"X. c #8A5338",
"o. c #8C543B",
"O. c #945333",
"+. c #9D5432",
"@. c #96583A",
"#. c #9D5A3B",
"$. c #A14F28",
"%. c #A65426",
"&. c #A2542E",
"*. c #A3582F",
"=. c #A45632",
"-. c #A85735",
";. c #A55934",
":. c #A95A36",
">. c #A85739",
",. c #A45C3A",
"<. c #A95D39",
"1. c #B15E30",
"2. c #976632",
"3. c #B47629",
"4. c #A76339",
"5. c #AB613D",
"6. c #B2623D",
"7. c #893945",
"8. c #97394B",
"9. c #9C394B",
"0. c #A43749",
"q. c #8E4C4B",
"w. c #895945",
"e. c #945C43",
"r. c #985C47",
"t. c #994856",
"y. c #A7584E",
"u. c #A84557",
"i. c #B34758",
"p. c #B44D5E",
"a. c #996247",
"s. c #886755",
"d. c #946853",
"f. c #996A56",
"g. c #A56243",
"h. c #AC6542",
"j. c #AD6945",
"k. c #A5674B",
"l. c #AD6A4B",
"z. c #B16643",
"x. c #B16946",
"c. c #B26D4C",
"v. c #B4714E",
"b. c #A76C55",
"n. c #B26D53",
"m. c #A4735C",
"M. c #AA745A",
"N. c #B47354",
"B. c #BB7357",
"V. c #B4765A",
"C. c #B57A5D",
"Z. c #B97B5D",
"A. c #8F5D65",
"S. c #B64F60",
"D. c #A65768",
"F. c #BA5263",
"G. c #B85565",
"H. c #B05B72",
"J. c #91746D",
"K. c #A96868",
"L. c #B96C65",
"P. c #A77A66",
"I. c #B57B61",
"U. c #BA7E62",
"Y. c #B57A6B",
"T. c #A36378",
"R. c #BA6778",
"E. c #C65D70",
"W. c #C76679",
"Q. c #78807F",
"!. c #A88924",
"~. c #C0A53C",
"^. c #AA9447",
"/. c #AB816D",
"(. c #BC8265",
"). c #B4816A",
"_. c #BD856A",
"`. c #BE896E",
"'. c #A98574",
"]. c #BC8A72",
"[. c #B98B76",
"{. c #BB917D",
"}. c #C0856A",
"|. c #C1896D",
" X c #CA906A",
".X c #C28D74",
"XX c #C08F78",
"oX c #C49176",
"OX c #C5947C",
"+X c #C9957C",
"@X c #DF9E72",
"#X c #B67488",
"$X c #CC7287",
"%X c #C97588",
"&X c #D77B92",
"*X c #7B8284",
"=X c #6F9399",
"-X c #718FB3",
";X c #69AAD8",
":X c #4EB2F2",
">X c #39E8F9",
",X c #4EC4F9",
"<X c #68D0E9",
"1X c #67DBFA",
"2X c #59E8FD",
"3X c #5CF1FF",
"4X c #838A8C",
"5X c #928D8B",
"6X c #8C9499",
"7X c #95989A",
"8X c #A99091",
"9X c #9498A3",
"0X c #9EA2A5",
"qX c #A5ABAD",
"wX c #ADB2B6",
"eX c #B6B9BB",
"rX c #C8888F",
"tX c #C79A85",
"yX c #CB9B84",
"uX c #D78296",
"iX c #E58E93",
"pX c #CDA490",
"aX c #F7A99C",
"sX c #D491A5",
"dX c #DA97A8",
"fX c #E993AB",
"gX c #EB96B0",
"hX c #DEA2B8",
"jX c #E5A4BA",
"kX c #F1A6BF",
"lX c #DCCC8C",
"zX c #BABDC1",
"xX c #EAABC4",
"cX c #EDB2CA",
"vX c #F3B2CC",
"bX c #EFB7D0",
"nX c #F5BAD4",
"mX c #B8C4C7",
"MX c #BFF7F4",
"NX c #C5C6CA",
"BX c #CECFD1",
"VX c #D6D7DA",
"CX c #F1C8DA",
"ZX c #DFE0DF",
"AX c #DDDEE1",
"SX c #FBC7E3",
"DX c #C7F8F7",
"FX c #E4E5E7",
"GX c #EBECED",
"HX c #F4EDEE",
"JX c #EEEFF2",
"KX c #EFF1F3",
"LX c #F3F3F4",
"PX c #F7F7F7",
"IX c #FEFEFE",
/* pixels */
"pX`.Z.(._.C.v.N.U.|..X]._.Z.(.`.).).oX].|.`._.)..X.XI.M.tXtX.X.X(.C.V.l.l.c.N.}.yXpXOX_..XtXOX|..XtXXXV.Z.|._.>.V.pXpX(.",
"C.,.[ ;.+.&.*.*.=.*.=.=.:.<.h.h.5.;.;.*.*.*.=.&.*.:.) p k.v.;.-.*.[ ] ` $.&.[ *.5.6.5.4.:.,.;.;.:.;.*.[ [ =.&.P k.|.l.) ",
"l.;.*.=.` ` =.-.-.*.=.;.<.j.c.n.j.5.:.-.:.:.>.;.<.,.( h k.n.>.=.O._ ` [ =.;.+.*.:.<.:.4.:.-.-.-.-.=.O.` [ =.=.~ @.l.:._ ",
"N.5.=.=.[ *.;.=.;.:.:.<.h.l.v.j.h.h.5.:.*.*.&.%.%.%.R ( C.C.,.+.] ` +.*.+.*.*.;.<.6.4.4.;.>.<.-.;.=.+.[ ;.=.-.^ ~ ;.4.O.",
"(.5.%.*.&.&.=.[ +.*.;.:.j.c.z.4.,.5.6.x.n.L.W.B.L.L.k.( 4.4.{ ;...` +.;.;.*.*.;.<.5.5.<.:.4.,.:.=.O.` [ *.*.=.~ | g.5.{ ",
"_.h.&.;.=.+.*.;.=.*.*.:.h.z.6.4.4.;.r.H.D.t.t.D.D.D.&XsXdXrXk.R R =.=.[ [ [ &.*.<.h.5.<.:.<.;.;.[ ` &.*.*.:.-._ ] k.j.] ",
"B.h.*.;.[ ;.[ *.*.[ ;.,.5.6.4.:.4.O.d / ) ` ` R R I U $XfXjXcXsXy.Y *.;.*.;.;.:.<.j.z.:.:.:.;.+.` [ =.;.*.-.=./ ! 5.5.O.",
"v.<.;.;.*.*.[ =.+.*.*.:.5.6.5.:.:.:.;.:.:.:.:.:.1.4.e > U p.uXvXvXXX*.:.:.:.:.:.-.<.<.-.:.:.=.[ ..$.%.=.*.=.=.^ e 5.h.| ",
"B.5.=.;.=.+.*.*.*.;.*.<.h.z.<.:.:.:.:.<.:.;.:.*.*.-._ ^ w.q.0.W.cXSXrXY >.=.;.;.;.=.-.-.-.=...( _ [ =.:.1.*.=._ @.V.x...",
"C.h.:.:.*.;.+.*.*.*.:.5.j.h.<.:.:.-.-.:.4.:.-.;.-.;.` | V.a.U 0.W.nXSXrX=.=.+.*.*.+.=.=.+._ ( _ [ =.-.*.*.:.=.I _ c.6.) ",
"(.z.:.5.:.;.>.-.*.:.:.5.z.6.4.:.<.<.<.<.:.:.:.;.:.:._ ! g.K.%X#XD.&XnXCXK.Q ;.+.$.=.=.` ( ( ..` ;.:.:.*.*.:.*.f ^ k.k.a.",
"Z.5.;.<.,.,.#.>.;.=.;.5.g.5.4.,.<.<.<.<.<.:.:.;.;.:.( p t.dXvXcXbXjXcXSXhX+.;.+.O.` [ _ ( _ ` =.=.=.=.=.;.=.a.-X;X:X;X:X",
"T e w 9 0 w 3 3 5 q P ^ u y y w w , w I p I ~ ( / ! 9 3 u.W.fXxXbXnXbXbXnXK.> e e w i p p p 7 5 , 5 0 6 p 6 D :X:X:X,X,X",
"r.x w y y j y a w.o.X.} 4 ; 1 3 y z x l j l } ( | | y d p.S.G.E.uXhXxXsXvX8X7 o.} 3 3 e e h } X. .N x  .o.P =X3X2X2X<X2X",
"pX).M.).[.].].tXtXtX[.)...^ M.I.).].].Z.V.I.C.N.V.B.b.t.G.S.U u.hXdX&XH.cXdX/.tX_.T @.M.M.).`.]..X+X{.OX[.Z.6X;X-X,X2X2X",
"[.V.Z.}.].]._..X[.|..X(.( @.XXXX_.|.U.C.Z.Z.C.V.N.N.n.w.p.u.7.  Z uX%XT.v R.P.+XV.T a.]._.`._.U.U.`.`.`.}.b.q.u.I mXMXMX",
";.%.;.:.=.=.=.=.*.:.:.#.w x C.N.5.5.:.;.-.;.>.;.>.;.;.O.7.9.8.2 v t.p.&Xv r O.6.O.e a.U.v.5.,.*.[ ` $.-._ d u.U 7XJXHXJX",
"5.:.=.*.*.*.-.&.=.*.*.[ w / Z.N.4.:.:.;.-.=.-.-.;.=.=.:.) d 8.7.8.9.S.D.8Xv T R T 8 g.Z.5.&.%.*.%.$.$.) x u.8.5XZXPXGXJX",
"c.:.<.<.5.<.<.<.:.<.>.O.7 X.(.V.<.5.5.:.<.>.>.<.,.,.>.>.5.U u.S.8.9.G.0.A.v R.&X%XR.b.K.k.4.N m m N N ` U 9.t.v 8XBXJXJX",
"c.:.<.5.5.<.,.;.-.-.-.=.p o.V.x.=.;.:.5.-.-.-.-.-.=.-.-.<.@.9.F.p.7.U 0.7.9.$XfXgXgXfXfXiX2.c c c c ^.n.H.$XW.U J.NXJXJX",
"x.5.h.z.5.:.:.;.-.;.<.=.~ @.V.j.=.<.5.5.;.-.-.:.:.-.-.-.:.+.t.p.8.u.sXhXT.9.0.i.G.W.W.$XL.4 c b M n ^.aXkXW.8XBXLXHXHXHX",
"c.j.x.z.<.=.+.[ =.-.>.+.! ( c.h.:.5.5.:.:.-.:.>.-.:.-.=.:.=.q.u.9.E.vXSXxXuX%XA..., p I k b V V V n B L.gXE.qXDXDXDXDXDX",
"N.c.j.5.-.] ] [ +.-.<.;.h ! <.<.:.5.5.4.-.-.;.-.-.>.-.=.-.=.I u.F.p.&XxXgXxXbXnXjXsXD.W.@XB n V n b g I H.&X8X>X3X2X2X2X",
"Z.c.5.<.+.] [ +.;.,.x.g.a p >.<.+.:.:.:.:.-.>.:.:.;.<.<.<.g.d 9.F.S.i.S.0.uXxXbXvXSXhXfXaX~.c c % & 2 ] 6 H.&X9X<X1X1X1X",
"B.j.:.;.+.[ *.=.<.j.N.j.p k x.g.[ ;.;.[ +.+.-.-.>.-.>.>.5.,.7.u.S.G.S.G.R.t.8.R.%X$X$XR.y.2.2 w E O.[ $.=.5 7.L Z :X:X:X",
"B.6.:.;.[ ;.:.<.5.v.v.h.i ^ n.n.5.5.:.;.=.=.;.;.<.<.<.<.<.=.7.S.S.G.i.$XvXsX( ) 8 > a | | _ :.6.<.:.1.4.:.<.q.r C 6X-X-X",
"k.@.{ ] _ #.,.+.g.k.g.@.y u g.h.#.4.;.+.O.+.+.+.+.+.,.+.;.O.q.p.S.S.p.E.fXR.+.,.| y X.h.#.[ O.+.+.O.O.+.O.#.o.y o.Y Y Y ",
"1 O @ ; : 0 0 0 w 4 2 @   + 6 6 5 e h e 0 0 w 0 3 5 0 i h u 8.F.S.G.&XiX$X- w e w - P +.e P 8 7 6 6 5 : > 6 e y 9 w y t ",
"z N N x x x l l i 3 y z N s.m.d.w.e.O.^ j x  .l a w.y 2 3 s u.F.i.W.gXgXH.7 a | o.w.M.Z.a.g.a.e.e.r.o.w.r.b.r.e 4 j l y ",
"pXpXOX{..XZ.C.Z.M.n.C.'.P.'.pXtXoX(.N.l.N.U.U./.'.P.m   v 8.p.F.i.9.$X&Xk.l.n.V.V.}.oX|.Z.Z._.oXtXoX`.XXtXtX`.*.k.oX].V.",
"tX_.I.I.n.l.l.n.l.n.J.A A A '.m.v.j.*.Q 2.m.s.J 0XJ J M s G.S.G.i.R.iXD.4.j.x.c.c.c.x.z.5.5.l.C.C.N.n.N.N.N.k.` k.oX_.l.",
"N.[ R ) ) ) [ [ &.} M A 0XmX6Xm z z s.7XeXBXBX6XqXmX7X6X  t.F.p.F.gX%X{ ;.=.&.=.<.<.=.` ` _ ` &.&.+.*.*.*.[ [ ! ( 4.;._ ",
"V.<.~ j p i 4 4 w D C 4XVXJX9X6XA 6XNXLXIXIXIXIXVXVXeXzXJ v G.W.&X%Xg.:.>.>.=.=.=.+..._ _ _ ` =.;.>.<.:.-.+._ ^ ( ,.5.] ",
"h.[ 1 E g X # o o C K zXJXLXFXqXK FXIXIXIXIXIXIXIXGXNXGXmX  D.&XuX@.%.&.` ` +.$.[ _ _ _ ` ` =.,.,.-.-.-.+.] _ ~ ( h.5.] ",
"j.T 1 ' t # & $ * M 4XAXPXIXBXJ 7XPXIXIXIXIXIXIXIXIXFXPXBXO  X@Xw.! +.` ` ` [ $.&.` +.=.=.=.=.g.h.>.:.=.O.[ [ _ O.k.5.{ ",
"k.4 f E * # $ $ * A qXNXJXJX*XJ 4XGXIXIXIXIXIXIXIXIXKXJX7XY W ^.6X8XP +.&.` &.=.&.&.=.=.-.-.>.h.h.>.-.+._ +.-._ O.l.h.O.",
"N.l 7 W j o o X % Q.4X0XIXwXC K 5XKXIXIXIXIXIXIXPXFXAXzXJ.!.lXBXPXPX8XY -.&.&.` [ *.;.;.-.-.;.<.5.;.-.+.] ;.:._ +.j.5.[ ",
"v.+.~ E h { ! I z A A FXPXK H *XQ.ZXIXIXIXIXIXFXmXAX*XK wXAXIXIXIXIXLX'.R -.*.[ *.+.;.;.-.=.-.:.<.;.;.-.=.;.5.=.,.v.h.[ ",
"N.;.[ ` ] *.=.&.{ m J NXwXb F J S qXPXGXBXeX9X=X0X6XM 7XVXJXJXPXIXIXIXVX*.*.*.*.-.<.h.,.:.-.*.:.:.<.:.<.,.h.h.[ O.g.h.[ ",
"N.,.[ *.*.[ ` =.;.a.A A A w.o.w.D A '.J.w.j x N F M F 6XzXFXPXIXIXIXIXLXm.R :.*.h.N.v.5.:.:.=.=.,.h.5.h.h.z.j.( ! ,.5.[ ",
"V.<.*.=.*.=.:.:.h.x.g.#.,.:.1.:.<.5.1.1.6.6.6.@.M A H F 7XNXBXZXFXDXPXGXk.%.,.5.N.Z.N.5.5.<.:.5.l.v.c.x.z.6.j.[ @.N.x.[ ",
"g.( ~ ( ( _ _ +.@.@..._ O.( ~ ( | | | | | ^ _ x H A A F b C H J 4X#XVXFX~ _ O.@.k.x.#.| ] +.+.,.j.g.@.X.+.;.#./ | k.@./ ",
"6 : : 5 0 7 w 0 5 5 5 3 3 2 ; : = + O O   @ e z H F K H A F G F C 4XPXzX- w e T ! p w : 5 p ) ~ T e 1 @ 5 h e 3 < 6 7 1 ",
"/.d.d.d.d.a.a.w.d.f.d.a.x j d.f.s.r.d.s.r.f.N z F F K G F H *XK Q.wXeXJ.e.r.f.m.@.w 9 w.f.m.b.k.a.@.X.d.f.e.( } a.f.f.o.",
"pXOXOXOXOXOX`.(.oXOX|._.5.#.{.OX.XoXoX[.`.s.& X M S K F H F K K Q.G B OXOXoXtXoXN.R f.OX+XOX|._.(.}.}.OX+XU.c.N._.oX.XC.",
").n.v.C.U.(.C.C.Z.v.c.l.^ / V.C.v.V.N.k.*   # & * A Q.F K J H J F B M.I.V.N.N.N.4.T b.oX(.v.v.v.c.N.B.V.V.c.x.j.c.l.c.g.",
"<.R %.:.j.x.h.5.:.:.;.[ e k N.l.*.5.*.f 4 * o # o b K K H 7X0XC } %.%.Q Q %.%.:.O.p @.v.1.%.*.*.=.%.%.$.$.&.;.:.-.%.&.` ",
"c.:.j.v.c.j.4.;.,.:.5.,.h X.Z.V.j.x.5.h E E 2.' k o.S K A qXmXJ.%.<.>.-.<.:.<.h.+.i @.N.5.4.4.4.<.:.-.<.:.:.4.5.:.4.5.[ ",
"N.j.c.l.5.;.+.+.=.=.<.,.a p ,.5.,.:.>.>.O.e E 3.' =.w.A A *X8X,.>.<.<.-.>.<.<.<.+.e r.B.5.4.<.;.<.-.<.-.-.<.:.-.:.5.5.+.",
"V.x.h.<.+.;.*.;.-.-.<.+.w w ] ;.[ +.] [ :.,.} W 3.+.>.O.e.e.&.-.-.>.-.:.-.-.-.-.[ ~ b.(.z.-.:.-.-.:.:.;.;.<.-.-.:.<.:.+.",
"N.5.:.:.;.;.*.;.:.>.<.;.i e g.g.[ ] ` =.*.<.4.+.4.{ -.;.=.-.-.;.-.:.:.:.-.-.-.<.=._ n.Z.<.-.-.:.:.:.<.<.<.:.>.;.-.:.-.+.",
"x.<.;.:.;.:.;.;.;.-.:.#.h | I.n.=.=.&.-.:.4.:.4.=.+.;.+.O.=.-.;.<.<.<.:.-.-.-.<.O.h ] 5.<.:.-.:.<.:.-.-.:.:.<.-.-.-.-.+.",
"x.:.-.:.=.:.-.:.:.-.<.,.h / V.n.:.:.-.=.:.<.<.-.-.>.-.=.` ` =.;.<.h.5.4.>.;.;.<.#.! O.j.<.:.:.:.:.>.-.<.:.:.:.:.:.-.>.=.",
"c.:.-.:.:.-.:.=.*.=.6.,.w e ,.<.%.;.=.*.*.=.-.;.>.=.` _ ` ` ` ` :.5.5.5.>.:.;.>.=.( 4.N.<.;.;.:.;.-.-.;.;.<.>.;.-.-.-.+.",
"x.:.=.;.*.*.*.=.*.=.h.,.w l l.h.*.[ [ [ ` [ +.=.=.[ _ _ [ =.=.=.=.=.;.;.;.;.;.;.+.p _ c.z.-.;.:.>.;.-.-.-.-.-.:.:.>.>.+.",
"v.<.:.;.:.:.;.:.:.<.z.<.e o.U.c.` +.+.+.+.=.+.+.[ [ O.=.=.-.;.;.;.;.;.O.] +.;.<.O.u ( v.z.<.5.5.<.>.>.<.<.<.<.<.<.<.<.+.",
"o./ / ( ( ^ k l a k } a 3 j r.| e p h ! h l h p p a i ! ^ ^ ^ } / ! p u u a ! } a 3 I r.| k k x j j a ^ I } ( ..| ^ } h ",
"; = < 7 5 1 O   . O O O . ; q , 9 q 9 - + O = : = = @ @ ; , 9 - , 9 : = = : > < ; : I P 9 = O .   . : , : 9 e w 2 ; ; O ",
"P.P.m.M.M.k.m.P.'.P.'./.P./.{.[.P.I.m.m.m.P.P.P.b.m.r.^ b.Y.m.P.).M.m.K.P./.M.m.k.P.].XX).M.P.'.'.'.8X[.P.).).~ 7 e.f.r.",
"pX+XoXoX}._.XXyXtXtXyXOX`.oXtXOX_._._._.oXOXyXOX]._.x.+.|.+X}..XoX_.(.`..XoXoX(._.XXoX+X.X|.oXyXyXyXyXtX_._.Z.! | XXyX(."
};
