/* XPM */
static char *result[] = {
/* columns rows colors chars-per-pixel */
"60 60 254 2 ",
"   c #251B0E",
".  c #331003",
"X  c #4E1004",
"o  c #4A1B05",
"O  c #78180B",
"+  c #52270F",
"@  c #592916",
"#  c #66270A",
"$  c #722D06",
"%  c #662C15",
"&  c #742D18",
"*  c #68341B",
"=  c #77381C",
"-  c #6C0E2B",
";  c #5D3526",
":  c #56372F",
">  c #683828",
",  c #743C25",
"<  c #6C3933",
"1  c #5C4337",
"2  c #784328",
"3  c #76542D",
"4  c #684738",
"5  c #7A4634",
"6  c #27396D",
"7  c #773B51",
"8  c #334E71",
"9  c #554A54",
"0  c #715248",
"q  c #785548",
"w  c #716154",
"e  c #4E4D72",
"r  c #6D576A",
"t  c #776A6B",
"y  c #85150A",
"u  c #8F2A11",
"i  c #87381C",
"p  c #97341E",
"a  c #A33D07",
"s  c #893825",
"d  c #953722",
"f  c #9D3C25",
"g  c #A13E29",
"h  c #8C4B15",
"j  c #98461C",
"k  c #9A5717",
"l  c #A95305",
"z  c #AB5013",
"x  c #9A6619",
"c  c #A56803",
"v  c #AF710B",
"b  c #B6791B",
"n  c #844325",
"m  c #844629",
"M  c #884729",
"N  c #8C4B2C",
"B  c #974726",
"V  c #934D2C",
"C  c #9B4D2B",
"Z  c #8A552C",
"A  c #985826",
"S  c #95512D",
"D  c #9C522E",
"F  c #884B35",
"G  c #984C31",
"H  c #8B5837",
"J  c #955331",
"K  c #9C5432",
"L  c #945B33",
"P  c #9C5B34",
"I  c #97583A",
"U  c #9C5B3B",
"Y  c #A3442A",
"T  c #A64928",
"R  c #A54A2C",
"E  c #A2532E",
"W  c #AA5629",
"Q  c #A35A2D",
"!  c #B5592B",
"~  c #A54B32",
"^  c #A45632",
"/  c #AA5634",
"(  c #A55934",
")  c #A95A36",
"_  c #A55639",
"`  c #A55C3A",
"'  c #AA5D3A",
"]  c #B25832",
"[  c #9A652A",
"{  c #946A2A",
"}  c #8B6737",
"|  c #996737",
" . c #9C7437",
".. c #A66827",
"X. c #A46C2B",
"o. c #B8662B",
"O. c #A6742E",
"+. c #AD7728",
"@. c #AC742B",
"#. c #B67A25",
"$. c #B67D2B",
"%. c #B87E2A",
"&. c #A76635",
"*. c #A5623C",
"=. c #AB613C",
"-. c #B56637",
";. c #A37433",
":. c #AB7936",
">. c #B57934",
",. c #C3621B",
"<. c #C36A2D",
"1. c #CE7024",
"2. c #C66C33",
"3. c #CB7633",
"4. c #D37A32",
"5. c #803E40",
"6. c #844B4D",
"7. c #895648",
"8. c #9A5E43",
"9. c #A55D40",
"0. c #9E6245",
"q. c #9A6948",
"w. c #9B7749",
"e. c #977059",
"r. c #A26345",
"t. c #AC6543",
"y. c #AD6945",
"u. c #A56549",
"i. c #A46B4A",
"p. c #AD6A4B",
"a. c #B06643",
"s. c #B16A45",
"d. c #B86F47",
"f. c #B26D4B",
"g. c #A77846",
"h. c #B57749",
"j. c #B4714E",
"k. c #A66D55",
"l. c #B06852",
"z. c #A87657",
"x. c #B47353",
"c. c #B77753",
"v. c #B47659",
"b. c #B47A5C",
"n. c #B97B5C",
"m. c #8D736F",
"M. c #A87A63",
"N. c #B77E63",
"B. c #BB8507",
"V. c #9C8538",
"C. c #BA822B",
"Z. c #BB8729",
"A. c #B78633",
"S. c #B68F33",
"D. c #C69406",
"F. c #E09300",
"G. c #D1A718",
"H. c #C6922B",
"J. c #C78A34",
"K. c #D98738",
"L. c #C49838",
"P. c #E38F34",
"I. c #E6983C",
"U. c #CCA53A",
"Y. c #D3AA3E",
"T. c #EFA63B",
"R. c #E3C43A",
"E. c #93845A",
"W. c #B88647",
"Q. c #BA9946",
"!. c #AD8C55",
"~. c #BA8358",
"^. c #BAA85B",
"/. c #AE8E67",
"(. c #B98469",
"). c #BA8875",
"_. c #BC8B74",
"`. c #BC9379",
"'. c #CA914F",
"]. c #E49841",
"[. c #C9A748",
"{. c #D2AC44",
"}. c #D8B545",
"|. c #C8A957",
" X c #CDB655",
".X c #D8BA57",
"XX c #EDA743",
"oX c #F1A743",
"OX c #F1AD45",
"+X c #E1BE48",
"@X c #F3B047",
"#X c #F5B448",
"$X c #C18869",
"%X c #C38D73",
"&X c #C79477",
"*X c #CB9570",
"=X c #C3937B",
"-X c #CDAF6C",
";X c #DEC149",
":X c #DCC258",
">X c #E3C857",
",X c #E7CC54",
"<X c #D7C866",
"1X c #DCC57E",
"2X c #E9D769",
"3X c #E5CF75",
"4X c #E9D975",
"5X c #F2E46D",
"6X c #EAE47A",
"7X c #F6EC77",
"8X c #FAF37B",
"9X c #0E4C87",
"0X c #2D5691",
"qX c #0059A6",
"wX c #1D5FAA",
"eX c #0D67B1",
"rX c #2F67AA",
"tX c #4C5588",
"yX c #556A96",
"uX c #72708E",
"iX c #5473A6",
"pX c #2C77C4",
"aX c #7191B1",
"sX c #1594D6",
"dX c #378DCF",
"fX c #33A9EB",
"gX c #5C9BCD",
"hX c #47A6EA",
"jX c #95868C",
"kX c #BD9686",
"lX c #BAA9A4",
"zX c #C59B86",
"xX c #D1AA8F",
"cX c #E0B08D",
"vX c #E8BB97",
"bX c #C3ABA5",
"nX c #CBAEA6",
"mX c #CBB0A7",
"MX c #CDB1A9",
"NX c #D2B3AA",
"BX c #DBCE86",
"VX c #EAD190",
"CX c #F4E886",
"ZX c #F9F483",
"AX c #FFFC84",
"SX c #FFFF8A",
"DX c #F8EF96",
"FX c #F5CBA8",
"GX c #F8D2AD",
"HX c #F6EDA7",
"JX c #FDFAA3",
"KX c #FFFEAB",
"LX c #FEFCB9",
"PX c #FFFFC7",
/* pixels */
"_.x.*.=.t.` ( ` ` t.t.y.t.t.p.f.p.t.y.t.t.t.9.' t.f.I F v.n.y.y.9.` U P _ ( ` t.x.v.d.t.f.p.p.t.p.p.r.` ` t._ j N.=Xp.i.",
"x.*.E D S C E ( ^ E R E ) *.p.p.t.' K R ^ ^ ^ ^ ^ ^ M = *.f.^ ^ P K V K ^ E E D Q / ) ) ^ E ^ ^ ^ R V C D E C N u.j.C 0.",
"x.t./ ( ^ D ^ ) ) ) / ` ' p.j.d.t.t.=.' ) ) ) ) / ) G s x.n.9.G u s C C C C C ~ ' a.=.=.) ) ) ) ` P K C ( / D n V ' ( 0.",
"N.f.W ^ C D ^ Q Q ( ^ ( t.p.p.=.=.*.t.=.) ( ) / ( ( M ^.b.f.j ;.^.<X2X6X6X6X2XQ.g.&.) &.' ' ) ) ^ D C ^ Q ( K n J y.P 0.",
"$Xx.W Q ^ D Q ( E D ( ) t.d.=.&.=.' =.=.( / / Q ) s <X2XI W.BXPXJX8XJXPXZX>X[.V. .y.' ' ' ' ) K D D D E Q / ( N U p.( 0.",
"N.f.^ ( E ( Q D ^ D Q ) =.=.=.' =.) / ( / ( ) ( B <XSXQ.H CXLXVX,XZXVX X@.[ J ( =.a.a./ ) ) ) K D D ^ Q ^ / D n S s.( 0.",
"x.a.( ( Q E ^ D ^ E Q / ' a.=.) ( ' / ) ( ( ' Y .XLXCXx  .2X}.D.2X;Xv [ | I V f ~ =.=.' ) / ( S S D Q / Q / K , n =.( 0.",
"v.s.^ ( ( P Q ( Q ( Q ' t.a.=.) ) &.' ) ' =.R A.JXPX}.[ ;.O.C.{.;XZ.O.} { W.<X-XQ.t.G g / ` S S S ^ ' W / Q E n 8.x.` 0.",
"n.f./ / ^ P E Q ^ / ( ' s.a.' ) _ ) / ) ` =.d :XKXHXD.@.+.;.C.Y.Z.@.X.C..XAXAXAXSX6X3XQ.P & s s f C / Q Q / D M r.x.( 8.",
"N.x./ ' ) ) ( Q ( Q Q =.s.=.=.' ' ) ) ' ' ` K ;XJXVXv @.'. X+.L.$...L.}.,X7X>X2X8XAXAXAX6X^.W.g.W.g.&.E Q / K = S s.( r.",
"(.j.) =.` ' ` ` ( / ) ' t.t.=.' ' =.' ' =.) P L.JXDXB...<X8XA.$.#.A.Y.U.>X7XA.H.Z.{.5XZXSXSX8X4X:XQ.g.( ' ' K s U j.P r.",
"N m = = = * , % & i n M 2 > 2 2 , , = m s { } x 2XAXY.O.6XAX<X..%.%.H.v 4XDX+.@.U.2X5X5X,X.XU.S.x * & = i , * + , M % 5 ",
"F F @ @ > * ; > 2 5 F 2 * . o o + > 4 3 - V.<X3 b 2X,XW.ZXAXAX X+.%.@.H.JXHXv >.+X:XH.+.k { H 5 4 4 5 5 2 , ; ; < , ; 5 ",
"xX).k.M.N./.(._.kXkX).(.U = q.z.M.(./. .w.w.2X6X| Z.U.Q.ZX8X8XZXS...@.}.KXVXc >.>.k k X. .E.!./.(.).).`.(.b.N._.zX_.N.).",
"zX(.n.$X_.%X%X%X=X%X&X%X9.M _.&X$X%XM.+.A.q.[.AX5X@.k [.AX7X3XLX:X[ ..2XLX.Xc X.c [.2X5X>X[.L.:XBX1X`.).%X(.$X=X%X%X(._.",
"=.^ _ ` 9.9.` ` ) ) ' *.2 2 v.b.t.a.| O.Z.[ A.8XAX:X..S.JXJXR.LXZXB.k 3XLXA...L.CXKXCX{.@.O.$.L.;X7X7X XG ` ` ' _ U D r.",
"a.) E Q ^ W E E E E ^ ^ = , x.b.' ' *.O.Z.@.v 4XKX5XA.B.DXLXG.CX7XH.Q  X4X..Z.ZXPX3Xv ..O.Z.#.#.#.%.>XAX XY Q E E W B 9.",
"x.=./ ' =.' ' _ ) ) _ P , 2 b.n.' ' *. .#.$.A {.PXDXG.#.}.KX.X,X2X{.+.S.}.+. XCX:Xv @.+.C.$.%.%.$.$.b }.8X!.G ' ) ' E u.",
"j.' ) =.=.' ) ( _ / ( P 2 m x.f._ | ' | +.C.O.v DXKX}.#.C.4X>X{.}.2X.XX.:.L.<X[.b >.X.%.#.$.%.+.@.;.;...L.|._ ( ) ( A r.",
"x.' =.a.=.=.` ( / ` ) ) B F x.f./ }  .|  .$.$...{.JX5XH.&.2X>XC.b 5XZXA.k >X3Xk C.[ [ ..$.%.$.+.} I C } { A.:./ ( ( C 0.",
"x.t.s.s.=.( K D K ( ) ( N M p.p.) | @.O.} } +.O.@.L..X}.x <X8XJ.v 2XJX.Xb 8X:XA ;.$.X.O.%.%.C.%.$.{ K ^ D | | ^ D G ;.!.",
"n.d.f.t.) K V D K ( / ` M = ) =.` t. .%.C.O.[ X.....#.J.@.L.AX<Xk .XPXBXZ.JX.Xk C.O.@.C.%.%.$.$.%.+. .| &.^ ( P ;.[.U.w.",
"n.x.a.) ( S D E ( ` t.t.m * _ =.K ' | O.%.C.$.X.{ | :.@.@.x 2XKX XU.LX1X^.LXS.X.%.X.$.$.$.%.$.%.$.%.%.Z.L.{.}.}.;X;XS.q.",
"N.f.' ) K D E ( ( t.j.f.m , u.t.D ( / L ;.+.C.X.O.S.L.{.L.[ H.CX2XC.BX|.-XCXc @.$.X.$.$.%.$.%.$.%.$.%.$.Z.L.Y.;XY.S.{ 7.",
"n.s.) _ ^ E ' ' =.f.x.a.M , p.j.' =.' Q | | O.+.@.@.%.H.Y.Q.$.G.6XCXS.V.|.U...A.X.$.C.+.C.$.$.$.%.$.%.$.$.#.#.A.C.O.Z 0.",
"f.U J J F D P P ` u.r.U , * 8.i.r.` ( P V J H } L L { +.@.K.| *.BX1XxXvX*X..@.$.x v C.C.$.$.C.$.$.%.%.C.%.$.$.%.C.{ V 0.",
"@ . . o o # % % * * @     . O O # $ = , * 2 { O.+.+.[ X.3.'.7 |. XxXGXGXcX| A m.gXaXB.#.b X.@.C.C.$.$.C.C.C.%.$.3 * # : ",
"0 q 0 4 q 5 2 5 2 * ; 4 : 0 e.q.7.0.L 2 3 { O.;. .q.;.I.I.I.J.'./.cX$X/.!.h 0 eXfXsXm.J.W.$.X...+.$.#.b b #.;.3 > 3 2 q ",
"zXxXzX=X%XN.b.N.v.f.N._.`.zXxXzX=X(.x.i.w.w.!.M.).`.W.OXXXXXT.F.'.FXcX%X*.j } wXiXjXlX'.(.h.W.'.g.A w.V.E./.z.A M.=X(.(.",
"=X_.v.n.f.y.p.p.p.p.k.b.N.N.b.x.f.u.P *.t.f.l.v.N.(.].OX@XT.'.jXm.~.xXk.j L [ w 7.A.b.0.[ i.0.g.'.$. .w.g.z.q.A v.%Xv.v.",
"v.=.j B B N C C C R C B B B j N B V E Q E E ` t.| J.T.I.P.kXsXfXfXyXI J f L / U 8.q.P | ~.c.J k >.C.#.#.b X.} n C =.D 8.",
"x.y.V S S C K R E E E ^ E D S D D ( / / Q ' s.p.W.].4.o.k.sXhXhXdXyXr 7.s P Q Q } j.L | i.L Z | $.%.$.O. .{ N 2 J t.Q 0.",
"y.U V V C D E D D E E ^ ^ ( ^ K ^ / ) Q / =.s.r.>.K.2.a 7 dXdXiX`.vXM.- Z E U w W.~.~.E.{ } } |  .| | | J C V m J a.^ 0.",
"t.` V D D D E ~ G E D ( ' ' ) Q Q / ) ` =.=.t.` D j 4.! u wXwXJ vXFXcX9.h H 6 qXuXz.$X&X*X$X_.| 9.` ' ^ V K C V U f.^ 0.",
"v.t.C R D ~ E ^ E ^ K ( ( ( ^ ^ ' ' ' =.=.=.=.' ` n 1.2.T r 6 x.FXFXFXvXz.m.zXuXqXm.c.c.y.$Xg.*.=.( ( K S K ^ V U j.( 0.",
"v.r.C K E E D C E ~ ^ ( ( ) ) ' =.y.=.=.*.=.=.' ! 7.7 z ,.T s _ &XFXFXFXvXFXGXzX9Xw h.y.} q.[ *.' _ ^ K D ) ( N U p.( 0.",
"x.*.C E R E R K E P ( ' ` =.=.=.y.t.=.` =.a.) _ A e qXtX6.6.y i S ~.&XFXGXGXFX!.q P P | P Q / =.) ) _ ) ^ ' ' ^ y.j.^ r.",
"v.t.C K C ^ ^ C E ( =.=.=.` ) ` ' =.' ' t.=.=.| A 6.qXeXeXwX0X6 6 5 i.*XvXvX~.3 | t.y.=./ / Q Q ) ) ' ' =.t.t.V I y.( r.",
"x.y.C ^ E ^ D ^ ) =.a.=.' Q W ( ' =.' =.' ' U S 2.P.=.7 tXe tXe 7 u y C y.*.p R -.| I L ( ) / ) ' t.a.a.t.a.=.n M t.Q r.",
"v.t.^ / ^ ^ ( ) t.p.a.=.' ) ) =.=.s.=.=.' *.;.K.XXXXP.l l a u l j f / / R W -.].oX].J.W N *.' =.d.x.f.a.=.a.=.V u.n.' r.",
"I F = n M M M V F M M n n 5 2 = 2 , , Z | K.XXOXoXoXK.! ~ g p ~ ] Y ] ] ] ] 4.#X@X@X@XOX3.n P P U I F 2 A P J , F U s 7.",
"i % + @ % & * * % * > @ @ + + > : + [ o.I.@XOXOXOX@XI.4.] d f ~ ~ Y ] ] ] / -.].OXOXOX#XI.Y Z N n & o + * 2 * @ % $ + 4 ",
"kX/.z.M.z.z.k.q.k.M.M.k.8.2 e.e.g.'.K.K.@XOXOXOXOXT.4.2.] Y d f g T Y R ] ] 3.].@X@XOXOXK.! S k.i.i.q.M.z.9.I 8.z./.k.z.",
"xXzX&X=X=XzX%X(.&X&X$X$Xu.L ~.=.I.OX].OX@XOXOXXXK.2.2.T g d y u f g g g g g W 2.2.2.3.o.! W j z.(.$X%X=X%Xn.f.n.(.%X(.N.",
"v.t.9.p.x.n.x.x.x.p.t.r.H C.o.4.OXoXoX@XOXoXP.3.] / ~ g B i = N B A B n M i y u T <.3.T R T ! *.y.t.p.y.t.t.=.t.t.=.` i.",
"u.R R ) y.s.y.' ) ( &.B K.I.3.P.#X#X@XoXP.4.! Y T R S D P J P ^ E Q A W Q Q S C g T T Y ~ ] o.j ( ^ E T E Q ' ` ^ / E r.",
"v.t.t.x.j.t.` ( P A.K.K.oXP.4.P.I.I.P.3.2.~ C n Z ` ) ) _ ) ) ) ' ) ) ) ) ' S p T f f ] ] ] p M *.) ' ' ' ) &.' =.=.( u.",
"c.f.s.y.` ^ ^ ( H 3.oXI.].I.o.2.2.] ] g g d L =.) / _ ) ( ( ) / _ / / ( / P s g ] W R ] ! ~ T C ( / _ / ) ) / ) ) =.( u.",
"n.p.t.' ) K ( ( G Y K.K.XXoX4.~ G R R g B S &.' ( _ ) ( ( _ ( _ _ / ) ( ) S R / g ] 3.] 3.4.W f K _ ) ) ) ) ) ( ) ' / u.",
"v.t.) ) ( ( ( W n u <.K.P.K.].4.T g i N P ' ' ( / / _ ) ^ ^ ) ) ) ) ) ) ) V p g g 3.4.~ g 2.! d P ) ) ' ' ( ) / ) _ E y.",
"c.' / / ' 9.l t tXy g P.4.R Y ! ! i S ) ) ' =.( / ` ) P D K ^ ) ' ' =.' ) ( N R T ,.! W u O B L ` ) ( ) ' ' / _ ) ) R u.",
"x.' _ ) 9.l E.fXdX- y 3.].4.! g f D ' Q ( ) ) ) / ( ^ D C G C ) =.t.=.=.) / ' Z 5.6.6.7 7 S _ ` ) / / ` / ` / ) / ) ^ u.",
"v.' / ) T { aXgXyX0Xe - p ! ! R M ( ^ K D ^ ^ ) ( ^ C V C D C K ( ' =.' ) ( _ Q tXeXeXqX9 ` _ ( ( / / / ( ( / ( ( ) E u.",
"c.=.) l i.gXuXy rXeXwXr n s f I P E D D D D K K K G G G ^ ^ ^ ^ ^ ^ ( ^ ^ ( / x yXwXrXrX9 W ' ` _ ) ) _ ) ) ) ' ) ' E y.",
"x.*.) e.gXaXaX0X8 e e.' 2 3 q.i.C J G P K K K G B G G D ^ P ( ^ P K G N N K P ( 0 8 e e e t { U U K ~ U U U ` ) ( *.P t.",
"2 ; $ iXjXgXhXpXwX8 + @ . o s i # # # # @ + @ % @ + @ % % % % % & & % + o + & $ 9 rXrXrX0X0X9 o + o # # # $ i 2 > > # : ",
"> < 4 5 yXpXwX0Xr 9 : 4 : 4 7.7.F F 5 < ; : 4 2 < > ; + > F 5 5 F 5 , < 4 5 5 , 1 9XqXeXwX0X8 1 1 9 F 6.5 7.H # o % @ 1 ",
"zXzX%X`./.k.E.`.kXzXzXzX`.kXxXzX%X_._._.`.kX=X=X)._.k.U ).=X).`.`.).).).`.zX%X).(.M.t t tX0Xt xXkXbXxXzX_.zXN.m 7.`.).(.",
"%Xn.a.c.d.-.h.n.N.n.b.h.-.-.h.a.W W o.&.y.c.c.j.=.] a y h.h.W -.-...o.=.-.y.=.-.=.d.s.O.l l &.c.x.v.j.t.k z u X h $Xx.j.",
"NXNXnXmXMXnXMXMXMXMXnXnXnXnXnXnXmXnXnXnXmXmXMXmXnXnXbXlXNXNXnXnXnXnXmXmXmXmXmXnXNXnXMXNXNXNXNXnXmXnXbXbXlXlXlXlXbXNXNXMX"
};
