/* XPM */
static char *result[] = {
/* columns rows colors chars-per-pixel */
"60 60 256 2 ",
"   c #0F0606",
".  c #2F0C06",
"X  c #371508",
"o  c #470B04",
"O  c #540A02",
"+  c #4A1407",
"@  c #56180D",
"#  c #6B1308",
"$  c #572308",
"%  c #4D2E1C",
"&  c #582B17",
"*  c #652907",
"=  c #77280C",
"-  c #783708",
";  c #672813",
":  c #69351B",
">  c #773818",
",  c #6A3A24",
"<  c #753B25",
"1  c #7C3E23",
"2  c #652630",
"3  c #782838",
"4  c #744B1B",
"5  c #7D4125",
"6  c #7A4629",
"7  c #774B32",
"8  c #69583B",
"9  c #3A366C",
"0  c #5D3751",
"q  c #583C6D",
"w  c #54464A",
"e  c #774E46",
"r  c #4C4F73",
"t  c #664665",
"y  c #67636A",
"u  c #776E72",
"i  c #861102",
"p  c #8B290E",
"a  c #983B01",
"s  c #932B18",
"d  c #87371B",
"f  c #99371C",
"g  c #A03F00",
"h  c #893925",
"j  c #8C342F",
"k  c #973825",
"l  c #9B3C24",
"z  c #A33D28",
"x  c #9A4300",
"c  c #9D4A00",
"v  c #8D4F13",
"b  c #9B4818",
"n  c #9B5819",
"m  c #A34702",
"M  c #AD510E",
"N  c #9A6617",
"B  c #A46618",
"V  c #AE7111",
"C  c #884727",
"Z  c #844529",
"A  c #8C4B2A",
"S  c #994626",
"D  c #944D2C",
"F  c #9B4E2D",
"G  c #8A552C",
"H  c #95512D",
"J  c #9C512E",
"K  c #995A29",
"L  c #864C33",
"P  c #9A4732",
"I  c #885438",
"U  c #935433",
"Y  c #9D5432",
"T  c #9C5B34",
"R  c #985939",
"E  c #A64725",
"W  c #A3452A",
"Q  c #A44B2C",
"!  c #AA4D2C",
"~  c #B04E29",
"^  c #A1532E",
"/  c #A8562B",
"(  c #B65A2A",
")  c #A64B33",
"_  c #A35632",
"`  c #AB5533",
"'  c #A55934",
"]  c #A85A36",
"[  c #A5553A",
"{  c #A45B3A",
"}  c #A95D39",
"|  c #B35833",
" . c #9B6427",
".. c #956C2F",
"X. c #896738",
"o. c #966837",
"O. c #9D633B",
"+. c #997335",
"@. c #A76B26",
"#. c #A46D2C",
"$. c #BB642B",
"%. c #AA752A",
"&. c #AB742C",
"*. c #B67B24",
"=. c #B57D2A",
"-. c #B87F2A",
";. c #A56539",
":. c #AB613C",
">. c #BC6232",
",. c #B96D33",
"<. c #A77634",
"1. c #B87536",
"2. c #C15C00",
"3. c #C56A2C",
"4. c #CB772C",
"5. c #C46C33",
"6. c #CD7533",
"7. c #D47B33",
"8. c #8D3C45",
"9. c #8E4949",
"0. c #875945",
"q. c #995D44",
"w. c #A65E41",
"e. c #9A6448",
"r. c #997A4A",
"t. c #926B55",
"y. c #986956",
"u. c #A56646",
"i. c #AC6442",
"p. c #AD6946",
"a. c #AC6B4B",
"s. c #B16845",
"d. c #B16C4C",
"f. c #A9764A",
"g. c #B3744D",
"h. c #AA6E53",
"j. c #B36E51",
"k. c #AC7354",
"l. c #A7755A",
"z. c #B47354",
"x. c #B57B55",
"c. c #B47659",
"v. c #B57A5C",
"b. c #B97B5D",
"n. c #8C6E69",
"m. c #887D79",
"M. c #A77A66",
"N. c #AB7A64",
"B. c #B67B63",
"V. c #BA7E61",
"C. c #BD8608",
"Z. c #B88325",
"A. c #BA812B",
"S. c #B68736",
"D. c #B18A39",
"F. c #D2971F",
"G. c #D28E3A",
"H. c #DA8939",
"J. c #C69938",
"K. c #E48934",
"L. c #E7983C",
"P. c #CEA33A",
"I. c #D4AA34",
"U. c #B89747",
"Y. c #AF8852",
"T. c #AB9552",
"R. c #B89954",
"E. c #99837E",
"W. c #AF876F",
"Q. c #BC8265",
"!. c #B48668",
"~. c #BC8469",
"^. c #BE896D",
"/. c #AC8779",
"(. c #BA8A74",
"). c #C5974B",
"_. c #E69D40",
"`. c #D2AB44",
"'. c #D2B14E",
"]. c #D9B748",
"[. c #C5AB56",
"{. c #C9B459",
"}. c #ECA441",
"|. c #EEAB45",
" X c #F1AE46",
".X c #E0BF4F",
"XX c #F3B147",
"oX c #F5B348",
"OX c #C2896C",
"+X c #CC956D",
"@X c #C18D73",
"#X c #C69577",
"$X c #C5937B",
"%X c #D0AB71",
"&X c #DAC35A",
"*X c #E9D04E",
"=X c #E4CA58",
"-X c #D7C868",
";X c #D7CA72",
":X c #E3CB6A",
">X c #E9D767",
",X c #E6DC75",
"<X c #F4E56A",
"1X c #ECE475",
"2X c #F4E877",
"3X c #FBF47C",
"4X c #054F92",
"5X c #345790",
"6X c #0059A7",
"7X c #1068B2",
"8X c #2966AE",
"9X c #3562A0",
"0X c #43518A",
"qX c #4A658C",
"wX c #70738C",
"eX c #337CC2",
"rX c #8F7A83",
"tX c #2F83BD",
"yX c #5F94B5",
"uX c #738DAC",
"iX c #219CDF",
"pX c #4C92CF",
"aX c #5EA4D2",
"sX c #6CB4D6",
"dX c #71D0EB",
"fX c #99989C",
"gX c #AD8B82",
"hX c #B28C81",
"jX c #BA9587",
"kX c #AB9997",
"lX c #B6B3B2",
"zX c #C79A85",
"xX c #CA9B84",
"cX c #CBA48A",
"vX c #D7A886",
"bX c #CAA292",
"nX c #D5AE93",
"mX c #E2B686",
"MX c #E6B995",
"NX c #D3B8A8",
"BX c #D9CE85",
"VX c #EDCB94",
"CX c #FDFC86",
"ZX c #F3EC93",
"AX c #F5CBA7",
"SX c #F7D0AC",
"DX c #F3E5AD",
"FX c #FDF9A7",
"GX c #FEFCB7",
"HX c #A5AEC6",
"JX c #8EE9FB",
"KX c #ACE3EF",
"LX c #EBDCD4",
"PX c #FFFFCB",
"IX c #CDF7FA",
"UX c #F1EFED",
/* pixels */
"bXxXQ.Q.Q.Q.z.j.v.~.@X(.(.V.V.~.~.!.(.@X^.^.~.Q.^.$XQ.h.zXxX@X@XQ.b.c.a.p.d.z.OXxXbX$XOX@X$X$X^.@XzX@Xz.V.@XB.^ (.nX(.bX",
"Q.z.^ ' _ K ^ ^ ^ / ^ / _ ] :.p.i.] _ _ _ _ _ ^ ^ ] J > q.d.} ] Y F D J J ^ K _ } :.} ] ] { ` ] ] ] Y D J _ H f v.OXx /.",
"z.p._ _ J J Y ` ] ] / ] } :.d.g.d.i.} ' ' ` ] ] ] ] U 1 q.z.} ' Y A J J _ K _ _ [ >.:.] ] ' ] ` ' ' F F _ _ K C q.d.x gX",
"k.j.] _ _ J _ _ _ _ ] ] } s.z.p.i.i.i.} } ] ] ] _ ] J C k.Q.:.k D +.Y ^ _ ;.^ _ f.] :.;.] } { ] ' Y Y J _ ' Y h D i.x hX",
"OXb./ ' _ ^ _ _ _ _ _ ] :.d.s.:.} :.:.:.} ] ] / _ ` D h a.d.j R.{.+.T _ _ S s -X{.) :.} } :.] _ _ J J J ' / T C U j.x gX",
"^.b.} / ^ J _ T _ ^ K _ :.s.:.;.;.] } } _ ] } _ ] ` C 1 P R.,XCX[.G ^ S J R.,X3XU.w.i.} ] } ] T J J J _ / ] ^ A R j.c hX",
"b.j.] _ ' _ ^ ^ K ^ ^ ] } :.:.:.] ] ] ] ] ] ` _ / ;.+.# [.CX3X`.v h ;.R.-XCXCX&XU p.i.} ] _ ] Y H J ^ _ / ] Y Z C s.x hX",
"z.d.} _ K ' K _ _ ^ ' ] } s.:.} ] ;.] ] ` ] ] ] z [.T.r.2X.XC.Z.{.&X&X*X<X2X=X..P z z W ` } ' H J J / ] _ ] Y > A d.m /.",
"b.z.] ] _ T ^ T / ' ' ;.i.s.:.] ` } ] } } } ] ^ S >XU.U.*X*X;XZXCX2X).I.&XJ.B U.{.{.%XU.;.k d D H Y _ ] / ] ^ C u.V.m gX",
"x.z.] ] ] ^ _ _ ^ / ' / i.i.} } [ ' ` ] ' ] } b ;X2Xn [.ZXGXFXFX<X@.@.Z.C.V S.P.=X=X3XCX3X-Xr.h S _ / ' _ ] F 5 T j.x /.",
"Q.b.:.:.:.} } ] ] ] ] ;.i.s.:.} } :.} } } :.S [.GX[.B >XVX:X<X<X=.+..XZXZXZXCX,X&X).Z.J.'.=X>X{.D.} ] _ ] ] F 1 U a.m hX",
"z.k._ _ Y T Y Y J Y ^ _ ;.{ ' T T { Y { ' R...ZXDXV <.-.F.*X=XA. .`.=XFXPXPXGXFX3X3X=XA.@.V Z.D.'.U.o.J F _ D 1 q.h.x gX",
"p - & $ @ $ $ o O # - d : % % & @ O & O +.{.D.CX[.c @.J.].P.*.#.&.J.=X>X<X,X-X[.S.S.D.S.=.%.<.G 5 4 & - - : $ . @ > o m.",
"M.y.L 7 e I 0.0.t.y.y.q.L & & 6 7 0.q.r.ZX).P.*XC.%X<X<XJ.%.%.%.I.=X=XS.-.V c N *.@.%. .@.K X.D.T.t.0.0.q.R 9.0.t.t.< kX",
"NXxXV.~.@X$X@X$XcXcX$X$Xj.d h.(.^.@X(.VXZXn S.;XGXFX=XS.&.Z.Z.P.J.#.h G K #.=.A.A.@.#.%.J.'.>X3XCXCX,XBX(.N.@XzXzXzXB.bX",
"OXz.a.c.b.B.V.B.v.B.V.Q.e.- N.@XB.V.r.,X&Xn ,XPXZXF.b n V N #.D.@.#.S.S.S.D.1.<.B *.J.P.=X*X=X=X-X<X3XCXCX;Xl.V.B.c.s.zX",
":./ ^ / K / E ^ ^ Q ^ ^ C & u.b.} ) D [.`.P.3X,XC.n @.{.BX,X>X.XU.D.S.I.].=X<X1X-X[.I.].J.J.*.*.*.Z.J.`.>X3X[.a / Y a hX",
"d.:.' _ ` :._ [ _ ' ] ' Z : h.V.a.-X[.D.Z.].>X=.H `.FXPXFX3XI.S.@.*.V V *.A.J.'.>X2X[.@.#.#.@.*.-.-.*.%.V J.:Xf.) } a hX",
"x.:.] } :.:.} ' ] ] { ' Z : k.c.Y.&X+.r.MXmXY.;.&XCXGX>XI.C.n.zXvXMXvX^.Y.*.*.B V P..XY.&.%.&.#.#.#.#. .G G D.U.) :.a hX",
"c.i.} :.:.} } ' ` ] ` ' D Z h.j.#.D.H vXSXmXc.'.<X&XC.V @.qXiXNXSXMXSXSXmXg. .&.&.@.@.S.#.-.A.A.=.%.J.>X,XR.G <.[ { a gX",
"z.s.:.s.i.} ] ' _ ' ] { D C a.j.' ..f.cXcXW.g.Y.;.N <.#...n.n.t.!.nXAXMXAXnXO.*.&.1.#.#. .%.=.=.-.-.-.&X3XCXR.k ' { a hX",
"b.d.s.s.:.' H H J _ ] ] D 1 { s.{ ;.Y.cXcX#XQ.u.O.U &.=.=.V N w N.MX%XAXSXMX;.*.A.A.A.A.%.%.A.=.-.-.-.V J.=X3X[.S ;.x hX",
"b.z.d.:.} Y H H Y ' ] :.U : D } { / f.LXNX+Xf.;.O.f.] T _ } P # +.n.zXSXMX+X .-.-.=.=.-.A.A.=. .<.=.-.A.A.*.I.=X;.[ x hX",
"Q.x.s.:.' J J _ _ } p.d.U : U p.J n Y.MX%Xe.e.Y.a.g.R z 5.2.8.uXsXdXlXwXrX;.V -.=.-.-.=.=.#.=.=.&.#.#.#.#.&.@.J.U.[ x gX",
"Q.d.:.] _ J ^ ] ] i.d.d.R : w.j.n yXiXwXG.$.q.x.Y.x.Q.u.M +XdXKXIXUXUXNXr.Y.G.%.=.=.-.=.-.%.#.A.-.-.=.&.=.&.X.<.S.R a gX",
"b.d.] _ Y Y ] } i.a.d.d.U ; q.,.uXaXHXuXe.7.F { x.~.^./.t dXIXUXUXUXIXdX%X$X#.-.-.-.=.-.-.-.&.%.-.=.A.-.-.-.+.o.+.} a hX",
"q.L 6 , < 5 A L A U L 7 , % > y.tXkXAXAXQ.M ( h.vXvXcXfXuXJXUXUXUXUXJXuX+X(.N A.=.-.-.=.-.-.&.#.-.-.-.A.=.A.=.I C U * gX",
"O     . o @ $ $ $ $ .       # e 5X+XAXSXVXs.M n.bXlXpXtXkXJXUXUXUXIXdXc { u.@.=.-.=.=.-.-.-.=.&.#.#.&.*.=.Z.S.4 o : . m.",
"M././.M.M.l.e.e.e.q.I y.M.M.(.zXm.nXDXSXnXvXvXMXMXNXiXiXgXHXJXIXJXdXE.N ;.&.=.#.=.A.=.=.-.=.-.-.=.#.X.r.<.Z.A.G 0.N.U hX",
"zXnXzX@X^.Q.b.Q.x.c.V.@X$X$XcXxXR.%XAXSXAXSXSXSXAXnXpXiXy Q.fXsXfXn.N Y.+.#.=.*. .%.-.=.=.-.=.-.Z.A.A.Y.Y.%.A.X.V.cXQ.cX",
"B.v.] { Y U T ' ] { { { q.{ Y Y Y o.cXMXVXMXMXxXb.0.5X6X0 b c a a v O.} { o.o.+.<.7 +.=.-.=.-.-.=.=.P.<.u.+.%.G u.z.b jX",
"x.d.F F D D F F Q F F Q S D A D D D o.h.H g.j.' 7 4X6X9 s ) } U L O.] ] _ [ ' R O.X.X...=.-.-.-.%.`.].+.Y #.8 7 D :.x /.",
"j.i.J H D P _ F ^ ^ ^ _ ^ _ F Y _ ] ] G b f b ~ z 3 3 b g g M Q K _ _ ' _ J _ Q F J D G ..-.-.-.=.].P.X.' H I 6 J d.c hX",
"u.{ H D F F J _ F ^ ^ _ ' } ] _ ^ _ ] :.Y < 3 L 8.8.j j t r t J _ Y J J F F J ^ Y F J J o.%.-.=.=.I.D.R J J F A R p.c gX",
"j.p.Y F ^ ^ ^ J ^ F _ _ ` _ _ F ' } { T G L q 9 q 5X4X4X6X6X5X/ ^ F J J F Y J ^ J Y ^ ] o.%.-.=.A.J.+.Y D Y _ D { k.c hX",
"B.k.F F ^ F _ J ^ ) P T ' <.1.).G.,.1.,.l E E E f j j t t 5Xr K _ ^ F J ^ J Q ^ Q _ _ _ o.%.-.-.-.+.R F H ' Y A R j.c hX",
"z.a.F Q Y ^ ^ Q Y ;.S.P.}.|. X}.L.L.L.L._.! | | S f E ( m E W G _ ^ _ J _ _ ^ ^ ^ _ ' ;.+.*.=.<.+.R ] _ Y } { J u.j.m gX",
"c.p.F _ F _ ^ H 1.}.XXoX X X X|. XXX X X XH.! ` l S | ` ) l E h G ' _ _ ^ K ^ K _ ' e.X.<.+.o.R } ] } ] ' :.} Q :.j.m hX",
"k.d.^ ^ Q _ J ;._. X|.|. X}.}.|. XXXXX X_._.5.W s ) | ! l 3.5.>./ H G T ;.' ^ ^ :.a.f.;.O.' _ ] } } } :.i.s.u.C Z i.x hX",
"k.z._ _ _ _ H ;.|.oX X X|.|.}.L.H.H.H.7.7.6.| Q s ! | | >.5.H.|.|.H.@.d Z G ' :.z.b.z.:.} ] ] } s.d.d.s.s.s.:.D R x.m hX",
"f.a.H J J T G E H._.K.H.7.6.H.G.3.$.W W | ` W W s Q Q ! ` 5.|. XXXXXoXG.$.E U w.d.j.a.R ' ' ;.:.p.a.u.{ ' :.R A q.z.x /.",
"p * $ * ; : : f | 3.6.4.3.3.| ) | ,.| Q z ! ` f = l ! | ` H.oX|.|. XXXoX|.L.G.G L A < & * C A A A d & $ > Z 6 & ; < o E.",
"l.t.e 0.I I : ~ | ` | ( W s k s i f z E Q f s i i ) ) ` ) 5._.}.|.XX|.|.|. X X6.6 : O 4 0.q.w.R I 7 6 e I L 5 6 I t.- gX",
"nXcX$X(.#XW.d 4.5.! ~ E k l p q.l.y.U A A L h.l.I j p s z | 5.H.|.XXXXXXXX X XH.k C e.(.$X$X^.~.Q.Q.!.$X(.v.p.z.^.$XB.zX",
"jX!.B.V.~.l.~ 3.K.7.$.l S ! k !.Q.Q.v.k.l.l.B.V.z.f.e.e.H ^ | 3.H.H._._.}.}.L.3.~ 3.f.(.^.b.v.z.z.b.V.V.V.z.d.j.z.b.:.jX",
"p.^ b / ;.;.$.E >.| Q ! | W W o.;.} _ ^ / / _ } ` ` ' _ T U A > s k ~ | >.( | ` ( H.3.A T / ' _ _ / / / ^ / } _ ^ ` a hX",
"c.i.} s.f.J ~ l ( 7.7.3.| ) f C u.p.i.} ' p.j.p.} ' ] ' ' ' ' T Z d k W P ! | ! / 4.7.( K ;.:.] { ] ] _ ] ] ;.} :.i.m hX",
"b.d.s.d.a.R k ! 6.7.( 5.3.! ! U :.} } } :.p.s.i.} ` { ] ' ] ] ] } U s s s l l l ` 5.E 3.$.K :.] ] } ` ] ] } } ' } i.m hX",
"V.z.s.i.' T G d s s z 7.K.z d T _ _ J J _ } :.} ` ] ' ' ' ] ` [ ' { U d ! $.>.| | | z ( ` Y } ` [ ] ] ] ] ] ' ] [ i.m hX",
"V.d.} } ] _ { I 3 a g M $.S 7 p.Y D H J T _ } } { ` ] [ [ ' [ ] ] ` ' Z E >.5.! ! ~ ` z S T ` ' ] ` ] } } ' [ ] ` i.g hX",
"b.i.` ' ] { / I 7X0Xt t e 4 y.v.} _ ^ _ ] :.:.] [ ] ] _ J Y ' ] } } :.U l W Q ! E k f p 7 Y ` ] } { ` ] } } ` ` ` w.g hX",
"c.s.` } ` M u.0.9X7X7X6Xe - u.v.:.] ` ] / } } _ ' ] ' _ F F ^ ' } :.:.;.D | l l f i j 3 5Xn./ ] ] ] ] ] ] } ` { ` i.g hX",
"x.i.] ` / m.uXuXqXqXqXr 7 * F i.] ] _ _ ^ _ ] ' ] ' F H D J F Y { :.:.;.T D ! b 0 r 9X0X0Xr M ' ] ` ' } ] ' ` [ ` w.g hX",
"b.i.' _ E.uXyXpX8X5X9X8Xe * q.d._ J J J J J Y ' _ J P H J J ^ _ _ ] ' ] ' T I K e 7X8X8Xw 5Xu / { [ ` ] ] ' ' ] ] w.g hX",
"B.s.` ;.u pXiXeX8X8X7XqXI > k.B._ J Y _ _ Y Y P J J Y ^ _ ] } ' _ _ _ Y D _ ' } K w r qXr 5X9X .] [ } } } } } } } i.x gX",
"q.I Z P L y w 0 w w w 4 , & I 9.5 5 5 5 5 6 5 5 < < < 1 Z Z Z j Z C 1 , , < Z Z 6 % 9X8X8Xr 7Xy 4 < 5 6 h Z D L A L = gX",
"* o + * = * + . . . X . . X ; = ; ; ; @ + . . @ + o X X + @ ; @ ; ; @ + + @ & @ @ * r 6X8X9X9X4X    & ; @ ; h : X %   m.",
"M.M.M.N.l.l.h.M.E.W.W./.M.M.hXjXN.B.N.l.l.M.M.N.N.h.y.L h.W.N.N.B.N.l.l.M.B.N.l.y.N.!.u 5X0Xq u W.W.zXhXN.(.N.- 6 y.q.gX",
"cXbX@X@X@XOXOX$XxXzXjX$XOXOX$X$X^.~.Q.OX(.$XzX$XOXOXj.E V.$XV.OX@XB.B.@X@X@XOX~.~.@X@X@XY.b.!.$XzXzXxX@XQ.Q.h.- q.xX@XbX",
"V.b.a.a.a.p.d.j.k.j.h.f.p.p.p.p.{ { i.:.u.a.a.j.a.w.R Z h.B.i.i.a.s.w.s.u.i.a.a.s.a.s.p.j.j.j.a.a.h.w.w.R U 7 2 q.Q.s.jX"
};
