/* XPM */
static char *result[] = {
/* columns rows colors chars-per-pixel */
"60 60 253 2 ",
"   c #020001",
".  c #00021A",
"X  c #190D10",
"o  c #01151A",
"O  c #320C09",
"+  c #3A1705",
"@  c #2C2716",
"#  c #000223",
"$  c #051629",
"%  c #161C25",
"&  c #0F2A38",
"*  c #2A3032",
"=  c #440200",
"-  c #570801",
";  c #471A07",
":  c #581B02",
">  c #6B1302",
",  c #4B2008",
"<  c #572508",
"1  c #472413",
"2  c #592A17",
"3  c #5D3418",
"4  c #692704",
"5  c #742F0B",
"6  c #672C18",
"7  c #6A341A",
"8  c #76381A",
"9  c #610E26",
"0  c #4E342E",
"q  c #563629",
"w  c #693928",
"e  c #733C23",
"r  c #773C26",
"t  c #733133",
"y  c #37502E",
"u  c #784B12",
"i  c #554E2A",
"p  c #5A443B",
"a  c #784425",
"s  c #7B442B",
"d  c #6C4E30",
"f  c #794535",
"g  c #6B6627",
"h  c #0B3A52",
"j  c #273849",
"k  c #033864",
"l  c #6E344F",
"z  c #344457",
"x  c #304B52",
"c  c #0D4964",
"v  c #384C64",
"b  c #4B5052",
"n  c #48565B",
"m  c #595B56",
"M  c #76534A",
"N  c #5B6159",
"B  c #6C685A",
"V  c #475766",
"C  c #535B62",
"Z  c #735371",
"A  c #566265",
"S  c #596366",
"D  c #5B6669",
"F  c #57686B",
"G  c #5B686A",
"H  c #626B6D",
"J  c #716E63",
"K  c #656E71",
"L  c #677273",
"P  c #6B7475",
"I  c #6E7779",
"U  c #737A7A",
"Y  c #747C7C",
"T  c #88060C",
"R  c #8C3607",
"E  c #8A0A2F",
"W  c #882A38",
"Q  c #893530",
"!  c #A62D23",
"~  c #944E10",
"^  c #98481B",
"/  c #87541A",
"(  c #A24D0C",
")  c #A3531B",
"_  c #844326",
"`  c #83452B",
"'  c #8A4728",
"]  c #8C4B2C",
"[  c #984B24",
"{  c #934D2C",
"}  c #9B4E2B",
"|  c #855A28",
" . c #9C5427",
".. c #96512E",
"X. c #9B512E",
"o. c #854B34",
"O. c #934F32",
"+. c #8B5339",
"@. c #945333",
"#. c #9C5432",
"$. c #98583A",
"%. c #A25225",
"&. c #A2532E",
"*. c #A5522E",
"=. c #A6582D",
"-. c #A35632",
";. c #A85735",
":. c #A55934",
">. c #A95A35",
",. c #A35738",
"<. c #A45C3B",
"1. c #AA5D3A",
"2. c #8F6621",
"3. c #A76139",
"4. c #AB613D",
"5. c #AF7230",
"6. c #872D41",
"7. c #873645",
"8. c #97394B",
"9. c #8E3455",
"0. c #A73B51",
"q. c #895846",
"w. c #975B42",
"e. c #9A4657",
"r. c #924B50",
"t. c #A8594F",
"y. c #A24254",
"u. c #AA4958",
"i. c #B24B5C",
"p. c #98634A",
"a. c #956953",
"s. c #9B6B57",
"d. c #A56344",
"f. c #AC6543",
"g. c #AD6945",
"h. c #A7684B",
"j. c #AD6B4B",
"k. c #B16643",
"l. c #B26A47",
"z. c #B16C4B",
"x. c #B2714E",
"c. c #AB6E52",
"v. c #A46D58",
"b. c #B26D51",
"n. c #AC7358",
"m. c #B47354",
"M. c #B87656",
"N. c #B47659",
"B. c #B5795C",
"V. c #B97C5E",
"C. c #985363",
"Z. c #AF5269",
"A. c #AB5668",
"S. c #B85567",
"D. c #9B7766",
"F. c #856F77",
"G. c #AA7A65",
"H. c #BB7E62",
"J. c #B87B68",
"K. c #B76F72",
"L. c #BE6779",
"P. c #C15A6C",
"I. c #C36C79",
"U. c #76877F",
"Y. c #9F822C",
"T. c #B5902E",
"R. c #CFA934",
"E. c #A59149",
"W. c #BC8265",
"Q. c #BB846A",
"!. c #B8856C",
"~. c #BD8A73",
"^. c #B88A75",
"/. c #B98D78",
"(. c #C1886C",
"). c #C28D73",
"_. c #C48F79",
"`. c #D9897B",
"'. c #C69278",
"]. c #C4937A",
"[. c #D0AD60",
"{. c #E6A978",
"}. c #586B93",
"|. c #777E82",
" X c #766597",
".X c #8B708E",
"XX c #B57388",
"oX c #CA7689",
"OX c #D3768A",
"+X c #CF7990",
"@X c #3E93BE",
"#X c #7B8284",
"$X c #418DBA",
"%X c #54B0D4",
"&X c #5DB3D7",
"*X c #4CD3F8",
"=X c #6EE2F7",
"-X c #858A8C",
";X c #8D8E90",
":X c #8C9296",
">X c #929598",
",X c #95999E",
"<X c #B0918F",
"1X c #B29B94",
"2X c #9A9EA3",
"3X c #9EA2A6",
"4X c #94ACB1",
"5X c #A5A8AD",
"6X c #AEAEAF",
"7X c #B5B6B9",
"8X c #C79A84",
"9X c #C98592",
"0X c #D98599",
"qX c #E1869C",
"wX c #CCA692",
"eX c #EAA990",
"rX c #DA8BA3",
"tX c #CF92A9",
"yX c #D796A7",
"uX c #E38CA3",
"iX c #E99AB2",
"pX c #D1A8AE",
"aX c #C5BBB7",
"sX c #E7A6BC",
"dX c #F4A2B9",
"fX c #DBC9AD",
"gX c #BCBEC3",
"hX c #EBABC5",
"jX c #F1ADC6",
"kX c #F3B3CB",
"lX c #EDB7D0",
"zX c #F4BBD5",
"xX c #BEC0C2",
"cX c #B4DAE3",
"vX c #8EF1FD",
"bX c #ADF6FE",
"nX c #C4C6C9",
"mX c #D4CBC9",
"MX c #CCCDD4",
"NX c #D7D9DB",
"BX c #F5C3DE",
"VX c #FAC4DB",
"CX c #EED4D1",
"ZX c #DDDEE1",
"AX c #F8C7E2",
"SX c #D5F2F2",
"DX c #E3E3E6",
"FX c #EBECED",
"GX c #F3EDEC",
"HX c #EEEEF1",
"JX c #EFF2F0",
"KX c #F4F4F5",
"LX c #FEFEFE",
/* pixels */
"].Q.j.b.m.j.4.f.j.m.B.N.m.z.m.N.m.j.B.B.m.N.m.b.N.B.d.$.J.].B.N.m.g.d.$.:.4.4.m.Q.).W.M.M.W.J.m.M.Q.B.f.j.N.m.[ c.8X~.j.",
"B.f. .=.X.} X.-.-.%.%.&.:.<.f.g.f.:.&.&.&.&.&.&.) g.a.f ^ z.,.-.X.{ ..} &.&. . .=.>.=.>.:.&.&.:.-.&.} } .. .-.R d.W.g.' ",
"c.4.:.-.X.X.-.;.;.>.:.1.1.g.b.m.j.f.1.1.;.>.;.=.9XhXsXsX<XN.1.,.#... .#.-.#.=.3.1.4.4.3.>.1.1.>.>.>.#.} -.:.;.] ] 4.3.X.",
"B.l.=.:.-.&.-.=.:.:.:.:.1.z.z.g.4.4.f.1.1.;.=.g.0XK.r.9XVXsXd. .#...#.=.#.=.:.#.1.4.4.3.>.1.>.1.:.#.X.X.&.:.,.` _ 3.3...",
"(.m.=.:.X.X.-.=.#.=.#.>.4.z.4.3.1.3.4.3.1.=.f.L.r.R _ 4 9XzXpXw.[ X.X.#.#.=.X.-.1.4.4.1.1.>.:.:.-.X.} &.-.;.:.[ ] j.g...",
"W.x.=.=.&.-.=.#.=.#.=.:.4.l.4.3.3.1.1.;.1.) J.L.8 >.{ Q 8 0XVXiX#. .-.:.-.&.:.:.>.k.k.1.:.1.:.-.X.} #.-.=.;.:.] ] g.4...",
"M.k.:.:.=.:.#.=.#.=.=.;.4.4.4.>.>.>.>.;.;.*.K.C.[ :.{ ` +.C.lXAXyX~ :.:.=.:.>.:.>.f.4.>.;.;.:.#...X.&.=.=.;.-.` a :.4...",
"m.l.:.:.#.#.=.#.-.=.=.>.4.l.4.1.>.3.4.>.=.b.OXW  .;.{ r w.o.yXAXlXJ.%.1.:.>.>.>.>.1.1.>.1.:.-...{ X.:.=.=.:.:._ _ g.g...",
"B.z.;.>.=.&.#.#.:.:.=.3.k.k.1.>.;.>.>.1.;.h.I.Q X.1.X.' h.o.tXVXBXsX3. .=.=.:.=.-.-.:.;.:.#.{ ] { X.;.=.=.>.=.[ $.B.j.{ ",
"V.z.:.1.;.:.=.=.=.=.:.1.k.k.4.>.>.;.;.;.1...7.l  .>.X.' h.o.oXBXBXBX9X .:.:.X.-.-.&.X.-.} ] ] { #.:.;.:.=.>.-.a ' g.f.} ",
"(.x.>.4.1.1.1.1.>.1.;.3.k.k.4.1.1.f.1.1.1.>.o.+.>.1.' r.u.W L.zXBXAXsX%.:.:.:.:.&.&.X.X.{ ] { #.>.1.>.:.-.:.=.Q ] j.f.X.",
"j.d...#...@.@.....{ #.-.$.$.$.@.@.{ [ #.,.:.#.#.-.o.r.uXtXW I.jXAXBXlXv./ @.{ { ] { { ] ' ] [ ] { { { { X.X...8 o.d.#._ ",
"R 4 < ; : : ; = - 4 5 8 7 1 1 ; 2 C.M 8 a 7 r ' e 6.rXhXtX6.S.hXAXBXBXXX- 7 4 4 4 2 6 7 7 8 5 4 - : : 4 5 8 < O - > : : ",
"!.s.f q.q.q.q.a.D.v.v.p.o.< d f p.{.eXC.s q.p.$.t i.dXkXzXtXS.jXAXBXzX0Xs.a.p.s.s.8 8 f +.+.p.a.s.v.s.s.v.p.q.a.D.s.a.q.",
"wX_.H.~.].].].8X8X8X8X].h.' s.d d Y.E.t.9XJ.B.v.7.S.oXkXlXhXsXjXAXAXVXuXJ._.].wX).^ p.!.W.!.'.'.].8X].8X'.Q.).].8X8X].).",
"!.j.j.N.B.B.B.B.J.N.V.V.@.a i . h k x @.OXuXL.p.W 7.Z.hXzXlXAXkXzXAXkXOXt.b.B.J.c.8 w.Q.W.V.B.j.c.m.N.N.m.m.m.B.B.n.n.h.",
"1.&.&.%.%.%.%.%.%.&.&.%.a @ o * v V z 0 u.OXiX+X9 I.sX+XzXAXAXhXlXAXhXrXL.&.*.*. .8 $.V.z.1.&.%.[ [ ^  .X.&.&.%. . . .^ ",
"z.1.;.>.;.1.:.1.;.:.>.,.3 o % j V V v l S.i.OXqX9 e.kXrXhXzXhXiXkXAXAXzXoX&.;.1.#.Q w.W.l.>.=.:.;.:.=.&.-.-.-.,.:.>.=.#.",
"x.4.;.1.f.1.<.>.;.;.1.#.@ # $ x v V m f y.i.S.A.o   9X0XuX+XI.kXjXhXAXjXI.-.,.1.#.8 @.x.3.:.;.;.;.:.#.#.-.:.-.,.;.>.:.@.",
"x.4.1.f.4.1.:.>.;.;.1.| . g T.Y.v c M ,.f 7.8.8.9 @ Z.y.iXiXl XXzXyXuXrXS.,.;.1.$.8 $.g.>.=.=.=.=.=.=.#.=.:.>.>.>.-.=.X.",
"x.4.f.l.4.4.:.-.,.:.1.w i T.`.eXwXZ q.1.;.O.w 8.8.7.8.W iXzXj X 9XjXZ.oXK.X.-.1.-._ $.j.<.=.=.;.>.=.&.#.=.:.>.>.:.=.-.X.",
"M.l.l.k.3.#.X.X.#.-.:.3.~ XXsX0XoXoXb.r.o.1.Q y.y.W 0.i.iXzXXX# t L.l r.3.-.-.>.&.] #.g.1.:.;.;.1.=.&.&.X.-.>.-.-.#.:...",
"V.x.l.4.:.#...X.X.=.1.#.8.tXoX! T l 9.R %.1.Q y.8.8.S.0.oX0X+XXXM y.6.tXJ.) ,.>.-.' ] d.>.:.;.;.;.:.-.} X.X.=.=.=.:.=.X.",
"V.m.4.1.#.X.X.-.:.<.l.d e.Z.! .X*X*X=X&Xt.=.o.e.i.u.u.7.A.8.N pXXXA.XXBXyX%.>.:.X.e a :.#.X.:.;.;.;.&.&.X.X.:.:.#.:.:...",
"V.l.3.:.X.X.-.;.1.f.m.w.l !  X*XSXSXSXbX&X} ` 9.S.i.8.0.8.0.<X#Xy u.lXAXsX4.:.:.{ w _ 4.-.X.#.=.*.=.=.&.-.:.>.>.#.=.#.] ",
"V.k.>.=.#.=.1.1.f.z.z.w.W 6.*XSXJXGXJXJXvX}.> 7.y.i.y.8.6.t r..Xe.OXkXhX0Xg.:.1.@.8 @.g.,.&.:.:.;.>.:.1.1.4.4.<.:.=.=...",
"p.] ` Q s ] ] O.@.$.$.w 6.&XvXHXJXHXJXGXvX$XT e.y.W 8.0.y.7.8.0.y.i.0XdX0X$.| O.` 3 _ :...] ' ] ] { ] ' ' ..O.] ....{ _ ",
"O     O = : , < < : % O  X*XZXHXJXHXGXKX=X}.! y.8.i.u.t 8.i.S.u.8.+XsX0XA.< 2 5 8 : ' $.o.R ~ 4 4 4 4 - - 5 8 2 , < < + ",
"D.!.D.s.v.p.w.p.w.o.o.q.M cXJXGXJXGXJXbX&XXXZ.Z.t.S.i.u.8.W 8.9 oXjXzX+Xw.+.+.p.h.v.!.).n.n.n.n.G.G.v.n.!.^.N.] s p.p.+.",
"8XwX8X].).W.N.W.M.m.J.8Xp.1XJXSXbXbX=X%XA.oX+X+X{.s.l Z.S.i.i.u.0XzXzXiXI.k.M.B.n.H.(.J.V.M.W.'.].'.!.).].].W.=.n.8X'.W.",
"!.G.f.h.d.#.3.3.1.f.t.f.v.) 4X*X&X@X XR Q A.0XiXeXE.k V M A.0.I.dXBXAXpX=.3.1.1.f.k.1.>.#.#.,.g.g.g.4.d.4.4.<.{ w.V.m.<.",
"m.f.^ [ ] ] } } } } %.} } [ Q F.( > T e.t.y.uXdX{.J v v v V l A.dXVXkX9X) 1.:.&.>.1.#.} } { X.&.-.&.-.-.-.X.} _ ' :.-.{ ",
"m.d...X.O.} } ,.} } } *.,.-.#.( ;.o.0 W 8.y.S.`.E.c V V V V h <XsXVXsX(.( *.:.;.-.} ..] { { X.>.1.;.;.<.,.#.{ ` ] 4.3.@.",
"f.-.{ ..O.*.*.*.*.*.-.*.,.;.;.w.1.;.r.l W E t.3.0 * z v V V k >XCXkXsXG.w.s.^ R [ #...X.X.} -.<.1.;.;.;.#.{ { ' ] f.4...",
"j.<.} X.} *.,.*.*.*.,.,.f.=.( ( ( ) ) / F.<X' a # @ * * j z m [.VXsXuXDXDXDXnXwXv.R -.:.:.:.,.f.f.;.;.:.X.X.-.} @.j.f...",
"J.d.[ #.X.*.} X.O.*.,.} ( p.!.pXaXaXaX7X;XZX7X  * # . . * $ i {.dX+XP.GXLXLXLXLXGXpX .=.1.>.,.1.f.:.:.#.{ #.,.{ @.g.g.X.",
"m.d.} &.} &.X.*.%.#. .h.wXZXKXLXLXLXLXLXNX6XFX6X~ g Y.~     , t E T XXKXLXLXLXLXLXLXaX) ;.>.:.>.3.:.>.#.X.-.<...#.j.4.X.",
"m.4.} -.&.} *.} ,.&.d.mXLXLXLXLXLXLXLXLXLXZXmXDX1X5.R.fX7X2X7X;XmXmXGXLXLXLXLXLXLXLXLXaX%.;.>.>.1.>.>.>.:.1.4.-.3.x.f.#.",
"m.f.} -.} -.X.*.,.( aXLXLXLXLXLXLXLXLXLXLXLXFXFXFX>X2XnXNX6XnXZXLXLXLXLXLXLXFXLXLXLXLXFX;X%.*.=.1.1.1.4.4.f.g...] 3.3.} ",
"n.f.%.-.*.*.X.,.%.G.FXLXLXLXDXNXLXLXLXLXLXLXLXKXKXnX5X5X7X6XNXKXLXLXLXLXKXnXnXNXDXKXLXLXNX;XD.g.;.>.g.k.k.k.g...` d.f.#.",
"N.k.&.:.-.-.:.1.3.F.6X7XNXHX5XU 5XNXJXLXLXLXLXFXxXMX2X,XxXZXnXKXLXLXLXZX>X-X6X;X#X7XKXLXFX,X5X6XaX/.k.g.4.4.f.X.$.M.z...",
"] a 7 r r a _ _ d F U P U >X#XA H |.2XMXZXDXLXFX>X5X:X3XZXxXnXLXLXKXMX>XL |.U U U U 7XKXMXxXKXxXnXFX<X4 ' ..] e a o._ 8 ",
"o.w 2 3 7 8 a 7 q G U.Y Y I Y I H C G P 2X7XgXgX,XP I >X2X;XZXFXMX5X|.H L #XU Y #XU.U ;XnXLXLXLX7XnX>XO d r 8 6 7 e w 3 ",
"8X^.!.G.G.!.n.n.a.G U.Y Y |.U.Y Y I G n S I I I U.I A F H :X3X5X,XY G H U.Y U.U I G |.5XNXDXZXZXgX-XB G.G.v.<.p.n.!.!.h.",
"wX]._._.].].).Q.D.F Y Y Y Y Y Y Y |.D n K S U Y Y I S S P U.I I H C K #XI P L S A H #X>X;X-X#X#X#XG J ].'.H.x.M.W.).Q.N.",
"m.<.>.f.b.m.m.j.N A K |.Y Y Y |.U S n C Y n C |.Y I V A I U K n x n G G S A S P I Y U D A F S S n m d.f.f.4.4.3.1.<.3.#.",
"z.&.*.1.z.l.f.3.m :X:XI Y U.U K A K G H Y n n N m N +.B A m q.+.q.+.+.x V S A A A I |.P K L P D m ,.*.*.=.*.;.>.;.:.:. .",
"M.f.k.z.j.f.<.#.m ,X7X;XP G C H U I C U I B h.d.<.-.;.:.$.#.:.>.>.>.1.$.A P U I U Y Y Y |.L A j * #.1.1.;.1.3.1.1.3.4.,.",
"B.z.z.g.<.-.-.X.N F 7XgX5X3X-XY U -X:XU G w.4.4.1.;.;.>.>.;.;.,.>.;.>.;.$.A L I I P S F C * & z j j +.;.;.1.;.;.>.1.1.#.",
"B.z.4.1.-.-.#.=.+.b 2XMXMXxX:XL #XgX,XV M #.3.3.;.,.;.,.,.;.;.>.;.>.;.;.>.#.m A A F K C * % % j x x y @.<.;.;.;.1.;.>.#.",
"N.k.>.>.:.:.3.-.>.$.H 5XgX:XL I 2X:XG * @ #.4.>.;.;.:.,.-.-.:.>.>.>.1.;.;.>.$.N A A B M $ % % % & j j M 1.1.;.;.;.1.;.X.",
"m.1.;.;.:.;.>.:.:.;...H |.F v K L x h . . | 4.;.;.;.:.-.X.X.-.,.1.1.4.1.,.>.>.#.+.a ] 4.d o % % % * j x :.1.,.;.;.;.;.#.",
"m.3.;.1.;.;.;.>.>.:.1.p.p i M M M u | | u | <.1.;.;.-.#.X.} X.:.1.f.k.3.,.>.:.1.:.] $.z.f.a o % * # j R.5.#.1.>.>.:.;.-.",
"m.1.=.1.=.:.:.;.:.&.1.4.s 4 3.4.a / 2./ 2.7 #.;.:.:.X.{ { X.} X.:.1.3.3.1.>.:.:.#.] #.x.f.>.a o . i R.R.5.g :.;.;.>.;.#.",
"M.4.:.:.:.:.=.>.>.:.4.f.' e c.h.3 3 8 8 u 3 ..-.#.X.} X.-.:.:.:.=.-.:.:.-.-.:.>.#.r ' z.f.;.1.s | T.T./ 5.5.| #.1.,.>.:.",
"m.4.#.:.-.-.-.#.#.,.3.<.s s N.q., u / 2./ ` O...{ O.{ } ,.#.-.:.#.-.@.] ] @.#.,.@.w ` j.f.>.<.| / / 6 8 / 5.T.u @.1.<.#.",
"s 7 7 r a 7 6 2 2 3 2 2 + ; r 7 + + ; 1 1 2 3 6 6 2 2 2 6 6 6 7 7 8 6 2 1 2 5 7 6 ; 7 [ r 2 2 O   X + + O + 3 0 0 a 7 2 ",
"w q w s s w 2 0 0 0 0 p 0 d q.r.d f f d w 0 w w w w q 1 w f f t o.r w t w f t s w t $.w.o.w q b p p f q.f f q.e ; , q 1 ",
"<X].~.Q.W.W.W.'.8X/.1X].!.~.wX8XQ.~.!.!.!./.].~.!.J.b.} B._.Q.~./.!.J.J.~./.~.W.J.~.8X8X).Q.~.8X<X8XwX8X~.'.)...8 G.~.n.",
"8X'.(.(.W.V.W.'.].'.'.).W.W.Q.Q.B.N.B.B.W.~.'.~.W.V.t.[ B.).V.V.W.B.B.W.W.Q.W.V.V.H.(.J.(.H.Q.(.)._.~.J.N.n.j.8 o.).'.B."
};
