/* XPM */
static char *result[] = {
/* columns rows colors chars-per-pixel */
"60 60 253 2 ",
"   c #0B0200",
".  c #340C04",
"X  c #192020",
"o  c #4D0A04",
"O  c #491A04",
"+  c #670202",
"@  c #70040A",
"#  c #4F2A0C",
"$  c #5A2507",
"%  c #582A18",
"&  c #6E300A",
"*  c #682D16",
"=  c #69321A",
"-  c #763619",
";  c #701F33",
":  c #55342A",
">  c #6A2A24",
",  c #673527",
"<  c #773A25",
"1  c #773B35",
"2  c #66441F",
"3  c #7A442A",
"4  c #7A4435",
"5  c #714D33",
"6  c #5E3551",
"7  c #723851",
"8  c #5A3B6A",
"9  c #3A5175",
"0  c #574856",
"q  c #78504E",
"w  c #504D6D",
"e  c #72536D",
"r  c #756872",
"t  c #891003",
"y  c #8A2C08",
"u  c #8C3603",
"i  c #933D00",
"p  c #983A01",
"a  c #8E2B1A",
"s  c #962E1A",
"d  c #98351B",
"f  c #A13F00",
"g  c #8A3B2B",
"h  c #983924",
"j  c #A33C23",
"k  c #994401",
"l  c #954D11",
"z  c #A64801",
"x  c #B14E0F",
"c  c #A85606",
"v  c #A85618",
"b  c #9E6014",
"n  c #B67803",
"m  c #AA6B11",
"M  c #B5761C",
"N  c #864627",
"B  c #8C4A2C",
"V  c #994628",
"C  c #934D2C",
"Z  c #9B4E2C",
"A  c #8A542B",
"S  c #95512D",
"D  c #9C522E",
"F  c #95582B",
"G  c #884A35",
"H  c #974A35",
"J  c #8A5638",
"K  c #955333",
"L  c #9C5332",
"P  c #935A37",
"I  c #9C5A35",
"U  c #9D5B3B",
"Y  c #A3442A",
"T  c #A74A28",
"R  c #A54A2C",
"E  c #A2532E",
"W  c #A85829",
"Q  c #B65929",
"!  c #A64B31",
"~  c #A35632",
"^  c #AB5533",
"/  c #A55934",
"(  c #A95A36",
")  c #A7553A",
"_  c #A55C3A",
"`  c #A95C3A",
"'  c #B15633",
"]  c #B45A33",
"[  c #9B652A",
"{  c #9D732F",
"}  c #8D6435",
"|  c #996737",
" . c #9C7336",
".. c #A66727",
"X. c #A46D2C",
"o. c #B9632B",
"O. c #A7712B",
"+. c #AB752B",
"@. c #AD7A2C",
"#. c #B57926",
"$. c #B67D2A",
"%. c #B97F2A",
"&. c #AD6234",
"*. c #A66A36",
"=. c #A5623B",
"-. c #AC623C",
";. c #B56738",
":. c #A97734",
">. c #B67936",
",. c #C5692C",
"<. c #C46B33",
"1. c #CB7531",
"2. c #D47B34",
"3. c #885944",
"4. c #975C45",
"5. c #855157",
"6. c #A45D41",
"7. c #986447",
"8. c #906C50",
"9. c #A66747",
"0. c #AC6443",
"q. c #AD6945",
"w. c #AD6C4B",
"e. c #B16643",
"r. c #B26B44",
"t. c #B16D4C",
"y. c #A5764B",
"u. c #B5754C",
"i. c #A66D52",
"p. c #AC7557",
"a. c #B47453",
"s. c #B77858",
"d. c #B97B5B",
"f. c #91746B",
"g. c #AB7C67",
"h. c #B87D62",
"j. c #BB8808",
"k. c #BA812B",
"l. c #B8822C",
"z. c #A88337",
"x. c #B78534",
"c. c #B78E37",
"v. c #C99A1B",
"b. c #C69827",
"n. c #D88537",
"m. c #C59636",
"M. c #CA9036",
"N. c #E58D36",
"B. c #E6973C",
"V. c #CDA23C",
"C. c #D1A73A",
"Z. c #B78944",
"A. c #B58F52",
"S. c #BDA34C",
"D. c #BB8264",
"F. c #B9866B",
"G. c #B08B68",
"H. c #BA8B75",
"J. c #BB927A",
"K. c #BBA57A",
"L. c #C59A44",
"P. c #C78856",
"I. c #E59D41",
"U. c #C9A646",
"Y. c #D6B54A",
"T. c #CCAE53",
"R. c #D4BA56",
"E. c #EDA542",
"W. c #F1AD45",
"Q. c #F3B047",
"!. c #F5B348",
"~. c #C48A69",
"^. c #C28E73",
"/. c #C4937B",
"(. c #C89679",
"). c #D0B966",
"_. c #D2C156",
"`. c #DBC458",
"'. c #E3CB5B",
"]. c #E9D25A",
"[. c #DACB67",
"{. c #D5CA73",
"}. c #E7D666",
"|. c #E8D66D",
" X c #F5EA75",
".X c #F2EA78",
"XX c #0C4A91",
"oX c #31548F",
"OX c #31629B",
"+X c #295AA4",
"@X c #0C69B4",
"#X c #2969AE",
"$X c #4A518B",
"%X c #526B95",
"&X c #656A88",
"*X c #507AAB",
"=X c #6377B5",
"-X c #1070C1",
";X c #87798B",
":X c #6D8FAB",
">X c #7096A7",
",X c #239CDF",
"<X c #3390D0",
"1X c #5395C8",
"2X c #50AED6",
"3X c #6CA3CA",
"4X c #5BCFED",
"5X c #6CD9F2",
"6X c #8E8B96",
"7X c #A59786",
"8X c #B89784",
"9X c #B7A29E",
"0X c #BBA7A2",
"qX c #B1ABAF",
"wX c #C69A84",
"eX c #D9A985",
"rX c #D2A98C",
"tX c #E0B48F",
"yX c #E8BB97",
"uX c #C3ABA4",
"iX c #CBAEA5",
"pX c #CDB3AA",
"aX c #CDB3AC",
"sX c #D0B1A7",
"dX c #D3B5AB",
"fX c #D5B9AE",
"gX c #D7BBB1",
"hX c #DACD88",
"jX c #EAD58D",
"kX c #F1EA8C",
"lX c #FEFB86",
"zX c #FCF996",
"xX c #D9C3B3",
"cX c #F4CAA7",
"vX c #F9D2AD",
"bX c #F3E8A8",
"nX c #FEFAA8",
"mX c #FEFCB8",
"MX c #86A3C6",
"NX c #96EFFC",
"BX c #B1F5FC",
"VX c #E3D0C8",
"CX c #E5DEDC",
"ZX c #FFFDC5",
"AX c #E6E0DE",
"SX c #EAE1DD",
"DX c #DBF6F3",
"FX c #EEE5E1",
"GX c #EDEEEF",
"HX c #F0E6E2",
"JX c #F2E9E5",
"KX c #F2EEED",
"LX c #F1F5EF",
/* pixels */
"KXJXFXSXFXHXSXSXFXFXHXFXJXFXSXHXHXFXHXHXHXHXFXHXHXHXFXSXJXJXHXHXSXSXSXSXSXSXSXHXJXHXHXHXHXHXHXHXJXJXSXSXHXHXCXCXKXJXFXLX",
"xXd.a.W ;.-.v z v -.r.t.q.&.&.q.q.&.r.a.0.q.-.-.r.u.W l F.D.t.r.&.W v k z z v u.~.D.u.r.s.d.r.r.s.s.W W ;.q.p W (.H.z SX",
"gX&.9.~ L L L _ ( ~ E E ( ` 9.w.w.` ~ ~ ( ~ ~ ~ / ( C < 4.t._ ~ I C K I / / I ~ ( ( ( ( ( ~ L ~ / D L L L ~ g 9.D.9.u AX",
"dXv 0.E ~ L ~ ( ( ( ( _ ` 0.t.a.t.0.=.` ` ` ) ( ( ` K N w.s.` ~ L S L / I ~ / =.e.-.-.` ) ` ) ( ( I L L ( ^ B B -.` i SX",
"dX;.e.E ~ E E ~ I ~ / / ` q.a.e.-.6.-.-._ ( ^ / / ( Z B s.s.) L D D Z D =./ V R ( ` -._ ( ( ( ( L L D ~ / / N N ` 9.i SX",
"gXa.t.W ~ L L ~ W ~ W ~ -.q.e.-.( -.-.-.( ( ^ / ^ / B N 9.9./ L g h *.A.Z l c.A.u.0.` ) ( &.( ~ D D D W / ^ V C w.9.i CX",
"gXr.w.E / L ~ W ~ D E / ` e.-.&.&.` ( ( ( ^ ( ~ W &.P - 6.S.*.K S.).`.c.S.jXmXnXkX[.L.:.=._ ~ D D D L / ( / B B 9.0.i CX",
"pXQ q.~ W I W L E L ~ / ` -.-.-.( &._ ( ( ~ ( ( ^ h t 4 ).T. .R.`.Y.U.}.zXmXjXR.Y.m.z. .| _ I D Z E ~ W W ( N - _ 0.i CX",
"pX..r.^ ~ ~ W W I W W / -.e.-.( ( ` ( ( ( _ ( T X.).hXkXR.[ z.j.m.Y.Y.`.T.v.n m [ P | -._ ~ S C D E ( ^ W / B B t.t.u CX",
"fX&.q.^ ( E I L ~ / / / -.e.-.` ( ( ( ( &.-.R y.bXmXkXY.v k.C.[. XU...M M O.:. . .=.j H V S B C D / ~ W ^ / N K s.w.p CX",
"fX;.t./ ( ( / / ~ W / / q.e.-._ ( ( ( ( ( ~ L .XkXL.j.R.}.lXnXzXY.W #.+.X.O.@.x.U.}.[.S. .g C D / W ~ ~ ^ / N N 0.q.i CX",
"gXu.t.( -.` ` ` =._ _ &.-.e.-.;.` -.` ( u.Z.T.].v.R.lXmXLXLXmXC...:.%.>.$.#.#.%.m.].lXlX.X).C I -._ _ / ( ( N G t.e.p CX",
"uXy G < < < 3 < - g g C N 3 5 3 3 < N a R.S.R.C.`.|.|.zXmX.Xv.b O.#.m n #.x.L.m.}. XzXZXmXnX{.@ @ - - N N N % , G G + CX",
"uX@ 5 $ % % % % , , 3 N < O . O O % o 8.[.T.T.l.V.Y.'.R.j.c *.S.v.Y.|.[. X XL.@.U.R.'..XzXzXzX|.A.5 5 3 - * % , < , o CX",
"xX/.h.i.g.g.g.h.H.8XH.F.i.< J i.p.g.g.{.'.x.x.O.C.U.Z.S.|..X.XlXnXmXmXzX].c.[ #.#.....b z.S.U.`.`.S.A.G.h.p.F.J.J.F.i.FX",
"VX~.h.D.^.^.^.(././.^.(.s.u g./.H./.h.kX'.b X.k.m.x.S.T.|. XzXnXnXbX[.m.v F $.V.b.n X.X. .8.3.| y.A.G.H.D.F././.H.^.h.FX",
"sXp ` _ =.` ` -.` ( -.-.K * 7.D.t.6.u..XT.{ :.#.@.).S.l b.]. X'.v.j.m X.l.Y. XzXzXkXY.j.M m.U.S.S.| h 6.9.=.` ` ~ U k SX",
"sXz 6.E E W E E E E ~ E N * 7.h.w.^ r..XU.).z.x.kX.Xl.@.M.c.$.M [ | $.l.M.V.R.{.bXZXmXzX}.}.lXlXzXkX{.b s E E E / E p CX",
"fXc 0.^ -.-.( ( ( ` / _ B * i.D.0.=.~ T.).|.Z.kXZXT.l O.[ [ X.X.X.X.X.X.X.+.m n n b.).jX.X X'..XnXZXZXzXT.L ( ` ^ ` k SX",
"dXc 9.( 0.-._ ( ( ( ( _ K - 9.s._ =.).z.hXbXR.ZXmXj.P X.+.:.+.@.%.%.$.$.+.O.X.| *.[ c m l.T.m.M b.Y.jXnXzX{.H ) _ I p CX",
"dXc e.e.e.-.( ( ~ ( ( _ Z N 9.a.` Y |._.hXbX XnX|.c x.V.m.x.X.[ +.l.%.l.%.$.#.X.O.l.l.$.+...+.$.#.M n b.}. X|.) ( / i SX",
"dXv t.e.-._ ~ L L ~ ( ^ C N =.t.` L S.`.'.|.].].R...c.l.#.X.+.$.k.n $.X.X.[ X.X.[ X.k.$.$.l.$.+.@.%.%.$.M C..XS.h =.i SX",
"fX&.s.e.-.~ S S D L ~ ` K , C -.` ` :.x.U.Y.b.Y.Z...X.X.X.$.$.m L f.| ..@.>.$.#.@.X.$.k.$.$.l.$.X.X.O.@.$.+.m.`.=.) k CX",
"fX;.a.-.( L D L ~ ( 0.r.U = C 0.I _ 4.z.kXm.P.{.u.[ F +.%.*.' H <X1XZ.M.x.n %.$.$.k.$.$.$.$.$.%.%.$.X.P }  .X.m.c.~ k CX",
"fX&.t.( ( D D / ( ` t.u._ = U w.I c c z.hXrXvXcXD.F P :...) x e ,XqXyXtXeX~.x.%.$.$.$.k.$.$.$.$.%.$.l.$.} I | | z.*.u CX",
"gXo.t.` ~ D / ` ` e.a.t.L * U s.&.f.1X1XG.tXxXhXJ.k y.u.H ] z e -Xg.rXtXcXvXtX%.$.k.$.#.$.k.$.$.$.%.%.l.$.| -.( | =.u CX",
"aXu J B N B S K P | 7.U 4 % 4 =.8.>XMX<Xr Z.H.K.y.| s.D.j T s j XXe (.cXvXvXeX:.#.k.k.k.$.k.l.$.$.$.%.$.k.z.J S L K & CX",
"9X  X   . o $ $ $ * .       + + q yXcX8X6 v 6.i.A u.p.y.H s.P.r 2X,XqXvXcX(.| [ $.k.+.@.k.#.$.l.$.%.$.$.k.l.5 O $ % . CX",
"uX3.f.8.8.i.3.3.P G 4 3.5.8.F.F.J.vXxX~.> H Y =.~.y.r.>./ D.P.f.<X,X@XH.D.[ [ k.k.$.$.X.@.@.#.@.%.$.$.$.#.k.[ 2 4.7.& SX",
"xXrXrX/./.D.d.h.h.s.s.H.wXwXwXwXhXcXcXcX6.d R 4.p.u.9.;X*X&X5.L.9X#X&X}  .@.O. .#.k.k.k.O.8.z.y.@.$.k.$.k.k.O.y.wX/.u.HX",
"gXs.p.9.9.U ) 6.` =.0.9.i.w.9.F tXvXyX(.W x z 8 w 8X2X5XNXNX4X>XqXG...-.| | O.7. .{ +.k.l.| 9.9.| { $.k.k.l.@.7.h.a.l SX",
"dXQ =.V V C V Z R Z Z V Z V A l (.cXeXeX(.~.;.*X:X3XNXDXGXLXDXNX5X7Xv ( / | } ^ _ I } } @.O.F / ( I } @.$.l.{ 3 ( _ p SX",
"aXv 9.C K C Z E L E E ~ E ~ ~ N G.cXcXvXvXvXsX2X:X5XDXHXKXKXKXKXGX7Xk ` E | P E D C C B } { | ( ( ( ( | @.l.} B -.9.k CX",
"iXf U C Z Z E E D ! E L ~ _ ^ W y.u.(.jXyXcX9X,X1X5XGXJXGXKXKXKXGX7Xp L Z Z E R Z D S L R } 7.` ) ( ^ I { $.} B 0.0.i CX",
"aXc 6.Z Z ~ D R E ! L ~ _ =.~ W / A } 9.| L G XX#X2XBXGXKXKXDXNX5X;Xz U D D D E D E ~ W / / 7.e.) ( ~ Z } :.A K w.q.i AX",
"aX&.9.V ~ Z ~ ~ D E ~ ~ / ~ ~ ( ( 0.=.| =.A > - t 5.4XNXBXBX5X2X&X4.Z L D R E E E ~ ~ / ( ( ( -.( _ L C P } F K w.0.i SX",
"aXW 6.Z ~ Z ~ Z E D I ~ / _ ) =.=.r.>.;.` L q w e 7 8 <X,X<X-X8 c _ / R L E E D E I ~ ( / ( ( ( ( _ ( E U | L L w.q.i CX",
"dXW =.R ~ E E D E ~ ~ =.` :.L.I.I.I.B.E.<.j g XXXX@X@X+XXXXXw 4.C J F I / / ~ E / ` =.` ^ W ( _ ( ( ( ( ( 0.( I a.0.i AX",
"dX..-.D R D D R E ( -.q.L.W.W.W.W.W.W.Q.I.;.Y p 7 8 8 8 w 5.T ,.,.] Z C A F F =.0.t.9.` ( ( E ( ( ` ` e.e.q.S N I 0.i SX",
"sXW 0.E ~ ~ ~ ~ ( 0.w.M.W.W.E.W.W.W.W.W.E.1.^ ^ T f p z x ' ] ] n.E.I.n.<.W Z B a.d.r.-.` ( ( -.t.t.t.e.e.e.L G w.t.p SX",
"iXv 4.V D D L L _ 4.x.Q.W.W.W.E.E.W.Q.W.B.1.R ' h ! h ^ ] ( ! 2.!.Q.W.!.W.B.B.1.=.y.` I ( / ( q.r.q.U ` -.-.C P i.0.u AX",
"0X+ , $ & = = - - % 1.E.I.N.n.B.N.2.n.2.<.Q ^ Y ! h h R ! ] ^ 2.E.W.!.W.Q.Q.!.!.n.N 2 & - B V B B = # $ N 3 , $ - = o AX",
"aX3.8.q 3.3.3.J J 5 Q ] ' ,.Q Q Q T Y Y s s d a a t t d ! T T <.2.I.B.W.W.W.W.!.B.1.F 5 7.7.| U J 4 5 3.J N 3 J 4.3.& SX",
"VXwX/././.^.^.D.G./ o.] o.<.R h h a h V P 9.g.G.7.9.4.H C s d Y ] <.2.B.E.W.W.E.2.2.,.8.wX^.F.D.F.D.J.(.h.t.r.F.^./.r.FX",
"xXs.h.s.h.F.D.D.7.x N.2.,.j h ! a B 7.7.i.p.s.d.s.a.s.p.i.P B B Z T T Q Q <.<.<.' <.1.I h.s.a.a.s.s.h.s.a.t.t.a.s.a.E SX",
"dXf ~ R ` q.t.q.o.o.2.<.! s R ' h | -.E E E ( ` ( ~ E E ( / I L C N N s h Y ' ^ ' ] ,.,.X.E E ^ ^ E T E E ( ( W E / i SX",
"fXv 6.e.t.t.e.I Q Y R ] T Y ' Y V U 0.` -.e.t.t.` ( ( ( ~ L ~ ) ( ( / B a Y T Y T ] o.<.W P -.( ) ( ( ( ( ` -.` ` -.k CX",
"gXW t.r.q.` ( F V Y o.n.,.' ' ' V I ` _ -.q.t.` ( _ ^ ) ~ ( ( ( ( ( ( S s a h T ^ ' T ] W F &.( ( ( ( ( ( ( ( ( -.0.k SX",
"gX&.t.-.` I ~ I N Y <.o.1.,.Y ' S K Z L L ( -._ ^ _ ^ _ ( ( ( ( ( ^ ( L V R R o.<.' ' ! Q Q P ( ^ ( ( ( ( ( ( ( ` ` z SX",
"gXW w.` ( / / W U 7 y s ,.2.Y s B D Z L ~ ( &.( ) ~ ( ~ L ~ ( ( ( ( ( I h R ] o.,.] ] ! h o.I ( ( ( ( _ ( ( ~ ( ) 6.p SX",
"fXv e.^ ( / _ ^ 4.$Xw 7 s Y ^ G | ^ E ( ( ( ` ( ( ( ( ~ D L ( ( ` ` -._ V Y T ! Y h T T d S / ( ( ( ( ( _ ( ^ ) ( ` p FX",
"fXc 6.' ^ ^ ( ( 4.%X@X#XoX6 A a.-.( ( W / _ ` ( ( ( ~ L Z Z D ) -.-.-.=.C ' ' j p t ; 7 N _ ` ` ( ( ( ( ( ( ( ( ( ( f CX",
"fXx 6./ / ( E v f.=X@X#X#X: V 6./ ~ / E D ~ / ( ( ~ Z C S D D D ( ` -.` I S Z 1 0 $XoX9 4.^ / / ( ^ ( _ ( ( ( ( ( ) p CX",
"fXv 0.~ ( v c >X6X&X@X#Xw & 4.a./ E D D D D L L ~ D C L E ~ E ~ E / _ / ~ I b e @X#X+X0 =.( ( _ ( ( ( ^ ^ ( ( ( ` ` k FX",
"fXv 0.( W i.:X:X1X*X9 9 A - i.p.~ D D L L L L L H C K ~ ~ / ~ / / I S C C I ( | oXOXw 0 r W =._ L _ ~ ) _ ` ) _ 6.0.p CX",
"0X+ 5 - 3 =X3X1X<X#X#XoX# O , g = & = = = * * = * % * = = - - = - - * % % * - & w OXOXoXOX0 $ : # % - * * - N 3 < < o CX",
"0Xo : 1 - r :X#XXXoXXX0 : : 4 3.4 < 1 < : : , , , , % # , 1 < 1 1 < , , , 4 1 & 9 @X@XOX+XXX$ : : 5 q 1 4 G < O # :   CX",
"xXJ.8XH.H.F.i.G.G.H.G.K.J.J.rXrX/.H.H.H.H.J.J.J.H.F.p.3.F./.H.J./.F.F.H.J./.H.G.G.r #XOXw f./.wX8XuXwXH././.7.N g.H.t.FX",
"xXd.d.u.u.;.r.d.D.D.F.D.r.;.u.u.&.W &.&.r.a.d.a.r.] p t w.s.Q e.*.&.-.e.r.r.;.;.r.X.k l k +.u.s.d.d.a.-.W l + + a.~.c FX",
"VXiXsXiXiXsXsXiXiXiXiXuXiXiXiXiXiXiXiXiXiXiXiXsXiXiXuX0XaXdXiXiXsXiXiXsXiXuXaXiXsXiXsXiXsXdXiXiXiXuXuXuX0X0X0X9XsXdXiXJX"
};
