/* XPM */
static char *result[] = {
/* columns rows colors chars-per-pixel */
"60 60 250 2 ",
"   c #050710",
".  c #300C0B",
"X  c #371C16",
"o  c #2B231E",
"O  c #332421",
"+  c #4E140B",
"@  c #6E0907",
"#  c #4F2411",
"$  c #5A2717",
"%  c #672806",
"&  c #733009",
"*  c #672D16",
"=  c #6A341B",
"-  c #77391A",
";  c #7D172A",
":  c #572F26",
">  c #672C23",
",  c #6B3824",
"<  c #743A23",
"1  c #7B3D23",
"2  c #774919",
"3  c #7A4427",
"4  c #744B2F",
"5  c #353A76",
"6  c #59385F",
"7  c #703954",
"8  c #374879",
"9  c #77554B",
"0  c #7F605A",
"q  c #544E72",
"w  c #69506E",
"e  c #6D666F",
"r  c #850E0D",
"t  c #8A1A02",
"y  c #972801",
"u  c #942D00",
"i  c #993502",
"p  c #89281A",
"a  c #8D3114",
"s  c #96351B",
"d  c #883628",
"f  c #993825",
"g  c #9C3B24",
"h  c #A13E29",
"j  c #974B04",
"k  c #924B13",
"l  c #A64B02",
"z  c #AB5410",
"x  c #9D6B14",
"c  c #AA6C0C",
"v  c #B57801",
"b  c #B4751D",
"n  c #864628",
"m  c #8B4A2B",
"M  c #984627",
"N  c #944D2C",
"B  c #9C4D2C",
"V  c #8B542C",
"C  c #94522E",
"Z  c #9C522E",
"A  c #975A2A",
"S  c #874B34",
"D  c #974B32",
"F  c #895636",
"G  c #945332",
"H  c #9D5432",
"J  c #955A37",
"K  c #9B5A34",
"L  c #9C5B3B",
"P  c #A3442A",
"I  c #A64A28",
"U  c #A2522E",
"Y  c #AA5528",
"T  c #A35A2D",
"R  c #B4572D",
"E  c #A74E32",
"W  c #A45632",
"Q  c #AA5534",
"!  c #A55934",
"~  c #A85936",
"^  c #A55739",
"/  c #A45C3A",
"(  c #A95D3A",
")  c #B35833",
"_  c #B45A32",
"`  c #9B662D",
"'  c #976D2E",
"]  c #8A6637",
"[  c #986737",
"{  c #9C7434",
"}  c #A36828",
"|  c #A36C2C",
" . c #BA632D",
".. c #A77426",
"X. c #A6722C",
"o. c #AB742B",
"O. c #AD7A2C",
"+. c #B47926",
"@. c #B57D2A",
"#. c #B97F2A",
"$. c #A86635",
"%. c #A5623C",
"&. c #AB613D",
"*. c #B66536",
"=. c #A57633",
"-. c #B77935",
";. c #C5680B",
":. c #C5692D",
">. c #C9742D",
",. c #D5772A",
"<. c #C46A31",
"1. c #CA7534",
"2. c #D37932",
"3. c #8B5B46",
"4. c #915748",
"5. c #A55E40",
"6. c #9C6548",
"7. c #8F6C50",
"8. c #9B6952",
"9. c #A66243",
"0. c #AC6443",
"q. c #AD6A45",
"w. c #A86848",
"e. c #AD6A4B",
"r. c #B16844",
"t. c #B26D4C",
"y. c #A97746",
"u. c #B2734C",
"i. c #A86D53",
"p. c #B36E52",
"a. c #A87559",
"s. c #B37354",
"d. c #B7795B",
"f. c #B57A5C",
"g. c #907670",
"h. c #AB7A65",
"j. c #B47D64",
"k. c #BA7E62",
"l. c #B17F68",
"z. c #BD8B05",
"x. c #B3832E",
"c. c #BA812A",
"v. c #AB8138",
"b. c #B88835",
"n. c #BD9539",
"m. c #D39A23",
"M. c #DA8737",
"N. c #C69733",
"B. c #CF9334",
"V. c #E38F38",
"C. c #E7993C",
"Z. c #CDA638",
"A. c #BB9B4A",
"S. c #B58C50",
"D. c #AF8B6D",
"F. c #BC8265",
"G. c #B7856B",
"H. c #BE856A",
"J. c #AB9C60",
"K. c #B78A75",
"L. c #C9A645",
"P. c #D5A842",
"I. c #D6B64B",
"U. c #C7AB56",
"Y. c #D9BA53",
"T. c #EDA743",
"R. c #F0A742",
"E. c #F1AD45",
"W. c #E2BF48",
"Q. c #F3B147",
"!. c #C2896B",
"~. c #C38D73",
"^. c #C08E78",
"/. c #C5957C",
"(. c #C89679",
"). c #D09A71",
"_. c #CDB06D",
"`. c #DEC359",
"'. c #E7CD57",
"]. c #F1E15D",
"[. c #D7CB6B",
"{. c #E7D265",
"}. c #E9D967",
"|. c #E7D976",
" X c #F4EB76",
".X c #F5EB76",
"XX c #0E589D",
"oX c #335A8C",
"OX c #24689F",
"+X c #015DA7",
"@X c #1C5DA6",
"#X c #335DA2",
"$X c #0769B3",
"%X c #3166AA",
"&X c #2769B6",
"*X c #455187",
"=X c #596C93",
"-X c #007BC9",
";X c #8F7D83",
":X c #7B8596",
">X c #5486B8",
",X c #7A8BA7",
"<X c #6F8CB7",
"1X c #308BD0",
"2X c #3AA8F2",
"3X c #549CD3",
"4X c #6496C7",
"5X c #4BACEE",
"6X c #4CAFEF",
"7X c #58ABE1",
"8X c #43B2FB",
"9X c #52BEFB",
"0X c #56CBED",
"qX c #55C2FA",
"wX c #53D2FB",
"eX c #6CDDF0",
"rX c #53ECFC",
"tX c #59EBFD",
"yX c #6AE2F5",
"uX c #6AE3FB",
"iX c #92858C",
"pX c #A39B9F",
"aX c #B4A9A5",
"sX c #C99A84",
"dX c #D1A98F",
"fX c #E5B592",
"gX c #C4ACA6",
"hX c #C5ACA7",
"jX c #C8B3A7",
"kX c #D3B8AF",
"lX c #D9CB9B",
"zX c #E8D68B",
"xX c #E7CE92",
"cX c #F5ED8F",
"vX c #FEFB86",
"bX c #F3E897",
"nX c #F6CDA9",
"mX c #F4EAAB",
"MX c #FBF5AA",
"NX c #FEFDB6",
"BX c #8CF6F5",
"VX c #8BFBFB",
"CX c #ADF6F4",
"ZX c #B3F9F8",
"AX c #D7D6C0",
"SX c #FFFFC8",
"DX c #E7ECEC",
"FX c #EEEFEF",
"GX c #F1EDEE",
"HX c #EAEFF0",
/* pixels */
"sXk.s.s.d.t.0.q.p.f.k.k.s.s.s.k.s.f.F.k.f.j.s.s.F.F.9.i.sX~.k.k.S.J.6.L &.&.r.F./.~.F.d.H.K.!.d.!.K.s.w.s.k.9.B K.dXq.kX",
"f./ Z ! Z Z W ! W T W W ~ ( q.q.5.~ U W W W W W W ! n n w.e.~ M y.}.v.M ! ! B M E Q W Q ! ! U Q Q T Z Z W W M N k.F.t gX",
"e.( T W Z Z W W Q ~ W Q &.q.s.t.q.( ! ( ~ ~ ~ ! ~ ! n n p.p.^ f A. Xn.m H j | A.S.S.S.$.! Q ~ ~ W H Z Z U ! Z m ( e.y gX",
"d.&.T W U U W ! W ! ~ ( 0.e.t.0.0.0.&.( ~ ~ ~ Q ~ ^ N J j.s.( p _.].x.S X.|.mXcX X X}.Y.v.6.( ( ( H H Z T ~ N 1 N e.u jX",
"H.r.T K B W W Z T K T ( 0.t.&.$.( &.&.&.~ ~ Q T Q W m m S.u.D L '.P.' v.bXNXcX}.'.Z.x.[ [ G M g f M H %.! ~ Z n 5.s.u aX",
"H.t.W / ^ L L / L J ^ 5.q.e.0./ $.( ! ~ ~ ! ~ Y Q Q - 3.[.-.D U.I.l x.}.cX}.].Y.N.} ] { A.Z.U.A.A.=.k f Y ~ Z n L s.u gX",
"*.z l l l l l l l l l l z  .Y T ( ( ~ ~ Q ~ ! ~ ~ ! @ [.{.K ` b.y._.{.].].'.B.@.} N.Y. XvXSXSXSXNXNXzXA.&.W H - N e.y gX",
",XpX,X,X,X,X,X,X,X,XiX:XiXiXD.g.! ( ~ ~ ~ ~ ~ W Q D v..XA.[ A.[.xXMXMXzXY.L.b.O.N.}.vXvXMXmXxXxXzXzX X}.U.[ G 1 Z s.u gX",
"8X8X8X8X8X8X8X8X8X8X8X8X8X5X5X4X5.( ~ ( ( Y W U $.`.Y.n.j n.`.'.Y.I.P.b ` } o.N..X.X{.I.N.z.v v v v x ` { [ C m e.k.u gX",
"qXqXqXqXqXqXqXqXqXqXqXqXqXqXqX7X6.Y ^ ( Q y.y.i |.|.c A.zX|.'.L.-.+...} o.#.Z.{.}.L.b +.+.x.-.=.[ [ [ Z ~ Q N d %.s.u gX",
"uXuXuXuXuXuXuXuXuXuXyXuXuXuXuXeXD.I ( ( P [.U._.NXU.Y.NXmXY.x.A x } =.m.z.z.Z.m.v c c.c.+.X.J V ] [ E M M h D 3 K s.u gX",
"wXwXwXwXwXwXwXwXwXwXwXwXwXwXwX0Xg.I 5.! %.|.].NXmXZ.vX_.v x o.I.|.|.vXcXMXNXMXmX|.L.#.X.| o.O.L.}. X X|.[._.F + 9.p.t aX",
"VXVXVXVXVXVXVXVXVXVXVXVXVXVXVXBXe + = & ] ].].NXzXc n.l [ =.`. XvX.XvXbXbXbXbXbXzX XP.} c.@.b.I.Y.{.}..XvXvX Xv.@ , . aX",
"HXHXHXHXHXHXDXHXHXDXHXHXHXDXHXDXg.3 3.S 9 U.`. Xn.{ |.bX|.I.A.-.b.n.N.z.v v v v v -.-.` O.c.N.N.N.N.Z.I.'.}.vXvX_.9 % aX",
"HXFXFXGXFXFXFXGXGXFXGXGXFXFXGXFXdX~.^.k.a.b.N.`... XMXzXZ.b.| ` A ` o.@.@.-.-.=.[ A ` o.c.P.W.`.'.{.}..XvXvXvXvXvX_.h.kX",
"HXHXFXFXFXFXFXFXFXFXFXFXFXFXFXFXsXs.s.d._.O.A.).U.{.N.v } C ` | X.o.o.o.@.X.| o.+.+.o.o.o.x.b.N.N.c.N.N.P.Y.{..XvX|.$.kX",
"FXFXGXFXGXFXFXGXGXFXFXFXFXGXFXFXaXS.4.=.L.J.nXnXH.+.} | o.X.o.o.| X.o.O.| | #.c.@.@.#.#.#.+.o.} o.+.+.+.+.b b N.}. Xc gX",
"FXGXFXGXFXGXFXFXFXFXGXGXFXFXFXFXnXfXdXdXy._.lXsXy.w.A +.x.+.c.o.` ` ` +.#.o.| @.c.#.#.#.#.#.c.c.o.o.c.@.O.@.@.+.b `.z.aX",
"FXFXGXFXFXFXFXFXFXFXGXGXFXFXFXFXfX).fXnX).(._.K.F.[ [ ` c T A | +.@.#.@.@.c.@.| @.o.o.o.X.o.+.@.#.X.o.o.] [ [ { ..b.z.gX",
"GXGXGXGXGXGXGXGXGXGXGXGXGXGXGXGXsX| y.!.F.S.dX(.` =X3X3Xf.>.R } @.@.@.@.+.#.#.o.J | o.o.o.o.X.| X.X.| @.X.` W ! [ =.v jX",
"ZXZXZXZXZXZXZXZXZXZXZXZXZXZXZXCXjXlXnX).~.dXfXfXH.kX7X2X$Xd <.f N } ` | | X.o.@.O.o.#.c.c.#.#.@.+.o.| @.c.' / ~ W 6.j jX",
"tXtXtXtXtXtXtXtXtXtXtXtXtXrXtXrXAXnXxXnXnXnXnXnXnXnXpX-X&X6 I h n O.@.@.+.+.o.| o.| O.@.#.@.@.#.#.#.#.@.c.+.[ ! Z 9.2 aX",
"uXuXuXuXuXuXuXuXuXuXuXuXuXuXuXyXaX).F.!.fX).dXfXfXsXg.+X&Xq i P M ] O.c.@.c.c.c.+.` o.c.@.#.#.@.#.@.@.#.@.c.{ K T &.j aX",
"9X9XqXqX9X9X9XqX9X9X9XqXqXqXqX7X3.` [ V u.y.A u.u.I oX@X+Xq i Q N ^ [ O.c.o.X.@.@.+.@.#.@.o.@.#.@.@.#.@.@.c.O.[ T %.u jX",
"5X5X5X5X5X5X5X2X2X5X5X6X6X6X5X<XK ! ! K A A [ <X%Xi w XX5 p P I M %.! [ +.c.=.X.c.#.#.+.#.o.' c.#.@.@.#.@.@.c.' C %.t gX",
"iXiX;X;Xg.;Xg.iXD.iXiXg.e e iXh.&.&.( W W $.e.1X>Xl E E P I E R E C ( %.{ c.O.] =.@.#.@.#.c.| ] @.#.@.@.#.@.c.X.K 0.t gX",
"$.j j a j j j k T T T k % % W 0.L K H B D J B.=X=Xl h R ) ) ) ) U m K H ' +.O.F 4 4 { =.X.O.x.' ] o.#.@.@.@.c.X.G L r gX",
"X   . . # $ : > > : O     + & @ % - 2 = $ # k 0.4.z E ) _ 1._ h p 3 = * 3 x...2 @ % C J 2 2 x ' = 2 ..@.@.@.c.' # , . pX",
"3.0 0 3.3.F S S 3 < 4 9 9 7.h.a.6.6.L S 4 4.4 s I E E R ,.;.i t m n n F F ..=.3.6.8.G.f.w.w.7.7.7.8.7.=.c.@.c.] 4 4.@ aX",
"gXdX/./.~.j.k.j.d.s.G.K.sXsXdXsX~.k.e.e.s.F.F.F h z i a 7 6 5 w 0.0.0.u.a.' y.f.s.G.~.F.d.k.~.K.J.~.D.y.+.c.+.' K.sXq.kX",
"~.F.p.s.w.5.w.e.0.e.e.s.h.a.p.i.w.L W ( 0.0.p.6.M 7 q %X+X@X+XoX[ r.&.0.$.] 9.q.t.r.&.&.( / t.s.s.r.e.y.O.c.X.F k.~.z jX",
"s.! k N M N M B I B B M M M k m M Z Z W U W %.-.w $X1X1X&XXX*X7 n / Q W W [ U T &.! Z Z B N B U W W U ! [ c.' 3 B 0.t gX",
"s.%.N G D N H U Z U Z U U Z H H W ^ ~ W ! %.i.q.w +X*Xw 7 4.I z E B ! ~ W W W W W C N N N N W ! ~ ~ ~ ^ K { F 3 K t.u gX",
"0.Z N B B Z U U E U W H ^ W W W W E / o.*.-.1.-.$.$.i z I R P _ ) P V W B Z Z B H B N N B H / ( ( ~ ~ W G ] V d K t.u gX",
"0.H N Z Z E U U Z U W ^ ( ! W U / -.M.M.M.C.E.E.V.:.f E _ M 1.R.M.R M V Z B W B B Z W W ! W ^ q.5.Q ! U V ] B N 6.s.u gX",
"f./ B H U U Z B Z U W W ! ! H -.P.E.E.T.Q.Q.E.E.M.h f M E  .Q.Q.Q.M._ U N W B W Z W W W ! ^ ^ 0.( ! W C G ! W N / s.u gX",
"s./ B U U B W U Z U ! ! ! K -.T.Q.E.E.E.E.Q.C.V.2.R p P g M.Q.E.E.E.M.1.m Z U B Z Z ! ~ ~ ~ ~ ( ( ! W Z H ! H M %.s.u hX",
"e./ B U U W B W U H ! ! ( %.P.Q.E.Q.R.C.V.V.2.:.R P p f f M.Q.R.E.Q.C.C. .n ! Z T ! ! ! Q W W ( ( ~ Q ! ! %.( W e.s.u hX",
"d.( B W B U B B ! ! ( 0.( $.C.Q.R.C.V.2.1. .I P P P P s r *.V.T.E.E.E.E.C.g V ! ( 0.0.( T ~ W W ( ~ ( &.&.0.( m L e.u hX",
"p.%.Z Z U W U W ! &.q.0.( G 1.M.1.<.<.:. .h s g g f g M d M >.E.Q.E.E.E.E.1.Y ` u.d.u.&._ Q W ~ 0.&.0.0.0.r.L n C e.u hX",
"s.&.T ! W W W &.q.r.0.( ( C E Y E E P s p p n m m n - J F.8.Z M.T.R.E.E.Q.M.2.>.J L %.[ ! ( ( 0.u.u.r.q.0.r.( m e.k.y gX",
"J n n n n n N N G m m m S n E Q  .R g g s = n m 3 < * 3 9.K 2 d ,.R.Q.Q.Q.R.2.2.,.I s Y C C K / 9.J S m N ^ S 3 G 5.@ aX",
"- $ # $ * = = * $ * * * # M <.2.<.h f R M , , = $ # + * N n < 2 I M.C.C.R.C.R <.M.<.:.R } n M n d % X # - 3 * # % < . aX",
"K.a.a.8.a.i.8.6.a.h.8.8.4 a M.2.) f h ) f n a.h.i.a.D.K.K.F.w.i.3.y R :.2.<.Q ) 2. .<.<.P 8.a.e.6.6.[ h.i.J G 6.h.l.k jX",
"dXsX(.(././.!.H.(.(.!.!.6.k R ) <.:.) E ) s h.~.F.~./.sXsXF.d.!.K.8.m s g R ) P R _ h 1.a a.~.!.H.!.~./.~.d.p.f.K./.t.kX",
"a.e.e.t.f.f.d.s.s.q.0.9.V Y P 1.M.<.,.R P Y K r.&.0.w.e.0./ ! %.q.s.w.n p s f P ) R f I D oX7.*.r.t.p.p.r.r.0.q.0.t.i hX",
"&.I I ( r.t.q.( ! ! T Z 3 :._ <._ Q 2.2.P p V &.Q W T U U H W U I I I A m h :.:.) Q Q y w $XoX] ! T I I U Y ! ! Y ( y hX",
"s.( q.p.e.0.( W ! ( ( %.n Y B f R ) _  .I G w.0.Q ~ ( ~ / ! ! ( $.( ~ ( K U R P s g f ; 6 #XoX+Xe T ( ( ( ( ( &.&.r.i hX",
"s.q.r.e.( W W Z ! ! ( W < 3 J n ; d d d 4.9.0.~ ~ Q ^ W ^ ~ W Q ! Q W Q ~ G M f p - 4 *XOX6 *X&X+XV ( ~ ( ~ ~ ~ ~ r.i hX",
"d.r.&.( ! K K ! ^ W ( W , * U 3.#X#X*X+X0 E ( ~ ~ ^ ~ ! ~ ~ ( Q ! ~ ~ ~ ~ ( K G m J G.h.e 8 *X#X$X9 Y ^ ~ ~ W ~ Q 0.y hX",
"s.( ( ( ! W ! T ~ Q ( ! < < w.$.>X1X&XOX3.~ ( ^ ^ Q ! W W W ^ ~ ~ ~ ~ ~ ( ! ~ ( Z H s.p.c e oX#X+X3.~ &.( ! ~ ~ Q 0.y hX",
"t.( W ~ ! ~ ~ Q ~ W ~ L 3 F f.s.3X1X&X%X[ &.( Q Q ( W H H Z W ( ( ( ( ~ Q Q ! ( m 1 ! 0.R 4.5 q 9 W ! ! ( ( Q ~ Q r.y hX",
"t.( Q ~ Q ~ Q ~ ~ Q ( / < m s.+.<X1X%XoXK ~ ^ ~ ~ ^ W H B H W ! &.&.&.%.W ~ ~ ( G n 9.r.( W K T Q ( ~ ~ ~ ! ~ ~ ~ 0.y hX",
"t.~ ! Q T Q Q W W W &./ = - ~ 7.iX=X8 oX0 Y ^ W W W B N N B B Z ( &.&.( ( ! ^ ^ C S q.t.W Q Q ~ ~ W ~ ! ! Q ~ W Q 5.y hX",
"p.( W ! T T ! ! ! T $./ = n g.:X3X1X%X$Xq z W W H B N C W U H W T W ! ! ! ! ! W m - ( r.( ~ ( ~ ~ Q ! ( ~ ~ ( Q Q 5.y hX",
"u.&.W ( W ! ! ! ~ ( &./ - 0 :X4X2X&X%XoX9 H H G H N H W ! W / ^ W W H C N K ! ^ m , 5.s.( ( ( ^ ^ / ^ ( ^ ^ ( ( ( q.i jX",
"S < 3 n d 3 = = , , 4 > + e <X1X%X8 : & = , < > , > < < 1 1 1 1 1 d = > : - 1 1 > $ m D 1 , , , : = < = < d m V 3 F @ aX",
"# # * - - $ X o X X X O O 4 F & & & = : # X $ $ # # X + * > > > < * $ # $ > * $ $ > D n : # O O o : , > : d 3 # . :   pX",
"K.G.h.j.h.a.h.D.K.D.K.K.l.K.sX/.l.D.D.S.h.D.G.G.h.j.4.J l.G.l.G.G.h.h.h.G.K.l.a.h.G.sXK.l.l.K.K.K.sXsXsXG.K.i.& S j.C gX",
"dX/.!.^.!.k.~.sXsXsXsX/.!.K./.K.k.F.j.G.~./.sXK.H.k.! ^ ~.~.k.!.H.k.H.H.~.~.!.F.H.~.~.~.!.!.(.sXsXsXsXG.k.j.L % a.dXd.kX"
};
