/* XPM */
static char *result[] = {
/* columns rows colors chars-per-pixel */
"60 60 240 2 ",
"   c #1B0B08",
".  c #340E05",
"X  c #3B1306",
"o  c #4A0802",
"O  c #590A01",
"+  c #471507",
"@  c #591404",
"#  c #4B1912",
"$  c #6E1002",
"%  c #671804",
"&  c #5B2815",
"*  c #662608",
"=  c #762C0A",
"-  c #672C16",
";  c #69321D",
":  c #743112",
">  c #7C3415",
",  c #73331B",
"<  c #793519",
"1  c #7B361B",
"2  c #573838",
"3  c #6D3528",
"4  c #763924",
"5  c #7C3B22",
"6  c #7B432D",
"7  c #6C4234",
"8  c #774838",
"9  c #543F41",
"0  c #5A4E55",
"q  c #7B5749",
"w  c #775B54",
"e  c #524F66",
"r  c #726B70",
"t  c #8F3407",
"y  c #893807",
"u  c #863919",
"i  c #8B3D1D",
"p  c #A93F00",
"a  c #843D22",
"s  c #883C24",
"d  c #984205",
"f  c #934513",
"g  c #A94800",
"h  c #B24D02",
"j  c #B04A09",
"k  c #A84817",
"l  c #A44B1C",
"z  c #AB4A1D",
"x  c #A8521A",
"c  c #B45112",
"v  c #8D4224",
"b  c #874429",
"n  c #944425",
"m  c #984726",
"M  c #9B4926",
"N  c #934629",
"B  c #95492B",
"V  c #9D4B2B",
"C  c #844A36",
"Z  c #8A4E3C",
"A  c #9A4D31",
"S  c #955335",
"D  c #9A5539",
"F  c #A14726",
"G  c #A44A25",
"H  c #AB4D24",
"J  c #A44D2B",
"K  c #AA4D2A",
"L  c #AC5124",
"P  c #A6512C",
"I  c #AC532C",
"U  c #A85B2E",
"Y  c #B1562B",
"T  c #B1542D",
"R  c #A34C32",
"E  c #A45333",
"W  c #AC5532",
"Q  c #AE5934",
"!  c #A55A38",
"~  c #AC5B3B",
"^  c #B25532",
"/  c #B25A34",
"(  c #B45D3A",
")  c #B95E3B",
"_  c #B4622F",
"`  c #B5613D",
"'  c #B96239",
"]  c #C0602D",
"[  c #845647",
"{  c #8C5543",
"}  c #89554A",
"|  c #965A49",
" . c #A65D45",
".. c #AB5E41",
"X. c #B25F41",
"o. c #936251",
"O. c #AC6345",
"+. c #AA674B",
"@. c #B56443",
"#. c #B96543",
"$. c #BA6946",
"%. c #B56748",
"&. c #B56A4C",
"*. c #BA6C4B",
"=. c #BC704F",
"-. c #A36454",
";. c #A96A56",
":. c #B56D53",
">. c #BB6F50",
",. c #AF7358",
"<. c #B57156",
"1. c #BD7253",
"2. c #BD7559",
"3. c #BD795C",
"4. c #996A66",
"5. c #8A726F",
"6. c #947875",
"7. c #A16E63",
"8. c #A77A69",
"9. c #B77C65",
"0. c #BD7D62",
"q. c #C17456",
"w. c #C27A5C",
"e. c #C37E62",
"r. c #BF8166",
"t. c #BD836B",
"y. c #A88674",
"u. c #B98774",
"i. c #BD8974",
"p. c #C48166",
"a. c #C4856B",
"s. c #C8876C",
"d. c #C5896E",
"f. c #C38771",
"g. c #C38B74",
"h. c #CA8D73",
"j. c #C99078",
"k. c #CC937B",
"l. c #D1947E",
"z. c #2D779E",
"x. c #527A94",
"c. c #757F96",
"v. c #8B7B88",
"b. c #877994",
"n. c #3086B6",
"m. c #65879B",
"M. c #788394",
"N. c #4A8CB5",
"B. c #5696BB",
"V. c #7192B0",
"C. c #3297CA",
"Z. c #18A8D9",
"A. c #2CA3CF",
"S. c #2CA6DC",
"D. c #3AA7DA",
"F. c #09AFEE",
"G. c #18AEE9",
"H. c #1CAEFA",
"J. c #02B5FD",
"K. c #0BB7FB",
"L. c #0CB2FF",
"P. c #01BBFF",
"I. c #17B7F9",
"U. c #13B3FE",
"Y. c #1CB4FF",
"T. c #26ABE6",
"R. c #2AAAE2",
"E. c #35B1E7",
"W. c #23ADFB",
"Q. c #22B2FE",
"!. c #25BAFA",
"~. c #489DC8",
"^. c #529BC4",
"/. c #6A99C3",
"(. c #47A5D7",
"). c #50A3D0",
"_. c #68A5C7",
"`. c #459EE3",
"'. c #46A9E2",
"]. c #18C9FC",
"[. c #19D8FE",
"{. c #28C7FB",
"}. c #23CDFD",
"|. c #26D4FC",
" X c #29D4FC",
".X c #29DCFB",
"XX c #29DEFA",
"oX c #30D0F2",
"OX c #33D5FC",
"+X c #32DBFD",
"@X c #02E6FE",
"#X c #00ECFE",
"$X c #1DE9FE",
"%X c #00F3FE",
"&X c #00FEFE",
"*X c #0EFFFF",
"=X c #19FBFE",
"-X c #28EAFC",
";X c #33E7FD",
":X c #25F5FE",
">X c #2EF4FD",
",X c #24FCFE",
"<X c #2AFCFD",
"1X c #37F5FD",
"2X c #35FCFE",
"3X c #3BFBFD",
"4X c #43EFFD",
"5X c #43F6FD",
"6X c #46F9FC",
"7X c #5AFDFC",
"8X c #67FCFB",
"9X c #78FBFA",
"0X c #88838B",
"qX c #A69D99",
"wX c #8F96AA",
"eX c #C69785",
"rX c #CE9984",
"tX c #D29C85",
"yX c #D5A38D",
"uX c #D3A591",
"iX c #88F9F8",
"pX c #9CF8F7",
"aX c #A4F7F6",
"sX c #A6F9F7",
"dX c #ABF9F6",
"fX c #B6F5F4",
"gX c #D6EDEE",
"hX c #C4F3F3",
"jX c #CBF3F2",
"kX c #D4F1F1",
"lX c #DCF2F1",
"zX c #E5EAEC",
"xX c #EEEFEF",
"cX c #F3EEEE",
"vX c #F8EDEE",
"bX c #EDF1EF",
"nX c #F0F0EF",
"mX c #E7EFF0",
"MX c #E3F1F0",
"NX c #ECF1F0",
/* pixels */
"f.1.~ @.@.~ / ~ ( @.%.%.%.@.q.*.$.%.&.%.#.%.X.#.#.*.E D e.w.%.%.` ~ ! W I / Q *.2.w.*.$.*.>.&.%.>.&.@.~ ( %.I G d.j.~ j.",
"=.Q H I G G K T T T j j c c _ _ c c c z H H H H K T s a O.#.I K M m M J H I I L T T Y T T K T K K H M G G K M N =.$.d t.",
"*.( Y I J K I ^ T h 5.V.5./.b.B.V.v.7.4.~ ~ -. .^ Q m B 2.1.W K V J J I I U I W ) ' / / ^ / ^ ^ ^ E K P I Y J s P / x u.",
"3.$.L I K K Q L | c.D.J.].P.].].J.L.T.T.D.(.N.o.h ^ m R 2.*.E K J G I I I P L I / / / / ^ / ^ ^ I J J K I I J i D ' l u.",
"s.*.H I K P x r ~.F.Y. X]..X[.+X{.}.}.I.Y.J.E.V.V. .s C %.$.~ R R E E E W E E ^ ( @.( ^ / / ^ W E K P W Y ^ I N O.&.G u.",
"w.#.I Q x 5.m.).]..X2X,X5X6X6X%X3X5X2X|. X;XI.J.R.r 0 q ~ _ g p p g h c j h j c Y ) ) ^ ^ T L x k z I I T T H i P $.L i.",
"q.) I h 5.T.I.].>X1X&X<X9X8XaXdX8X9X&X2X%X@X;X{.}.E.N.N.^.^.b.b.v.4.4.4.4.4.4.4.7.+.U U Q | | o.o.| D U A ! } 8 { +.x u.",
"1.)  .5.^.L..X;X1X&XsXhX9XhXjXvXjXjXhX6X9XiX&X2X=X}.].].I.J.P.J.P.F.G.G.F.F.F.F.T.D.D.(.(.D.R.R.T.R.D.D.D.S.R.S.S.D.D.(.",
"q.#. .~.I.|.2X3X&XsXhXMXxXcXxXxXvXnXvXmXfXjXiX%X7X1X;X<XXX!.!.!.Q.Q.H.Q.Q.Q.Q.W.Q.U.L.L.U.Y.Y.Y.H.Y.U.U.U.Y.Y.Y.Y.U.L.L.",
"e.] M.G.{.,X3X&XpXcXnXxXxXnXxXxXxXxXxXxXcXnXnXiXiX&X&X>X X X{.!.!.|..X.X.X|.-X.X XXX X.X.X.X.X.X|..X.X.X XXXXXXXXX.X X X",
"r.,.(.L.;X=X8XfXxXnXxXxXxXxXxXxXxXxXxXxXnXnXcXNXhXiXpX<X@X#X@X;XoXOX+X+XOXOXOX+X+X+X+X+XOXOX+X+X+X+XOX+X+X+X+XOXOXOX+X+X",
"4.r D.}.@X9XfXlXcXxXxXnXxXxXnXxXxXxXxXnXnXnXxXxXcXbXxXhXiX8X8X%X@X%X@X@X%X%X%X#X@X#X@X@X%X%X%X#X@X#X%X@X#X@X#X%X%X%X#X#X",
"q x.T.|.>X,XfXcXxXnXxXxXnXxXnXxXxXnXxXnXnXxXxXnXxXnXnXnXnXnXmXpXaXaXdXsXsXsXsXdXdXsXdXdXsXsXsXsXdXsXaXdXdXdXdXpXsXsXdXdX",
"qXD.U.1X&XaXlXnXxXnXnXxXxXnXxXxXxXxXxXxXnXcXxXxXxXxXxXxXnXnXnXvXvXxXvXvXvXvXcXvXvXcXvXcXvXcXnXvXcXcXcXvXvXcXvXcXvXvXvXcX",
"qX).].<X7XfXnXxXxXxXnXnXxXnXxXxXxXnXnXxXxXxXxXxXxXxXnXxXxXnXxXxXzXzXxXxXbXbXbXxXcXzXzXxXxXxXxXxXxXzXxXbXxXxXxXbXnXNXNXxX",
"b.F.OX%X9XfXxXnXxXnXxXxXnXxXxXnXxXxXxXnXxXxXnXxXxXnXxXxXnXxXxXnXxXzXnXxXxXbXbXbXcXxXzXcXxXxXxXxXcXxXzXcXcXxXxXxXnXnXxXxX",
"6.G.{.=X8XjXcXbXcXbXbXxXxXxXxXxXxXxXxXxXxXxXnXxXxXnXxXxXxXcXxXxXzXzXcXxXcXxXcXxXcXxXzXcXxXxXxXnXcXxXxXnXnXxXxXxXnXnXnXnX",
"6.~.{.:X6XhXcXbXxXxXcXxXbXcXbXcXnXxXxXnXxXnXxXxXxXxXxXxXxXxXxXxXxXzXcXxXxXxXbXbXbXzXzXcXxXxXxXxXxXzXzXnXxXxXxXxXNXnXNXbX",
"0XC.!.>X<XpXgXcXxXbXbXcXcXxXxXbXxXxXxXxXxXxXnXxXxXxXxXxXxXxXcXvXcXcXcXxXcXbXcXcXcXzXxXcXxXcXxXcXcXzXzXcXnXnXcXcXnXnXnXnX",
"*.m.R.|.3X7XfXcXxXxXxXxXcXbXxXxXnXxXnXxXxXnXxXxXxXxXxXcXxXxXMXaXpXfXlXlXmXbXbXlXlXgXgXlXMXbXxXmXMXgXMXMXlXlXMXxXNXMXlXkX",
"8.x.(..X%X8XjXMXcXxXxXnXxXxXxXxXxXxXxXxXnXxXnXxXcXvXvXMXdX8X9X%X@X:X3X3X6X4X6X1X3X1X1X3X5X6X6X3X1X1X6X1X2X3X5X6X6X3X3X2X",
"9.5.(.H.;X,XiXfXcXxXxXxXxXxXxXcXxXxXxXxXxXxXxXnXkXdXfX3X%X$X=X-X X-X:X:X-X$X$X:X:X,X:X:X$X$X$X:X:X:X$X:X:X:X$X$X-X$X:X:X",
"q.Y ).I.!.,X6X3XdXnXxXxXxXxXxXcXnXxXnXxXcXxXvXfXaX&X&X-X{.}.{.{.}.}. X X|.|..X X|.|. X X X X X X X X X X|. X X.X X|. X X",
"w.) 5.K.W.-X2X3X&XfXkXnXvXcXcXxXvXcXcXmXkXcXfX&X7X3X;X;X X!.!.Y.Q.Q.Y.Y.Y.Y.Y.Q.Y.Y.L.K.U.Y.Y.Y.Y.Y.U.U.U.U.U.U.I.U.U.L.",
"w.' r N.'.W.;X>X>X&XpXlXpXMXjXvXjXhXkX9X8XsX&X2X,X[.[.[.].L.J.P.P.G.T.R.R.T.G.T.D.C.^.^.~.T.R.R.S.D.~.~.~.^.~.(.C.^.B.).",
"=.`  .w S.Q.T.{.>X<X6X7X9X9XfXhX9XsX2X,X2X#X>X|.-XE.`.`.D.'.M.M.v.4.-.-.-.-.-.-.8 : U U A -.-.-.-. . .R ! ~ ! ! U L d u.",
"b 7 : 9 9 A.S.C.oXXX:X*X6X,X5X*X2X3X,X-X X+XI.Y.Y.x.w w f n d t d g y f d y y d : - M P v t t y y u u s a v v a v v = 8.",
"#   X # O 2 z.n.A.Z.A.oXoXXXXX-X X;X|.Q.U.I.J.Z.C.e e 0 = 4 4 5 s a 3 1 4 ; - b 5 a O.~ m M i 1 a 1 , - s N 1 # & : @ r ",
"u.eXu.t.9.>.4.B.M.^.D.T.oXE.].P.J.].H.I.E.E.^.y.8.r.P l +.O.~ ~ ~ K E O.@.! +.<.<.p.k.s.2.0.r.g.g.p.9.g.eXh.%.n ;.r.O.eX",
"uXtXh.h.e.w.1.7.7.1.wX_.wX_.wX/.V.V.6.v.8.y.8.a.h.k.:.@.2.$.*.&.$.@.%.*.%.$.q.1.q.q.w.1.$.*.p.d.s.p.e.s.s.e.' I g.tX3.uX",
"3.@.H E J J E T H ^ z ! h D g x g g k h Y L / ` ` ( B A ` ^ I I ^ ^ ^ W I W K ^ ( ( K K K J W ( Q W W W Y I m N ~ $.H i.",
"2.` G V m M G K K K K H J G A V A Q I W I Q @.$.` W m B ~ Q I I Y ^ ^ T ^ T T I ^ I J M V M J I T ^ ^ W I P N s P / l i.",
"&.~ M V F F K K K K K K W W J K I ^ Y Y T ( $.#.( Y B v W / I Y T I L I K K K K J V N M F J I W ^ ^ ^ ^ K V N s ! @.l i.",
"( P V J F K K K K K K W ^ ^ W I I ^ ^ ^ / ) ` ( / Q B v ~ / I I I J K J F J K K J J J I K K W @.^ ^ ^ W V J M n Q @.k i.",
"&.~ F J K K K K K K K ^ / I T I I ^ / / / ( ` ^ ^ W N v ` ( L I K G J J G K K K K K I I T W ( X.( ^ W J J I J F ..*.l u.",
"2.( G K K K K K K K K T I I I T / ` ( / Q ` ( / ^ E i a Q / P P K J J K K K K K K K I Y ^ ^ ^ ( ^ ^ E J V W P m ~ *.l i.",
"*.~ G H K K K K K I I W / / / ( #.#.( / ( ` / Y ^ J , 1 Q ^ I I K I I G I I I K I I I ^ ^ T T ^ / ^ W I I Q I J ` $.k i.",
"1.( K K K K K K K I Q / ( / / ( ` / / / ' ` ^ ^ Y V - , ! ( L I I I I U I I I I I Q / / T T Y ^ ^ ^ ^ ^ ^ ) ^ J @.$.z i.",
"1.( G K K K K K I / ' ` / ^ Y / / / / / ( / / ^ I V , 1 @.X.K I P U I L P L I I ) &.@./ ^ ^ T T ^ ( ( ) @.#.Q v B ` z i.",
"&.` I I K K T ^ ( #.#.) / T Y ^ ( ( ( ) ) / / ^ Y E u A 0.>.K I I I I I I I U / 1.w.*.( ^ ^ ^ ( #.$.#.#.#.' Q N O.*.L i.",
"&.Q G I J K I Q ~ ..! E K P P E ~ ! W ! E E W W J N u D 3.@.P I I I P I K I I @.*.*.` U Q Y Q ` &.@.` ~ _ ` U B O.*.l u.",
"y * * = , > > 1 = = : : , - @ % % @ o + + @ = > * @ o % d f > > 1 , , : 1 > u N V N 1 - > n M m m u & * u B 5 & = > % 6.",
"| [ 8 8 C b b 6 C { Z 6 3 ; 8 Z 7 7 7 7 3 8 { S C 8 [ | <.O.Z b 6 4 3 6 6 6 D D b @ @ 4 Z D E D b 6 ; 8 C b < 4 Z { 4 y.",
"uXj.d.g.t.i.r.3.a.g.t.0.~ D i.g.t.i.f.9.u.g.g.a.w.a.g.rXtXa.2.e.r.9.u.g.t.t.j.a.~ i -.g.j.d.p.3.3.3.r.f.p.&.` :.a.g.2.rX",
"j.p.e.p.s.d.p.w.p.p.2.2.D M r.p.e.p.e.3.0.e.w.w.q.w.p.p.p.*.#.1.3.e.d.f.p.p.a.w.Q m r.l.a.e.w.q.q.w.p.a.w.q.*.1.q.w.*.rX",
") G H / #.$.$.@.' / Y I 1 6 :.$.Y ( K H z H / ) T K I K K K J H L L L x L H Y / n b &.$.Y Y Y T ^ Y T T T T / I Y I k g.",
"%.T ^ #.$.#.) Q W / / W v b 3.q.) X./ W / ` $.X.^ ^ T W K E T ^ T ^ T L Y I / ` N i O.*./ Y / I ^ ^ T Y T T / / Y / k g.",
">.' $.*.@.~ W I I I ^ U b b @.#./ ( ( ( ` *.$.( ^ ^ ^ ^ W W ^ ^ ^ ^ ^ ^ ^ ^ / / N 5 O.*._ / / / ^ ^ ^ ^ ^ ^ ^ / / ` I i.",
"q.$.#.( W I I I K ^ ^ W 5 : J I E K J I W / / / ^ ^ ^ W ^ ^ ^ ^ ^ ^ ^ ^ T ^ ^ ^ m B <.q.^ Y ^ ^ ^ ^ ^ ^ ^ ^ ^ ^ ^ ( H g.",
"2.@./ ^ I W I I ^ ^ ^ W 5 , Q Q J J J J I / / ^ ^ ^ ^ I W ^ ^ ^ ^ ^ ^ ^ ^ ^ ^ ^ G P 3.q.^ ^ ^ ^ ^ ^ / / ^ ^ ^ ^ ^ ^ H g.",
"*.) ^ ^ Y W I Y ^ ^ ^ W a b <.*.K K K W ^ / / ^ ^ ^ ^ P J W ^ ^ ^ ^ ^ ^ ^ ^ ^ ^ V v ~ #.^ ^ ^ ^ ^ ^ ^ ^ / ^ ^ ^ ^ ^ H i.",
"*./ ^ ^ ^ ^ ^ ^ ^ ^ / W a N 3.1.Y ^ T ^ ^ / / ^ ^ ^ W K F J W ^ ) ) / / ^ ^ ^ ( B v E ( ^ ^ ^ ^ ^ ^ ^ ^ ^ ^ ^ T ^ ^ H g.",
"*./ ^ ^ Y T ^ ^ T I ( ~ 4 u X.X.Y I ^ I I W ^ ^ ^ ^ K J J J J I / ' ` / T ^ ^ ^ J B @.$.^ ^ ^ ^ ^ ^ ^ ^ ^ ^ ^ ^ ^ ^ z g.",
"*.^ I W T I I T I I / ~ 1 , ( ) I I P G J K I W E K B V F K J K W W / Q ^ ^ W W V s ~ $.^ T W ^ T ^ ^ ^ ^ ^ ^ ^ ^ ^ z f.",
"q./ ^ Y ^ Y T ^ ^ ^ ) ~ u b q.#.K G J I J I K K K J J K K ^ I ^ I I I P P I W ^ A , E *./ ^ / / ^ ^ ^ ^ / ^ ^ ^ ^ ( H g.",
"O.D A K J V V B A A E B , C -. .n N B m B B B N v N n B V V R A J V N a b B V J 5 ; E @.E R A A B A A A V J E R R ! m u.",
"- # * = : * X . . X + .   o t $ $ % % % + X @ @ @ o + # % % % @ % % @ o o O % * O O t t @ + . .   . O $ O $ u , & & o r ",
"Z [ Z D D S 8 q q q [ [ q | -.-.| | | Z Z [ { { Z [ 4 4 { | | |  .| { { } | | Z Z o.:.;.| { } w q o.7.| | ;.D * - C 4 4.",
"uXtXk.k.s.p.h.rXyXtXuXtXh.k.yXrXd.d.s.s.j.rXtXk.s.s.@.Q h.k.s.k.h.a.e.g.k.k.h.p.s.k.rXrXs.s.tXtXtXyXyXrXh.h. .t ;.rXs.uX",
"j.p.1.q.1.=.2.p.p.r.0.3.*.=.2.:.&.&.$.*.3.3.w.3.1.&.G A e.q.$.*.>.%.*.q.>.>.q.>.>.>.q.q.q.q.q.w.e.w.<.%... .b - +.h.q.tX"
};
