/* XPM */
static char *result[] = {
/* columns rows colors chars-per-pixel */
"60 60 238 2 ",
"   c #0A0012",
".  c #2D0B0D",
"X  c #500E07",
"o  c #4B1A06",
"O  c #791400",
"+  c #49240F",
"@  c #582509",
"#  c #5F3006",
"$  c #48271A",
"%  c #582815",
"&  c #5C2E1A",
"*  c #69270B",
"=  c #793305",
"-  c #672C16",
";  c #702F16",
":  c #65321A",
">  c #693419",
",  c #6C341C",
"<  c #73361A",
"1  c #773A1D",
"2  c #4B2E27",
"3  c #583427",
"4  c #573B34",
"5  c #643524",
"6  c #6E3B25",
"7  c #63302A",
"8  c #683A2B",
"9  c #743C22",
"0  c #7C3E22",
"q  c #713C2B",
"w  c #57412C",
"e  c #564139",
"r  c #7C4125",
"t  c #72402B",
"y  c #7C442A",
"u  c #67453D",
"i  c #784436",
"p  c #6B4C44",
"a  c #4A5465",
"s  c #695C66",
"d  c #72676F",
"f  c #853B0A",
"g  c #813E22",
"h  c #8A4406",
"j  c #984803",
"k  c #974B16",
"l  c #A44D01",
"z  c #A54E0F",
"x  c #A95301",
"c  c #A85415",
"v  c #824224",
"b  c #85462A",
"n  c #88472A",
"m  c #8C4A2B",
"M  c #984A24",
"N  c #944D2C",
"B  c #9B4E2C",
"V  c #96502E",
"C  c #9C512E",
"Z  c #9B5B2C",
"A  c #894D33",
"S  c #954E33",
"D  c #8A5238",
"F  c #955232",
"G  c #9C5432",
"H  c #9F5935",
"J  c #9C5639",
"K  c #95583A",
"L  c #9C593B",
"P  c #A24E28",
"I  c #A65727",
"U  c #A1522E",
"Y  c #A35632",
"T  c #A85735",
"R  c #A55934",
"E  c #A85936",
"W  c #A05738",
"Q  c #A45C3A",
"!  c #A95D3A",
"~  c #A36028",
"^  c #AA6135",
"/  c #AE6637",
"(  c #A7603B",
")  c #AA613D",
"_  c #87594C",
"`  c #955B45",
"'  c #A45D42",
"]  c #8B664D",
"[  c #9A644B",
"{  c #88675A",
"}  c #9C6953",
"|  c #A56243",
" . c #AD6443",
".. c #AE6945",
"X. c #A4674A",
"o. c #AD6B4B",
"O. c #B06542",
"+. c #B16946",
"@. c #B16C4B",
"#. c #B3714F",
"$. c #A56D54",
"%. c #AD6E52",
"&. c #B16F51",
"*. c #AD7155",
"=. c #A6735A",
"-. c #AC765B",
";. c #B37253",
":. c #B87756",
">. c #B37659",
",. c #B57A5C",
"<. c #BA7B5D",
"1. c #996A65",
"2. c #937577",
"3. c #AC7B63",
"4. c #A87965",
"5. c #B47D63",
"6. c #BB7E61",
"7. c #AE816B",
"8. c #B18066",
"9. c #BC8266",
"0. c #B4836C",
"q. c #BD856B",
"w. c #BD886F",
"e. c #A68271",
"r. c #B78871",
"t. c #B78874",
"y. c #BC8B72",
"u. c #BE927D",
"i. c #C0866B",
"p. c #C1896D",
"a. c #C38D73",
"s. c #C18F79",
"d. c #C3927A",
"f. c #C59278",
"g. c #73798C",
"h. c #4E7CA1",
"j. c #697FAA",
"k. c #857A86",
"l. c #957D88",
"z. c #74849D",
"x. c #598EB6",
"c. c #6687A8",
"v. c #788CAB",
"b. c #6B8CB2",
"n. c #738FB2",
"m. c #7596B9",
"M. c #3FA0E5",
"N. c #5297CB",
"B. c #5598CC",
"V. c #6799C4",
"C. c #729CC4",
"Z. c #59A5DA",
"A. c #54A9D9",
"S. c #64A6D0",
"D. c #66A5D7",
"F. c #429FE4",
"G. c #4BA3E2",
"H. c #4CADEE",
"J. c #56A9E5",
"K. c #52ADED",
"L. c #58B6E8",
"P. c #4AAEF3",
"I. c #47AEF8",
"U. c #4AADF9",
"Y. c #4CB2F5",
"T. c #44B3FC",
"R. c #49B7F8",
"E. c #4CB4FA",
"W. c #4EBAFB",
"Q. c #55BAF7",
"!. c #52BDFA",
"~. c #6CBEF5",
"^. c #4DC2FF",
"/. c #58C5F7",
"(. c #55C4FB",
"). c #5BCBFA",
"_. c #5ED2FA",
"`. c #52D8F8",
"'. c #58DCFB",
"]. c #63C9EA",
"[. c #60CAF4",
"{. c #74CEF3",
"}. c #62D6F9",
"|. c #64DBFB",
" X c #5BE5FC",
".X c #5DF7FE",
"XX c #68E1F6",
"oX c #6CE9F2",
"OX c #65E3FB",
"+X c #6BE5FB",
"@X c #63EDFC",
"#X c #6CEBFB",
"$X c #65F6FD",
"%X c #6DF4FC",
"&X c #65FDFE",
"*X c #6BFDFD",
"=X c #72F5FC",
"-X c #7CF5FA",
";X c #73FCFD",
":X c #7AFCFC",
">X c #8F8791",
",X c #A7918E",
"<X c #8993AB",
"1X c #A59CA3",
"2X c #91A5BE",
"3X c #C69984",
"4X c #CCA38E",
"5X c #89A6C7",
"6X c #8AC7F3",
"7X c #AFCFE8",
"8X c #8FF6F8",
"9X c #84FBFB",
"0X c #8CFBFA",
"qX c #98F7F9",
"wX c #93FAFA",
"eX c #9BF9F9",
"rX c #ACF5F7",
"tX c #A6F8F8",
"yX c #B3F7F6",
"uX c #BCF5F5",
"iX c #C0E2E7",
"pX c #D8E7EE",
"aX c #CAE1F1",
"sX c #D8E9F0",
"dX c #C4F4F4",
"fX c #CBF3F3",
"gX c #D2F3F3",
"hX c #DDF1F1",
"jX c #EAE7EA",
"kX c #E6EAEC",
"lX c #EEEFEF",
"zX c #F2EEEE",
"xX c #EEF0EF",
"cX c #F1F0EF",
"vX c #E5EFF0",
"bX c #E9EFF0",
"nX c #E4F0F0",
"mX c #E9F0F0",
/* pixels */
"y.;...&.o.) Q  ...;.;.*.%.@.;.>.%.#.>.;.*.*.o.o.%.>.X.S 5.p.;.;.@.| | ' Q ! ' o.6.w.6.;.;.,.<.&.&.6.>.|  ...;.G C d.d.&.",
"o.U U C V B U Y U C P Y T ! +.) E c c l z c l U U I m 6 ` @.T U C V N j l l l j l x x I Y Y Y U U U B B B C B M F >.#.N ",
"o.E E Y C U R E ( | E c I =.-.4.4.>X1.2.2.1.>XQ I X.k b $.<.! Y L k j k.2.k.z.2.<Xl.2...$.c I ! ' Q G G G Y E N n G ( G ",
",.^ I Y U Z I Y x j 2.m.C.D.S.Z.G.H.L.Z.A.V.G.v.k.g.d h ;.,.' J k { n.H.R.R.W.(.T.T.P.D.Z.m.m.z.[ l B B I Y T N v H ) H ",
"q.O.Y L G L ` R 2.m.A.T.T.T.W.(.(.(.|.).[.].D.Z.B.b.x.s I @.I K g.Z.E.!.)._.).|.Q./.).W.T.T.E.B.b.k.S ' ` E ! G N | o.R ",
"<.I z l l L { { G.T.I.(.).!.#X=X#X*X@X=X%X#X=XXX].A.x.N.g.} >Xv.K._.|.*X%X#X=X.X*X#X%X#X(.).).Y.P.B.{ ] ] x x j f Y ..L ",
",.1.1.>Xv.b.n.V./.(.}.OX X:X&X0XrX0XdX0XwXwX&X;X=XXXG.Y.H.N.M.H.|.#X;X&X0XeX9XdXwXtXeX&X:X@XOX}.(./.B.c.c.n.<Xd s ] ^ Z ",
"D.K.K.T.T.^.^.^.#X;X*X:XtX.XyXfXdXhXlXdXuXtXfX9X*X#XXX/.I.I.M.].+X*X:XfXrXuXfXvXbXuXgXuX&XqX9X*X:X@X(.!.!.T.I.H.K.J.S.V.",
"T.T.E.E./.+X+X#X=X;X:XfXgXfXlXzXmXzXlXzXlXnXnXfX9X&X;X%X(.E.Y.oX%X-XdXhXmXmXzXlXzXlXzXzXfXgXgX0X*X=X#X+X#X).Q.!.E.E.T.T.",
"_._._.).).}.@X$XeXqXgXzXmXzXlXlXzXlXlXxXzXzXnXzXhX9X9X:X+XY.Y.].9XgXzXvXzXzXlXlXlXlXlXlXzXmXzXnXqXtX*X@X}.).)./.E.Q.).).",
"|.|.|.OX'..X0XwXuXhXzXxXlXlXxXzXlXlXzXlXlXlXzXxXzXhXtX-X*X_.Y./.iXzXzXzXlXlXlXlXlXlXlXlXlXzXlXcXnXuXeXwX$X X'.OX|.).}.|.",
" X`. X;XwXyXnXxXlXzXlXlXlXlXlXlXlXlXlXxXlXlXlXlXzXzXhXuX:XXX/.~.7XsXzXbXlXlXzXlXlXlXzXlXlXlXlXlXzXzXmXlXuXwX9X:X.X`.`. X",
"rXtXyXsXlXlXzXlXlXlXlXxXlXzXlXlXlXzXlXlXlXlXlXlXlXlXmXuX*X#X).~.7XkXbXzXlXcXlXlXlXlXlXlXlXlXlXlXlXlXzXcXzXlXkXfX8X8XtXyX",
"zXcXzXjXzXlXlXlXlXlXlXzXxXlXxXzXlXlXlXlXxXzXzXxXlXlXzXfXtX;X'.Y.6XsXzXbXlXlXlXlXlXlXlXlXcXlXlXcXlXlXlXlXlXlXzXzXlXmXjXzX",
"xXxXlXkXlXlXlXlXlXxXlXxXlXlXxXlXzXlXlXzXlXlXlXlXcXlXxXlXyX;X#XQ.6XaXlXcXlXlXcXlXlXlXlXlXlXlXlXlXlXzXxXlXlXlXlXlXlXlXkXlX",
"lXcXkXkXlXlXlXlXlXzXlXlXlXzXlXlXxXlXlXxXlXxXzXlXlXlXcXkXfX0X@X(.~.aXlXlXlXlXlXlXlXlXlXlXlXlXlXlXlXlXlXlXlXlXlXlXlXlXkXlX",
"lXlXjXkXlXlXlXlXlXzXlXzXzXlXlXxXlXlXcXlXcXlXlXlXlXlXlXmXfX9X@X(.Q.aXlXlXlXlXlXlXlXlXlXlXlXlXlXcXlXzXlXlXlXlXlXlXlXlXkXlX",
"lXlXlXkXlXxXzXxXlXxXlXxXxXlXlXzXlXlXlXlXlXlXlXlXcXlXlXlXdX9X#X!.6XaXbXzXlXzXlXlXlXlXlXlXlXlXlXlXlXlXlXlXlXlXzXlXlXlXkXlX",
"lXzXlXkXlXlXzXlXlXxXlXlXlXlXlXlXzXlXzXxXlXlXlXlXlXlXlXmXrX*X#XT.6XpXxXxXlXlXlXlXcXlXlXlXcXlXlXlXlXlXlXlXlXlXlXlXzXjXjXlX",
"lXlXmXjXzXzXxXxXlXlXlXxXzXlXlXxXxXlXlXlXlXlXlXlXlXlXcXuX8X=X).E.6XvXcXxXlXlXlXzXlXlXlXlXlXlXlXlXlXlXlXlXzXzXzXlXgXfXpXlX",
"8XwX8XrXfXnXcXcXzXlXlXlXlXlXlXzXlXlXcXlXlXlXlXlXlXzXvXdX;XOX).[.7XmXcXxXlXzXlXlXlXlXlXlXlXlXlXlXxXzXzXzXnXfXuXtX$X@X9XwX",
" X X X$X%X9XfXgXnXlXlXlXlXlXlXlXlXlXlXlXlXlXlXlXlXlXfXtX;XOXU.{.pXkXcXxXxXlXxXxXcXlXlXlXlXlXlXlXzXnXgXfX8X$X&X&X@X).OX X",
"+X|.|.}.).'.*X&XtXdXlXzXzXlXlXlXlXzXxXlXlXlXcXlXzXuX0X;X%X).U.{.yXxXzXzXlXlXxXxXlXlXlXlXlXlXlXlXdXrX*X&XOX)._.)././.}.|.",
"E.Y.Y.(.).OX+X%XwX:XrXmXhXzXcXcXzXlXlXlXzXzXnXmXuX&X9X:X'.I.(.-X&XtXlXhXzXzXcXcXlXzXcXzXzXvXlXuX:XwX;X+XOX_././.U.E.E.E.",
"Y.T.E.E.W.'.}.|.@X;X*XrXdXqXhXxXhXzXlXmXhXfXnXyX*X%X;X|.Y.E./.*X=X*XeXkXgXgXxXkXcXsXmXnXqXuXyX&X;X$X|.}.'.(.U.T.T.Y.J.Z.",
"<Xm.V.D.K.J.J.K.|.#X%X%X-X&X9XrXyXuXnXtXtXeXeX;X;X#X).W.E.E.K./.XX;X*XeXeXrXeXhXfXyXyX9X&X-X%X%X+X+XY.H.K.K.J.C.V.>X} ` ",
"h h = p s s d g.A.E.!.|. X+X*X9XeX;XwX-X9X9X&X=X|.`.G.B.j.N.K.B.].XX=X*X:X0X:X8X;XwX9X&X+XOX}.(.U.Y.c.d d { _ h f h k v ",
"    . . X 3 4 + h.F.G.W.!.U.}.|.`.+X XOXOX|.+X(.!.N.a 4 * # h.h.B.A.A.].|. XXX X+X'.OX}.U.Q.W.I.P.N.u 3 % O f 5 $ % # + ",
"e.e.4.4.$.[ [ [ ` d x.K.Y.R.T.^.W.E.}.(.(.(.T.G.C.2.] v K K D c.z.x.B.G.L.L.L.|.E.W.W.T.R.R.Y.V.>X7.-.4.4.5.s.' r ] } [ ",
"4X3Xu.a.9.,.<.6.;.5.,X1X1X2X5XC.D.L.D.J.D.D.J.1Xy.3X6.| -.:.@.} >X1.4.S.<Xm.C.m.S.C.<X<X<X>X,X,X,Xa.p.w.3X3Xa.' ( a.f.i.",
"q.o.' | J W Q Q ! ' E ^ ^ ^ I I G { z [ [ c } / ;.;.L m X.) E E I ^ I } ^ | ' c $./ ~ x x l c E +.) ) Q ! ! ! S N *.:.) ",
";.C M M N N B B U B B B N M m N B z Y I I Y ) o. .I N n Q ( Y C E E E I Y U I T Y ! W G S S G I Y E Y Y T Y B n y C E Z ",
"o.H V V S B U U U U U T B W B W R Q E T E Q @.@. .E F v G ! R R E I Y E W Y W Y G B N m N N B Y W T ! T W G V b v W ..H ",
") V N C B U U U T S B T T T Y Y I E W E T  .O. .! ^ V r R ( Y Y Y Z G C B B B U B B C B F U Y !  .E T T Y C C N n Q  .H ",
"..G N Y U U U U B U U W ! T Y Y Y T ! ! ( )  .! E E V r Q  .Y Y Y G C B B B U B Y Y Y Y R R Y ' ..E E E F N Y C N | @.H ",
">.G B U U U S B U U T T Y Y Y T ! ) ) ^ ^ ) ) ( E E n 9 L ) Y U U B B C U B U Y U B G Y E T T !  .E Y G B V E F m ) @.H ",
"o.G B U U U U U U H I R R E ! ) +.O.) Q ( ) ) E E G r > F ( Y Z U U U U U Y Z U Y Z H R T E I T ^ Q E Y C G ( G V  .@.Y ",
"%.Y B U U U U U C Y Q ) ( ( ( ) O.) ! ) ) O.! T T C 1 % F  .U Y Y Y Z H Y Y Y C U Y E E T E E T E E E E R E ) E Y o.@.Y ",
";.Y C Y U U B U R E ) ) ^ E E E ! ( E ! ) ) ( E R C 9 - L ..Y U R Y R I Z Y R I E  .o.) T Y R I T ! T ) )  .@.R n K ) Y ",
"&.E U U U U Y Y !  .+.) E E E E ^ ) ) ) ) ) E T R G v 1 $.:.Y C Z Y Z Y Y U Z R ..>.:...( ! E E )  . .+.+.O. .L v K +.R ",
"*.E U R G Y R ( .... .E E R R (  . .! ' ! ! ! ! G V n N 5.,.R I E I R R E Y Y ( &.:.#.) ( E ^ ) ..#.@... .!  .R F *.:.R ",
"n < < r r g g b r 0 1 1 t 1 > > , 5 : : & - 1 v 9 - @ % m V v v r r r r v v v N J L S y 0 n C V F Z A 6 1 N F y , b n 9 ",
"y 3 & 5 < 9 9 > 5 q q 5 & $ 3 5 & $ 2 $ $ 2 q y 5 5 5 8 K H y t 6 > & & > > t n b < @ X : y m S n r - + 5 r 9 > : 6 t : ",
"3Xr.0.7.8.8.-.=.0.r.5.-.L D 0.0.3.3.7.4.4.0.t.0.-.5.r.u.3Xs.>.-.3.-.=.4.7.4.0.r.*.n q } 0.0.9.5.-.*.$.5.0.3.| L =.0.0.-.",
"3Xy.f.f.d.f.q.9.f.w.9.9.L K w.a.i.a.p.q.y.w.p.q.6.6.a.d.f.9.#.,.9.w.a.d.d.a.d.a.:.M [ f.3Xa.p.9.<.i.i.a.d.i.:.;.<.w.i.9.",
"..R ! ..;.;.#.#.@.) ( ( r y *.o.( ..! W R E ' O.! ! Q ! Q R H Y Q ) ( ) ) ) Q  .( v K 8.;.( ) ) ! / ) ) ! ) ! ) ( E E Y ",
"! P Y  .@.+.) E R R E Y 1 A ,.;.E  .E U Y ! O. .T T Y Y Y G Y Y U U I P I P I ^ E r A @. .I E E E E Y P U U R E E R I Y ",
"@. .@.#.o.( Q Y Y E ( H r A ;.#. ...) ) ..@.&.O.! T ! T E R R ! E ! ! Q ! ! Q ) R r A ;.@.^ ^ ^ ! E E ! ! ! E ( ^ ( ( ( ",
";.+... .R U Y Z Y Y ! H 9 < G E Y Y Y Y Q  .) ! W T E T E E E T T T E E T T T T H v K ,.+.T E E E E T T T E E E T ! ( R ",
";. .( E H H Y R T E ! Y 6 > G W C F B F Y E ( E T E T W Y T T T T E T T E T T T Q k X.9.@.Y T E T T T ! E E T T T ! T E ",
"@.! E E R R Y R T E Q R 9 y o...C C C Y R E ! T E T T Y G Y T T E E E E T T T ! R m L #. .T T T ! T T E E ^ ! T T T T Y ",
"@.E T T E E E E T T ! H 0 A 5.;.T E I T E ( ( T E E E Y F C Y T ! ! ) ) T T T ! H y b ( ' T T E E ! T T E ( E T T T ! Y ",
"..T T E Y T T T R E ) Q 9 v o.@.R E E R R T ! T T T Y F F B B Y Q  ./ ( ! T T ! E m F @. .T T T E T ! T E E E E E T T Y ",
"..Y T R Y I T T Y Y ) Q , , Q ! Z Y Y C Z U Y T T Y B N B C B U Y ) ) ( T E R E R m F @.O.T T T T T T T E E Y E T E T Y ",
"@.T R E E I R E Y E O.Q < A ;.+.U U C C B Y G Y G C B F Y Y Y Y I T R R H Y R E Y t g +.+.E ! ! T ! T E ! E ! ! T ! T Y ",
"o.Q R R H G Y H Y W  .L < D 5.X.N C V G G G F V N S N C Y Y W W W G F N m F G H J q 0 $...E Q L G J L W T W W W Q Q Q H ",
"6 > 1 1 1 > % $ % & & + . @ 1 ; * * - - % % - - % % % & - ; ; , ; < - @ $ @ ; 9 - X * N g - % % + + + * - * ; g q 6 , : ",
"5 4 t y y 5 2 4 4 3 e e w i ` D i A i q 3 4 8 t 8 8 3 $ 7 i i q i i q 8 8 q q q 7 q _ ' D 8 4 e e e u _ i i ` b @ o & & ",
"3Xy.w.w.9.,.r.u.d.d.,Xf.q.u.4Xd.q.w.q.9.w.t.u.y.q.6.o.B 5.s.q.y.s.q.5.5.y.u.u.9.5.y.s.3Xd.i.r.3X3X3X3X3Xs.y.s.X.= [ t.5.",
"3Xi.i.q.9.<.w.d.d.f.f.p.9.q.y.q.>.,.,.,.q.y.s.y.5.,.' M 5.a.:.6.5.>.6.i.6.9.6.6.6.6.9.9.9.6.9.p.a.a.s.a.5.*.*.A < -.3Xw."
};
