/* XPM */
static char *result[] = {
/* columns rows colors chars-per-pixel */
"60 60 223 2 ",
"   c #151514",
".  c #260600",
"X  c #2B140F",
"o  c #391307",
"O  c #4B0701",
"+  c #540901",
"@  c #491406",
"#  c #571807",
"$  c #431C15",
"%  c #5A1916",
"&  c #6A0B00",
"*  c #641403",
"=  c #691903",
"-  c #71190B",
";  c #4F200F",
":  c #5C240D",
">  c #5A2715",
",  c #672809",
"<  c #772B07",
"1  c #783308",
"2  c #632913",
"3  c #672B17",
"4  c #72291B",
"5  c #6C321B",
"6  c #69351B",
"7  c #793416",
"8  c #74351B",
"9  c #7B351B",
"0  c #792822",
"q  c #6B3724",
"w  c #763A25",
"e  c #6A3F31",
"r  c #6D432D",
"t  c #764228",
"y  c #7A422B",
"u  c #6E4435",
"i  c #7B4938",
"p  c #7D5547",
"a  c #7B5649",
"s  c #853507",
"d  c #8E360A",
"f  c #843715",
"g  c #833A1D",
"h  c #8B3D1C",
"j  c #933B17",
"k  c #A03F07",
"l  c #843C22",
"z  c #8B3E23",
"x  c #873E2A",
"c  c #913A22",
"v  c #8D4B16",
"b  c #8C411A",
"n  c #98461B",
"m  c #AA4C07",
"M  c #A84A1C",
"N  c #A8541C",
"B  c #B05011",
"V  c #8C4225",
"C  c #86432A",
"Z  c #8B442A",
"A  c #924425",
"S  c #994726",
"D  c #9C4926",
"F  c #934629",
"G  c #954A2B",
"H  c #9C4C2B",
"J  c #9B532C",
"K  c #844A34",
"L  c #864B37",
"P  c #944D32",
"I  c #9C4D31",
"U  c #984F39",
"Y  c #8B513D",
"T  c #9D5435",
"R  c #995837",
"E  c #93553D",
"W  c #9D553A",
"Q  c #A04727",
"!  c #A44B25",
"~  c #AA4D25",
"^  c #A44D2B",
"/  c #AA4D2A",
"(  c #AC5324",
")  c #A65926",
"_  c #A6522D",
"`  c #AC532C",
"'  c #A95B2B",
"]  c #B3552A",
"[  c #B1542D",
"{  c #A84F30",
"}  c #A45333",
"|  c #AD5431",
" . c #A55B34",
".. c #AD5A34",
"X. c #A65639",
"o. c #A45C3B",
"O. c #AC5B3B",
"+. c #B25532",
"@. c #B25A34",
"#. c #B75A39",
"$. c #B45D3A",
"%. c #A9643B",
"&. c #B5613E",
"*. c #B9623D",
"=. c #875545",
"-. c #8C5B4E",
";. c #955A46",
":. c #9A5B4B",
">. c #A35E42",
",. c #AA5E41",
"<. c #B35E41",
"1. c #9B614B",
"2. c #996559",
"3. c #AC6244",
"4. c #A76548",
"5. c #AB664B",
"6. c #B56443",
"7. c #B96543",
"8. c #B76847",
"9. c #B96947",
"0. c #B46749",
"q. c #B4694A",
"w. c #BA6C4B",
"e. c #A46757",
"r. c #AD6C52",
"t. c #B46E53",
"y. c #BB6F51",
"u. c #B47255",
"i. c #B47257",
"p. c #BD7354",
"a. c #BD7659",
"s. c #BD795D",
"d. c #956864",
"f. c #B57C66",
"g. c #BD7D63",
"h. c #C2694B",
"j. c #C17355",
"k. c #C17759",
"l. c #C27B5D",
"z. c #C37E62",
"x. c #BA816A",
"c. c #BD846C",
"v. c #BC8874",
"b. c #C48166",
"n. c #C88263",
"m. c #C5856B",
"M. c #C9866B",
"N. c #C4896F",
"B. c #C98A6E",
"V. c #C58B73",
"C. c #CA8D73",
"Z. c #C88D77",
"A. c #CB9178",
"S. c #CD947B",
"D. c #5596BC",
"F. c #6B8DAA",
"G. c #389ACA",
"H. c #3FA1CE",
"J. c #2DA6DC",
"K. c #3BA3D5",
"L. c #34A7DC",
"P. c #3CA6DA",
"I. c #33A9DD",
"U. c #18ADE9",
"Y. c #1DAFFF",
"T. c #04B1FF",
"R. c #0DB4FF",
"E. c #14B3FF",
"W. c #1BB3FF",
"Q. c #25ACE4",
"!. c #2BABE3",
"~. c #34AAE0",
"^. c #20B2FF",
"/. c #4A96C0",
"(. c #4D9BC5",
"). c #459FCC",
"_. c #4A9EC9",
"`. c #539BC3",
"'. c #549FCB",
"]. c #609AC2",
"[. c #4EA3CE",
"{. c #51A3CD",
"}. c #44A4D5",
"|. c #48A5D5",
" X c #27D3FC",
".X c #29D5FC",
"XX c #29DDFB",
"oX c #34D5FC",
"OX c #32DAFD",
"+X c #00ECFE",
"@X c #1BE7FD",
"#X c #1DEAFE",
"$X c #00F3FE",
"%X c #21EEFD",
"&X c #25F5FE",
"*X c #26F8FE",
"=X c #35F6FB",
"-X c #3EF7FD",
";X c #36F9FD",
":X c #39F8FD",
">X c #44F6FC",
",X c #49F6FC",
"<X c #BF9382",
"1X c #CD9B86",
"2X c #D19B84",
"3X c #D49F89",
"4X c #D4A28C",
"5X c #D5AA97",
"6X c #A7F6F3",
"7X c #A5FAF7",
"8X c #AAF9F6",
"9X c #A1FBF8",
"0X c #D3ECED",
"qX c #DBF2F1",
"wX c #ECE7EA",
"eX c #E5EAEC",
"rX c #EEEFEF",
"tX c #F2EEEE",
"yX c #F8EDEE",
"uX c #ECF1EF",
"iX c #F0F0EF",
"pX c #E4F2F0",
"aX c #EBF1F0",
/* pixels */
"Z.z.&.&.6.&.....$.<.8.8.8.7.7.w.w.8.8.0.7.6.<.<.6.w.6.G r.z.j.8.8.O...} | | ..*.p.l.p.8.9.y.y.8.w.y.0.O.O.8.3.k t.S.s.O.",
"s.8.~ ` ! D / ` / ] ~ ~ / +.6.8.6.@.` / / ] [ / / [ ! 7 P w.@./ ^ D D ^ ~ ` ` ~ / ] ] [ ` ] / / / / ! D ~ ~ / j 3.p...n ",
"p.8.[ ` ^ / _ +.[ +.+.+.#.6.8.w.8.*.$.@.+.@.+.+.+.+.| V 3.z.<.| ^ H ^ _ ' ` ' _ +.&.#.@.@.+.+.+.+.| _ ^ _ ` | A S ....! ",
"z.p.] ` ` / ` ` ` ` ` [ @.8.8.*.@.$.$.$.@.+.+.[ [ +.^ c 3.l.O./ ^ ^ ^ ` ` _ / ` +.@.*.@.+.+.@.+.+.^ / / ` [ [ A V ..&.J ",
"C.l.] ` | { | } } _ _ | &.*.&.&.@.@.$.@...@.+.] ] +.H l } w.O.} T ^ _ ` _ ` _ ` @.&.*.#.@.@.+.@._ H _ ` [ [ +.Q I 0.&.H ",
"l.j.+.( M B B m B ( ] [ @.*.*.@.@.@.+.+.+.+.+.#.[ [ / f X.h.+.~ M ( ` ` ` [ ` [ @.6.#.+.] @.[ ` ^ / / ( ( ] +.F S %.&.H ",
"f.i.%.1.2.2.2.d.2.1.R R %.4.4.4.%.) ) ) ` ' m m N o.;.t R r.1.;.1.E J ) )  .o.} ( ' %.)  .>.4.E P R R o.1.1.} b 1  .%.J ",
"!.~.P.!.Q.U.U.U.U.!.I.I.I.~.I.L.}.|.[.[.(.D.F.].}.K.L.J.L.P.I.J.!.~.P.}.}.}.}.[.`.'.}.|.}.I.~.J.L.L.L.I.J.I.K.G.G.|.[./.",
"W.Y.E.Y.Y.W.^.^.^.W.W.E.Y.W.W.W.E.R.R.R.R.E.U.T.R.W.W.W.W.R.Y.Y.W.W.W.R.R.R.E.E.T.T.E.T.R.W.W.W.E.Y.E.Y.Y.Y.W.E.E.R.E.E.",
"XX%XXX.XXXXXXXXXXXXXXX.X.X%XXXXX.XXX.XXXXXXXOXXXXXXXXXXXXXXXXXXXXXXXXX XXXXXXXXXXXXX.XXXXXXXXXXXXXXX.XXX%XXXXXXX XXXXXXX",
"oXoXoXOXOXOXoXoXoXOXOXOXOXoXoXoXOXOXOXOXoXoXoXoX.XoXoXoXOXOX.XoXoXoXOXOXoXoXoXoXoXOXOXOXoXoXoXoXOXOXXXoXoXoXoXOXOXoXoXoX",
"$X$X+X+X+X+X$X$X+X+X+X+X+X+X$X$X+X+X+X+X+X$X+X+X+X$X$X$X+X+X+X$X$X$X+X+X+X+X$X$X+X+X+X+X+X$X$X$X+X+X+X$X$X$X+X+X+X+X$X$X",
"9X7X8X8X8X7X9X9X7X8X6X8X8X7X9X9X6X6X8X8X9X9X7X6X8X9X9X8X8X8X8X7X9X9X8X8X8X7X9X9X8X8X8X6X8X9X9X7X6X8X8X7X9X7X8X8X8X8X9X9X",
"yXyXyXyXyXyXyXyXyXyXwXyXyXyXyXyXyXyXyXyXyXyXtXwXyXyXyXyXyXyXyXyXyXyXyXyXyXyXyXyXyXyXyXwXyXyXyXyXyXyXyXyXyXyXyXyXyXyXyXyX",
"rXrXrXrXrXrXrXrXrXrXeXrXrXrXrXrXrXrXuXuXrXrXrXeXaXrXaXrXrXrXrXrXrXrXrXrXrXrXrXrXrXrXrXeXrXaXrXrXrXrXrXrXrXrXuXrXrXrXrXrX",
"rXrXrXrXrXrXrXrXrXrXrXrXrXrXrXrXuXrXiXtXrXiXeXrXiXrXrXrXrXrXrXrXiXrXrXuXtXrXrXrXrXrXrXeXtXrXaXtXtXuXtXuXrXrXrXrXrXrXrXrX",
"rXiXrXrXrXtXuXtXrXeXeXtXrXiXrXiXtXtXrXrXtXuXwXwXuXiXaXtXiXrXrXiXrXiXrXrXrXiXrXiXrXrXrXeXrXrXrXaXrXrXrXtXrXrXiXiXiXrXuXtX",
"tXrXiXrXrXaXtXaXiXrXwXiXiXrXiXrXrXuXtXuXrXuXwXeXiXuXtXiXrXrXiXrXtXaXiXrXrXrXiXiXrXiXwXeXtXrXrXtXiXrXrXiXrXtXrXiXrXrXtXuX",
"rXtXiXiXiXiXtXtXiXrXwXiXiXtXtXrXtXrXtXtXtXtXwXwXiXiXtXiXiXrXiXiXtXrXtXtXiXiXtXiXiXiXtXwXrXrXrXrXtXtXiXtXiXtXiXiXiXiXiXtX",
"aXaXpXqXqXpXuXaXaX0X0XqXqXpXuXaXpXqXqXpXuXrXqX0XpXuXuXpXqXqXpXaXuXaXqXqXqXpXrXaXpXqX0X0XpXuXuXuXqXqXqXpXrXaXpXqXqXpXuXuX",
",X>X-X;X;X-X,X>X>X;X;X;X:X>X>X,X:X;X;X:X,X,X-X=X-X>X,X>X;X;X:X>X,X>X:X:X;X-X,X,X>X;X;X=X:X>X,X>X:X;X;X>X,X>X-X:X;X-X>X,X",
"@X#X%X*X*X%X#X#X#X*X&X*X*X#X#X#X%X*X*X%X#X@X&X&X%X#X#X#X&X*X%X#X#X#X&X&X*X%X#X#X#X*X*X*X%X#X#X#X&X*X&X#X#X#X%X&X*X%X#X#X",
".X.X X X.X X.X.X X X X.X.X.X.X.X.X.X.X.X.XXX.X X.X.XXX X.X X.X.XXX.X X.X.X.X.X.X.X X.X X.X XXX.X X X.X.X.XXX.X.X.XXX.X.X",
"E.R.W.W.W.^.W.W.W.W.E.R.E.W.E.R.R.R.R.R.E.T.W.W.E.W.W.E.E.E.E.W.W.E.R.R.R.R.R.E.R.W.W.W.W.W.W.E.E.E.R.W.E.E.R.R.R.R.E.E.",
"|.{.~.Q.!.Q.Q.Q.!.P.[.{.(.G.).[.`.D.D.(.(.D./.(.[.H.H.).(.(._.).).).(.`.`.`.(.(.`.J.G.[.).}.H._.(./.(.[.).).`.`.D.(.(./.",
"x.q.e.2.:.:.e.e.e.r.r.3.J : E t.&.%.' ) N m _  . .4.3.O. .O. .o.o. ...' ) ) ' ' N u Y 3. .W W  ._  ._ } o.%. .) N N N v ",
"R y 1 1 < s f d j F C w 6 o 8 I Z F S F x x V h g h z V Z F G A D ^ F V A Z V V x # f ~ S j b z z z l w g V V V C V V w ",
"% X   $ % 3 3 > 3 : X     X 0 z 0 9 V g 6 2 5 3 : % % > 5 8 w 8 l l w 8 9 5 2 9 C 9 U 8.T A n f 9 g 9 0 0 A V 2 ; , 2 # ",
"v.<Xv.c.x.g.r.r.t.,.>.i.x.x.1X4XZ.c.p.%.,.r.i.u.r.f.i.H o.3.,.O.O.X./ ,.0.o.,.t.t.s.Z.A.l.s.x.c.V.V.g.N.Z.1Xz.! E f.i.4.",
"1X4X2XC.c.s.p.a.j.j.s.m.Z.Z.A.A.N.s.0.$.9.p.k.l.V.S.m.O.w.j.8.w.8.8.*.8.9.7.w.p.w.j.k.j.y.0.j.M.V.b.z.b.m.M.s.( t.2XC.s.",
"l.p._ _ } H _ ` / / { } } } _ H H ! ^ ` ` ` ` &.8.$.} V X.$.| ` ` @.+...` | ` +.@.*.+.` / ^ / @...| | | | ` ' c I 8.&._ ",
"p.w./ ! D D ! ! / / ~ / ! / D D ! _ ` [ ] ` $.9.8.@.^ A X.$.` ` [ [ | +.+.[ [ ` | | ^ D H S ^ ` ` +.[ +.| ` H V S ' ..H ",
"p.6.H H H Q / / / / / / / / | { ` ` [ [ [ +.&.7.*.&.) l ^ @.| [ [ ' / ` / / / / / ^ G D H Q ^ | @.+.+.+.{ ^ D x A $.O.H ",
"6...H ^ ! / / / / / / / @.+.+.` ` [ +.+.+.@.&.&.@.+._ l I $.| ` ` ` ^ ~ ^ Q ^ / / ^ ^ ^ / / _ $.$.+.+.+.^ ^ / S H 6.&.! ",
"y.0.! ^ / / / / / / / { ..@.[ ` ` [ @.@.%.&.*.&.+.+._ l } *.` _ ` Q ^ ^ ! / / / / / / ` ` | +.$.6.+.+._ H ^ _ ! } q.%.! ",
"g.q.! / / / / / / / / { ` ` ` [ @.$.&.@.] @.&.+.+.+.D 8 H *.| / / / / / / / / / / / _ +.+.+.@.@.#.+.| _ ^ _ | H H 6.&.! ",
"p.8./ / / / / / / / ' ` +...@.$.&.*.&.@.@.$.$.+.+.| V 2 F $.` ` ` / ` ~ / ` / / / ` ` | +.[ [ +.@.+.+.` ` | @.^ ..8.@.! ",
"a.8./ ~ / / / / / ` | @.@.$.@.@.&.&.@.@.$.*.$.@.+./ z : Z *.` ` ' ` ` ` _ ) ' ~ ` ....@.+.[ [ [ +.+.+.+.[ $.$.` O.8.&.^ ",
"a.8.` / ! / / / ` ` $.*.$.@.@.` [ @.@.@.$.$.@.+.| ` V 2 I 8.@.` ` / _ ' ` ` ` ` @.8.9.&.@.+.[ [ +.#.@.$.*.6.&.G b  .@.^ ",
"t.8.` ` / / / | @.$.7.*.#.+.] ] @.*.*.#.#.@.@.+.+.` G s 5.z.@._ ` ' ` ` ` ` ' | 9.j.j.*.@.+.+.+.$.9.9.h.*.#.*._ P q.7.^ ",
"t.3.! / ^ _ / | @.,.,.} } _ _ _ X.O.X...| | { ` ` H Z f 5.a.../ ` _ _ _ _ / / O.8.j.7.O.| ..| $.6.9.6.%.@.#.$.G W t.&.H ",
"d < , , 7 7 9 f 9 < < < 4 6 : * = # O @ o @ , s 7 # + O s m f 7 7 9 8 8 7 9 f n H G x 5 < h D D H V 8 : 1 V Z 6 2 s 1 3 ",
"e.1.i i y K K C y =.=.K t 6 e i i e u u e u =.=.K K L =.e.r.R L L t q w y y L E P 5 + , i E T W G C 6 r i C 9 8 C =.L t ",
"5X1Xv.V.N.c.c.s.g.Z.m.z.i.G r.Z.N.c.V.c.g.c.Z.N.l.x.N.A.4XA.l.s.c.z.x.c.v.x.Z.Z.p.S P f.V.Z.b.z.s.s.s.V.Z.a.8.0.z.B.c.t.",
"1XV.b.n.M.V.m.l.b.n.k.a.q.h 3.M.z.b.b.s.g.s.z.l.j.p.z.b.b.k.8.8.j.l.n.V.M.z.b.z.h.n 4.S.B.b.k.k.j.k.n.b.n.j.w.y.k.l.k.q.",
"t.` M ( $.9.9.9.*.$.+.[ G 2 W p.@.@.+.~ M ~ ` #.] [ ` / / / ^ / ~ ` ( N ( ~ ( ] ..g R p.&.] @.[ [ @.[ ( ( [ @.` [ ( / ^ ",
"k.$.] $.9.9.*.$.| ..@.@.G 7 5.l.8.#.$.....$.9.7.#.+.+.[ | | | +.[ +.[ ] ] [ [ @...l T w.*.' ] @.+.+.[ [ [ +.@.@.@.+.+._ ",
"z.9.<.8.0.$.| _ ` ` @.@.^ 8 T 9.$.#.$.@.$.7.9.<.@.+.+.+.| | +.+.+.+.+.+.@.@.@.$...g P y.*.@.@.@.+.+.+.@.+.+.@.@.@.@.@._ ",
"z.w.7.*.@.` ` ' | +.+.+.H 2 h ` ` ` _ / | @.$.@.+./ +.+.+.+.+.+.+.+.+.+.+.+.+.+.| b >.z.7.` +.+.+.+.+.+.+.+.+.+.+.@.@.{ ",
"z.w.$.+..._ _ ` +./ +.+.G 2 V $./ ^ H ^ ` ` @.+.+.+.+.+.| | / +.+.+.+.+.+.+.+.+.| M 0.z.7./ +.+.+.+.+.@.@.+.+.+.+.+.+./ ",
"l.7.+.+.[ +.+.[ [ +.+.@.H 8 :.a.O./ / / +.+.@.+.+.+.+.| / / } @.+.+.+.@.+.+.+.+.| V J *.#.+.+.+.+.+.+.+.@.@.+.+.+.+.+./ ",
"k.7.+.+.+.+.[ +.+.+.+.@.I 9 %.k.$.+.+.[ +.@.@.@.+.+.+._ ^ ^ / +.+.#.$.@.+.+.+.+.X.V F &.#.+.+.+.+.+.+.+.] +.+.+.+.+.+.{ ",
"k.7.+.+.[ [ [ +.+.[ +.$.I 3 I <.+.` +.` ` ` +.@.+.+./ ^ ^ ^ / / +.&.*.*.+.+.+.+...S X.w.#.+.+.+.+.+./ @.+.+.+.+.+.+.+./ ",
"l.$.` +.[ ` ` [ ` ` ` *.G : I <.` / ' ! _ ! / | | | ^ S D ^ ^ ^ ` ` ` ..+.+.+.{ ` A G 9.<.+./ +.+.+.+.+.+.+.+./ +./ +.{ ",
"l.7...` | [ [ [ | [ #.$.H 4 >.j.+.` _ _ ^ _ _ / / ^ ^ ^ / +.[ [ ` ` _ ` _ ` ` +.| w z 8.h.+.#.+.+.+.+.+.+.+.#.+.@.+.+.| ",
"p.o.H } / I D H H I } T V 3 :.,.D A F S S G G G A Z A S H H I I I ^ S V C Z G ^ G q x 6.O.^ I P F P I I H H } | } } } F ",
"8 # # , 1 < # o X o o o . . * s & = = = # o @ # + + @ $ # * - * = - = O O O * , # O - d < @ o X . . @ & + & s 8 > > > o ",
";.=.=.;.R E i p p p p -.-.=.e.e.:.:.;.;.Y p =.=.E Y L 8 y :.:.=.:.:.Y Y =.:.:.Y L ;.5.y.>.;.=.-.-.a d.e.;.e.5.g # w L w ",
"5X4XA.S.C.M.N.S.4X3X1X3XA.C.1X4XA.B.B.m.V.S.2X2XC.B.g.~ a.2XM.C.A.C.m.B.V.S.A.B.z.Z.2X2XC.B.A.3X3X3X5X3XC.C.m.n Z V.2Xz.",
"A.B.p.k.j.w.j.s.g.b.g.l.y.w.a.a.0.8.0.9.p.s.s.s.p.w.<.d 0.M.w.w.w.w.w.y.p.y.p.p.y.j.y.j.j.j.j.k.k.g.i.y.5.,.X.5 K g.M.y."
};
