/* XPM */
static char *result[] = {
/* columns rows colors chars-per-pixel */
"60 60 234 2 ",
"   c #1B1A1E",
".  c #321309",
"X  c #2A211F",
"o  c #4F1506",
"O  c #451905",
"+  c #49210D",
"@  c #5C2808",
"#  c #4A2217",
"$  c #542513",
"%  c #5B2A15",
"&  c #572A18",
"*  c #5D3119",
"=  c #68270B",
"-  c #6F300B",
";  c #7D3905",
":  c #632B14",
">  c #632B16",
",  c #6C2C14",
"<  c #64331B",
"1  c #693318",
"2  c #6B341C",
"3  c #773615",
"4  c #72351A",
"5  c #743A1D",
"6  c #7A3B1D",
"7  c #4E2C27",
"8  c #542A24",
"9  c #593426",
"0  c #543B31",
"q  c #633323",
"w  c #683627",
"e  c #6C3B24",
"r  c #633B2E",
"t  c #6B3D2D",
"y  c #743D24",
"u  c #793C25",
"i  c #6D3F31",
"p  c #723E31",
"a  c #7E4115",
"s  c #5A4239",
"d  c #744127",
"f  c #7C4124",
"g  c #74432C",
"h  c #7C442B",
"j  c #6A4134",
"k  c #784636",
"l  c #7C4534",
"z  c #73544F",
"x  c #64616B",
"c  c #706871",
"v  c #842900",
"b  c #823802",
"n  c #823E1D",
"m  c #803720",
"M  c #954C05",
"N  c #874218",
"B  c #96491B",
"V  c #A44B00",
"C  c #AB4E00",
"Z  c #A65306",
"A  c #AC5300",
"S  c #B25D00",
"D  c #A34E10",
"F  c #A65519",
"G  c #834325",
"H  c #8A4525",
"J  c #8D4925",
"K  c #844529",
"L  c #8B4729",
"P  c #87492C",
"I  c #8C4A2C",
"U  c #964B24",
"Y  c #944E2C",
"T  c #9B4E2C",
"R  c #9C5826",
"E  c #96512D",
"W  c #9C522E",
"Q  c #864B34",
"!  c #924D31",
"~  c #954F37",
"^  c #8C5137",
"/  c #955233",
"(  c #9D5432",
")  c #93553B",
"_  c #9D5639",
"`  c #995939",
"'  c #9D5C3D",
"]  c #A14E22",
"[  c #A85A27",
"{  c #A1532E",
"}  c #A2592D",
"|  c #A45632",
" . c #A85735",
".. c #A55934",
"X. c #A85936",
"o. c #A25739",
"O. c #A55C3B",
"+. c #A95D3A",
"@. c #A8623B",
"#. c #AB623D",
"$. c #B8693C",
"%. c #895746",
"&. c #85544D",
"*. c #945A46",
"=. c #9B5D43",
"-. c #A45D41",
";. c #A85C40",
":. c #9A6247",
">. c #9C654C",
",. c #88605D",
"<. c #986756",
"1. c #A56344",
"2. c #AC6442",
"3. c #AE6946",
"4. c #A2664A",
"5. c #AB6649",
"6. c #A46A4E",
"7. c #AD6A4A",
"8. c #B16541",
"9. c #B06946",
"0. c #B16D4C",
"q. c #B3704D",
"w. c #A76D53",
"e. c #B26F50",
"r. c #AB755A",
"t. c #AC745B",
"y. c #B37354",
"u. c #B87454",
"i. c #B37659",
"p. c #B6795C",
"a. c #B97B5D",
"s. c #936D67",
"d. c #90726F",
"f. c #87767A",
"g. c #AD7B62",
"h. c #A87967",
"j. c #B57D63",
"k. c #BA7E61",
"l. c #AE816E",
"z. c #BC8265",
"x. c #B4836B",
"c. c #B9866B",
"v. c #BC856B",
"b. c #B98A75",
"n. c #BC8B74",
"m. c #BE917B",
"M. c #C18962",
"N. c #C0866A",
"B. c #C1896E",
"V. c #C28D74",
"C. c #C28F78",
"Z. c #C79379",
"A. c #C4937B",
"S. c #717B8F",
"D. c #4F7AA2",
"F. c #877988",
"G. c #8C7C8C",
"H. c #907B88",
"J. c #728398",
"K. c #558DB9",
"L. c #6686A7",
"P. c #788CAA",
"I. c #7695BA",
"U. c #3EAFFD",
"Y. c #5899C9",
"T. c #579DD5",
"R. c #699AC4",
"E. c #7698C7",
"W. c #5AA4DA",
"Q. c #57ABDB",
"!. c #6BA8CF",
"~. c #68A5D5",
"^. c #539FE2",
"/. c #4EADEB",
"(. c #55ACE7",
"). c #5CAAE2",
"_. c #54ADEA",
"`. c #56B0EA",
"'. c #49AEF7",
"]. c #50AFF0",
"[. c #4BB2F5",
"{. c #45B3FB",
"}. c #4CB3FA",
"|. c #4BB9FA",
" X c #51B7F6",
".X c #62ABE2",
"XX c #5EC5EB",
"oX c #58C7F9",
"OX c #5BCDFB",
"+X c #5ED2FA",
"@X c #59D8FA",
"#X c #66D0EF",
"$X c #65DAF4",
"%X c #61D4FA",
"&X c #63DCFB",
"*X c #5DEBFC",
"=X c #5AF7FE",
"-X c #65E3FB",
";X c #69E3FA",
":X c #63EDFC",
">X c #6CEDFB",
",X c #63F0FC",
"<X c #6DF3FC",
"1X c #64FEFE",
"2X c #6DFDFD",
"3X c #72F5FC",
"4X c #7CF5FB",
"5X c #75FEFD",
"6X c #7CFCFC",
"7X c #878089",
"8X c #958993",
"9X c #B09489",
"0X c #8689A2",
"qX c #C09682",
"wX c #C59984",
"eX c #CA9D87",
"rX c #CCA28D",
"tX c #83FAFB",
"yX c #88F8FA",
"uX c #94F8F9",
"iX c #9BF9F9",
"pX c #A8F8F7",
"aX c #B4F5F6",
"sX c #BAF5F6",
"dX c #DDE3E8",
"fX c #C7F4F4",
"gX c #CDF5F3",
"hX c #D5F2F2",
"jX c #DCF2F1",
"kX c #E3E3E7",
"lX c #EFEFEF",
"zX c #F3EEEE",
"xX c #E7EFF0",
"cX c #E3F0F0",
/* pixels */
"y...O.O.O.| X.O.+.+.+.@.+.3.7.3.2.@.+.;.+.+.+.O.@.2.P ) y.y.;.2.X.( ` _ O.O._ 1.w.0.9.9.#.6.2.-.1.5.O.| ..O.O.B w.n.i.( ",
"#.W } T Y W | | | { {  .+.5.q.9.#.X.| | |  .| | | | f G 5.9.{ ( E Y U ] D V Z V A [ Z F @.A [ F | D T / E } T H ' q.@.U ",
"7.....| W |  . . . .+.+.3.0.0.9.3.2.+.+.X.X.X. . ...H ` j.y.| _ E / *.>.<.f.f.G.0XI.0XP.P.7XI.7X} d.%.B ..| | L J ..@.( ",
"u.[ } { { } } } } }  .;.3.0.2.@.+.@.@.+. . . .|  .| H ) i.7.| W B ` S.W./.].[.]. X'.oXXXQ..XW.Y.L.J.L.&.D -.| H I 1.@.E ",
"a.o.O.O._ O.' ' ' ' -.;.w.7.5.1.2.1.1.;.-.;.;.O.;.-.p K 8.5.<.*.S.)._.}.}.{.oX&X@X+X&X@X$X@X#X.X).R.L.L.%.C  .Y E 7.5.E ",
"$.C Z V D D V V V V C A S S A A A C C A C C C C C V v M w.w.s.c W.{.{.+X%X%X>X5XyX5X4XtX5XtX2X>X$XXXY.Q.W.,.>.N G 1.#.E ",
"d.d.s.s.s.<.s.F.G.G.G.H.8XH.G.G.G.G.H.H.H.G.H.G.G.I.L.R.).).W.^.+X&X-X<X>X2X2XuXsXpXhXpXuXpXtX5X2X<X X_.'.T.z l f O.#.E ",
"]. X/././.(._.[.{.{.[.{.}.{.{.}.{.{.{.[.'.}.{.{.{.{.{.{.{.oX@X@X-X5X2XyXsXtXsXcXgXcXzXjXjXaXjXaX1X<X<X$X].).Y.c B y.0.T ",
"}.}.}.}.}.}.}.}.}.}.}.}.}.}.}.}.}.}.}.}. X[.}.}.}.}.}. XOX;X;X>XtXtXtXjXjXcXlXzXlXlXlXzXlXlXcXcXsX1X5X5X$X'.(.x T u.7.Y ",
"&X;X&X;X&X-X-X-X-X&X&X-X&X-X;X&X-X;X&X&X-X&X-X$X&X&X-X+XoX%X,X=XiXpXhXzXlXzXlXlXlXlXlXlXlXlXlXzXzXsXyX5X2XXX}.K.b +.#.E ",
"OX%X%XOX%X+X+X+X%X+X%X+X+X+X+X+X+X+X+X%XOX%X+X%X%X+X+X-X*X=XpXsXgXxXzXlXlXlXlXlXlXlXlXlXlXlXlXlXlXzXgXiX5X>X[.T.c g.#.( ",
",X,X,X,X,X,X,X,X:X,X,X:X,X,X,X,X:X:X,X,X,X:X,X,X>X,X:XyXpXgXlXzXzXzXlXlXlXlXlXlXlXlXlXlXlXlXlXlXlXzXcXhXtX*X+XT.x z n 2 ",
"hXgXgXgXgXgXgXgXgXgXgXgXgXgXgXgXhXgXgXgXgXgXgXgXgXgXgXcXzXzXzXlXlXlXlXlXlXlXlXlXlXlXlXlXzXzXzXlXlXlXzXfX6X4X+X/.D.z : 9 ",
"zXzXzXzXzXzXzXzXzXzXzXzXzXzXzXzXzXzXzXzXzXzXzXzXzXzXzXkXzXlXlXlXzXlXlXlXlXzXlXlXlXlXlXzXlXlXlXlXlXlXzXcXsX5X<X].).8Xg.g.",
"lXlXlXlXzXlXlXlXzXlXlXlXzXlXlXlXlXlXzXlXlXlXlXlXlXlXxXdXlXlXlXlXlXlXlXzXlXlXlXlXlXlXlXlXlXlXlXlXlXlXlXzXgXtX<XoX.X8XwXv.",
"lXlXlXlXzXlXlXlXlXlXlXlXlXlXlXlXlXlXlXlXlXlXlXlXlXzXlXdXlXlXlXlXlXlXlXlXlXlXlXlXzXlXlXlXlXlXlXlXlXlXlXxXhXuX,XoX_.7X@.=.",
"lXlXlXlXlXlXlXlXlXlXlXlXlXlXlXzXlXlXlXlXlXlXlXlXlXlXlXdXlXlXlXlXzXlXlXlXlXlXlXlXlXlXlXlXlXlXlXlXlXlXlXlXhXiX:XoXQ.S.D T ",
"lXlXlXlXlXlXlXlXlXlXlXlXlXlXlXzXlXlXlXlXlXlXlXlXlXlXlXdXxXzXlXlXlXlXlXlXzXlXlXlXlXlXlXlXlXlXlXlXlXlXlXlXgXtX<XoX~.d.O.( ",
"zXzXzXzXzXlXzXzXzXzXlXzXzXzXzXzXzXzXzXzXzXzXzXzXzXzXzXdXlXlXlXlXlXlXlXlXlXlXlXlXlXzXlXlXlXlXlXlXlXlXzXcXsX5X>X}.W.<.} / ",
"jXjXjXjXjXhXjXcXjXjXjXjXjXjXjXjXjXjXjXjXjXcXjXjXjXjXjXdXzXzXlXlXlXlXlXlXlXlXlXlXlXlXlXlXlXlXlXlXlXlXzXgX6X3X@X XL.<.[ E ",
"3X3X3X3X3X3X3X3X5X3X3X3X3X3X3X3X5X3X3X3X3X3X3X3X3X3X<X4XpXgXlXzXzXzXlXlXzXlXlXlXlXlXlXlXlXlXlXlXlXzXcXgXtX:X+X).f.:.W W ",
"-X:X-X-X-X>X-X-X:X-X>X-X-X;X-X-X:X-X-X-X-X-X-X-X;X-X;X<X*X=XpXsXfXcXzXlXlXlXlXlXlXlXlXlXlXlXlXlXlXlXfXiX5X>X{.W.>.' ..E ",
"%X%X%X%X+X+X+X+X+X%X%X%X+X%X%XOX%X%X%X%X%X%X%X%X+X%X%XOXOX+X,X=XuXaXjXzXlXzXlXlXlXlXlXlXlXlXlXlXzXaXyX6X<XOX{.P.Z ....( ",
"{.{.{.{.{.{.{.{.{.{.{.{.{.{.{.'.{.{.{.{.{.{.{.{.}.[.}. XoX-X;X<XtX6X6XjXjXjXzXzXzXzXlXzXlXzXcXcXsX1X6X5X&X{.Y.>.[ ..} E ",
"E.R.I.R.I.!.(.`._._.).(.Q.)..X.X).~..XW.).(.`.`.[.{.{.{.{.+X+XOX-X5X1XtXfX6XsXcXfXcXzXjXjXaXjXaX1X<X<X@X[.Y.7X4.} ..W Y ",
"3.R R B M [ <.<.h.h.w.%.0 %.g.t.6.4.:.' =.<.>.>.d.0X0XR.W.T.T.T.#X@X-X<X:X2X2XuXsXpXjXpXuXpXtX5X3X>XoX{.`.7XF @...} ..E ",
"d 9 q q u h ; M N N 3 @ . = B m N N N n 3 b b b b v b b h z x z Y.'.'.+X&X%X>X5XyX5X5XtX5X4X5X3X&X@XT.K.S.a P f h G f 5 ",
"X X # & * & & 9 # X     X u L w t Q h w 9 w 9 7 8 8 7 q - t z d c Y.T.].|.'. X&X@X+X&X@X&X+X&X X[.Y.x - , L P & + @ @ + ",
"9Xb.l.x.g.6.w.6.=.:.r.h.l.wXeXm.v.i.1.=.6.t.t.w.h.x.` ` 4.1.' :.O.*.J.W..X`.}.}.}.{.oXoX[.oXU. XE.9Xl.b.m.A.z.E ) g.r.:.",
"rXA.C.v.p.i.a.a.u.a.n.C.A.A.A.B.k.7.2.9.u.a.a.v.A.C.1.5.p.q.0.q.9.3.h.d.h.7X8X0XI.~.E.E.~.I.!.8XM.M.j.z.n.B.i.} t.wXA.z.",
"q.| | ( ! ( | | | | _ O._ ( E E Y E ( X.| | @.3.3.@.P ) 5...} .. .+.[ [ F D Z A S #.Z Z R V } X.+.O...O.....W L ( q.2.E ",
"7.U T Y Y T T T { T T T U E Y T W }  .| } O.3.7.+.} L ! +...{ |  . .| +.O.o._ O.O.../ / U ~ W | |  .| X...W E G I ..X.E ",
"2.E E E T { { { { { T  .{ { ~ | .. . .X.} #.0.3.#...P L O.O... .} | } | { { { { ~ ~ ! ! ! Y ( O.+. . .+.| / Y G P 2.#./ ",
"..E E E ~ { ~ { { { {  .;. .| |  . .X.X.@.8.2.+.X.@.P L O.+.} ..} W { T ~ T { { T T W ( W { | ;.;.|  . .W E T J ~ 2.#.E ",
"1.T T | { { T { T { o.;.X. .| {  . .X.@.@.8.#.+.....G P 2.+.W } | ( T ( T T { { { { | | | | +.2.2.+. .| E / | Y ` 7.2.E ",
"7.U | T { { { {  .{ {  .} |  .X.#.2.@.@.@.#.#. . .W f G +.+.| | T T W T { { { { { { | | +. .+.+.O.X.X./ Y | X.Y E q.#.E ",
"1.T { { { { { T W ........+.+.2.9.8.@.+.2.#.@. . .E < 6 O.+.( } | { } ( { { ( T } ..}  . . . .X.X. .X.| W X.+.E ` q.3.W ",
"9.T { { T { { { | ....+.#.@.@.#.2.#.+.@.$.#. . .X.I % y O.+.{ } } | } } ..| } } | ....@. . ... .+. .X...X.+.2.( @.q.#.E ",
"7.T | { { { T | X.@.8.2.@.X. .X.@.X.+.+.@.@.X.....I : d 5.2.W | | W ..( W ( } ..+.7.9.@.X.......+.+.+.#.2.2.2.E G ' @.( ",
"9.| | T { | o. .@.3.8.#.[ X.X.X.#.#.#.#.+.+.@.....E 3 ) j.7.{ } ..} } ....} } O.y.a.u.#.X.X. . .3.9.9.9.8.8.2.E P 7.8.W ",
"7.W | _ ( | X.@.5.2.O.| ......O.;.1.O.O.X.O.....E ! n ' x.6.W ....| ( ..| | ..2.y.u.7.O.O.+...2.q.q.5.2.@.#.2.E ' y.3.E ",
"5 = 4 5 6 6 u f 4 4 2 e e : = : > $ $ $ $ % 6 5 : o o , U B 6 f 6 y 5 5 u y N J _ / K y 5 J E E E I d * 6 Y P 2 2 G 6 < ",
"k r r y d h d e g k g e * 9 j r 9 9 0 7 7 j l h g j j %.1.` h g d < < e e e Q ^ f : o @ g ^ / / P d : 9 g f 5 < g h g e ",
"9Xc.c.c.c.x.t.j.m.c.j.t.E <.m.c.x.c.c.j.c.b.m.z.p.c.m.eXeXc.y.j.x.g.l.l.c.x.m.c.4.n ^ g.n.n.z.j.p.r.p.v.b.t.@.4.x.b.v.r.",
"Z.B.B.C.C.B.z.B.V.z.z.t.L 6.V.z.B.B.v.v.v.v.N.k.a.v.n.V.c.p.q.a.z.c.C.A.V.V.V.B.3.B r.rXC.B.z.a.a.M.N.V.V.a.q.u.a.z.z.u.",
"X.[ +.9.q.y.q.7.2...@./ 1 ) y.#.+.2.| ( | | #.2.O.........| W ........@.X.X...#./ 6 6.a.#.@.#.+.+.+.+.+. .+.+.@.......( ",
" .{ #.9.9.8.@... .X.X.E 4 >.z.3.+.2...| X.2.9.#. .| ..| ( ( | | { { [ { [ {  .+.( y ' q.@.[ X.X. . .{ { }  .X.X.......W ",
"8.2.y.0.5.O.......X.@./ 5 ' y.3.8.2.@.#.0.0.0.+. .+.+.X.X.X. .+.+. .+.+.+.+.@.#./ 5 ' u.#.@.@.@.+.X.+.+.+. .@.@.@.@.#...",
"0.9.3.O...} ..( |  .+.E < G | | | ( } | +.2.+. . . . .| O. .|  .X.X.X.X. . .X.X.E N 6.k.+. . . .+.|  . .X.X.X. . .+.#.( ",
"q.#.+...( ( } ..+. .+.! % n O.( E E E W | +.#. .| +.+.| |  . .+.X.X.X.X.X. .X.X.W E i.j.+. . .+. . .X.X.X.X.+.X.o.+. .| ",
"3. . .X....... .|  .O./ 2 ) y.O.| W W .. .@.X. . . .X.( | |  . .X.X.X.X. . .X.X.( L 1.0.+. . . .+. . .+.X.+.X.|  . . .{ ",
"@. .+. . . . . ...X.+./ 5 4.z.3.|  . . .X.@.+. . .X.| | T ( | +.+.+.#.X. . . .+./ f E #.+. . .+.+. . . .X.X.+. . . . .( ",
"#. . . . . . .X.|  .2./ , ` e.@.X.X. . ...X.X. . .| | E T W W | #.#.#.@. . . .+.( L 1.q.+. . .+. .+. .+.X.X. . . . . .| ",
"#.| ..| }  . ...}  .#./ % L 2...} } W E W | ..X.| | Y Y T W T |  .+.#.@.+. .o.O.( K ' q.+.|  . .| | X..... .X. . .|  .( ",
"#. .X...} X.......@.8./ , :.u.O.{ W W W W W ( | ( E T { | | | | ......( ....|  .! 5 T 0.8.X.+.+.+.X. . .X.X.+.X.O.+.+.| ",
"1.........W ( .._ @.@.I 4 >.i._ T / / ( ( ( / ! Y ! Y W _ o.o._ ..W / I I / ( X.^ q ) e.@.o.O.O.( _ _ O..._ O.O...O.O.( ",
"< 1 6 6 3 % & # $ * & . . , m , = , = : % % > : $ $ % > , , , 2 , , : o o % , 4 % o 3 H 4 % $ # O + @ = = = 3 u e e < & ",
"r j h h g 9 0 0 0 0 s j s Q *.Q l Q g t 9 0 p i w r 8 & p l k p Q l i r i k l t w l *.-.l r 0 s s s z &.p &.*.4 O @ q # ",
"wXc.c.c.x.a.b.wX9Xm.wXm.c.wXrXV.v.c.c.c.n.m.m.n.v.j.o.-.n.V.c.V.C.k.j.b.n.A.n.j.j.V.qXqXV.N.C.wXqXwXeXwXn.C.B.J f g.n.t.",
"A.z.B.z.a.z.V.A.Z.C.V.z.M.v.v.z.p.p.a.j.c.n.V.v.k.i.W ' V.v.u.k.j.p.k.k.z.z.z.a.j.z.N.N.z.k.N.B.V.C.V.k.i.y.6.y Q n.Z.k."
};
