/* XPM */
static char *_f0b59f30f8f42f5fea535d94bbcefb17erGKWvVavZWCEyV[] = {
/* columns rows colors chars-per-pixel */
"60 60 245 2 ",
"   c #00061E",
".  c #35160B",
"X  c #590301",
"o  c #4D140C",
"O  c #581A07",
"+  c #670500",
"@  c #671B03",
"#  c #711005",
"$  c #4D230A",
"%  c #5B2208",
"&  c #572616",
"*  c #662709",
"=  c #782706",
"-  c #7B3108",
";  c #642A15",
":  c #682916",
">  c #642D1A",
",  c #762B15",
"<  c #6A3117",
"1  c #7B3416",
"2  c #74331B",
"3  c #7A361A",
"4  c #4E3127",
"5  c #58352B",
"6  c #583B34",
"7  c #6A3428",
"8  c #7B3B22",
"9  c #763928",
"0  c #783D34",
"q  c #7E4127",
"w  c #7A4438",
"e  c #3A3B78",
"r  c #5D3C5A",
"t  c #6E3450",
"y  c #4D3967",
"u  c #5F475F",
"i  c #754C4F",
"p  c #574F6D",
"a  c #6E506E",
"s  c #8F1B0E",
"d  c #893407",
"f  c #932F13",
"g  c #863816",
"h  c #843A1D",
"j  c #8A3D1E",
"k  c #A22E1D",
"l  c #A7341E",
"z  c #B13D1E",
"x  c #831D2F",
"c  c #833E22",
"v  c #8C3E22",
"b  c #8D352B",
"n  c #883F28",
"m  c #A63822",
"M  c #AC3C23",
"N  c #8C431C",
"B  c #98431D",
"V  c #A84A02",
"C  c #B24D0A",
"Z  c #A5481A",
"A  c #AB4C1C",
"S  c #B26C0F",
"D  c #8C4223",
"F  c #88462A",
"G  c #8D452B",
"H  c #934425",
"J  c #9A4524",
"K  c #984826",
"L  c #9B4A26",
"P  c #944629",
"I  c #954A2C",
"U  c #9C4B2A",
"Y  c #96522D",
"T  c #894837",
"R  c #954A35",
"E  c #8A5339",
"W  c #9B5235",
"Q  c #99553A",
"!  c #A84225",
"~  c #A54B25",
"^  c #AC4D24",
"/  c #A44D2A",
"(  c #AA4D2A",
")  c #B24224",
"_  c #B44928",
"`  c #BA4D2B",
"'  c #A25725",
"]  c #AD5126",
"[  c #A5512C",
"{  c #AC532C",
"}  c #B1542D",
"|  c #B8562B",
" . c #A94C33",
".. c #A45433",
"X. c #AD5432",
"o. c #AD5934",
"O. c #A45739",
"+. c #A45A3A",
"@. c #AC5B3A",
"#. c #B25532",
"$. c #B35A34",
"%. c #B45D3A",
"&. c #B95D39",
"*. c #AF6C2A",
"=. c #B4782A",
"-. c #AB633C",
";. c #B5613D",
":. c #B9613D",
">. c #B16A39",
",. c #B77A38",
"<. c #C85A1F",
"1. c #D56D1E",
"2. c #C65A28",
"3. c #CC6329",
"4. c #D46C27",
"5. c #DB772B",
"6. c #C46B32",
"7. c #C87639",
"8. c #D87935",
"9. c #E17D2B",
"0. c #8B5746",
"q. c #8F544C",
"w. c #985944",
"e. c #A95B43",
"r. c #A75E54",
"t. c #95614F",
"y. c #9B624D",
"u. c #9A6655",
"i. c #9F705C",
"p. c #AB6547",
"a. c #B56442",
"s. c #B96442",
"d. c #B46A45",
"f. c #B96945",
"g. c #B7674A",
"h. c #B66B4B",
"j. c #BB6C4B",
"k. c #A97A4B",
"l. c #B87349",
"z. c #BB724D",
"x. c #A46957",
"c. c #AC6D52",
"v. c #B76E51",
"b. c #AA735A",
"n. c #BC7254",
"m. c #B57659",
"M. c #BD7659",
"N. c #BD795D",
"B. c #825671",
"V. c #906C69",
"C. c #AC7662",
"Z. c #B47B64",
"A. c #B57C67",
"S. c #BD7C62",
"D. c #C06C4C",
"F. c #C17553",
"G. c #C17759",
"H. c #C27B5C",
"J. c #C37E61",
"K. c #BA832A",
"L. c #BD9A3F",
"P. c #D79B19",
"I. c #FEA415",
"U. c #C88D33",
"Y. c #D88636",
"T. c #E4842C",
"R. c #E88528",
"E. c #EC8B2B",
"W. c #EC902D",
"Q. c #F3952B",
"!. c #EB9631",
"~. c #F49C32",
"^. c #F8A535",
"/. c #F0A930",
"(. c #BC8354",
"). c #B98467",
"_. c #BC826B",
"`. c #B39171",
"'. c #BCA475",
"]. c #CE934C",
"[. c #C5885C",
"{. c #D5AA42",
"}. c #D1AB4C",
"|. c #E7B048",
" X c #C48265",
".X c #C4856B",
"XX c #C98669",
"oX c #C9866A",
"OX c #D1936C",
"+X c #C58B75",
"@X c #C48C77",
"#X c #CB8C73",
"$X c #CA9476",
"%X c #C4927C",
"&X c #CC937B",
"*X c #D49777",
"=X c #DEBC69",
"-X c #DCB174",
";X c #E1AC61",
":X c #E4C654",
">X c #E9CD56",
",X c #DCC475",
"<X c #ECD572",
"1X c #F3E176",
"2X c #29528D",
"3X c #386898",
"4X c #005CA1",
"5X c #1369AF",
"6X c #2C6AAC",
"7X c #454F8A",
"8X c #4B6F95",
"9X c #677B99",
"0X c #727995",
"qX c #667EA7",
"wX c #847996",
"eX c #2588BB",
"rX c #758697",
"tX c #5692AF",
"yX c #0A8FD5",
"uX c #3195CF",
"iX c #08A1DD",
"pX c #109CE3",
"aX c #229DE3",
"sX c #03A6EA",
"dX c #1AA8EA",
"fX c #24A2E4",
"gX c #4397C9",
"hX c #5EA7CE",
"jX c #9F999F",
"kX c #C99783",
"lX c #CE9982",
"zX c #D19781",
"xX c #D19B84",
"cX c #D29E89",
"vX c #D4A28B",
"bX c #D2A590",
"nX c #E6AD8A",
"mX c #ECB794",
"MX c #EEBA95",
"NX c #C2B3AB",
"BX c #DBB6A4",
"VX c #EFCA92",
"CX c #F9EE92",
"ZX c #F3C9AD",
"AX c #F7EEA7",
/* pixels */
"BX#XN.j.n.n.s.;.s.n.H.J.S.n.j.M.N.n.M._.H.H.M.M.M.J.N.@.Z.zX XH.N.j.d.e.#.$.;.g.XX$X#XH.G.XX.XH.H..XXXj.g.M.H.( @.&XxXF.",
"cXj.o.{ { / ~ { { ] ^ ^ ] X.&.a.a.$.{ ^ ( ] ^ ( ( ] { h P g.&.{ { / L / / { ] ' ] $.} $.#.} { { } { ~ / / ~ { f +.H.h.B ",
"kXa.#.{ / / / #.$.#.} #.#.&.g.z.g.a.&.X.#.#.#.#.#.#.X.D W n.g.X.[ U L [ { { [ { } &.&.$.#.#.#.#.#.X.../ { { { L J -.;.U ",
"kXj.&.] { ( { { { { #.} #.a.g.f.;.;.%.&.$.#.#.} #.#.X.B e.J.g./ [ / / ] { { { { #.$.;.$.$.#.#.#.#.{ / / { { X.H h [ $.[ ",
"bXH.:.] { ( { { [ { ] { $.f.:.>.$.$.;.$.$.} #.} } { ( j W z.a./ [ / ~ { { { { { o.&.&.%.#.#.#.#.{ / / ( { } } L H @.s.[ ",
"bXH.&.] { ] [ { { ] [ { $.:.:.$.$.$.$.o.} } #.#.} |  .h U g.%.{ / / { [ [ { { { { %.&.&.#.o.#.../ / / { ] } } U H p.s.[ ",
"zXD.&.{ { ] { { { [ { { #.;.;.$.$.$.$.} #.#.#.#.} | ..j W j.%./ / / { } { } } } #.%.&.$.#.#.#.{ / / { { { } #.P g ..;./ ",
"&Xf.;.{ { { [ { { { ] } #.:.:.$.} $.} $.#.#.#.} } }  .c I s.X./ { { { } } } #.X.#.$.%.X.#.#.{ [ U / ^ } } ] X.H h o.s./ ",
"xXj.&.#.} { { { { { ] } ;.:.;.#.#.#.#.#.$.$.#.} ] | { H W v.%.( #.{ ] { ] } { { { { } } #.{ / J P / { } } } } J U n.j./ ",
"xXn.&.#.#.{ { { { { ] $.;.:.&.#.#.#.#.#.} #.#.#.} } X.J O.n.&.{ #.{ { { { { { { ] ( ( { / U P P ~ { #.} { } ] H D a.a./ ",
"vXH.a.$.&.#.$.$.} $.} $.;.s.;.$.#.$.$.&.&.&.#.( } #.#.v P a.a.&.%.$.{ { } { { { ( ( / / U P P ( { #.#.{ X.#.} H n a.:.[ ",
"kXh.@.{ X.....O.....[ { o.@.o.*.X.@.X.#. .A ,.K.>.{ / c G a.e.O.@...U U ../ ../ U / / / P H J / [  .[ [ [ ( { j G p.-.L ",
"r.s , % O @ % X X + = g g & & & & X + F L.,X1X:X*.v 1 O # = @ X X + X + + = * = - : < 2 3 1 - = + + @ * d - * o X # = O ",
"kXx.0.q E 0.E 0.t.x.u.p.Q < < q E =.}.<XAXCX,XK.R O.Q E w.u.0.i 0.y.0.u.b.y.Q t.y.F * 8 F F w.y.y.u.y.y.x.Q T 0.t.t.0.0.",
"ZXbXXXS.+X&X#X&XvXbXxX&XJ.U U.}.:X1X<X1XCX{.S >.M.G.G. X&XvXvXlXcXxX#XxXcX#X#XvXlXo.L N._. X#X$X&XxXxXlX&XXXXX&XcXcX&X+X",
"bXZ.h.n.M.N.S.G.N.N.G.J.g.,.>X>XCXVX,X:XU.=.*.-.f.f.g.h.n.N. X)._.H.M.F.F.j.M. XS.L G S. XH.H.n.j.v.M.M.M.n.N.S.J.n.n.v.",
"XXA { ] ] ] A ] ^ ^ A | S {.|.<XCX(.P.K.}.{.Y t.V.e.A Z A ^ A C A ^ } } } } ] ^ ^ h I n.j.$.} ^ / Z Z ~ { ( ] ^ A ^ A B ",
"$X;.} } } #.#.X.} X.^ [.,X:X{.>X{.K.}.<X<X=.' rXyXqX[.H.D.:.s.D.| | #.$.$.$.#.#.} D W G.n.#.} } { ] ^ ~ { { X.{ X.} } [ ",
"lX:.#.#.%.$.$.#.#.$.{ d.,X}.{.}.K.{.1X:XU.*.T.`.eXuXNXZXmXnXnX*X*XD.#.#.$.$.$.$.$.j I h.s.} } } } } { { ( { ..#.X.#.{ [ ",
"&X:.#.%.;.&.#.#.#.#.o.{ ].:X,X=X}.K.K.=.=.U./.~.b.4XjXmXnXMX*X[.vXh. .#.} } } #.@.c G %.$.] } } } } { { { { #.#.#.X.{ [ ",
"xX:.;.:.:.&.#.{ X.X.#.f.VX=X].(.].-.' =.S 7.!.~.5.i u N.j.OX[.F.OXe.R #.X.o...#.#.v R a.$.] } #.} } ( ( { { } #.} { { [ ",
"xX:.f.f.:.#.[ / / { _ ].-X,.k.`.(.-.>.=.K.(.|.^.^.4.k B L -.+.c.b.R R #.X.{ { #.#.H I a.;.{ #.#.#.} ( { { ] #.} { { { [ ",
"xXz.j.;.$.{ U / / { X.7.=.Y '.nX*Xd.OXvXnXjX`.Q.~.T.M m } #.{ R q.b #.#.#.#.#.o.#.U H @.%.( #.#.#.X.( ( / / } ' { { } ~ ",
"vXn.f.&.o.[ / [ { X.;.d.W Q *XnXOXl.*XmXmXjXtX|.E.9._ k ( ..&.5.E.Y.6.#.#.} } } { F 1 U ..( ] } } } ] ( / / { } { } } [ ",
"cXj.s.$.{ / / { { %.s.D.@.c e.N.l.;.n.OXnXhXyX`.9.3.A z ` | 3.Q.~.~.R.<.` #.o.o.[ 9 3 X.X./ ] { } } { { ( { #.#.{ [ { U ",
"vXD.F.-.{ { #.$.$.s.j.D.o., n  .| 7.>.OXjXuXyX9X] ) 1.R.9.9.4.9.E.1.3.z V | | C V h G &.$.( { } } } } } $.$.%.&.} } ^ / ",
"%Xl.(.p.P v U U W ..Q T F 6 q.U.E.~.{.NXfXiXyX4Xp Y.E.R.E.9.T.W.~.9.m a B.V.t.0X0Xi d #...H J U U P U I I Y U I J U L D ",
"x.p.k.(.w.X & & O & $ .     8X'.I.^.|.;X'.`.rX2X).{.Q.R.Q.~.E.T.E.3.x 6XsXiXuXuXdXgX9Xr.U d d = # = @ + X # d ; $ * * $ ",
").>.-.d.XXm.E Y Q F q E b.$XjXtX].E.^.I.I.I.E.5.!.~.5.2.5.W.T.2.3.<.x 6XfXfXaX8XuXpXsXqXx.h.c.c.b.b.x.x.C.A.n.I 2 E y.T ",
"bXc.-...l.V.rXjX.XS.M.$XVXZXjX3X7X-.4.8.8.5.4.1.8.T.2.2.` ` 3.` M 2.b 7X3X7Xy r 7X3X6X5XB.g.H.XX#X#X XXX#X&XXX&.@.$X$XN.",
"bXm.>.-.i 6XyXhXVXMXnXnXZXnX>.Y p y b m m m M M l m M M _ ` ` ` M l b 2X2Xp i i u e 2Xe y.8.3.8.Y.Y.:.;.g.d.@.U @.H.G.a.",
"&Xh.} B u 4X5X9XmXZXmX[.*X*Xm.p.R T / _  .M M M l k s s k m m ) _ l #.[.XX].|.~.D.r.g.].~.^.E.9.~.~.2.~ V V V g d ^ } ! ",
"&Xs.../ L i u q.l.*X*X[.n.-...U ( ] } } } { o.%. ./ / g f k k m M M 2.R.E.E.Q.E.2.` 2.R.~.~.^.Q.E.9.z a qX0XB.9XwXr.&.[ ",
"@Xo.[ L / ! Z ! ~ ~ -.h.-.~ { { { { #.} } $.:.;.a.&.o.v P X.m k m M ` ` 2.3.9.3.` ` ) 2.5.R.E.W.5.2.b 6XsXsXgXgXsXrX| [ ",
"+X%...~ (  .! ( ( ~ ~ ~ { ;.} } { } X.#.$.;.;.;.#.#.X.v U ;.#./ ~ m m ) ( ` 2.2.` | ` z 2.3.2.5.5.z x 5XaXaXgXgXfXuXwXA ",
"lXn...~ ( ( ( ( ( ( { { { { { } { $.&.$.$.$.&.$.#.#./ c I ;.X.] [ ( U m m M M ^ ` ` 2.M z _ _ ) 3.) t 6X6X6X2X3X6XyXuXV.",
"kXg.X.~ ( ( ( ( ( ( { { } { o.$.&.;.;.%.#.%.a.$.#.#.U , D @.#.{ { ( { { ^ ~ ! l m k k k l k M m ) M x y e e y y e 2X6X2X",
"lXs...( ( ( ( ( ( [ { X.o.$.;.$.;.:.;.$.%.&.&.#.#.X.H ; D ;.X./ [ { { [ [ { { { / ( / / M m m m m M (  .w.Q O.W e.q.i r ",
"lXg.o.~ ( ( ( ( ( { o.%.;.$.o.} #.-.} o.%.%.$.$.#.{ H & c ;.o.{ { { { ' { [ { ' { &.s.;.#.#.( M M  .#.&.$.&.:...m X.%.~ ",
"%Xd.$.( ( ( ( ( { $.&.s.;.} } } #.%.$.%.%.#.$.#.#.{ U - Q n.%.[ { ] { { { { { { $.n.M.s.$.#.#.{ #.a.a.a.&.s.s.W c O.;.{ ",
"kXh.$.] { { { X.$.s.a.&.X.#.} #.$.&.a.$.$.$.$.$.#. .U g p. Xa.( } } { { { } X.$.g.G.D.:.;.$.$.$.d.l.f.a.%.&.;.[ W n.j.{ ",
"C.H c h c v v H G G n h c c 3 3 8 c 9 2 2 2 8 n j 3 : O F ..H N D D G D H v H H ..@.O.I N D [ U ....R F N U U F 8 I I 3 ",
"C.g > & < , 2 2 , < 2 2 > & & & & o . o . . > n 3 > & > n [ G 3 3 < ; % < < 3 D H 3 * X * 8 H L H h * $ > c 3 ; ; 1 2 : ",
"BX`.Z.Z.C.Z.m.c.c.Z._.b.b.Y w._.A.C.A.C.C.C.A.A.m.m.Z._.kX&XN.v.m.c.x.b.b.b.C._.m.I 2 q.C._.S.M.v.c.p.b.Z.c.@.O.c.Z.Z.c.",
"ZXcXzX#X&X&X*XXXXX*X#XXXJ.[ p.&X#X#X#X#X#X#X#X#X XJ.#X&XxX&XG.F.XXXX#X&X&X$X*X&XJ.{ Q $XxX*X#XXXJ. XXX#X*XXXD.D.H.#XXXH.",
"kXe.#.s.g.n.n.j.g.f.;.;.@.3 R n.d.s.g.%.O.o.o.a.s.%.%.%.&.$.{ ..o.-.;.s.:.;.;.a.;.N W N.n.:.;.%.&.a.s.s.a.;.;.;.:.%.%.{ ",
"&X#.) #.;.f.s.;.$.X.X.#.[ 1 Q  Xs.&.&...^ { %.g.%.` ( } { ....( ( _ ^ A ^ ^ ] #.$.v P d.>.] { } { } _ ^ ~ _ { $.} { { { ",
"cXs.a.s.z.g.&.o.{ X.$.$...h Q N.f.s.s.&.&.f.j.j.&.$.#.#.#.X.} #.$.$.$.$.$.$.$.&.%.v F j.D.$.$.;.$.#.%.$.$.$.$.$.;.$.&...",
"cXf.g.s.;.o.{ { { { #.#...2 v X.#.X.X.{ X.&.a.$.#.X.#.#. .#.#.#.#.#.#.#.#.#.#.#.#.N R v.j.} #.#.#.#.#.#.#.#.#.#.#.$.$...",
"vXg.s.&.o.[ [ { { #.#.#...< 1 X.{ / U / / { $.$.#.` #.#.X.#.#.#.#.#.#.#.#.#.` #.#.B e. Xj.} #.#.#.#.#.$.#.#.#.#.#.#.#.#.",
"xXs.%.#.#.X.X.{ } } #.#...2 I v.@./ / ( { { $.$.#.#.#.#. .{ { #.#.#.#.#.#.#.#.#.X.L ..n.s.#.` #.#.#.#.#.$.$.#.#.#.#.#.( ",
"xXa.#.#.} } #.} #.#.#.#...3 Q  Xs.X.( } #.#.%.#.#.#.#...[ / ( #.#.$.&.$.#.#.#.#.X.G N o.%.#.X.#.#.#.#.#.#.#.#.#.#.#.#. .",
"xX:.#.#.#.#.| #.#.} #.&...2 I n.:.} #.#.} { $.#.#.#.#.( / / / ( } ;.;.;.$.#.#.#.#.U I d.a.#.#.#.#.#.#.#.#.#.#.#.#.#.#.( ",
"lX:.#.} } } } X.#.{ { ;...< h &.o.{ { { / ( ..#.#.X./ / U / / / { #.#.;.$.X. .#.X.I I f.a.X.#.` X.` #.#.#.#.#.#.#.#.#. .",
"cXs.#.o.} { } } } { } &..., Q F.&.] ( / / / ( { { ( / / ( ^ { { { ] X.} { ..#.#.#.v h &.D.` $.$.#.#.#.#.#.#.#.#.#.#.#.} ",
"lX:.o.o.X.X.{ { X.X.@.;...1 w.J.@.L / [ ..[ [ / U U U /  .X.X.X.o...[ U U U [ { ..8 8 p.h.#.$.$.@.X...@.#.X.$.#.$.$.$...",
"Z.2 2 3 h g , & & > > > % . , b , , = , , > ; , : : : : : , , 2 , g , : o ; , , , O @ m v < : & & $ % , , , d v 8 2 8 > ",
"i.& 7 9 F c 7 4 4 5 5 6 6 6 w R T b T 9 7 5 5 9 7 7 5 & ; 0 b 0 0 G 9 7 7 0 0 9 7 9 T e.R 7 6 6 6 6 i T 0 0 q.h O $ : & ",
"bX%X`..X.XS.S.A.%X%X%X%X@X_.&XbX&X X_._.S._.`.@X_.S.M. .p.+X@XJ.@X.XS.A._.kX@XJ.Z._.%XlX&X.X.X&XkXkXkXcX+X+X#X..= x._.m.",
"BXxXXXXXJ.H.J.+X%X&X#X#XXXH..X.XS.M.N.F.J.XX#X#X.XJ.n.Z e.#XJ.G.J.G.F.J.J.J.J.J.H.J. X XXXJ.J.XX.X+X#X.XN.m.v.F h S.zXJ."
};
