/* XPM */
static char *result[] = {
/* columns rows colors chars-per-pixel */
"60 60 250 2 ",
"   c #160D09",
".  c #2D0705",
"X  c #350A03",
"o  c #2F1511",
"O  c #470804",
"+  c #560B09",
"@  c #4A1804",
"#  c #581806",
"$  c #4F1612",
"%  c #6D1106",
"&  c #671907",
"*  c #671B14",
"=  c #731C17",
"-  c #5C240C",
";  c #5B2814",
":  c #542A18",
">  c #67280A",
",  c #752705",
"<  c #7B3807",
"1  c #692A15",
"2  c #722C13",
"3  c #782813",
"4  c #693318",
"5  c #6C331D",
"6  c #783519",
"7  c #6D3825",
"8  c #753B27",
"9  c #7C3C23",
"0  c #763637",
"q  c #7E410F",
"w  c #7C412A",
"e  c #704439",
"r  c #3C3A64",
"t  c #573A5D",
"y  c #713D50",
"u  c #2B5478",
"i  c #5C4155",
"p  c #794B45",
"a  c #704E55",
"s  c #554F70",
"d  c #674D64",
"f  c #6A546A",
"g  c #75616F",
"h  c #822C08",
"j  c #863702",
"k  c #8C340B",
"l  c #9B2819",
"z  c #863817",
"x  c #843B1D",
"c  c #963B19",
"v  c #B23D0F",
"b  c #A22D1D",
"n  c #A5341D",
"m  c #853726",
"M  c #843D23",
"N  c #8B3E22",
"B  c #92342C",
"V  c #A53621",
"C  c #A93622",
"Z  c #A53C24",
"A  c #A93822",
"S  c #AC3C23",
"D  c #864514",
"F  c #96421B",
"G  c #B64B0E",
"H  c #A8491C",
"J  c #B7471D",
"K  c #854024",
"L  c #8D4225",
"P  c #864528",
"I  c #8C452A",
"U  c #8C482C",
"Y  c #944425",
"T  c #9B4523",
"R  c #974826",
"E  c #9C4B26",
"W  c #944629",
"Q  c #954A2C",
"!  c #9C4B2B",
"~  c #854937",
"^  c #974B34",
"/  c #9B4E32",
"(  c #955632",
")  c #9D5434",
"_  c #94533B",
"`  c #99543A",
"'  c #A34424",
"]  c #AE4225",
"[  c #A44B25",
"{  c #AA4C24",
"}  c #A4442B",
"|  c #AB462A",
" . c #A44D2A",
".. c #AA4D2A",
"X. c #B34325",
"o. c #B84C25",
"O. c #B34629",
"+. c #B54A29",
"@. c #B94D2B",
"#. c #A5512C",
"$. c #A95629",
"%. c #AC532C",
"&. c #B65629",
"*. c #B1542D",
"=. c #BC512C",
"-. c #AC4D33",
";. c #A45433",
":. c #AD5532",
">. c #AE5A34",
",. c #A4593A",
"<. c #AC5B3B",
"1. c #B25532",
"2. c #B35A34",
"3. c #B45D3A",
"4. c #B85C39",
"5. c #AB6625",
"6. c #AD6C23",
"7. c #A7772C",
"8. c #AD752D",
"9. c #B37526",
"0. c #AA6338",
"q. c #B56837",
"w. c #B5613D",
"e. c #B9623E",
"r. c #B77936",
"t. c #CC7310",
"y. c #C65B26",
"u. c #C35A2C",
"i. c #CB6629",
"p. c #D46E29",
"a. c #D7742B",
"s. c #DD7B2C",
"d. c #CC7531",
"f. c #E17C2A",
"g. c #843C48",
"h. c #8F5646",
"j. c #8C5049",
"k. c #985A45",
"l. c #A65C42",
"z. c #B45D43",
"x. c #99624B",
"c. c #9A6652",
"v. c #AE6144",
"b. c #A96648",
"n. c #B46443",
"m. c #B96543",
"M. c #B66A47",
"N. c #BA6945",
"B. c #B2674A",
"V. c #B66B4C",
"C. c #BB6C4B",
"Z. c #AA7248",
"A. c #B9724A",
"S. c #A76B55",
"D. c #B46B51",
"F. c #BC6F51",
"G. c #AC725B",
"H. c #B57354",
"J. c #BC7354",
"K. c #B67659",
"L. c #BB755A",
"P. c #BD795C",
"I. c #916E65",
"U. c #AA7B65",
"Y. c #B37B64",
"T. c #BB7C63",
"R. c #B67E69",
"E. c #B17F70",
"W. c #C1724D",
"Q. c #C17955",
"!. c #C17759",
"~. c #C27A5C",
"^. c #C27D61",
"/. c #B48233",
"(. c #BC873A",
"). c #C98C2F",
"_. c #DF8732",
"`. c #E3822D",
"'. c #EA8C2E",
"]. c #EC922B",
"[. c #F3982C",
"{. c #E58931",
"}. c #ED9632",
"|. c #F09732",
" X c #F39D32",
".X c #CEA234",
"XX c #D3A737",
"oX c #EFA034",
"OX c #F8A535",
"+X c #FAAA37",
"@X c #BA8755",
"#X c #988B7A",
"$X c #B8816A",
"%X c #B88673",
"&X c #B18A79",
"*X c #CD8E50",
"=X c #D4AE51",
"-X c #E0BC50",
";X c #C58164",
":X c #C78666",
">X c #C5846B",
",X c #C9866A",
"<X c #C9896D",
"1X c #CC916B",
"2X c #C48B73",
"3X c #C58B75",
"4X c #CB8C73",
"5X c #C89178",
"6X c #CC937B",
"7X c #D59974",
"8X c #D1957C",
"9X c #DBAF6A",
"0X c #E7C95C",
"qX c #ECD35D",
"wX c #ECD26F",
"eX c #105896",
"rX c #2E538E",
"tX c #34679D",
"yX c #005EA3",
"uX c #0060A7",
"iX c #0A70B6",
"pX c #2A73AD",
"aX c #43598B",
"sX c #515B83",
"dX c #506488",
"fX c #6C6588",
"gX c #667BA7",
"hX c #147BC0",
"jX c #2A82AB",
"kX c #5A839E",
"lX c #4D86AE",
"zX c #6C8EAE",
"xX c #0C8ED2",
"cX c #3097CF",
"vX c #2BA6E7",
"bX c #B39586",
"nX c #9D9CA2",
"mX c #CA9783",
"MX c #D39A83",
"NX c #D8A588",
"BX c #D3A995",
"VX c #E5AD87",
"CX c #EFBA92",
"ZX c #E9B895",
"AX c #C2B4AD",
"SX c #E9D98B",
"DX c #F5C49C",
"FX c #F1E495",
"GX c #F9C8A3",
"HX c #FFD6AF",
/* pixels */
"^.n.%.2.:.#.%.:.:.1.1.%.2.3.e.M.e.2.>.:.1.:.:.-.1.2.#.M v.F.3.>.;.#.! q.7XVX:X$.q.e.4.4.2.3.<.:.2.<.:.;.#.:.:.c <.>XK.[ ",
"D.2.$.%.[  .%.1.1.%.*.*.:.n.N.C.n.3.:.*.*.1.1.1.*.1.! x l.J.2.%.#.R H.VXNX1XZ.$.1.4.2.>.1.*.1.*.1.:. . ...%.%.F / n.w.[ ",
"J.e.%.*.....%.*.%.*.1.1.2.N.C.N.e.w.3.3.1.1.1.*.1.1. .Y H.~.<.-.E 5.VXZXA.0.Q E 1.3.2.2.1.1.1.1.1.:. . .%.%.%.Y M %.2.#.",
";XN.{ %.....%.%.%.%.%.1.e.M.n.2.>.2.4.3.1.1.1.*.*.%.! Y B.F.,.$.h.zXnX:X0.0.E $.1.2.q.2.2.2.1.1... . ...%.%.1.T W <.q.! ",
">XC.+.*.$...%.$.$.$...1.e.m.4.q.>.2.2.2.*.1.1.*.%.1.! z ,.m.2.R dXxXhXa #.%.%.*.1.n.e.2.1.2.1.:... .....%.&.%.E R n.M.#.",
"Q.m.%.%.%.$.$.....%.%.%.2.e.2.*.2.2.1.1.1.1.1.*.*.1.! x z.C.*.$XnXtXuXd $.%.:.*.1.3.e.1.1.1.:.:.! { ..$.%.&.1.W z ;.e.#.",
"W.4.:.%.%.$.#...%.$.%.%.3.e.2.2.*.*.2.%.1.1.*.*.*.*.Q M <.W.7XDXGX#Xa ,.*.:.*.*.1.3.2.1.1.1.%.#.! ..%.*.*.%.:.I 6 >.n.;.",
"L.m.1.1.$.$.$.%.*.%.*.1.w.e.4.1.2.2.2.2.2.1.1.*.*.*. .K ,.7XGXHXCXM.[ $.*.*.>.%.1.:.1.1.1.1. .R T #...*.*.*.*.T / C.C. .",
"!.m.*.1.%.%.%.%.%.$.*.2.n.e.2.1.1.1.1.1.2.2.*.*.*.*.$.Y L.VXGXDX1X$.r.0.{ { %.$.$...-.$.-.E W Y ! $.1.%.*.*.%.Y Q M.m. .",
"^.C.*.2.1.1.:.*.%.*.*.2.e.e.2.2.1.2.1.1.1.1.1.*.*.1.[ ) NXCXVX7X=X).*X8.r.A.>.#....... .R W R  .%.*.1.%.$.*.:.N N <.e.#.",
"^.N.*.4.3.<.2.:.>.:.2.3.e.3.q.q.4.3.4.4.4.2.>.:.1.2.R $XCXDXwX=X.X/.9./..X=X/.$.#.$.%. .R !  .:.:.1.1.:.:.:.:.W Q C.n.#.",
"c M 6 2 2 2 1 1 3 h c N 9 7 7 5 5 2 3 x L N Y W R c _ NXCX9X=X(././.=XqX9X*X/.K 6 5 6 M M x z , = , 2 3 k x 6 # * m 6 > ",
"k.~ 5 7 7 8 8 e ~ ~ _ U 7 @ # - 5 8 ~ ~ w 9 U Q ( D kXnX.X(.@X=XSXwXwXwXFXFXSX=X8.q > 6 6 K P ~ ~ ~ e _ _ I 9 8 e ~ w 8 ",
"BX3XH.>X%X3X2X6XMXmX5X>Xl.k H.$XR.2X2XT.L.P.P.K.J.#XjXjX7.XXqX0XwXqXqXXX-XqX0X-X).$.) G.K.K.2X5X4XmX6X6X6X$X$X3XmXmX3X>X",
"6X!.!.^.,X,X,X<X5X2X,X>X,.Y >X4X>X>X^.!.!.~.!.J.F.#X#XG.7./.=XqX.X).-X0XXX/.t.r.V.F ` >X:X;X:X;X^.>X>X>X;X^.;X<X4X>X>XT.",
"2...%.>.:.:.%.%.:.:.1.2.M 6 K.P.4.e.1.%.>.:.:.1.a.].].f.d.0.9.XXXX/.@X.X9.9.6.>.;.6 ` P.F.e.2.{ [ [ { #.:.:.1.%.+.%.{ E ",
"e.*...%.%.%.+.%.*...%...6 9 H.~.4.2.2.1.1...1.d.oXOX{.M.V.(.r.6.9.9.6.6.6.5.:.+.#.x ,.!.C.*.+.$.{ ..[ [ { %...%...%.{ [ ",
"C.4.*.2.2.2.2.1.1.:.:.;.6 M P.~.2.2.2.2.1.1.i.|.+X|.S.bXVX@X7.9.).9.6.9.6.( :.4.;.x ) J.e.*.*.*.*.*.%...%.%.:.:.1.*.2.%.",
"N.2.>.4.4.2.1.1.1.1.1.-.L U J.C.:.1.2.2.:.1.{.+X+X X@XbXZX1Xb.0.9.9.6.6.6.5.;.2.:.6 / n.>.$.*.*.*.*.%.%.%.*.1.*.1.:.%.#.",
"C.2.e.e.4.2.:.:.:.1.1.1.T Q C.C.:.1.2.2.:.i. X+X+XOX}.A.:X*X2. .;.>.) #.$.#.:.1.:.x ) n.2.+.*.1.&.%...%.%.*.1.1.1.%.%.#.",
"C.n.m.e.2.:. .#.%.:.1.1.N Y N.m.1.4.4.2.:._.+X+X+X+XOXOX[.[.t.G | 1.1.:.;.%.:.1.:.N ) n.<.*.*.1.2.*.......%.%.1.%.%.$.$.",
"Q.C.m.e.:. .!  . .%.1.:.I x :.3.2.2.4.3.%._.+X+X+X+X+X+XoX@XfXg c ..:.1.1.:.1.1.1.T ! w.1.%.1.1.*.%.%... ...%.%.%.%.%.#.",
"!.F.e.2.%. . .%.:.:.4.N.I 6 :.3.#.:.1.1.1.f.OX X+X+XoX].$XcXxXxXaXK #.%.1.1.*.:.#.K x :.:...%.*.*.*.%... . .%.%.%.%.*.%.",
"!.N.2.%.#. ...*.:.n.C.M.U 6 v.z.%.%.%.$.%.i.].].oXOX_.*XBXAXzXxXtX_ 0.<...1.1.:. .5 x :.:. ...*.*.*.......%.%.%.%.%.%.E ",
"Q.u.q.:...%.1.2.4.N.W.m.W 6 B.W.2.4.2.>.y.C f.'.i.p.Q.CXCXCX5XaXs Z.@XB.%.2.2.&.%.6 W e.:...%.1.*.*.*.&.2.2.4.2.$.%.%. .",
"S.,.#.) Q  .;.;.<.v.<.) 8 5 ,.n.<.,.%.&.p.y.J p.v 1.VXGXCXQ.b.u s S.Q.0.#.#.;.:./ 5 I <.;. .#. .;. .! ! ;.,.,.;.#.$. .R ",
"- X X @ + > 1 > 5 4 : o   . % h , 3 z c G o.g.g.0 ^.GXGX7Xq.d uXtXI.,.9 6 6 4 2 2 + h #.F k j , , , , % % , j 1 4 2 2 - ",
"p a e e ~ ~ 8 P w 5 : 0 0 p S.b.h.` ) 0 d aXxXiXeX3XVX4XZ.N.I.yXyXa D m U 9 9 U ^ _ S.P.v.,.,.k.k.k._ j.j.S.l.9 ; w w 8 ",
"mXNX5X2X>XP.K.P.F.V.L.^.3X6XNXMX4X;XC.g uXhXhXtXd Z.J.M.M.M.c.s g ,.1.N.C.n.C.L.J.^.,X4X~.P.^.2X5X4X;X2X6X8X,X2.,.%X4XK.",
"mX>XP.P.H.n.M.C.B.N.H.T.T.T.T.P.A.v.*.d rXf i 0.{ { >.>.$. .k.k.e.e.4.n.w.3.n.N.N.C.m.m.w.3.N.J.P.J.C.C.F.F.M.[ <.>X<XV.",
"F.<.H F F T ' ' { { ' ' H F F F F ' ..E d.).J s.s.+.=.=.@.C l n ..*.1.%.%.......2.2.%.' [ E ' ......%.%...{ { L Y $.>.' ",
"J.3. . .!  .................!  .%.%.%.p. XOXu.i.{.u.@.=.@.O.S V Z ..%.1.%.:.%...%.:. .R E R ..:.:.1.1.1.:.%.Q L L >.w.#.",
"n.:.R  .E | ..........#.%.:.:...%.&.-.s.+X+Xa.O.y.u.=.=.=.@.@.X.O.] ' .... ..... .E R E  .} ..>.1.1.1.1.:.! ! L W <.e.#.",
"n.:.E  .........| ....:.2.1.*.%.%.1...p.oXOX_.] n @.@.=.=.=.=.=.=.@.] Z E ..........%.%.%.%.:.3.n.1.1.1. .E ..T ! z.e.! ",
"L.<.'  .............$.:.1.%.%.%.1.2. .+.s.a.i.@.b S =.=.@.+.+.=.=.=.=.O.' ' ........$.%.:.1.:.3.z.1.:.:. . .:. .Q n.w.#.",
"L.z.' ....| ........%.%.%.%.:.2.4.m.<.] =.=.@.@.S b O.O.C C O.@.@.=.=.=.O.Z } ..| ..#.%.1.1.1.:.2.1.:... .#.:.! E n.q.#.",
"C.3.' ............%.$.:.2.3.3.3.e.e.3.} S u.@.u.S b l l b b X.=.=.=.=.=.@.C ' ....:.$.:.1.*.*.1.2.1.:.:.:.1.3.%.:.C.e.#.",
"J.3.{ ..........%.%.<.3.3.2.2.>.3.4.2.} @.S u.S @.O.b l l b A +.=.=.@.=.O.S V ..$.2.e.2.1.*.*.*.1.1.1.2.2.3.3.$.! 0.3.:.",
"J.3.{ ........%.:.2.e.e.2.*.*.*.1.2.-.z.A u.u.u.@.S X.b ^ <.b C A S O.@.@.S V ' z.C.F.e.1.1.*.*.1.3.4.m.m.m.N.! M ) 4...",
"H.w.%.%.%.%.%.1.e.m.n.4.2.2.&.*.4.z.z.z.b S S u.O.X.O.l z.L.-.V V l S u.u.A b -.C.!.J.m.2.3.2.1.m.C.C.m.4.4.e.#./ F.N.%.",
"0.Q c E Y E E ! ) / Q R R W N Y W Q I N m b X.u.O.u.C C | <.E l o.i.p.f.a.X.b T z.N.,.! !  .$.#.0.l.,./ ! ;.;.I U ` ,.Y ",
"< - # > 2 2 2 2 > & > > ; : # + + X . X . c y.p.p.y.b S n F 6 = y.'.|.`.f.@.S V x M 2 - > z T R F z - @ > x M ; - , , - ",
"E.G.c.c.x.b.x.` x.G.S.x._ w x.G.k.c.c.x.h.^ y.p.p.X.C S ] D.B.k.o.s.'.'.f.u.O.O./ 9 * ~ c.G.B.b.b.` ( x.c.b.Q W k.S.S.k.",
"BXmX6X8X6X6X<X:X8X8X>X,XB.#.2XmX4X6X6X4X6XL.O.u.u.y.+.O.V D.~.z.X.s.].f.y.S u.O.4.} l.4XMX8X4X<X;X:X:X8X8X:XF.A.:X4X4X^.",
"^.C.C.F.P.^.P.J.!.C.C.M.( x S.Q.C.J.D.B.V.,.i.`.p.s.i.@.S Z :.} X.i.f.y.S u.O.C } c b.>X~.C.C.C.m.C.F.L.F.C.m.n.N.N.m.n.",
"n.H { 1.m.N.e.e.2.>.*.:.x 9 D.Q.*.4.1.H H ' e. X|.'.f.S S S } ' X.o.S b g.Z S S E x ( M.q.{ *.*.*.*.+.H { $.*.>.*.$.$.{ ",
"C.3.z.C.F.m.<.:.:.:.1.2.W P K.!.m.B.z.3.m.m.@.{.+X Xy.X.=.X.} 1.| A = t tXrXB ..,.m / F.N.2.q.2.1.2.1.4.1.1.2.2.2.>.2.:.",
"J.m.m.N.3.:.%.%.%.1.1.>.P 6 :.4.2.1.:.:.2.m.1.p.].`.y.a.a.O.S 1.-.g.u pXxXuXa 1.:.z _ J.e.*.2.*.1.1.1.1.1.1.2.1.2.2.3.:.",
"Q.m.e.2.:.%.%.%.:.1.1.:.M 1 T :. .#.E  .%.2.w.`.'.|.f.`.p.+.Z ..=.j.aXcXvXxXf :.:.F v.^.m.1.1.1.1.1.1.1.1.1.1.1.1.1.1.:.",
"F.n.1.1.:.:.$.%.1.1.1.:.I 5 <.n... . .%.%.1.>._.|.'.f.s.u.O.A | 1.h.dXpXlXpXf %.2.T n.P.z.1.1.1.1.1.1.2.2.1.1.1.1.1.1.1.",
"F.3.1.1.*.1.1.1.1.1.1.:.L M K.Q.%.%...*.*.2.%.o.].a.@.u.S b V ..2.k.j.gXcXpXa >.;.K Y w.2.1.1.1.1.1.1.1.2.2.1.1.1.1.1.:.",
"C.1.1.1.1.*.1.1.1.1.2.<.N M V.J.2.1.1.*.*.2.2.A y.o.S C B t g.%.:.Y k I.cXhXp 1.>.L Q e.4.1.1.1.2.1.1.1.1.1.1.1.1.1.1...",
"C.1.1.1.*.*.*.1.1.%.1.3.M 1 :.4.%.%.:.%.$.%.:.| b l g.y aXyXd [ >.L q D I.tXf $.:.Y ,.C.3.1.1.1.1.1.1.1.1.1.1.1.1.1.1.-.",
"C.2.%.%.%.%.*.:.%.:.3.2.M 6 B.B.%...$. . . .-.:.-.W rXeXrXiXrXQ %.E D q j i s ;...M Y n.z.1.1.1.1.1.1.1.1.1.1.1.1.1.1...",
"W.e.:.1.:.%.*.1.2.2.e.z.N I L.W.......%.#.%.#. .} E d uXrXpXeXh.*.:.E q q 8 i ,.:.8 N V.m.4.3.3.1.1.<.1.1.1.1.2.1.3.4.:.",
"_ P W R Y N M 9 9 M P 9 ; 1 k.^ x x x x 9 9 M M 9 5 0 rXaXtXu e L L K 6 4 6 7 M m ; 9 ;.Q N m 8 8 7 m N M N Y R U U U M ",
"# O # 2 2 - X     . . o o $ = = * 3 * * O X $ + + $ O u fXlXpXr & 3 & + $ ; > > # + z c h $ o o     : = * * z 6 $ @ # X ",
"$X$XY.K.H.H.G.Y.$X$X&X&XY.$XmX3XT.T.Y.G.U.Y.$XR.Y.G.k.s g gXiXfXY.T.G.U.Y.$X$XG.S.Y.3X6X%XY.R.%X%X%XmXmXR.%X^.,., h.G.b.",
"BX6X<X4X;X;X<X6XMX6X6X5X,X<X6X5X;X;X^.^.>X5X6X5X,X;XS.0 P D d sX%X;X^.^.<X<X,X;X^.<X4X4X<X:X,X8X6XmXmXmX>X^.P.I L R.mX^.",
"P.V.w.n.v.e.n.B.B.B.B.w.3.0.2.<.:.:.2.3.n.n.B.v.3.3.! < q q j y h.>.<.z.w.<.3.<.3.z.4.4.e.e.z.n.z.z.l.-.) Q W 5 5 B.~.n."
};
