/* XPM */
static char *result[] = {
/* columns rows colors chars-per-pixel */
"60 60 245 2 ",
"   c #0C0706",
".  c #2A0706",
"X  c #370802",
"o  c #381611",
"O  c #490705",
"+  c #570905",
"@  c #491B0A",
"#  c #581702",
"$  c #670906",
"%  c #720F0D",
"&  c #691708",
"*  c #761906",
"=  c #5B2208",
"-  c #592A16",
";  c #6A2808",
":  c #762A05",
">  c #682A15",
",  c #723213",
"<  c #74331C",
"1  c #7A3318",
"2  c #7C391D",
"3  c #542D22",
"4  c #7B3A23",
"5  c #742E30",
"6  c #7E4528",
"7  c #7C4E3B",
"8  c #593757",
"9  c #73364B",
"0  c #385071",
"q  c #4C4852",
"w  c #704A4F",
"e  c #505073",
"r  c #6E4E6D",
"t  c #7D6B6D",
"y  c #882E09",
"u  c #863803",
"i  c #9A2819",
"p  c #853B1D",
"a  c #883B1A",
"s  c #953717",
"d  c #A13E08",
"f  c #A42F16",
"g  c #A22C1C",
"h  c #A4331E",
"j  c #AA371C",
"k  c #841D2D",
"l  c #843E23",
"z  c #8A3E22",
"x  c #893C28",
"c  c #93352D",
"v  c #A53421",
"b  c #A43B23",
"n  c #AC3C23",
"m  c #AA3824",
"M  c #B03F24",
"N  c #8B401E",
"B  c #984319",
"V  c #AC4816",
"C  c #A44918",
"Z  c #AC4C1C",
"A  c #854024",
"S  c #8D4225",
"D  c #87452B",
"F  c #8A452B",
"G  c #934425",
"H  c #9B4523",
"J  c #974B27",
"K  c #9C4A25",
"L  c #934528",
"P  c #9B4729",
"I  c #944A2C",
"U  c #9D4B2A",
"Y  c #8E4F30",
"T  c #9A4E33",
"R  c #84513E",
"E  c #8D543C",
"W  c #9D5233",
"Q  c #945439",
"!  c #9C543B",
"~  c #A44425",
"^  c #A44B26",
"/  c #AC4D24",
"(  c #A84228",
")  c #A34D2B",
"_  c #AA4D2A",
"`  c #B24325",
"'  c #B84A24",
"]  c #B34629",
"[  c #B64A2A",
"{  c #B94D2B",
"}  c #AD5125",
"|  c #A85B27",
" . c #A5512C",
".. c #AC532C",
"X. c #B75526",
"o. c #B1542D",
"O. c #BB502C",
"+. c #B2592E",
"@. c #A74D32",
"#. c #A45434",
"$. c #AD5531",
"%. c #AE5934",
"&. c #A6563A",
"*. c #A6593A",
"=. c #AC5C3C",
"-. c #B25532",
";. c #B35A34",
":. c #B75A3A",
">. c #B45D3A",
",. c #A7662B",
"<. c #B26C2E",
"1. c #B76636",
"2. c #B5613D",
"3. c #B9623E",
"4. c #B87735",
"5. c #DA751B",
"6. c #E07D1E",
"7. c #C35829",
"8. c #CC662A",
"9. c #D56C28",
"0. c #C4722F",
"q. c #DA752A",
"w. c #C67835",
"e. c #E47C27",
"r. c #8A4B4F",
"t. c #885542",
"y. c #975C47",
"u. c #A95E42",
"i. c #B25B44",
"p. c #986247",
"a. c #9C634C",
"s. c #9A6754",
"d. c #AC6144",
"f. c #AA674A",
"g. c #B46342",
"h. c #B96542",
"j. c #BA6945",
"k. c #B96847",
"l. c #B36649",
"z. c #B56B4D",
"x. c #BB6C4B",
"c. c #BC744B",
"v. c #A76C56",
"b. c #B16C51",
"n. c #BA6E50",
"m. c #A97159",
"M. c #AC735C",
"N. c #B67154",
"B. c #BC7254",
"V. c #B6765A",
"C. c #BD7559",
"Z. c #BD795C",
"A. c #8F5C72",
"S. c #90726A",
"D. c #A97664",
"F. c #B37A64",
"G. c #BB7C63",
"H. c #B37E69",
"J. c #A16C73",
"K. c #C37142",
"L. c #C27553",
"P. c #C1775A",
"I. c #C27A5C",
"U. c #C37D61",
"Y. c #BB8227",
"T. c #BB8536",
"R. c #D28C2E",
"E. c #EB8A2A",
"W. c #F08D27",
"Q. c #EF942E",
"!. c #F3942C",
"~. c #F49A2E",
"^. c #E68D32",
"/. c #EC9532",
"(. c #F49B31",
"). c #D5AD3A",
"_. c #F7A32E",
"`. c #F5A233",
"'. c #F8A534",
"]. c #FAAA37",
"[. c #FBAD38",
"{. c #BB8653",
"}. c #998A77",
"|. c #B5826B",
" X c #BC836C",
".X c #B58774",
"XX c #B58F72",
"oX c #C89948",
"OX c #C99354",
"+X c #D4AE44",
"@X c #D2AB4D",
"#X c #E5A751",
"$X c #C58164",
"%X c #C5856B",
"&X c #C88669",
"*X c #CA896D",
"=X c #D1916C",
"-X c #C58973",
";X c #C68C77",
":X c #CB8D73",
">X c #C79478",
",X c #CD937B",
"<X c #D3987A",
"1X c #D4AB6A",
"2X c #E6CA4F",
"3X c #DDC665",
"4X c #E3C76A",
"5X c #094A8E",
"6X c #2E5490",
"7X c #346696",
"8X c #316B92",
"9X c #125DA6",
"0X c #0E6BB3",
"qX c #1374BB",
"wX c #2E73B0",
"eX c #4B5889",
"rX c #516F8C",
"tX c #707094",
"yX c #4B74AB",
"uX c #0277C3",
"iX c #837E93",
"pX c #358AB9",
"aX c #548FB6",
"sX c #6C86A8",
"dX c #0E93D3",
"fX c #3292D0",
"gX c #099BE3",
"hX c #0FA6E7",
"jX c #26A2E8",
"kX c #49A2C8",
"lX c #B59584",
"zX c #8FA7B3",
"xX c #A8A8A9",
"cX c #CE9882",
"vX c #D29983",
"bX c #D29B83",
"nX c #D6A48C",
"mX c #D7B097",
"MX c #EAB38E",
"NX c #EAB694",
"BX c #D1BBAA",
"VX c #ECCB90",
"CX c #F4E58D",
"ZX c #F8CAA5",
"AX c #FCF4AB",
/* pixels */
"cX$Xx.B.C.x.2.g.x.P.U.U.C.x.B.Z.B.B.U.G.P.I.C.B.C.$XB.*.-X,XU.I.B.j.l.=.%.;.3.B.%X,X%XI.I.%X&XP.I.&X$Xz.k.C.C./ =.,XcXC.",
"C.=.} ..) ^ _ ..../ / / ..>.2.g.>.;.../ _ o._ _ } o.K 2 *.x.;._ ..U K  . .}  .} o.;.+.;.o.......$...) ) ) _ / s *.$Xz.B ",
"x.;.....) _ ..-.-.-.o.-.>.g.x.c.g.2.:.-.-.-.-.-.-.;.U A d.L.>.@. .U  .) ....| ..:.;.;.;.-.-.-.-.-.-.) )  .....H I =.1.U ",
"C.h.} .._ _ ..o...$.o.-.>.g.x.3.2.>.:.>.-.-.-.o.o.-.) H N.I.=.) U ^ ) ...... ...-.:.1.;.-.;.-.-.-. .) _ ....$.G A  .+. .",
"U.K.} .._ }  .........+.3.j.3.+.;.;.>.;.%.-.o.o.o.-.U p d.x.;.@.) ^  ...........-.>.:.:.+.;.-.$. .) ) / ..o.o.K L d.2. .",
"U.x.} -.}  ..... .....$.2.h.1.;.1.;.;.-.o.-.-.o.o.-.P a *.j.%. .)  .............;.2.h.-.o.;.-.$.) ) _ ..o.o.-.K G =.j. .",
"P.i.....| ....} }  .} $.>.:.;.+.$.;.o.o.-.-.-.-.o.o.P l i.j.$.) ^ ....o.....-.o.;.>.>.;.-.-.o.$.) ) } ....o...L a  .2. .",
"L.K.-... ..... .......+.:.3.>.;.+.;.;.-.-.-.o.o.o.o.U 2 &.h. ._ ......o.o.+.-.o.-.;.;.-.-.-. .U K ) ..o.o...$.L N =.j. .",
"B.h.-.-...............;.3.h.>.-.-.-.o.;.;.;.o.o.o.o.) S d.x.$...-.......o.o.........-.$.-.} J G U _ ..o.o.o.o.H #.B.x.) ",
"P.h.[ -.o...} ..} ..o.1.3.3.;.o.-.-.-.o.+.-.-.o.o.o._ G l.n.$.-.-...}  ...} | <._ _ _ | ) I I P ^ ..-.....o...a S >.g.U ",
"$Xx.;.:.:.;.;.;.+.;.o.>.3.3.1.;.:.>.:.:.:.;.:.o.+.-.@.l #.x.2.2.>.;...$.$. .R.).4.T.| <.,.F  .| -.-.-.+.%.+...S F 2.3...",
"z.=.) #.W U T P U ) ) #.&.#.#.#.#.#.@.$.$. . .$...$.L 1 T i.W #.#.J L P U ^ 1X3X+X2X<.+XoXK J J P U P ) )  .U a D d.*.G ",
"y : # + # # # O $ * y 2 > @ @ @ O + & , < 1 a z z a > + * & O O + + O $ > : 4XCX2X2X).2X2X,.6 - $ & & ; : : = @ + $ & # ",
".Xv.E y.s.a.s.v.D.M.M.f.Y ; 6 E E v.v.p.! y.y.*.=.u.y.f.m.D.s.a.D.m.f.D.G.Q 1XAXCX).).2X+X,.Y.t.v.D.m.M.M.N.v.s.D.m.s.p.",
"nX:XU.:X,X,X,XbXnXbXcX:Xu.B  X>X*X,X:X$XU.&XU.Z.I.P.I.&XcXnXvXvXnX,X=XbX<X{.R.3XCX+XY.Y.Y.oXXX4.:XvXvX,X<XbXnX<XbXcX,X:X",
"B.g.g.n.x.N.x.x.N.n.L.n.I l G.%XB.B.x.h.k.z.k.h.h.2.g.l.l.V.C.V.C.x.x.x.j.c.).2X).).T.1XoX1XVX{.*.l.z.I.{.cXBXNX=XN.z.l.",
"$.} / / / Z Z / / / } / 2 < b.L.;.;.o...[ _ _ o.[ .._ _ [ Z Z Z V _ o.o.<.<.T.+X).@X@XVX1Xf.1XT.V C d } XXmXxXzXXXC C C ",
"j.:.o.-.;.;.-.-.-.$...#.2 p Z.I.2.:.;.;.-.-.-.-.;.$.-.-.;.-.-.-.-.-.;.;.1.oXR.,.,.XXXX1X1Xc.S.t N.K.x.&XnXZXMX}.s.$.;. .",
"x.;.o.>.>.;.-.;.-.-.%. .2 D C.B.-.-.;.;.-.-.-.-.$.$.-.-.-.-.-.-.;.-.;.-.+.<.T.R.4.OX@X1X#XOXaXdXxXNXZXVXVXNXMXf.Q $.|  .",
"j.;.:.3.:.;.-.-.-.-.-.$.G I n.x...-.;.;.-.-.-.-.-.-.-.-.-.-.-.-.$.[ $.-.o.#.,.R.~.`.`.(.`.@XkXhXzXMXNX<X&X=XB. .-.$.}  .",
"x.2.2.h.;.;.$.) $.-.-.$.G P z.j.-.:.2.;.o.-.-.-.-.-.-.o.-.-.-.>.K.j.:.f.f.w.R.(.].].].].].^.aXdXaX|.OXb.g.*.| .._ ....} ",
"L.j.j.3.;. .) ) _ ..-.-.G p >.2.+.>.:.:.-.-.-.-.-.;.-..._ -.h.=XMXNXnX}.oX~.~.'.].].].].~.5.r 9X8Xy.=.%. ._ ...... ... .",
"P.x.3.:.$.) )  . .$.;.>.F 2 _ 1...:.;.;.-.-.-.-.-.-.-.o.-.3.<XMXNXZXZXlXE.!.'.[.].].~.E.q.7.c 9 w W ) } ^ ) } ......o. .",
"I.j.>.;.#.U } ....:.j.l.F < =.2. .........$.-.-.-.-.o.;.:.K.<XMXNXBXzXrXm./.'.]._.~.E.9.X.j f i [ -.} / ) _  .+....... .",
"P.3.;.$. .} $.-.;.g.x.K.| A d.x.+.1.;.#.} #._ _ _ -.;.-.;.@.$.L.XXpXdXgXaXoX!.!.E.e.8.7.[ m h v o.o._ o.[ $.;.;...} ..U ",
"c.2.%.,.) $.;.;.1.j.K.^./.q.^.^.^.^.^.q.8.7.7.8.9.8.8.0.8.8.q.E.{.pXjXjXdX}.6.q.9.7.{ o.{ ] n _ -...$.-.=.>.=.;.$.....U ",
"D , : : : , u 6 R R 8.W.`.`.`.`.`.~.`.`./.^./.'.'./././.'.'.[.[.(.XXpXfX0XeX| 7.{ O.O.O.] h s N z z p 4 p a S A A S S 2 ",
"3 q e 8XpXe 8XpXdXe ' q./.`.[.~.!.~.`.].].[.[.[.[.[.].].].].'.(.E.5.t 0X9X6Xr.j n ] [ ] g s a 2 < p 1 > 5 x z > @ = ; @ ",
"J.yXaXfXaXsXaXfXfXtX' 9././.E.q.9.W.`.`.(.'.'.(.~.~.!.Q.W.E.e.9.7.7.n 8 5X5X9 j m M ] i.i.C.Z.|.%X XG.G.-X;X$X#.Y m.M.d.",
"iXyXyXwXtXA.tXyXyXr j 9.8.7.7.{ ' 8.e.E.E.e.e.e.q.9.q.e.e.9.7.{ { ] M i 8 5X9 f m @.i.x.x.x.C.$X-X%XU.U.$X%XI.} g.,X,XI.",
"A.eXwXqXwX8XqXqX0X6Xk M 7.M ` [ M n ' 8.7.' M ` ] [ { 7.7.7.O.7.[ M m M b 5 c ( @.>.-.] _ ^ _ $.$.......$. .| G I g.2.) ",
"L.-.9 e w w q e 6XeXk f ' 7.j h h m m g g i v g g j n v i m [ ] m v v n M v _ o.o.$.) P U H )  .$.-.-.-.-.} U x S %.;.) ",
"K.$.P H H ^ ^ ^ ) P ~ v v m n b h b ( b b ~ >.g.;.f.tXtXr.j m i g m ] { [ m ~ _ ~ ) K P P ^ ) $.:.-.-.-. .) U F S =.2. .",
":.@.U ) ) _ _ _ _ _ _ _ _ _ $. ...o.-.+.;.2.2.2.X.iXhXhXtX@.i i m n [ { O.[ b _ _ ) )  . ._  .>.>.-.-.-.) ) ) H P =.2. .",
"x.=.~ ) _ _ _ _ _ _ _ $.;.$...o...-.;.;.;.2.2.;.i.aXhXpXyXyXr i M ] M { { ] v ~ _ _  ...o...-.i.i.-.$.$.) )  .~ ) f.2. .",
"Z.i.^ _ _ _ ( _ _ _ ..$.......-.:.g.>.%.+.>.:.#.tXfXwX7XqXuX6Xc n ] { { { ` v b ^ _ ..-.-.-.-.;.>.-.$._ U  .;.U J 2.2. .",
"x.=.^ _ _ _ _ _ _ } ..%.+.%.;.>.2.h.>.;.>.3.-.r.wXqX6X0 9X0XeXc M M M [ { { { m ^ ....%.-.o.o.-.;.$.-..._ $.;._ ..k.3. .",
"B.>.^ _ _ _ _ _  ...%.;.;.>.;.;.1.>.;.;.>.3.o.r.9X6X8 - e 6X9 ` ] M ] ` { { { M ( %.%.;.-.o.o.o.-.-.-.;.;.;.2...#.g.g._ ",
"B.>./ _ _ } ) _ ..;.2.2.:.+.+...;.;.+.;.>.:.+.r.e w 5 ; I x c ] ] M ] { { { ] m m g.n.2.-.o.-.o.;.>.:.3.2.h.g.W N W ;.} ",
"N.>._ .._ [ _ ;.>.h.h.:.;.o.o.;.>.2.:.>.:.;.:.$.( U I N V.i.v M ] ] m ] { 7.{ ` g g.L.2.;.:.-.;.>.k.j.h.3.:.3. .I f.j...",
"l.#.H _ U ) )  .=.&.@.#.) U U )  .#.W #.) @.) } U S l a b.d.m [ M M g g { O.O.{ m @.g.*. ...$.%.g.g.d.! %.%.2.J T l.d.L ",
"y ; # ; , , 1 1 , & ; ; > - # + # O X X X X ; 1 ; # O O u s s ` M v g i M O.{ O.` c 2 > ; a B H H N > = ; N A - = : : ; ",
"v.p.R t.E Q E Y E p.y.E 7 < t.y.R R R w 7 t.p.y.E t.y.s.V.N.! b g g M h m [ { { m 1 + < E p.d.d.! Y A 7 t.Q S N Y y.y.R ",
"mXcX,X,X>X;X%X$X:X,X-X%Xz. ..XcX:X:X:X;X;X>XcX-X$X*XvXbXnX,XI.I.G.C.i.M ] ] ] -.i.^ ! -XcX,X-X%X$X$X$X>X<X$Xx.z.$X;X:XU.",
"-XG.P.U.%X%XZ.I.U.P.x.B.! N V. XC.I.C.N.N.B.V.L.L.n.C.Z.I.z.>.k.C.C.z.i.@.] i.z.l.B f.:X&XP.C.B.n.L.P.I.U.L.x.j.n.B.L.z.",
">.C V -.3.j.j.2.:.%.;...N < z.c.o.>.o.Z C / :.:.{ _ [ _ _ _  ._ _ / } Z Z / / :.$.2 T z.1.} o.o...o.[ / / ..o.;.o.} } ^ ",
"x.;.:.z.n.j.:.$...%.;.;.S A C.I.:.k.2.>.2.k.x.k.;.-.;.-.$.$._ -.-.-.-.-.;.;.;.:.%.p T c.3.%.+.;.;.;.-.-.-.-.%.;.;.;.>...",
"B.h.h.x.2.%..... .-.;.%.F 2 =.2.>.>.$.%.:.h.k.>.-.-.;.-.$.-.-.-.-.:.-.-.-.-.;.>...2 Q n.j.+.;.;.-.-.-.;.-.-.;.;.;.;.;.$.",
"C.h.3.>........._ -.-.$.x > K .. . .) ) $.;.:.;.-.-.-.-.-.-.-.-.-.-.-.-.-.-.-.-.$.s f.U.h.$.-.-.-.-.-.-.-.-.-.-.-.-.:...",
"B.2.;.-.$.$.....-.-.-.;.D , &.2.) ) ^  ...-.;.;.-.-.-._ @.-.-.-.-.-.-.o.-.-.-.-.$.C l.Z.g.[ -.-.-.-.o.:.;.-.-.-.-.-.-._ ",
"n.-.-.-.o.-.$.o.-.o.-.$.S l N.B.o..._ o.o.%.;.-.-.-.-.$.) _ $.;.-.;.;.;.-.-.-.-.#.S J 2.:.-.-.-.-.-.-.-.;.;.-.-.-.-.-.$.",
"x.:.-.-.-.o.o.;.-.-.;.=.A l N.B.;.-.o.o.-.;.;.-.-.-.$. .) ) _ $.:.:.>.;.-.-.o.:.%.S J 2.:.$.-.;.-.-.-.-.-.-.-.-.-.-.-._ ",
"x.;.-.-.o.o.-.-.o...>.>.l , $.:.o...-...} $.$.;.-._ _ ) U ) ) _ -.>.1.>.-.-.-.-.$.J *.x.2.[ -.-.-.-.-.-.-.-.-.-.o.-.-.@.",
"x.-.......o......._ -.>.l < d.i.} }  .) ) ) @._ $._ U U ) } _ ) _ ..-.%.-.$.$..._ l S g.h.-.-.-.-.-.-.-.o.-.-.-.-.-.-._ ",
"L.2.+.-.$.-.o.-.;.;.:.>.z S C.L._ _  . . ... ._ ) U ) ..-.-.;.+.o... . .)  ...;.#.4 z z.h.:.:.:.-.-.-.-.-.:.-.:.>.:.>.$.",
"! F F P H G A A D D D D - < y.! l l p z A l A x p 4 p l x z L F F L l 4 < 2 x G x - p &.T S D x 4 4 l S x z L J I F I 4 ",
"# O # : : = X     . . . . @ % % % ; & $ O . O + + O O o + $ & + % & & O O + & ; + + : s : + .       @ % $ & 1 1 - @ + X ",
"|.H.M.M.N.b.v.H.H.H.H.H.D.|.cX;XG.G.H.D.D.D.G.H.M.M.v.L v. XH.H. XF.M.M.D..XH.M.m.F.-X,X XZ.H.lX.X.XlXcXH. X-X! ; E m.y.",
"nX<X*X:X&X$X&XcXcX,XcX>X&X*X,X>X$X$X$X$X%X>X,X>X%X$Xz.V  X=X$X&X*X$XU.U.&X*X*X$X$X&X:X:X*X&X&X,X,XcXvXcX%XU.Z.Y A U.vXU.",
"Z.z.2.l.g.i.g.f.z.l.l.d.2.=.>.=.#.%.%.>.2.g.g.l.>.;.^ a f.L.:.=.2.>.:.i.2.%.2.=.2.h.i.:.3.3.i.g.i.i.u.&.W T L > 4 z.I.i."
};
