/* XPM */
static char *result[] = {
/* columns rows colors chars-per-pixel */
"60 60 249 2 ",
"   c #060001",
".  c #1D0A06",
"X  c #250001",
"o  c #340F0A",
"O  c #470302",
"+  c #530201",
"@  c #5A0702",
"#  c #4C180C",
"$  c #571903",
"%  c #670702",
"&  c #671804",
"*  c #74170A",
"=  c #552411",
"-  c #652507",
";  c #762A08",
":  c #7C3109",
">  c #682B14",
",  c #722A13",
"<  c #6D3018",
"1  c #783318",
"2  c #7A3B24",
"3  c #773830",
"4  c #7C4329",
"5  c #7E4D37",
"6  c #4D3958",
"7  c #6F3458",
"8  c #3D5478",
"9  c #7B4758",
"0  c #544D78",
"q  c #6D5366",
"w  c #734E77",
"e  c #756575",
"r  c #8E130F",
"t  c #A11D1A",
"y  c #873605",
"u  c #8D3108",
"i  c #9B281A",
"p  c #873919",
"a  c #833A1E",
"s  c #9A371C",
"d  c #AF3001",
"f  c #A32D1A",
"g  c #A5331E",
"h  c #AB3918",
"j  c #A51D2B",
"k  c #853B22",
"l  c #8A3E22",
"z  c #94332E",
"x  c #A63824",
"c  c #AC3C23",
"v  c #B13F21",
"b  c #8F481D",
"n  c #974418",
"m  c #A64806",
"M  c #AD500D",
"N  c #A44617",
"B  c #A44C1D",
"V  c #AB4B1D",
"C  c #B7491C",
"Z  c #B16D0F",
"A  c #8C4224",
"S  c #8D4329",
"D  c #89462A",
"F  c #934424",
"G  c #9B4423",
"H  c #9A4827",
"J  c #934529",
"K  c #944A2B",
"L  c #9D4C2A",
"P  c #9D562A",
"I  c #864B36",
"U  c #9B4C33",
"Y  c #89503A",
"T  c #9A5539",
"R  c #A44524",
"E  c #AB4426",
"W  c #A54B23",
"Q  c #AC4D24",
"!  c #A34D2B",
"~  c #AA4D2A",
"^  c #B24325",
"/  c #B74A25",
"(  c #B54B2A",
")  c #B94E2C",
"_  c #AD5124",
"`  c #A4512D",
"'  c #AC532C",
"]  c #AC5A2A",
"[  c #B1542D",
"{  c #BC522C",
"}  c #B45828",
"|  c #A74D36",
" . c #BF4230",
".. c #A45332",
"X. c #A45737",
"o. c #AD5432",
"O. c #AE5933",
"+. c #A55A3C",
"@. c #AC5B3A",
"#. c #B25532",
"$. c #B35A34",
"%. c #B85A37",
"&. c #B45D3A",
"*. c #A76727",
"=. c #B57625",
"-. c #B26E33",
";. c #B66638",
":. c #B5613D",
">. c #B9613D",
",. c #C74D11",
"<. c #D76C1A",
"1. c #C35829",
"2. c #CA6627",
"3. c #D26928",
"4. c #D97729",
"5. c #C97430",
"6. c #E37C28",
"7. c #852F48",
"8. c #8A5645",
"9. c #965B45",
"0. c #825354",
"q. c #A85C44",
"w. c #AD534E",
"e. c #9A614C",
"r. c #9C6855",
"t. c #9A705A",
"y. c #AC6444",
"u. c #AA6748",
"i. c #B56443",
"p. c #B96543",
"a. c #BA6945",
"s. c #B46948",
"d. c #B46A4C",
"f. c #BB6C4B",
"g. c #BA724D",
"h. c #A56B55",
"j. c #B86E53",
"k. c #A3715F",
"l. c #AD735C",
"z. c #BC7254",
"x. c #BA7659",
"c. c #BE7A5C",
"v. c #B15F68",
"b. c #8D6D6C",
"n. c #A97764",
"m. c #A4766E",
"M. c #B67C66",
"N. c #C1704C",
"B. c #C17755",
"V. c #C17659",
"C. c #C27B5D",
"Z. c #C37E63",
"A. c #CF7D61",
"S. c #BC862E",
"D. c #C78C18",
"F. c #EF961D",
"G. c #DBAE15",
"H. c #EEAC0E",
"J. c #CD8E2E",
"K. c #E88628",
"L. c #EB8D2C",
"P. c #EC962A",
"I. c #F2952C",
"U. c #F4992E",
"Y. c #E98E31",
"T. c #EC9832",
"R. c #F49D32",
"E. c #D8AA33",
"W. c #F7A729",
"Q. c #F6A334",
"!. c #F9A533",
"~. c #FAAB37",
"^. c #F9A638",
"/. c #FAAC39",
"(. c #B68841",
"). c #BB846B",
"_. c #AC8472",
"`. c #B98774",
"'. c #BD8974",
"]. c #B09776",
"[. c #CB8D4B",
"{. c #E0964B",
"}. c #DAB344",
"|. c #C58264",
" X c #C6856A",
".X c #C8886C",
"XX c #D19667",
"oX c #C38A75",
"OX c #CA8D74",
"+X c #C58C78",
"@X c #CB9277",
"#X c #CC937C",
"$X c #D3977A",
"%X c #D9AE71",
"&X c #E0A865",
"*X c #DCCF4E",
"=X c #E5C650",
"-X c #EAD06F",
";X c #F4E567",
":X c #0C5396",
">X c #314F8D",
",X c #34689D",
"<X c #005CA9",
"1X c #0367B6",
"2X c #0E6DB4",
"3X c #2D6BAD",
"4X c #4D538A",
"5X c #4C6D96",
"6X c #747090",
"7X c #507BA9",
"8X c #627CA0",
"9X c #0E79C5",
"0X c #8E768C",
"qX c #378DBC",
"wX c #568BB2",
"eX c #6D8AB0",
"rX c #068DD2",
"tX c #0098DB",
"yX c #2D93D3",
"uX c #00A1DE",
"iX c #2FA1D9",
"pX c #0A9BE5",
"aX c #309CE2",
"sX c #03A7EA",
"dX c #11A9EE",
"fX c #2EA8E9",
"gX c #4A8EC2",
"hX c #4DA3D4",
"jX c #B99388",
"kX c #A99894",
"lX c #8A8CA4",
"zX c #CC9883",
"xX c #D19780",
"cX c #D19B84",
"vX c #D29E89",
"bX c #D6A389",
"nX c #C7A599",
"mX c #D6A795",
"MX c #EBB490",
"NX c #DBB4A4",
"BX c #F2CB97",
"VX c #F4E387",
"CX c #FBF496",
"ZX c #D1C6BD",
"AX c #FBCBA6",
"SX c #FFD3AC",
"DX c #E8CFB1",
"FX c #F9F1B4",
"GX c #FDFACC",
/* pixels */
"NX@Xc.z.z.B.p.i.s.z.Z.Z.M.B.z.c.z.z.Z.|.C.C.c.z.C. Xc.@.+XxXZ.Z.z.f.s.@.$.:.p.V.@X$X XZ.|.OX|.V..XOXV.p.z.Z.i.N .XbXc.vX",
"vXf.o.' ' ` ~ ' [ ~ ( ' ] #.:.p.i.$.' ~ ~ ' ' ~ Q [ ` a X.f.#.o.' L L W ! ' ! O.E.J.#.#.#.' #.o.' ' ! ! ' ' R G c.x.n '.",
"zXi.#.[ ! ~ ~ o.#.#.) [ #.&.s.f.s.:.&.#.#.$.#.>.XX$X.X+.z.B.$.o.` L ! ~ ' ] R =X;X;.#.$.#.#.#.#.#.' ! ! ' ' ! A @.:.N '.",
"zXd.$.' ' ~ ~ ' ' ' o.#.#.p.f.a.>.:.&.&.$.#.( B.AXAXMX).kX$Xi.! ! ! ! _ ] } D.CXCXD.o.$.#.#.#.#.o.! ! ~ ' #.! k H ;.B '.",
"mXC.&._ ' ~ ~ ' ` _ ] ' $.p.a.$.$.$.$.&.$.#.~ N.MXAXSXBXlX|.y.! ! ! ' ` =.J.*XCXFXE.-.-.%.} #.[ ~ L ~ ~ ' [ ~ F X.s.V '.",
"bXC.&.[ ' ' ` ' ~ ' ` ] &.p.;.$.O.$.$.$.[ #.) N.$XMXAXSXXXM m m ! ! ' ` }.*X;X;XVX=XD.5.[ $.] ` ! ~ ~ ] [ [ ! F X.a.W '.",
"xXf.%.[ ] ' ' ' ~ ' ' ' $.&.;.$.$.$.$.#.#.#.#.$.$XMXAXSX%Xt.6Xe B ' ' _ -X&X;XCXVX-XE.J.$.} ] ` ! ! ' _ ' #.L a H i.W `.",
"#Xa.&.' ` ' ` _ ' ' ' [ $.>.%.$.$.] $.[ #.#.#.[ ;.bXAXAXkXhXsXiXT *.] Z VXVXG.CXFXVXG.J.5.] ` L ! ~ ' [ [ [ L a ..a.W `.",
"cXf.&.#.' ' ' ' ] ' ] #.&.p.%.#.#.#.#.#.$.#.#.[ V @.bXnXiXsXfXtXq *.J.Z -XGX}.-XCXFX}.D.J.D.] l L ' #.[ [ [ ! F s.B.W ).",
"cXz.&.#.#.' ' ' ' _ [ #.:.>.:.$.#.#.#.[ $.#.#.[ } ' -.wXsXaXtXlXx B J.S.*XFXCXG.G.GXDXZ -.J.P H _ ' ' ' [ [ L p @.p.W `.",
"bXC.>.%.%.#.$.$.$.$.[ $.>.>.;.;.$.%.$.%.$.%.#.#.#.} 0.9XtXgX].H.K.1.=.Z E.VXFXBXD.VX-XZ P S.P ` #.#.[ ' o.$.! a X.a.V '.",
"+Xs.@.! ......U L ! ! ` X.X.........| o.o.' o.~ o._ q wX].I.F.^.^.6.=.*.D.E.;X-XS.G.E.=.*.*.J K K ! L ! ! ! F a +.@.n `.",
"w.u > $ @ $ $ + @ % u p , = # = $ + % < 2 1 p l F p -.T.W./././.~.U.P.] Z S.S.}.S.(.S.*.=.P P 1 % & & ; y ; # O % * + t.",
"nXn.9.I 8.e.9.e.h.l.h.h.T > < I Y 9.r.e.U 8.9.+.+.-.R./././././.~.~.~.J.P 9.%X-XE.CX[.*.=.Z *.r.k.h.h.h.h.9.9.r.k.r.8.jX",
"DXvXZ.Z.OX@XOX#XcXvXxX#XV.u d.oX.XOX@X|.Z.Z.Z.c.[.R.~.~.~.~.~.~.~.~.~.T.-.-.BXS.%X-XS.E.-.-.M.OX@XxXzXxX.X.XOXcXcX@X XNX",
"vXd.i.j.B.z.z.z.x.x.z.V.u.: l.OXc.x.z.a.i.j.j.5.I./.~.~.~.~.~.~.~.~.~.R.5.-.}.b.%X(.(.*Xy.z.B.s.i.j.j.j.j.d.z.z.z.j.y.zX",
".XV ~ Q Q V V V V Q Q _ b > +.V.:.$.} ' | Q B z.{.H.U.U.R.~.~.~.~.~.~.^.4.h f.bXXXO.(.[.| $.V B B N N W ~ Q E V V V u ).",
"#X%.$.[ $.$.#.#.[ #.o.o.J > u.|.p.&.&.$.#.U 8XtXiXlX[.H.~.~.~.~.~.~.~.~.~.K.A.cXMXd.b g.:.[ } [ ' ' ~ ' ' #.' o.#.$.M oX",
"$X:.#.$.$.$.$.#.#.#.o.o.J 1 u.C.%.#.$.$.9.7XpXaXiXpXiXkXP.!.~.~.~.~././.~.~.^.{.g.I +.s.$.[ [ ' [ ' ` ~ ' ' o.#.#.$.N '.",
"xX;.$.&.>.&.$.o.#.#.#.#.L l y.B.#.#.$._ e qXrXsXrXyXpXrXb.6.4.K.U.!.R.L.4.K.F.J.B : +.;.[ _ [ { { ' _ ' [ o.#.#.#.' N '.",
"xX>.&.p.p.$.#.o.o.o.#.#.! l y.N.$.$.%.5.{.J.XXkXqX9X9X9X>XN 1. .1.K.6.^ ,.u.6X1X5X3 +.p.' [ [ #.' ~ ~ ' ] #.#.#.' ' N '.",
"xXa.a.p.%.o.! ! ~ ~ [ #.! k ..p.$.$.5.R.R.!.W.H.P. X4X<X,X3 v /  .2./ h K :XrXaXpX0 _ p.#.' #.#.#.~ ~ ~ ~ ' [ ' ' ] N '.",
"vXf.f.>.$.' L ! ! ' o.%.U 1 G &.X.5.R.^.!././././.W.<.3 :X6 h { ) ) x f 4X9XiXuXuX,XP :.' [ #.[ [ ' ~ ~ ! Q ' ' _ $.V '.",
"vXg.a.&.o.` ! ' ' $.p.s.+.1 K s.~ 4.^.R.!./.!./.!.!.U.K.;.9 f { 1.) v 3 :X,X0XjXjXq p @.` ~ ' [ [ ' ~ ~ ! ! ] ' ' $.N '.",
"vXN.:.$.' ! ' [ ' :.f.N.X.1 | j.{ K.R.R./.~././.~./.~.~.!.P.3.C v c g z 5 g.[.$XXXb L &.! ~ ' } [ [ [ ~ [ o.$.' ` ' n `.",
"vXp.&.@.! ` #.$.&.a.f.p...< U V.%.1.6.I.!.!.!.!.U.K.K.I.~./.!.U.4.( x @.B x.MXAX$XF U &.' ~ o.' Q ' ] o.$.&.&.$.' ] N '.",
"M.2 4 4 1 k A D A K I 4 < # 2 U l g v / 3.6.4.3.2.3.I.~.~.~.~./.~.R.4.L A P bXAXAX|.n ..F n u z. Xy.u.p A J A D F K : _.",
"0.X . o # = = $ - $ o . . . > k * x ^ x / { { { ) 2.6.L.R.Q.U.!.Q.P.L.1., A a.MXMXXXP +.a z 2 cXMXMX|.b 1 p < # $ - O e ",
"zX_._.n.n.l.q.u.u.T T h.n.n.'.zXv.h ^ x h ( c h x c / 1.1.1.K.I.U.K.<./ x H n ).XXg.g.$XMXjXeXhXZXBX(.X.'..Xi.p e.l.+.'.",
"NXmXvXOX.XZ.z.Z.V.B.V. X+X@XzX$Xz.h { v i t x E / ) ^ x c { 2.4.1.1.1./ x i ! u.s.s.x.%XMXbXkXtXgX).z.T  X.Xa.' .XcXC.mX",
"zXz.@.o...! ! | | ' o.| @.o...P x c { { ) c g i r f c c t r t C 2.2.1.{ ) ^ i s P g.x.[.|.[.x.,X1Xb.;.K $.' L F y.f.! '.",
"zXs.o.R L H ! E ~ R ~ ~ ~ R H K i c { { { { { c r 4 h 1.3.2.2.6.U.R.K.3.) { c Q ..T P y.u.;.q 1X:X8.` ~ ' ! J l ` &.N ).",
"@X:...L H ! ! ~ ~ ~ ~ ~ ~ ~ ' ~ i x ) { { { ^ f x J 4.!.~.~.^.Q.!.Q.L.4.( { x E ! l F F n J 6 4X9 Q o.#.! ! J k ..i.B '.",
"oX#.! L ! ~ E ~ E ~ ~ ' o.#.#.! h ^ c { { ) c ( c ,.6.U.!.^.~.~.~.Q.4.3.{ ^ x E ~ ~ ` ` ' ~ o.$.%.#.#.o.L ! H F @.i.B '.",
"+Xp.o.W ~ ~ ~ E ~ ~ ~ o.#.o.[ ~ C 3.) ) { ) ) 1.x w.3.I.Q./.R.L.^.I./ 1.^ f s ~ ~ ~ ' ' #.' #.i.&.#.#.! L ` ~ W @.s.B '.",
"vXj...! ~ ~ ~ ~ ~ ~ ~ o.' ' [ ! C 4.1.) { { M q.gXhX0X<.T.^.6.3.U.6.f ) x i c ~ ~ ~ ' ' #.#.#.&.#.o.o.! ! ' ` F @.a.V '.",
"#Xa.| Q ~ ~ ~ ~ ~ ! ' ' $.o.$.2.^ 3.3.) { d e yXdXdXaXv.2.6.c 1.6.1.c ( s ~ _ ~ ~ ' ' #.#.[ [ $.$.o.o.' ' $.' ! :.a.V '.",
"zXs.o.~ ~ ~ ~ ~ ~ ' o.$.$.&.o.Y.4.x 1.) x 0.wXfXdXfX9X4XC  .x { 3.g { c R ' ` ' ' @.$.$.[ [ [ #.#.#.#.$.#.&.$.! y.a.V '.",
"#Xs.o.! ~ ~ ~ ! ' o.%.:.&.o.{ T.^.4.1.( eXsXhXwXyX9X3X:XU v c { ) f c x ! ' ' ' &.f.s.&.#.#.[ ' $.%.%.>.i.p.O.A K &.Q '.",
"#Xs.$.' ~ ~ ) ' $.&.p.p.&.o.4.R.U.Y.3.v v.lXsXwX,X1X9X>Xz c ( 1.v f x ` ] ' ' $.f.V.f.%.$.$.#.$.p.s.p.a.%.>.@.H +.g._ oX",
"+Xy.X.! ! W ! ~ @.&.@.@.` H 5.!.R.Y.} / ,.,.6X1X8 >X6 5 T i v ^ i ! ` ` ! ~ o.@.f.f.p.@.` o.$.&.s.s.@.+.@.&.O.K u.j.W '.",
"h.; - - , 1 1 p 1 , - , > A 4.L.I.4.V V ) V c w 6 $ + @ p s p , 1 1 < , 1 1 p n K J 1 > : b G K F k > - p A 1 = ; : & b.",
"jX9.8.5 Y Y Y I D 8.9.Y K J.R.L.4./ c R B ~ 1.x 6 5 8.9.j.j.T T Y D 4 5 I I 9.9.K , @ 2 9.9.+.+.K D 4 I Y J A 4 8.9.4 _.",
"DXmX$X@X@X@X@X|.|.#X@X X[.U.!.Q.4.C c / W ( ) ) 7.b.#XvXmXxXC.|..X XoXzX@X.XxX@Xj.n h.+X$X@X.X X).|. XxXOXg.i.x.OX@XZ.vX",
"NXZ.M.C.|. X XC.C.|.z.z.K.Q.~.I.4.1.^ ) ) N ( 1.! 9 x.C.Z.f.i.s.z.c.M. X XZ.Z.C.i.n x.@X|.C.V.f.z.B.C.Z.C.f.a.g.z.B.p.zX",
"#X( V Q &.a.a.p.&.&.$.o.( 4.I.K.3./ c ) { g i ^ x 7 ! Q ~ ~ ! ~ _ _ V M M V Q $.L 1 y.f.[ ] [ #.[ [ _ _ [ [ $.o.[ ~ N '.",
"cX%.#.&.f.f.p.$.o.o.#.$.J i 1.) x c ) { { c | @.x U #.#.o.' o.[ #.#.[ #.#.#.$.&...k +.g.;.$.$.$.$.#.#.#.#.#.$.$.$.$.V oX",
"cXp.p.f.s.@.o.o.' ' #.#...3 j d d / ( ( ^ x i.p.@.#.#.#.o.o.#.#.#.#.$.#.#.o.%.$...1 q.f.&.] $.$.#.#.#.#.#.$.#.$.$.&._ oX",
"vXf.a.>.$.o.' ` ' o.#.%.n 0 6X0.7 j j f x ~ $.$.#.[ #.#.#.#.#.#.#.#.#.#.#.#.#.#.` b j.C.%.o.#.#.#.#.#.#.#.#.#.#.$.%.Q oX",
"vXs.&.$.o.o.' ' [ #.#.#.m 5XeXwX9X3X>Xz ~ #.$.$.#.#.#.o.| [ #.#.#.#.#.#.#.#.) $.` W z.z.%.#.#.#.#.#.$.$.#.#.#.#.#.#.V oX",
"cXp.%.#.[ #.o.[ #.#.#.' T 7XeXyX9X1X0 | #.$.$.#.#.#.#.' ! ! o.#.$.$.#.#.#.[ #.%.U A ..>.#.#.#.#.#.#.#.$.$.#.#.#.#.#.V oX",
"cX&.#.#.#.#.[ #.#.#.#.#.T 6XeXrX9X<X7.w.#.#.@.%.#.#.o.~ ~ ! ~ #.$.%.&.&.#.o.o.%.L A ..:.#.#.#.#.#.#.#.#.$.#.#.#.#.#.E oX",
"cX&.#.[ [ [ [ #.#.[ ~  .,.0XgX5X2X>XU [ ' ~ #.#.#.#.~ ! L W ! ~ #.&.;.$.#.#.[ #.o.J @.N.#.o.#.#.) | #.#.[ #.#.#.#.$.V oX",
"vX;.#.' ' [ [ o.' ' R ) 1.w.gX3X8 8.~ ! ! ! ! ' o.! L L ! ~ ~ ~ ' o.$.o.o.#.o.o.L k P f.%.) #.#.#.#.#.#.#.#.[ [ #.#.V oX",
"vXp.&.$.#.#.[ [ #.$.R ( 1.d w 1X0 m | ` ` o.' ~ ! ` ! ~ [ #.o.$.[ ' ' ! ! ' o.#.U 1 U f.&.%.%.%.$.#.%.%.%.$.$.%.&.&._ +X",
"'.U D H L J A A D S p R o.d 4X>X3 p l l A k D l k k k l l J J J J J k 2 2 k F J 2 > J q.K S D D 3 k J l l J L K K U p m.",
"e.O O - ; - $ .     & Q { / 7 6 * & * @ O X O @ @ O O o + % & @ % * @ O O + % - O @ u u % O .     X % % @ * p > # $ X e ",
"jXn.n.h.j.h.e.h.n.m.9.Q ) 1.z m.M.x.n.l.k.k.n.n.h.h.h.S q.M.n.n.M.l.h.h.n.M.l.h.h.l.oX XM.h.n._._._.'._.n.).u.; 4 r.9.`.",
"NXbXOXOXOXZ.|.+XcXcX@X#.) ) w.oX.X|.|.|. X+X#X#X.X Xj.N M.@X|..X.X|.Z..X.X+X.X|.Z..XOXOX.X XOXxX$XcXcXOX|.|.y.; h.xX|.bX",
"cXz.s.p.i.i.p.d.d.d.j.| E c | i.@.o.@.$.i.i.s.i.i.&.` u d.B.$.@.:.@.%.i.:.@.:.:.i.p.p.&.p.p.i.i.i.q.q.X.T H 2 > +.Z.p.#X"
};
