/* XPM */
static char *result[] = {
/* columns rows colors chars-per-pixel */
"60 60 251 2 ",
"   c #391207",
".  c #34231C",
"X  c #491904",
"o  c #541C08",
"O  c #541D15",
"+  c #72190B",
"@  c #522410",
"#  c #582516",
"$  c #68250B",
"%  c #772907",
"&  c #653402",
"*  c #783506",
"=  c #662918",
"-  c #752D17",
";  c #6B3119",
":  c #793517",
">  c #74341B",
",  c #7B351C",
"<  c #502D25",
"1  c #6B2926",
"2  c #742926",
"3  c #643425",
"4  c #783724",
"5  c #683D35",
"6  c #5E463D",
"7  c #724733",
"8  c #243D75",
"9  c #610144",
"0  c #543254",
"q  c #74354E",
"w  c #662C5A",
"e  c #49386D",
"r  c #3A4058",
"t  c #73484F",
"y  c #534F74",
"u  c #6F4F6C",
"i  c #756579",
"p  c #95170A",
"a  c #991815",
"s  c #902D0B",
"d  c #863905",
"f  c #982717",
"g  c #9C231A",
"h  c #843A1D",
"j  c #8A3A1B",
"k  c #96351C",
"l  c #AC370D",
"z  c #A1241A",
"x  c #A32D1C",
"c  c #A4311E",
"v  c #AA371C",
"b  c #8C1B2A",
"n  c #952D26",
"m  c #833C22",
"M  c #8B3E22",
"N  c #89352C",
"B  c #993925",
"V  c #8C3133",
"C  c #A63521",
"Z  c #A93621",
"A  c #A43B24",
"S  c #AC3C23",
"D  c #AC3F29",
"F  c #8E4716",
"G  c #99411A",
"H  c #A9491B",
"J  c #B74B11",
"K  c #B06B17",
"L  c #B8761D",
"P  c #874327",
"I  c #8D4224",
"U  c #8B4529",
"Y  c #944524",
"T  c #964627",
"R  c #9A4524",
"E  c #9C4A25",
"W  c #934629",
"Q  c #944A2B",
"!  c #9C4B2A",
"~  c #8A4936",
"^  c #974C34",
"/  c #8F5630",
"(  c #995237",
")  c #A64425",
"_  c #A44B24",
"`  c #AD4D25",
"'  c #AA432B",
"]  c #A44D2A",
"[  c #AA4D2A",
"{  c #B24425",
"}  c #BA4D25",
"|  c #B34628",
" . c #B54929",
".. c #B94E2B",
"X. c #AD5025",
"o. c #A6512C",
"O. c #AC532C",
"+. c #AA5D28",
"@. c #B85526",
"#. c #B1542D",
"$. c #BB512C",
"%. c #A64D35",
"&. c #A45433",
"*. c #A65637",
"=. c #AD5532",
"-. c #AC5934",
";. c #A45B3C",
":. c #AC5C3B",
">. c #B25532",
",. c #B25A34",
"<. c #B85A37",
"1. c #B35D3A",
"2. c #906433",
"3. c #A86725",
"4. c #B56829",
"5. c #B27222",
"6. c #AC623B",
"7. c #B66A32",
"8. c #B5613E",
"9. c #B9623E",
"0. c #C1531E",
"q. c #C7741E",
"w. c #C65A25",
"e. c #C1562A",
"r. c #C55B2B",
"t. c #C05930",
"y. c #C96627",
"u. c #CC632A",
"i. c #D46A27",
"p. c #D26B29",
"a. c #C9742F",
"s. c #DA7629",
"d. c #E37C27",
"f. c #853547",
"g. c #8B544A",
"h. c #985845",
"j. c #A85D43",
"k. c #AD5E45",
"l. c #9E644A",
"z. c #8A6957",
"x. c #9D6854",
"c. c #A76448",
"v. c #B46343",
"b. c #B96543",
"n. c #BA6946",
"m. c #B36848",
"M. c #B56A4B",
"N. c #BB6C4C",
"B. c #B6724B",
"V. c #A86B53",
"C. c #B36E53",
"Z. c #BB6F51",
"A. c #AB735C",
"S. c #BC7354",
"D. c #B67658",
"F. c #BD765A",
"G. c #BC795D",
"H. c #845862",
"J. c #946666",
"K. c #A76E63",
"L. c #AB7663",
"P. c #B47B65",
"I. c #BC7D64",
"U. c #BA7E68",
"Y. c #C1734E",
"T. c #C27657",
"R. c #C37B5D",
"E. c #C37E61",
"W. c #BE8724",
"Q. c #C38219",
"!. c #EB940E",
"~. c #CB9326",
"^. c #CC8E31",
"/. c #C68738",
"(. c #E4832B",
"). c #E98A2B",
"_. c #EC922A",
"`. c #F2962E",
"'. c #E18933",
"]. c #EC9533",
"[. c #F49C31",
"{. c #D6AA34",
"}. c #DDB538",
"|. c #F6A234",
" X c #F9A534",
".X c #FAAA36",
"XX c #FBAC38",
"oX c #BF8A40",
"OX c #B88067",
"+X c #BD826B",
"@X c #BA8773",
"#X c #C9924D",
"$X c #D0A94E",
"%X c #DAB449",
"&X c #E1BB47",
"*X c #C48266",
"=X c #C4856C",
"-X c #C8876B",
";X c #C38A73",
":X c #C68D77",
">X c #CC8D73",
",X c #C89179",
"<X c #CC937B",
"1X c #D49677",
"2X c #DFA17E",
"3X c #DCC45F",
"4X c #E4C346",
"5X c #E6C856",
"6X c #EFD753",
"7X c #E8CE71",
"8X c #F6E971",
"9X c #055298",
"0X c #364C89",
"qX c #33518B",
"wX c #326698",
"eX c #0058A4",
"rX c #315DA0",
"tX c #0B64AB",
"yX c #0069B5",
"uX c #0375BC",
"iX c #3471AB",
"pX c #495784",
"aX c #506B98",
"sX c #746F8E",
"dX c #4F75A6",
"fX c #0877C3",
"gX c #7B809A",
"hX c #5290BA",
"jX c #6585B4",
"kX c #0E8BD2",
"lX c #2C8DD0",
"zX c #1CA1E2",
"xX c #06AEF2",
"cX c #2CA6E6",
"vX c #489BD2",
"bX c #8B98B2",
"nX c #ABA2A1",
"mX c #CD9A84",
"MX c #D29C85",
"NX c #D4A68F",
"BX c #E4A985",
"VX c #ECB792",
"CX c #E9D58C",
"ZX c #EDC790",
"AX c #F5E995",
"SX c #FCF59A",
"DX c #DFC7B2",
"FX c #FCCBA5",
"GX c #FED2A9",
"HX c #F8EFAA",
"JX c #91AEC6",
/* pixels */
">XS.v.m.m.6.,.1.v.M.N.N.M.b.n.S.M.M.M.Z.M.M.M.v.m.Z.M.! C.-XF.M.N.v.:.-.-.=.-.8.Z.E.G.S.N.Y.F.Z.N.Z.F.m.1.v.N.k.s G.<X*X",
"Z.-.H O._ _ [ O.` ` H ` [ -.8.v.8.>.[ ` ` ` | ` [ X.[ : Q m.,.O.[ E T E ] 4.X.] ` #.@.#.#.[ ` [ [ [ _ E E _ ` ) G m.G.-.",
"M.1.#.O.] [ O.>.>.,.>.>.1.b.N.N.b.9.1.,.>.<.>.>.>.>.-.I ;.E.b.=.o.! ] ] 7.$X4.O.>.1.1.,.,.#.>.>.>.>.-.] ] O.O.O.I E ,.,.",
"G.9.` O.[ [ O.O.O.O.#.,.1.n.N.8.1.1.1.1.,.>.>.#.#.#.%.k j.G.v.[ ] ! o._ /.5X/.` O.,.9.,.,.,.,.>.>.#.] ] [ O.#.o.I T 8.-.",
"-Xb.` O.[ O.o.O.o.O.O.O.8.n.9.,.,.,.,.1.,.#.>.#.#.#.] h ( N.1.O.o.] ] [ {.8X$XE ,.,.8.<.,.#.,.#.O.] ] _ O.O.#.O.Y ( b.-.",
"R.b.#.#.O.O.o.O.[ [ O.O.,.9.9.,.7.,.>.>.#.>.>.#.#.#.%.j &.N.1.] E 7.{.q.7XSX$XY =.1.9.<.,.,.,.=.o.] ] O.O.O.#.O.Y E v.1.",
"Y.<.[ #.O.o.O.[ O.+.O.O.,.9.1.=.` @.#.,.>.>.>.>.#.#.] m ( N.,.+.3.%X6X4XAXSX$X/ 4.,.8.,.#.>.>.=.o.] ` O.#.O.#.[ m j ,.1.",
"Z.b.O.O.+.O.+.O.O.O.#.#.8.9.1.a.1X1X<.#.>.>.>.#.X.#.&.m ! m.a.a./.6X6X8X8X5X{.5.^.9.>.,.>.>.O.! ! ! ] #.#.#.O.=.M ^ N.1.",
"F.b. .=.[ O.O.O.O.O.#.,.9.9.9.BXGXFX1X7.,.,.#.#.#.#.-.G 6.Y.&X~.%X8X8XAX7X7X/.~.&X4.[ #.O.O.! T T ] O.O.X.#.#.O.G :.S.8.",
"R.b.#.,.>.=.O.O.X.O.#.,.9.9.1XFXGXFXBXB._ ,.>.#.@.@.H T oX#X7X5X6XAXHXCXCXCXK 3X5X4.] o.] Q Q T _ O.>.#.O.#.#.o., Q v.:.",
"*Xn.#.9.<.,.,.>.,.,.#.9.9.9.2XDXJXbXsX;.>.,.,.,.=.V.J.: ^.6XCX5X6X8XHX$XCX%X7XSX%XE Q ! ! T E ] =.>.>.=.O.=.>.O.M &.n.,.",
"&.Q j M m M m m h j G E Q P V.hXxXkXbXA.o.R Y P u jXlXiXz.%X8X%X}.8XCX#X7XDXHX6XW.! 3.Q M M I j j h j h I k Y h $ 4 ^ I ",
"M > @ o # $ o # = 2 h h =   X tXlXnXGXFX2Xl.;.OXNXVXnXlXuX2.4X6X{.8X7XQ.7XSX8X}.L 5.3.; - : : : = 1 1 = , h - @ O 1 - # ",
"mXA.h.V.K.A.A.P.@X+XU.P.( % Q pXrXNXGXFXGX2XVXFXFXBXOXiXtX9 J {.}.4X%X~.4X6X}.W.5.5.E P h.c.V.D.P.P.U.P.U.P.V.C.L.@XP.A.",
"MX*XE.-X>X<X>X<XmX<X1X>Xm.j *X,Xi J.NXZX2XBXZXVX<X*Xx.iXe H i.q.a.~.~.Q.~.~.5.L 3.5.2.c.-X-X>X>XE.>XmX<X<X>X-X;X<XMX<X>X",
"v.-.1.v.v.v.v.v.v.v.b.v.Q , D.*XM.8.6.D.m.*XG.B.6.3.z.9Xt q.|.i.J L Q.L 3.3.3.L 5.3.F C.R.M.N.8.>.:.>.k.1.k.v.v.v.6.:.:.",
",.#.X.X.X.` X.` X.[ O.X., > M.R.1.,.#.H &.6.-.&.^ t y f.y.[..Xs.v S ) 3.L 5.3.3./ I U S.T.1.#.X.X._ H H _ O.[ ` X.X.O.H ",
"n.<.>.,.,.1.>.>.>.=.-.&.m , D.*X9.1.,.,.=.[ ] k f N B J (.|..Xs.z c x H L K 5.L 3.I U M.Y.1.#.>.O.=.=.O.O.O.=.-.-.-.#.#.",
"n.,.>.1.<.,.>.>.>.>.#.O.I P C.Y.=.>.,.,.>.>.=.C A { z | ].XX|.s.C D  .C E +.3.-.-.I M k.v.O.#.#.#.#.O.X.[ O.O.=.>.#.O.O.",
"N.,.1.9.9.,.,.=.>.>.>.=.Y U N.N.>.=.,.,.>.>.>.f g  .u.'..X.X[.p.{ | $.$.S A ] =.,.Y m v.<.#.X.#.#.#.O.[ O.#.#.>.>.>.O.O.",
"N.8.b.9.,.,.[ o.=.>.>.>.R Y m.N.>.,.8.,.>.>.' S Z S (. X.X.X).r.$.$.$...$.D V >.>.E U k.9.#.#.#.>.#.O.[ O.O.O.>.>.O.O.O.",
"Y.n.b.9.=.] ! ] ] [ >.>.Q , -.8.>.1.1.,.>.,.' S p.e.i.`..X|.s.$.$.$.$.$...^ 0 ~ >.] Y 6.8.O.>.>.>.>.O.[ [ ] [ #.O.O.O.O.",
"R.N.9.,.=.! ] O.O.>.1.v.Q > ] 1.o.>.,.>.>.>.' S d.(.r.s.[.`.u. .$.$.$.>.} f.y z.#.Q P ! :.[ #.#.#.#.#.[ [ ] ` O.+.O.O.#.",
"R.n.,.>.o.] O.O.=.1.n.N.Q - ;.b.o.O.O.O.O.O.A C u.i...e.i.p.$.#.$.$.$.| { q i BX2X^ ; G -.] [ O.#.#.#.[ [ ] ] O.O.O.O.O.",
"Y.9.>.=.o.[ #.>.,.b.Y.b.Q > v.Z.,.,.,.=.O.[ ) c { ..x S e.e...$.$.{ S S Z g.D.BXGX>X* *.1.O.O.O.#.#.O.#.#.>.>.1.-.O.X.o.",
"N.:.O.! ! =.-.-.8.9.v.:.P ; ;.Z.8.1.,.O.[ &.[ A l l l p l J e.| v x S  .>.N.#X1XFXZXG.-.1.] ] O.=.O.=.&.-.-.:.-.-.+.O.O.",
"; @ o $ $ > > > , 7 3 #     + k - j I h , > * 1 w 0 w w w w b b f v C f W B.G.-XVXVX2X9.R j d j - - d - + % d h ; 4 , : ",
"6 6 6 5 7 4 4 4 > = @ < < 7 h.h.~ / / P 4 4 7 0 9XyXyXuXfXyX9X0Xe N f , m &.B.B.1XBX*Xc.:.;.( ( ^ ( ~ ~ ~ g.j.^ = ; : : ",
"mXNX<X:X;XE.S.G.S.m.C.=X:X<XNXNXmX=XS.v.m.F.A.qXeXyXfXkXuX9X9X9X8 ~  .k.M.6.&.&.B.*XS.6.F.R.*X=X:XmX>X=X,XMXMXR.H V.@X+X",
"mX:XI.I.S.m.M.Z.N.N.D.I.*X=X=XG.D.m.j.1.9.N.c.u u u y sXu k.%.f.V C >.v.m.8.1.:.*.6.6.-.8.8.v.Z.E.R.T.S.F.F.F.v.H D.<X*X",
"S.,.H ! E E ] [ ) [ [ _ ] E G E R E ] O.O.] y._.]._.!.!.0._.p.S { { C [ =.O.#.>.>.-.+.o.] ] ] [ O.O.[ O.O.O.O.E M ! 8.O.",
"S.1.) ] R E ] [ [ [ [ ' [ ] ] ! [ O.#.#.O.y.'.|..X.X Xd.v s.].t.$...x c O.O.[ O.O.O.o.! ! E R [ =.=.>.>.=.=.o.E P E ,.,.",
"b.=.! ! ) ] [ [ [ [ [ ] O.#.O.[ [ >.>.e.(.[..XXXXX.X Xp.a u.d.e.$...S x g ] [ [ ] ] E E ! _ ] [ ,.>.>.>.>.%.! ! M ! v.-.",
"k.O.E ] ] [ [ [ [ [ [ -.>.,.>.O.>.>.a.]. XXX.XXX.XXX[.y.z 0.u.e.$.$.$. .x B ) [ [ [ ] o.O.O.O.-.v.<.>.>.=.) ] ] R &.v.,.",
"S.:.E [ ) [ [ [ [ [ [ O.,.=.O.O.%.u.(.[. X.X.XXXXX X).} z Z ..$.....$.$.S S C ) [ [ [ O.#.=.=.>.v.1.>.=.] ! &.O._ ;.M.6.",
"S.:.) [ [ [ [ [ [ [ O.O.O.O.=.>.a.s.). XXXXX.X[._.d.u.} c C | ..{ ' ..$...$. .Z A ] O.O.>.>.>.>.,.>.=.-.] ! O.=.R o.b.,.",
"M.-.) [ [ [ [ [ [ O.O.,.#.,.,.a.[..X.X X[.).p.p.r...$...v Z { v c ..$.$.$.$.$.$.Z B ] -.>.>.#.#.>.>.>.>.O.O.,.,.[ 8.N.,.",
"Z.,.[ [ [ [ [ [ O.=.=.,.8.-.7.d.[. X X[.(.i.r.r.{ v ) c p a x x D ..$.$.$.$.$.$. .x C -.>.>.#.#.>.>.>.>.,.,.8.8.] &.v.1.",
"Z.,.` [ [ [ [ O.O.,.9.9.,.<.(.]. X X[.(.s.s.r.} | | v f n n a x {  .....$.$.$.$...{ | ' >.>.#.O.>.,.1.1.9.9.9.8.I I :.,.",
"S.k.O.O.[ O.#.>.1.n.b.1.<.)..X X).p.t.e.D Z Z Z C a n s V.R.' x Z S ..e.$...$.$...$.$.Z ' ,.>.>.1.b.Y.Y.b.<.9.8.E ;.S.9.",
";.Q j Y Y Y E ! ( ! ! W y.|..X.X X].s.$. .| ....B s 2 - ( m.! j B S | ..$.#.| { .. .{ { z A o.O.-.:.:.( Q o.-.! P Q ;.^ ",
"d $ o $ & - - - $ $ $ = q..X|.).(.s.u.e.....c n - # o X : G F - - + + p z c S {  .Z  .w.S S k R T F - X X - P : @ $ % $ ",
"U.K.x.x.V.l.l.( l.A.V.h./..XXX].a.e.z a a D x.V.j.l.V.L.+X=XC.c.c.h.h.~ n v v C Z { u.d.0.w. .%.v.h.h.( x.x.( T ^ c.V.V.",
"NX,X>X>X,X,X-X*X>X<X=XE.'. XXXXX`.s.0.0.@.>.E.:XE.E.>X<XMX<XR.T.*X=X;X,XU.D { e.r.r.d.d.0.u.i.' k.R.=X-X1X;XT.N.S.=X>X=X",
"I.M.M.Z.G.E.F.S.T.N.b.v.>.)..X|. X X[.d.u.v A v.N.v.M.M.N.v.-.-.b.M.S.S.S.=.S r.i.d.).i...p.s.} Z 1.Z.Z.S.M.n.v.m.n.b.m.",
",.H H >.9.b.9.8.,.-.#.O.B y.).`..X.X[.).s.w.g g '  .[ ` [ [ ] [ ` ` H J J H a f Z 0.u.r.{ $.i.S C )  .H H ` X.#.#.#.X.X.",
"N.1.b.N.N.b.-.-.O.=.,.,.Q B y.|..X.X[..X X).s.w.D ' >.>.>.=.=.>.,.>.O.>.1.>.A a x Z x S S } w.v v  .<.>.>.<.,.,.9.,.,.,.",
"Y.b.b.b.-.-.O.O.O.O.,.=.U + @.|..X_.[..X(.e.$.r...C >.>.=.=.>.>.>.>.>.#.>.>.' Z Z e.i.i.} { c a q %.>.>.>.>.,.>.#.#.6.,.",
"S.M.1.<.=.o.O.O.=.>.>.=.U $ A s.).i.`.(.t.v p l S D >.>.=.>.>.>.>.>.>.>.>.>.>.A  .$.u.u.v p b 0XeXu [ >.>.>.>.>. .>.>.,.",
"Y.1.>.>.=.=.=.O.#.>.>.>.M > C  .e.r.p.0.z f.q f.b ' >.=.=.O.>.>.>.>.#.,.>.>.>.' Z  ...Z b q 0XtXfXrXg.>.1.,.>.>.>.>.>.>.",
"N.>.>.>.#.>.>.#.>.>.,.=.U P j.' ..Z v V e tXfXaXy ^ >.=.] ] [ >.,.,.,.,.>.>.>.>.' B f 2 qXyX0XiXlXkXdX%.>.,.,.>.>.>.>.>.",
"N.<.>.>.>.>.>.>.>.#.,.1.U 4 :.'  .D p w fXcXcXdXqXH.[ o.] ] ] o.>.1.9.,.>.>.>.>.,.R W h.pXyXrXpXlXlXdXH.#.>.>.>.>.>.>.>.",
"M.>.>.#. .#.#.>.O.O.,.8.P $ %.<.c C s e fXcXxXvXsXt ' ] ] _ ] ] O.,.,.8.>.>.>.>.-.] Q v.x.y uXiXpXaXhXwXh.#.>.#.>.>.=.>.",
"N.>.O.#.O.O.#.O.=.O.<.,.M > c.N.O.) H t tXzXvXjXgXu ~ E ] [ O.O.O.#.O.=.O.=.O.=.>.Q , -.N.( u wXpXdXlXkXi @.>.>.>.>.>.>.",
"N.8.=.=.=.O.O.=.-.=.8.:.P 4 C.D.] ] ] _ y iXhXcXcXdX0Xg.O.=.O.=.=.=.O.! Q ! o.-.-.U > ;.N.,.~ qXH.V f.sXaXH.=.-.>.,.,.:.",
"/ 4 m Y I 4 > 4 > 4 4 4 @ # U ~ : , , , ; e lXxXxXjXu 0 : 4 m 4 m m , ; = ; > h 4 = $ T Q P q q d F d * N u q G W 7 P 4 ",
"# # 1 : , ; O . . . . < < < N N 2 m 2 2 $ r fXvXgXh.d $ # - 2 1 2 4 - 1 1 3 1 2 = = 4 ] B 2 < # & * & & * % 1 M ; X o o ",
",X@X+X=XE.G.P.@X@XmX@XmX+X;XmXmX=X=X+XOXOXgXdXu d * 7 j c.;X;X*X;X+XI.U.+X@X;XU.G.P.;XmXmX>XE.@XP.g.t 7 2.g.K.G.d ~ P.+X",
"MX>X*X-XR.R.*X,X<X>X<X>XR.*X-X=XT.F.F.R.J.u q * : & E l m.>X*XG.E.I.T.T.E.*X*XE.E.E.E.E.E.E.E.-X>X-X-X*XD.D.D.6.% ( >X>X",
"<X:X=X;X;X-X;X;X;X;X;X;X=X+X*X+X+X+X*X-Xx.U / / 2.A.OXV.@X<X-X+X*X=X=XE.=X*X=X=XE.=X>X=X-X>XE.;X-X-X@XOXOXOXA.L.z.L.<X<X"
};
