/* XPM */
static char *result[] = {
/* columns rows colors chars-per-pixel */
"60 60 254 2 ",
"   c #0D0000",
".  c #290201",
"X  c #3C0701",
"o  c #3E1C0D",
"O  c #36241A",
"+  c #470502",
"@  c #540D06",
"#  c #551604",
"$  c #670706",
"%  c #631300",
"&  c #5D2508",
"*  c #572C15",
"=  c #5A2A16",
"-  c #662C09",
";  c #732E0A",
":  c #6B2B17",
">  c #69331A",
",  c #77371B",
"<  c #4B1723",
"1  c #6B3826",
"2  c #783C22",
"3  c #794329",
"4  c #794733",
"5  c #714C35",
"6  c #29294E",
"7  c #59374C",
"8  c #702E46",
"9  c #3F4651",
"0  c #364C73",
"q  c #744D50",
"w  c #514E75",
"e  c #6D566A",
"r  c #776870",
"t  c #8A1210",
"y  c #8D2E0D",
"u  c #872918",
"i  c #873A1D",
"p  c #96351E",
"a  c #A13C0D",
"s  c #853626",
"d  c #963B25",
"f  c #9B3A23",
"g  c #994C08",
"h  c #8A461D",
"j  c #A24900",
"k  c #A95013",
"l  c #9F6614",
"z  c #B3660C",
"x  c #864527",
"c  c #83452A",
"v  c #8C4A2C",
"b  c #954627",
"n  c #9C4125",
"m  c #944D2C",
"M  c #9B4D2B",
"N  c #85512B",
"B  c #96522D",
"V  c #9C512E",
"C  c #985829",
"Z  c #844A33",
"A  c #8C4D31",
"S  c #924E32",
"D  c #9B4F31",
"F  c #895537",
"G  c #945334",
"H  c #9C5432",
"J  c #985838",
"K  c #9C5A3B",
"L  c #A3442A",
"P  c #A54A2C",
"I  c #A94A28",
"U  c #A1532E",
"Y  c #AB5629",
"T  c #A3582D",
"R  c #B4572A",
"E  c #BA5D2C",
"W  c #A94E30",
"Q  c #A35532",
"!  c #A95634",
"~  c #A55933",
"^  c #A95935",
"/  c #A75638",
"(  c #A45B3B",
")  c #AA5D3A",
"_  c #B45A32",
"`  c #916635",
"'  c #99673A",
"]  c #98763B",
"[  c #A76B2B",
"{  c #A5623C",
"}  c #AB623D",
"|  c #A7693B",
" . c #B66438",
".. c #A7763C",
"X. c #B77031",
"o. c #C3672C",
"O. c #CC742E",
"+. c #D67B26",
"@. c #C56B31",
"#. c #CA7836",
"$. c #D47B32",
"%. c #885A47",
"&. c #985C43",
"*. c #8D5957",
"=. c #A45E43",
"-. c #8B6547",
";. c #976748",
":. c #9B7547",
">. c #8D6957",
",. c #986A57",
"<. c #9E7454",
"1. c #A56444",
"2. c #AC6543",
"3. c #AD6A44",
"4. c #A56949",
"5. c #AD6B4A",
"6. c #B16643",
"7. c #B16B45",
"8. c #B16D4B",
"9. c #A87748",
"0. c #B47346",
"q. c #B3734C",
"w. c #B47B4C",
"e. c #B97B49",
"r. c #A76C52",
"t. c #B36F50",
"y. c #AD7353",
"u. c #AA785A",
"i. c #B47453",
"p. c #B57B54",
"a. c #B97D54",
"s. c #B27559",
"d. c #B67B5B",
"f. c #BA7C5C",
"g. c #987362",
"h. c #A97A64",
"j. c #B77E62",
"k. c #A47F70",
"l. c #B38000",
"z. c #AE8233",
"x. c #B8833A",
"c. c #E39416",
"v. c #D38C32",
"b. c #D98738",
"n. c #E38F32",
"m. c #E2943C",
"M. c #E69A3D",
"N. c #D0A933",
"B. c #EEA53D",
"V. c #AB8347",
"C. c #B68649",
"Z. c #BC834D",
"A. c #BD8B4D",
"S. c #BC924E",
"D. c #AC8355",
"F. c #B48757",
"G. c #BC8453",
"H. c #BD8B53",
"J. c #BB845B",
"K. c #BD8A5C",
"L. c #BC9359",
"P. c #AB8C6B",
"I. c #BC8264",
"U. c #BE8C63",
"Y. c #B78769",
"T. c #BB9466",
"R. c #B58972",
"E. c #BA8B74",
"W. c #BC9479",
"Q. c #C28649",
"!. c #C28C4E",
"~. c #C29C46",
"^. c #C5924E",
"/. c #DA9845",
"(. c #C18757",
"). c #C28D53",
"_. c #C28D5B",
"`. c #C59353",
"'. c #C89653",
"]. c #C4925A",
"[. c #C69958",
"{. c #CA9B5C",
"}. c #E59A42",
"|. c #CCA857",
" X c #D2B050",
".X c #ECA443",
"XX c #EEA945",
"oX c #F0A844",
"OX c #F1AD45",
"+X c #F3B147",
"@X c #C18D64",
"#X c #C1866A",
"$X c #C28B6D",
"%X c #C49364",
"&X c #C4926B",
"*X c #C79A68",
"=X c #C38D73",
"-X c #C49275",
";X c #C99976",
":X c #C5937A",
">X c #D39B76",
",X c #CBA468",
"<X c #D5B868",
"1X c #CCA676",
"2X c #D0AC72",
"3X c #D3A779",
"4X c #D5B57A",
"5X c #DFC663",
"6X c #E7CF6C",
"7X c #003981",
"8X c #064F91",
"9X c #2D5590",
"0X c #366694",
"qX c #0D5CA5",
"wX c #0569B6",
"eX c #1E71B5",
"rX c #2B68AB",
"tX c #4C5284",
"yX c #656A93",
"uX c #707590",
"iX c #4E72AC",
"pX c #826E81",
"aX c #638DB0",
"sX c #7491B5",
"dX c #0D8CD3",
"fX c #2C8BCC",
"gX c #2A9DE3",
"hX c #4591D0",
"jX c #8D888B",
"kX c #AC9A8C",
"lX c #8C9BA6",
"zX c #C89B84",
"xX c #CB9C84",
"cX c #CDA587",
"vX c #D6A986",
"bX c #D8B585",
"nX c #D2AE92",
"mX c #E6B994",
"MX c #D6BCAE",
"NX c #DBCB88",
"BX c #E7D688",
"VX c #E8D595",
"CX c #F6EB92",
"ZX c #DFC7BF",
"AX c #F2CCA8",
"SX c #E9D9A9",
"DX c #E8D8B9",
"FX c #FCD6B1",
"GX c #F6ECAA",
"HX c #8CB2D0",
"JX c #E2CDC5",
"KX c #E6D3C8",
"LX c #E9D8D2",
"PX c #F1E7C5",
/* pixels */
"LXKXJXJXKXKXZXZXJXKXKXKXKXJXKXDXSXSXKXKXKXKXJXDXDXSXZXZXKXPXSXKXJXDXSXVXSXSXSXKXLXPXDXSXDXLXKXJXKXLXKXJXJXJXJXMXZXLXLXJX",
"I.q.j k k j a j j k ^ [ Y j k G.'.~.H.X.a.X.k C.'.{.T y 5.*X[. .g X.A.C.X.Q.X.[ a.*X|.'.a.7. .Y [ 7.~ j j Y k t T -Xp.j ",
"j.2.( ( K H K ( ( ( / ~ ) 2.y.U.[.'.).q.G.q./ Z.^.!.K 3 &._.H.( &.C.H.H.%X_.A.1.e.'.'.'.q.! ( ( / ! H J J / D S r.f.1.G ",
"y.2.Q Q H V T ! ! ^ ^ ^ ) 3.t._.{.`.'.G.).a.2.Z.'.).K x r.U.H.2.{ C.C.].%X`.A.0.(.'.'.'.q./ ) ^ ! ( H H H ! / c v ( ^ B ",
"j.8.Y ~ Q H Q Q Q Q ~ ^ } 5.8.G.'.!.'.`.`.).q.Q.^.A.G h 5.4X5Xz.] C.H.L.%X).!.C.).'.'.^.0.^ ) ! Q H B U Q ^ T x x 2.) B ",
"E.i.Y ~ U P H T H T T ~ 2.7.6.Z.^.A.'.'.^.^.Q.Q.^.A.S.z.NXCXN.|.4X<X XF.U.i.C.S.`.).'.).0.) ( Q Q H M V ~ ! Q b G 5.} B ",
"I.8.T ~ T H T T T H Q ~ ) 6.) e.'.A.!.^.^.!.).!.v.T.BXBXPX5X5XGXGX Xx.[.<X<XC.S.`._.'.^.7.) ! Q B V T Q T ! Q v v 2.2.G ",
"i.6.~ ~ ~ T Q H T H Q ! } } ) e.'.A.G.^.^.).e.).e.bXBXGXGXN.CXGXCX<XS.6XCX X9.(.(._.'.^.0.! ~ H B M T ! T ~ Q 3 , ( 2.D ",
"s.8.! ~ Q T H T ~ T ~ ^ } 6.) 0.'.!.Z.).'.Q.7.Q.[  X6X6X5X+XCXBX,XNXDXVX~.9.p.7.G.).!.^.7.Q H m M B Q ! ^ T Q x m i.2.M ",
"f.8.~ ^ Q T T Q T Q T { 2.6.) e.'.(.q.).'.'.e.*XVXCX5XN.6X<XN.l ~.<X*Xz.' L.F.} q.!.Q.!.3.m v v m Q ~ ! T ! Q x K i.2.m ",
"j.i.! } ^ Q Q Q T T ! ) 6.6.( q.'.!.0.Z.`.!.|.VXVX<Xz.V.|.V.~. X6XBX<X X~.z.p.2.7.H.A.A.' x v M H ^ ! T ~ ^ Q 2 v 2.{ B ",
"#Xq.^ } ) 2.} ~ ) ^ ~ } 2.2.} C.{.'.8.e._.`.|.~.g C ;XE.;.] <X|.6XGXCX Xx.S.L.9.w.`.!.(.J v M Q ^ ^ ^ ^ ~ ^ ~ s G 8.} B ",
"m v 2 2 , Z F : , i x v c 3 3 ` 9.:.v G D.V.V.] ' Y.cXcX;XC...C z.l.l N ] 9.V.' ] V.V.9.N x x , , , 2 2 i x 2 = 1 v 2 : ",
"A 3 = = = 5 >.5 1 3 c s * # + 5 ] :.5 2 -.D.V.:.:.K.y ;XvX4.C [ [ [ [ ] :.:.] :.9.] ] ] 1 ` N 1 1 1 1 2 c 2 = = 1 1 : 1 ",
"cXE.r.h.h.k.xXcXkX=XE.j.;., &.T.,X1X;Xu.d.T.T.,XL.d.I.>XJ.C ` [ ' ..:.W.1X1X2X4X1Xz.V.T.d.W.Y.Y.E.E.E.E.R.j.h.R.kX=Xj.h.",
"nXj.j.#X=X:XvXnXxX:X:X:X4.x Y.cX4X4X;Xj.U.;X-X1X;Xd.Y.K.r.q.K ' u.w...*X2X1XbXbX1X9.L.4X3XcX=X#X$X=X:X:X-X$X#X=X:X=X=Xj.",
"} Q ( ) ( ~ q.%XK.3.) 2.3 4 I.&X{.{.a.Q } 3.3.e.X.z z :.H./.@.#.m.r.yXjXY.G._._.q.F L.2X,XJ.) H V V K 3.i.2.( ( ^ V K G ",
"3.^ U T T T ^ G.].a.} ~ , 4 T.*X[.[.A.! H | z k.aXlXlXT.M.M.}.OXv.rXdX0Xr Z.).0.K J L.2X{.| U Y T M U q.q.T U U T Y U M ",
"i.} ^ ) } } ) a.]._.I.9.3 , *X3X'.'.).1.yXA.M.aXgXgXlXB..XXXXXB.u.8XW.4.Z G.H.6.J ' L.,X`.} ^ ^ ^ ^ 3.J.q.H ( ( ( ^ ~ H ",
"i.) ~ } } ) Q q._.).].K.J 2 _.,X!.`.`.3.9X]./.hXdXkXc.B..XXXOXXXe jXAXmXp.a.a.) / ] H.|.C.Y Y ^ Y | F.F.0.Q ! ! ^ ~ H B ",
"i.} } 6.} } ! 2._.).).].9.v K.*X`.`.].0.,.Q.c.uXpXn.}..Xm.m.OXoXq kXAXAXvX3.i.) K 9.H.{.C.T ! ! } w.J.K.2.Q ^ ) ~ Q T B ",
"i.6.7.7.} ~ V H G.`.)._.C.` y.|.`.[.{.$X>Xn.}.@.b.}..X/.}.XX}.@.s 2 vXFXAX9.h ^ { 9.H.|.e.Q ^ / p._.H.H.2.T ^ ~ Q T Q H ",
"f.8.8.2.( H m M 9.`.`._.F.:.| `.].].].bX>Xo.+.+.+.z k O.b.O.R L b H ` >X>Xp.$X5.1.C.A.{.0.( } 7._._.).G.( T ~ T H Q Q C ",
"j.q.6.) ~ M H V 2.).{.*XC.:.p.].^.].;XvX#Xu 8 *.*.w w 8 $ k R T e.Z.e.N p.mXFX>X{ V.V.`.3.0.q.H.].`.H.i.B V ~ ~ Q ~ ! C ",
"j.8.) ~ Q B Q Q ) K.,X,XC.] T.{.`.vX3XJ.7.%.8XwXfXgXeXqX8X7 H Z.'.G.(.| vXFXAXmX:.] V.`.w.w.H.).).).).2.M ! ~ ~ T Q H m ",
"f.7.) ! H Q ^ ^ ) J.{.*X;XU.L.P.kXmXvX;X0.q 8XeXfXfXeX8X7Xq ).'.).q.).Z.p.vXVXHXaXP.A.].H.)._.`.`.`.).} ^ ) } ) ~ T T m ",
"r.K G A v H H K K 5.&XK.&X3XjXfXsX:XF.;.C v w.9.f.(.8.6.k b w.H.H.C.H.H.' g aXdXsXvXU.e.A.C.H.S.H.F.w.B G J J H K H G N ",
"# . . X + & = & - * P.J.J >XkXwXwX0 ` ` Z b.B.b.M.B.n.M.b.f 3 ;.V.V.9.:.Z - 6 aXcXG.vX1XV.z...] :...4 @ % ; , = * - - # ",
"%.r q %.%.%.Z Z Z > -.$X3.-X;Xr pXT.F.D.e.B..X#..XOX.XXX}.Y s F &.9.9.D.;.3 3 9.3XvX;XT.{.[.T.T.T.T.r.*.r.h.4., 1 F 4 4 ",
"zXnXcX:X-XI.d.I.d.t.I.T.y.9.P.3XbX4X*XK./.B.b.o.}.+XOX+X.X@.n r.8.q.H.*X%X2.d.Y.Y.U.y.*X2X,X2XcXbXvX=X=XzXxXI.T r.zX-Xd.",
"=XY.s.s.5.{ 1.5.6.5.y.L.F.9.I.T.L.L.F.e.XX}.o.f /.OXOXOXOXb.n K 2.2.7.p.p.) q.%Xp.C.].[.`.L.a.U.,XY.6.5.9.5.1.b 4.$Xf.4.",
"i.2.g b v v M M M M M 0.).9.B ' 3.S.C.#..XOX$.t E oXOXOX+Xm.L s T ! Q ) } Q q.p.7.].A.C.H.9.( w.H.| U Q U V M c v ~ Q b ",
"i.2.m G m H M U P H Q 2.A.e.K { 7.Z.!.m.XX+X.XR t b.+X+X+X}._ u Q ~ ~ ~ T ~ F.8.3.A.C.V.p.{ ( H.H.) / / ! H S 3 m ) { G ",
"2./ B M M M Q D V ( ~ } !.).} { 3.w.!.m.+XXXm._ t Y .X+X+XoX@.f b Q V Q M ( p.( w.A.C.p.q.K 2.L.a.! / ) H B m x m 2.} m ",
"5.( m B V Q V H U U 3.5.A.'.e.)  .7.0.m.+XXX@.n u f #.+XOXoX#.W b B H M M 4.3.~ C.A.a.G.3.Q q.*Xp./ ~ Q B B Q M J 5.} B ",
"s.4.M Q H P U P U M 2.J.G.^.H.} 6.t.0.n.OXm.R f u L  .}.+X+X$.P p M H M H 3.( 2.!.A.w.w.} ^ G.%X5.! ~ H m H ~ m H 5.} B ",
"s.2.M U Q M V Q U V U w.].S.].q.q.d.} n.oX#.W I p d E b.XXOXb.P L M V U Q ( Q 0.H.C.q.2.! } _._.6.! ~ Q V Q ( M H 5.} V ",
"i.2.M U M Q H P Q Q Q 2.K.[.].G.8.w.M +.m.@._ L P G n b.XX+XM.W R Y m T T T Q Z.H.p.3.) Q 0.`.G.} ~ ( ^ ~ ) } Q 1.q.} V ",
"s.2.P U Q U V U U ~ } } a.].`.).q.{ f $.$.E L L V 4.i I m.OX}.R O.R i V Q V | H.J.f.8.} ! a.].q.! ( ) } } 2.2.m v ( } B ",
"y.2.V Q P H Q U ~ 2.7.2.} (.`.).(.1.d _ E P n L p G m f E m.b._ +.R I b H T w.H.f.J.i.2.} _._.} ) 7.2.6.6.6.2.v Z 2.} B ",
"u.3.T H Q H Q ~ 2.2.2.} ~ 0.H.`.L.V.n P P n R d d A Z L L W _ _ +.n R Y H ) F.J.f.f.q.{ p.%XK.p.a.i.8.2.} } 2.B K d.3.B ",
"x , : , 2 2 s x 3 2 3 , , 3 ` :.:.` Y E R E L f f : @ d E W L @.O.L o.Y : G ;.K K J Z F 9.F.J.F.u.G 3 1 i m v 1 2 x 3 > ",
";.4 1 1 3 3 3 1 1 4 %.-.1 * 5 :.:.` d o.o.L L I d : 1 1 _ O.o.+.@.E $.I : -.;.A v : = -.D.D.F.D.F , * * 3 3 2 > 1 3 4 1 ",
"MXnXW.R.Y.P.j.u.j.E.R.-XT.<.P.4X4X9.t W n d I L f =.R.zX&.k $.b.E @.$.E f h.:XE.r.x ;.:XnXbXcX:Xd.d.h.Y.R.y.( ;.Y.-X:Xu.",
"nXnXnXvXcXcX=XI.$X$XI.Y.T.F.1XbX>X~ f ! L L W L d r.$X=X1.t L _ _ $.O.O.I =.W.$Xi.G R.mXnXbX1Xj.f.#X#X=X=Xf.t.j.:XcX;Xs.",
"s.d.K.%X;X;X-XU.i.2.} ^ F :.[.,X..f L L I E P L p S ! / M L L n  .$.E $.I u V } K N u.;XT.A.2.2.q.} ! ~ ! 7.f.U.U.p.} B ",
"t.2.a.&X*X*X*X&X@X(.J.p.F ;.,X*XY E f W @.W P W f b Q ! S M ! L W E o.+.W f V } ~ Z u.*X].w.C.J.q.) ) 6.p.@X%XT.G.} ! V ",
"f.2.i.U.;X%X@XK.U.%X%X*XD.9.T.{.| I I _ P P _ _ L b ) ( ~ d W @.o.I O.@.W M ~ } ~ -.L.,X{.].%Xa.8.i.J.@X&X@X&XK.3.} } Q ",
"f.8.6.3.p.U.K.U.U.U._.%XD.:.C.^.H.| n a p I I f b Q / ! ( M f _ _ R _ L n Q / ! y.9.T.1X%X`._.f.J.@X@X&X@X@X@X6.Q ) ) V ",
"j.5.} ^ ( y.K.T.&Xf.8.i.;.-.F.].S.D.e 8 s 8 1 b / / ) ! ! H d u a k u t Z ! ! 8.U.C.,X3X%X]._.@X_.@X@X$X&X@X8.^ ) ) ^ H ",
"s.6.! ) Q Q 7.J.@Xf.} } S F I.W._.F.w 8XrXqXr 2.) ! ^ Q H Q H v 8 8 8 9Xe Y 6.I.K.9.J.*X%X_.(.J.p.i.J.&X&Xi.Q ! ^ ! ! U ",
"i.) ! ! ^ ! ! 2.f.@Xp.2.N 3 y.J.q.p.e 9XrX9Xr.8.) / ~ H B D Q H 9XrXtXwXw } @XJ.y.;.F.%X_.i.8.7.2.6.I.@Xp.) ) ! / ! / H ",
"i.} ^ ^ ! ! ^ ^ ^ p.@Xf.N : ( 2.Y ' 7 0 0 9 ~ ) ) ! Q D S D D k e wXtX8Xe e.i.2.p.F.Y.@Xi.) ) ) } f.@Xf.) ! ~ ) / ) ! H ",
"i.) Q ~ ! T ! ~ Q Q p.&X<.1 K 6.T q 9XrXqXe 1./ Q Q m m M D H U Z 0 0 0 q  .2.p.U.;.;.q.) ! Q ) p.$Xi.) Q ^ ! ! ! / ! H ",
"f.} ~ ! ~ Q ! ~ ~ ^ } J.u.<.E.f.G w hXiXe K } ~ H H B V Q ~ / ^ &.9 7 0 w C 2.q.1.1 v 8.7.) 7.J.@Xi.) ) ) ) ) ) ) ) ) Q ",
"r.K G H G B m S S G J J 4 -.E.h.c yXyXq y v v Z x c x m S S S K x tXiXiX0X4 m S c > Z 4.K r.P.g.;.A A S v S G H G G J v ",
"- + # - ; & X     . . .   . Z &.3 , $ $ + . + @ + + X o @ % # # $ 7 iXyXeX< $ : @ + ; n Z q 5 O     + @ @ $ ; > * * # . ",
";.>.>.;.;.&.%.>.,.>.>.g.>.,.k.j.h.h.g.;.*.>.>.,.&.>.%.2 %.r.,.,.,.;.uXsXpX,.,.%.%.,.Y.W.R.h.>.g.g.g.k.h.,.h.u.x & 4 %.5 ",
"nXxX=X-X=X#X=XzXcXzXxXxX=X:XxXxXE.-X-X$X=XzXxX:X=X#Xs.P Y.xX#X=X-X#Xf.j.#X:X-X#XE.=XxXcXxX$X:XxXxXxXcXxX=X=Xj.x G E.xXI.",
"I.j.8.t.5.5.t.s.h.s.s.s.6.5.5.5.2.( 2.2.5.y.s.y.5.1.H h r.f.2.2.3.2.8.8.5.5.5.5.6.8.5.5.8.8.8.t.s.r.r.4.&.J A : 4 j.I.2."
};
