/* XPM */
static char *result[] = {
/* columns rows colors chars-per-pixel */
"60 60 251 2 ",
"   c #0B0000",
".  c #2A0504",
"X  c #30120D",
"o  c #38201A",
"O  c #470400",
"+  c #570400",
"@  c #4A1904",
"#  c #551B04",
"$  c #471C16",
"%  c #680500",
"&  c #790500",
"*  c #671A00",
"=  c #5C2608",
"-  c #4E2915",
";  c #592815",
":  c #692705",
">  c #752A00",
",  c #6E3109",
"<  c #7A3703",
"1  c #652A16",
"2  c #673319",
"3  c #763818",
"4  c #503028",
"5  c #683926",
"6  c #6E362C",
"7  c #743C24",
"8  c #7B3D22",
"9  c #783C29",
"0  c #7D4915",
"q  c #594727",
"w  c #6B4E2D",
"e  c #794428",
"r  c #7A4A35",
"t  c #74533B",
"y  c #7D6124",
"u  c #644D40",
"i  c #7A5644",
"p  c #7B675A",
"a  c #8A3C00",
"s  c #8A3B0E",
"d  c #903F2A",
"f  c #8A421B",
"g  c #924B12",
"h  c #9A7C1B",
"j  c #A5771B",
"k  c #854326",
"l  c #874628",
"z  c #84452A",
"x  c #8A4629",
"c  c #8C4A2C",
"v  c #984A24",
"b  c #934C2C",
"n  c #9B4E2B",
"m  c #8A5527",
"M  c #96512E",
"N  c #9B522E",
"B  c #97592B",
"V  c #864C33",
"C  c #944D32",
"Z  c #8A5639",
"A  c #935234",
"S  c #9C5332",
"D  c #975839",
"F  c #9C5A3C",
"G  c #A24E27",
"H  c #A35227",
"J  c #A2532E",
"K  c #A3582F",
"L  c #A34F31",
"P  c #A45532",
"I  c #A65736",
"U  c #A55934",
"Y  c #A95A35",
"T  c #A55B3A",
"R  c #AA5D3A",
"E  c #926D39",
"W  c #A7643A",
"Q  c #AB623D",
"!  c #B06B3F",
"~  c #895B45",
"^  c #985B42",
"/  c #8C6746",
"(  c #986649",
")  c #85764A",
"_  c #99784B",
"`  c #8B6653",
"'  c #9C6C54",
"]  c #966B58",
"[  c #9A7659",
"{  c #A56443",
"}  c #AC6543",
"|  c #AC6A45",
" . c #A6684A",
".. c #AD6A4B",
"X. c #B16644",
"o. c #B16A46",
"O. c #B26D4B",
"+. c #AC744B",
"@. c #A97949",
"#. c #B3724B",
"$. c #B47A4B",
"%. c #A46D54",
"&. c #A46C57",
"*. c #AD6D52",
"=. c #B16F51",
"-. c #AC7254",
";. c #A67857",
":. c #AB755A",
">. c #B37454",
",. c #B87A56",
"<. c #B4765A",
"1. c #B57A5C",
"2. c #87746B",
"3. c #967765",
"4. c #AA7B67",
"5. c #B47C61",
"6. c #B37B64",
"7. c #BB7F62",
"8. c #9D8238",
"9. c #B08E3D",
"0. c #C09E39",
"q. c #99854D",
"w. c #9C8759",
"e. c #A9894A",
"r. c #B6864B",
"t. c #B7964C",
"y. c #A98656",
"u. c #BC8455",
"i. c #B58857",
"p. c #BA835C",
"a. c #BD8A5C",
"s. c #AB9452",
"d. c #B99858",
"f. c #BBA35C",
"g. c #9E8769",
"h. c #998479",
"j. c #A88967",
"k. c #BB8365",
"l. c #B78964",
"z. c #B3826B",
"x. c #BD856A",
"c. c #BE896C",
"v. c #AD966A",
"b. c #B79767",
"n. c #BC9363",
"m. c #A68676",
"M. c #B68A74",
"N. c #AC9074",
"B. c #B89579",
"V. c #BCA266",
"C. c #B7A278",
"Z. c #C0964E",
"A. c #C18D58",
"S. c #C49759",
"D. c #C4935D",
"F. c #CA9D5C",
"G. c #C7A54D",
"H. c #C6A558",
"J. c #CDA35D",
"K. c #CCAB5D",
"L. c #D1A85C",
"P. c #D2AB5E",
"I. c #D5B25C",
"U. c #D8B55E",
"Y. c #C18966",
"T. c #C18A6D",
"R. c #C29464",
"E. c #C79C67",
"W. c #C3946B",
"Q. c #C28D73",
"!. c #C39276",
"~. c #C69B73",
"^. c #C99D75",
"/. c #C5947C",
"(. c #C8987B",
"). c #C4A363",
"_. c #CBA463",
"`. c #CCAB64",
"'. c #C4A36B",
"]. c #CBA46B",
"[. c #C5AA68",
"{. c #CEAB6C",
"}. c #D3AD63",
"|. c #D3AD6B",
" X c #CBB26B",
".X c #D5B364",
"XX c #D4B36B",
"oX c #D9B868",
"OX c #C9A675",
"+X c #CCAB73",
"@X c #CCA57C",
"#X c #CDAC7B",
"$X c #D1AD73",
"%X c #D0AC7C",
"&X c #CCB378",
"*X c #D3B173",
"=X c #D5BB77",
"-X c #DBBC73",
";X c #D3B27C",
":X c #DDC16E",
">X c #DCC379",
",X c #E1C676",
"<X c #9D8E89",
"1X c #A9948A",
"2X c #AA968F",
"3X c #B99585",
"4X c #B7A389",
"5X c #B1A797",
"6X c #B5A597",
"7X c gray65",
"8X c #B6ACA8",
"9X c #BAB2AE",
"0X c #BAB7B6",
"qX c #C59B86",
"wX c #C99982",
"eX c #CEAB82",
"rX c #CBA588",
"tX c #D1AD84",
"yX c #CBB586",
"uX c #D3B283",
"iX c #D6B988",
"pX c #CBAB97",
"aX c #C7B695",
"sX c #D5B897",
"dX c #C8B8A8",
"fX c #D5BCAA",
"gX c #C4BAB6",
"hX c #DFC58A",
"jX c #DCC698",
"kX c #E2C98B",
"lX c #DAC7AB",
"zX c #D0C6B9",
"xX c #D5C7B9",
"cX c #E3D0B0",
"vX c #C8C6C5",
"bX c #D5CCC7",
"nX c #D9D3CA",
"mX c #D9D6D4",
"MX c #DCDBDA",
"NX c #E4D7C7",
"BX c #E4DCD7",
"VX c #E7E3DB",
"CX c #F1EAD9",
"ZX c #E5E4E4",
"AX c #EAE5E3",
"SX c #EBEBEB",
"DX c #F2EDE8",
"FX c #F5F2EC",
"GX c #F4F3F3",
"HX c #F9F8F5",
"JX c #FEFEFE",
/* pixels */
"rXQ.>...>.>.} Q } =.<.1.<.>...W.-XoXXXT.!.^.=.A.oX-XR.S 4.@X-XE.*.p.XXoX}.|..Xa.c.uX>X:X|.x.7.<.<.x.7.| | >.>.v %.wXB. .",
"c...J J N v n P J J G G J U R a..XU.L.u.A.A.L A.I.L.@., d a.}.#.d r.`.L.].|.P.! +.J.U.I.S.I H P P H v b n n J f { p.Q v ",
"6.| Y P P n N Y Y Y Y Y R } ..R.oX}.U.J.J.J.! A.U.P.$.d D E.|.#.S t.Z.J.;X$XI.r.A..XU.U.S.R R Y I U S S K U I x c Q R M ",
"c.>.R P P N K P K K U U Y o...A.U.L.I.I.U.P.A.A.U.P.#.s ( '.`.! +.#XlXlXiXE.K.E._..XI.I.A.R Y T I S S n N P I x k T Q N ",
"/.7.Y K P J P S P S K P Q o.Q A.I.K.P.oXU.I.L.J.I.P.#.3 C n.iXyXNXHXDXlXyXlXsX{.G.G..XU.A.R Y Y P S n J P Y P v C | } M ",
"!.,.R K P S K K N P K P R X.R $.I.L.J.I.I.I.P.L.P.L.+.6 a rXCXDXJXJXHXDXFXHXxX[.$XjXjXI.A.R Y U N n J K U U U b x  .} M ",
"Y.O.R U B K S K J K J P R X.R $.P.P.F..XU..XF.F.L.F.+.9 a dXJXJXJXJXJXJXJXJXDXAXFXFXjXG.A.I Y S M n H Y Y U P z 3 T } C ",
"7.O.Q U U K S K K K K Y R X.R #.P.P.F.}.U.P.,.F._.D.;.% D BXJXJXJXJXJXJXJXJXJXJXHXNXt.F.A.P P M b N K P K U U x x ..o.C ",
"c.=.R I U P S K P K K Y Q o.R #.P.}.A.J.U.U.D.J.F.R.W & gXJXJXJXJXJXJXJXJXJXJXGXdXb.d.H.u.N M c b S P U K U P x D >.o.n ",
"Q.<.R Y Y P K K K K K Y } o.R #.P..XA.A..XP.}..XF.A.1.bXJXJXJXJXJXJXJXJXJXJXJXBXdXsXd.f.e.z l c N U U K K U P k l } } M ",
"/.7.X.R Q Q ! Q Q Y Y Q X.o.Q $..XoXD.,.}.}..X.XF.W.NXHXJXJXJXJXJXJXJXJXJXJXJXHXbXC.t.H.@.d A I R R Y Y Y Y R l V o.| N ",
"*.^ b b c D %.V k x b N A A c  .J.}.+.D E.{.`.K.Z.B.dX8XHXJXJXJXJXJXJXJXJXJXDXdX3.8.t.f.( d c d x x x x c n c 2 e F M e ",
"C > ; @ O 5 [ i O 1 3 s 1 - . w s.d./ , _ V.V.H.d.[ , 2.AXGXZXJXJXJXJXJXJXJXFXzX4Xq.e.s.Z V Z * 1 * = 1 3 3 = O # 1 = # ",
"qXM.] ^ ] ' C.pXm.6.4.6.^ 7 5 y. X=XC.' [ OX+X XV.;.w.i 6XGXJXJXJXJXJXJXJXHXMXdXC.e.t.f.;.b.v.;.4.4.4.4.6.%.' ' 4.4.&.' ",
"fXwX7.7.Q.Q.rXjXsXwX/.(.6.s  .eXkX,XiXY.7.@X%X;X#Xz.z.] e 5XGXJXJXJXHXnX9XzX8Xs.f.s.f.>XuXiX(.T.Q./.wX/./.Q.Q./.wXwXQ.x.",
"Q.} { ..=...7.tXuXY.o.<.( e :.(.-X:X].X.} p.p.n.+X{ a c ` 1XZXJXJXJXHXnXxXVXnXC.y._ s.>X=X$X,.}  . . ...7.1.O.=.=... .{ ",
"#.H J H H G H A.*XE.! K f w b.$XoXoXL.Q L R R W r.;.pXnXSXHXJXJXJXJXJXJXJXJXJXnX( r f.:XoXS.G H G v g #.l.Q G H G H v v ",
"k.} Y Y R R Y a.|.$XW.,.V % n.iXoX.XU.$.L R J ..lXDXJXJXJXJXJXJXJXJXJXJXJXJXJXAX^ Z V.:XU.r.L Y U I Q R.n.W P U U U U S ",
"T.Q Y R Q Q P O.{.|.$X$X;.% y.>X.XI..XA.L I v -.FXJXJXJXJXJXJXJXJXJXJXJXJXJXJXHXm.m f..XL.! J Y P R a.OXa.T P T U U P B ",
"Y.X.R } Q Q U Q E.XX|.=X).c ;.:XoXP..XD.I I v s nXJXJXJXJXJXJXJXJXJXJXJXJXJXJXJXMX_ f..XL.R K U Y $.E.OXa.Y I Y Y P K N ",
"7.} } o.X.Y U n A.XX}.|.XX@. .XXoX.XoXR.P T a 6.FXJXJXJXJXJXJXJXJXJXJXHXMXHXJXJXJXxX9. XH.W P Y #.^.$X|.p.P P Y U K K N ",
"T.O.O.o.Q P S b #.{.}.|. Xd.{ J.oXoXXXD.I g D BXJXJXJXJXJXJXJXJXJXJXJXJX9XbXJXJXJXHXaXG.d.U R } E.*X|.{.$.N U U K P P B ",
"Q.>.O.Q T S N b Q E.XXXX`.f.d.J..X.XXXa.v L xXJXHXMXMXJXHXSXSX0XMXJXJX0Xt w xXJXJXJXFX&Xr.-.$.a.$X|.|.E.| n P K U P P N ",
"Q.>.X.R U S n K I D.-X-X{.f.H. XG.L.}.r.a bXJXHXJXZXMXJXJXJXSX0X7XMXzXw e r 3 VXJXJXJXNXj $.R.].XX|.|.D.P M U P K P P M ",
"Q.=.Q Y U N P Y I ,.-X-X|.b.H..XjX=X0.n.fXJXJXJXHXmXSXJXJXJXJXJXvXp ) q.i t > 2XJXJXJXFXyXt.).}.}.}.|.u.L Y R R P S P b ",
"c.X.W F A S U W U =.|.XX[.v.f.cXJXDXlXVXJXJXJXGX8X3.GXJXHXJXJXHXvXh.E q./ V e 3 gXHXJXJXHXBXyXG.{.|.].+.I { W T I P S M ",
"~ 2 - ; 1 2 7 7 8 e q.f._ p mXJXJXJXJXJXJXHXvXp w SXJXJXJXJXJXJXJX7XE q.Z 2 ; w m 4XDXJXJXJXCXV.d.V.y.7 > 3 3 9 e 0 0 2 ",
"6 4 4 4 4 5 2 1 2 @ w w.q.w mXJXJXJXJXHXMX<X.   7XJXJXJXJXJXJXJXJXZXg.q._ 5 @ t q.y 6XJXJXJXHXaXe.'._ 9 9 ~ A 2 $ : 1 - ",
"3XqX3XM.c.5.:.:.>. .&.+XuXv.4XFXJXHXVX4Xq.e t ` BXJXJXJXJXJXJXJXJXHX6Xy.v.^ F j.v.w.j.VXJXHXxX4XyXiX/.z.qXwXx.P ^ z.z.%.",
"rXrX/.c.c.1.>.,.<.>.5.OX>XB.j.4XnXlXw.m q.y.z 1XJXJXHXHXJXJXJXJXJXJXgX@.l.}  .B.v.y.y.v.xXaXe.v.&X#Xk.1.x.x.<.K ..(.!.<.",
"c.=.P n n b N S L P N $.H.y.Z m m h 8._ y._ < zXJXJXGXmXJXJXJXJXJXJXmX~ W D { b.;.r.s.9.h E ( ;.V.i.P K K J N l A | Q N ",
"k.*.N v b b n n J n v W F.d.Z Z E y.s.y.e.e.' AXJXJXJXMXSXJXJXJXJXJXZX] g C i.E.} d.d.s.s.;.D i.).$.L Y P S b k l P T b ",
"7.} D N N C L P J I P R F.K.+.D  .@.f.d.d.r.B.GXJXJXJXSXvXGXJXJXJXJXJXgXl x n.1.{ H.H.i.y. .A d.E.} I Y I A n z l { Q S ",
"-.I N b n n L N n S | ..A..Xa.F { | d.K.f.r.lXJXJXJXJXZXvXGXJXJXJXJXJXZX` c i.T r.K.H.n.i.F | +XE.I I Y N n N b A } W M ",
"7...S n S J S P P v | l.E.P.}.+.! +.p.).H.e.xXJXJXJXJXmXvXJXJXJXJXJXJXZXi B +.D F.`.R.n.$.S p.*Xl.Y I I n S P M D ..} M ",
"M.=.S n L J J n L J J a.{.P..Xu...p.a.E.V.s.NXJXJXJXJXSX8XMXJXJXJXJXJXHXbX4.b W _.`.R.u.R I E.*Xu.P U P M S T b M | X.M ",
"k.| S n L J L L N P N } ].XXoXE.#.R.E.E.i.s.VXJXJXJXJXJXvX7XHXJXJXJXJXJXJX6X& i.`.E.p.| I X.].|.>.I Y P K U R S U #.} n ",
"x...P J L J n J N P Y I a.XX.XXX$.a..XK.i._ MXJXJXJXHXJXgX@ bXJXJXJXJXJXJXbXZ i.).n.>.Q I $.|.E.Q Y Y R Y Q } P D | Q S ",
"7.*.I J S J J J P Y } X.o._.|.XXD.i.I.H.f.[ MXJXJXJXSXJX9X# bXJXJXJXJXJXJXJXvXi.n.x.>.Q Y Y.*XA.L } Q X.} X.| M d S Q S ",
"6.>.U P P P P P R | o.X.I u.|.oX}.[.I.K.f.N.ZXJXHXZXGXSX0Xu gXJXJXJXJXJXJXJXHX4X+.k.>.} o.$X$X,.o.>.o.o.X.X.X.S Z +.o.P ",
"-.{ b v N b b n F F D M b I d._.K. Xf.t.q.g.GXJXGXGXHXZXbX= <XHXJXJXJXJXJXHXJX6XA %.{ A p.#X+X~.~.>.^ D D Y T c Z  .F x ",
"^ * @ # : 1 2 3 2 * V t 2 . w e.t.s.s.q.q q MXJXJXJXJXJXbX- O vXJXJXHXJXJXJXJX0X% e , t v.'.[.OXy.k = @ : e 8 ; = > : ; ",
"pXN.] ` ~ / ( ~ Z ` :.B.v./ ~ V.=XV.[.v.i t 0XJXSXZXJXJXMXh.# 5 vXJXJXJXJXJXJXGX1X+ 6 N.yXyXuXOX&.Z Z ~ ` D V r ~ ' ;./ ",
"cXlXfXsXrXwXQ.7.c.(.c./.iX+XeXkX>XhX>X&X[ 9XZXHXSXSXJXJXZXh.r u 2XMXJXJXJXJXJXJXBX0 3.sXjXjXhXrXk.k.x.Q.(.k.o.#.!.rXpXc.",
"pXrXsXsXsXsXeXQ.7.1.O.O.i.V. X>X-X-X+Xb.3.SXJXJXJXJXJXJX0X* i * 0XGXHXJXJXJXJXJXMXi ;.aXhX=X^.>.>.,.,.<.<.=.<.W.eXtX!...",
"7.=.W.$XuXuXuXuX^.p.<.o.c (  X:X.XI.d.B bXGXMXJXJXJXJXJXmXi r % <XJXJXJXJXJXJXJXZX2.~ OX XR.o.u.a.X.G G R p.^.%X@XA.Y v ",
"T.X.,.@XiXuX;X;XuX%X%X$Xb.;.&X>XoX.X).@.MXJXSXJXJXJXJXJXGX4.* V V mXJXJXJXJXJXJXJX2X/  XXX].OXOXp.o.,.T.@XtXuXtXW.} T U ",
"Q.o.X.<.~.uX#X#X#X%X;X;X;XV.[..X}.`.[.t.1XAXJXGXSXJXJXJXmX` a ~ % <XHXJXJXJXJXJXnX` s.{.XX*X*XR.p.T.@XuXuX%X;X~.| Q W S ",
"Q.*.o.R X.W.eX;XeX@X^.^.E.b.)..X`.J.b.b.E ] BXZX0XZXvX2X~ s V Z > 3.SXJXJXJXSXMX2.8.V.&X+X{.$X+X%X%XeXtXeXuX(.O.I Y Y S ",
"Q.o.R R P T l.#XuX(.>.O.+./ b.;X+X`.V.l.;.) vXSXbXMX<X. 9 d c A d ` 2XmXHXvXvXvX[ y.v.&X*X+X$X%X@X^.@XtXuX@Xo.Y I Y Y P ",
"T.X.I I Y I I ,.@XeX1.Q D e :.^.W.'.].b._ / nXJXJXDX3.3 i k b C c V + 6XGXmXZXGXh./ j.[.;X+XW.Y.a.=.T.tXuXp.I Y I Y Y L ",
"x.Q I I Y Y Y L o.^.%Xk.D , ^ <...#.p.b.l./ 0XGXGXgX: z z x b n b ^ z 3.SXJXJXGX3._ v.OX~.,.X.} R O.(.tXk.Y I I Y I Y S ",
"T.Q Y Y Y P Y Y J Q n.eXy.1 x Q U H S { Z 4XAXGXGXgX% r z b b b C D Z < vXJXJXmX[ j.j.l.>.I I P o.~.rXk.Y I Y I I I Y S ",
"Q.Q I P J P K Y U H } ^.@X[ %.=.Y N N x f nXJXJXDX1X> V c n S n M n D > 1XMXZXmX3.Z V { } Y U #.(.eXp.Y Y I I Y Y Y I P ",
"T.} R U U P Y K T T R #.l.B.rXB.W n A a m.JXJXAXm., V c n I I I S S Z < 3.ZXHXJX1X+ e  ...} l.@XrX<.I I R R Y Y Y R R S ",
"%.e e l x k 8 7 9 5 e 5 2 t N.M.( 3 3 * 2.bX0Xi O ; ; 2 7 8 9 9 8 8 9 ; 4 VXJXJXgX. 6 c C ' N.h.i 2 7 8 8 3 k c z r z 5 ",
"e O - 1 3 2 @ X X X o o o . 9 &.] ~ 6 ; @ . . . $ $ o X $ 1 1 6 1 2 1 4   8XJXHXgX. 9 ^ ' 3.p 4 X X 4 6 ; 6 d 5 $ @ @ . ",
"3XM.z.z.6.5.:.4.N.N.m.3XM.z.3XqXM.qXM.4.3.] ] 3.&.4.' C  .M.6.4.M.4.&.] ] 3.bXBX4.] 3XpXpX!.M.M.N.3XqX3Xx.M.M.C , ' 4. .",
"pXqXc.c.T.7.k.!.wXwX/.(.Q.7.!.!.k.5.k.1.1.z.M.z.6.6.*.g ..Q.k.7.c.7.6.6.:.' ' ' ( 4.z./.Q.k.T.!./.wXwX!.7.5.:.3 z Q.wX7.",
"/.x.1.6.5.<.<.5.5.5.5.<.>.>.-.*.*.%.*.-.-.&.:.:.-.*. .^ 4.T.<.=.>.-.*.&.%.( ( (  .%.*.*.<.<.<.<.<.<.&.%.&.( ( i ~ 6.Q.>."
};
