/* XPM */
static char *result[] = {
/* columns rows colors chars-per-pixel */
"60 60 253 2 ",
"   c #140000",
".  c #370700",
"X  c #320D08",
"o  c #3B2514",
"O  c #470601",
"+  c #560400",
"@  c #4A1505",
"#  c #561901",
"$  c #4E1B17",
"%  c #651800",
"&  c #731700",
"*  c #5B2408",
"=  c #502811",
"-  c #5B2B15",
";  c #672A0A",
":  c #71300D",
">  c #69341B",
",  c #77371B",
"<  c #5D3321",
"1  c #693A25",
"2  c #753C26",
"3  c #7C3D23",
"4  c #5E572E",
"5  c #79442A",
"6  c #6F4933",
"7  c #784837",
"8  c #5D3F5D",
"9  c #004366",
"0  c #3A457A",
"q  c #574942",
"w  c #795647",
"e  c #785852",
"r  c #525473",
"t  c #6F526C",
"y  c #7A6E71",
"u  c #840F0C",
"i  c #903412",
"p  c #853C22",
"a  c #993924",
"s  c #974A11",
"d  c #A85303",
"f  c #A74919",
"g  c #AC5A1A",
"h  c #B95E17",
"j  c #B1730D",
"k  c #834225",
"l  c #884829",
"z  c #964626",
"x  c #9B4D23",
"c  c #934D2C",
"v  c #9B4E2C",
"b  c #8F522C",
"n  c #985627",
"m  c #95522D",
"M  c #9C522E",
"N  c #864E35",
"B  c #8A5637",
"V  c #83533C",
"C  c #955333",
"Z  c #9B5433",
"A  c #9C5B35",
"S  c #99593B",
"D  c #A54929",
"F  c #A2532E",
"G  c #A8592A",
"H  c #B55829",
"J  c #A54A32",
"K  c #A35632",
"L  c #AB5534",
"P  c #A45934",
"I  c #A95A35",
"U  c #A5573C",
"Y  c #A45C3A",
"T  c #AA5D3A",
"R  c #B35A34",
"E  c #9C642C",
"W  c #8A643B",
"Q  c #99663A",
"!  c #98713C",
"~  c #A6642A",
"^  c #AB6B2B",
"/  c #A76737",
"(  c #A5633E",
")  c #AB623D",
"_  c #B76537",
"`  c #B3633D",
"'  c #A8783A",
"]  c #BA7837",
"[  c #C86E2E",
"{  c #C87736",
"}  c #885B47",
"|  c #8D574B",
" . c #965C45",
".. c #886749",
"X. c #986846",
"o. c #8D7348",
"O. c #9A7548",
"+. c #876554",
"@. c #996A57",
"#. c #997554",
"$. c #A56747",
"%. c #AC6542",
"&. c #AD6A44",
"*. c #AD6A4A",
"=. c #B16543",
"-. c #B16B45",
";. c #BA6C44",
":. c #B16D4B",
">. c #A67747",
",. c #AC734A",
"<. c #B37445",
"1. c #B97646",
"2. c #B3734C",
"3. c #B47A4C",
"4. c #BB7B4D",
"5. c #A56D54",
"6. c #AA6D54",
"7. c #AC7255",
"8. c #A87856",
"9. c #AC745A",
"0. c #B47453",
"q. c #B67656",
"w. c #B57B52",
"e. c #B97D53",
"r. c #B67A5B",
"t. c #BA7C5C",
"y. c #8F7369",
"u. c #AA7A63",
"i. c #B77E63",
"p. c #C77B45",
"a. c #C17C52",
"s. c #B58731",
"d. c #C78A31",
"f. c #D78738",
"g. c #E7973B",
"h. c #D3AC31",
"j. c #E7A23F",
"k. c #AC8549",
"l. c #B4844C",
"z. c #BC834D",
"x. c #B58A4A",
"c. c #BC8B4C",
"v. c #BA954C",
"b. c #AB8757",
"n. c #B48354",
"m. c #BB8553",
"M. c #BD8B53",
"N. c #B5845B",
"B. c #BC845C",
"V. c #B48A58",
"C. c #BD8B5B",
"Z. c #AD9555",
"A. c #BC9453",
"S. c #BB9558",
"D. c #B9A253",
"F. c #8C8376",
"G. c #AB8467",
"H. c #BC8263",
"J. c #BE8B63",
"K. c #B7866A",
"L. c #A8946F",
"P. c #BA9665",
"I. c #B88973",
"U. c #BE8B73",
"Y. c #BB9679",
"T. c #BAA36B",
"R. c #C3844C",
"E. c #C28C4D",
"W. c #C98B48",
"Q. c #C5924E",
"!. c #CC984B",
"~. c #D7974C",
"^. c #C78953",
"/. c #C28D53",
"(. c #C28D5B",
"). c #C49353",
"_. c #C4925B",
"`. c #C89A58",
"'. c #D59852",
"]. c #E59B44",
"[. c #C8A657",
"{. c #D0A750",
"}. c #CCB65C",
"|. c #D7BA58",
" X c #ECA746",
".X c #F1AC46",
"XX c #F1AE4A",
"oX c #F4B148",
"OX c #E8AC55",
"+X c #EDB555",
"@X c #F1BA57",
"#X c #C18D64",
"$X c #C18A6A",
"%X c #C39363",
"&X c #C3926A",
"*X c #C69B68",
"=X c #C28D74",
"-X c #C18E79",
";X c #C69677",
":X c #C99C73",
">X c #C4947C",
",X c #CAA368",
"<X c #D3AA69",
"1X c #CBA678",
"2X c #D3B073",
"3X c #E4BD61",
"4X c #E5C45C",
"5X c #F3C25C",
"6X c #DAC76B",
"7X c #F4C461",
"8X c #E6D466",
"9X c #EBD96B",
"0X c #EBDB78",
"qX c #315991",
"wX c #356495",
"eX c #2D6AA4",
"rX c #3479B3",
"tX c #445190",
"yX c #52678D",
"uX c #6A6B86",
"iX c #757986",
"pX c #6A7998",
"aX c #877987",
"sX c #6E878E",
"dX c #778996",
"fX c #77949A",
"gX c #7CA19D",
"hX c #538AB5",
"jX c #6892AC",
"kX c #74A5B2",
"lX c #1F88D0",
"zX c #58A0D3",
"xX c #8D9488",
"cX c #B1978F",
"vX c #93ABA4",
"bX c #9DA9A3",
"nX c #C89C86",
"mX c #CAA487",
"MX c #D2AA86",
"NX c #D6B488",
"BX c #CDA692",
"VX c #D2B296",
"CX c #E5B999",
"ZX c #DBC589",
"AX c #E8CE8B",
"SX c #F7E49D",
"DX c #CAC1BE",
"FX c #D5C4BF",
"GX c #F9F4AE",
"HX c #81A7CC",
"JX c #DBC7C0",
"KX c #DCC9C2",
"LX c #D9C9C4",
/* pixels */
"U.0.P ( %.Y P Y Y ( %.%.) %.-.*.t.).).).^.C.m.&.4.`.c. .8.D.v._.,.Q l.z./.%X_.).B.(.`.`.`.V.*.%.*.*.Y S Y &.Z z i.>X%.7.",
"7.) F F m v M L L G F F I Y *.*.e.).c.E.R.Q.c.-.1.Q.k.2 x.8X[.l.&.( l.m.(.%X_.E.m./.Q./.W.<.J I F M v v M F c z *.:.x @.",
"0.&.L P M F K P P P I T T *.0.-.3.`./.E.).).Q.E.z.Q.x.B 6X9X{.k.3.>.M./._.&XV.z.).`.Q.).).1.Y I I Z Z M K I M k c ) F 8.",
"i.q.F K F M K K A G K I %.*.-.T <.)./.).Q.Q.Q.E.E.).k.k.0X9Xd.D.x.z.c.c.(.%XB.e.).)././.Q.1.U I K M v K K I Z k C -.n 5.",
"$Xq.G P F M P A M P M P %.-.) / <.Q./.m.Q.Q.).z.D.D.D.D.SX6Xs.{.D.c.c.l./.%X$X(.(._.)./.Q.4.K I M m M F G G K l S 6.K 5.",
"t.:.F P K K F F K M P P ) ` ) I &.).E.m./.Q.).S.}.8X|.AXGX|.d.{.}.A.z.W./.#X&X#X4.#X(.E.E.4.K Z M F F P P P Z k z *.M 5.",
"q.-.I P n P G M M G K I T %.) P -.Q.).3.E.E.`.8X9X8X8XGXGXh.h.|.6Xx.z.Q.).#X&X(.=.e.(.^.E.1.M Z v M F P P I Z 3 l &.K 5.",
"q.:.I P P M A P K K P I %.=.) L ` ).).3.R./.{.0X8X|.AXGXSXh.|.8X}.k.c./.E.^.C.B.=.:./.Q.E.<.c c c K P L G L F k ( r.K 5.",
"t.:.L Y P F M F K P P / &.%.T L =././.3.<.Q.[.8X|.{.0XSX0Xh.h.0X,Xk.D.l.c.c.c.m.&.%./.E.c.( l l M L K K F I v k $.q.Z 5.",
"H.q.I T I I ) <.P P I I -.%.) I -.).).1.%.D.}.{.[.[.4X9X4Xd.|.0XZ.s.S.3.c.Q./.).3.3.E.v.x.S c P P I P K P I Z , Z -.F 6.",
"i.0.I T T U %.N.&.P I T ) ) ) Y 3.).).4.T m.}.[.s.Z.[.|.s.E h.{.! ' k.>.m./.M.x.z.z.c.c.x.Q ( ) K Y P P K I S p S :.M 5.",
"a k > , > : 1 } X.: i l 3 1 6 > N ! >.Q k B Z.!.6X6Xv.6X[.s s.' E ! W 7 ! ' ' ' s.O.' k.>.B B 3 % : : : p p - @ , k ; w ",
" .7 < < 1 1 1 w u.+.N l 1 @ # @ ..P.Z.o.5 5 X.T.SX0X^ ZXZXg ^ ^ ^ ^ o.G.b.k.#.b.k.! ! O.>.X.#.} 7 7 7 N N 5 1 6 7 7 1 e ",
"VXY.7.i.I.I.K.>XVXNXnXK. ., @.b.1XAX}.P.9.9.G.ZXSX[.>.P.}.' b ' ' E b.Y.mX1X1XNXY.' 8.T.,X1X1XU.U.nXY.U.U.K.K.Y.nXU.i.U.",
"nXi.q.H.K.=X$X=XMXNXmX=X .k $XmXAXAX,XP.H.r.H.2X2XZ.Y.2Xx.k 5 E N.J.H.Z.vXvX1XMXP.C G.2X2X2X:Xt.i.U.K.=X-X;XU.=XU.K.i.nX",
"T K I Y U Y K K 3.S._.m.B 5 7.*XNXZXS.v.&.Y $.D.s.G.1XD.Z.$.n ! :X:XH.Z.vXzXkXC.$.3 9.<X[.).-.M Z K K ) t.e.) P K K x 5.",
"=.I F F K G F F ) m./.M.O.N 7.B.,X<Xv.A.-.f y.fXj `.MX;X1Xe.Z >.&XJ.H.%XxXjXxXb.Z 3 K.<X`.W.I M F v M -.m.-.F F F F s 5.",
"0.) I T T T T K %.B._.S.8.O.r.G.[.S.F.L.4.f cXkX). XMXCX;X$.,.w.S.B.J.P.Y.1XS.n.S 3 N.,X).s.T L I P &.B.C.,.K I T T M 9.",
"0.T I %.) T T I I 4._.M.k.b.m.G.L.vXfXsX#.J.CXcX#. X<X,.E ,.5.,.V.V.N.L.sXcXNXV.c 3 r.`.Q.l.I F G &.n./.C.*.P I L I x 5.",
"0.) ) &.` T I K K 2./._.l.V.*X9.gXkXkXsXY.AXCX;X .{ '.xXU.E.%X1X,Xy.yXfXeXyX:X3.b l V.`.!.1.I I ) n.C._.M.-.I Y P K x 9.",
"q.-.-.=.) P Z Z v %.M./.l.k.*X^.L.sXxXT.P.MXCXJ.*._ { pXkXbXDXbXY.>.yXjXeXiXP.Q C N V.[.Q.1.=.-.1.C.M.M.m.) L K A P x 8.",
"t.:.-.&.I M m m M I e._.b.>.v.).v.D.,X<X%X%.7.0.X.K h y lXzXkXkXK.d.n.F.xXK.#X! Z Z C.`.E.4.e.m.(././.M.,.K K K K P x 5.",
"i.q.%.T P M M M I K w.*Xk.>._.).v.v.[.<X*XX.$.>.P C a a r hXjXfX8.R.a.] M.J.8.E c B k.).c.z.E././.)./.m./ M P P G P D 8.",
"i.:.T T Z M Z L I %.q.`.V.O.%X`.v.Q.v.D.`.>.Q E I Z l J C y.fXxX] W.;.W.R.X.Q P c W n.).c.z.E./.)././.n.Y K P P M K x @.",
"a.:.T U K K T T ) -.q.^.l.X.P.*X_.`.).v.x.O.P I T T A m Y ] ] _ ) 3.<.z.8.X.T T C O.M._.c.E.Q.).)./.).z.T %.) T P P x 5.",
"$.S c N l c Z C S %. .$.O.W 8.J.M.A./.z.l.,.Z m Z Z P B t y @.t t y iXiXsX#.n Z B O.n.M.<.x.c.c.V.m.V.$.C C C C M A z X.",
"#     O O * - * - - X o 4 4 k C W ' k.O.W ! 2 * * # ; 5 e 8 0 0 0 0 yXy y...> : V ..>.l.! ' ' ! Q ! Q > % : : - * ; # q ",
"+.+.+.+.| } N V N 5 5 w b.L.K.G.G.J.S.k.#.b.8.V 7 +.7 1 f d i i f i s R -.S 5 ..b.K.;X:X_.`.P.K.G.P.G.@.9.i.X.> 5 } N +.",
"nXBXnX>X;Xi.i.i.t.q.i.-XMXNXCXMXmX1X,X).#X1X,XH.I.>Xt.H J J a a L D a R p.] ( H.:X;X1X2X,X2X1XmXMXNX:X>XnXnXq.G K.nXH.U.",
"-XU.7.0.*.( $.=.*.=.6.6.H.,XP.7.0.7.m.Q.C._._.r.J.<X X].{ H a a D a [ ~..X X{ N.%X0.^._.).S.(.r.%X%Xq.*.*.*.Y z 9.$X6.H.",
"q.%.s z l z v v v z v z M s.x.A m ( <.Q.c.4.).!. X@X@XXX X[ a a D [  XoXXXoX~.^.l.-.M.c.l.,.) Y m.z.K F F v z 3 v I s 5.",
"q.&.v v c M M F F F K T ( 3.c.,.Y %.<.z.M.[.3X@XXX7X@X.XoX{ a i D ].oX.X.X.X X'.' ,.x.3.3.*.A &.(.4.T I K Z N k C &.K 5.",
"%.Y c M v M F F J Z v %.w.e.E.M.( ) =.3.[.7X7X7XOX5X@X Xf.{ D i J  X.X.XXX.X@X].p.3.z.3.3.%.Z m._.<.L K Z c c l Z =.F 6.",
"*.U c M M F J M F F M P e.(.E.).-.%.3.!.7X7X5X5X@X5X@Xf.H D D i D { .X.X.X.X+X X].`.M.w.,.Y T J.%X-.K U v Z Z c  .:.M 5.",
"r.$.v v J M F Z M F K K %.M.).).m.%.{.5X7X5X5X+XOX'.'.W.H R D a p D { .X.X.XXXXX+X'.n.4.%.L &.#X(.%.K Z m K Z z S 2.M 8.",
"q.%.v K M F F v J Z K K F 3._.)._.M.+X5X5X+XOX'.W.^.^.a.` D c b v v [ g..XXX.XXX@X).O.&.I L 2._.m.U K K Z I P c Y 2.F 5.",
"0.%.v F J v F J F Z K Y Y &.(.`.`.`.@X5XOX'.^.^.E.R.3.T J l m P F P m { j..X.XXX7Xa.U A K I 4._.<.L T K K T Y K &.2.F 5.",
"9.*.v F F K F F K P ) %.( I 3._._.`.+X@X@X+X'.'.R.=.J J C ( K K K P m a f.j. XOXOXp.R F A ) C.(.-.U T ) %.=.( z C %.F 7.",
":.&.F K F F F K I ) -.%.T F ) R.S.E.~.~.!.!.W.W.;.v p l 5.q.F M G P n p H { g.OX~.=.[ G S 4.(.(.N.t.-.=.=.=.( l N &.L 5.",
"i.6.F K K Z K U %.*.&.-.&.I K 1.`.E.W.^.R.T T ` J a , b i.r.F K P P A M H f [ a.;.L H f X.%X%X%X:X$X:.&.` =.( C *.r.K 5.",
"X.X.5 5 k , p l k 5 3 l X...2 , ! Q.!.Q.R.R R L i J 3 - m M 3 p k 3 5 3 H H p.a.R L H R 6.V.m.C.N.S 5 5 k m l , 5 b : ..",
"B +.o.....V 5 1 > 2 2 > 1 ..o.....v.W.E.^.R D D a D 3 6 S A 5 2 2 > - 1 x H p._ R H [ a.q.N.V.N.S > = < 5 5 > - 2 B B y.",
"BXcXnXmX1XnXY.K.G.I.u.u.X.X.1X1X1XS.W.4.a.R a L L a z G.mXU.7.9.b.8.u.y.p.f._ R R R R ;.a.C.Y.P.7.9.8.u.9.$.S 6.Y.mXY.I.",
"BX;X>XMXVXNXMXMXMXMX>X;X6.C &XNX2X{.W.1.=.=.R R R H L I.>Xi.0.t.K.H.-X>X8.f.f.D J H ;.=.a./.N.&X:X>X=X>X=XH.#X;XMXmX=XU.",
":.I Y 0.&X:X:X:X:X*X%X%X8...H.*Xv.W.!.R.;.J L L R H J Z T K M K Y T ( %.Q a [ [ D L ` 2.'.Q.3.B.B.0.:.2.t.J.&X&X%Xe.P 9.",
":.L D T 0.#X*X&XJ.J.%X_.k.b.,X1XA.M.^.4.a.;.H H D D C J K A A K F G G D x v a R D J q.'.W.1.S._.4.:.e.B.J.%X%X%Xw.T x 6.",
"r.%.&.0.:.:.N.J.J.P.#XH.>.b.*X:X`._.S.w.5.2.T i u w U T U P I T T Y T T U Z J a D R ^.^.:.#.P.(.#X#X#X&X&X&X&XB.-.( K 9.",
"t.:.&.&.Y F Y w.J.$XH.*.B 5 $.m.C.(.A.G.aXuXaXuXqXr G U K T K K L L P L L Y A z  .:.5.@.aXdXL.(.J.(.B.H.$X&XB.) I ) F 7.",
"i.-.) T P A K K 2.H.#X0.l > Z &.*.,.V.S.fXhXrXhXrXt ~ U L I T L I I I I I L T ,.F.dXpXpXjXfXG.e.w.0.:.t.&XJ.:.K I T F 9.",
"r.%.I I I K P P L =.B.J.} 2 5.*.K S ) G.y.sXyXwXyXe ~ A M Z K T I I I I K I :.B.b.rXhXjXdXhXiX/ %.Y =.J.$X2.L T L T D 7.",
"q.T U T P I P I I K =.N.8.B r.r.T P A y pXpXjXyXqX+.G Z M M K Y Y ) ) Y L T 0.:./ y jXjXyXeXr ~ T =.B.$X0.T K T K T D 7.",
"q.T L L L L I I I I I *.O.#.N.q.T P y jXzXlXrXlXwXS L C M v v K T %.) ) Y T T %.7.#.iXwXt r 0 X.=.i.J.2.I L Y L I Y F 9.",
"q.T K I P F P I K F / ) N V K.J.) +.hXzXlXeXqXuXw A m c c M M M K I ) Y K P K Y $.N e qX8 0 eXy.(.H.:.U K K U L K T D 5.",
"r.) P I P P P I I P ` ) k 5 K.=Xe.6.aXuX+.| n i D M M M L L P I L P K Z K L P Y v : w eXtXt jXL.t.:.T L T I I T T T L 7.",
"7.Y Z K A Z m Z P A  .S 5 5 5.9.*.5.P d s n v C c N c m Z C Z A S C c l l N Z A N > N pXzXaXzXvXx S S Z Z U Y P Z Y m ,.",
"> @ * : : ; @ X X . . .   . & & % ; 2 1 $ X @ + @ . @ $ # % % # % % # O . + % ; @ O u aXHXHXhX9   X + + + % : 1 < - @ q ",
"V w w B B V 7 w w w w e w +.@.5.X.|  .} w 7 } } 7 w 2 1 N | | | X.} V w } +.| V N } 5.9.y.t y +.e e y.@.} @.X.; # 6 1 w ",
"BXBX>X>X=X=X=XnXnXBXBXnX>X>XBXBXY.-XY.U.>XnXmXnX-X-X9.U =XnX-X>XnXU.=X=X>XmX>XK.I.nXnXnX;X$X;XBXnXBXVXnX=X;Xi.l @.nX=X-X",
"H.e.H ` ~ g _ <.2.-.:.` g H ~ ~ d d d d ~ =.=.) g f i u ` 1.d g g d f G g H ~ h H R _ ~ ^ H _ _ ` ) ` G s s & O i #X_ q.",
"KXKXFXKXKXKXKXKXKXLXKXKXJXJXJXKXJXJXKXKXFXKXKXJXJXJXFXDXKXKXJXJXKXKXFXKXKXFXFXKXFXJXJXJXKXKXFXKXKXFXFXFXFXFXFXDXFXKXKXKX"
};
