/* XPM */
static char *result[] = {
/* columns rows colors chars-per-pixel */
"60 60 255 2 ",
"   c #050000",
".  c #141310",
"X  c #240201",
"o  c #3B0501",
"O  c #33180F",
"+  c #450200",
"@  c #540802",
"#  c #491705",
"$  c #571A04",
"%  c #541912",
"&  c #641803",
"*  c #6E1613",
"=  c #5B2506",
"-  c #542F14",
";  c #5C2B15",
":  c #672A09",
">  c #763609",
",  c #6C2E10",
"<  c #693518",
"1  c #75371A",
"2  c #70092E",
"3  c #6C3422",
"4  c #753C22",
"5  c #594B33",
"6  c #7B4327",
"7  c #714D2F",
"8  c #7B4C36",
"9  c #043078",
"0  c #57325F",
"q  c #71354D",
"w  c #0F437A",
"e  c #3C5771",
"r  c #74564E",
"t  c #7D6342",
"y  c #555561",
"u  c #494776",
"i  c #695B6A",
"p  c #6E686E",
"a  c #831310",
"s  c #8B2F12",
"d  c #95341C",
"f  c #A03A06",
"g  c #8A3C23",
"h  c #983825",
"j  c #9D3B24",
"k  c #A13E23",
"l  c #89451B",
"z  c #964A15",
"x  c #A84C13",
"c  c #AB6C06",
"v  c #844325",
"b  c #8A4827",
"n  c #82452A",
"m  c #8B462A",
"M  c #8C4A2C",
"N  c #984723",
"B  c #944D2C",
"V  c #9B4E2C",
"C  c #8E542D",
"Z  c #9A5727",
"A  c #96512D",
"S  c #9B512E",
"D  c #874B32",
"F  c #934E31",
"G  c #875537",
"H  c #8D5134",
"J  c #945333",
"K  c #9D5432",
"L  c #9C5A33",
"P  c #965839",
"I  c #9C5B3C",
"U  c #A34325",
"Y  c #A34728",
"T  c #A64A2C",
"R  c #A94C2C",
"E  c #A2532E",
"W  c #A7552C",
"Q  c #B55829",
"!  c #AA4E32",
"~  c #A35632",
"^  c #AC5533",
"/  c #A55934",
"(  c #A95A35",
")  c #A75739",
"_  c #A45C3A",
"`  c #AA5D3A",
"'  c #B25732",
"]  c #B45A32",
"[  c #8D6B38",
"{  c #966739",
"}  c #9D633B",
"|  c #99753A",
" . c #BB642B",
".. c #B1762E",
"X. c #AA6634",
"o. c #A5623C",
"O. c #AB623D",
"+. c #B86536",
"@. c #A87937",
"#. c #D07613",
"$. c #C3682D",
"%. c #C57724",
"&. c #C36D34",
"*. c #C87735",
"=. c #D37C32",
"-. c #934240",
";. c #8A5945",
":. c #985C46",
">. c #A35D42",
",. c #996648",
"<. c #9D7747",
"1. c #8C6851",
"2. c #976B57",
"3. c #987757",
"4. c #A56442",
"5. c #AC6543",
"6. c #AD6A44",
"7. c #A56A48",
"8. c #AD6B4B",
"9. c #B16643",
"0. c #B16B45",
"q. c #B16D4B",
"w. c #AC734B",
"e. c #A87748",
"r. c #A47C4B",
"t. c #B37246",
"y. c #B67C46",
"u. c #B3734B",
"i. c #B47B4B",
"p. c #BA7C4C",
"a. c #A16D54",
"s. c #AC6E52",
"d. c #B16F50",
"f. c #AE7153",
"g. c #A77659",
"h. c #B47454",
"j. c #B97655",
"k. c #B57B54",
"l. c #B97C55",
"z. c #B47659",
"x. c #B67A5C",
"c. c #B97C5C",
"v. c #927569",
"b. c #A57864",
"n. c #B57D62",
"m. c #BA7E61",
"M. c #AC882E",
"N. c #B78537",
"B. c #B48E36",
"V. c #DD9F15",
"C. c #DA8838",
"Z. c #D39236",
"A. c #E18733",
"S. c #E5973C",
"D. c #EFA537",
"F. c #AC8449",
"G. c #B78745",
"H. c #B4834C",
"J. c #BC834C",
"K. c #B48A4D",
"L. c #BD8B4D",
"P. c #AF9147",
"I. c #BB954C",
"U. c #AB8756",
"Y. c #B48656",
"T. c #BC8454",
"R. c #BD8B54",
"E. c #BC845B",
"W. c #BD8A5C",
"Q. c #BC9458",
"!. c #92826E",
"~. c #AC8568",
"^. c #AC886E",
"/. c #BC8364",
"(. c #B78867",
"). c #BD8B62",
"_. c #BC856A",
"`. c #BC9665",
"'. c #BA8C75",
"]. c #B89478",
"[. c #BAA46B",
"{. c #C28547",
"}. c #C18B4D",
"|. c #C5934E",
" X c #C69948",
".X c #D6944A",
"XX c #C28D53",
"oX c #C58856",
"OX c #C28C5B",
"+X c #C59353",
"@X c #C4935B",
"#X c #C89958",
"$X c #E09C42",
"%X c #D0AC51",
"&X c #ECA442",
"*X c #EDAB45",
"=X c #F1AD46",
"-X c #F0A949",
";X c #F4B148",
":X c #C08765",
">X c #C28D65",
",X c #C18B6C",
"<X c #C49364",
"1X c #C4936A",
"2X c #C89B68",
"3X c #C38D72",
"4X c #C49274",
"5X c #C99A77",
"6X c #C5937A",
"7X c #C7A466",
"8X c #CDA36A",
"9X c #D2A869",
"0X c #CCA679",
"qX c #D2A979",
"wX c #D1B472",
"eX c #E7CE58",
"rX c #DAC56B",
"tX c #E2D06C",
"yX c #0F3E8A",
"uX c #145194",
"iX c #345790",
"pX c #32639A",
"aX c #005CA4",
"sX c #335DA2",
"dX c #0267B6",
"fX c #116BB3",
"gX c #2D68AA",
"hX c #474A87",
"jX c #506791",
"kX c #71748A",
"lX c #4B73AD",
"zX c #277ECA",
"xX c #8B7788",
"cX c #6A88A4",
"vX c #068DD3",
"bX c #3490D0",
"nX c #5097CE",
"mX c #5E9DD5",
"MX c #8D959A",
"NX c #A69692",
"BX c #ADABB3",
"VX c #C89B83",
"CX c #CB9C84",
"ZX c #CCA589",
"AX c #D4A886",
"SX c #D8B588",
"DX c #D3AF93",
"FX c #E5B794",
"GX c #C1B4B3",
"HX c #DAC093",
"JX c #E7D88A",
"KX c #F4EB93",
"LX c #F5CCA8",
"PX c #FAF4B4",
"IX c #FDFCCA",
/* pixels */
"VX_.8.h.h.q.O.5.8.j.x.z.h.u.h.1X7X7X2X:X1X).h.<X2X9Xh.P _.ZX8X/.h.R.#X@X+X@X+Xx.3X0XwX8X>X_.m.z.n._.x.8.8.z.h.z g.CX3X8.",
"x.4.Z E S V E ~ E W E E W _ 5.R.#X|.L.+.J.O.~ y.}.}.L 1 P oXL./ S e.T.L.R.R.J.X.t.|.|.|.y.E ~ ~ ~ W V V V E V g 7.E.>.N ",
"q.4.^ / K V ~ / / ( / ^ ` 5.h.>X#X+X+Xp.oXp.` J.|.}.I 6 7.<XoX_ o.H.H.L.<X+XL.0.J.#X|.|.u.^ ( ( / ) K V L / ~ b A O.` A ",
"x.q.W / ~ E / ~ / / / ^ O.8.8.R.#XXX#X+X+XXXq.{.|.}./ b s.1XR.6.e.K.T.Q.<XOXL.K.oX#X#X|.t.` ( ( / K V K E ^ ~ v b _ ` A ",
",Xj.W / S K E / / L W / O.q.9.J.|.}.|.#X|.|.{.}.}.}.P 4 :.Q.#Xe.e.R.W.7X7Xl.J.}.+X+X|.|.u.` _ / S S S L / ' E b J 8.4.B ",
"_.u.W / ~ E E L E E L / O.9.O.p.|.L.XX|.|.|.oX}.}.L.P ; K.9XL.I.Q.B.7XKX7Xl.K.XXoX@X#X|.t.` ) ~ S S E W / / ^ b B 7.4.A ",
"j.9.( / ~ / E E L E E ( ` O.` y.+XR.}.|.|.oXp.}.{.L.M.M.tXP.rXJXeXJXPXtXP.1XOXoXoXOX+X}.0./ / K A S E / E ^ / 6 l _ O.B ",
"h.0./ / Z E L / E / / ( O.9.` y. XXXT.XX|.oXt.{.J.+X X X%XrXPXrXtXIXPXM.U.8XOXu.oXXX}.+Xt.^ ~ B A S / W / / / v b 8.O.V ",
"x.q.^ ) / E / E / / W X.5.9.O.t.+X}.p.}. XoXp.}.p.@.M...$XKXJXM.KXtXV. XeXI.Y.O.p.XXL.+X6.V B M V S ^ / / / W b _ x.5.N ",
"n.d./ ` ( ~ L E / W / _ 9.5.` t.+XXXq.oX|.+XXX}.L.0X[.N.V.tXM.M.eXeXKXKX%XF.T.o.6.L.L.L.o.m M B S / ( E / ^ E 4 M 8.5.A ",
"_.j.( O.` ` 5.) ( ( ^ O.9.9.` p.#X#Xu.p.@X+X#X{.SXIXKXeXtX%Xc I.eXPXIX%X| Q.Q.6.i.XXL.L.P b V ~ ( ^ ` / / ` ~ n F 0.O.S ",
"7.o.B A M I :.n C B A K P J J ,.R.H.I 4.R.oXI.N.JXJXc | KXwXB.B.Z.%XM.| P.P.K.7.e.K.K.H.J M B b M M M B B B M 3 D ,.J v ",
"s : $ # + 7 t # @ : > s ; % O 7 [ [ 3 4 <.<.e.F.tXB.:.W.9X..eXI.z c ..Z.M.F.| [ | | | <.1 D 4 & $ $ $ , > , $ o @ & $ # ",
"'.g.;.;.1.2.].^.b.b.b.a.G ; 6 U.Q.`.U.1.3.(.Q.[.%XZ /.2XM.G.B...M...M.P.[.`.Q.7X<X@.F.F.1.U.g.3.b.b.a.b.b.,.:.2.b.b.2.2.",
"DXVXm.3X3XVXAXFXZXCXCX6Xs.l n.ZXwXSX0Xm.,X5X5XwX[.r.:X`.].e.} ....| U.SXSXwXSXHXqXy.Q.0X5XAX5X4X4XCXVXVXCX3X3XVXCXVX6X_.",
"n.4.5.f.d.f._.5X3Xz.h.z.H 6 n.5X9X8X/.5.8.E.x.W.Q.F.AXFXSXe.Z ..@.[ ~.8XQ.).2X7X).[ Q.0X8X1Xh.5.5.8.s.h.c.h.d.h.f.s.s.4.",
"` E E E W Y ( XXXX0./ E 1 7 ).<X#X|.J.^ W ` E G.}...AXDXk.L 7.6.] +.%.@.v.Y.{.y.o.H Q.qX2X@.R E Z z N 6.e./ Y E W Y z N ",
"t.O.^ / X.( ` E.@XW.k.6.4 6 1X0X#X#XXX` ^ W v.%XD.C.0.w.w.8.k..XA.D..XnXvXcXL.0.P { Q.9X#XO.^ / ^ / O.E.i./ / _ / _ _ L ",
"h.O.^ ` o.` / u.@XOXOXY.D 4 <X9X+X+XXX6.x MXNXV.=X$XS ,.w.J o.S.-XV.MXnXMX!.T.9.K { Q.7X}.^ / ^ ^ o.k.Y.6.L ) ) / / / S ",
"h.` ` 5.5.X.( 6.OXXXOX@X7.v W.7X|.+X@Xt.x cXMXV.=X.X<Xu.X.>X<X&X&XC.gXi c T.i.O._ <.+X#XG.W / / ~ t.T.W.6.W / ^ ` E E A ",
"h.5.5.0.O.` ~ _ R.+XXXOXH.J Y.7XQ.K.Q.u.x ^.kX.XD.MXBXVX].BX0XD.C.-.y 4XAXFX1XW _ r.Q.#XH.~ ^ ( q.E.W.R.5.~ ( ( / ~ ~ Z ",
"j.0.0.9.` K V B i.+XXXXXK.{ 7.0X5X} K.y.K ).VXoXA.nXbXmXmXbX%XD.&.U T FXLXLXSX_ _ H.I.#Xu.( ` ` oXOXR.T.o.~ ( / E L / Z ",
"c.u.0.O./ K J V 6.+X@X@XU.e.e.7XFX5Xe...f AXLX.XZ.jXzXzXvXMXD.A.] ' 0.5XLXLX5Xw.5.F.K.#Xt.5.5.p.@XXXR.Y.L V / / E / / S ",
"m.h.O.` / A E E O.XX2X8XK.<.Y.F.5XAXC cX^.SXFXOX#.kXbXbXcX.XS.C.c.5Xk.).k.AX`.Z 7.<.N.R.t.i.H.OXOX+XXXq.V Z / E / / E A ",
"n.q.` ) K A ~ ( _ E.7X8XH.r.#XQ.U.l.C vXBXSXk.L %.+.lXgX@.S.S.&.5XqXj.t.kXBXAXL e.<.H.+XH.L.R.XXXX+XR.O.W / ` / L E S B ",
"x.9.` _ K / ` ` O.T.8X#XU.<.#X7XU.1.jXdXxX0Xk.{ O.#...*.A.S.$.R >X>Xj.J.kXfX2.| Y.r.K.#XXXL.Q.+X+X@XR.o.o.5.o.O./ / / A ",
"H 4 3 3 4 4 n n n G 3.U.t t e.H.K.!.jXp ,.7.7.G 7 G 6...$.Q s d N P 6.p aXiX7 [ r.[ e.}.G.F.F.y.r.H.,.1 4 v n n b M 6 6 ",
"# . O O % ; ; = = # 5 t 5 5 7.e.<.M.@.M.7 < < ; - w yX9 9 9 9 iXw i [ p i y = G r.<.r.W.G.G.F.<.r.r.8 * 3 v v ; # = = # ",
"b.VX^.b.b.g.a.a.7.P a.7X].].DXSX0X0X`.W.Y.g.g.a.D -.q q q q i u yXp K.@XH.K :.`.`.4X0XAX9X9X8X0X0XZX(.~.'.6Xm.B G b.g.:.",
"ZXZXVX3X,Xc.x.c.x.z._.qXqXZXZXAXqX9X@XW.2X).m.g.F x f k Q x x k h B U.<X).5.z.5X,X2X2X8X7X2X2XZXSX0Xm._.3X3Xx.W z.CX6Xc.",
"n.f.~ _ K F ~ ~ / ) _ l.Q.w.o.e.e.I.H.i.+Xi.} *.] ! h k ' j k $.$.j K t.8.~ 6.E.u.XXXXL.I.T.8.H.@Xt./ / / _ S b L d.5.K ",
"z.8.N V B B V V V T V @.{.e.J o.6.L.}.J.L.N..X-XC.k d ! j Q S.-XC.N A ` ) / T.p.5.XXL.H.H.7._ l.R.O.^ / ~ S B v b _ _ V ",
"s.4.V F B S E E K ~ ~ 5.}.L._ o.t.J.+XI.$X&X;X&XC. .s j  .&X;X=X=X*.v / E / E.6.6.L.K.k.i._ I W.R.) ^ ` ~ J B n M 5.O.A ",
">.) B V A S E E V ) _ O.}.+X0._ O.0.|.$X;X*X=X;XC. .d U A.&X-X=X;XS.W L B o.w.) H.L.H.H.w.~ 5.<Xj./ ) / K V A b F 5.O.A ",
"d.4.V K ~ T T K T V 8.k.T.+XT.( O.L.-X-X*X;X=XS.&.j d ' S.=X=X=X=X&XC...V 8.O.o.L.L.i.l.6.~ T.<Xh.) ( K B K ~ V P 8.o.A ",
"n.5.V S S E K K S E _ E.R.|.XX4.L.*X=X&X*XS.*.^ ! j s k C.=X=X=X-X*XS.C.L 5.~ 5.}.T.H.u.` ` oX@X0./ / K B ~ / M K 8.O.V ",
"d.4.V T ~ V E T ~ K ~ t.@X+XQ. X-X;X*X&X&X$X=.+.! T j s Q C.-X=X=X=X-XC.A _ W i.XXY.t.4.~ 5.+XoX5.( ) ~ K / ` V _ 8.O.A ",
"h.5.V S T ~ S ~ S ~ / ` R.@X X;X=X=XD.A.&.+.C.C.$.U N 1 m =.&X=X*X=X;XC.d C _ R.R.k.6.` ^ u.@XT.` ( ( ` ( ` 5.~ _ t.O.A ",
"z.5.V ~ K S T S ~ ) O.5.i.Q.&X;X&XA.&. .! ! T j k B 8 7 D ^ S.;X=X*X=XC.^ B @.R.c.l.q.O.) R.@X6.^ ` ` O.5.0.6.M n _ ` K ",
"f.8.W / ~ E ~ / ` 5.0.5.4.i.$XD.&XS.*.+.] R U h B I A v a.h Q S.=XD.&X=.Q  .e.E.c.m.h.5.0.OXOX5.5.q.q.9.5.9.5.B H s.5.S ",
"s.o.V ~ K F K ~ 4.4.>.~ L L =.=.&.C.C.=.$.k v { } A g m ,.E x $.A.A.A.$.R  .r.k.x.j.6._ k.<XW.E.E.h.4.>.) ` 4.B :.z.5.B ",
"s : $ , < 1 1 1 1 , 4 1 ; v R ' ! j j Y j h g G 1 # + @ l N Q  .] ]  .R R Q M H F M 6 8 3.F.Y.U.7.v < - > n n ; ; > , ; ",
"~.1.r 8 D D G 8 8 ;.1.3.t b Q R ' ^ ! U j d s P ;.8 r ;.g.,.g Q $.' ^ ^ Q Q g ;.H ; 3 3.~.^.).Y.:.6 3 7 r M 4 4 D ;.;.7 ",
"GXDXCXVX].]._.n._.6X'.5X5Xr. .Y ^ ] ! T ! h j b._._.6XCXDX].X.C.$.] ' Q $.Q d g.x.N a.ZXHXSXAX6Xn.(.(.3X3Xx.8.q.'.5XVXm.",
"AXZXZXAXZXZX'./._./.j.c.Y.F.L U R ' ^ ] T R U ,.l.z.n._./.z.L S.C.! ' ] ] ^ d B 7.Z (.DXwX0X1Xc.l.n./._.m.x.d./.5X5X4Xf.",
"k.i.R.OX2X5X2X>Xj.6.O./ G [ N T Y R ' R Y R d B ` ~ E E E E J Z C.*.T ' ' R U k C D g.5X<XH.O.0.t.` R W ^ 0.E.).W.u./ S ",
"h.5.l.1X5X2X2X<X>X).W.Y.,.G T ' R T ^ ^ ' ! R J _ ^ / ^ / K / M j $.Q R ' R  .Y M G g.8X#Xl.R.W.q.O.5.q.E.,X1X1Xl.X./ K ",
"x.0.q./.1X1X).W.W.>X<X2XY.<.,.K j ! ] ] U f K } ` / ` ) _ / / J T ! ' T ^ &.$.a G ,.Q.8X2X@X@Xk.0.l.>X1X>X1X<XE.4.O.o./ ",
"c.q.6.5.h.W.).).).)./.OXU.<.K.K.G * V z a 0 I X./ ) ^ / / ` ) L S R j f k U d 0 2.F.<XqX<X@XOXE.:X>X1X>X>X1XE.5.~ ` ` S ",
"x.8.` ` / 8.W.`.>Xc.q.u.,.;.W.#X3.uXsXsXgXsX,.' ) / ) / ~ / ^ ^ L S 4 q q 2 hXaX!.L.2X0X<X@X@X>X>XE.>X,X1X/.9.( ` ( ( K ",
"z.5.^ ^ ^ ~ 5.c.>XE.5.4.D 8 (.4XE.jXdXgXfXgX3.O.) ` ^ / K ~ / ` ` ` { pXfXhXiXdXv.r.U.2X@XoXE.c.l.u.E.>X1Xu.~ ^ ) ( ) S ",
"j.` / ) / ( / ` j.>Xl.5.b 6 w.c.6.y iXjXjXu ,.q.) ) / ~ F V E ) ` O.+.p dXhXhXdXp ,.E.<XOXk.5.5.O.5.:X,Xk.( ` ( ( ) ^ K ",
"k.O.^ ( ^ / ^ ^ / u.>XE.D ; ~ q.p lXiXjXpXuX,.X._ ^ S F B V V ~ / O.+.} sXpXu iXp F.Y.>Xq.` ) ^ 4.c.,Xk./ ^ / ) ( ) ^ K ",
"h.` / / / / / / ~ W j.1X<.6 ,.kXnXbXzXfXaXjX,.~ ~ ~ F B A E S E ~ / _ X.i iXq e jX,.,.t.5./ / 5.c.).j.^ / ) ) ^ ) ` / K ",
"x.O._ ^ / / / ( ( ( O.l.g.g.(.cXnXnXjXy G Z o./ K K A K ^ / / _ / ~ I Z i dXhXiXgX7 m d.9.` q.:X>Xj.` ` ` ` ` ` ) ` ` ~ ",
"7.P F A J A M M D H J H 8 1.~.b.r : l l b D b D n n v m M F F J J B D > r bXlXlXgX- n 4.:.7.~.b.;.n M D M M J K J J J m ",
"$ + $ : , : o     X X X   o D ;.6 1 & % o X + @ @ o o O @ @ & @ & & % + # bXmXmXfX+ 1 N D r 5 O     @ @ @ & , < - # @ X ",
"2.2.2.,.2.:.;.1.2.v.2.b.2.2.b.'.b.~.g.2.2.1.2.2.2.:.;.4 ;.b.a.3.g.2.:.2.2.v.kXjXp g.'.VX'.b.2.v.v.v.^.n.a.b.n.g : r ;.G ",
"ZXZX4X6X3X:X3XVXZXVXCXCX3X4XCXVX3X3X3X,X3XVXVXVX3X3Xz.T m.CX,X3X6X_._.3X3X4X(.g./.3XVXCXCX,X6XCXCXCXZXCX3X3Xm.m H '.CXm.",
"_.x.8.d.8.8.d.z.b.z.z.f.8.8.8.8.4.4.>.5.8.d.s.d.8.5.~ v s.c.4.5.6.5.5.8.8.8.8.h.d.d.q.q.q.9.q.s.f.s.a.8.:.P H ; 8 m.m.8."
};
