/* XPM */
static char *result[] = {
/* columns rows colors chars-per-pixel */
"60 60 250 2 ",
"   c #040000",
".  c #170000",
"X  c #280200",
"o  c #340400",
"O  c #38160D",
"+  c #440701",
"@  c #580502",
"#  c #491505",
"$  c #571806",
"%  c #670C00",
"&  c #661600",
"*  c #5A2509",
"=  c #512814",
"-  c #582B17",
";  c #642808",
":  c #762605",
">  c #6F320C",
",  c #672B13",
"<  c #69331A",
"1  c #74391C",
"2  c #78381A",
"3  c #573425",
"4  c #6A3B25",
"5  c #733C23",
"6  c #7B3D23",
"7  c #69451C",
"8  c #6C442B",
"9  c #7D4124",
"0  c #77452A",
"q  c #794B38",
"w  c #795033",
"e  c #3C2B4D",
"r  c #593C5A",
"t  c #12447A",
"y  c #384A73",
"u  c #52495B",
"i  c #70524F",
"p  c #4C4B76",
"a  c #706063",
"s  c #716672",
"d  c #8C0C12",
"f  c #912D0F",
"g  c #843C1C",
"h  c #9A371B",
"j  c #883727",
"k  c #983925",
"l  c #A03C27",
"z  c #9A5703",
"x  c #904A1C",
"c  c #9B5918",
"v  c #A55C03",
"b  c #A84F16",
"n  c #9A6308",
"m  c #A86B03",
"M  c #A7681B",
"N  c #A9731D",
"B  c #B57816",
"V  c #844325",
"C  c #8B4525",
"Z  c #86482A",
"A  c #8C4A2C",
"S  c #994526",
"D  c #944D2C",
"F  c #9B4D2B",
"G  c #8B5428",
"H  c #975729",
"J  c #96522E",
"K  c #9C512E",
"L  c #824C33",
"P  c #8D4E31",
"I  c #964C31",
"U  c #895438",
"Y  c #955333",
"T  c #9C5532",
"R  c #955C33",
"E  c #9D5A34",
"W  c #95573B",
"Q  c #9C5B3B",
"!  c #A54627",
"~  c #A44B2C",
"^  c #AA4C2C",
"/  c #A1532E",
"(  c #AD522D",
")  c #A7582B",
"_  c #B4582B",
"`  c #A54C34",
"'  c #A45632",
"]  c #AA5534",
"[  c #A55933",
"{  c #A85A36",
"}  c #A55539",
"|  c #A45C3A",
" . c #A95D39",
".. c #B35832",
"X. c #9B652A",
"o. c #8A6335",
"O. c #986736",
"+. c #946C30",
"@. c #A46625",
"#. c #A46D2B",
"$. c #BB612C",
"%. c #AB7526",
"&. c #A5712C",
"*. c #AB742B",
"=. c #B47925",
"-. c #B57D2A",
";. c #B87F2A",
":. c #A56539",
">. c #AB613D",
",. c #BD6331",
"<. c #A97735",
"1. c #B57A35",
"2. c #C76D30",
"3. c #C97735",
"4. c #895A47",
"5. c #965D44",
"6. c #855E52",
"7. c #A65E40",
"8. c #8C6549",
"9. c #9A6648",
"0. c #99744B",
"q. c #876556",
"w. c #976857",
"e. c #A46345",
"r. c #AC6542",
"t. c #AE6945",
"y. c #A66949",
"u. c #AD6B4A",
"i. c #B16643",
"p. c #B16946",
"a. c #B26D4C",
"s. c #A97748",
"d. c #B2714E",
"f. c #B07B4F",
"g. c #A76E55",
"h. c #B36F51",
"j. c #AD7253",
"k. c #AB7759",
"l. c #B47253",
"z. c #B47954",
"x. c #B47659",
"c. c #B57A5C",
"v. c #B97B5D",
"b. c #967768",
"n. c #A87964",
"m. c #B47B64",
"M. c #BA7E61",
"N. c #BA8715",
"B. c #BA812B",
"V. c #B8862C",
"C. c #AA8238",
"Z. c #B88836",
"A. c #BD933A",
"S. c #D0900A",
"D. c #EB9800",
"F. c #CC8D35",
"G. c #DA8737",
"H. c #C69838",
"J. c #E08C2B",
"K. c #E7993C",
"L. c #CDA23B",
"P. c #D6AF3C",
"I. c #EEA638",
"U. c #B1874B",
"Y. c #B89545",
"T. c #B8855A",
"R. c #A8935F",
"E. c #AB8567",
"W. c #BB8165",
"Q. c #B88669",
"!. c #BC856A",
"~. c #B7946B",
"^. c #BC8C73",
"/. c #B88874",
"(. c #BB9077",
"). c #CE9549",
"_. c #E59A41",
"`. c #C8A648",
"'. c #D2AC44",
"]. c #D8B647",
"[. c #C9AD54",
"{. c #D7BB58",
"}. c #EDA544",
"|. c #F0AB47",
" X c #F1AD46",
".X c #E1BC46",
"XX c #F4B047",
"oX c #C1866B",
"OX c #C1896E",
"+X c #C8996A",
"@X c #C28C73",
"#X c #C28F78",
"$X c #C89777",
"%X c #C4947B",
"&X c #D09D7A",
"*X c #CFB06F",
"=X c #CDB969",
"-X c #CAA47A",
";X c #E8A366",
":X c #DAC25B",
">X c #E4C34A",
",X c #E5CC58",
"<X c #DBC567",
"1X c #DFD373",
"2X c #E2CD64",
"3X c #EAD968",
"4X c #E9D973",
"5X c #EFE270",
"6X c #F3E878",
"7X c #FCF47A",
"8X c #003788",
"9X c #0F569A",
"0X c #375589",
"qX c #305591",
"wX c #005DA9",
"eX c #0169B1",
"rX c #3066AB",
"tX c #4E6A95",
"yX c #70778F",
"uX c #5E6FAA",
"iX c #5571A8",
"pX c #2578C5",
"aX c #867A89",
"sX c #6C94B4",
"dX c #0A8AD1",
"fX c #11A1E7",
"gX c #66A0CC",
"hX c #B1988B",
"jX c #A2A19F",
"kX c #CA9C85",
"lX c #C99D87",
"zX c #CBA38C",
"xX c #D5A788",
"cX c #D2AE91",
"vX c #E4B694",
"bX c #BEC0BA",
"nX c #DDCA9D",
"mX c #E9DA82",
"MX c #EBCD96",
"NX c #FCFA85",
"BX c #F3E796",
"VX c #F6EF94",
"CX c #F4CAA6",
"ZX c #F1CBA9",
"AX c #FBD4AC",
"SX c #FCF8A5",
"DX c #F8F5B5",
"FX c #FEFCC5",
"GX c #FFFFD7",
"HX c #FFFFE8",
/* pixels */
"zX%Xv.W.!.T.h.h.c.!.@X@X!.M.M.!.Q.W.^.^.!.!.!.W.!.#X!.u.(.zX@XoX!.c.c.u.r.a.a.M.%XzXkXOXoX%XkX^.oX%X%Xc.x.!.!.u. .lXcX!.",
"M.u.K [ ' K / ' ' ' ' / [  .r.r.>. .[ ' ' ' ] ' [ { T 9 5.h.r.} | F C O.' ' T } >.r.>.{  .} { ] [  .| K K ' ' C T !.m.K ",
"j.7.) ' K K ' ] ] ' ) { | r.u.d.u.>.[ ] ' { [ ] [ { E : 0.T.7.` j C `.Y.h S F c l ` >.>. .' ' } ] ' K F K E ' F D y.r.K ",
"l.t.' [ ' K T ] [ ] { { >.t.a.a.r.r.r.>. . . .[ [  .k 0.3XW.` <.=X1X:X&.f.=X6X1X=XY.b ! ~ }  .{ } | T K / ' ] D 6 K >.' ",
"!.d.) [ K K ' / [ [ [ { >.d.i.>.{ >.>.>. .{ ] ) ' F U.4X'.Y.mXSXNX,X@.Z.,X7XSXDXFXDXnX<X[.U.] { [ K K K / { { J V :.t.T ",
"!.l.) [ / ' / E / K H [ >.p.>.:.{ :. .{ { { { ] [ D :XL.`.SXDXBXL.@.*.-.=.H.P.,X6XBXBX<X[.<. .} T K K T / ) { K A e.u.E ",
"v.p.) ' ) E / / K ' ) ' >.>.>.>.:.:.] { ] { } { ) :.A.%.VXVX<XB.X.N.S.V.B =.V.V.%.n n x d k T Q T K K ) [ ' { D 2 T r.| ",
"l.i.[ [ E [ [ / ' / ' { >.i.>.{ { {  .{ [ { { { ~ Z.C.N ,XP.V.'.6XSXFXSXmX{.A.X.z C.Y.=X1X=XC.z j I ' ] ) ) [ A 1 T p.Q ",
"c.a.' { / / [ E ) [ ) :.>.p.>.{ [ { {  .{ | :.h [.{.m =X6X`.].DXGXFXVX1X*XC.A.`.BXVX5X6X7XSXFXBX=Xn k ] ' ] [ F A j.l.' ",
"v.a.' { [ ' E ) / [ ) { r.i.>.{ } ] { [ :.>.! +X4XC.MXSX:X'.SXFXBXP.S.m v A.mXGXHXDXBX,X:XNXSXFXFXDXY.| ) ' [ A C e.a.T ",
"W.l.{ >.{ { { { [ { [ >.t.i.>. . . . .{  .] C.VX[.nXDX'.m 3XNX3XP.H.<.*.V.6XSXSX2XL.B.X.C.L.,X,XmXmX2X[.C.:.{ G 9 | t.' ",
"c.u./ [ } Q E E T T } [ | | | :.| { } |  .~ <.[.[.FXMXz Z.P.L.<.&.&.-.;.2X5XP.S.B @.X.c M z c X.n z X.+.O.' T A V 9.r.J ",
"f > - * $ , $ # $ : g g < - 3 - - $ & 2 8 q 0.#.<X6XV.<XSXFXAX<XY.*.-.F.H.B M &.%.1.H.:X5X:XY.o.w w 8 > > > < # + , , & ",
"n.8.0 8 i q q 4.4.8.4.5.0 $ * 4 4 i 4.U w *X`.N H.T.*X5X1X*X`.A.&.Z H c @.H.Y.#.=.H.3X7X7XNX7X5X<X:XY.o.9.o.w w 6.4.4.q ",
"cX#Xc.!.@X#X@XkXlXlXkX#Xg.g g.!.Q.%X%X!.T.Y.Q.@X*XCXxX*.m z M &.H.`.[.2X5X3XZ.#.B.-.F.H.H.`.`.`.C.+.R.cXkXm.m.^.lXlX%XoX",
"^.x.l.M.M.W.W.W.!.!.M.oX5.g E.@Xm.M.M.l.f.0.~.vXMXvXu.W O.-.<.-.L.,X2X3X{.Z.#.%.#.#.@.@.@.@.@.@.*.[.NXNXNX1XcX+XM.m.m.m.",
"{ / / / / ) / / / ~ ) ) 9 < y.c.>. .{ ' E Q R &X-XzXu.V H #.%.B.C.=.N M c %.B.;.;.-.*.*.-.-.B.B.L.3XNXNXNXNX7X6X{.<.X.H ",
"a. .) ] [ { ) ' [ ' | } 9 < j.M.r.>.>.{ ] { / f.-X~.y.C G #.#.N m m %.&.*.#.*.;.;.;.-.*.#.*.&.*.=.F.F.].{.'.P.L.H.C.+.E ",
"d.>.{  .>.{ [  .{ [ } E 9 5 x.v.>.{ { >.{ { | H O.:.y.f.U.G.F.U.hXs C.B.;.;.*.*.;.-.-.;.#.#.*.*.#.X.#.N N %.X.O.R Q [ ' ",
"d.>.{ i.>.:.| ] { {  .[ Z Z j.d.' {  .{ { :.-.[ H @.y.). XK.U.gXdXeXp B B.;.-.X.&.-.-.;.-.&.;.;.-.&.o.R O.O.| {  .[ / K ",
"d.>.r.p.>.{ { | ] [ [ { D Z h.h.[  .| O.F.W.bXT.b.jX+XI.}.I.s iXzXcXw.X.*.;.B.*.#.*.*.;.;.#.=.-.B.B.%.+.R ' { { { ' [ E ",
"z.p.a.p.>.' K K T ' { } P g 7.t.{ >.O.E.J.hXfXgXgXbXI.XXK.G.s lXAXCX$Xm *.#.*.*.#.*.*.*.B.#.#.;.-.=.-.B.<.+.' { ' / / K ",
"v.d.p.>.[ Y J J K | {  .P < T  .| { r.tXK.E.dXdXjXD.}. X3...a kXAXZXvXz.B 1.*.*.*.*.B.*.*.*.#.-.B.H.'.]..XA.O.) [ ' [ ) ",
"v.l.>. .' K K ' '  .t.a.P < T r.T ' ) jX+XF.dXgXS.F. X3._ ! C k.ZXAXCX&Xn B.;.;.;.;.;.;.#.#.-.*.=.F.H.].>X.X<.R / ' ) E ",
"M.a. .[ E F ' ' | >.d.d.Y < e.h.[ K r.MX;XJ.yX(.J.}.G.2...^ l G -XCXMXxX:.%.;.-.&.%.=.B.=.%.%.V.B.=.B B.L.>XH.o.[ / / J ",
"v.i.[ } T '  . .>.d.d.p.P < 7.x.t.| f.vXd.J.K.K._.3.l ~ ^ ..F Q 9.T.$XvXd.M -.;.o.+.B.V.B.B.&.<.B.B.B.B.=.P.].O.| ' [ K ",
"9.P Z Z 9 A Y P W W W U 4 - P 7.A ~.$Xp.| M 3.m f d f f k A R Y R R kXAX&Xn Z.;.+.8 %.V.-.B.%.w o.#.%.V.;.V.].+.Z J D Z ",
"+     o + $ * $ * # O       % : @ cXAXkXF e 8XqXrXtXy y u > 4 < 9 m.vXAXvX7 +.%.%.- 0 %.=.-.V.G $ > 7 G %.B H.o.# * * = ",
"w.b.b.w.w.9.W 8.W L w 8.q.b.(.E.~.AXCX&XO.y wXeXdXdXwX8Xi R W Y U f.MXZX$XG U 9.<.8.E.E.s.-.B.0.n.m.w.n.E.C.=.o.5 4.9.U ",
"zXcXkX%X@XW.v.M.c.x.M.#X%XlXzXhXgXbXT.:.0.s.j.T.f.j.j.r.8.d.a.h.e.U.nXZXf.y.l.c.k.E.oXoXk.<.B U.%X#XOXOX#XE.+.:. .%XkXW.",
"@Xm.r.y.| Q | 7. .>.e.y.y.u.) sXfXwXi :.:.K.G.K.I.J.|.K.) W | 7.) yXdXiXi :.|  .>.p.>.:.[ O.&.O.y.r.>.:.>.y.0.H Y x.v.e.",
"l.r.x S D D F F ~ F F S F h O.bXsXt 8.) 3.|.G.G.}.K.|.}.2.g E ~ z jXsX9Xa ) ' ) [ | ) F J R o.T ' / [ ' ' / K Z V K { H ",
"l.e.F J F Y T / ' F / / ` F $XMXQ.G :.) K.XX3.G.XXI. X X3.j K r.-XCXcXs 4.) ' / / K D A D D Y '  .{ ]  .] T D Z V | y.E ",
"r.] D J F F ~ T / / / E ' u.vXW.f.H ] :.K.}.$.$. X X XXXG.( x z.@XvX+XX.Y K K / F F J K K ~ ' | r.} ] } T F D D C | r.' ",
"u.e.D K F ' F T / / / } | :.f.9.G R ] Z. XK.) ! K.XX|. X_...D O.$XxXf.R T F F ' ' / ' / ' ' } | p. .[ [ T J ' K D y.u.T ",
"c.r.S ' T ~ ' ~ K / ' ' [ ) H G R y.} 3.XXK.h k G. X X X X2.k R U.u.O.R ~ T ~ K K / T ' [  .[  .7. .[ T D Y | F D e.u.' ",
"x.>.F ' ~ T K ' / / ' ) [ [  .>.r.p.r.f.XX_.( f ,.|. X X XG.k D G G X.K K ' / / K / / [ { { ] [  . .[ } K }  .E J >.p./ ",
"l.e.F / K ~ / K K K | | >.>.>.>.r.r.} Z.|.3.] k h G. X X|.K.! / O.T E ) ' / ) H / [ | | { ] ) { [  .] { [ {  .[ ' u.a.' ",
"x.r.K / ' / K ~ ' [ >.r.>.{ ' [  . .' )._...] l j ! }. X|.K.,.( A ) / E E [ E E [ r.p.r. .{ ] [ {  . .>.>.r.r.| Z T 7.} ",
"j.r./ / F ' ' '  .r.p.r.>.{ ) [ |  .7.3.G...^ ^ ~ k 3. X|.}.3.( C E [ / / / ) [ r.v.c.t. .{ { [  .r.p.p.i.i.i.E V O.p.{ ",
"j.y.K } T ' }  .r.r.7.{ { ' ' [ | r.7.1.3.( l ] ` f ! K.XX|.G...S R ' | | ] } { a.l.d.e. .| | :.y.d.a.r.r. .r.| Y x.l.} ",
"C 1 , 1 1 6 2 6 6 1 1 1 4 4 , , < , = / 2.^ ^ ..! ! k 3.}.XXG.^ l 9 0 1 2 9 2 C Y Q P 0 1 V D F Y J Z < 1 Z D 8 < 2 V < ",
"U q 4 4 5 0 0 5 5 q q 8 4 - 3 q 4 3 3 D ......^ ^ j 0 ( G.|.2.^ ( S 8 < 8 4 0 U A 5 $ $ 4 L Y Y A V < - 8 0 9 < 4 0 0 8 ",
"zXhX/./.Q./.W.k.Q.(.m.m.g.A n.(.E./.n.S ^ ` ! ^ h j w.l ,.2...^ _ b Q E./.m.^.(.c.Y 6 g.^.^.!.m.E.c.k.W./.m.r.e.k.Q./.m.",
"kX@XoX@X@X%X!.W.oXOXM.M.y.C k.@XW.OXn.) 2.( _ ( k h w.9.f ` ( _ 2._ ] ^.@XOX@XOXv.J W %X$XOXoXv.v.M.oXOX@XW.l.d.v.W.W.c.",
"p.' /  .t.d.d.u.p.>. .:.Z < e.l.>. .>.C 2.G.2.^ ( l D R ! _ 3.3._ _ S G :.[ )  .{ V U x.a.| :.{  .{  .{ [ {  .>. .{ [ / ",
"a.' ] r.u.a.>. .] { {  .Z 5 g.M.r.i.:.h ^ _ ! ] ^ ! ! R D _ G.3...( ! x ) ' ) >. .V Z j.p.) { { [ [ ' ( ] ' { { { { { / ",
"x.i.p.d.u.>. .' T | { >.A 5 e.h.>.r.Y ^ 2.^ $...( ^ C | F k _ ,...^ _ ! Q } |  . .9 Z d.d.{ >.:. .{  . . .{  .{ :.:.>.| ",
"v.a.t.r. ./ / T | ' { { Z , A [ ' T D k 2.3._ ! { ! S Q F ^ ! ( ] ! 2.^ S | ] { ' V Y v.a.{ ] { } ] ] [ { { { } {  . .[ ",
"v.t.>. .| T [ [ [ ] {  .Z - A | T J D ^ l k l ..( S T [ Y / ^ ^ ..! ..` J } { { | S e.Q.a.' ] { { { [  . .{ ] { ] } { [ ",
"x.i.{ [ [ [ [ [ [ } [  .L 1 y.x.] T J G l f b ! i Y  .[ T J ! ~ l ( b j | ] ' { | Z J y.i.{ { { { { { { >.{ { { ] { } ' ",
"l. .] ] { { { [ ] ]  . .A 6 j.c. .[ ] Q r r p 0Xs ) ] ) K G ~ ! f b j 0X5.] { } | Z V >. .{ { {  .{ { } [  .{ } } ]  .' ",
"l.>.] { ) { { { ' '  .r.Z , | p.{ { { { i 9XrXwX4.] } J K K H i r j qXwX6.]  .{  .D Y d.p.] { { { { ] { { { { } [  .{ ' ",
"l.{ ' ' ' ) ' ] ' /  .>.Z - W r./ / T T Z y 0Xy Y ) J D D K ~ U qX0XrXeX6.) | ] ] A Z u.i.' { { ] } ' { [ [ { { ]  .' ' ",
"v.>.{ { [ ' [ [ ] |  .i.C 5 g.x.[ H T H u 0X0XqX4./ Y K ' ' } b s qX0XwXi ) } [ } 6 6 y.p. . . . .} }  . .}  . .}  . .{ ",
"u.Q Y T T Y D Y Y T Q W 6 4 y.u.A D G w 0XrXrXu V A Z A F Y Y W U u u 0Xy w D J Y 4 5 e.e.T Y U Y P Y I Y Y T T T T | Y ",
", + * ; > ; # X X o o X . X & % & & ; tXpXrXe $ @ + o # # % & $ % u p rXrX= @ * $ + % f : $ o X .   o @ @ @ : 1 4 = $ # ",
"4.q.4.8.W 4.q i a 8.q.q.q.8.n.n.w.9.9.aXaX8.o.w.4.4.i 8 q w.w.4.5.uXuXtXeXa w.4.4.4.w.n.g.4.6.q.q.q.b.n.w.w.g.U * < i q ",
"zXlX@X$X@XoXOXkXzXzXzXzX#X#XlXzX@X^.!.W.!.kXkXkX@XoXv.! c.kXOX@XoXjXiXuXeXn.kX!.!.^.&XlX&X@X@XlXlXlXzXzX%X@X#Xe.> k.&X@X",
"@XW.l.l.l.a.l.m.m.m.c.z.d.u.l.d.r.r.u.u.l.k.c.c.j.a.| x y.W.a.u.h.r.yXsXtX:.h.h.d.l.l.j.l.h.l.l.x.x.x.g.y.7.5.6 < g.OXx."
};
