/* XPM */
static char *result[] = {
/* columns rows colors chars-per-pixel */
"60 60 254 2 ",
"   c #0E090A",
".  c #2E0906",
"X  c #4F0A03",
"o  c #471507",
"O  c #561905",
"+  c #571C13",
"@  c #671904",
"#  c #592508",
"$  c #572A14",
"%  c #672A07",
"&  c #76300A",
"*  c #672914",
"=  c #693318",
"-  c #753719",
";  c #543A29",
":  c #693824",
">  c #773C25",
",  c #7C3E24",
"<  c #74461C",
"1  c #7A4428",
"2  c #69523C",
"3  c #7A5235",
"4  c #53325E",
"5  c #69314A",
"6  c #2D567C",
"7  c #6E5852",
"8  c #5B5467",
"9  c #535175",
"0  c #736D73",
"q  c #942D1C",
"w  c #982F1F",
"e  c #8F3411",
"r  c #8A3823",
"t  c #9A3923",
"y  c #944815",
"u  c #A94A10",
"i  c #834325",
"p  c #8A4727",
"a  c #844429",
"s  c #8C4A2B",
"d  c #984A25",
"f  c #944D2C",
"g  c #9C4E2C",
"h  c #96512D",
"j  c #9A5629",
"k  c #9B512E",
"l  c #874C32",
"z  c #964E31",
"x  c #895637",
"c  c #945233",
"v  c #9D5432",
"b  c #9C5B34",
"n  c #96593A",
"m  c #A64829",
"M  c #A34C2C",
"N  c #A5562B",
"B  c #A2532E",
"V  c #B5582B",
"C  c #A54F35",
"Z  c #A35532",
"A  c #AA5534",
"S  c #A55934",
"D  c #A95A36",
"F  c #A95438",
"G  c #A55C3A",
"H  c #AA5D3A",
"J  c #B25A35",
"K  c #896537",
"L  c #986639",
"P  c #95773C",
"I  c #A5633E",
"U  c #A86639",
"Y  c #AB623D",
"T  c #B76838",
"R  c #A97637",
"E  c #B37031",
"W  c #C77535",
"Q  c #CD7535",
"!  c #875B47",
"~  c #985D43",
"^  c #874A51",
"/  c #B05D40",
"(  c #8A674C",
")  c #996648",
"_  c #9B7646",
"`  c #966956",
"'  c #9D6C54",
"]  c #9B7659",
"[  c #AC6442",
"{  c #A56947",
"}  c #AD6B44",
"|  c #AD6B4A",
" . c #B16543",
".. c #B26B45",
"X. c #B86845",
"o. c #B26C4A",
"O. c #A87746",
"+. c #AB744B",
"@. c #B47344",
"#. c #BA7945",
"$. c #B4734C",
"%. c #BB744B",
"&. c #B57B4C",
"*. c #BA7D4C",
"=. c #A66E55",
"-. c #B26F52",
";. c #A87459",
":. c #B47453",
">. c #B97654",
",. c #B57C54",
"<. c #BA7B53",
"1. c #B47659",
"2. c #B67A5C",
"3. c #B97B5C",
"4. c #8A786B",
"5. c #927169",
"6. c #A87A66",
"7. c #B67B62",
"8. c #B97E62",
"9. c #A57F7B",
"0. c #C37E49",
"q. c #C97F4C",
"w. c #77837D",
"e. c #B88926",
"r. c #B38237",
"t. c #D98736",
"y. c #CB9635",
"u. c #E49538",
"i. c #CCA43A",
"p. c #9C8D4B",
"a. c #AB8548",
"s. c #AD844C",
"d. c #B58649",
"f. c #BB844C",
"g. c #BD8B4C",
"h. c #BB944C",
"j. c #AC8E58",
"k. c #B58451",
"l. c #BC8453",
"z. c #B58957",
"x. c #BC8B53",
"c. c #BB835B",
"v. c #BD8B5B",
"b. c #B89556",
"n. c #BDA350",
"m. c #938975",
"M. c #A68468",
"N. c #BC8264",
"B. c #BE8C63",
"V. c #B7866A",
"C. c #BD856B",
"Z. c #BB9966",
"A. c #AE8B73",
"S. c #B78C76",
"D. c #B3A36D",
"F. c #C3844C",
"G. c #C38C4C",
"H. c #C9884B",
"J. c #D48A46",
"K. c #C4924E",
"L. c #C6994B",
"P. c #D89649",
"I. c #C28C53",
"U. c #C68955",
"Y. c #C28C5B",
"T. c #C49353",
"R. c #C99657",
"E. c #C3925B",
"W. c #CA9C5C",
"Q. c #D59753",
"!. c #E49946",
"~. c #CCAC4D",
"^. c #CAA656",
"/. c #D8A354",
"(. c #D2B555",
"). c #EAA549",
"_. c #F2AC47",
"`. c #F3B24C",
"'. c #E8B052",
"]. c #EBB658",
"[. c #F2B654",
"{. c #F2BC5B",
"}. c #C38767",
"|. c #C28D65",
" X c #C28B6C",
".X c #C39266",
"XX c #C89A67",
"oX c #C4936B",
"OX c #C38E72",
"+X c #C49275",
"@X c #C99A77",
"#X c #C5947C",
"$X c #CAA467",
"%X c #D2A668",
"&X c #D1B66B",
"*X c #CCA879",
"=X c #D3A978",
"-X c #D6B479",
";X c #EFBD62",
":X c #DDC459",
">X c #E1C657",
",X c #F4C55D",
"<X c #DAC566",
"1X c #DBCA78",
"2X c #F2C362",
"3X c #E7D56D",
"4X c #F2E578",
"5X c #1C5D9D",
"6X c #386795",
"7X c #3071B1",
"8X c #4B5384",
"9X c #55748B",
"0X c #6C748D",
"qX c #656B92",
"wX c #4874AC",
"eX c #287FC7",
"rX c #8B7485",
"tX c #798F8F",
"yX c #668596",
"uX c #798C94",
"iX c #568BB1",
"pX c #6289A8",
"aX c #6D98AB",
"sX c #7199AA",
"dX c #6993B0",
"fX c #73AEB6",
"gX c #4B94C7",
"hX c #50A7D9",
"jX c #6CAED0",
"kX c #4EADE7",
"lX c #8B9191",
"zX c #B59787",
"xX c #AFA788",
"cX c #8CB7B9",
"vX c #A2A1A4",
"bX c #CA9B83",
"nX c #C89C86",
"mX c #CDA386",
"MX c #D6AA88",
"NX c #D7B587",
"BX c #D0B191",
"VX c #E5BA92",
"CX c #CFBBA6",
"ZX c #B4CBB7",
"AX c #DBC387",
"SX c #EBDA86",
"DX c #EDC299",
"FX c #F4D897",
"GX c #F5EE92",
"HX c #F0CDA5",
"JX c #F6ECA3",
"KX c #FEFCB8",
"LX c #92B8C2",
"PX c #FFFFC5",
/* pixels */
"bXC.o.:.:.o.[ [ | 1.2.7.XX^.^..X8.B.C.N.XX$XW.>.1.8.E.x.S.+XXX$X$XXXR.x.Y } x.^.-X@XC.2.3.C.N.1.3.C.2.[ | 1.:.y ;.nXOX| ",
"2.[ j B k g k Z N B M N *.T.W.E.>.l.Y N d.G.f.D B S O.L O.b.l.T.I.k.k.d.G @.g.G.K.#.S D A B Z Z Z B k f v B B r { 8.[ p ",
"=.[ S S v k Z A A S A H x.R.W.W.Y.E.,.Y F.K.I.Y D F O.n n.<Xx.f.b.B.x.f.| d.g.G.U.%.J U D D A H A S c g B S Z p h Y U h ",
"1.o.N S B B Z Z S S S H f.W.E.W.R.R.T.$.I.K.g.Y m R } j.GX3Xb.z.v.v.x.g.f.g.K.K.K.$.U D G D H A S v v B B S Z i p G G h ",
"C.>.N N v k Z b b N Z S f.W.R.T.R.T.T.I.F.^.n.b n.n.n.SXGX>Xn.B.B.Z.<.f.h.g.g.K.G.$.H H D U D S Z k k B Z S S d c | I h ",
"C.:.N S B Z N N Z v b S x.W.I.K.L.K.K.g.K.3X~.<X3X:XJXKX4X~.n.Z.B.B.c.f.K.g.f.K.I.$. .H D D G v k k k B S S S p f { Y h ",
"1.o.S S b S v Z v N B S *.R.F.x.T.L.T.#.AXJX3X4Xi.4XPXGX>Xr.3X1Xz..X.XU.I.F.G.G.T.$.Y D A H S v h k B S S S Z i r I U h ",
":...S S N v N v Z N S A f.R.I.x.R.K.T.d.GXJX3X(.y.GX4X~.i.3XGX(.z..X.Xc.o.U.I.F.G.$.H S D S Z h f k N S N S S i a [ [ j ",
"2.o.A S Z S b N N S S S l.W.U.,.T.T.n.n.4XSX~.L.4X4Xe.~.4XKX4Xn.b..X.X,.} f.K.g.G.Y Z D S v f p f k D D N S N p n 2.[ f ",
"3.-.D D S Z N b Z Z D U l.W.U.$.F.h.^.:X3X:XL.GXKXe.i.4XGXSX~.h.I.*.U.&.U $.x.g.g.H B v v s s f k S S N S D Z , f o.[ g ",
"}.>.D Y H H D D D D S H l.^.T.$.l.Y.n.:X~.L.<XGXn.e.:X3X>Xi.a.j.b.I.I.g. .*.T.G.g.G g v s s z v S D D S S D G r s o.Y h ",
"=.{ I I v v c c h v k Z &.T.z.R | x.j.~.i.d.^.i.y r.i.i.E d.p.h.b.k.d.d.} s.x.g.d.b z z s s f f z z z v k v c - x { b p ",
"e % 2 3 O O o X X @ & r x P K ; = x ( (.JXFX(.(.&Xr.R R R r.r.p.P 3 K P n P P R L : 1 : - - % @ X @ O % & & + . X @ O O ",
"6.~ ! 6.` x ! ! ` =.` ) _ P _ x 3 ] D.GXKX1Xh.1XKX(.e.r.E R a.a.D.j.j.D.Z.j.h.Z.j., K 3 3 x ~ ~ ) ` ) ` ` x l ! ` ` ! ^ ",
"BXbX7.mXBX#X+XbXmXnXnX#XB.a.$XS.V.@XSXJX<Xd.6.^.JX$Xe.R R E R b.-XNXNXNX-X-XNXAX*X+.z.V.7.C.+X+X#XbXbXbX#X XC.bXnXbXOX X",
"OX-.-.OX*XS.8.8.8.8.8.C.+.a.*X*XN.M.1X<Xb.$XI.h.:XP j R e.b H U.$XW.XX%X$XXX@X=XXXO.;.C.N.N.8.:.1.V.7.7.3.1.7.8.8.7.7.=.",
"D B M } v.x.Y B N M Y @.L P $X.XG G (.r.k.&Xp.D.$XO.=.O.k.A t.]./.lXfXxXd.@.#.g.g._ +.2.o.D N k { Y M j k B N M m j d d ",
"| H N Y x.Y.U.o.D Z [ l.O.O.$XXXV ] m.y.Q.-XMXNXMX=.n c.N.W ).].vXhXjXcXM.J $.T.g.O.+.N.o.S N Y l.@.k v Z Z Z Z S S N k ",
"$.Y D H l.E.Y.Y.<.G G k.a.a.$X$XR gXgXy._.XXCXMX,.+.I z..XJ.`.%XsXkXcXNXNXI f.R.g.P n :.Y S H <.v...N Z N b S G S S S b ",
">.Y D [ <.E.T.E.Y...Z &.a.a.$XXXO.jXhXz.t.Q.U.=.s k.+.+.W.)._.U.iXhXxXDXHXs.#.R.g.L c [ G N ..v.x.} k B S S S S D S Z h ",
":.Y [  .o.E.T.x.T.x.H $.k.d.$XXXN v.ZX8Xq J.&.! Y L O.&.W.).Q $.wXgXnXVXMXNX*XI.T.L c | H [ l.E.Y.Y M v S S D A S N Z h ",
">.} o. .Y l.x.x.x.x.....d.s.W.XX} @XMXlX5 V &.0XBXR.XXAX-XQ %.E 8XiXmXDXDXDXFX&Xf.L n | Y l.Y.E.c.Y k Z k Z D S N b S h ",
"3.$...[ S +.x.g.x.x.I.$.s.a.x.b.z.HXHX=X) ~ u qXjXCXCXcXD.T %.H.S 4.B.=XHXHXFXSXK.b L | :.Y.E.Y.l.H B B k k S S v N S j ",
"7.$. .H b I x.x.T.T.W.E.s.R b.&XNXHXVX1.b ) E ^ eXhXjXdXm.0.q.H.X.%.G } +XBXNXSX$XK ) &.v.x.I.T.$.D B g k k N S S S S k ",
"8.o.H D Z v *.T.Y.W.b.-Xn.p.AXJXHX@X,.} L L U e 9 7XsXyXm.G.#.0.#.X. .K R =XHXFX&XK O.E.b.x.T.x.Y S N B k Z H Z N v v s ",
"8. .D S v Z &.T.b.-XD.&X-XfXZXGXHX*XI _ L S j j G 0 uXyXM.E V F.l.=.3.@X4.ZXJXSX$X_ z.W.Y.g.E.c.U D D D H H Y H S Z Z h ",
"{ l s a p f { k.b.BXNXg.M.cXfXxX%Xc.s.K f h h x L +.&.@.E O.=.) XXVXB..Xm.fXLXxXj.p.d.T.x.k.x.O.g k h f c v n h c v h l ",
"O   . . X O $ K K p.-XZ.j.lXiXw.d.K < - = $ * = 3 9X0X0 qXyXyXyX*XMXN.3.|.lXjXyXP K a.x.d.O.R a @ % % X X & & $ $ % # o ",
"7 5.( ! ! ! l _ s._ M.$Xp.m.lXD.Z.j.~ l 3 x ! ! 7 7 4 4 4 8 0 5.*X=X+.c.XXlXiXw.d.b.*X=X.XXXZ.' ' ' ) ` ;.6.| > : x x 1 ",
"nXBXnX#X+XN.2. X%XXXZ.Z.D.AXAXNXNX*X2.@.&.J.L.H.T u e e u u m T XX X{ 1.M.9XtXZ.$X&X-X=XoX*X*X#XbX#X XOXbXbX}.B =.bX#X2.",
"+XC.-.1.{ [ { -.b..X2.V.@X$X$XZ.%X(./.).!._._._.t.W C t m J d C Q.Q.y.L.Z.4.x.E.W.XXY.,.l.v.,.-.-.| } | | o.Y s {  X3.{ ",
"1.[ y d s f f M @.g.U S I O.~.'.,X,X[._.`.`._.`.u.V T w t m q t._._._.2X{.u.h.F.K.T.&.G &.s.G v M Z S Z B k h r s D Z s ",
"1.{ z z f z Z v ..g.&.v d.'.,X,X,X2X{.)._.].`.`.`.T m t t t W _._._._.2X{.`.{.L.x.k.{ n ,.&.b S F G H F S v f 1 s [ I h ",
" .F f k g g S Z [ G.*.R '.[.,X,X,X;X,X_.`.;X!.u.u.W q t q m u._.)._.[.2X`.{.,X/.s.+.v L k.} v G H S A S v c g i f [ Y f ",
"[ G f k Z g Z } } f.g.^.`.'.[.].[.'.'.!.!.{.J.m m V t q q A Q Q Q t.'.[.`.,X2X{./.{ b &.x.} S [ [ S F Z k k B f n | Y h ",
"2.| d k v M g { ,.*.L.2X`.).!.J.Q.Q.U.H.F.Q.Q.W t m t q q m V W t.).{.`.[.2X{.2X'.J n x.Y.[ F I [ G F v f c S f c | Y h ",
"2.{ g M v Z M Z ,.x.^.{.!.!.!.Q.Q.Q.T.F.F.F.q.J V m d r & t m m m W J._.{.,X2X{.!.V n b.U.H S H H S S Z k S S f v | Y k ",
"-.G g v M g Z g Y x.K.Q.H.W Q./.Q.J.Q.H.F.0...z r s 1 = s n i d V W W ).,X,X;X!.Q m n z.l.D Z D H D S S Z H H Z G $.Y k ",
"2. .g M v Z g g Z k.l.F.U.J X.0.*...$.F.F.k.s.O.L v > $ c | v h V T Q P.].].!.Q J J [ x.$.N D Z S D H H H [ [ g n } Y h ",
"-.{ g Z M v B Z N +.R.H.T.%.*.H.E %.#.U s.k.$.} D k i = { -.S b i t m W F.q.0.V J J 0.s.} A S A H [ [ [  .} { p r n Y k ",
"1.} Z S Z Z Z D  .{ g.Q.F.H.U.Q.H.*.#.#.&...[ H S S s p 7.7.S D b g V J.q./ J A J X.q.| )  .U H | $.o.X. . . .g ~ 1.o.k ",
"n x r p p p f c c l n H.f.K.H.K.F.@.#.F.n 3 s f r , * = n [ s p s 1 s [ F m m J X.q.U.q.=.+.S b I I c l f v n 1 l ~ z 1 ",
"e $ # # * = - 3 1 = j W 0.H.Q.F.X.J X.J r ; * - = $ o + i d > = = = x / t w C J 8.XXQ.}.;.x p p p - # o * 1 - # % & % $ ",
"S.6.` ] ' ' ' ' A.A.R T #.F.K.U.%.J J m t f ] ;.) ` 6.M.S.N.=.{ ' ( ` C t.V m 0.}.U.Q.Q.%.n ;.-.) ) ! ' ] ~ n ) ' ;.] ~ ",
"CXBX#X#X#X#X+XN.*XNXl.F.K.H.0.T.%.J A m t ) #XOXN. X#XnXnX#X3.N. X+X] q Q t.V >..XY.E.>.J v V. XN. X X#XbX+X XOXS.OXOX3.",
"mX@X X}.N.3.2.1.1.Z.z.F.H.F.U.U.q.J C m t n | o. .| | | | [ S G [ :.s t m Q Q X.q.U.U.C M S { o.[ o.-.8. XoX}.1...} | G ",
"oXv.U..X.X|.l.,.[ [ x.h.d.E 0.0.W t u e p b H [ A B Z M B k v Z N N d m V J X.%.U.|.%.H | O.G N D } <.c.v.l.o.S N B B g ",
"@X.XoXXX@X@X.X|.c.1.c.E.s.] ' ;.^ 5 5 5 L @.o.o.H H F H G S Z D S D I h J J / >.H.H.%.@.{ +.@.1.v.|..X XB.$.U H H U H v ",
" XoX@XXXoXB.B.v.v..XE.T.j.tXsXsXpXiX5X6XL  . .Y G A H F S S S H S A F b h F %.0.@.[ { 5.5.;.v.}..X|.|.|.:.H A G D U H v ",
"7.c..XoXZ.B.c.k.l.Y.Y.E.a.tXsXaXaXiX7X9 j D D U A G S S G F F S D S H S U ] 4.4.rXlXrXdXuXv.|.|. X|..X<.U S A A S H H v ",
"2.[ } N..XB.,.I [ o.>.Y.&.m.aXaXiXiXiX0 N D U D D A S S Z Z A A D S D H <..XlXdXdXsXlXsXuXz.c.B. X.X2.H D H G A G A A v ",
">.[ A H 1. Xc.[ H H [ +.] 4.w.tXuX9X9X] T H H D A G A Z k v S G H D [ <.v.F.m.pXsXsX0XwXiX` o.N.oXv.[ A D D H S A F S v ",
">.Y D A D %.|.3.[ Z H L qXkXgXqXuXpX6X) Y Y H D A D S v z g v S H [ c.v.:.$.v.lXiXgXwX8X6 ~ $. XC. .S D D D D D D S F Z ",
">.H N D D S o.v.3./ ) 0XkXkXgX7X7XiXyXj k S S S F S v f g g z v S $.>.| o.B.U.m.9X8X9 2 5X0XY.B.o.S A G G D S D A G S v ",
"1.H S S S S N o.}.x.rXhXkXeX7X5X8X8X4.U z z v S Z v f f g Z v Z Z D G | c.l.| S 8 5X8X5 wXpXA.X.S D A A S A A H G A F v ",
"1.[ S D D G S S -. XnXrXqX8 ! ) j u k I S Z v v g v z Z S S F G G Z v I n b Z D ) 5XeX0XvXgX0 S H G G H H G H H H H H v ",
"~ 3 i s s a , 1 , l ) _ 3 = ~ ~ i r , 1 1 1 , , > : > r r a a a a p , = : : r , & 9 kXZXvXkX6X= > 2 > r , r l s l x l 1 ",
"# X + % & * .     .   ; 2 ; , - % * * + . . o O + o . . o * * + * * + o o + * : = 0 hXjXrX7X6 .     + * + * r : o o X   ",
"6.M.;.;.;.=.` 6.6.6.9.9.6.A.zXnX6.7.;.;.;.6.6.6.6.=.=.l ' 7.6.6.9.7.=.;.6.7.6.7.S.S.zXvX9.6.6.A.9.9.zXzX6.V.8.p & ( =.~ ",
"BXbX+X#XOX8. XbXMXbXbXbXOXOXnXnX XC.C.C.OXbXbX#XC.}.-.M N.#XN. XOX8.8.OXOX#X+XOXOX+XOXOXOX}.OXbX@XbXbXbX XC.2.r x #X#XN."
};
