/* XPM */
static char *result[] = {
/* columns rows colors chars-per-pixel */
"60 60 256 2 ",
"   c #050202",
".  c #390B04",
"X  c #2F231B",
"o  c #3C2C26",
"O  c #4D1005",
"+  c #551802",
"@  c #661505",
"#  c #5A260A",
"$  c #452419",
"%  c #532C11",
"&  c #572818",
"*  c #713308",
"=  c #632D19",
"-  c #67341A",
";  c #6D341C",
":  c #75371B",
">  c #5A2B22",
",  c #4B3126",
"<  c #693424",
"1  c #773B24",
"2  c #6F3633",
"3  c #57413A",
"4  c #7D4224",
"5  c #72472F",
"6  c #7B462A",
"7  c #38375A",
"8  c #273269",
"9  c #45334A",
"0  c #73344A",
"q  c #4F3B69",
"w  c #214B67",
"e  c #384C72",
"r  c #524C5A",
"t  c #785548",
"y  c #6D4D53",
"u  c #4E4B75",
"i  c #684C6A",
"p  c #65626C",
"a  c #9A3508",
"s  c #8E2B16",
"d  c #883919",
"f  c #97351C",
"g  c #893C23",
"h  c #8C342C",
"j  c #963624",
"k  c #9B3B24",
"l  c #A13D25",
"z  c #975603",
"x  c #8F4714",
"c  c #9B5617",
"v  c #AB550C",
"b  c #A54C1B",
"n  c #AD7110",
"m  c #844425",
"M  c #8A4425",
"N  c #87482A",
"B  c #8C4B2C",
"V  c #934325",
"C  c #984627",
"Z  c #944D2C",
"A  c #9B4D2C",
"S  c #87552C",
"D  c #975725",
"F  c #95512D",
"G  c #9B522E",
"H  c #894D32",
"J  c #964D33",
"K  c #8A5738",
"L  c #935333",
"P  c #9C5332",
"I  c #945C34",
"U  c #9C5C34",
"Y  c #94583B",
"T  c #9C5A3A",
"R  c #A44926",
"E  c #A3462A",
"W  c #A44B2B",
"Q  c #AA4D2C",
"!  c #A45325",
"~  c #A2532E",
"^  c #AB512F",
"/  c #A2592E",
"(  c #B75C2C",
")  c #A64B30",
"_  c #A45632",
"`  c #AB5533",
"'  c #A45933",
"]  c #A95A36",
"[  c #A95639",
"{  c #A55C3A",
"}  c #A95D3A",
"|  c #B15632",
" . c #B45A32",
".. c #B95D30",
"X. c #84692F",
"o. c #9C652A",
"O. c #8A6638",
"+. c #946434",
"@. c #9B6235",
"#. c #996937",
"$. c #9D7232",
"%. c #967239",
"&. c #A36728",
"*. c #A36D2C",
"=. c #AA7526",
"-. c #A5742D",
";. c #AB742B",
":. c #AD792C",
">. c #B57927",
",. c #B67D2A",
"<. c #B87F2A",
"1. c #A86736",
"2. c #A4633C",
"3. c #AB623D",
"4. c #B96435",
"5. c #A87634",
"6. c #B57636",
"7. c #C7712D",
"8. c #C36A32",
"9. c #CA7734",
"0. c #D47C33",
"q. c #8A5C47",
"w. c #925B49",
"e. c #A35F41",
"r. c #996547",
"t. c #997447",
"y. c #916B54",
"u. c #996856",
"i. c #A46444",
"p. c #AC6442",
"a. c #AD6946",
"s. c #A6684A",
"d. c #AD6B4B",
"f. c #B16543",
"g. c #B16946",
"h. c #B26D4B",
"j. c #A77548",
"k. c #B5744C",
"l. c #A76D52",
"z. c #A97659",
"x. c #B37353",
"c. c #B3765A",
"v. c #B77658",
"b. c #B67A5C",
"n. c #B97B5C",
"m. c #967567",
"M. c #A97A64",
"N. c #B47C63",
"B. c #BA7D61",
"V. c #BD8713",
"C. c #9D9C3F",
"Z. c #BA8228",
"A. c #BA822B",
"S. c #AE833A",
"D. c #B88935",
"F. c #BB9239",
"G. c #D18900",
"H. c #C48928",
"J. c #D88638",
"K. c #CE9134",
"L. c #C69837",
"P. c #E38B37",
"I. c #E4963A",
"U. c #CAA33C",
"Y. c #D0A932",
"T. c #D2AA3B",
"R. c #F3A72C",
"E. c #EBA33B",
"W. c #AA8646",
"Q. c #B38A45",
"!. c #B99B45",
"~. c #BC845A",
"^. c #B09155",
"/. c #BAA551",
"(. c #AA876F",
"). c #BC8265",
"_. c #B88665",
"`. c #B4836C",
"'. c #BC856A",
"]. c #B98B75",
"[. c #BC957A",
"{. c #B3A373",
"}. c #C59B45",
"|. c #D39049",
" X c #E59C43",
".X c #C9A747",
"XX c #D4A946",
"oX c #D9B747",
"OX c #C5AB56",
"+X c #CDB656",
"@X c #D7BA57",
"#X c #ECA543",
"$X c #E9A644",
"%X c #F1A944",
"&X c #F2AD45",
"*X c #E4B94A",
"=X c #F4B047",
"-X c #F4B24A",
";X c #C28668",
":X c #C28B6D",
">X c #C59467",
",X c #C38D73",
"<X c #C28F79",
"1X c #C5937C",
"2X c #C89478",
"3X c #DABC66",
"4X c #CBA973",
"5X c #D8C45D",
"6X c #E9CF4F",
"7X c #E4C958",
"8X c #DBC464",
"9X c #D8CD72",
"0X c #E8D36B",
"qX c #E9D768",
"wX c #E6D776",
"eX c #F0E36E",
"rX c #F5E978",
"tX c #FBF47A",
"yX c #095390",
"uX c #335492",
"iX c #305F9F",
"pX c #0D5CA1",
"aX c #0F69B3",
"sX c #2F67A9",
"dX c #4B568D",
"fX c #726F88",
"gX c #606D9A",
"hX c #5076AC",
"jX c #1373C3",
"kX c #527EC1",
"lX c #82718C",
"zX c #6F96B0",
"xX c #0790D6",
"cX c #348ACD",
"vX c #2F9BE0",
"bX c #598AC3",
"nX c #4DA1CD",
"mX c #918A8F",
"MX c #B89684",
"NX c #9DA2A1",
"BX c #C89A83",
"VX c #D2AD8B",
"CX c #E5B790",
"ZX c #CDB3A1",
"AX c #DBCD93",
"SX c #E9D493",
"DX c #F5EF8C",
"FX c #D9C4AF",
"GX c #F6CEA5",
"HX c #FDF9A9",
"JX c #F2EAB1",
"KX c #FDFAB6",
"LX c #EEDCD3",
"PX c #FEFCC9",
"IX c #FFFED5",
"UX c #FFFDE7",
/* pixels */
"].h.h.x.x.3.3.a.x.v.c.c.h.h.c.c.x.c.n.c.c.c.h.x.b.b.T l.<X).h.4X5X#.i.' 2.3.g.n.,X).b.x.c.N.B.x.N.).c.3.d.v.s.x N.BX'.d.",
"a.G ~ G Z A _ _ ~ R ! ~ ' p.p.a.{ ~ G R E G A k ~ ' < 1 d.^.AXHX.XS F G C A C f b v / R b /./.A ~ G A Z G ~ C V x.b.U V ",
"a.' ' _ G _ ' ] ] ] ] } p.d.x.h.a.a.] } W.&.1..X+X!.X.W.+XSXSXXXz 6 k / 5.5./.OX4XAXwXwXDXDXQ.J } ' P G _ ' _ M P 3.' F ",
"k.` / ~ G ~ _ _ ' ' ] } a.h.g.p.3.} 2.+X!.Q.DXeXU..XOX9XAXFXAXwX8X/..X+X0XwXDXHXPXPXHXIXPXoXD { ` P G G ~ ] P m B 3.{ F ",
"n./ / ~ ~ ~ U / G / ' } g.h.3.] 3.E OX8XQ.LXKXF.D.9XJXPXUXIXIXKXHXDXtXrX*XU.XX@XeXtXKXJX5Xn #.} _ G G / / / _ B Y d.} F ",
"v.` ] _ _ ~ G _ _ ~ _ } g.3.1.} 3.~ 9XU.AXUXSXz !.DXDXDXrX6X6X6X@X7XeXtXtX7XL.L.7X7XoXG.&.+.G Z Z P _ { ] ] _ M L d.2.Z ",
"h.] ' / / U ~ ~ _ ~ ] } 3.3.} 1.` { F.L.SXHX.Xz 1.}.0XrXrXeX7X7XY.Y.H.D.+X+X.X$.&.n &.5.W.Q.5.c x a f W / ] _ 1 M 3.2.L ",
"h.] ' G / ' ~ ' / / / } f.3.} } ' 1.&.Q.oX6XF./.wXJXPXHXSX+XS.-.D.A.=.&.c ! &.*.*.-.D n T.eXDXAXAXOXQ.2.R ) G m B g.3.F ",
"x.] ] / / _ U / / / ] 3.g.3.} E _./.W.Q.@XCXVXrXrXwX8XL.=.*.D.!.+X^.W.Z.n n A.!.XXXX+X0XeX7XrXKXPXKXDX9X!.6.U M i.v.p.B ",
"v.] ] ] _ _ ~ ~ / ` } 3.g.3.] E 4X5X{.CXGXGXCX8XT.n z o.>.A.H.T.7XrXDXSX4X!.:.L.7XqXrXHXPXJX*XT.OX3X5X5X@X!.%.1 P d.} Z ",
"n.] 3.3.} } ] ] } ] 3.3.g.3.3.} Q.C.{.CX4X{.b.2.>.#.1.:.:.S.,.A.H.T.eXHXPXHXwX/.F.oX6XqXSXwX7XD.x x a B _ 1.I g L h.3.G ",
"d.G P P L J J B F A _ { T T T L i.X.t.{.VXZX_.D D ,.D.A.D.XX5X3X.XD.V.Y.8XwXrXrXwX+XH.V.n v z c Q./.t.j C ~ B ; Y i.F m ",
"* # O O + + O O @ * d ; % $ % + % O q.FXLXCX5.B o.Z.D.L.L.oXqXrXwXOXt.D v z =..X5X@XS.-.6.6.!..X7XeX5XW.: + O . + @ + + ",
"M.K t q.w.q.y.u.u.l.u.K = = 5 5 q.u.Y 4XVXc.F Y @.>.>.,.V.Z.A.U.7XqX8X}.:.6.=.c c Z.S.-.A.<.@XrXtXtXtXtX9X^.q.y.z.u.w.q.",
"BXn.B.,X1X,X1XBXBXBX1XN.d r.].'.>X>X(.m.zXm.k.k.k.<.H.H.$.n n ! v :..XoXF.>.D.D.,.&.o.;.<.,.H.@XeXqXeXrXtXrX8X4XBX[.,X'.",
"x.s.b.B.b.B.b._.).B.B.s.* l.>X].NXzXnXnXzX[.E.$X XP.E.(.cXiXy.A.:.o.&.:.S.:.>.,.,.,.:.-.;.,.>.n V.Z.F..XU..X.XC.(.x.z.d.",
"~ G ! ~ R ! D R ! ! / M = w.Q.mXxXxXzXNX|.R.=X=XI.P.K.sXcXzXm.>.H.D.,.;.;.5.>.<.,.<.,.:.-.*.5.*.$.*.o.D D B B D D D c V ",
"3.` ] ] { ` ] ] ] / ] N > 5.K.lXjXmXI.G.E.-X%XI.8.0.9.uX(.VX].z n >.<.A.,.:.,.<.<.>.<.<.,.>.;.*.%.O.+.U U { ' [ ] ' P G ",
"3.] } 3.3.} ] } } { ' N < }.E.i yXXXR.-X-X X9.| E ..f.7 ,XCX4X:X~.&.>.<.,.<.<.,.,.<.<.,.,.A.A.Z.=.*.+.I ' / { _ ] ] ' P ",
"3.] 3.3.1.] { _ R ] } C 1 k.E.x.(.-X-X%XE.0. .| l Q | 0 BXGX2XCX2XU ;.A.,.,.,.<.<.,.,.<.>.>.>.>.Z.L.F.-.+.' ] ' _ _ P F ",
"g.a.f.3.} @.~._.j.s.e.J S 6.|.I.I.$XP.0.P.0.0.8.Q E R s >X2X4XVXj.2.;.<.,.,.,.,.,.<.<.<.,.D.L.T.oX6X*XT.A.+.U ' _ ' / F ",
"h.g.g.3.U t._.4X2X5.b J H 9.0.v v v v v 0.8. . .| f V d i.j.2X;Xj.s.=.<.,.Z.>.,.<.,.<.<.H.L.T.XX*XT.6X6X6XF.@._ ' ~ ' F ",
"x.g.f.} L j.~.c.j.y.z.B + x q.q u i u q h s k Q A F L -.&.m 3.;X_.r.*.Z.,.,.,.A.,.,.<.:.5.>.,.<.A.A.H.L.T.XX$.U / / ~ G ",
"v.g.} _ I W.c.x I zXnXNXZXMXdXaXcXvXvXkXsXq 2 j F { @.$.>.x y r.q.r $.Z.,.Z.,.,.,.<.<.:.*.&.I O.%.o.+.-.>.L.5.U _ ' ' F ",
"k.3.{ P I z.x.~.(.aXbXZXGXZXyXdXgXhXbXaXpXyXt D { _ ] #.Z.>.q.7 8 y =.Z.Z.>.A.,.,.,.,.A.,.>.:.5.%.I G I +.;.-.@.~ _ G Z ",
"h.] [ P G +.K 5.y.yXuX`.>X;X|.6.A.H.7.k.u.i Y ] } } } #.:.<.=.o.o.>.>.>.>.Z.>.A.<.<.,.,.A.,.,.<.>.$.1.} 3.#.%.2._ / G Z ",
"Y N N 1 B Z S S I t r 5 c I.E.J.E.=XP.I.I.&.N H J Z J K $.<.<.<.Z.<.,.,.A.,.,.,.,.<.<.,.,.,.,.,.>.,.%.X.J J X.H Z F F 6 ",
"    . . O # # # % %     6.-XI.9.$X-X X X%X0.M % + O & & X.,.<.>.,.,.,.>.,.A.,.,.<.,.,.<.,.,.,.A.Z.,.>.6 @ * * % % # # . ",
"m.m.y.y.u.Y q.Y H 6 t j.E.-X|.J.$X=X%X$X&XJ.Q 6 q.r.m m K -.A.A.;.,.,.*.>.<.,.,.,.,.<.,.,.<.,.,.Z.,.Z.=.m.`.l.: 5 r.q.H ",
"VXBXBX2X;Xv._.B.v.B.].>XE.-XJ.9.%X=X%X%X=X Xb w.BXBXd.d.b.%.>.A.#.>.,.-.5.A.,.,.,.<.,.<.,.,.,.>.,.>.Z.>.W.[.~.! _.BX,Xn.",
"'.x.d.s.{ i.p.e.p.p.l.}.$XI.7.8.$X-X&X%X&X#X8.N z.z.L w.h.%.-.:.+.,.A.>.*.>.A.,.,.<.,.A.,.A.>.-.:.Z.,.,.-.2.} B d.).x.e.",
"d.C C C B A C A ~ C D I.%X9.k b J.%X-X&X&X-XJ.R Z _ M Z e.' %.-.O.$.,.<.>.*.>.A.,.,.,.,.,.,.<.>.*.>.Z.,.A.+.B m Z ] ~ B ",
"g.P Z Z Z ~ ~ ~ ~ A 1.$X%XJ.C s |  X&X&X&X-XI...k I B Z } ' U %.+.@.$.<.Z.:.*.,.<.<.,.,.,.,.,.A.:.+.:.,.,.+.B 4 J p.} F ",
"} F F G A _ G ~ ) A o. X%X0.| s s 8.#X&X%X&X%X9.j m 6 B } { / ' I ~ I $.<.Z.>.*.:.,.Z.Z.,.<.,.<.>.%.O.5.:.+.Z N L a.{ F ",
"p.G A P W P _ A ) A 3.$X X8.` j s k 0.#X&X%X-X|.Q j 4 B p.} G / G G G I %.=.Z.:.I #.:.>.<.,.<.,.<.-.{ T %.+.P V T a.2.Z ",
"d.A A G A _ A _ P G 1.I.P.| ^ E E s Q  X-X%X&X$X8.l M S 3.3.~ ' ~ G G W F I $.;.$.X.+.$.:.,.<.,.Z.-.@.A X.I _ Z T h.2.F ",
"s.P W P _ A W P _ P U K.J.| ` l ^ R s 4.$X&X%X&X0...Q 4 } ' ~ ~ ~ ~ G ~ ~ ~ U I +.+.' U #.$.>.,.<.:.I P U { ' Z ' d.3.F ",
"d.W G _ A _ P W _ P { J.9.Q ^ l | W s j 9.%X&X=XI.9.| d T } G ~ G _ ~ ~ ' / ~ ~ U ' ' ' ] U %.:.A.-.@.[ _ } } ~ p.k.} Z ",
"d.~ G W ~ ~ A _ _ { a.6...| ) E  .E f g ~ I.&X&X#X0...E I { _ U ' U ~ U G U ~ ~ } a.a.} ` ` U #.Z.-.2.} 3.a.p.Z L i.} G ",
"d.~ _ ~ ~ ~ _ _ } p.g.1...| ` | ` E k I L 7.#X-X#X9.|  .C I _ ' / / / ' ' / / } h.c.h.3.} ] ] #.-.%.a.f.f.f.p.M N p.3.F ",
"h.' ' ' _ _ ' 3.g.g.2.G ^ `  . .Q E V U @.~ P.%XJ. .Q ( Q m ' / ' ' ] ] _ ' { p.v.n.d.3.2.} ] a.%.t.h.g.f.f.3.F i.v.a.G ",
"S : d m m M M B N m N g Q  .| Q Q E f 1 1 : ( 0.....R ( ( d N M N N m B B M M T e.{ L 4 M F G I O.I H 4 M P H 1 H Y m 1 ",
"< & & = ; ; ; - = < < V E Q ` E E E j = X - f E | ^ l 0.( s ; 5 - # # # = - 4 m m = O # ; N Z B N ; O % ; 1 ; % = * - & ",
"].M.M.M.z.z.u.l.M.`.u.I E E C ^ W j f N m.m.F R  .Q ( P...j d y.z.u.u.m.l.z.`.z.Y : H u.`.N.z.x.l.r.y.M.M.i.P r.M.M.z.r.",
"BX,X2X<X1X,X'.:X2X:X_.w.l ^ Q ^ k k j C _.].r.Q ..8.P.P...k f r.:X:X1XBX,X,X1X:Xp.C N.BX2X,X;X).B.;X:X1X,Xn.h.v.'.,X;Xx.",
"s.i.g.x.v.c.v.x.h.a.2.Z l | | R Q E E C I a.2.V Q 8.8.0.8.) l k #.d.d.d.d.d.d.d.F N z.'.d.a.a.a.a.g.h.d.g.f.3.a.p.p.e.T ",
"_ b ] p.g.g.p.' ] ] F d Q | ^ |  .Q Q V F 1.i.A l Q Q ( 4.Q l l V D b b ! b / } B 4 i.g./ ! / ^ / ^ ! ! W / ' ' ! ~ ~ A ",
"p.p.h.h.d.} _ _ ' } P k E  .| Q ` | Q V i.h.h.G E E |  .| ) ) | Z T } } } } 3.3.Z 1 i.x.3.1.3.} } ] [ [ } } } 3.3.3.3.P ",
"h.g.h.p.' _ U _ _ [ L W E E E E [  .R I 2.f.p.F ^ ^ W ^ ` j ) ) F } [ ] ] [ } } B 4 s.v.} ' } _ [ [ ] _ } ] } _ } } 3.P ",
"h.a.3._ P ' U _ ` ] U Z k a a | ( h K / ' } 1.U G | Q W k k a 1 U ] ] ] ] _ ] ] A P B.B.} _ ] ] ] ] ] ] ] ] ] [ ] [ ' G ",
"d.] ' _ ' ' / ` ] ] } S 2 0 0 g 0 r L / ' } ] } I V W b a a 0 e r.] ' _ ] _ ] { L J h.x.} ` _ ] ] ] { } } ] ] ] _ ] ] G ",
"f.[ ] ] ' ` ] _ ] ] } L 5 e iXiXpXp ! ` } } ] ] { L H r 0 q iXaXq.3.3.] ] [ ] } Z 4 P 3.] ] [ } ] ] ] ] } { ` ] ] ] ] J ",
"p.] ] ] ] ] ] ] ` ] 3.L < q sXjXyXt ^ _ ' } ] ] [ [ c u uXu jXpXp 4.3.{ ` [ ] } L M i.g.] _ } } ] ] ] ] ] ] ] ] ] ] ` P ",
"} ] _ ` _ ` _ _ / ] 3.L 3 , u e w t / G P _ [ _ _ P A q.iXq uXaXdX&.p.} [ _ { ' P B i.k.} [ _ ' _ [ _ ] _ _ ] ] ] _ [ A ",
"f._ ' ' ' ' _ ] ' } 3.G 3 7 e uXyXy ! P G G P _ _ A J c u uXdXpXw #.` U _ ' ' ] H : T h.} ] } ] } ] _ ] ] ` ] [ [ } ] P ",
"p.} ' ' _ _ ' _ ' 3.3.o.r dXhXaXr S P U P P P J J J G ) Y e 9 e pXp c K Z P ' ' N < e.h.} } { } T [ { [ { { { { { } { P ",
"5 1 1 m 1 : < ; < < ; r dXhXcXe * : ; ; < - < < ; = = 1 * r e u aXuX* > & < 1 1 = + N J 1 < ; > & & ; 1 1 : M N 6 6 5 - ",
"& > ; : < & X X o $ o & fXhXdX: 5 5 ; & $ $ & = & > X $ # i iXu sXsX, & > 2 1 = & < J J 2 , , o o , 2 2 < 2 N = . + $ . ",
"[.`.`._.N.z.(.[.].].[.].`.(.[.[.`.`.`.`.`.].].`.N.N.T e.].M.sXfXhXaXy.`.`.].`.N.M.`.BXBXB.N.].MX[.BXBXBX`.<X).: 6 z.M.s.",
"BX:X,X:X).;X1XBXBXBX2X:X'.<X1X'.B.).~.).1X1X1X,XB.B.W e.<X'.fXhXgXsXj.].:X,X:X>X;X,X:X].;X;X,XBX1XBX1X]._.n.l.* r.BX1XB."
};
