/* XPM */
static char *result[] = {
/* columns rows colors chars-per-pixel */
"60 60 109 2 ",
"   c #010100",
".  c #0D0C0B",
"X  c #0D150C",
"o  c #141514",
"O  c #131A11",
"+  c #181A17",
"@  c #171719",
"#  c #1C1C1C",
"$  c #28190E",
"%  c #1F201F",
"&  c #20201F",
"*  c #2B221C",
"=  c #232323",
"-  c #282827",
";  c #2C2C2C",
":  c #352722",
">  c #30302F",
",  c #2F2F30",
"<  c #343433",
"1  c #373837",
"2  c #383937",
"3  c #393639",
"4  c #3B3B3B",
"5  c #50271A",
"6  c #442C26",
"7  c #4F2A28",
"8  c #56332C",
"9  c #59342E",
"0  c #54382F",
"q  c #563430",
"w  c #5A3632",
"e  c #5B3A33",
"r  c #5D3F3A",
"t  c #60362D",
"y  c #7C3A2A",
"u  c #3F413F",
"i  c #40403F",
"p  c #5E423A",
"a  c #6B4137",
"s  c #644239",
"d  c #403F40",
"f  c #444444",
"g  c #474947",
"h  c #484847",
"j  c #484748",
"k  c #4B4B4B",
"l  c #4F504F",
"z  c #504E50",
"x  c #545454",
"c  c #575857",
"v  c #565758",
"b  c #5A5759",
"n  c #5C5C5C",
"m  c #754940",
"M  c #5F605F",
"N  c #60605F",
"B  c #625E62",
"V  c #646464",
"C  c #676867",
"Z  c #686867",
"A  c #676768",
"S  c #6A676A",
"D  c #6C6C6C",
"F  c #6F706F",
"G  c #70706F",
"H  c #6F6F70",
"J  c #716E71",
"K  c #786F78",
"L  c #747474",
"P  c #777877",
"I  c #7A757B",
"U  c #767878",
"Y  c #7B7B7B",
"T  c #874531",
"R  c #83544C",
"E  c #8E574A",
"W  c #A55C47",
"Q  c #7F807F",
"!  c #81817F",
"~  c #7F7F80",
"^  c #827C83",
"/  c #848384",
"(  c #878887",
")  c #888887",
"_  c #878388",
"`  c #898589",
"'  c #8C8B8B",
"]  c #90918F",
"[  c #8F8F90",
"{  c #908D90",
"}  c #8F9090",
"|  c #949494",
" . c #999897",
".. c #979898",
"X. c #9C9C9B",
"o. c #A0A09F",
"O. c #A3A3A2",
"+. c #A7A8A7",
"@. c #A8A8A7",
"#. c #A7A9A8",
"$. c #ACACAA",
"%. c #B0B0AE",
"&. c #B4B4B3",
"*. c #B7B8B7",
"=. c #B7BABA",
"-. c #B8B9B8",
";. c #BFC0BF",
":. c #C8C8C7",
">. c #C9CBCA",
/* pixels */
"e X.X.R ../ ~ ~ ( _ ^ ^ ^ ^ ` ' ) ( ( _ ^ ) ^ ^ ^ ^ ' L x ' ..^ ^ ~ L L U ^ ^ ^ ^ ( _ ( ( ( ( _ ( ^ P P Y Y ^ I V O.$.Y ",
"w ' / P U D V A L L D D L L P ^ ` / L L L L L L L L L V f L ` J L A B V D D D A D I Y L L L L L L L D D D D L J n P Y D ",
"8 / ( L D D D D D D D L L L Y ( ^ I Y P L L L L L L L D n ) ..D L C V D D D D D L L I U L L L L L L D D D D D D f n P D ",
"w ..} L D D D D D D D V D Y ^ ^ P L I Y L L L L J D L D n / ' Z D C C D D D D D D L I L L L L L L D D D D D L L x D / D ",
"e ..[ L H D D D D D D D L P ^ Y L L L L L P L L L D L V f L Y D D C D D D D D D L L Y P L L L L D D D D D J L L v D ' F ",
"q ' { ~ D D D D D D D D L L Y L L L L L L L L L L L L B x ^ ( D C C D H F C H H L P Y I L L L L D D D D D D L D x n ^ F ",
"e _ ~ ~ D D D D D D D D L L Y L L L L L L J L L D L L V h J Y D D C C H L F U L L I P L L L L D V V D D D D L D j x ~ H ",
"q ` ( ~ H D D D D D D D L Y Y I L L L L L L L L L D L D k J / D D L H D D H H H L D L L L L L V n V D L D L D L n L | L ",
"q } | L L D D D D D D D L Y Y L L L L L L L L L L L L D M ` ' D H U H D D D H A D D D H H D V v n V L D H A H H x L ' H ",
"q } } L L L L G G D D J L P Y L L L L L L L L L D L L V k F Y F H H H D D A A H D D D A V v v M D D D D H A H D g n U H ",
"q [ | ~ I I I I L L L L L Y ^ Y Y ~ Y Y ~ U U L L L P D k J ( I ~ ~ G D L L U L D D H D V M V H L L L L L L U H x U ' H ",
": A A z f j k h 4 d k c n k f f k f f g v v v v n V V j ; x v 4 f k 0 4 g g g g g g j v v v v g f j h h g v v f ; f n j ",
"6 J B 3 1 4 f 4 4 k n x c f o # - , u l l u g l v n v v k j j 2 > g k f n x k f v x ; ; 0 u k l l l c x k x g 0 f l k 4 ",
"R >.&...[ O.X.o.o.%.&.o.X./ f Y } | O.$...' } } } ' ' ....+.*.+.O.$.o.O.&.#.X. .%.O.v H ' ( } O.+.+.&.$.@.O.' ..O.&.O.X.",
"m $.+.{ ..X.X.X.X. . .X.o.Y h ..$.X.o.| } } } | } ~ / R ' { +.O.O.+.| '  .| | ..+.} j _ o.| X...' ' .. .X...| X.X. .}  .",
"q ^ U H V D D V D V D H L n 4 Y / H I L D H C A H U D D D D A V V V D L D L H D D C u D ' L L D V B n V V D Z V A C V n ",
"w ' ) P L L U L U U U H U n 0 _ ..P ~ U L L P P L P L L L P I L P P U L I L L L P D x / X.Y I L D L F D D L L P L L F L ",
"w ' ( P L I L L L L L H D k g ' [ U L L L L L L L L L L L L L L L L L L L L L L I D h L { L L L D L D D D D D L L L D D ",
"e ' _ L L Y L L L L U L H v k ' / D L L L L L L L P L L L L L L L L L L P L L L I D f J Y L D D D L L D D D L L L L D D ",
"e ' _ Y P / I L H L U H U M n ' / J L K I L L P L L L L L L L L L L L L L D L L I D f L Y D L L L D D D D D I L F L D D ",
"w ( ( / ~ U H D V A F L L n k P ^ L L ~ L L L L P L L P D Z L L P L L U D D D D L L v J ^ J L L L L D D D D D L L D D D ",
"p ..] / I U D V M H D F L n h L Y L I I U L L L L L L L L L L L L L L L L L L L L L n D ^ D L L L L D D D V D D D D D L ",
"h X.| R U H A M D D H L ^ V 4 S P D L L L L L L L L L L L I P I L L L L L L L D L D h c L S G L L L D D D D D L D L L L ",
"p X...} L H V D L D I / ' V 4 Y ( V D D D D D L L L L L L L L L L L L L L L L L L n 1 b Y D D D L L L D D D D L D D D D ",
"r X.| I L D A L L P ^ ^ / V 4 L _ L ~ U H H H H L L L P K L L L L L L L L L L L L D f D Y D D D D F D L F L L P J D D D ",
"p ..' K D A J J I I ^ ^ P n < D / U U U H H H H L L G L I I L L L L L H L L F L L A i D Y D Z D L L L D H L I K L D L D ",
": l   X o + < 1 1 g i ; #     1 l = u l l u 1 1 j < < < j k h k h n b f 4 h 4 4 4 4 . c D f x j ; f f - = # 4 4 4 j h 4 ",
"5 v D C n n V k x c i 3 x c c L U A H H n l v M k k B k 4 x x c k n c h n n k k V G G ' ' D I D D G L D D P / F 3 3 b z ",
"T $.:.-.+.O.X.' ..' ( ` O.$.#.;.=.#.+.' R ..X.....X.-.| L ' ` ^ ( ^ Y I ' ' Y ' ' { o.$.O.' ..X.@.$.+.O.@.&.&. .V { %.| ",
"y O.$.' { ( L P ( P / ( ( ' } } / ~ Y H L P ( ~ '  .X.^ S ) ^ I Y P I I I I I P I I ^ L L I G Y ' ( ^ ( / Y / Y n ..+.' ",
"7 _ ) V V n N n V D C V n V V v n n M D G D V G I K D n l L L C C D F F D J D D G L P D D V V D D D D D D D C V x n J S ",
"q ` ' G V V V D H D D D F D D V A D H U L D L Y ` Y P V c P L D L L L J L L D G L D D A n V V V L L L U L F C n z D ^ J ",
"q / Y A V V S D D D D D D F L D D J L L D L L Y ! L L D h D I D D D F D D D D D D D V V n D V D L P L L L D V D c D Y L ",
"8 I ~ C V D D D D D D D D L L L D D D L L L I Y L L L V x L Y D D D D C V V D D D D D D D D D L ^ P L L D V V D n D ^ L ",
"8 [ ' D D D D D D D D D L L L D D L L L L L I Y L L L V j L P S D D D V A D D D D D D D D L L L P P L L D V D L N L ` F ",
"w ' ^ H D D D D D D D D D D D L L P Y Y L L I Y L L L n d L Y D D D D D D D D D D D D D D L L L L L D L D D D G n D ^ D ",
"8 / / D D D D D D D D D L L L L L ~ Y L L I Y I L D D l < V L D D D D D D D D D D D L D L L D D L L L L L J L L D Y ^ I ",
"w ' / H D D D D D D L L L L P L L I I L L P Y L L L D k < D ^ D D D D D D D D D D L L L L L D D L L L L L L P P V F ^ L ",
"8 ^ / D D D D D D D L P Y L L L H L L J L L L L L L D c 4 U _ S D D D C L D D D D P ( _ L L L D L L L I Y Y / I x z L L ",
"t _ ' I H D D L L Y ^ / P U L L L I ^ ^ ^ I P L L L D V n  ...D L L D L D F L D P ' ' _ P L I L L Y _ _ Q ! Y Y V L | P ",
"8 ~ ( A D A V A D L J D D S C C V D D D D D V D D A M v x / U V D D D D G D D D L / ~ U H H H H L Y Y L J L K F n D ' D ",
"$ < ;   = = , ; 4 # o - - = - .   .           = g =   .   h v 4 > - - = > 1 ; 4 j x l u X , g v c x 4     4 x j - = ; - ",
"r #...L U U ~ ~ S L ( / U H j D / L L L L L L / ~ U R } ' X.{ Y L L V V D L D ( ) D 0 = D ~ / U Y D D V Y L B n B L Y P ",
"E >.;.%.#.#.#.%...X.$.o.@.| M X.$.O.$.O.O.$.O.+.o.o.+.$.&.&.O.[ ..X.X.O.&.$.+.%.$.{ v ( &.&.#...X... .O.&.+.{ _ | O.O.O.",
"a | } / / / ( .._ ( ( P / D 4 I ' P ) Y L U L U ~ ~ U U Y Y L D L P ^ ! _ / Y Y / L h _ ..~ ~ ~ Y ! Y ( Y ( ^ Y Y P P P ",
"q _ ~ H L Y / R Y L L L L n 4 / ' L I L A B D U ~ H H H D H D D L D D D D H D G Y C d H / H F F L L L D D D L L L D D L ",
"s ../ Y ^ _ ^ I D D J L I V h } ..P Y I L U ^ ` ~ L U L L F D F L L L P L U L L Y H d L ( U L L P L L L L P L L L L L U ",
"s X.} ~ ^ P D D D D L L L n 4 D Y L U H L I Y ~ I L L L L L H L L L L L L L L L U C u L ' L L U L L L L L L L L L L L L ",
"s X.| ~ U F D D D L L L L V > n J V D V D D L L L L L L L L L L L P L L L P L L L L n /  .L L L L L L L L L L L L U L L ",
"p X.| Y L D D D D L L L L n < G ^ D D V D L L L U L L L L L F L L L L L L L L L L D n '  .L L L L U U L L L L L L L L L ",
"p  ./ P L L L L D L L L L V k _ ..L L D L L L L L L L H D C C H L L L L L L L L L D f N P L L L L L L L L L I L L L L L ",
"p ../ P L L L L D L L L P n f ^ ' G L L D L L L L L L L D V V F L L Y Y L L L L L D k D / L L L L L L L L L L L L L L L ",
"r ..( P L L D L L L L G Y c ; D Y D D L D Z L L L L L D V V A D D L P Y P L L L L L c Y ' L L L L L L L L L L L L L L L ",
"r ..~ L D L D F D D L G I n 2 L Y D D V A V V V H L D V V V H A D D H D L L F D G D f n _ L L L L L L L L L L L L L L L ",
"s X.{ P F L L L L L L Y ^ V k | | D J D D D D D D C C C L U H U L L L D D D D D L D 4 V ' I I Y P I L P P L P P L I ~ P ",
"q ( L B V D n n c n n n n g 1 D L k b c x c c c n v k x v v M M n B n x h h n n n c 1 N L n b b c l k c n n n V B B B n ",
"* 4   # < 4 1 o               2 2 - , , =       = ; & + % @ , ; # ; < - @ @ @ < < % = k x ; X         o < . ; k < + O & ",
"y } O.} ' ' ' Y ' ..' '  .' ..@.+.| | | ' ' ' ..| ! ..R n ( ..} |  .| ' ' ' ..../ / | +.$. .( ..O.| O.+.+.{ &. .k k ( Y ",
"W =.&.+.@.o.X.X.$.-.*.-.&.X.o.$.@.....| ..o.+.$.#.X.O.' V ..#.} o.o.X.X.X.o.o.X.X.X.X.X.O.X.X.O.$.$.$.$.O.' ..( u / &.+.",
"9 P L V M n n n n M N V n n n n n n b n n n n n M M M v 4 D U v n n n n n n n n n n V V V S V n n n n n z h g j & k P V "
};
