/* XPM */
static char *bb10a8b99cf44db5f42bd94d51aa51a8akW15iURWA3SamzH[] = {
/* columns rows colors chars-per-pixel */
"64 64 225 2 ",
"   c None",
".  c #030202",
"X  c #0A0602",
"o  c #0D0903",
"O  c #02070A",
"+  c #03090D",
"@  c #0A0B0B",
"#  c #130C03",
"$  c #1A0E04",
"%  c #120F0B",
"&  c #180907",
"*  c #0F100E",
"=  c #1C1105",
"-  c #14120D",
";  c #1C130C",
":  c #171006",
">  c #030D13",
",  c #090E12",
"<  c #030F18",
"1  c #071015",
"2  c #04111C",
"3  c #0B151B",
"4  c #0C1214",
"5  c #131414",
"6  c #181819",
"7  c #220E04",
"8  c #28090B",
"9  c #340A0F",
"0  c #231305",
"q  c #2B1607",
"w  c #2C1907",
"e  c #24140B",
"r  c #2B150A",
"t  c #2F190A",
"y  c #34150A",
"u  c #331A09",
"i  c #3B1C09",
"p  c #331609",
"a  c #251311",
"s  c #251A12",
"d  c #261B1A",
"f  c #3A1115",
"g  c #310916",
"h  c #3F210C",
"j  c #3A250C",
"k  c #2E2119",
"l  c #392111",
"z  c #382418",
"x  c #051623",
"c  c #051826",
"v  c #0B1926",
"b  c #061B2B",
"n  c #0C1C2C",
"m  c #0A1621",
"M  c #1B1D23",
"N  c #131E2B",
"B  c #061E32",
"V  c #0D1F36",
"C  c #3D1F3B",
"Z  c #19212C",
"A  c #072035",
"S  c #0A2235",
"D  c #07233A",
"F  c #09253D",
"G  c #0A293D",
"H  c #19293D",
"J  c #0E212D",
"K  c #272828",
"L  c #233538",
"P  c #2E283C",
"I  c #431E0A",
"U  c #481B0D",
"Y  c #4A0A17",
"T  c #540D1A",
"R  c #4A1414",
"E  c #561618",
"W  c #511308",
"Q  c #6E1D1B",
"!  c #46210B",
"~  c #4B230C",
"^  c #4C2D0D",
"/  c #53240C",
"(  c #532B0E",
")  c #5B2E0E",
"_  c #452814",
"`  c #542B11",
"'  c #48321E",
"]  c #593316",
"[  c #46310D",
"{  c #652A0F",
"}  c #632811",
"|  c #643414",
" . c #7B2E12",
".. c #5A1227",
"X. c #4A192F",
"o. c #670D22",
"O. c #6B1323",
"+. c #761524",
"@. c #4F3529",
"#. c #62283B",
"$. c #67461A",
"%. c #7D4B15",
"&. c #795316",
"*. c #614326",
"=. c #75552C",
"-. c #082641",
";. c #092A43",
":. c #0A2D4B",
">. c #072741",
",. c #0C314D",
"<. c #153349",
"1. c #0B2F51",
"2. c #0B3353",
"3. c #0B365A",
"4. c #0D3B5C",
"5. c #0E3955",
"6. c #113B5C",
"7. c #133754",
"8. c #112A46",
"9. c #263B49",
"0. c #2B3B53",
"q. c #0D3E63",
"w. c #0E3E6A",
"e. c #113B63",
"r. c #123B68",
"t. c #083E72",
"y. c #751F40",
"u. c #4E264A",
"i. c #7E3B48",
"p. c #12435F",
"a. c #234357",
"s. c #0E4166",
"d. c #0F446B",
"f. c #10456B",
"g. c #134A6E",
"h. c #144666",
"j. c #1B536D",
"k. c #084774",
"l. c #114B73",
"z. c #114D78",
"x. c #1A5777",
"c. c #265E79",
"v. c #355F76",
"b. c #244F68",
"n. c #1E607C",
"m. c #24617B",
"M. c #3D606A",
"N. c #455454",
"B. c #464B5F",
"V. c #6C5453",
"C. c #704971",
"Z. c #830E2E",
"A. c #8A172C",
"S. c #8D1431",
"D. c #981939",
"F. c #A7183C",
"G. c #96202C",
"H. c #C0313E",
"J. c #895419",
"K. c #A85119",
"L. c #845B24",
"P. c #AB4532",
"I. c #A41E45",
"U. c #BA1A43",
"Y. c #9F2344",
"T. c #B4224D",
"R. c #BA2952",
"E. c #AB284E",
"W. c #C71C49",
"Q. c #D21F4F",
"!. c #CD2654",
"~. c #DA295A",
"^. c #DC3F5E",
"/. c #E1295E",
"(. c #CC3561",
"). c #EC356C",
"_. c #E3376A",
"`. c #EB366B",
"'. c #AE415D",
"]. c #9B526A",
"[. c #BC4866",
"{. c #936572",
"}. c #DB4475",
"|. c #C94C6F",
" X c #EA4576",
".X c #EA4D7C",
"XX c #085D8C",
"oX c #145684",
"OX c #125B90",
"+X c #1B638B",
"@X c #186899",
"#X c #2C6E92",
"$X c #247BA9",
"%X c #D45983",
"&X c #F34A82",
"*X c #EB5487",
"=X c #F35187",
"-X c #F55991",
";X c #CC6C85",
":X c #F5679A",
">X c #E97A9B",
",X c #EB6591",
"<X c #F373A5",
"1X c #F67CAC",
"2X c #D6859A",
"3X c #DE9EAF",
"4X c #F58BB9",
"5X c #F694BA",
"6X c #F688AD",
"7X c #E4A6BA",
"8X c #F69CC5",
"9X c #F7A6C7",
"0X c #F6B7CD",
"qX c #F7B7D5",
"wX c #E7ACC0",
"eX c #F6C6DE",
"rX c #F6C4D5",
"tX c #F1CBD5",
"yX c #F8DDE9",
"uX c #F6D8E4",
"iX c #F8E5ED",
"pX c #F8ECF1",
"aX c #F8F3F5",
"sX c #F8F9F9",
"dX c #F7F3F4",
/* pixels */
"                                                                                                                                ",
"                                                                                                                                ",
"                                                                                                                                ",
"                                                                                                                                ",
"                                                ,.h.$X#Xx.v.                                                                    ",
"                                            L -.:.x.$X+X;.x >.                                                                  ",
"                                            n > x ,.x.5.c + + b                                                                 ",
"                                          6 ; $ d 0.v.a.J x x 5.#X                                                              ",
"                                          r = 7 w u j t ; > 2 5.j.M.                                                            ",
"                                        6 # q q # . @ = = = X O 1 B N.                                                          ",
"                                        2 o q ( ' n S 5 u ) j = $ 5 v N.                                                        ",
"                                        1 # I u u ' z ; o j ) %.&.) _ L                                                         ",
"                                      <.b e ~ 0 7 ^ J.j . . # = 0 = 6 N 0.                                                      ",
"                                          3 : $ u ` ( w . . . + 2 4 v V S b.                                                    ",
"                                        H v @ # # $ w $ . > v n v 3 3 A 2.f.s.3.#X                                              ",
"                                        8.b . o $ q h M x 1 x 3 > o X , v :.4.d.l.s.@X                                          ",
"                                      ,.:.B O X o : 0 5 5 q 0 e e = : # o O > A 3.q.f.l.                                        ",
"                                  6.:.F b 3 # X X # # = q w q 0 q w # X # X X @ < D 2.w.z.                                      ",
"                                :.-.A c > X o . X : = h I u 0 0 i I $ X = = $ . . < V 3.g.OX                                    ",
"                              1.:.B x + o # . X o = = ! / ! h / { ) = X = w = o . O m -.3.f.                                    ",
"                              1.;.A 2 @ o o # p ! ! ( %.%.) ( ` ) ^ $ . # r f R T ....C 7.t.oX                                  ",
"                              1.G c , % X X = u h ^ ^ $.$._ $ $ : . X X & Y Z.R.%X>X*XT.u.7.r.                                  ",
"                            q.-.A > . # X 1 <.j.m.m.m.m.n.x.;.6 $ . # 9 o.Y.;XwXeXqX6X_.U.u.s.d.                                ",
"                            2.-.b 1 X o X > G 9.V.V.a.<.a.h.S a y 8 T D.[.3XuXyX9X<X.X~.S.9.2.3.                                ",
"                            1.-.b 3 o X . O 3 E K.K.w W } d X Y S.I.(.>XtXyXqX4X-X).!.S.g v >.3.s.                              ",
"                            :.F c 1 # . . + 3 a { A.w K @.U Y I. X<X0XyXuX8X:X X~.U.O.7 . 2 D 3.d.                              ",
"                            :.b + X # . . O 3 ; u ! j B.C.T.~.,X5XiXyX0X1X=X).Q.F.E q o . > b >.2.k.                            ",
"                            :.c + X X . . + m e ! { Q D.!..X6XrXpXeX5X:X).~.U.S.E y = # . . < -.1.w.                            ",
"                          r.:.c + . X . . . > e E A.W._.:X0XiXuX9X<X&X/.Q.D.+.Y = q = # . . < D >.q.XX                          ",
"                          e.-.x + o # . . 2 8.X.A.R..X5XuXdXiX9X-X).~.F.Z.Y 8 0 = 0 0 : o . > b -.q.XX                          ",
"                        t.:.D x + X o . # f y.E.|.>X0XpXdXyX5X=X/.W.D.o.8 X $ q = q 0 : # X . > D q.oX                          ",
"                        w.:.D b > . . X Y D.|.wXuXiXdXpXeX5X*X^.H.G.Q U r X $ 0 = 0 0 = = . . O A q.z.                          ",
"                        w.-.b b x > . $ i.2XtXaXsXsXdX0X<X}.!.P.J.{ i = X . $ 0 : = = 0 = X . O b 2.q.                          ",
"                        q.F 2 + x c , 5 {.0XsXsXsXiX0X,X(.F.o.f $ $ $ o . . $ 0 # : 0 0 : X . . > B 2.oX                        ",
"                        6.F 2 O 2 F ;.m X.].7XuXrX>X}.U.Z.E 7 o & e 6 , . . $ $ . # 0 0 = # X . . x 2.f.                        ",
"                        4.F 3 : o 6 K 5 @ d #.].'.F.D.+.R t = X , M n 2 . . $ $ X o 0 w 0 = o . . x 2.f.                        ",
"                        2.F M u p i I ! q # . & 8 9 R { ) i $ X > B b > . $ 7 # . # 0 w q = o . . b 2.f.                        ",
"                        ;.A 1 ; ! ! 7 i i $ o . . . o i I 0 o . + b b < X 0 0 o . # 0 w q = o . . x 2.d.                        ",
"                      3.A 1 O # q 0 X # # # O 2 < O X o & . . O < B b > X 0 = # . # 0 q q = o . . x 1.d.                        ",
"                      :.S + . $ q $ . # X . O x v , $ 7 # . O < B >.D < X 0 0 o . # 0 w w 0 # X . x 1.s.                        ",
"                      :.B > . = 0 = o # X . . x x > . 0 7 . > x -.1.D x . 0 0 o . # 0 u i q = # . > G d.                        ",
"                    e.-.b > . # q 0 # o . O > 2 > + # e 0 . > x ;.q.;.< X 0 = # . # 0 t i u 0 # . > G h.                        ",
"                    :.-.b + . $ = q # . . > A c + X $ 0 # . > x >.q.:.< X 0 0 o . # = u i w 0 # O . B s.                        ",
"                    1.-.b > . # = = = @ > > > 2 + o p $ . . > b 4.+Xs.b X 0 0 o . # 0 u i i q $ X . B d.                        ",
"                  f.1.-.b > . . # 0 e v D D 1 * o # q $ . O 2 v G g.p.b O 0 = # . # = j i i u 0 O 2 ,.d.                        ",
"                  w.1.D b > . . o = 0 X O 2 c 5 = 0 0 o . . 3 S p.n.p.b X 0 0 o . # 0 t i ! i 0 X c 2.f.                        ",
"                  r.1.D b + . . # = 0 X . X : = q p # . . + B v X - @ . X = 0 o . # = u i I i q X x 2.f.                        ",
"                  3.1.D b > . . o 0 r 0 7 0 $ = 0 0 . . . . 3 @ o = X o 0 q = # . # 0 t i ! u 0 X x 2.f.                        ",
"                  :.F b < . . . o 0 w u q # . # # # . . . . # 0 ^ &.^ 7 $ q 0 o . # 0 u i I i q X 2 :.d.                        ",
"                e.:.A x O . . . # 0 w u # . . # 0 = . . . X $ $ w [ w o X 0 = # # = 0 w I ~ I 0 @ 2 ,.d.                        ",
"                7.:.D x . . . . o = q q $ . . o $ ; 5 O . . 7 # . # . . X 0 0 = = 0 w i U / I q . 1 ;.f.                        ",
"                :.:.B 2 O . . . # 0 w i $ X X # # # t # . X t e O o . . X 0 0 = w u i U / / i 0 X 1 G d.                        ",
"              ,.:.-.x O . . . . o 0 w i q o * @ . & i & . X i d 3 . . . X 7 p u i I ~ / / I u 0 X > G l.                        ",
"              :.-.B < . . . . X = q p 0 X O 2 + . $ ~ s O X 7 d d . . . o # q i i ! ~ / / i 0 # O > ;.f.                        ",
"            ,.-.B b < . . . . # q q # . O > + . . $ / k , . . y I o . . o X $ q p p p i ! 0 # # . > G g.                        ",
"            :.b b x > . . . X = u 0 + 1 c b x 2 O o u l a . X i / @ > , @ O X o # o o $ 0 = # # . 1 ;.l.                        ",
"              F A B 2 + # # = q $ 6 <.c.b.7.F v > . # ( ( 7 . ! ] H j.j.,.S 2 O o # X X o # # X . > G g.                        ",
"                    J 3 - ; ; % : t ' =.*.z * % X . X ( |     ( ] k k K k 6 v c @ - - % # # # # - *                             ",
"                                k l ] L.*._ l h       {         ^ 0 i | J.( K L Z Z Z M 5 - - 5                                 ",
"                                                                    ^ *.=.@.                                                    ",
"                                                                                                                                ",
"                                                                                                                                ",
"                                                                                                                                ",
"                                                                                                                                "
};
