/* XPM */
static char *db578a3ab5a54776a458b660a05f0c106nnO3YKsk0Xh2Q6Y[] = {
/* columns rows colors chars-per-pixel */
"64 64 256 2 ",
"   c black",
".  c #010101",
"X  c #020202",
"o  c gray1",
"O  c #040404",
"+  c gray2",
"@  c #060606",
"#  c #070707",
"$  c gray3",
"%  c #090909",
"&  c gray4",
"*  c #0B0B0B",
"=  c #0C0C0C",
"-  c gray5",
";  c #0E0E0E",
":  c gray6",
">  c #101010",
",  c #111111",
"<  c gray7",
"1  c #131313",
"2  c gray8",
"3  c #151515",
"4  c #161616",
"5  c gray9",
"6  c #181818",
"7  c #191919",
"8  c gray10",
"9  c #1B1B1B",
"0  c gray11",
"q  c #1D1D1D",
"w  c #1E1E1E",
"e  c gray12",
"r  c #202020",
"t  c gray13",
"y  c #222222",
"u  c #232323",
"i  c gray14",
"p  c #252525",
"a  c gray15",
"s  c #272727",
"d  c #282828",
"f  c gray16",
"g  c #2A2A2A",
"h  c gray17",
"j  c #2C2C2C",
"k  c #2D2D2D",
"l  c gray18",
"z  c #2F2F2F",
"x  c gray19",
"c  c #313131",
"v  c #323232",
"b  c gray20",
"n  c #343434",
"m  c #353535",
"M  c gray21",
"N  c #373737",
"B  c gray22",
"V  c #393939",
"C  c #3A3A3A",
"Z  c gray23",
"A  c #3C3C3C",
"S  c gray24",
"D  c #3E3E3E",
"F  c #3F3F3F",
"G  c gray25",
"H  c #414141",
"J  c gray26",
"K  c #434343",
"L  c #444444",
"P  c gray27",
"I  c #464646",
"U  c gray28",
"Y  c #484848",
"T  c #494949",
"R  c gray29",
"E  c #4B4B4B",
"W  c #4C4C4C",
"Q  c gray30",
"!  c #4E4E4E",
"~  c gray31",
"^  c #505050",
"/  c #515151",
"(  c gray32",
")  c #535353",
"_  c gray33",
"`  c #555555",
"'  c #565656",
"]  c gray34",
"[  c #585858",
"{  c gray35",
"}  c #5A5A5A",
"|  c #5B5B5B",
" . c gray36",
".. c #5D5D5D",
"X. c gray37",
"o. c #5F5F5F",
"O. c #606060",
"+. c gray38",
"@. c #626262",
"#. c gray39",
"$. c #646464",
"%. c #656565",
"&. c gray40",
"*. c #676767",
"=. c #686868",
"-. c DimGray",
";. c #6A6A6A",
":. c gray42",
">. c #6C6C6C",
",. c #6D6D6D",
"<. c gray43",
"1. c #6F6F6F",
"2. c gray44",
"3. c #717171",
"4. c #727272",
"5. c gray45",
"6. c #747474",
"7. c gray46",
"8. c #767676",
"9. c #777777",
"0. c gray47",
"q. c #797979",
"w. c gray48",
"e. c #7B7B7B",
"r. c #7C7C7C",
"t. c gray49",
"y. c #7E7E7E",
"u. c gray50",
"i. c #808080",
"p. c #818181",
"a. c gray51",
"s. c #838383",
"d. c #848484",
"f. c gray52",
"g. c #868686",
"h. c gray53",
"j. c #888888",
"k. c #898989",
"l. c gray54",
"z. c #8B8B8B",
"x. c gray55",
"c. c #8D8D8D",
"v. c #8E8E8E",
"b. c gray56",
"n. c #909090",
"m. c gray57",
"M. c #929292",
"N. c #939393",
"B. c gray58",
"V. c #959595",
"C. c gray59",
"Z. c #979797",
"A. c #989898",
"S. c gray60",
"D. c #9A9A9A",
"F. c #9B9B9B",
"G. c gray61",
"H. c #9D9D9D",
"J. c gray62",
"K. c #9F9F9F",
"L. c #A0A0A0",
"P. c gray63",
"I. c #A2A2A2",
"U. c gray64",
"Y. c #A4A4A4",
"T. c #A5A5A5",
"R. c gray65",
"E. c #A7A7A7",
"W. c gray66",
"Q. c #A9A9A9",
"!. c #AAAAAA",
"~. c gray67",
"^. c #ACACAC",
"/. c gray68",
"(. c #AEAEAE",
"). c #AFAFAF",
"_. c gray69",
"`. c #B1B1B1",
"'. c #B2B2B2",
"]. c gray70",
"[. c #B4B4B4",
"{. c gray71",
"}. c #B6B6B6",
"|. c #B7B7B7",
" X c gray72",
".X c #B9B9B9",
"XX c gray73",
"oX c #BBBBBB",
"OX c #BCBCBC",
"+X c gray74",
"@X c gray",
"#X c gray75",
"$X c #C0C0C0",
"%X c #C1C1C1",
"&X c gray76",
"*X c #C3C3C3",
"=X c gray77",
"-X c #C5C5C5",
";X c #C6C6C6",
":X c gray78",
">X c #C8C8C8",
",X c gray79",
"<X c #CACACA",
"1X c #CBCBCB",
"2X c gray80",
"3X c #CDCDCD",
"4X c #CECECE",
"5X c gray81",
"6X c #D0D0D0",
"7X c gray82",
"8X c #D2D2D2",
"9X c LightGray",
"0X c gray83",
"qX c #D5D5D5",
"wX c gray84",
"eX c #D7D7D7",
"rX c #D8D8D8",
"tX c gray85",
"yX c #DADADA",
"uX c gray86",
"iX c gainsboro",
"pX c #DDDDDD",
"aX c gray87",
"sX c #DFDFDF",
"dX c gray88",
"fX c #E1E1E1",
"gX c #E2E2E2",
"hX c gray89",
"jX c #E4E4E4",
"kX c gray90",
"lX c #E6E6E6",
"zX c #E7E7E7",
"xX c gray91",
"cX c #E9E9E9",
"vX c #EAEAEA",
"bX c gray92",
"nX c #ECECEC",
"mX c gray93",
"MX c #EEEEEE",
"NX c #EFEFEF",
"BX c gray94",
"VX c #F1F1F1",
"CX c gray95",
"ZX c #F3F3F3",
"AX c #F4F4F4",
"SX c gray96",
"DX c #F6F6F6",
"FX c gray97",
"GX c #F8F8F8",
"HX c #F9F9F9",
"JX c gray98",
"KX c #FBFBFB",
"LX c gray99",
"PX c #FDFDFD",
"IX c #FEFEFE",
"UX c white",
/* pixels */
"E D P L F J D F S P J L G F K H H H H K L L J H H H H J K J G D H H H H H J K L K J H G F G H J H L V U J I K J A F G F G J F Z ",
"D x N m x n x v g x b x b z N n b v b n m M n v b b b n m m b c b b b b n n m m n b v c c v b n B V l B x b j h b b c c m B b h ",
"K m Z B b B m N M M J n F N J D H G G H K K J G G G H J L L K H J J J J J K K K J J H G G H J J H J C F N F M m Z B n m Z D N k ",
"H v B m x m v m k f Z t x p z f a a p a d d s a p p a d g h g d d d d f f f d d f f d s s d f g f h f j s B k l N m v v M B v f ",
"D z m c k v z v V v U s m l b z x z l l x c x z l l z c n n b v x c v v v c x x b b v c v b n m z x v x k P N C v b b c c v l d ",
"H v B m x m v m m z L a z v c c m b v v n m m n b b n M B V N M n m M N M m n b N M M m M N V C v b N k d K c b M V V N M M b z ",
"A l m b l v l x M v P j k A v N c z k l z x c x l l z c b b v x z x c v c x l k x z z z z c v b N N S z f Y v n b n b v b m c g ",
"G b C V n N b m m v J j s S k n n v x x v b n b c c c b m m n v c v b n n v x z x x z z x c b n c c C g a T b M V N b n V A m j ",
"V c n B l c v M D l v W z 9 A M c x k j l c m B v c c b n m n b M m n b v c c x b b v c c v b n N A 0 x Q n z G Z m c n x F l z ",
"I c l v n V v j l B c j ~ V = A N m b x l k k k x x x v n m m n b b b b v v v v h j z v n M N N A = C ^ k b C x g b A S k v y s ",
"J n F S D L P Y v v H g k ~ C 9 b b n n b b v c z z z x v v c x z x x x c c c c v n M N N m b c 8 V ! j g H v v K H F F B I m n ",
"Z j Z f u u y s Q l j K j l / x z z c b n M N N C V B V V V N M B B B B V V V V V V V B m v z k k ! j f H g j E v h u i p C g s ",
"/ b H h n V z f x / l j K j l Q d s p i u i p p s a a s f f d s d d d d s s s s a a a a a s d d E j h J g k / z a x N B x F c v ",
"F i G p n S V C 9 C ~ k g H v v J H D A A A S D N N B C S F F D A A A Z Z C C C D D S D F G J L b b J j l ^ A q l c c x j H c l ",
"L k ^ d j l j n A = V ~ j c B l b b n m m M M N N N B C A D S A C C C C Z Z Z Z B B B N M m m n z V v l / Z ; D D M g s j Y N l ",
"R s I e v V z k M A 9 z W v l D z x v b b v z l b v c c v c z l l z z x c v b b c v n m n b x z A k c E l 9 A M h b m v k H v l ",
"K n G f c M z v n x z l d K N k V k c m l n C z V M b x x v n M C B m b v n M N x C n z M b x S l M G s z v c b x b c x j J c j ",
"K n G f c M z v c c b c a D M c k S x f C n g Z c x x z x c b n v v c c x c c c C f n Z h b F x x m D a x b c v x b c x k J c j ",
"K n G f c M z v k c N b i V n m c x n n l x M N v b b n n n b b x c v b b b v c n n z z M N v b v n A a v n c c c b v x k J c k ",
"K n G f c M z v k x M n i B b m m f n V g x D b N N M m n v c c c v b n n n n b l C z h Z M g M b b C a b m c x c b v x k J v k ",
"K n G f c M z v c l c v a C b b l V k f C N k C M m b x z z z z v c c c c v b n M g M Z h z C l n b V a n n x c c n v c k K v k ",
"K n G f c M z v b k l c d A v c n b l l m N b m n b c x c v n m m n b b b n m M b v N M z z n n n v C d n v z b v n b c l K v l ",
"K n G f c M z v b j l c d Z c c V d b C f c D z b b n n m m M M M N N N N N M m x F b h Z n f C b v A f b x l m v n b c l K b l ",
"K n G f c M z v v j z b s V c b l V b l m c k C x v b n n v x l c b m N M n c z S x b M z n C x v v S g b l l M v m b c l K b l ",
"K c L p m v v v x z z M a B V l b z l b C A m k B N m n b b b b v b n M N B V V b N M M M z l V k M A p D x M n b c v v f G b h ",
"H x K i n c c c c z z M a B V l m b x x b m M M M M n b v v c c b b m M N N B B b N m m N c z B v V S u Z l m n b c v v f G b h ",
"H z K i b x x c c z z M a B V z v n m v x c m C n n n b v c x x n n m M M M M m n N b b N b x M M Z D y V j b b b c v v f G b h ",
"H x K i n c x c c z z N s V C z l v N N n v b m b b n n b v x z m m m m m n n b n N v v B M c m m Z D u C j b v b c v v f G b h ",
"J c L p m v c v c x x N s V C z v v b m m m b v b n n m n b v c m m m m n b v v b N b c N N v m x B D p S l n v b c v v f G b h ",
"K c P a m v v b v x x N s V C x C m z l c m M m b n n n n b b v n m m n n b c c c N n c M M b M l N S p D z m v b c v v f G b h ",
"J c L p n c c v v x x N d C Z x C m z l c n m m b b v v v v v v n n n n b v c c l B N c n m b N x B S i A l m n b c v v f G b h ",
"H z K i b x x c v x x B d C Z x n n b n n n b v v v c x x x c v b b n b b v c c k B B v b n n B b C S y C k m m b c v v f G b h ",
"L v P a m c c c v x x N d C Z x m v x v m N b x b v x c v b b b b b b v v c c c j M n l c n n V v S H u Z x M c b m v x h G x h ",
"L v P a m c c c c z z M s V C z b v c v n m b x b c x c v b b v b b b v v c c c k M b z b m b M c Z F y C l m c b m v x h G x h ",
"K v P p m v c v z l l M a V C z c c v v v v c c b c x x v b b v b b b v v v v v x m v z m M v b x V S t V k b x b m v x h G x h ",
"K c L p m v c v x l z M s C Z x z c b v c x c c v c x x v b b v b b b b b v v v v m c x N M x c x B S y C k b v b m v x h G x h ",
"J c L p m v v b v x c B f Z A c z c b v c x c c v c z x c v v v b b b b b b b b b m c c B m z c c B A u A k n n b m v x h G x h ",
"J c L p m v v b n v v V f Z A c c c v v v v c c v x z z c v v c b b b b b n n n b m c c N b z b c N A i S k n m b m v x h G x h ",
"H x L p m b v b n b v V d C C z b v c v n m b x c x z z c v v c v b b b n n n m v n c v M c z N x m C i A j v m b m v x h G x h ",
"H x L p m b b n n v v B s B V k m v x v m N b x c x z z x v c c v b b b n n m m v n v v n z z C z n B u Z g c n b m v x h G x h ",
"H c D s z m z v m z c m f C v b l C m x N v l V z x c v v x z k n x l x n M b x C k z n l m Z z x b D g v x z n c z x x d F b g ",
"H c D s z m z v m l z v d Z c c V f m Z h v S k v v b b n m M N m n n m M N N M l S z f Z m g C c b S f b v z b c z x x d F b g ",
"H c D s z m z v b k l c s Z c z n n z z M M c c b v c x c b M N x b m m b b m N v c m m x c m n v b A s b n x c c z x x d F b g ",
"H c D s z m z v x l c v a C v v l C l g C m g m n b v c x c c v z x c v v b n m M f m Z j c A l v n Z a n M c z c z x x d F b g ",
"H c D s z m z v l x M n p V n M m g m C g l C l n n m m m n b v n v x v m N m b z C l g A B h m v n A p b N v l c z x x d F b g ",
"H c D s z m z v k c N n p C m M c c M M z z n n l x v n m m n b n x k z n M b z n b l z N N v c x m D p c M v z c z x x d F b g ",
"H c D s z m z v z z v x a D M c k S v h Z m f V z z x c v b b b v x z z c c x l C d v V g v D l l M G a x n v x c z x x d F b g ",
"H c D s z m z v c l k j s J M j V l v N x m C l B N m n n n m M n m M m b c v b x V v k m v l C j N J a z b v c c z x x d F b g ",
"K x F p z C l v B M w n P l b S h z v b c z x c x c v v b b v v x x x z z l l l c l k x n n x j J l x E v r D n h M x M a L k l ",
"S n Y h f k f M M 3 m P n b l v n b b b n m M M C C Z Z A A Z Z A A Z Z C C C C b b b b n m M M z V c j ^ C = A N M f b l ! x s ",
"N f N p c V m V q M R h d J b k I H A C A S Z V V V C Z Z Z Z C A A Z Z Z Z Z C A S S A Z A G K x v J h h W V 0 j v l b f J l k ",
"E N C d n n j s b I j x Z g m L f a i u i i u y i p a a s s a a a a a a a a a a p p p i i i a s E k h J g j ^ z s x b n f A z b ",
"N z M p a w t p K n g A x j P b h l v b n n M B m M M N N N N N N N N N N N N N M n v b M M v z x ~ g d K k k T j s p a f Z d t ",
"G B A B L F I I h v J g j E m 9 k c m M b x c b k l z z x z z z x x x x c c c c M b c b N N v j q B T f h K c k L G J D S P B m ",
"P n j g A b n d x k n M U M 2 b b b b c z k h h x c c v v v v c v v v v b b n n c x z x b b v x A & N Q j v B h x v S b j k d k ",
"V b v z N f n c C v z U N e m m v z j k x b b v c c v b b b b v x x c c v v v b z x c x x v m B n Z 0 z E x k F M l n l m C z h ",
"D M C n c v k N m g U e x b x l c c c c c v v v c c c c c v v v v v v b b n n n b b n n b b v c x j M f p L l m n v x x n N c f ",
"G m M v v m l n m j U u v m b v z z z x x x x x x x x x c c c c v v v b b b n n v v b b v v c c b x N j a L l n x v v c v n c j ",
"F v v z v M k c n j K i x c x k v b b b b n n n b b b b b n n n m m M M M M N N m m m m m n n b l k c g p F k c h x v x z x z j ",
"S c v l x b j c m c G d z z l h k k k k l l l l j j j k k k k k l l l l l l z z l l l l l k k j k l z j d D x v k x x z z z k f ",
"A n N v x v k m f d v i d d d p a a s s s s d d s s s d d d d d d d d d s s s s d f f f f d s s d h s f u n d d b b x z v n l a ",
"F N A m c v l B M C D C S D H D H H J J J J J K L L P P P P I I P L L L L K K K P I I I I P L L H L A G V K C N N m c c m N c s ",
"G M B v x v h b p j j l k l c z h h h h h j j j k k k l l l l z l l k k k j j j l l l z l l k j x m g c g c h s c c x x v n x g ",
"F v v k l x s h g c k c k k z j k k l l l l z z k k l l l l l z z z z l l k k k l l l z l l k j h c a c j b z j d j l k k z l h "
};
